<svg xmlns="http://www.w3.org/2000/svg" width="81" height="80" viewBox="0 0 81 80">
  <g id="Group_7404" data-name="Group 7404" transform="translate(0.273 0.062)">
    <rect id="Rectangle_536" data-name="Rectangle 536" width="81" height="80" transform="translate(-0.273 -0.062)" fill="#fff"/>
    <g id="_010-ford" data-name="010-ford" transform="translate(0 40.443)">
      <g id="Group_5769" data-name="Group 5769" transform="translate(52.083 21.187)">
        <g id="Group_5768" data-name="Group 5768" transform="translate(0 0)">
          <path id="Path_6979" data-name="Path 6979" d="M342.454,266.648a1.853,1.853,0,0,0-1.343-1.131,3.508,3.508,0,0,0-3.312,1.171,3.647,3.647,0,0,0-1.046,3.437,1.972,1.972,0,0,0,1.557,1.049,2.941,2.941,0,0,0,.457.035,3.682,3.682,0,0,0,2.926-1.577A3.418,3.418,0,0,0,342.454,266.648Zm-2.584,1.546a1.874,1.874,0,0,1-.777.633,1.529,1.529,0,0,1,.293-.447,3.006,3.006,0,0,1,.69-.506A2.071,2.071,0,0,1,339.87,268.194Z" transform="translate(-336.623 -265.438)"/>
        </g>
      </g>
      <g id="Group_5771" data-name="Group 5771" transform="translate(10.82 5.157)">
        <g id="Group_5770" data-name="Group 5770" transform="translate(0 0)">
          <path id="Path_6980" data-name="Path 6980" d="M127.353,169.843a1.16,1.16,0,0,0-1-.579l-3.867-.014h0a1.161,1.161,0,0,0-1,.565l-2.877,4.815a4.307,4.307,0,0,0-2.4-.737h-.079a7.129,7.129,0,0,0-5.064,2.057,3.386,3.386,0,0,0-3.1-2.146q-.147-.009-.291-.01h-.018a4.48,4.48,0,0,0-2.43.711,3.744,3.744,0,0,0-2.554-.885h-.122a3.24,3.24,0,0,0-1.393.25,7.165,7.165,0,0,0-2.495,1.748,4.377,4.377,0,0,0-.714-.961,2.215,2.215,0,0,0-1.633-.652,2,2,0,0,0-.3.023c.113-.07.223-.142.328-.218a3.112,3.112,0,0,0,1.508-3.486,4.573,4.573,0,0,0-.237-.612,21.784,21.784,0,0,0,5.4.773c2.7,0,7.864-1.757,7.864-4.513a2.165,2.165,0,0,0-2.367-2.25,3.6,3.6,0,0,0-.713.067c-.066.012-.109.02-.161.025a38.364,38.364,0,0,1-6.455.062,1.16,1.16,0,1,0-.175,2.314,40.755,40.755,0,0,0,6.846-.066c.152-.014.268-.035.361-.052a1.334,1.334,0,0,1,.291-.03,4.472,4.472,0,0,1-1.827,1.247,9.683,9.683,0,0,1-3.663.874,27.872,27.872,0,0,1-8.491-1.825c-.931-.311-1.735-.58-2.344-.717a29.178,29.178,0,0,0-6.066-.985c-4.529,0-6.634,1.5-7.485,2.4a3.809,3.809,0,0,0-1.138,2.855,1.92,1.92,0,0,0,2,1.834A2.8,2.8,0,0,0,80,171.68a6.036,6.036,0,0,0,2.464-1.209,4.663,4.663,0,0,1-3.762,2.338,2.116,2.116,0,0,1-1.516-.651,2.794,2.794,0,0,1-.764-1.952,4.37,4.37,0,0,1,2.182-3.564c1.6-1.058,4.925-3.259,12.506-2.2.5.069,1.205.237,2.024.431.844.2,1.8.427,2.919.646a1.16,1.16,0,0,0,.446-2.278c-1.074-.21-2.006-.431-2.829-.626-.913-.216-1.634-.387-2.24-.472-8.449-1.173-12.27,1.353-14.106,2.568a6.612,6.612,0,0,0-3.222,5.466,5.118,5.118,0,0,0,1.428,3.612l.007.006a7.824,7.824,0,0,0-4.093,2.615,6.547,6.547,0,0,0-1.513,4.127,6.7,6.7,0,0,0,6.961,6.709,9.791,9.791,0,0,0,6.9-2.549,3.309,3.309,0,0,0,.873,1.247l.032.028a1.15,1.15,0,0,0,.123.1l.036.024a1.863,1.863,0,0,0,1.038.316H85.9a2.627,2.627,0,0,0,1.232-.361l.071-.037.039-.021.021-.012.136-.079a5.387,5.387,0,0,0,4.039,1.734h.025a6.927,6.927,0,0,0,4.849-2.118l-.137.235a1.16,1.16,0,0,0,1,1.744l4.094.015h0a1.16,1.16,0,0,0,1.022-.611l.176-.327c.886-1.646,1.279-2.37,1.744-3.215a4.441,4.441,0,0,0,2.245.629c.172.005.337.009.5.01s.361,0,.565-.011a4.657,4.657,0,0,0,.288.826,4.285,4.285,0,0,0,4.048,2.707h.023a9.972,9.972,0,0,0,3.505-.671,3.577,3.577,0,0,0,2.408.785h.017a7.766,7.766,0,0,0,5.962-2.975,8.113,8.113,0,0,0,1.951-3.658c0-.659-.306-1.548-1.787-2.038a2.1,2.1,0,0,0-1.059-.073c1.43-2.521,3.119-5.493,4.479-7.885A1.16,1.16,0,0,0,127.353,169.843Zm-45.847-1.687a3.791,3.791,0,0,1-1.634,1.163,1.968,1.968,0,0,1,.438-.682,4.339,4.339,0,0,1,1.475-.955A2.167,2.167,0,0,0,81.506,168.156Zm11.739.205-.05.031c-.01-.02-.022-.038-.031-.058Zm-7.133-1.4a18.233,18.233,0,0,1,3.479.464,14.272,14.272,0,0,0-3.175,3.81,17.867,17.867,0,0,0-1.917.353,6.6,6.6,0,0,0,.925-2.242,2.209,2.209,0,0,0-.412-1.751,1.861,1.861,0,0,0-.69-.536A15.487,15.487,0,0,1,86.111,166.959Zm-9.244,10.949.063-.026.017-.008a2.258,2.258,0,0,0,1.48-2.06,2.147,2.147,0,0,0-.121-.7c.132.012.264.019.4.019a6.036,6.036,0,0,0,2.083-.366c0,.009,0,.017,0,.026v.081a1.162,1.162,0,0,0,.035.282l.02.078a2.112,2.112,0,0,0,1.585,1.593c-2.34,3.007-3.826,4.279-6.155,3.8h0l-.023-.005c-.261-.06-.517-.521-.517-.931A2.934,2.934,0,0,1,76.868,177.907Zm.026,7.012a4.353,4.353,0,0,1-4.64-4.429,4.2,4.2,0,0,1,1-2.625,5.325,5.325,0,0,1,1.724-1.388,4.781,4.781,0,0,0-1.563,3.212,3.262,3.262,0,0,0,2.3,3.189l.015,0,.047.011a7.062,7.062,0,0,0,1.446.157c3.494,0,5.684-2.947,8.585-6.851l.557-.749a1.16,1.16,0,0,0-.522-1.78c.573-.1,1.088-.166,1.384-.2a1.161,1.161,0,0,0,.833-.515c2.094-3.183,2.74-3.589,2.88-3.636h.021a.423.423,0,0,1,.045.013l.054.018a.132.132,0,0,1,.037.027s.112.411-.694,1.482a1.16,1.16,0,0,0,1.086,1.848l.165-.02a2.813,2.813,0,0,0,1.92-.711,1.161,1.161,0,0,0,.259-.545c.143-.784.628-1.218,1.034-1.241.443-.027.673.5.77.818.054.175.115.373-.647.922a12.087,12.087,0,0,1-4.274,1.383c-.287.055-.547.105-.771.154a1.16,1.16,0,0,0-.742.523C83.44,183.284,80.642,184.919,76.894,184.919Zm40.852-1.632a1.16,1.16,0,0,0,1.36,1.528c.861-.206,1.534-.913,3.159-2.622.236-.248.493-.518.773-.81.024-.025.047-.051.068-.078a.869.869,0,0,1,.161-.127l.009,0c-.521,1.144-2.36,4.123-5.467,4.123H117.8c-.832,0-.975-.275-1.051-.421a1.16,1.16,0,0,0-1.559-.493,7.744,7.744,0,0,1-3.277.8H111.9a2,2,0,0,1-1.971-1.329l-.011-.024a2.833,2.833,0,0,1-.234-1.164,1.16,1.16,0,0,0-1.436-1.126,5.133,5.133,0,0,1-1.284.12c-.138,0-.281,0-.436-.009a1.738,1.738,0,0,1-1.615-.815,1.16,1.16,0,0,0-2,.057l-.188.34c-.763,1.382-1.069,1.937-2.147,3.939l-1.387-.005,2.7-4.628a1.159,1.159,0,0,0,.122-.3,1.416,1.416,0,0,0-.646-1.733c-.856-.439-1.75.173-2.588.9a20.41,20.41,0,0,0-2.125,2.192c-.134.16-.274.332-.422.514-1.152,1.419-2.585,3.185-4.768,3.185h-.015a2.872,2.872,0,0,1-2.684-1.508,1.16,1.16,0,0,0-1.728-.429c-.119.087-.253.178-.4.271a4.655,4.655,0,0,0,1.523-1.727c.214-.439.549-1.074.845-1.635l.265-.5.008-.016c1.156-2.279,2.748-3.468,4.732-3.534.1,0,.141.025.139.017a.226.226,0,0,1,.022.029,1.159,1.159,0,0,0,.145.175,1.216,1.216,0,0,0,1.568.1,3.516,3.516,0,0,1,.448-.217,3.326,3.326,0,0,1,.711,1.69,1.16,1.16,0,0,0,2.028.577c.521-.608,1.905-2.222,2.876-2.547a1.176,1.176,0,0,0,.123-.049,1.1,1.1,0,0,1,.479-.06h.107a1.306,1.306,0,0,1,1.115.393,1.012,1.012,0,0,1,.16.259,1.161,1.161,0,0,0,1.849.4,2.7,2.7,0,0,1,1.87-.875c.053,0,.109,0,.175.006a1.068,1.068,0,0,1,1.152,1.067,1.267,1.267,0,0,1-1.112,1.238h-.006a1.064,1.064,0,0,1-.971-.444,1.16,1.16,0,0,0-1.977.132,3,3,0,0,0-.284.935v.007a1.16,1.16,0,0,0,.553,1.2,4.452,4.452,0,0,0,4.3.526,4.741,4.741,0,0,0,1.894-1.827c.037-.056.068-.106.1-.145,1.4-1.452,2.512-2.6,4.621-2.6h.081a1.868,1.868,0,0,1,1.681.931,1.147,1.147,0,0,0,1,.535,1.161,1.161,0,0,0,.978-.565l3.311-5.542,1.22,0C117.829,183.061,117.787,183.177,117.746,183.288Z" transform="translate(-69.933 -161.835)"/>
        </g>
      </g>
      <g id="Group_5773" data-name="Group 5773" transform="translate(30.784 21.085)">
        <g id="Group_5772" data-name="Group 5772" transform="translate(0 0)">
          <path id="Path_6981" data-name="Path 6981" d="M204.342,265.349a2.826,2.826,0,0,0-2.755-.38,4.076,4.076,0,0,0-2.568,3.166,2.108,2.108,0,0,0,1.481,2.588,1.166,1.166,0,0,0,.272.032,4.171,4.171,0,0,0,3.821-2.95C204.827,267.164,205.106,265.992,204.342,265.349Zm-2.521,2.62a1.646,1.646,0,0,1-.454.333,1.7,1.7,0,0,1,.912-1.112c.026-.011.052-.021.076-.03A2.672,2.672,0,0,1,201.82,267.969Z" transform="translate(-198.968 -264.779)"/>
        </g>
      </g>
      <g id="Group_5775" data-name="Group 5775" transform="translate(21.14 8.002)">
        <g id="Group_5774" data-name="Group 5774" transform="translate(0 0)">
          <path id="Path_6982" data-name="Path 6982" d="M187.382,180.426a1.16,1.16,0,0,0-1.325,1.9c2.888,2.01,6.331,5.305,6.331,9.593,0,4.5-3.77,8.793-10.614,12.1-7.111,3.434-16.588,5.326-26.687,5.326a72.016,72.016,0,0,1-17.02-1.947,1.16,1.16,0,0,0-.55,2.255,74.344,74.344,0,0,0,17.57,2.012c10.441,0,20.277-1.974,27.7-5.557,7.691-3.715,11.926-8.754,11.926-14.189C194.708,187.737,192.175,183.761,187.382,180.426Z" transform="translate(-136.631 -180.219)"/>
        </g>
      </g>
      <g id="Group_5777" data-name="Group 5777" transform="translate(0 0)">
        <g id="Group_5776" data-name="Group 5776">
          <path id="Path_6983" data-name="Path 6983" d="M67.24,134.029C59.823,130.464,50.005,128.5,39.6,128.5c-10.445,0-20.28,1.972-27.693,5.552C4.227,137.761,0,142.788,0,148.209c0,3.383,1.686,6.7,4.875,9.6a35.372,35.372,0,0,0,12.368,6.757,1.16,1.16,0,0,0,.742-2.2c-9.809-3.309-15.665-8.6-15.665-14.154,0-4.482,3.761-8.767,10.591-12.066,7.1-3.432,16.581-5.321,26.683-5.321,10.069,0,19.53,1.882,26.639,5.3a1.16,1.16,0,0,0,1.005-2.092Z" transform="translate(0 -128.501)"/>
        </g>
      </g>
    </g>
  </g>
</svg>
