<svg id="Group_7395" data-name="Group 7395" xmlns="http://www.w3.org/2000/svg" width="80" height="80" viewBox="0 0 80 80">
  <rect id="Rectangle_521" data-name="Rectangle 521" width="80" height="80" fill="#fff"/>
  <g id="_001-honda" data-name="001-honda" transform="translate(6.426 19.636)">
    <g id="Group_5700" data-name="Group 5700" transform="translate(5.121 5.581)">
      <g id="Group_5699" data-name="Group 5699" transform="translate(0 0)">
        <path id="Path_6944" data-name="Path 6944" d="M94.334,72.757a5.3,5.3,0,0,0-4.051-1.9H44.664a5.3,5.3,0,0,0-4.05,1.9,7.543,7.543,0,0,0-1.75,5.295l1.321,35.255c.131,3.5,2.811,6.346,5.974,6.346H88.788c3.163,0,5.843-2.847,5.974-6.347l.045-1.2a.988.988,0,1,0-1.975-.074l-.045,1.2c-.092,2.45-1.885,4.444-4,4.444h-3.5l3.75-44.846h1.247a3.308,3.308,0,0,1,2.562,1.229,5.581,5.581,0,0,1,1.263,3.919l-1.119,29.856a.988.988,0,1,0,1.975.074l1.119-29.856A7.543,7.543,0,0,0,94.334,72.757Zm-12.574.072c-2.291,12.654-4.042,18.727-6.814,23.757a3.38,3.38,0,0,1-2.326,1.763,29.883,29.883,0,0,1-5.146.324,29.891,29.891,0,0,1-5.14-.323A3.384,3.384,0,0,1,60,96.586c-2.772-5.03-4.523-11.1-6.814-23.757Zm-35.6,44.846c-2.113,0-3.907-1.993-4-4.443L40.838,77.977a5.581,5.581,0,0,1,1.263-3.92,3.308,3.308,0,0,1,2.562-1.228h1.247l3.75,44.846ZM83.3,117.67H78.031c-.047-.488-.127-1.132-.264-1.867a.988.988,0,1,0-1.943.363c.108.58.177,1.1.221,1.509H58.9a15.809,15.809,0,0,1,2.037-6.461,2.778,2.778,0,0,1,1.009-.995l.012-.006a12.7,12.7,0,0,1,5.512-1.05,12.7,12.7,0,0,1,5.512,1.05l.011.006a2.79,2.79,0,0,1,1.013,1,10.887,10.887,0,0,1,.723,1.353.988.988,0,0,0,1.8-.811,12.829,12.829,0,0,0-.851-1.593,4.73,4.73,0,0,0-1.73-1.68c-2.141-1.21-5.5-1.3-6.481-1.3s-4.339.094-6.48,1.3a4.719,4.719,0,0,0-1.726,1.674,17.815,17.815,0,0,0-2.353,7.506h-5.27L47.895,72.829h3.284c2.365,13.132,4.178,19.424,7.091,24.711a5.351,5.351,0,0,0,3.724,2.757,31.59,31.59,0,0,0,5.479.352,31.585,31.585,0,0,0,5.485-.354,5.348,5.348,0,0,0,3.718-2.756c2.914-5.287,4.726-11.579,7.092-24.711h3.284Z" transform="translate(-38.857 -70.852)"/>
      </g>
    </g>
    <g id="Group_5702" data-name="Group 5702" transform="translate(0 0)">
      <g id="Group_5701" data-name="Group 5701" transform="translate(0 0)">
        <path id="Path_6945" data-name="Path 6945" d="M65.188,32.389c-2.555-2.653-7.544-3.889-15.7-3.889H18.239c-8.308,0-13.378,1.247-15.956,3.924C-.2,35-.061,38.609.048,41.51l.005.14a.988.988,0,1,0,1.975-.073l-.005-.141C1.9,38.115,1.946,35.624,3.707,33.8c2.151-2.233,6.9-3.318,14.532-3.318H49.49c7.477,0,12.146,1.074,14.274,3.284,1.765,1.832,1.812,4.337,1.687,7.676L64.13,76.69c-.2,5.4-4.275,9.8-9.078,9.8H12.422c-4.8,0-8.876-4.394-9.078-9.8L2.183,45.724A.988.988,0,1,0,.208,45.8l1.16,30.966a12.722,12.722,0,0,0,3.383,8.251,10.491,10.491,0,0,0,7.671,3.447h42.63a10.491,10.491,0,0,0,7.671-3.447,12.722,12.722,0,0,0,3.383-8.251L67.426,41.51C67.536,38.6,67.672,34.968,65.188,32.389Z" transform="translate(0 -28.5)"/>
      </g>
    </g>
  </g>
</svg>
