<svg xmlns="http://www.w3.org/2000/svg" width="80" height="80.358" viewBox="0 0 80 80.358">
  <g id="Group_7397" data-name="Group 7397" transform="translate(10818 3589)">
    <rect id="Rectangle_634" data-name="Rectangle 634" width="80" height="80" transform="translate(-10818 -3589)" fill="#fff"/>
    <g id="Group_7139" data-name="Group 7139" transform="translate(-10817.575 -3588.969)">
      <g id="_005-mercedes-benz" data-name="005-mercedes-benz" transform="translate(6.426 12.254)">
        <g id="Group_5736" data-name="Group 5736">
          <g id="Group_5735" data-name="Group 5735">
            <path id="Path_6962" data-name="Path 6962" d="M58.1,9.967A34.035,34.035,0,1,0,9.972,58.1a34.031,34.031,0,0,0,46.006,1.951,1,1,0,0,0-1.286-1.524,32.055,32.055,0,1,1,3.23-3.139,1,1,0,0,0,1.486,1.33A34.032,34.032,0,0,0,58.1,9.967Z"/>
          </g>
        </g>
        <g id="Group_5738" data-name="Group 5738" transform="translate(4.654 4.647)">
          <g id="Group_5737" data-name="Group 5737">
            <path id="Path_6963" data-name="Path 6963" d="M64.385,34.951A29.387,29.387,0,1,0,93.767,64.338,29.418,29.418,0,0,0,64.385,34.951ZM37,64.338A27.424,27.424,0,0,1,63.136,36.975L57.958,60.331,39.911,76.624A27.228,27.228,0,0,1,37,64.338Zm26.39-19.282V62.383L48.444,71.607,59.531,61.6a1,1,0,0,0,.305-.524Zm1,46.675a27.393,27.393,0,0,1-23.292-13L56.242,73a1,1,0,0,0-.706-1.865L49.012,73.6l15.373-9.49L79.761,73.6,64.738,67.913a1,1,0,0,0-.706,0l-4.477,1.7a1,1,0,0,0,.706,1.865l4.123-1.561,23.293,8.82A27.394,27.394,0,0,1,64.385,91.731Zm6.428-31.4-1.056-4.763A1,1,0,1,0,67.81,56l1.116,5.034a.991.991,0,0,0,.312.564L80.321,71.6,65.383,62.383V45.065l.3,1.348c0,.012.007.024.01.037l1.214,5.477a1,1,0,1,0,1.947-.432l-3.219-14.52A27.385,27.385,0,0,1,88.859,76.624Z" transform="translate(-35.003 -34.951)"/>
          </g>
        </g>
      </g>
    </g>
  </g>
</svg>
