<svg xmlns="http://www.w3.org/2000/svg" width="80" height="80.132" viewBox="0 0 80 80.132">
  <g id="Group_7400" data-name="Group 7400" transform="translate(-0.151 0.031)">
    <rect id="Rectangle_531" data-name="Rectangle 531" width="80" height="80" transform="translate(0.151 -0.031)" fill="#fff"/>
    <g id="_006-acura" data-name="006-acura" transform="translate(3.213 14.147)">
      <g id="Group_5740" data-name="Group 5740" transform="translate(0 0)">
        <g id="Group_5739" data-name="Group 5739" transform="translate(0 0)">
          <path id="Path_6964" data-name="Path 6964" d="M47.905,25H25.186A25.215,25.215,0,0,0,0,50.186V65.767A25.215,25.215,0,0,0,25.186,90.954H47.905A25.215,25.215,0,0,0,73.092,65.768V50.186A25.215,25.215,0,0,0,47.905,25ZM70.95,65.768A23.071,23.071,0,0,1,47.905,88.812H25.186A23.071,23.071,0,0,1,2.141,65.768V50.186A23.071,23.071,0,0,1,25.186,27.141H47.905A23.071,23.071,0,0,1,70.95,50.186Z" transform="translate(0 -25)"/>
        </g>
      </g>
      <g id="Group_5742" data-name="Group 5742" transform="translate(6.85 3.348)">
        <g id="Group_5741" data-name="Group 5741" transform="translate(0 0)">
          <path id="Path_6965" data-name="Path 6965" d="M85.811,48.452H69.55A21.59,21.59,0,0,0,47.985,70.017v3.424a1.071,1.071,0,0,0,2.141,0V70.017A19.446,19.446,0,0,1,69.55,50.593h3.216L62.889,74.821a6.56,6.56,0,0,0-.439,1.7L59.322,102.65a19.428,19.428,0,0,1-9.2-16.505V78.081a1.071,1.071,0,1,0-2.141,0v8.064A21.59,21.59,0,0,0,69.55,107.709H85.811a21.59,21.59,0,0,0,21.565-21.565V70.017A21.59,21.59,0,0,0,85.811,48.452Zm0,57.116H69.55a19.315,19.315,0,0,1-7.462-1.492L75.467,79.141h4.427l13.379,24.936A19.317,19.317,0,0,1,85.811,105.568Zm19.424-19.424a19.428,19.428,0,0,1-9.2,16.506l-.773-6.428a1.071,1.071,0,0,0-2.126.256l.437,3.634-12.017-22.4A1.349,1.349,0,0,0,80.37,77H74.992a1.349,1.349,0,0,0-1.189.715l-12.021,22.4,2.795-23.346a4.426,4.426,0,0,1,.3-1.143l8.884-21.791v1.4a1.071,1.071,0,1,0,2.141,0V50.593h3.567V73H75.9V59.807a1.071,1.071,0,0,0-2.141,0V73.775a1.36,1.36,0,0,0,1.352,1.365h5.145a1.36,1.36,0,0,0,1.352-1.365V53.844l8.871,21.787a4.426,4.426,0,0,1,.295,1.139l1.8,15.013a1.071,1.071,0,0,0,2.126-.256L92.9,76.514a6.565,6.565,0,0,0-.437-1.691L82.594,50.593h3.217a19.446,19.446,0,0,1,19.424,19.424Z" transform="translate(-47.985 -48.452)"/>
        </g>
      </g>
    </g>
  </g>
</svg>
