<svg xmlns="http://www.w3.org/2000/svg" width="81" height="80" viewBox="0 0 81 80">
  <g id="Group_7406" data-name="Group 7406" transform="translate(0.425)">
    <rect id="Rectangle_522" data-name="Rectangle 522" width="81" height="80" transform="translate(-0.425)" fill="#fff"/>
    <g id="_004-toyota" data-name="004-toyota" transform="translate(0 25.211)">
      <g id="Group_5724" data-name="Group 5724" transform="translate(0 0)">
        <g id="Group_5723" data-name="Group 5723">
          <path id="Path_6956" data-name="Path 6956" d="M68.384,90.326C60.829,85.279,50.807,82.5,40.163,82.5a55.317,55.317,0,0,0-20.878,3.946,1.177,1.177,0,0,0,.9,2.176,52.943,52.943,0,0,1,19.982-3.769c20.848,0,37.81,11.155,37.81,24.867s-16.961,24.867-37.81,24.867S2.353,123.432,2.353,109.72c0-7.276,4.857-14.174,13.327-18.926a1.177,1.177,0,1,0-1.151-2.052C5.3,93.922,0,101.568,0,109.72c0,7.362,4.241,14.25,11.941,19.394,7.555,5.047,17.578,7.826,28.222,7.826s20.666-2.779,28.221-7.826c7.7-5.144,11.942-12.032,11.942-19.394S76.085,95.47,68.384,90.326Z" transform="translate(0 -82.5)"/>
        </g>
      </g>
      <g id="Group_5726" data-name="Group 5726" transform="translate(41.418 5.336)">
        <g id="Group_5725" data-name="Group 5725">
          <path id="Path_6957" data-name="Path 6957" d="M283.013,121.6c-2.964-2.193-9.191-4.682-17.781-5.091a1.177,1.177,0,0,0-.422,2.294c3.555,1.164,6.619,5.264,8.2,10.967a1.175,1.175,0,0,0,1.431.825A26.5,26.5,0,0,0,283,126.885a3.272,3.272,0,0,0,.009-5.282Zm-1.4,3.386a21.851,21.851,0,0,1-6.672,3.027,21.243,21.243,0,0,0-4.994-8.651c4.2.664,8.755,1.973,11.669,4.13a.91.91,0,0,1,.382.746A.925.925,0,0,1,281.61,124.989Z" transform="translate(-263.999 -116.51)"/>
        </g>
      </g>
      <g id="Group_5728" data-name="Group 5728" transform="translate(18.557 5.336)">
        <g id="Group_5727" data-name="Group 5727">
          <path id="Path_6958" data-name="Path 6958" d="M138.615,117.474a1.179,1.179,0,0,0-1.213-.963c-8.567.406-14.8,2.886-17.773,5.07a3.272,3.272,0,0,0-.01,5.283,26.324,26.324,0,0,0,8.577,3.73,1.175,1.175,0,0,0,1.431-.825c1.578-5.7,4.642-9.8,8.2-10.965A1.177,1.177,0,0,0,138.615,117.474ZM127.7,128.014a21.685,21.685,0,0,1-6.676-3.041.919.919,0,0,1,0-1.495c2.925-2.148,7.474-3.453,11.668-4.114A21.241,21.241,0,0,0,127.7,128.014Z" transform="translate(-118.283 -116.51)"/>
        </g>
      </g>
      <g id="Group_5730" data-name="Group 5730" transform="translate(5.775 14.046)">
        <g id="Group_5729" data-name="Group 5729">
          <path id="Path_6959" data-name="Path 6959" d="M99.111,172.332a1.177,1.177,0,0,0-1.894.478c-.75,2.1-3.221,4.162-6.958,5.818a1.177,1.177,0,0,0,.954,2.151c3.547-1.572,6.083-3.493,7.447-5.621,3,3.085,4.573,6.532,4.573,10.045,0,5.115-3.306,10.033-9.309,13.847a40.457,40.457,0,0,1-16.417,5.673,16.525,16.525,0,0,0,3.574-4.281,30.394,30.394,0,0,0,3.843-15.407c0-.713-.021-1.424-.062-2.123.564-.14,1.119-.289,1.659-.445a1.177,1.177,0,1,0-.654-2.261c-.809.234-1.654.451-2.512.645a1.177,1.177,0,0,0-.912,1.252c.084.952.127,1.939.127,2.932a28.025,28.025,0,0,1-3.508,14.2c-2.149,3.586-4.942,5.56-7.863,5.56-4.126,0-7.946-3.951-9.971-10.312a1.177,1.177,0,1,0-2.243.714,20.089,20.089,0,0,0,5.922,9.532,40.462,40.462,0,0,1-16.435-5.676c-6-3.814-9.309-8.732-9.309-13.847,0-3.516,1.576-6.965,4.576-10.049,2.123,3.282,7.084,6.091,13.794,7.759-.041.7-.062,1.409-.062,2.122a35.675,35.675,0,0,0,.389,5.281,1.177,1.177,0,1,0,2.327-.35,33.3,33.3,0,0,1-.363-4.931c0-.993.043-1.979.127-2.932a1.176,1.176,0,0,0-.912-1.251c-7.371-1.668-12.683-4.75-13.862-8.043a1.177,1.177,0,0,0-1.894-.479c-4.235,3.806-6.474,8.257-6.474,12.872a15.484,15.484,0,0,0,2.861,8.784,25.461,25.461,0,0,0,7.54,7.05c6.541,4.156,15.06,6.445,23.988,6.445s17.446-2.289,23.987-6.445a25.457,25.457,0,0,0,7.539-7.05,15.484,15.484,0,0,0,2.861-8.784C105.585,180.59,103.346,176.139,99.111,172.332Z" transform="translate(-36.81 -172.03)"/>
        </g>
      </g>
      <g id="Group_5732" data-name="Group 5732" transform="translate(33.284 10.682)">
        <g id="Group_5731" data-name="Group 5731">
          <path id="Path_6960" data-name="Path 6960" d="M225.858,158.909c-1.484-4.976-4.228-8.319-6.829-8.319s-5.347,3.343-6.831,8.319a1.176,1.176,0,0,0,.99,1.5,51.375,51.375,0,0,0,11.678,0,1.176,1.176,0,0,0,.99-1.5Zm-6.829-.516c-1.4,0-2.775-.057-4.118-.171,1.3-3.453,3.149-5.279,4.118-5.279s2.811,1.826,4.116,5.279C221.8,158.336,220.423,158.394,219.029,158.394Z" transform="translate(-212.149 -150.59)"/>
        </g>
      </g>
      <g id="Group_5734" data-name="Group 5734" transform="translate(32.212 23.798)">
        <g id="Group_5733" data-name="Group 5733">
          <path id="Path_6961" data-name="Path 6961" d="M221.144,235.284a1.177,1.177,0,0,0-1.307-1.087,59.16,59.16,0,0,1-13.137,0,1.177,1.177,0,0,0-1.307,1.087c-.05.712-.075,1.439-.075,2.159a25.93,25.93,0,0,0,2.5,11.556c1.539,3.014,3.575,4.813,5.447,4.813,3.752,0,7.949-7,7.949-16.368C221.219,236.723,221.193,236,221.144,235.284Zm-4.525,12.645c-1.322,2.59-2.727,3.53-3.349,3.53-1.71,0-5.6-5.295-5.6-14.015q0-.389.011-.78a61.766,61.766,0,0,0,11.173,0q.011.39.011.78A23.554,23.554,0,0,1,216.619,247.929Z" transform="translate(-205.318 -234.19)"/>
        </g>
      </g>
    </g>
  </g>
</svg>
