<svg xmlns="http://www.w3.org/2000/svg" width="80" height="80.572" viewBox="0 0 80 80.572">
  <g id="Group_7401" data-name="Group 7401" transform="translate(-0.151 0.062)">
    <rect id="Rectangle_535" data-name="Rectangle 535" width="80" height="80" transform="translate(0.151 -0.062)" fill="#fff"/>
    <g id="_007-volkswagen" data-name="007-volkswagen" transform="translate(5.984 11.084)">
      <g id="Group_5744" data-name="Group 5744" transform="translate(26.959 9.345)">
        <g id="Group_5743" data-name="Group 5743">
          <path id="Path_6966" data-name="Path 6966" d="M214.194,70.543a1.3,1.3,0,0,0-.833-.7,25.544,25.544,0,0,0-13.587,0,1.307,1.307,0,0,0-.841,1.8h0l6.447,14.272a1.307,1.307,0,0,0,2.382,0L214.2,71.637A1.307,1.307,0,0,0,214.194,70.543Zm-13.407.259Zm5.784,12.8-5.428-12.017a23.546,23.546,0,0,1,10.85,0Z" transform="translate(-198.817 -68.92)"/>
        </g>
      </g>
      <g id="Group_5746" data-name="Group 5746" transform="translate(14.089 13.281)">
        <g id="Group_5745" data-name="Group 5745">
          <path id="Path_6967" data-name="Path 6967" d="M144.912,104.273a25.412,25.412,0,0,0-6.474-6.114,1.308,1.308,0,0,0-1.9.538l-8.521,18.145h-6.947L112.518,98.7a1.308,1.308,0,0,0-1.9-.536,25.409,25.409,0,0,0-6.456,6.09,1.309,1.309,0,0,0-.143,1.319l10.9,24.181a1.307,1.307,0,0,0,2.344.08l3.768-7.039h6.992l3.768,7.039a1.3,1.3,0,0,0,1.151.69h.045a1.3,1.3,0,0,0,1.147-.768l6.467-14.311a1.017,1.017,0,0,0-1.854-.838l-5.86,12.967-3.278-6.123a1.3,1.3,0,0,0-1.152-.69H120.6a1.3,1.3,0,0,0-1.152.69l-3.276,6.121-10.117-22.442a23.356,23.356,0,0,1,4.99-4.792l8.384,17.793a1.312,1.312,0,0,0,1.182.75h7.87a1.312,1.312,0,0,0,1.183-.751l8.355-17.792a23.371,23.371,0,0,1,5.007,4.813l-2.472,5.471a1.017,1.017,0,0,0,1.854.838l2.65-5.863A1.31,1.31,0,0,0,144.912,104.273Z" transform="translate(-103.904 -97.945)"/>
        </g>
      </g>
      <g id="Group_5748" data-name="Group 5748" transform="translate(9.345 27.986)">
        <g id="Group_5747" data-name="Group 5747">
          <path id="Path_6968" data-name="Path 6968" d="M84,233.731,72.031,207.16a1.307,1.307,0,0,0-2.465.242,25.409,25.409,0,0,0,12.619,28.016A1.307,1.307,0,0,0,84,233.731ZM70.953,213.116a23.584,23.584,0,0,1,.189-2.978l10.04,22.289A23.335,23.335,0,0,1,70.953,213.116Z" transform="translate(-68.919 -206.39)"/>
        </g>
      </g>
      <g id="Group_5750" data-name="Group 5750" transform="translate(26.96 42.163)">
        <g id="Group_5749" data-name="Group 5749">
          <path id="Path_6969" data-name="Path 6969" d="M214.23,326.481,207.5,311.538a1.017,1.017,0,0,0-.927-.6h0a1.017,1.017,0,0,0-.927.6l-6.737,14.94a1.017,1.017,0,0,0,.646,1.4,25.532,25.532,0,0,0,14.027,0,1.017,1.017,0,0,0,.647-1.4Zm-7.656.342a23.431,23.431,0,0,1-5.314-.608l5.314-11.784,5.307,11.786A23.439,23.439,0,0,1,206.574,326.823Z" transform="translate(-198.821 -310.939)"/>
        </g>
      </g>
      <g id="Group_5752" data-name="Group 5752" transform="translate(44.886 28.041)">
        <g id="Group_5751" data-name="Group 5751">
          <path id="Path_6970" data-name="Path 6970" d="M345.581,207.808a1.307,1.307,0,0,0-2.465-.246l-11.981,26.516a1.307,1.307,0,0,0,1.814,1.688,25.412,25.412,0,0,0,12.632-27.958Zm-11.624,24.964L344,210.547a23.617,23.617,0,0,1,.181,2.918A23.333,23.333,0,0,1,333.956,232.772Z" transform="translate(-331.018 -206.793)"/>
        </g>
      </g>
      <g id="Group_5754" data-name="Group 5754">
        <g id="Group_5753" data-name="Group 5753">
          <path id="Path_6971" data-name="Path 6971" d="M59.257,10.166A34.711,34.711,0,0,0,11.551,8.859a1.017,1.017,0,0,0,1.358,1.515,32.663,32.663,0,1,1-3.322,3.445,1.017,1.017,0,0,0-1.563-1.3,34.714,34.714,0,1,0,51.234-2.351Z"/>
        </g>
      </g>
      <g id="Group_5756" data-name="Group 5756" transform="translate(4.746 4.739)">
        <g id="Group_5755" data-name="Group 5755">
          <path id="Path_6972" data-name="Path 6972" d="M64.97,34.95A29.974,29.974,0,0,0,51.5,91.693a1.017,1.017,0,1,0,.917-1.816A27.927,27.927,0,1,1,64.97,92.86a27.812,27.812,0,0,1-8.807-1.423,1.017,1.017,0,1,0-.643,1.93A29.972,29.972,0,1,0,64.97,34.95Z" transform="translate(-35.003 -34.95)"/>
        </g>
      </g>
    </g>
  </g>
</svg>
