<svg xmlns="http://www.w3.org/2000/svg" width="80" height="80" viewBox="0 0 80 80">
  <g id="Group_7396" data-name="Group 7396" transform="translate(0 0.062)">
    <rect id="Rectangle_533" data-name="Rectangle 533" width="80" height="80" transform="translate(0 -0.062)" fill="#fff"/>
    <g id="_003-nissan" data-name="003-nissan" transform="translate(2.014 11.084)">
      <g id="Group_5710" data-name="Group 5710" transform="translate(0 0)">
        <g id="Group_5709" data-name="Group 5709">
          <path id="Path_6949" data-name="Path 6949" d="M74,46.7H69.87A34.42,34.42,0,0,0,57.959,30.279,34.112,34.112,0,0,0,9.07,38.836a1.1,1.1,0,1,0,1.836,1.212,31.911,31.911,0,0,1,45.735-8.008A32.224,32.224,0,0,1,67.538,46.7H62a26.772,26.772,0,0,0-48.9,0H7.56c.324-.891.688-1.769,1.089-2.624a1.1,1.1,0,1,0-1.992-.934A34,34,0,0,0,5.229,46.7H1.1A1.1,1.1,0,0,0,0,47.8V67.406a1.1,1.1,0,0,0,1.1,1.1H5.229A34.42,34.42,0,0,0,17.14,84.926a34.141,34.141,0,0,0,35,3.507,1.1,1.1,0,0,0-.943-1.988,31.942,31.942,0,0,1-32.743-3.281,32.226,32.226,0,0,1-10.9-14.658H13.1a26.772,26.772,0,0,0,48.9,0h5.539a32.069,32.069,0,0,1-12.27,15.629,1.1,1.1,0,1,0,1.223,1.828A34.263,34.263,0,0,0,69.871,68.507H74a1.1,1.1,0,0,0,1.1-1.1V47.8A1.1,1.1,0,0,0,74,46.7ZM23.734,37.283A24.574,24.574,0,0,1,59.57,46.7H15.529A24.571,24.571,0,0,1,23.734,37.283ZM72.9,66.306H56.559a1.1,1.1,0,1,0,0,2.2H59.57a24.575,24.575,0,0,1-44.042,0h36.1a1.1,1.1,0,1,0,0-2.2H2.2V48.9H72.9Z" transform="translate(0 -23.5)"/>
        </g>
      </g>
      <g id="Group_5712" data-name="Group 5712" transform="translate(5.516 27.556)">
        <g id="Group_5711" data-name="Group 5711">
          <path id="Path_6950" data-name="Path 6950" d="M46.9,211.365a1.1,1.1,0,0,0-1.1,1.1v7.6L39.585,211.8a1.1,1.1,0,0,0-1.979.661v10.893a1.1,1.1,0,1,0,2.2,0v-7.6l6.211,8.261A1.1,1.1,0,0,0,48,223.358V212.465A1.1,1.1,0,0,0,46.9,211.365Z" transform="translate(-37.606 -211.364)"/>
        </g>
      </g>
      <g id="Group_5714" data-name="Group 5714" transform="translate(59.192 27.556)">
        <g id="Group_5713" data-name="Group 5713">
          <path id="Path_6951" data-name="Path 6951" d="M412.846,211.365a1.1,1.1,0,0,0-1.1,1.1v7.6l-6.211-8.261a1.1,1.1,0,0,0-1.979.661v10.893a1.1,1.1,0,1,0,2.2,0v-7.6l6.211,8.261a1.1,1.1,0,0,0,1.979-.661V212.465A1.1,1.1,0,0,0,412.846,211.365Z" transform="translate(-403.555 -211.365)"/>
        </g>
      </g>
      <g id="Group_5716" data-name="Group 5716" transform="translate(18.417 27.556)">
        <g id="Group_5715" data-name="Group 5715">
          <path id="Path_6952" data-name="Path 6952" d="M126.663,211.365a1.1,1.1,0,0,0-1.1,1.1v10.893a1.1,1.1,0,0,0,2.2,0V212.465A1.1,1.1,0,0,0,126.663,211.365Z" transform="translate(-125.563 -211.365)"/>
        </g>
      </g>
      <g id="Group_5718" data-name="Group 5718" transform="translate(23.153 27.556)">
        <g id="Group_5717" data-name="Group 5717">
          <path id="Path_6953" data-name="Path 6953" d="M164.419,216.812h-2.744a1.623,1.623,0,0,1,0-3.246h5.467a1.1,1.1,0,1,0,0-2.2h-5.467a3.823,3.823,0,0,0,0,7.647h2.744a1.623,1.623,0,1,1,0,3.247h-5.467a1.1,1.1,0,0,0,0,2.2h5.467a3.823,3.823,0,1,0,0-7.647Z" transform="translate(-157.852 -211.365)"/>
        </g>
      </g>
      <g id="Group_5720" data-name="Group 5720" transform="translate(35.211 27.556)">
        <g id="Group_5719" data-name="Group 5719">
          <path id="Path_6954" data-name="Path 6954" d="M246.622,216.812h-2.744a1.623,1.623,0,1,1,0-3.246h5.467a1.1,1.1,0,1,0,0-2.2h-5.467a3.823,3.823,0,1,0,0,7.647h2.744a1.623,1.623,0,0,1,0,3.247h-5.467a1.1,1.1,0,1,0,0,2.2h5.467a3.823,3.823,0,0,0,0-7.647Z" transform="translate(-240.055 -211.365)"/>
        </g>
      </g>
      <g id="Group_5722" data-name="Group 5722" transform="translate(47.268 27.556)">
        <g id="Group_5721" data-name="Group 5721">
          <path id="Path_6955" data-name="Path 6955" d="M327.454,211.365a5.2,5.2,0,0,0-5.2,5.2v6.8a1.1,1.1,0,0,0,2.2,0v-4.347h5.99v4.347a1.1,1.1,0,1,0,2.2,0v-6.8A5.2,5.2,0,0,0,327.454,211.365Zm3,5.447h-5.99v-.251a3,3,0,1,1,5.99,0Z" transform="translate(-322.259 -211.365)"/>
        </g>
      </g>
    </g>
  </g>
</svg>
