<svg xmlns="http://www.w3.org/2000/svg" width="80" height="80" viewBox="0 0 80 80">
  <g id="Group_7405" data-name="Group 7405" transform="translate(10922 3589)">
    <rect id="Rectangle_633" data-name="Rectangle 633" width="79.887" height="80" transform="translate(-10922 -3589)" fill="#fff"/>
    <g id="Group_7136" data-name="Group 7136" transform="translate(-10922 -3553.867)">
      <g id="_002-hyundai" data-name="002-hyundai" transform="translate(0 0)">
        <g id="Group_5704" data-name="Group 5704" transform="translate(0 10.891)">
          <g id="Group_5703" data-name="Group 5703">
            <path id="Path_6946" data-name="Path 6946" d="M56.336,215.113a1.174,1.174,0,0,0-1.4-.885,67.511,67.511,0,0,1-14.876,1.607c-10.2,0-19.764-2.115-26.941-5.956C6.172,206.161,2.347,201.3,2.347,196.2c0-3.188,1.461-6.244,4.343-9.084a1.174,1.174,0,1,0-1.647-1.672C1.744,188.692,0,192.411,0,196.2c0,6.012,4.265,11.605,12.008,15.75,7.511,4.02,17.472,6.234,28.048,6.234a69.859,69.859,0,0,0,15.394-1.664A1.173,1.173,0,0,0,56.336,215.113Z" transform="translate(0 -185.104)"/>
          </g>
        </g>
        <g id="Group_5706" data-name="Group 5706" transform="translate(8.89)">
          <g id="Group_5705" data-name="Group 5705">
            <path id="Path_6947" data-name="Path 6947" d="M115.938,121.734c-7.5-4.02-17.445-6.234-28-6.234-11.841,0-22.988,2.826-30.582,7.754a1.173,1.173,0,0,0,1.274,1.97c7.224-4.688,17.907-7.377,29.308-7.377,10.18,0,19.733,2.115,26.9,5.956,6.933,3.717,10.752,8.575,10.752,13.681,0,6.818-7.037,13.269-18.365,16.836a1.173,1.173,0,1,0,.7,2.239,38.357,38.357,0,0,0,14.337-7.718c3.708-3.4,5.669-7.326,5.669-11.358C127.927,131.472,123.669,125.879,115.938,121.734Z" transform="translate(-56.818 -115.5)"/>
          </g>
        </g>
        <g id="Group_5708" data-name="Group 5708" transform="translate(4.694 4.689)">
          <g id="Group_5707" data-name="Group 5707">
            <path id="Path_6948" data-name="Path 6948" d="M91.1,151.145c-.582-.312-1.193-.618-1.814-.908-.882-.413-1.809-.806-2.754-1.168a60.129,60.129,0,0,0-21.222-3.6c-1.173,0-2.36.03-3.529.089-1.2.06-2.374.149-3.5.266a51.192,51.192,0,0,0-18.763,5.324C33.468,154.387,30,158.621,30,162.762s3.468,8.374,9.517,11.616c.4.215.818.428,1.237.634.9.441,1.857.862,2.836,1.249a59.574,59.574,0,0,0,21.715,3.8c.837,0,1.665-.015,2.459-.044q.475-.016.953-.039c.868-.041,1.738-.1,2.6-.174A51.776,51.776,0,0,0,91.1,174.377c6.047-3.242,9.516-7.476,9.516-11.616S97.143,154.387,91.1,151.145Zm-28.439-3.279c.882-.034,1.77-.052,2.649-.052a59.285,59.285,0,0,1,18.6,2.813c-3.688,3.3-9.884,7.614-17.1,7.614-2.273,0-3.829-.594-4.626-1.766C61.053,154.822,61.227,151.781,62.657,147.866ZM40.621,172.308c-5.261-2.82-8.278-6.3-8.278-9.546s3.017-6.727,8.278-9.548a46.834,46.834,0,0,1,15.18-4.719,196.635,196.635,0,0,0-15.028,23.892Zm26.256,5.382c-.516.012-1.041.019-1.571.019a58.608,58.608,0,0,1-19.258-3.038c3.439-3.691,10.2-9.779,17.338-9.779,1.878,0,3.168.532,3.943,1.627C68.733,168.5,68.563,172.548,66.877,177.689Zm23.113-5.382A47.613,47.613,0,0,1,73.6,177.194c2.39-3.549,5.912-8.831,9.273-14.065a1.172,1.172,0,1,0-1.971-1.27c-3.91,6.09-8.041,12.246-10.34,15.645l-.112.009q-.53.041-1.063.073H69.37c2.147-7.015,1.151-10.618-.129-12.426-1.23-1.736-3.2-2.617-5.854-2.617-3.9,0-8.023,1.513-12.252,4.5a45.473,45.473,0,0,0-7.439,6.727l-.156-.067c-.191-.081-.381-.163-.568-.247l-.089-.04a192.459,192.459,0,0,1,16.138-25.307l.127-.012q.431-.04.87-.075l.112-.009c-1.069,3.278-1.667,7.167.112,9.784,1.26,1.852,3.467,2.792,6.563,2.792,8.618,0,15.778-5.443,19.58-9.055l.136.056q.276.113.549.228l.047.021c-.936,1.589-2.039,3.4-3.289,5.4a1.172,1.172,0,1,0,1.987,1.245c1.314-2.1,2.466-4,3.438-5.655.251.127.5.255.74.384,5.26,2.82,8.278,6.3,8.278,9.548S95.251,169.488,89.99,172.308Z" transform="translate(-30 -145.466)"/>
          </g>
        </g>
      </g>
    </g>
  </g>
</svg>
