<svg xmlns="http://www.w3.org/2000/svg" width="81" height="80.069" viewBox="0 0 81 80.069">
  <g id="Group_7402" data-name="Group 7402" transform="translate(0.273)">
    <rect id="Rectangle_524" data-name="Rectangle 524" width="81" height="80" transform="translate(-0.273)" fill="#fff"/>
    <g id="_008-bmw" data-name="008-bmw" transform="translate(3.213 5.671)">
      <g id="Group_5758" data-name="Group 5758" transform="translate(33.215 3.522)">
        <g id="Group_5757" data-name="Group 5757">
          <path id="Path_6973" data-name="Path 6973" d="M234.021,24.24a2.515,2.515,0,0,0-1.451.46,2.529,2.529,0,0,0-3.983,2.072v4.885a1.09,1.09,0,0,0,2.18,0V26.772a.353.353,0,0,1,.705,0v4.885a1.09,1.09,0,0,0,1.09,1.09h.018a1.09,1.09,0,0,0,1.09-1.09V26.772a.353.353,0,0,1,.705,0v4.885a1.09,1.09,0,0,0,2.18,0V26.772A2.535,2.535,0,0,0,234.021,24.24Z" transform="translate(-228.586 -24.24)"/>
        </g>
      </g>
      <g id="Group_5760" data-name="Group 5760" transform="translate(17.901 6.976)">
        <g id="Group_5759" data-name="Group 5759">
          <path id="Path_6974" data-name="Path 6974" d="M131.629,52.033a2.62,2.62,0,0,0-1.211-1.1,2.637,2.637,0,0,0-3.931-2.583l-2.741,1.564a1.09,1.09,0,0,0-.406,1.487l1.539,2.7,1.538,2.7a1.089,1.089,0,0,0,1.487.406l2.741-1.564A2.645,2.645,0,0,0,131.629,52.033Zm-5.4.039-.458-.8,1.794-1.024a.462.462,0,0,1,.458.8Zm3.333,1.671-1.794,1.024-.458-.8.974-.556.82-.468a.462.462,0,0,1,.458.8Z" transform="translate(-123.196 -48.006)"/>
        </g>
      </g>
      <g id="Group_5762" data-name="Group 5762" transform="translate(46.735 6.006)">
        <g id="Group_5761" data-name="Group 5761">
          <path id="Path_6975" data-name="Path 6975" d="M330.893,44.342a1.09,1.09,0,0,0-1.487.407l-2.42,4.243a.353.353,0,1,1-.612-.349l2.42-4.243a1.09,1.09,0,0,0-.407-1.487l-.007,0-.008-.005a1.09,1.09,0,0,0-1.487.407l-2.42,4.243a.353.353,0,1,1-.613-.349l2.42-4.243a1.09,1.09,0,0,0-1.893-1.08l-2.42,4.243a2.531,2.531,0,0,0,2.2,3.786c.079,0,.159-.005.237-.013a2.531,2.531,0,0,0,2.284,1.452,2.545,2.545,0,0,0,.672-.091,2.515,2.515,0,0,0,1.531-1.188l2.42-4.243A1.089,1.089,0,0,0,330.893,44.342Z" transform="translate(-321.627 -41.331)"/>
        </g>
      </g>
      <g id="Group_5764" data-name="Group 5764" transform="translate(0 0)">
        <g id="Group_5763" data-name="Group 5763">
          <path id="Path_6976" data-name="Path 6976" d="M63.5,10.9A37.2,37.2,0,0,0,12.711,9.2a1.09,1.09,0,0,0,1.435,1.64,35.013,35.013,0,1,1-3.767,3.843,1.09,1.09,0,1,0-1.669-1.4A37.2,37.2,0,1,0,63.5,10.9Z" transform="translate(0 0)"/>
        </g>
      </g>
      <g id="Group_5766" data-name="Group 5766" transform="translate(13.15 13.15)">
        <g id="Group_5765" data-name="Group 5765">
          <path id="Path_6977" data-name="Path 6977" d="M114.548,90.5A24.048,24.048,0,1,0,138.6,114.548,24.076,24.076,0,0,0,114.548,90.5Zm-1.09,2.207v20.752H92.707A21.9,21.9,0,0,1,113.459,92.707Zm2.18,43.683v-3.266a1.09,1.09,0,0,0-2.18,0v3.266a21.9,21.9,0,0,1-20.752-20.752h20.752V128.45a1.09,1.09,0,0,0,2.18,0V115.638h3.56a1.09,1.09,0,1,0,0-2.18h-3.56V92.707a21.9,21.9,0,0,1,20.752,20.752H123.921a1.09,1.09,0,0,0,0,2.18H136.39A21.9,21.9,0,0,1,115.638,136.39Z" transform="translate(-90.5 -90.5)"/>
        </g>
      </g>
    </g>
  </g>
</svg>
