<svg id="Group_7399" data-name="Group 7399" xmlns="http://www.w3.org/2000/svg" width="80.151" height="80.159" viewBox="0 0 80.151 80.159">
  <rect id="Rectangle_523" data-name="Rectangle 523" width="80" height="80" transform="translate(0.151)" fill="#fff"/>
  <g id="Group_6308" data-name="Group 6308" transform="translate(0 40.163)">
    <path id="Path_6984" data-name="Path 6984" d="M2096.84,927.068a77.072,77.072,0,0,1,9.507.573,63.359,63.359,0,0,1,13.444,3.076,38.975,38.975,0,0,1,9.57,4.788,20.073,20.073,0,0,1,5.357,5.325,11.535,11.535,0,0,1,1.917,5.134,10.446,10.446,0,0,1-.875,5.422,15.422,15.422,0,0,1-3.51,4.861,28.5,28.5,0,0,1-6.949,4.813,51.2,51.2,0,0,1-11.808,4.175,69.838,69.838,0,0,1-8.882,1.444,78.566,78.566,0,0,1-10.561.335,70.813,70.813,0,0,1-16.6-2.469,46.6,46.6,0,0,1-10.471-4.223,26.21,26.21,0,0,1-6.051-4.549,14.083,14.083,0,0,1-3.443-5.459,10.527,10.527,0,0,1,1.031-8.8,17.73,17.73,0,0,1,4.274-4.867,33.218,33.218,0,0,1,7.766-4.625,53.822,53.822,0,0,1,9.615-3.132,70.132,70.132,0,0,1,8.9-1.444Q2092.951,927.066,2096.84,927.068Zm-.451,37.482a68.811,68.811,0,0,0,12.708-1.1,50.629,50.629,0,0,0,10.433-3.038,30.162,30.162,0,0,0,7.2-4.135,15.464,15.464,0,0,0,4.082-4.652,9.064,9.064,0,0,0,.936-6.774,11.632,11.632,0,0,0-2.868-5.015,22.375,22.375,0,0,0-5.534-4.258,41.334,41.334,0,0,0-9.556-3.83,62.7,62.7,0,0,0-14.2-2.115,68.772,68.772,0,0,0-13.138.723,54.758,54.758,0,0,0-9.97,2.448,34.164,34.164,0,0,0-8.613,4.331,16.782,16.782,0,0,0-4.759,4.9,9.1,9.1,0,0,0-.846,8.339,12.882,12.882,0,0,0,3.233,4.649,25.237,25.237,0,0,0,6.275,4.3,45.09,45.09,0,0,0,9.953,3.522A64.824,64.824,0,0,0,2096.389,964.55Z" transform="translate(-2056.958 -927.068)"/>
    <path id="Path_6985" data-name="Path 6985" d="M2381.444,1163.451v-8.969c0-.447-.115-.561-.568-.561-.588,0-.588,0-.588-.579,0-.13.009-.262,0-.391-.017-.188.054-.254.246-.252.666.01,1.332,0,2,0h3.865c.418,0,.554.137.554.562v6.146a1.782,1.782,0,0,0,0,.217.2.2,0,0,0,.326.167.983.983,0,0,0,.253-.26q2.2-3.107,4.4-6.221a1.29,1.29,0,0,1,1.175-.619c1.6.026,3.2.011,4.8.007.2,0,.376.021.477.221a.477.477,0,0,1-.092.522q-2.822,4.17-5.64,8.343c-.291.431-.29.452.012.88q3.391,4.793,6.779,9.587a.938.938,0,0,1,.16.3.387.387,0,0,1-.418.474c-.507,0-1.014,0-1.52,0-1.252,0-2.5-.009-3.756.005a1.077,1.077,0,0,1-.955-.49l-3.188-4.471q-1.14-1.6-2.281-3.2a.738.738,0,0,0-.159-.175.22.22,0,0,0-.367.161,1.849,1.849,0,0,0-.006.239v7.34c0,.467-.125.59-.594.59h-4.364c-.408,0-.546-.138-.546-.549Z" transform="translate(-2366.241 -1142.896)"/>
    <path id="Path_6986" data-name="Path 6986" d="M3134.52,1152.833h3.6c.464,0,.541.055.688.5q3.212,9.584,6.42,19.17a.8.8,0,0,1,.04.376.344.344,0,0,1-.379.287q-2.334,0-4.669,0a.636.636,0,0,1-.612-.521q-.71-2.2-1.415-4.4-1.287-4.006-2.574-8.013a.764.764,0,0,0-.074-.179.171.171,0,0,0-.312,0,.955.955,0,0,0-.086.221q-1.959,6.16-3.916,12.321a.686.686,0,0,1-.794.575h-4.386c-.454,0-.611-.222-.466-.655l5.941-17.729c.007-.021.014-.042.021-.062.164-.5.04-.663-.49-.666-.56,0-.494.081-.5-.493,0-.159.01-.32,0-.478-.016-.189.055-.25.246-.249C3132.045,1152.837,3133.282,1152.833,3134.52,1152.833Z" transform="translate(-3079.127 -1143.024)"/>
    <path id="Path_6987" data-name="Path 6987" d="M2890.945,1162.984v9.6c0,.458-.125.586-.576.586H2885.9c-.474,0-.594-.118-.594-.586q0-8.946,0-17.893c0-.08,0-.16,0-.239a.4.4,0,0,0-.409-.392,3.978,3.978,0,0,0-.478,0c-.167.014-.234-.038-.226-.215a7.187,7.187,0,0,0,0-.781c-.01-.188.063-.228.237-.227,1.5.006,3,0,4.5,0h1.477c.409,0,.549.139.549.547Q2890.946,1158.186,2890.945,1162.984Z" transform="translate(-2848.258 -1143.031)"/>
  </g>
</svg>
