<svg xmlns="http://www.w3.org/2000/svg" width="80" height="80" viewBox="0 0 80 80">
  <g id="icon-22" transform="translate(15885 -10161)">
    <rect id="Rectangle_642" data-name="Rectangle 642" width="80" height="80" transform="translate(-15885 10161)" fill="#fff"/>
    <g id="Breakdown" transform="translate(-15887 10160.984)">
      <rect id="Rectangle_501" data-name="Rectangle 501" transform="translate(51.852 48.836)"/>
      <path id="Path_7256" data-name="Path 7256" d="M30.824,52.548l1.26-.728-1.332-2.308-1.256.724a8.182,8.182,0,0,0-1.068-1.068l.724-1.256L26.844,46.58l-.728,1.26a8,8,0,0,0-1.448-.4V46H22v1.452a8,8,0,0,0-1.452.4l-.728-1.26-2.308,1.332.724,1.256a8.186,8.186,0,0,0-1.068,1.068l-1.256-.724L14.58,51.832l1.26.728a8,8,0,0,0-.4,1.448H14v2.668h1.452a8,8,0,0,0,.4,1.452l-1.26.728,1.332,2.308,1.256-.724a8.183,8.183,0,0,0,1.068,1.068l-.724,1.256L19.832,64.1l.728-1.26a8,8,0,0,0,1.448.4v1.452h2.668V63.2a8,8,0,0,0,1.452-.4l.728,1.26,2.308-1.332-.724-1.256A8.184,8.184,0,0,0,29.508,60.4l1.256.724L32.1,58.82l-1.26-.728a8,8,0,0,0,.4-1.448h1.452V54H31.2a8,8,0,0,0-.376-1.452Zm-2.156,2.8a5.34,5.34,0,1,1,0-.016Z" transform="translate(4 14)"/>
      <rect id="Rectangle_502" data-name="Rectangle 502" width="5.564" transform="translate(24.024 71.096)"/>
      <path id="Path_7257" data-name="Path 7257" d="M58.824,52.548l1.26-.728-1.332-2.308-1.256.724a8.184,8.184,0,0,0-1.068-1.068l.724-1.256L54.844,46.58l-.728,1.26a8,8,0,0,0-1.448-.4V46H50v1.452a8,8,0,0,0-1.452.4l-.728-1.26-2.308,1.332.724,1.256a8.183,8.183,0,0,0-1.068,1.068l-1.256-.724L42.58,51.832l1.26.728a8,8,0,0,0-.4,1.448H42v2.668h1.452a8,8,0,0,0,.4,1.452l-1.26.728,1.332,2.308,1.256-.724a8.182,8.182,0,0,0,1.068,1.068l-.724,1.256L47.832,64.1l.728-1.26a8,8,0,0,0,1.448.4v1.452h2.668V63.2a8,8,0,0,0,1.452-.4l.728,1.26,2.308-1.332-.724-1.256A8.188,8.188,0,0,0,57.508,60.4l1.256.724L60.1,58.82l-1.26-.728a8,8,0,0,0,.4-1.448h1.452V54H59.2A8,8,0,0,0,58.824,52.548Zm-2.156,2.8a5.34,5.34,0,1,1,0-.016Z" transform="translate(13.332 14)"/>
      <rect id="Rectangle_503" data-name="Rectangle 503" transform="translate(62.984 71.096)"/>
      <path id="Path_7258" data-name="Path 7258" d="M72.668,37H71.136l-2.508-6.332L71.384,22.4a4,4,0,0,1,3.8-2.736h4.156V17h-4.16a6.656,6.656,0,0,0-6.324,4.556L64.4,34.968l-7.7-14.44A6.656,6.656,0,0,0,50.8,17H16.668A6.676,6.676,0,0,0,10,23.668v2.668H4.668A2.668,2.668,0,0,0,2,29V42.332A2.668,2.668,0,0,0,4.668,45H10V57a4,4,0,0,0,4,4h1.12a1.332,1.332,0,0,0,1.224-.8,12,12,0,0,1,22,0,1.332,1.332,0,0,0,1.224.8H52.476a1.332,1.332,0,0,0,1.224-.8,12,12,0,0,1,22,0,1.332,1.332,0,0,0,1.224.8H78a4,4,0,0,0,4-4V46.332A9.344,9.344,0,0,0,72.668,37Zm6.668,9.332v1.332H74V45h5.2a6.67,6.67,0,0,1,.132,1.332ZM68.268,37H66.516l.8-2.4ZM54.332,21.8,62.444,37H47.332V19.668H50.8a4,4,0,0,1,3.528,2.116ZM12.668,23.684a4,4,0,0,1,4-4h28V37h-32ZM14,45v2.668H12.668V45ZM4.668,42.332v-4H6V35.664H4.668V33H6V30.332H4.668V29H10v4H8.668v2.668H10v2.668H8.668V41H10v1.332Zm9.6,16H14A1.332,1.332,0,0,1,12.668,57V55.668h3.4a14.624,14.624,0,0,0-1.792,2.668Zm13.056-8a14.648,14.648,0,0,0-10.668,4.616V53h-4V50.332H14a2.668,2.668,0,0,0,2.668-2.668V45A2.668,2.668,0,0,0,14,42.332H12.668V39.664h32V58.332H40.4a14.66,14.66,0,0,0-13.068-8Zm37.332,0a14.656,14.656,0,0,0-13.055,8H47.332V39.668H72.664a6.636,6.636,0,0,1,5.3,2.668H74A2.668,2.668,0,0,0,71.332,45v2.668A2.668,2.668,0,0,0,74,50.34h5.332V53h-4v1.948a14.648,14.648,0,0,0-10.664-4.616Zm13.332,8h-.276a14.624,14.624,0,0,0-1.792-2.668h3.4V57A1.332,1.332,0,0,1,78,58.332Z" transform="translate(0 4.332)"/>
      <path id="Path_7259" data-name="Path 7259" d="M47.3,19.332h2.668a1.8,1.8,0,0,1,.62-1.36,4.432,4.432,0,0,0,0-6.16,1.812,1.812,0,0,1,0-2.732A4.4,4.4,0,0,0,51.833,6H49.165a1.812,1.812,0,0,1-.62,1.364,4.436,4.436,0,0,0,0,6.164,1.808,1.808,0,0,1,0,2.728A4.4,4.4,0,0,0,47.3,19.332Z" transform="translate(15.099 0.668)" fill="#ff4612"/>
      <path id="Path_7260" data-name="Path 7260" d="M53.3,17.332h2.668a1.8,1.8,0,0,1,.62-1.36,4.432,4.432,0,0,0,0-6.16,1.812,1.812,0,0,1,0-2.732A4.4,4.4,0,0,0,57.833,4H55.165a1.812,1.812,0,0,1-.62,1.364,4.436,4.436,0,0,0,0,6.164,1.808,1.808,0,0,1,0,2.728,4.4,4.4,0,0,0-1.244,3.08Z" transform="translate(17.099 0)" fill="#ff4612"/>
    </g>
  </g>
</svg>
