<svg xmlns="http://www.w3.org/2000/svg" width="79" height="80.1" viewBox="0 0 79 80.1">
  <g id="icon-4" transform="translate(9728 3472)">
    <rect id="Rectangle_517" data-name="Rectangle 517" width="79" height="79" transform="translate(-9728 -3472)" fill="#fff"/>
    <g id="_006-damper" data-name="006-damper" transform="translate(-9713.751 -3463.495)">
      <path id="Path_6840" data-name="Path 6840" d="M18.613,14.225A4.613,4.613,0,1,0,14,9.613,4.617,4.617,0,0,0,18.613,14.225Zm0-6.919a2.306,2.306,0,1,1-2.306,2.306A2.309,2.309,0,0,1,18.613,7.306Z" transform="translate(-9.387 -0.387)" fill="#ff4612" stroke="#fff" stroke-width="0.2"/>
      <path id="Path_6841" data-name="Path 6841" d="M14,55.613A4.613,4.613,0,1,0,18.613,51,4.617,4.617,0,0,0,14,55.613Zm6.919,0a2.306,2.306,0,1,1-2.306-2.306A2.309,2.309,0,0,1,20.919,55.613Z" transform="translate(-9.387 6.657)" fill="#ff4612" stroke="#fff" stroke-width="0.2"/>
      <path id="Path_6842" data-name="Path 6842" d="M46.613,51a4.613,4.613,0,1,0,4.613,4.613A4.617,4.617,0,0,0,46.613,51Zm0,6.919a2.306,2.306,0,1,1,2.306-2.306A2.309,2.309,0,0,1,46.613,57.919Z" transform="translate(-5.099 6.657)" fill="#ff4612" stroke="#fff" stroke-width="0.2"/>
      <path id="Path_6843" data-name="Path 6843" d="M51.838,55.29V48.067a3.455,3.455,0,0,0,2.306-3.247V22.91a3.455,3.455,0,0,0-2.306-3.247V18.2a9.225,9.225,0,1,0-9.225,0v1.458a3.455,3.455,0,0,0-2.306,3.247v21.91a3.455,3.455,0,0,0,2.306,3.247V55.29a9.225,9.225,0,1,0,9.225,0ZM40.306,10.225a6.919,6.919,0,1,1,9.882,6.243l-.657.314V19.45H44.919V16.782l-.657-.313A6.953,6.953,0,0,1,40.306,10.225ZM42.613,22.91a1.154,1.154,0,0,1,1.153-1.153h6.919a1.154,1.154,0,0,1,1.153,1.153v21.91a1.154,1.154,0,0,1-1.153,1.153H43.766a1.154,1.154,0,0,1-1.153-1.153Zm4.613,47.279a6.913,6.913,0,0,1-2.964-13.162l.657-.314V48.279h4.613v8.434l.657.313a6.914,6.914,0,0,1-2.964,13.163Z" transform="translate(-5.712 -1)" stroke="#fff" stroke-width="0.2"/>
      <path id="Path_6844" data-name="Path 6844" d="M28.45,10.225A9.225,9.225,0,1,0,14.613,18.2v1.458a3.455,3.455,0,0,0-2.306,3.247v9.225a3.455,3.455,0,0,0,2.306,3.247V37.9H13.459a3.459,3.459,0,1,0,0,6.919h1.153v2.306H13.459a3.459,3.459,0,1,0,0,6.919h1.153V55.29a9.225,9.225,0,1,0,9.225,0V54.045h1.153a3.459,3.459,0,0,0,0-6.919H23.838V44.819h1.153a3.459,3.459,0,0,0,0-6.919H23.838V35.382a3.455,3.455,0,0,0,2.306-3.247V22.91a3.455,3.455,0,0,0-2.306-3.247V18.2A9.272,9.272,0,0,0,28.45,10.225Zm-16.144,0a6.919,6.919,0,1,1,9.882,6.243l-.657.314V19.45H16.919V16.782l-.657-.313A6.953,6.953,0,0,1,12.306,10.225Zm9.882,46.8a6.919,6.919,0,1,1-5.927,0l.657-.314V54.045h4.613v2.668Zm3.955-6.441a1.154,1.154,0,0,1-1.153,1.153H13.459a1.153,1.153,0,1,1,0-2.306H24.991A1.154,1.154,0,0,1,26.144,50.585Zm-4.613-3.459H16.919V44.819h4.613Zm4.613-5.766a1.154,1.154,0,0,1-1.153,1.153H13.459a1.153,1.153,0,1,1,0-2.306H24.991A1.154,1.154,0,0,1,26.144,41.36ZM16.919,37.9V35.594h4.613V37.9Zm6.919-5.766a1.154,1.154,0,0,1-1.153,1.153H15.766a1.154,1.154,0,0,1-1.153-1.153V22.91a1.154,1.154,0,0,1,1.153-1.153h6.919a1.154,1.154,0,0,1,1.153,1.153Z" transform="translate(-10 -1)" stroke="#fff" stroke-width="0.2"/>
      <path id="Path_6845" data-name="Path 6845" d="M46.613,14.225A4.613,4.613,0,1,0,42,9.613,4.617,4.617,0,0,0,46.613,14.225Zm0-6.919a2.306,2.306,0,1,1-2.306,2.306A2.309,2.309,0,0,1,46.613,7.306Z" transform="translate(-5.099 -0.387)" fill="#ff4612" stroke="#fff" stroke-width="0.2"/>
      <path id="Path_6846" data-name="Path 6846" d="M16,21h4.613v2.306H16Z" transform="translate(-9.081 2.063)" stroke="#fff" stroke-width="0.2"/>
      <path id="Path_6847" data-name="Path 6847" d="M16,25h4.613v2.306H16Z" transform="translate(-9.081 2.675)" stroke="#fff" stroke-width="0.2"/>
    </g>
  </g>
</svg>
