<svg xmlns="http://www.w3.org/2000/svg" width="79.89" height="80.05" viewBox="0 0 79.89 80.05">
  <g id="icon-3" transform="translate(9785 3472)">
    <path id="Path_7254" data-name="Path 7254" d="M0,0H79.889V79.89H0Z" transform="translate(-9785 -3472)" fill="#fff"/>
    <g id="car-key" transform="translate(-9779.371 -3458.771)">
      <g id="Group_5639" data-name="Group 5639" transform="translate(24.47)">
        <g id="Group_5638" data-name="Group 5638">
          <path id="Path_6861" data-name="Path 6861" d="M217.731,0H199.925a12.256,12.256,0,0,0-12.241,12.241V54.53a12.256,12.256,0,0,0,12.241,12.241h17.806A12.257,12.257,0,0,0,229.973,54.53V12.241A12.256,12.256,0,0,0,217.731,0Zm10.016,54.53a10.027,10.027,0,0,1-10.016,10.016H199.925A10.027,10.027,0,0,1,189.91,54.53V12.241A10.027,10.027,0,0,1,199.925,2.226h17.806a10.027,10.027,0,0,1,10.016,10.016Z" transform="translate(-187.684)" stroke="#fff" stroke-width="0.1"/>
        </g>
      </g>
      <g id="Group_5641" data-name="Group 5641" transform="translate(30.034 5.564)">
        <g id="Group_5640" data-name="Group 5640">
          <path id="Path_6862" data-name="Path 6862" d="M235.915,42.667a5.564,5.564,0,1,0,5.564,5.564A5.571,5.571,0,0,0,235.915,42.667Zm0,8.9a3.339,3.339,0,1,1,3.339-3.339A3.343,3.343,0,0,1,235.915,51.57Z" transform="translate(-230.351 -42.667)" fill="#ff4612" stroke="#fff" stroke-width="0.1"/>
        </g>
      </g>
      <g id="Group_5643" data-name="Group 5643" transform="translate(31.147 18.919)">
        <g id="Group_5642" data-name="Group 5642">
          <path id="Path_6863" data-name="Path 6863" d="M257.8,145.067h-8.9a10.027,10.027,0,0,0-10.016,10.016v4.451A1.112,1.112,0,0,0,240,160.647h26.709a1.113,1.113,0,0,0,1.113-1.113v-4.451A10.027,10.027,0,0,0,257.8,145.067Zm7.79,13.354H241.11v-3.339a7.8,7.8,0,0,1,7.79-7.79h8.9a7.8,7.8,0,0,1,7.79,7.79Z" transform="translate(-238.884 -145.067)" stroke="#fff" stroke-width="0.1"/>
        </g>
      </g>
      <g id="Group_5645" data-name="Group 5645" transform="translate(31.147 45.627)">
        <g id="Group_5644" data-name="Group 5644">
          <path id="Path_6864" data-name="Path 6864" d="M266.706,349.867H240a1.113,1.113,0,0,0-1.113,1.113v4.451A10.027,10.027,0,0,0,248.9,365.447h8.9a10.028,10.028,0,0,0,10.016-10.016V350.98A1.113,1.113,0,0,0,266.706,349.867Zm-1.113,5.564a7.8,7.8,0,0,1-7.79,7.79h-8.9a7.8,7.8,0,0,1-7.79-7.79v-3.339h24.483Z" transform="translate(-238.885 -349.867)" stroke="#fff" stroke-width="0.1"/>
        </g>
      </g>
      <g id="Group_5647" data-name="Group 5647" transform="translate(31.147 32.273)">
        <g id="Group_5646" data-name="Group 5646">
          <path id="Path_6865" data-name="Path 6865" d="M266.706,247.467H240a1.112,1.112,0,0,0-1.113,1.113v13.354A1.112,1.112,0,0,0,240,263.047h26.709a1.113,1.113,0,0,0,1.113-1.113V248.58A1.112,1.112,0,0,0,266.706,247.467Zm-1.113,13.354H241.111V249.693h24.483Z" transform="translate(-238.885 -247.467)"/>
        </g>
      </g>
      <g id="Group_5649" data-name="Group 5649" transform="translate(37.824 36.724)">
        <g id="Group_5648" data-name="Group 5648">
          <path id="Path_6866" data-name="Path 6866" d="M304.552,281.6H291.2a1.113,1.113,0,0,0-1.113,1.113v4.451a1.113,1.113,0,0,0,1.113,1.113h13.354a1.113,1.113,0,0,0,1.113-1.113v-4.451A1.113,1.113,0,0,0,304.552,281.6Zm-1.113,4.451H292.311v-2.226h11.129Z" transform="translate(-290.085 -281.6)" stroke="#fff" stroke-width="0.1"/>
        </g>
      </g>
      <g id="Group_5651" data-name="Group 5651" transform="translate(41.163 23.37)">
        <g id="Group_5650" data-name="Group 5650">
          <path id="Path_6867" data-name="Path 6867" d="M322.361,179.2H317.91a2.228,2.228,0,0,0-2.226,2.226v2.226a2.228,2.228,0,0,0,2.226,2.226h4.451a2.228,2.228,0,0,0,2.226-2.226v-2.226A2.228,2.228,0,0,0,322.361,179.2Zm-4.451,4.451v-2.226h4.451v2.226Z" transform="translate(-315.684 -179.2)" stroke="#fff" stroke-width="0.1"/>
        </g>
      </g>
      <g id="Group_5653" data-name="Group 5653" transform="translate(41.163 50.079)">
        <g id="Group_5652" data-name="Group 5652">
          <path id="Path_6868" data-name="Path 6868" d="M322.361,384H317.91a2.228,2.228,0,0,0-2.226,2.226v2.226a2.228,2.228,0,0,0,2.226,2.226h4.451a2.228,2.228,0,0,0,2.226-2.226v-2.226A2.228,2.228,0,0,0,322.361,384Zm-4.451,4.451v-2.226h4.451v2.226Z" transform="translate(-315.684 -384)" stroke="#fff" stroke-width="0.1"/>
        </g>
      </g>
      <g id="Group_5655" data-name="Group 5655" transform="translate(0 14.35)">
        <g id="Group_5654" data-name="Group 5654">
          <path id="Path_6869" data-name="Path 6869" d="M25.686,110.071a1.1,1.1,0,0,0-1.241.525L.475,153.036a3.31,3.31,0,0,0,1.2,4.475l1.994,1.162a3.231,3.231,0,0,0,1.625.442,3.32,3.32,0,0,0,.86-.116,3.245,3.245,0,0,0,1.98-1.55l18.228-32.4a1.129,1.129,0,0,0,.143-.55V111.147A1.112,1.112,0,0,0,25.686,110.071ZM24.3,124.208,6.216,156.349a1.047,1.047,0,0,1-1.443.4l-2-1.162a1.069,1.069,0,0,1-.388-1.446L24.3,115.347v8.861Z" transform="translate(-0.049 -110.034)"/>
        </g>
      </g>
    </g>
  </g>
</svg>
