<svg xmlns="http://www.w3.org/2000/svg" width="80" height="80" viewBox="0 0 80 80">
  <g id="icon-21" transform="translate(-230 -4227)">
    <g id="Group_6284" data-name="Group 6284" transform="translate(230 4227)">
      <rect id="Rectangle_498" data-name="Rectangle 498" width="80" height="80" fill="#fff"/>
      <g id="Page-1" transform="translate(1.605 16)">
        <g id="_034---Give-Rental-Car" data-name="034---Give-Rental-Car" transform="translate(0)">
          <path id="Shape" d="M61.272,27.44V21.857a3.234,3.234,0,0,0-3.234-3.234H56.55l-3.417-6.834A3.234,3.234,0,0,0,50.234,10H33.505a3.234,3.234,0,0,0-2.9,1.789l-3.417,6.834h-5.8a3.234,3.234,0,0,0-3.234,3.234V27.44a3.228,3.228,0,0,0,1.078,6.273h3.46a5.928,5.928,0,0,0,11.4,0h12.31a5.928,5.928,0,0,0,11.4,0h2.382a3.228,3.228,0,0,0,1.078-6.273Zm-2.156-5.583v5.389H55.5a5.885,5.885,0,0,0-6.791,0H42.947V24.013a1.078,1.078,0,1,0-2.156,0v3.234h-9a5.885,5.885,0,0,0-6.791,0H20.312V25.091h2.156A3.234,3.234,0,0,0,25.7,21.857V20.779H58.038A1.078,1.078,0,0,1,59.116,21.857ZM33.667,29.4H46.839a5.616,5.616,0,0,0-.658,2.156H34.324A5.616,5.616,0,0,0,33.667,29.4ZM51.2,12.749l2.932,5.875H42.947V12.156h7.287a1.078,1.078,0,0,1,.97.593Zm-18.669,0a1.078,1.078,0,0,1,.97-.593h7.287v6.467H29.6Zm-11.145,8.03h2.156v1.078a1.078,1.078,0,0,1-1.078,1.078H20.312V21.857A1.078,1.078,0,0,1,21.389,20.779Zm-3.234,9.7a1.078,1.078,0,0,1,.334-.765,1,1,0,0,1,.744-.313h3.891a5.616,5.616,0,0,0-.658,2.156H19.234A1.078,1.078,0,0,1,18.156,30.48ZM28.4,35.869A3.773,3.773,0,1,1,32.168,32.1,3.773,3.773,0,0,1,28.4,35.869Zm23.714,0A3.773,3.773,0,1,1,55.882,32.1,3.773,3.773,0,0,1,52.109,35.869Zm8.828-4.624a1,1,0,0,1-.744.313H58.038a5.616,5.616,0,0,0-.625-2.156h2.781a1.067,1.067,0,0,1,.744,1.843Z" transform="translate(1.246 -10)" stroke="#fff" stroke-width="0.3"/>
          <path id="Shape-2" data-name="Shape" d="M33.078,24.156h2.156a1.078,1.078,0,1,0,0-2.156H33.078a1.078,1.078,0,1,0,0,2.156Z" transform="translate(2.493 -9.065)" fill="#ff4612" stroke="#fff" stroke-width="0.3"/>
          <path id="Shape-3" data-name="Shape" d="M44.078,24.156h2.156a1.078,1.078,0,0,0,0-2.156H44.078a1.078,1.078,0,1,0,0,2.156Z" transform="translate(3.349 -9.065)" fill="#ff4612" stroke="#fff" stroke-width="0.3"/>
          <path id="Shape-4" data-name="Shape" d="M59.36,40.2,39.408,46.851a3.234,3.234,0,0,1-1.078.162h-.6a4.969,4.969,0,0,0-.4-4.247l-.1-.162a6.467,6.467,0,0,0-5.508-3.137H26.085a8.8,8.8,0,0,1-5.476-1.919A10.93,10.93,0,0,0,13.8,35.156H11.641A3.234,3.234,0,0,0,8.623,33H3.234A3.234,3.234,0,0,0,0,36.234V58.869A3.234,3.234,0,0,0,3.234,62.1H8.623a3.234,3.234,0,0,0,2.393-1.078H38.05a8.537,8.537,0,0,0,4.484-1.261l20.2-12.3A4.03,4.03,0,0,0,59.36,40.2ZM8.623,59.947H3.234a1.078,1.078,0,0,1-1.078-1.078V36.234a1.078,1.078,0,0,1,1.078-1.078H8.623A1.078,1.078,0,0,1,9.7,36.234V58.869A1.078,1.078,0,0,1,8.623,59.947ZM62.518,44.383a1.865,1.865,0,0,1-.873,1.25l-20.232,12.3a6.467,6.467,0,0,1-3.363.938H11.857V37.312H13.8a8.8,8.8,0,0,1,5.476,1.919,10.93,10.93,0,0,0,6.812,2.393h5.637a4.312,4.312,0,0,1,3.7,2.091l.1.162a2.813,2.813,0,0,1-.162,3.137H28.812a10.779,10.779,0,0,0-5.982,1.811l-.787.528a1.078,1.078,0,0,0,1.186,1.789l.8-.528a8.623,8.623,0,0,1,4.786-1.444h9.572a5.389,5.389,0,0,0,1.7-.28L60.05,42.238a1.876,1.876,0,0,1,2.091.668,1.843,1.843,0,0,1,.377,1.477Z" transform="translate(0 -8.208)" stroke="#fff" stroke-width="0.3"/>
        </g>
      </g>
    </g>
  </g>
</svg>
