<svg xmlns="http://www.w3.org/2000/svg" width="80" height="80.146" viewBox="0 0 80 80.146">
  <g id="icon-17" transform="translate(9842 3244)">
    <rect id="Rectangle_511" data-name="Rectangle 511" width="80" height="79.714" transform="translate(-9842 -3244)" fill="#fff"/>
    <g id="Out_line" data-name="Out line" transform="translate(-9835.608 -3231.107)">
      <path id="Path_6737" data-name="Path 6737" d="M70.476,16.328A1.119,1.119,0,0,0,69.686,16H66.33a1.119,1.119,0,0,0-.791.328L63.3,18.564a1.118,1.118,0,0,0,0,1.582l.328.328-1.774,1.774-.328-.328a1.119,1.119,0,0,0-1.582,0l-12.3,12.3a1.118,1.118,0,0,0,.975,1.894,12.11,12.11,0,0,1,6.712.8A25.753,25.753,0,0,1,39.018,50.352l-1.79.488a12.169,12.169,0,0,0-9.716,3.514L16.328,65.539a1.118,1.118,0,0,0,0,1.582L20.8,71.595a1.119,1.119,0,0,0,1.582,0l2.564-2.564,5.129,5.129-2.564,2.564a1.119,1.119,0,0,0,0,1.582l4.474,4.474a1.119,1.119,0,0,0,1.582,0L44.752,71.595a12.169,12.169,0,0,0,3.514-9.716l.488-1.79A25.753,25.753,0,0,1,62.192,43.776a12.114,12.114,0,0,1,.8,6.712,1.118,1.118,0,0,0,1.894.975l12.3-12.3a1.118,1.118,0,0,0,0-1.582l-.328-.328,1.774-1.774.328.328a1.119,1.119,0,0,0,1.582,0l2.237-2.237a1.119,1.119,0,0,0,.328-.791V29.421a1.119,1.119,0,0,0-.328-.791ZM39.815,66.658a5.208,5.208,0,1,1,1.525-3.683,5.208,5.208,0,0,1-1.525,3.683ZM30.868,68.24a7.457,7.457,0,0,0,9.679.731l1.788,1.788A9.952,9.952,0,0,1,28.348,56.773l1.787,1.787a7.448,7.448,0,0,0,.732,9.68ZM24.126,60.9a12.288,12.288,0,0,0,0,4.142l-2.071-2.071Zm-2.534,8.318L18.7,66.33l1.774-1.774,2.892,2.892ZM32.777,80.407l-2.892-2.892,1.774-1.774,2.892,2.892Zm3.355-3.355-2.071-2.071a12.054,12.054,0,0,0,4.142,0Zm7.784-7.875L42.129,67.39A7.446,7.446,0,0,0,31.718,56.979L29.93,55.191A9.952,9.952,0,0,1,43.916,69.177Zm9.894-22.106A28.047,28.047,0,0,0,47.14,57.74a12.165,12.165,0,0,0-5.773-5.773A27.99,27.99,0,0,0,57.3,37.975,12.053,12.053,0,0,1,59.165,39.5l.445.445A12.047,12.047,0,0,1,61.132,41.8a27.875,27.875,0,0,0-7.322,5.267Zm11.564.739a14.371,14.371,0,0,0-4.182-9.45l-.445-.445a14.369,14.369,0,0,0-9.45-4.181l9.441-9.441L74.814,38.369Zm9.9-12.141-11.84-11.84,1.774-1.774L77.051,33.9Zm5.592-3.355-1.118,1.118L65.675,19.355l1.118-1.118h2.429L80.87,29.885Z" transform="translate(-16 -16)" stroke="#fff" stroke-width="0.15"/>
      <path id="Path_6738" data-name="Path 6738" d="M339.355,134.711A3.355,3.355,0,1,0,336,131.355,3.355,3.355,0,0,0,339.355,134.711Zm0-4.474a1.118,1.118,0,1,1-1.118,1.118A1.118,1.118,0,0,1,339.355,130.237Z" transform="translate(-291.262 -112.342)" fill="#fc5719" stroke="#fff" stroke-width="0.15"/>
      <path id="Path_6739" data-name="Path 6739" d="M266.343,266.635l9.739,9.738v7.366a1.119,1.119,0,0,0,.328.791L282,290.123a1.118,1.118,0,0,0,.791.328h7.829a1.118,1.118,0,0,0,.791-.328L297,284.531a1.118,1.118,0,0,0,.328-.791V275.91a1.118,1.118,0,0,0-.328-.791l-5.592-5.592a1.119,1.119,0,0,0-.791-.327h-7.366L272.4,258.343l-1.582,1.582,10.394,10.394-4.011,4.011-9.275-9.275Zm16.912,4.8h6.9l4.937,4.937v6.9l-4.937,4.937h-6.9l-4.937-4.937v-6.9Z" transform="translate(-231.343 -224.462)" stroke="#fff" stroke-width="0.15"/>
      <path id="Path_6740" data-name="Path 6740" d="M21.92,36.923a1.118,1.118,0,0,0,.791.328h7.366L40.933,48.107l1.582-1.582L32.121,36.132l4.011-4.011L47.644,43.634l1.582-1.582L37.251,30.077V22.711a1.119,1.119,0,0,0-.328-.791l-5.592-5.592A1.118,1.118,0,0,0,30.54,16H22.711a1.118,1.118,0,0,0-.791,1.909L28.3,24.292v2.429L26.721,28.3H24.292L17.909,21.92A1.118,1.118,0,0,0,16,22.711V30.54a1.119,1.119,0,0,0,.328.791ZM18.237,25.411l4.8,4.8a1.119,1.119,0,0,0,.791.328h3.355a1.118,1.118,0,0,0,.791-.328l2.237-2.237a1.119,1.119,0,0,0,.328-.791V23.829a1.119,1.119,0,0,0-.328-.791l-4.8-4.8h4.666l4.937,4.937v6.9l-4.937,4.937h-6.9l-4.937-4.937Z" transform="translate(-16 -16)" stroke="#fff" stroke-width="0.15"/>
      <path id="Path_6741" data-name="Path 6741" d="M376.328,383.5l2.237,2.237a1.118,1.118,0,0,0,.791.328h3.355a1.118,1.118,0,0,0,.791-.328l2.237-2.237a1.118,1.118,0,0,0,.328-.791v-3.355a1.118,1.118,0,0,0-.328-.791l-2.237-2.237a1.118,1.118,0,0,0-.791-.328h-3.355a1.119,1.119,0,0,0-.791.328l-2.237,2.237a1.118,1.118,0,0,0-.328.791v3.355A1.118,1.118,0,0,0,376.328,383.5Zm1.909-3.683,1.582-1.582h2.429l1.582,1.582v2.429l-1.582,1.582h-2.429l-1.582-1.582Z" transform="translate(-325.67 -325.67)" fill="#ff4612" stroke="#fff" stroke-width="0.15"/>
      <rect id="Rectangle_401" data-name="Rectangle 401" width="2.237" height="10.281" transform="translate(19.341 20.923) rotate(-45.002)" stroke="#fff" stroke-width="0.15"/>
      <rect id="Rectangle_402" data-name="Rectangle 402" width="2.237" height="10.281" transform="translate(37.796 39.378) rotate(-45.002)" stroke="#fff" stroke-width="0.15"/>
    </g>
  </g>
</svg>
