<svg xmlns="http://www.w3.org/2000/svg" width="80" height="80" viewBox="0 0 80 80">
  <g id="icon-20" transform="translate(9842 3301)">
    <rect id="Rectangle_509" data-name="Rectangle 509" width="80" height="80" transform="translate(-9842 -3301)" fill="#fff"/>
    <g id="_001-air-conditioning" data-name="001-air-conditioning" transform="translate(-9834 -3289.565)">
      <g id="Group_5612" data-name="Group 5612" transform="translate(0 0)">
        <path id="Path_6830" data-name="Path 6830" d="M79.491,28.01a.994.994,0,0,0,.994-.994V3.728a1.742,1.742,0,0,1,1.74-1.74h32.547a.994.994,0,0,0,0-1.988H82.225A3.732,3.732,0,0,0,78.5,3.728V27.016A.994.994,0,0,0,79.491,28.01Z" transform="translate(-70.414 0)" fill="#ff4612"/>
        <path id="Path_6831" data-name="Path 6831" d="M80.229,47.8a1.306,1.306,0,0,0-1.423-.149l-3.741,1.925c-.358-.537-.894-1.378-1.539-2.491a.994.994,0,1,0-1.72,1c1.247,2.156,2.1,3.32,2.136,3.368a.994.994,0,0,0,1.255.295l3.131-1.611-2.545,9.121-8.9-3.231,3.131-1.611a.994.994,0,0,0,.342-1.478A49.471,49.471,0,0,1,65.3,43.4a82.384,82.384,0,0,1-5.958-26.179h2.878c.36,7.489,3.511,19.477,7.565,27.069a.994.994,0,0,0,1.781-.882c-.736-1.486-1.519-3.2-2.292-5.133a3.733,3.733,0,0,0,3.357-3.709V3.728A3.732,3.732,0,0,0,68.9,0H66.088a.994.994,0,0,0,0,1.988H68.9a1.742,1.742,0,0,1,1.74,1.74V34.569a1.742,1.742,0,0,1-1.74,1.74h-.387q-.392-1.063-.771-2.2a1.739,1.739,0,0,0,.91-1.527V5.713a1.739,1.739,0,0,0-1.737-1.737H31.3a1.739,1.739,0,0,0-1.737,1.737V32.584a1.739,1.739,0,0,0,.907,1.525q-.381,1.143-.77,2.2h-.384a1.742,1.742,0,0,1-1.74-1.74V31.284a.994.994,0,0,0-1.988,0v3.285a3.733,3.733,0,0,0,3.356,3.709c-.382.956-.761,1.844-1.125,2.657a61.109,61.109,0,0,1-4.669,8.638L19.4,47.649a1.307,1.307,0,0,0-1.857,1.513L20.71,60.494a1.308,1.308,0,0,0,1.7.877l11.059-4.014h0a1.307,1.307,0,0,0,.152-2.39l-3.516-1.809a56.66,56.66,0,0,0,4.605-8.91c.7-1.68,1.46-3.671,2.195-5.95H45.2V56.711H40.864a1.2,1.2,0,0,0-.88,2.015l8,8.631a1.531,1.531,0,0,0,2.246,0l8-8.631a1.2,1.2,0,0,0-.88-2.016H53.014V38.3H61.3c.735,2.279,1.49,4.27,2.195,5.95a56.672,56.672,0,0,0,4.605,8.91l-3.516,1.809a1.307,1.307,0,0,0,.152,2.39L75.8,61.371a1.307,1.307,0,0,0,1.7-.877l3.162-11.332a1.306,1.306,0,0,0-.433-1.364ZM58.683,27.928H53.014V21.965h4.763C58.023,24.054,58.331,26.042,58.683,27.928Zm-5.669,1.988h6.064q.262,1.243.547,2.418H53.014Zm4.553-9.939H53.014V17.225h4.333q.091,1.4.22,2.752Zm-26.021-4.74V9.274H66.664v5.963Zm8.886,6.728H45.2v5.963H39.527C39.879,26.042,40.187,24.054,40.432,21.965Zm-1.3,7.951H45.2v2.418H38.585Q38.869,31.158,39.132,29.915ZM45.2,19.977H40.642q.129-1.351.22-2.752H45.2Zm-12.96,7.951h-.69V21.965h1.873C33.093,24.055,32.689,26.047,32.236,27.928ZM33.7,19.977H31.546V17.225H34Q33.874,18.625,33.7,19.977ZM64.79,21.965h1.874v5.963h-.7C65.513,26.037,65.113,24.047,64.79,21.965Zm1.874-4.74v2.752H64.51q-.172-1.353-.3-2.752Zm-.188,12.691h.188V30.6Q66.569,30.259,66.476,29.915Zm.188-23.952V7.286H31.546V5.963ZM31.546,29.915h.182c-.06.223-.121.444-.182.663ZM32.913,43.4a49.48,49.48,0,0,1-5.057,9.527.994.994,0,0,0,.341,1.479l3.131,1.611-8.9,3.231L19.882,50.13l3.131,1.611a.994.994,0,0,0,1.255-.295C29.838,43.752,35,30.247,35.994,17.225h2.878A82.384,82.384,0,0,1,32.913,43.4Zm4.609-7.094q.284-.965.558-1.988H45.2v1.988ZM55.542,58.7,49.1,65.645,42.668,58.7H46.19a.994.994,0,0,0,.994-.994V17.225h3.843V57.705a.994.994,0,0,0,.994.994Zm-2.528-22.39V34.322H60.13q.274,1.023.558,1.988Z" transform="translate(-17.5 0)"/>
      </g>
    </g>
  </g>
</svg>
