<svg xmlns="http://www.w3.org/2000/svg" width="80" height="80.101" viewBox="0 0 80 80.101">
  <g id="icon-18" transform="translate(9728 3301)">
    <rect id="Rectangle_519" data-name="Rectangle 519" width="80" height="79.895" transform="translate(-9728 -3301)" fill="#fff"/>
    <g id="_009-windshield" data-name="009-windshield" transform="translate(-9724.8 -3261.054)">
      <g id="Group_5629" data-name="Group 5629" transform="translate(0 0)">
        <path id="Path_6851" data-name="Path 6851" d="M75.054,151.674l-8.762-31.292a1.252,1.252,0,0,0-1.205-.914H10.014a1.252,1.252,0,0,0-1.205.914L.046,151.674a1.252,1.252,0,0,0,.8,1.521c.183.063,18.558,6.327,36.707,6.327s36.523-6.263,36.707-6.327A1.252,1.252,0,0,0,75.054,151.674Zm-12.606,2.187-6.123-6.123v-8.332a1.252,1.252,0,1,0-2.5,0v5.829L39.687,131.1a1.252,1.252,0,1,0-1.77,1.77l21.63,21.63A112.8,112.8,0,0,1,39.27,157a1.244,1.244,0,0,0-.133-.162L33.8,151.493v-8.332a1.252,1.252,0,0,0-2.5,0v5.829L15.905,133.6a1.252,1.252,0,1,0-1.77,1.77L35.757,157c-14.581-.329-28.933-4.527-32.976-5.8l8.182-29.221H64.138l8.182,29.222C70.614,151.731,67.071,152.792,62.449,153.861Z" transform="translate(0 -119.468)" stroke="#fff" stroke-width="0.2"/>
        <path id="Path_6876" data-name="Path 6876" d="M57.3,149.646l-6.123-6.123v-8.332a1.252,1.252,0,1,0-2.5,0v5.829L34.535,126.884a1.252,1.252,0,0,0-1.77,1.77l21.63,21.63a112.8,112.8,0,0,1-20.277,2.5,1.242,1.242,0,0,0-.133-.162l-5.342-5.342v-8.332a1.252,1.252,0,0,0-2.5,0v5.829L10.753,129.388a1.252,1.252,0,0,0-1.77,1.77L30.605,152.78C45.115,153.2,61.919,148.576,57.3,149.646Z" transform="translate(5.152 -115.254)" fill="#ff4612" stroke="#fff" stroke-width="0.2"/>
      </g>
    </g>
  </g>
</svg>
