<svg xmlns="http://www.w3.org/2000/svg" width="80" height="80.102" viewBox="0 0 80 80.102">
  <g id="icon-15" transform="translate(9785 3301)">
    <rect id="Rectangle_514" data-name="Rectangle 514" width="80" height="80" transform="translate(-9785 -3301)" fill="#fff"/>
    <g id="_002---Car-Sensors" data-name="002---Car-Sensors" transform="translate(-9783.399 -3277.607)">
      <path id="Shape" d="M26.162,29.078l-6.29-.9A2.516,2.516,0,0,0,17,30.669v2.323a2.516,2.516,0,0,0,2.516,2.516h6.29a2.516,2.516,0,0,0,2.516-2.516V31.567A2.526,2.526,0,0,0,26.162,29.078Zm-6.646,3.915V30.669l6.29.9v1.425Z" transform="translate(3.132 7.263)" stroke="#fff" stroke-width="0.2"/>
      <path id="Shape-2" data-name="Shape" d="M44.45,28.178l-6.29.9A2.526,2.526,0,0,0,36,31.567v1.425a2.516,2.516,0,0,0,2.516,2.516h6.29a2.516,2.516,0,0,0,2.516-2.516V30.669a2.516,2.516,0,0,0-2.872-2.491Zm.356,4.814h-6.29V31.567l6.29-.9Z" transform="translate(8.033 7.263)" stroke="#fff" stroke-width="0.2"/>
      <path id="Shape-3" data-name="Shape" d="M34.29,28H29.258a1.258,1.258,0,0,0,0,2.516H34.29a1.258,1.258,0,0,0,0-2.516Z" transform="translate(5.97 7.224)" stroke="#fff" stroke-width="0.2"/>
      <path id="Shape-4" data-name="Shape" d="M34.29,32H29.258a1.258,1.258,0,0,0,0,2.516H34.29a1.258,1.258,0,1,0,0-2.516Z" transform="translate(5.97 8.255)" stroke="#fff" stroke-width="0.2"/>
      <path id="Shape-5" data-name="Shape" d="M24.258,19.029c.683,0,.711-.19,3.405-2.885a1.258,1.258,0,0,0-1.779-1.779l-2.516,2.516a1.258,1.258,0,0,0,.889,2.147Z" transform="translate(4.68 3.615)" stroke="#fff" stroke-width="0.2"/>
      <path id="Shape-6" data-name="Shape" d="M25.369,23.692a1.258,1.258,0,0,0,1.779,0L34.7,16.144a1.258,1.258,0,0,0-1.779-1.779l-7.548,7.548a1.258,1.258,0,0,0,0,1.779Z" transform="translate(5.196 3.615)" stroke="#fff" stroke-width="0.2"/>
      <path id="Shape-7" data-name="Shape" d="M2.786,18.707a1.258,1.258,0,0,0,1.206-1.616A11.333,11.333,0,0,1,20.2,3.872a1.258,1.258,0,0,0,1.206-2.208A13.83,13.83,0,0,0,1.581,17.805a1.258,1.258,0,0,0,1.205.9Z" transform="translate(-0.997 0)" fill="#ff4612" stroke="#fff" stroke-width="0.2"/>
      <path id="Shape-8" data-name="Shape" d="M18.5,6.739a1.258,1.258,0,0,0-.523-1.7A8.826,8.826,0,0,0,5.364,15.321a1.258,1.258,0,0,0,2.415-.7A6.307,6.307,0,0,1,16.8,7.262a1.258,1.258,0,0,0,1.7-.523Z" transform="translate(0.037 1.033)" fill="#ff4612" stroke="#fff" stroke-width="0.2"/>
      <path id="Shape-9" data-name="Shape" d="M13.373,10.668A1.258,1.258,0,1,0,14.562,8.45a3.774,3.774,0,0,0-5.385,4.438,1.26,1.26,0,1,0,2.39-.8,1.258,1.258,0,0,1,1.806-1.423Z" transform="translate(1.071 2.065)" fill="#ff4612" stroke="#fff" stroke-width="0.2"/>
      <path id="Shape-10" data-name="Shape" d="M51.483,0a13.742,13.742,0,0,0-6.567,1.664,1.258,1.258,0,1,0,1.206,2.208A11.333,11.333,0,0,1,62.329,17.091a1.258,1.258,0,1,0,2.412.715A13.852,13.852,0,0,0,51.483,0Z" transform="translate(10.162 0)" fill="#ff4612" stroke="#fff" stroke-width="0.2"/>
      <path id="Shape-11" data-name="Shape" d="M57.876,16.176a1.258,1.258,0,0,0,1.559-.855A8.826,8.826,0,0,0,46.819,5.038,1.258,1.258,0,1,0,48,7.262a6.307,6.307,0,0,1,9.022,7.355,1.258,1.258,0,0,0,.857,1.559Z" transform="translate(10.652 1.033)" fill="#ff4612" stroke="#fff" stroke-width="0.2"/>
      <path id="Shape-12" data-name="Shape" d="M52.507,13.682a1.258,1.258,0,0,0,1.591-.794A3.774,3.774,0,0,0,48.713,8.45,1.258,1.258,0,1,0,49.9,10.668a1.258,1.258,0,0,1,1.811,1.423,1.258,1.258,0,0,0,.794,1.591Z" transform="translate(11.142 2.065)" fill="#ff4612" stroke="#fff" stroke-width="0.2"/>
      <path id="Shape-13" data-name="Shape" d="M75.22,51.513H58.635c.308-.867.231-.766.231-6.521a3.774,3.774,0,0,0,2.516-3.542V33.9a6.26,6.26,0,0,0-1.771-4.358,3.774,3.774,0,0,0-2-6.964H54.6l-2.027-7.105A7.581,7.581,0,0,0,45.317,10H32.161a7.581,7.581,0,0,0-7.26,5.475L22.875,22.58H19.87a3.774,3.774,0,0,0-2,6.962A6.26,6.26,0,0,0,16.1,33.9v7.548a3.774,3.774,0,0,0,2.516,3.542c0,5.787-.075,5.661.231,6.521H2.258a1.258,1.258,0,1,0,0,2.516H75.22a1.258,1.258,0,0,0,0-2.516ZM58.867,41.449a1.258,1.258,0,0,1-1.258,1.258H19.87a1.258,1.258,0,0,1-1.258-1.258V33.9a3.774,3.774,0,0,1,3.774-3.774H55.093A3.774,3.774,0,0,1,58.867,33.9ZM27.417,45.223H50.061c0,5.46-.078,5.419.231,6.29H27.186c.308-.864.231-.774.231-6.29ZM57.609,25.1a1.258,1.258,0,0,1,.873,2.154c-.478.491-.991.362-2.44.362L55.323,25.1ZM27.323,16.164a5.055,5.055,0,0,1,4.838-3.648H45.317a5.055,5.055,0,0,1,4.838,3.648l3.271,11.448H24.054ZM19.87,25.1h2.286l-.718,2.516c-1.571,0-1.979.111-2.463-.385a1.258,1.258,0,0,1,.9-2.131Zm2.516,26.417a1.258,1.258,0,0,1-1.258-1.258V45.223H24.9v5.032a1.258,1.258,0,0,1-1.258,1.258Zm31.449,0a1.258,1.258,0,0,1-1.258-1.258V45.223h3.774v5.032a1.258,1.258,0,0,1-1.258,1.258Z" transform="translate(-0.996 2.58)" stroke="#fff" stroke-width="0.2"/>
    </g>
  </g>
</svg>
