<svg xmlns="http://www.w3.org/2000/svg" width="80" height="80.708" viewBox="0 0 80 80.708">
  <g id="icon-6" transform="translate(9899 3415)">
    <rect id="Rectangle_503" data-name="Rectangle 503" width="80" height="80" transform="translate(-9899 -3415)" fill="#fff"/>
    <g id="_008-car-2" data-name="008-car-2" transform="translate(-9886.647 -3404.244)">
      <path id="Path_6848" data-name="Path 6848" d="M157.9,127.611V60.241A1.241,1.241,0,0,0,156.655,59h-30.37a1.241,1.241,0,0,0-1.034.555l-21.044,31.72a1.241,1.241,0,0,0-.207.686v17.921a1.241,1.241,0,0,0,1.241,1.241,16.507,16.507,0,0,1,16.488,16.488,1.241,1.241,0,0,0,1.241,1.241h33.685A1.241,1.241,0,0,0,157.9,127.611Zm-2.482-1.241H124.171a19,19,0,0,0-17.689-17.689V92.335l20.469-30.853h28.463Z" transform="translate(-104 -59)" stroke="#fff" stroke-width="0.2"/>
      <path id="Path_6849" data-name="Path 6849" d="M144,127.822V132.7a1.23,1.23,0,0,0,1.241,1.227h37.231a1.23,1.23,0,0,0,1.241-1.227V100.241A1.241,1.241,0,0,0,182.472,99H163.664a1.241,1.241,0,0,0-1.032.552l-18.423,27.581A1.241,1.241,0,0,0,144,127.822Zm2.482.376,17.846-26.717h16.9v29.962H146.482Z" transform="translate(-136.908 -91.908)" stroke="#fff" stroke-width="0.2"/>
      <path id="Path_6850" data-name="Path 6850" d="M295.183,333H282.241a1.241,1.241,0,1,0,0,2.482h12.942a1.241,1.241,0,1,0,0-2.482Z" transform="translate(-249.62 -284.422)" stroke="#fff" stroke-width="0.2"/>
    </g>
  </g>
</svg>
