<svg xmlns="http://www.w3.org/2000/svg" width="80" height="80.1" viewBox="0 0 80 80.1">
  <g id="icon-19" transform="translate(9785 3244)">
    <rect id="Rectangle_516" data-name="Rectangle 516" width="80" height="80" transform="translate(-9785 -3244)" fill="#fff"/>
    <g id="key" transform="translate(-9774.437 -3233.873)">
      <path id="Path_6856" data-name="Path 6856" d="M210.534,207.887a1.038,1.038,0,0,0-1.038,1.038v1.723a1.038,1.038,0,0,0,2.076,0v-1.723A1.038,1.038,0,0,0,210.534,207.887Zm0,0" transform="translate(-181.029 -179.54)" fill="#ff4612"/>
      <path id="Path_6857" data-name="Path 6857" d="M49.218,207.887a1.038,1.038,0,0,0-1.038,1.038v1.723a1.038,1.038,0,0,0,2.076,0v-1.723A1.038,1.038,0,0,0,49.218,207.887Zm0,0" transform="translate(-41.58 -179.54)" fill="#ff4612"/>
      <path id="Path_6858" data-name="Path 6858" d="M112.667,220.557a4.136,4.136,0,0,1-5.072,0,1.038,1.038,0,0,0-1.272,1.641,6.211,6.211,0,0,0,7.617,0,1.038,1.038,0,1,0-1.273-1.641Zm0,0" transform="translate(-91.588 -190.289)" fill="#ff4612"/>
      <path id="Path_6859" data-name="Path 6859" d="M63.567,37.273,56.6,19.939a11.346,11.346,0,0,0-11.048-7.1,15.893,15.893,0,0,0-3.279-6.974,1.023,1.023,0,0,0-1.584,1.294,13.847,13.847,0,0,1,2.836,5.964c-.565.132-3.438,1.24-3.438,1.24a10.245,10.245,0,1,0-18.8,7.011H17.228a13.718,13.718,0,0,1-1.117-5.456A13.838,13.838,0,0,1,37.7,4.423a1.023,1.023,0,0,0,1.147-1.695A15.772,15.772,0,0,0,29.962,0c-10.95,0-14.992,10.63-14.992,10.63C6.527,10.747.5,16.845.5,24.487V32.6a9.567,9.567,0,0,0,9.549,9.562H23.977v3.464a2.856,2.856,0,0,1-1.144,2.281l-2.579,1.922a1.025,1.025,0,0,0,0,1.642l2.835,2.113a2.226,2.226,0,0,1,.888,1.779v.041a2.122,2.122,0,0,1-.85,1.694l-2.873,2.141a1.024,1.024,0,0,0,0,1.642l2.579,1.922a2.858,2.858,0,0,1,1.144,2.282,3.961,3.961,0,0,1-.346,1.443,2.169,2.169,0,0,1-2.186,1.295H16.577a2.536,2.536,0,0,1-2.532-2.535V45.226a1.022,1.022,0,1,0-2.044,0V65.29a4.584,4.584,0,0,0,4.576,4.582h4.869a4.221,4.221,0,0,0,4.034-2.467,5.891,5.891,0,0,0,.542-2.318,4.915,4.915,0,0,0-1.968-3.924l-1.477-1.1,1.771-1.32a4.179,4.179,0,0,0,1.674-3.337v-.041a4.284,4.284,0,0,0-1.711-3.421l-1.733-1.292,1.477-1.1a4.914,4.914,0,0,0,1.968-3.924V42.164h1.952A9.5,9.5,0,0,0,31.2,41.6l3.017,7.5a7.223,7.223,0,0,0,9.376,4l15.98-6.442a7.22,7.22,0,0,0,3.994-9.389ZM29.962,7.7a8.232,8.232,0,0,1,8.162,7.449l-3.182,1.283a13.823,13.823,0,0,0-11.25-5.806A8.183,8.183,0,0,1,29.962,7.7Zm9.825,12.838a2.864,2.864,0,0,1,3.065.438,14.04,14.04,0,0,1-5.328,6.549V24.487a13.924,13.924,0,0,0-.117-1.805,18.078,18.078,0,0,1,2.381-2.14Zm2.161,5.8a16.1,16.1,0,0,0,2.088-3.05A2.678,2.678,0,0,1,41.948,26.344Zm-4.639,8.348,14.057-5.667a1.806,1.806,0,0,1,2.348,1,1.884,1.884,0,0,1-1,2.351L38.656,38.045a1.683,1.683,0,0,1-2.292-.88,9.487,9.487,0,0,0,.933-2.5ZM14.175,17.78a15.687,15.687,0,0,0,.86,3.606H13.942a1.8,1.8,0,0,1-1.8-1.8c0-1.824,2.034-1.8,2.034-1.8Zm9.676,3.606a8.159,8.159,0,0,1-1.877-3.606h2.106a1.81,1.81,0,1,1-.23,3.606Zm-13.8,18.731A7.519,7.519,0,0,1,2.544,32.6V24.487A11.816,11.816,0,0,1,14.338,12.676H14.4a15.929,15.929,0,0,0-.329,3.057S10.1,15.68,10.1,19.583a3.852,3.852,0,0,0,3.845,3.85h10.14a3.85,3.85,0,0,0,0-7.7H21.765a8.174,8.174,0,0,1,.662-3.057h1.258A11.816,11.816,0,0,1,35.479,24.487V32.6a7.519,7.519,0,0,1-7.5,7.515Zm51.583,1.878a5.131,5.131,0,0,1-2.822,2.769l-15.98,6.442a5.166,5.166,0,0,1-6.717-2.865L33.042,40.7a9.644,9.644,0,0,0,2.074-1.761,3.393,3.393,0,0,0,4.3,1l14.057-5.667A3.854,3.854,0,0,0,50.6,27.126L37.523,32.4V29.911a15.856,15.856,0,0,0,2.244-1.485,5.534,5.534,0,0,0,3.095-.236,5.149,5.149,0,0,0,.095-9.509,5.313,5.313,0,0,0-6.089,1.591,13.809,13.809,0,0,0-.849-2.065s8.047-3.143,8.79-3.248l.024,0,.027,0A9.294,9.294,0,0,1,54.7,20.7l6.968,17.334a5.141,5.141,0,0,1-.039,3.957Zm0,0" transform="translate(-0.499 0.001)" stroke="#fff" stroke-width="0.2"/>
      <path id="Path_6860" data-name="Path 6860" d="M289.131,258.5l-14.278,5.748a4.128,4.128,0,0,0-2.167,5.087,3.779,3.779,0,0,0,5.087,2.167l14.278-5.748a3.909,3.909,0,0,0-2.92-7.253Zm2.144,5.327L277,269.574a1.836,1.836,0,0,1-2.385-1.016,1.8,1.8,0,0,1,1.016-2.385l14.278-5.748a1.833,1.833,0,0,1,1.369,3.4Zm0,0" transform="translate(-235.823 -223.119)"/>
    </g>
  </g>
</svg>
