<svg xmlns="http://www.w3.org/2000/svg" width="80" height="80.709" viewBox="0 0 80 80.709">
  <g id="icon-7" transform="translate(9842 3415)">
    <rect id="Rectangle_508" data-name="Rectangle 508" width="80" height="80" transform="translate(-9842 -3415)" fill="#fff"/>
    <g id="_009-radiator" data-name="009-radiator" transform="translate(-9837.198 -3401.079)">
      <g id="Group_5609" data-name="Group 5609" transform="translate(11.752 23.362)">
        <g id="Group_5608" data-name="Group 5608">
          <path id="Path_6823" data-name="Path 6823" d="M130.927,185.5H84.062A1.062,1.062,0,0,0,83,186.562v30.016a1.062,1.062,0,0,0,1.062,1.062h46.865a1.062,1.062,0,0,0,1.062-1.062V186.562A1.062,1.062,0,0,0,130.927,185.5Zm-1.062,25.981H105.229a1.062,1.062,0,0,0,0,2.124h24.636v1.911H85.124V213.6h15.858a1.062,1.062,0,0,0,0-2.124H85.124v-2.195h44.741Zm0-8.849H124.2a1.062,1.062,0,1,0,0,2.124h5.663v2.407H85.124v-2.407h34.83a1.062,1.062,0,1,0,0-2.124H85.124v-2.124h44.741Zm0-4.248H85.124v-2.407h44.741Zm0-8.849H95.46a1.062,1.062,0,0,0,0,2.124h34.405v2.195H85.124v-2.195h6.088a1.062,1.062,0,0,0,0-2.124H85.124v-1.911h44.741Z" transform="translate(-83 -185.5)" stroke="#fff" stroke-width="0.2"/>
        </g>
        <g id="Path_6873" data-name="Path 6873" transform="translate(2.457 8.836)" fill="#ff4612">
          <path d="M -0.2281282246112823 1.625812768936157 L -0.2281282246112823 -0.3999954760074615 L 44.36557006835938 -0.3999954760074615 L 44.36557006835938 1.576016068458557 L -0.2281282246112823 1.625812768936157 Z" stroke="none"/>
          <path d="M -0.1281280517578125 -0.2999955415725708 L -0.1281280517578125 1.525700926780701 L 44.26557159423828 1.476127624511719 L 44.26557159423828 -0.2999955415725708 L -0.1281280517578125 -0.2999955415725708 M -0.3281288146972656 -0.4999954700469971 L 44.46557235717773 -0.4999954700469971 L 44.46557235717773 1.675904512405396 L -0.3281288146972656 1.725924491882324 L -0.3281288146972656 -0.4999954700469971 Z" stroke="none" fill="#fff"/>
        </g>
        <g id="Path_6874" data-name="Path 6874" transform="translate(2.457 13.535)" fill="#ff4612">
          <path d="M 44.36557006835938 1.404696226119995 L -0.2281282246112823 1.354123115539551 L -0.2281282246112823 -0.5718125700950623 L 44.36557006835938 -0.5461377501487732 L 44.36557006835938 1.404696226119995 Z" stroke="none"/>
          <path d="M -0.1281280517578125 -0.4717549085617065 L -0.1281280517578125 1.254236459732056 L 44.26557159423828 1.304582834243774 L 44.26557159423828 -0.446195125579834 L -0.1281280517578125 -0.4717549085617065 M -0.3281288146972656 -0.6718701124191284 L 44.46557235717773 -0.6460800170898438 L 44.46557235717773 1.504809856414795 L -0.3281288146972656 1.454010009765625 L -0.3281288146972656 -0.6718701124191284 Z" stroke="none" fill="#fff"/>
        </g>
      </g>
      <g id="Group_5611" data-name="Group 5611" transform="translate(0 0)">
        <g id="Group_5610" data-name="Group 5610" transform="translate(0 0)">
          <path id="Path_6824" data-name="Path 6824" d="M70.15,47.118H68.386V45.665a3.081,3.081,0,0,0-3.077-3.077H64.175a3.051,3.051,0,0,0-2.943-2.265H29.45V38.2a2.131,2.131,0,0,0-1.557-2.049V34.639c0-.041,0-.081-.006-.122h.481a1.88,1.88,0,0,0,1.838-2.274L28.061,22.237A2.208,2.208,0,0,0,25.913,20.5H18.4a2.208,2.208,0,0,0-2.148,1.737L14.111,32.243a1.88,1.88,0,0,0,1.838,2.274h.481c0,.041-.006.081-.006.122v1.516A2.131,2.131,0,0,0,14.866,38.2v2.118H11.26a3.051,3.051,0,0,0-2.943,2.265H7.183a3.081,3.081,0,0,0-3.077,3.077v1.453H2.342A2.345,2.345,0,0,0,0,49.46V70.4a2.345,2.345,0,0,0,2.342,2.342H4.106V74.2a3.081,3.081,0,0,0,3.077,3.077H8.318a3.051,3.051,0,0,0,2.943,2.265H35.255V81.8a2.132,2.132,0,0,0,2.129,2.129h3.959v1.315a1.944,1.944,0,0,0,1.942,1.942h5.036a1.944,1.944,0,0,0,1.942-1.942V83.931h3.817A2.132,2.132,0,0,0,56.21,81.8v-2.26h5.022a3.051,3.051,0,0,0,2.943-2.265h1.134A3.081,3.081,0,0,0,68.386,74.2V72.745H70.15A2.345,2.345,0,0,0,72.492,70.4V49.46A2.345,2.345,0,0,0,70.15,47.118ZM4.106,70.622H2.342a.218.218,0,0,1-.218-.218V49.46a.218.218,0,0,1,.218-.218H4.106Zm4.106,4.531H7.183A.955.955,0,0,1,6.23,74.2V45.665a.955.955,0,0,1,.954-.954H8.212Zm17.7-52.529a.073.073,0,0,1,.071.058l2.081,9.712H25.406l-.654-9.769Zm1.413,17.7H16.992L17,38.2H27.321Zm-5.634-17.7h.932l.654,9.769H21.039ZM24.1,34.517h1.549a.122.122,0,0,1,.122.122v1.435H18.548V34.639a.122.122,0,0,1,.122-.122H24.1Zm-7.847-2.124,2.081-9.712a.074.074,0,0,1,.072-.058h1.16l-.654,9.769H16.251Zm31.889,52.67H43.467V83.931h4.672Zm5.944-3.257h0l-16.7-.006v-2.26H54.085ZM66.262,48.18V74.2a.955.955,0,0,1-.954.954H64.28V56.321a1.062,1.062,0,1,0-2.124,0V76.493a.926.926,0,0,1-.925.925H11.26a.926.926,0,0,1-.925-.925V43.37a.926.926,0,0,1,.925-.925H61.232a.926.926,0,0,1,.925.925v8.7a1.062,1.062,0,1,0,2.124,0V44.711h1.029a.955.955,0,0,1,.954.954ZM70.368,70.4a.218.218,0,0,1-.218.218H68.386V49.242H70.15a.218.218,0,0,1,.218.218Z" transform="translate(0 -20.5)" stroke="#fff" stroke-width="0.2"/>
        </g>
      </g>
    </g>
  </g>
</svg>
