<svg xmlns="http://www.w3.org/2000/svg" width="80" height="80.014" viewBox="0 0 80 80.014">
  <g id="icon-10" transform="translate(9836 3358)">
    <rect id="Rectangle_510" data-name="Rectangle 510" width="80" height="80" transform="translate(-9836 -3358)" fill="#fff"/>
    <g id="_010-fuel" data-name="010-fuel" transform="translate(-9835.599 -3345.123)">
      <path id="Path_6825" data-name="Path 6825" d="M296.283,290.969a2.538,2.538,0,0,1-3.538,1.943l-10.713-4.733a1.12,1.12,0,0,1-.609-1.383l5.376-15.973a5.413,5.413,0,0,1,6.049-3.584l1.68.3a5.353,5.353,0,0,1,4.368,6.1Zm-2.634-.107a.287.287,0,0,0,.266-.011.294.294,0,0,0,.154-.224l2.619-17.31a3.167,3.167,0,0,0-.038-1.12l-1.894,1.5a5.853,5.853,0,0,0-1.96,2.785l-4.1,12.2Zm.488-21.109-1.68-.3a3.106,3.106,0,0,0-.547-.048,3.166,3.166,0,0,0-2.986,2.138l-5.053,15.009,2.763,1.22,4.038-12a8.064,8.064,0,0,1,2.7-3.833l2.053-1.624a3.135,3.135,0,0,0-1.288-.561Zm0,0" transform="translate(-268.674 -232.099)" stroke="#fff" stroke-width="0.1"/>
      <path id="Path_6826" data-name="Path 6826" d="M64.55,10.547,47.824,15.476a1.738,1.738,0,0,0-.617.33l-5.9,4.915-.951.8L32.648,61.581a6.8,6.8,0,0,1-9.432,4.938L12.469,61.771a3.741,3.741,0,0,1-4.277,1.049L2.524,60.494A3.736,3.736,0,0,1,.483,55.622l10.324-25.2-.766-.885a3.967,3.967,0,0,1,.4-5.588L22.255,13.714a3.964,3.964,0,0,1,5.593.4l1.91,2.21,4.294-3.577h.007l7.952-6.469a3.939,3.939,0,0,1,1.382-.727L61.512.215A3.963,3.963,0,0,1,66.43,2.9l.8,2.723a3.963,3.963,0,0,1-2.682,4.928ZM28.783,18.63l-2.63-3.042a1.723,1.723,0,0,0-2.431-.176L11.909,25.642a1.724,1.724,0,0,0-.175,2.428l1.216,1.406a1.121,1.121,0,0,1,.191,1.158L2.555,56.465a1.494,1.494,0,0,0,.816,1.949l5.671,2.324a1.494,1.494,0,0,0,1.95-.818,1.12,1.12,0,0,1,1.489-.6l11.639,5.142a4.563,4.563,0,0,0,6.325-3.313L38.23,20.692a1.124,1.124,0,0,1,.383-.649l.352-.293-4.291-4.6-4.328,3.6a1.12,1.12,0,0,1-1.562-.128Zm36.3-12.374-.8-2.725a1.722,1.722,0,0,0-2.14-1.166L44.036,7.695a1.719,1.719,0,0,0-.6.316l-7.03,5.712,4.281,4.593,5.086-4.24a3.935,3.935,0,0,1,1.417-.757L63.918,8.394a1.722,1.722,0,0,0,1.165-2.138Zm0,0" transform="translate(-0.203 -0.053)" stroke="#fff" stroke-width="0.1"/>
      <path id="Path_6827" data-name="Path 6827" d="M7.843,156.438A7.669,7.669,0,0,1,0,148.6c0-3.571,4.339-10.019,6.148-12.106a2.31,2.31,0,0,1,3.385,0c1.809,2.087,6.148,8.535,6.148,12.106a7.669,7.669,0,0,1-7.841,7.841Zm0-18.481c-1.976,2.279-5.6,8.048-5.6,10.641a5.417,5.417,0,0,0,5.6,5.6,5.417,5.417,0,0,0,5.6-5.6C13.444,146.005,9.818,140.236,7.843,137.957Zm0,0" transform="translate(51.533 -117.942)" fill="#ff4612" stroke="#fff" stroke-width="0.1"/>
      <path id="Path_6828" data-name="Path 6828" d="M240.191,158.971a1.12,1.12,0,0,1,.809,1.365l-.56,2.193a1.121,1.121,0,0,1-1.084.842,1.081,1.081,0,0,1-.278-.035,1.12,1.12,0,0,1-.809-1.362l.56-2.194a1.121,1.121,0,0,1,1.362-.81Zm0,0" transform="translate(-205.087 -138.081)" stroke="#fff" stroke-width="0.1"/>
      <path id="Path_6829" data-name="Path 6829" d="M255.54,205.131l-1.587,6.72a1.12,1.12,0,0,1-1.09.862,1.066,1.066,0,0,1-.258-.03,1.12,1.12,0,0,1-.834-1.344l1.587-6.72a1.121,1.121,0,0,1,2.182.515Zm0,0" transform="translate(-221.395 -177.017)" stroke="#fff" stroke-width="0.1"/>
    </g>
  </g>
</svg>
