<svg xmlns="http://www.w3.org/2000/svg" width="80" height="80" viewBox="0 0 80 80">
  <g id="icon-13" transform="translate(9899 3301)">
    <rect id="Rectangle_504" data-name="Rectangle 504" width="80" height="80" transform="translate(-9899 -3301)" fill="#fff"/>
    <g id="_006-exhaust-pipe" data-name="006-exhaust-pipe" transform="translate(-9897.4 -3279.208)">
      <g id="Group_5525" data-name="Group 5525" transform="translate(0 0)">
        <g id="Group_5524" data-name="Group 5524">
          <path id="Path_6742" data-name="Path 6742" d="M.469,116.655l4.547,4.555a1.6,1.6,0,0,0,2.266,0l9.651-9.661a2.163,2.163,0,0,1,2.835,0A11.657,11.657,0,0,0,28,114.87h0a11.675,11.675,0,0,0,7.919-3.067l1.4,1.4a1.6,1.6,0,0,0,2.266,0l1.446-1.444a6.559,6.559,0,0,0,8.681-.352l20.122-20.12a6.406,6.406,0,0,0,.35-8.682l1.446-1.446a1.6,1.6,0,0,0,0-2.266L70.239,77.5l6.2-6.207a1.6,1.6,0,0,0,0-2.264l-4.547-4.555a1.6,1.6,0,0,0-2.266,0l-6.2,6.211-1.4-1.4a1.6,1.6,0,0,0-2.266,0L58.307,70.72a6.567,6.567,0,0,0-8.681.352L29.5,91.193a6.406,6.406,0,0,0-.35,8.682l-1.446,1.446a1.6,1.6,0,0,0,0,2.266l1.366,1.366a2.061,2.061,0,0,1-2.489-.22,11.863,11.863,0,0,0-16.464,0L.469,114.391A1.6,1.6,0,0,0,.469,116.655ZM70.759,67.869l2.281,2.288-5.066,5.074-2.285-2.285ZM31.769,93.459l20.122-20.12a3.283,3.283,0,0,1,4.531,0l.767.767a1.6,1.6,0,0,0,2.266,0l1.43-1.43,7.348,7.348-1.43,1.43a1.6,1.6,0,0,0,0,2.264l.767.77a3.2,3.2,0,0,1,0,4.531l-20.122,20.12a3.283,3.283,0,0,1-4.531,0l-.767-.767a1.6,1.6,0,0,0-2.266,0l-1.43,1.43-7.348-7.348,1.43-1.43a1.6,1.6,0,0,0,0-2.264l-.767-.77a3.2,3.2,0,0,1,0-4.531Zm-19.38,13.536a8.965,8.965,0,0,1,11.926,0,5.272,5.272,0,0,0,7.055.254l2.286,2.286a8.623,8.623,0,0,1-11.622-.25,5.474,5.474,0,0,0-7.367,0l-8.518,8.526-2.281-2.288Z" transform="translate(0 -64)" stroke="#fff" stroke-width="0.6"/>
        </g>
      </g>
      <g id="Group_5527" data-name="Group 5527" transform="translate(43.564 28.925)">
        <g id="Group_5526" data-name="Group 5526" transform="translate(0 0)">
          <path id="Path_6743" data-name="Path 6743" d="M133.907,179.735a1.6,1.6,0,0,0,2.266,0l10.1-10.094A1.6,1.6,0,1,0,144,167.376l-10.1,10.094A1.6,1.6,0,0,0,133.907,179.735Z" transform="translate(-133.438 -166.907)" fill="#ff4612" stroke="#fff" stroke-width="0.6"/>
        </g>
      </g>
    </g>
  </g>
</svg>
