<svg xmlns="http://www.w3.org/2000/svg" width="80" height="80.066" viewBox="0 0 80 80.066">
  <g id="icon-12" transform="translate(9728 3358)">
    <rect id="Rectangle_520" data-name="Rectangle 520" width="80" height="80" transform="translate(-9728 -3358)" fill="#fff"/>
    <g id="Group_6279" data-name="Group 6279" transform="translate(-9720 -3340.748)">
      <path id="Path_6855" data-name="Path 6855" d="M464.864-570.223v9.092l.586.224c1.143-1.281,2.277-2.57,3.436-3.836a8,8,0,0,1,1.729-1.647,1.017,1.017,0,0,1,.441-.118,1.123,1.123,0,0,1,1.184,1.4.608.608,0,0,1-.137.251c-2.459,2.562-4.993,5.053-7.52,7.55a1.27,1.27,0,0,1-1.984-.063c-2.485-2.467-4.992-4.915-7.408-7.448a.616.616,0,0,1-.14-.266,1.144,1.144,0,0,1,1.366-1.388.7.7,0,0,1,.288.136c1.224,1.023,2.316,2.206,3.437,3.349.64.652,1.24,1.344,1.856,2.019l.371-.145v-9.115h-1.885q-14.036,0-28.071,0c-2.29,0-2.4-.129-2.4-2.353q0-20.266,0-40.531c0-4.2,2.156-6.431,6.344-6.436q21.091-.025,42.182.014c3.632.005,5.391,1.335,6.406,4.88q6.086,21.255,12.121,42.526c.406,1.426,0,1.891-1.721,1.893q-13.735.02-27.471.011Zm-32.619-2.416H462.4v-11.5c-.839.8-1.479,1.395-2.1,2.006-1.214,1.192-2.365,2.457-3.664,3.546a.74.74,0,0,1-.465.135,1.132,1.132,0,0,1-1.148-1.422.619.619,0,0,1,.139-.251c2.458-2.564,4.965-5.084,7.549-7.521a1.813,1.813,0,0,1,1.767-.057c2.621,2.47,5.162,5.026,7.653,7.628a.539.539,0,0,1,.125.244,1.129,1.129,0,0,1-1.219,1.358.818.818,0,0,1-.476-.159c-1.329-1.133-2.512-2.435-3.762-3.662-.579-.568-1.186-1.106-1.91-1.779v11.434h29.655c-.1-.4-.148-.637-.215-.873q-5.815-20.4-11.642-40.8c-.66-2.3-1.7-2.99-4.2-2.991q-20.718-.006-41.437,0c-3.795,0-4.809,1.007-4.81,4.793q0,17.415,0,34.831Z" transform="translate(-430.013 619.556)" stroke="#fff" stroke-width="0.2"/>
      <path id="Path_6875" data-name="Path 6875" d="M455.5-582.093V-573l.586.224c1.143-1.281,2.277-2.57,3.436-3.836a8,8,0,0,1,1.729-1.647,1.017,1.017,0,0,1,.441-.118,1.123,1.123,0,0,1,1.184,1.4.608.608,0,0,1-.137.251c-2.459,2.562-4.993,5.053-7.52,7.55a1.27,1.27,0,0,1-1.984-.063c-2.485-2.467-4.992-4.915-7.408-7.448a.616.616,0,0,1-.14-.266,1.144,1.144,0,0,1,1.366-1.388.7.7,0,0,1,.288.136c1.224,1.023,2.316,2.206,3.437,3.349.64.652,1.24,1.344,1.856,2.019l.371-.145V-582.1h-1.885c-9.357,0,16.547,0,7.39,0Zm-2.461-2.416v-11.5c-.839.8-1.479,1.395-2.1,2.006-1.214,1.192-2.365,2.457-3.664,3.546a.74.74,0,0,1-.465.135,1.132,1.132,0,0,1-1.148-1.422.619.619,0,0,1,.139-.251c2.458-2.564,4.965-5.084,7.549-7.521a1.813,1.813,0,0,1,1.767-.057c2.621,2.47,5.162,5.026,7.653,7.628a.539.539,0,0,1,.125.244,1.129,1.129,0,0,1-1.219,1.358.818.818,0,0,1-.476-.159c-1.329-1.133-2.512-2.435-3.762-3.662-.579-.568-1.186-1.106-1.91-1.779v9.363s0,1.075,0,2.068C456.194-584.448,459.666-584.64,453.042-584.509Z" transform="translate(-420.652 631.425)" fill="#ff4612"/>
    </g>
  </g>
</svg>
