<svg xmlns="http://www.w3.org/2000/svg" width="80" height="80.609" viewBox="0 0 80 80.609">
  <g id="icon-5" transform="translate(-228 -4580)">
    <g id="Group_6281" data-name="Group 6281" transform="translate(228 4580)">
      <path id="Path_7250" data-name="Path 7250" d="M0,0H80V80H0Z" fill="#fff"/>
      <g id="_002-clutch" data-name="002-clutch" transform="translate(6.4 13.409)">
        <g id="Group_5483" data-name="Group 5483" transform="translate(0 0)">
          <g id="Group_5482" data-name="Group 5482" transform="translate(0 0)">
            <path id="Path_6705" data-name="Path 6705" d="M66.86,37.138a4.7,4.7,0,0,1,0-7.075,1,1,0,0,0-.217-1.648l-.01-.005A4.7,4.7,0,0,1,64.8,21.586l.008-.012a1,1,0,0,0-.643-1.541A4.7,4.7,0,0,1,60.633,13.9a1,1,0,0,0-1.017-1.314,4.7,4.7,0,0,1-5-5A1,1,0,0,0,53.29,6.573a4.7,4.7,0,0,1-6.122-3.548,1,1,0,0,0-1.534-.638l-.013.009a4.7,4.7,0,0,1-3.828.636,4.7,4.7,0,0,1-3-2.464L38.786.556A1,1,0,0,0,37.139.342,4.7,4.7,0,0,1,33.6,1.95,4.694,4.694,0,0,1,30.065.342,1,1,0,0,0,28.416.56l-.005.01a4.7,4.7,0,0,1-3,2.462,4.7,4.7,0,0,1-3.83-.638l-.012-.008a1,1,0,0,0-1.535.647A4.7,4.7,0,0,1,13.9,6.57a1,1,0,0,0-1.315,1.016,4.7,4.7,0,0,1-5,5,1,1,0,0,0-1.01,1.326,4.7,4.7,0,0,1-3.547,6.122,1,1,0,0,0-.636,1.54l.005.007a4.7,4.7,0,0,1,.636,3.828,4.7,4.7,0,0,1-2.464,3l-.012.006a1,1,0,0,0-.214,1.646A4.7,4.7,0,0,1,1.952,33.6,4.694,4.694,0,0,1,.344,37.138a1,1,0,0,0,.214,1.647l.014.007a4.7,4.7,0,0,1,2.462,3A4.7,4.7,0,0,1,2.4,45.62l-.008.012a1,1,0,0,0,.646,1.537,4.7,4.7,0,0,1,3.54,6.118,1,1,0,0,0,1.012,1.328,4.7,4.7,0,0,1,5,5,1,1,0,0,0,1.326,1.012,4.7,4.7,0,0,1,6.122,3.548,1,1,0,0,0,1.534.638l.013-.009a4.7,4.7,0,0,1,6.829,1.827l.006.012a1,1,0,0,0,1.647.214,4.7,4.7,0,0,1,7.075,0,1,1,0,0,0,1.648-.217l.005-.01a4.7,4.7,0,0,1,6.83-1.824l.012.008a1,1,0,0,0,1.535-.647,4.7,4.7,0,0,1,6.124-3.538,1,1,0,0,0,1.322-1.014,4.7,4.7,0,0,1,5-5,1,1,0,0,0,1.013-1.326,4.7,4.7,0,0,1,3.547-6.122,1,1,0,0,0,.637-1.538l-.006-.01a4.7,4.7,0,0,1,1.828-6.829l.012-.006a1,1,0,0,0,.214-1.647Zm-4.618,4.137a6.69,6.69,0,0,0,.291,4.31,6.69,6.69,0,0,0-4.09,7.077,6.691,6.691,0,0,0-5.778,5.778,6.689,6.689,0,0,0-7.077,4.092,6.692,6.692,0,0,0-7.9,2.114A6.69,6.69,0,0,0,33.6,63.255h0a6.69,6.69,0,0,0-4.084,1.391,6.692,6.692,0,0,0-7.9-2.114,6.69,6.69,0,0,0-7.077-4.09,6.691,6.691,0,0,0-5.778-5.779,6.69,6.69,0,0,0-4.091-7.077,6.693,6.693,0,0,0,.291-4.311,6.693,6.693,0,0,0-2.4-3.591A6.69,6.69,0,0,0,3.948,33.6a6.69,6.69,0,0,0-1.391-4.084,6.692,6.692,0,0,0,2.4-3.591,6.69,6.69,0,0,0-.291-4.309,6.69,6.69,0,0,0,4.091-7.077A6.69,6.69,0,0,0,14.54,8.761,6.689,6.689,0,0,0,21.617,4.67a6.691,6.691,0,0,0,4.311.291,6.69,6.69,0,0,0,3.591-2.405A6.691,6.691,0,0,0,33.6,3.946a6.69,6.69,0,0,0,4.084-1.391,6.692,6.692,0,0,0,3.591,2.405,6.692,6.692,0,0,0,4.31-.291,6.69,6.69,0,0,0,7.077,4.09,6.691,6.691,0,0,0,5.778,5.778,6.692,6.692,0,0,0,4.091,7.078,6.693,6.693,0,0,0,2.114,7.9,6.692,6.692,0,0,0,0,8.167A6.689,6.689,0,0,0,62.242,41.275Z" transform="translate(-0.002 -0.001)"/>
          </g>
        </g>
        <g id="Group_5485" data-name="Group 5485" transform="translate(7.981 7.981)">
          <g id="Group_5484" data-name="Group 5484">
            <path id="Path_6706" data-name="Path 6706" d="M111.839,90.059a1,1,0,0,0-.706-.384,3.26,3.26,0,0,1,0-6.5,1,1,0,0,0,.9-1.163A25.978,25.978,0,0,0,90.839,60.823a1,1,0,0,0-1.163.9,3.259,3.259,0,0,1-6.5,0,1,1,0,0,0-1.163-.9A25.978,25.978,0,0,0,60.824,82.017a1,1,0,0,0,.9,1.163,3.259,3.259,0,0,1,0,6.5,1,1,0,0,0-.9,1.163,25.784,25.784,0,0,0,2.636,7.737,1,1,0,1,0,1.764-.935,23.79,23.79,0,0,1-2.25-6.185,5.254,5.254,0,0,0,0-10.056A23.985,23.985,0,0,1,81.4,62.973a5.254,5.254,0,0,0,10.056,0A23.986,23.986,0,0,1,109.883,81.4a5.254,5.254,0,0,0,0,10.056,23.985,23.985,0,0,1-18.426,18.426,5.254,5.254,0,0,0-10.056,0A23.819,23.819,0,0,1,66.866,100.3a1,1,0,1,0-1.627,1.156,25.978,25.978,0,0,0,16.779,10.573,1,1,0,0,0,1.163-.9,3.259,3.259,0,0,1,6.5,0,1,1,0,0,0,.995.915,1.013,1.013,0,0,0,.168-.014,25.978,25.978,0,0,0,21.194-21.194A1,1,0,0,0,111.839,90.059Z" transform="translate(-60.81 -60.809)"/>
          </g>
        </g>
        <g id="Group_5487" data-name="Group 5487" transform="translate(29.131 29.131)">
          <g id="Group_5486" data-name="Group 5486">
            <path id="Path_6707" data-name="Path 6707" d="M226.423,221.952a4.469,4.469,0,1,0,4.469,4.469A4.474,4.474,0,0,0,226.423,221.952Zm0,6.941a2.473,2.473,0,1,1,2.473-2.473A2.476,2.476,0,0,1,226.423,228.893Z" transform="translate(-221.954 -221.952)" fill="#ff4612"/>
          </g>
        </g>
        <g id="Group_5489" data-name="Group 5489" transform="translate(15.871 15.871)">
          <g id="Group_5488" data-name="Group 5488">
            <path id="Path_6708" data-name="Path 6708" d="M151.774,126.731a1,1,0,1,0-1.477,1.343,15.712,15.712,0,1,1-2.85-2.468,1,1,0,1,0,1.117-1.654,17.741,17.741,0,1,0,3.21,2.78Z" transform="translate(-120.922 -120.923)"/>
          </g>
        </g>
        <g id="Group_5491" data-name="Group 5491" transform="translate(44.439 32.602)">
          <g id="Group_5490" data-name="Group 5490">
            <path id="Path_6709" data-name="Path 6709" d="M339.581,248.4a1,1,0,0,0-1,1h0v.023h0a1,1,0,0,0,1,1h0a1,1,0,0,0,1-1v-.028A1,1,0,0,0,339.581,248.4Z" transform="translate(-338.583 -248.395)" fill="#ff4612"/>
          </g>
        </g>
        <g id="Group_5493" data-name="Group 5493" transform="translate(37.86 43.209)">
          <g id="Group_5492" data-name="Group 5492">
            <path id="Path_6710" data-name="Path 6710" d="M290.356,329.77a1,1,0,1,0-.45,1.339h0A1,1,0,0,0,290.356,329.77Z" transform="translate(-288.463 -329.216)" fill="#ff4612"/>
          </g>
        </g>
        <g id="Group_5495" data-name="Group 5495" transform="translate(41.335 40.592)">
          <g id="Group_5494" data-name="Group 5494">
            <path id="Path_6711" data-name="Path 6711" d="M316.61,309.539a1,1,0,1,0,.063,1.409A1,1,0,0,0,316.61,309.539Z" transform="translate(-314.939 -309.277)" fill="#ff4612"/>
          </g>
        </g>
        <g id="Group_5497" data-name="Group 5497" transform="translate(43.634 36.901)">
          <g id="Group_5496" data-name="Group 5496">
            <path id="Path_6712" data-name="Path 6712" d="M333.813,281.218a1,1,0,1,0,.567,1.292A1,1,0,0,0,333.813,281.218Z" transform="translate(-332.452 -281.15)" fill="#ff4612"/>
          </g>
        </g>
        <g id="Group_5499" data-name="Group 5499" transform="translate(43.643 28.325)">
          <g id="Group_5498" data-name="Group 5498">
            <path id="Path_6713" data-name="Path 6713" d="M334.449,216.447a1,1,0,1,0-.929,1.359.974.974,0,0,0,.359-.067A1,1,0,0,0,334.449,216.447Z" transform="translate(-332.521 -215.81)" fill="#ff4612"/>
          </g>
        </g>
        <g id="Group_5501" data-name="Group 5501" transform="translate(41.351 24.629)">
          <g id="Group_5500" data-name="Group 5500">
            <path id="Path_6714" data-name="Path 6714" d="M316.791,187.973a1,1,0,1,0-.065,1.409A1,1,0,0,0,316.791,187.973Z" transform="translate(-315.055 -187.648)" fill="#ff4612"/>
          </g>
        </g>
        <g id="Group_5503" data-name="Group 5503" transform="translate(25.455 42.039)">
          <g id="Group_5502" data-name="Group 5502">
            <path id="Path_6715" data-name="Path 6715" d="M195.545,320.5a1,1,0,1,0-1.206,1.59,1,1,0,1,0,1.206-1.59Z" transform="translate(-193.944 -320.299)" fill="#ff4612"/>
          </g>
        </g>
        <g id="Group_5505" data-name="Group 5505" transform="translate(20.966 30.414)">
          <g id="Group_5504" data-name="Group 5504">
            <path id="Path_6716" data-name="Path 6716" d="M160.921,231.746a1,1,0,1,0-.366,1.963,1.087,1.087,0,0,0,.184.017,1,1,0,0,0,.182-1.98Z" transform="translate(-159.739 -231.729)" fill="#ff4612"/>
          </g>
        </g>
        <g id="Group_5507" data-name="Group 5507" transform="translate(33.675 44.392)">
          <g id="Group_5506" data-name="Group 5506">
            <path id="Path_6717" data-name="Path 6717" d="M258.564,339.131a1,1,0,1,0-1,1.087c.031,0,.061,0,.09,0A1,1,0,0,0,258.564,339.131Z" transform="translate(-256.572 -338.222)" fill="#ff4612"/>
          </g>
        </g>
        <g id="Group_5509" data-name="Group 5509" transform="translate(22.541 26.361)">
          <g id="Group_5508" data-name="Group 5508">
            <path id="Path_6718" data-name="Path 6718" d="M173.265,201a1,1,0,0,0-1.054,1.7,1,1,0,0,0,1.375-.321A1,1,0,0,0,173.265,201Z" transform="translate(-171.74 -200.846)" fill="#ff4612"/>
          </g>
        </g>
        <g id="Group_5511" data-name="Group 5511" transform="translate(22.527 38.821)">
          <g id="Group_5510" data-name="Group 5510">
            <path id="Path_6719" data-name="Path 6719" d="M173.485,296.254a1,1,0,1,0-.323,1.373A1,1,0,0,0,173.485,296.254Z" transform="translate(-171.638 -295.78)" fill="#ff4612"/>
          </g>
        </g>
        <g id="Group_5513" data-name="Group 5513" transform="translate(25.474 23.149)">
          <g id="Group_5512" data-name="Group 5512">
            <path id="Path_6720" data-name="Path 6720" d="M195.886,176.774a1,1,0,1,0-.194,1.4A1,1,0,0,0,195.886,176.774Z" transform="translate(-194.091 -176.377)" fill="#ff4612"/>
          </g>
        </g>
        <g id="Group_5515" data-name="Group 5515" transform="translate(20.961 34.763)">
          <g id="Group_5514" data-name="Group 5514">
            <path id="Path_6721" data-name="Path 6721" d="M161.684,265.683h0a1,1,0,1,0-.982,1.179,1.066,1.066,0,0,0,.182-.016A1,1,0,0,0,161.684,265.683Z" transform="translate(-159.703 -264.865)" fill="#ff4612"/>
          </g>
        </g>
        <g id="Group_5517" data-name="Group 5517" transform="translate(29.345 43.986)">
          <g id="Group_5516" data-name="Group 5516">
            <path id="Path_6722" data-name="Path 6722" d="M224.852,335.169a1,1,0,1,0-.548,1.919.979.979,0,0,0,.274.039,1,1,0,0,0,.274-1.957Z" transform="translate(-223.58 -335.13)" fill="#ff4612"/>
          </g>
        </g>
        <g id="Group_5519" data-name="Group 5519" transform="translate(37.882 22.004)">
          <g id="Group_5518" data-name="Group 5518">
            <path id="Path_6723" data-name="Path 6723" d="M290.073,167.756a1,1,0,1,0-.892,1.786.986.986,0,0,0,.444.105,1,1,0,0,0,.447-1.891Z" transform="translate(-288.629 -167.651)" fill="#ff4612"/>
          </g>
        </g>
        <g id="Group_5521" data-name="Group 5521" transform="translate(29.368 21.211)">
          <g id="Group_5520" data-name="Group 5520">
            <path id="Path_6724" data-name="Path 6724" d="M225.718,162.338a1,1,0,1,0-.961,1.269,1.012,1.012,0,0,0,.273-.037A1,1,0,0,0,225.718,162.338Z" transform="translate(-223.76 -161.612)" fill="#ff4612"/>
          </g>
        </g>
        <g id="Group_5523" data-name="Group 5523" transform="translate(33.7 20.814)">
          <g id="Group_5522" data-name="Group 5522">
            <path id="Path_6725" data-name="Path 6725" d="M257.852,158.589a1,1,0,0,0-.182,1.988c.031,0,.061,0,.092,0a1,1,0,0,0,.09-1.992Z" transform="translate(-256.763 -158.585)" fill="#ff4612"/>
          </g>
        </g>
      </g>
    </g>
  </g>
</svg>
