<svg xmlns="http://www.w3.org/2000/svg" width="80" height="80.132" viewBox="0 0 80 80.132">
  <g id="icon-inspection" transform="translate(9899 3472)">
    <path id="Path_7251" data-name="Path 7251" d="M0,0H80V80H0Z" transform="translate(-9899 -3472)" fill="#fff"/>
    <g id="_003-check-up" data-name="003-check-up" transform="translate(-9897.399 -3460.609)">
      <path id="Path_6726" data-name="Path 6726" d="M7,56H9.541v2.541H7Z" transform="translate(-0.648 6.239)" stroke="#fff" stroke-width="0.3"/>
      <path id="Path_6727" data-name="Path 6727" d="M11,54h2.541v2.541H11Z" transform="translate(0.434 5.698)" stroke="#fff" stroke-width="0.3"/>
      <path id="Path_6728" data-name="Path 6728" d="M55,56h2.541v2.541H55Z" transform="translate(12.335 6.239)" stroke="#fff" stroke-width="0.3"/>
      <path id="Path_6729" data-name="Path 6729" d="M51,54h2.541v2.541H51Z" transform="translate(11.253 5.698)" stroke="#fff" stroke-width="0.3"/>
      <path id="Path_6730" data-name="Path 6730" d="M76.958,14.62H65.524V12.079a1.27,1.27,0,0,0-1.27-1.27H60.277a5.082,5.082,0,0,0-9.833,0H46.467a1.27,1.27,0,0,0-1.27,1.27V14.62H33.762a1.27,1.27,0,0,0-1.27,1.27v7.623H20.282a6.352,6.352,0,0,0-6.276,5.349L12.329,41.3h-.572L9.534,35.748a1.27,1.27,0,0,0-1.182-.8H3.27A1.27,1.27,0,0,0,2,36.218V41.3a1.27,1.27,0,0,0,1.067,1.258l1.27.2A6.352,6.352,0,0,0,2,47.652V64.168a1.27,1.27,0,0,0,1.27,1.27h1.27v7.623A2.549,2.549,0,0,0,7.082,75.6H17.246a2.549,2.549,0,0,0,2.541-2.541V65.439H60.442v7.623A2.549,2.549,0,0,0,62.983,75.6H73.147a2.549,2.549,0,0,0,2.541-2.541V65.439h1.27a1.27,1.27,0,0,0,1.27-1.27V15.89A1.27,1.27,0,0,0,76.958,14.62ZM4.541,37.488H7.488l1.385,3.456L4.541,40.22Zm0,13.975H7.082v6.352H4.541Zm12.7,21.6h-1.27V70.521H13.434v2.541H7.082V65.439h1.27V67.98h2.541V65.439h6.352ZM32.491,62.9H4.541V60.357h27.95ZM9.623,57.816V51.463h12.7v6.352Zm22.869,0H24.869V51.463h7.623Zm0-8.893H4.541v-1.27a3.823,3.823,0,0,1,3.811-3.811H32.491Zm0-7.623H14.883l1.639-12.057a3.8,3.8,0,0,1,3.761-3.189H32.491Zm15.246-27.95h3.811a1.27,1.27,0,0,0,1.27-1.27,2.541,2.541,0,0,1,5.082,0,1.27,1.27,0,0,0,1.27,1.27h3.811V19.7H47.737Zm-1.27,8.893H64.253a1.27,1.27,0,0,0,1.27-1.27h6.352V59.086H38.844V20.972H45.2A1.27,1.27,0,0,0,46.467,22.243Zm26.68,50.819H66.794V70.521H64.253v2.541h-1.27V65.439h6.352V67.98h2.541V65.439h1.27ZM75.687,62.9H35.032V17.161H45.2v1.27H37.573A1.27,1.27,0,0,0,36.3,19.7V60.357a1.27,1.27,0,0,0,1.27,1.27H73.147a1.27,1.27,0,0,0,1.27-1.27V19.7a1.27,1.27,0,0,0-1.27-1.27H65.524v-1.27H75.687Z" transform="translate(-2 -7.011)" stroke="#fff" stroke-width="0.3"/>
      <path id="Path_6731" data-name="Path 6731" d="M37.961,28.792a1.27,1.27,0,0,0,.994-.476l5.082-6.352-1.984-1.588L37.7,25.818l-2.842-1.894-1.41,2.114,3.811,2.541A1.27,1.27,0,0,0,37.961,28.792Z" transform="translate(6.505 -3.397)" fill="#ff4612" stroke="#fff" stroke-width="0.3"/>
      <path id="Path_6732" data-name="Path 6732" d="M37.961,37.792a1.27,1.27,0,0,0,.994-.476l5.082-6.352-1.984-1.588L37.7,34.818l-2.842-1.894-1.41,2.114,3.811,2.541A1.27,1.27,0,0,0,37.961,37.792Z" transform="translate(6.505 -0.963)" fill="#ff4612" stroke="#fff" stroke-width="0.3"/>
      <path id="Path_6733" data-name="Path 6733" d="M37.961,46.792a1.27,1.27,0,0,0,.994-.476l5.082-6.352-1.984-1.588L37.7,43.818l-2.842-1.894-1.41,2.114,3.811,2.541A1.27,1.27,0,0,0,37.961,46.792Z" transform="translate(6.505 1.472)" fill="#ff4612" stroke="#fff" stroke-width="0.3"/>
      <path id="Path_6734" data-name="Path 6734" d="M44,25H57.975v2.541H44Z" transform="translate(9.36 -2.146)" fill="#ff4612" stroke="#fff" stroke-width="0.3"/>
      <path id="Path_6735" data-name="Path 6735" d="M44,34H57.975v2.541H44Z" transform="translate(9.36 0.288)" fill="#ff4612" stroke="#fff" stroke-width="0.3"/>
      <path id="Path_6736" data-name="Path 6736" d="M44,43H57.975v2.541H44Z" transform="translate(9.36 2.722)" fill="#ff4612" stroke="#fff" stroke-width="0.3"/>
    </g>
  </g>
</svg>
