<svg id="roadside_-_5" data-name="roadside - 5" xmlns="http://www.w3.org/2000/svg" width="38.209" height="40.127" viewBox="0 0 38.209 40.127">
  <g id="Group_7127" data-name="Group 7127" transform="translate(0 10.036)">
    <path id="Path_7670" data-name="Path 7670" d="M40.723,31.558l-1.266-1.415-1.043-3.2,1.937-.223.372-2.16-2.309-.372L37,25l-3.128-6.7-21.823.223-2.9,6.256-1.49-.223-2.532.149.372,1.937,2.16.372v.447L5.792,29.174,4.6,40.346l1.49,2.681.149,2.458,4.022.67.67-3.724,23.759.67,1.043,2.532,3.724.149V43.1l1.49-1.713Zm-28.6-5.437L14.8,20.088H31.413l3.054,5.81Z" transform="translate(-3.93 -16.885)" fill="#fff"/>
    <path id="Path_7673" data-name="Path 7673" d="M41.909,34.648a16.851,16.851,0,0,0-.819-4.767,8.674,8.674,0,0,0-1.564-2.532h.149c.372,0,1.639-.149,1.639-2.309A1.667,1.667,0,0,0,39.6,23.178H38.408a2.45,2.45,0,0,0-1.341.3c-.447-1.341-.894-2.532-1.117-3.277l-.3-.745a3.784,3.784,0,0,0-3.352-2.83c-.894-.074-5.214-.223-9.31-.223h-.372c-4.1,0-8.416.149-9.31.223a3.786,3.786,0,0,0-3.352,2.83l-.3.745c-.3.819-.67,2.011-1.117,3.277a2.328,2.328,0,0,0-1.341-.3H6.009A1.667,1.667,0,0,0,4.3,25.04c0,2.16,1.266,2.309,1.639,2.309h.223a11.144,11.144,0,0,0-1.639,2.532A17.881,17.881,0,0,0,3.7,34.648v4.543c0,1.788.447,2.979,1.415,3.575v1.415A2.321,2.321,0,0,0,7.424,46.49H9.137a2.321,2.321,0,0,0,2.309-2.309V43.139H34.163v1.043a2.321,2.321,0,0,0,2.309,2.309h1.713a2.321,2.321,0,0,0,2.309-2.309V42.766c.968-.6,1.415-1.713,1.415-3.575V34.648Zm-6.927,6.7H10.552a.861.861,0,0,0-.894.894v1.937a.509.509,0,0,1-.521.521H7.35a.509.509,0,0,1-.521-.521V42.17a.807.807,0,0,0-.6-.819c-.223-.074-.819-.3-.819-2.16V34.648a14.384,14.384,0,0,1,.745-4.171,9.13,9.13,0,0,1,2.681-3.352.812.812,0,0,0,.223-.968,1.558,1.558,0,0,0-.3-.447.8.8,0,0,0,.6-.149c.074,0,.074-.074.149-.074l.074-.074c.149-.074.223-.3.3-.447.521-1.713,1.117-3.277,1.49-4.245l.3-.745a1.919,1.919,0,0,1,1.862-1.639c.745-.074,4.841-.223,9.161-.223h.372c4.32,0,8.416.149,9.161.223,1.117.074,1.49.67,1.788,1.639l.3.745c.3.968.894,2.532,1.49,4.245a1.558,1.558,0,0,0,.3.447l.074.074c.074,0,.074.074.149.074a1.753,1.753,0,0,0,.6.149.5.5,0,0,0-.3.447.9.9,0,0,0,.223.968,10.768,10.768,0,0,1,2.681,3.352,15.076,15.076,0,0,1,.745,4.245v4.469c0,1.862-.521,2.011-.819,2.085a.925.925,0,0,0-.745.894v2.011a.509.509,0,0,1-.521.521H36.4a.509.509,0,0,1-.521-.521V42.17A.845.845,0,0,0,34.982,41.351ZM6.083,25.04v-.074H7.2c.3,0,.372,0,.372.074a.073.073,0,0,0,.074.074c.149.149.3.372.521.447H6.083C6.083,25.487,6.083,25.338,6.083,25.04Zm31.8.074a.26.26,0,0,0,.074-.149h1.49v.074c0,.223,0,.447-.074.521H37.291A.925.925,0,0,0,37.887,25.114Z" transform="translate(-3.7 -16.4)"/>
    <path id="Path_7674" data-name="Path 7674" d="M16.1,40.707H10.66A2.13,2.13,0,0,1,8.5,38.473c0-.447.074-.819.074-1.266l.074-.521A2.319,2.319,0,0,1,10.883,34.6h2.756a3.277,3.277,0,0,1,3.128,2.011l.074.223c.521,1.192,1.043,2.458.447,3.277C17.289,40.335,16.916,40.707,16.1,40.707Zm-5.065-4.469a.665.665,0,0,0-.67.67l-.074.521a6.021,6.021,0,0,0-.074,1.117c0,.521.3.6.521.6H16.1a5.892,5.892,0,0,0-.6-1.713l-.074-.223a1.709,1.709,0,0,0-1.639-.968Z" transform="translate(-4.925 -21.044)" fill="#ff4612"/>
    <path id="Path_7675" data-name="Path 7675" d="M36.83,26.652l-.074-.3c-.3-.819-.521-1.639-.819-2.458-.223-.819-.521-1.713-.819-2.532a1.9,1.9,0,0,0-1.937-1.415l-7.82-.149-7.82.149A1.849,1.849,0,0,0,15.6,21.364c-.3.894-.6,1.713-.819,2.607-.223.819-.521,1.639-.819,2.532l-.074.149a.457.457,0,0,0,.074.447.531.531,0,0,0,.447.223h21.9a.644.644,0,0,0,.447-.223A.351.351,0,0,0,36.83,26.652Zm-1.266-.447H15.156c.223-.67.447-1.415.67-2.011.223-.819.521-1.713.819-2.532.223-.521.372-.67.894-.67l7.82-.149,7.82.149a.77.77,0,0,1,.894.67c.3.819.6,1.639.819,2.458h0C35.116,24.865,35.34,25.535,35.563,26.205Z" transform="translate(-6.292 -17.268)"/>
    <path id="Path_7676" data-name="Path 7676" d="M44.687,40.682H39.25a1.556,1.556,0,0,1-1.341-.67c-.6-.894-.074-2.085.447-3.277l.074-.223A3.277,3.277,0,0,1,41.559,34.5h2.756a2.213,2.213,0,0,1,2.234,2.085l.074.521a7.66,7.66,0,0,1,.074,1.266A1.941,1.941,0,0,1,44.687,40.682Zm-5.363-1.639h5.363c.223,0,.521-.074.521-.6,0-.3-.074-.67-.074-1.117l-.074-.521a.665.665,0,0,0-.67-.67H41.633a1.792,1.792,0,0,0-1.639.968l-.074.223A6.742,6.742,0,0,0,39.324,39.043Z" transform="translate(-12.362 -21.019)" fill="#ff4612"/>
  </g>
  <path id="Path_7677" data-name="Path 7677" d="M49.33,20.172a15.97,15.97,0,0,0-2.83-6.405L48.139,12.5a17.538,17.538,0,0,1,3.2,7.225Z" transform="translate(-14.622 -5.368)"/>
  <path id="Path_7678" data-name="Path 7678" d="M8.211,19.8,6.2,19.35A18.054,18.054,0,0,1,9.552,12.2l1.639,1.266A15.5,15.5,0,0,0,8.211,19.8Z" transform="translate(-4.338 -5.292)"/>
  <path id="Path_7679" data-name="Path 7679" d="M42.81,10.31A15.926,15.926,0,0,0,37,6.437L37.745,4.5a18.574,18.574,0,0,1,6.629,4.32Z" transform="translate(-12.198 -3.327)"/>
  <path id="Path_7680" data-name="Path 7680" d="M14.09,10.035,12.6,8.545A18.673,18.673,0,0,1,19.3,4.3l.745,2.011A14.689,14.689,0,0,0,14.09,10.035Z" transform="translate(-5.971 -3.276)"/>
  <path id="Path_7681" data-name="Path 7681" d="M31.923,5.439a14.6,14.6,0,0,0-4.767-.372c-.745.074-1.564.149-2.309.3L24.4,3.353c.819-.149,1.713-.3,2.607-.372a16.2,16.2,0,0,1,5.363.447Z" transform="translate(-8.982 -2.925)"/>
</svg>
