<svg xmlns="http://www.w3.org/2000/svg" width="80" height="80" viewBox="0 0 80 80">
  <g id="icon-9" transform="translate(9899 3358)">
    <path id="Path_7255" data-name="Path 7255" d="M0,0H80V80H0Z" transform="translate(-9899 -3358)" fill="#fff"/>
    <g id="car-engine" transform="translate(-9897.404 -3343.713)">
      <path id="Path_6870" data-name="Path 6870" d="M74.175,51.793,60.9,38.523a5.448,5.448,0,0,0-7.127-.536l-7.169,5.286a1.11,1.11,0,0,0-.126,1.678l1.728,1.728-7.589,7.589H35.168l-7.59-7.59,1.728-1.728a1.11,1.11,0,0,0-.126-1.678l-7.168-5.284a5.446,5.446,0,0,0-7.127.536l-2.1,2.1a1.11,1.11,0,0,0,1.57,1.57l2.1-2.1a3.24,3.24,0,0,1,4.239-.319l2.385,1.758L4.623,59.988,2.865,57.6a3.244,3.244,0,0,1,.319-4.241l8.03-8.03a1.11,1.11,0,1,0-1.57-1.57l-8.03,8.03a5.451,5.451,0,0,0-.536,7.128l5.286,7.169a1.11,1.11,0,0,0,.81.448c.028,0,.056,0,.083,0a1.111,1.111,0,0,0,.785-.325L9.77,64.487l1.289,1.289a12.384,12.384,0,0,0,5.693,21.549,9.5,9.5,0,0,0,6.111,7.153v3.987a3.306,3.306,0,0,0,6.42,1.11h1.589a3.305,3.305,0,0,0,6.227,0h1.59a3.305,3.305,0,0,0,6.227,0h1.59a3.306,3.306,0,0,0,6.419-1.11V89.739a8.054,8.054,0,0,0,4.509-2.205,12.329,12.329,0,0,0,6.192-2.128,1.11,1.11,0,0,0-1.252-1.833A10.12,10.12,0,0,1,59.2,85.015a8.01,8.01,0,0,0,.664-2.578,7.943,7.943,0,0,0,1.717-13.508l1.579-1.579a10.152,10.152,0,0,1,2.011,13.378,1.11,1.11,0,1,0,1.856,1.218,12.369,12.369,0,0,0-2.292-16.17l1.29-1.29,1.728,1.728a1.11,1.11,0,0,0,.785.325c.028,0,.055,0,.083,0a1.11,1.11,0,0,0,.81-.448l5.286-7.168a5.448,5.448,0,0,0-.536-7.127ZM56.28,62.045a1.036,1.036,0,0,1,.306-.738l3.127-3.127,1.475,1.475L58.06,62.782a1.043,1.043,0,0,1-1.781-.737ZM53.532,52l.986.986-3.127,3.127a1.043,1.043,0,0,1-1.475-1.475l3.127-3.127Zm-3.751-3.751,1.693,1.693-3.127,3.127a3.263,3.263,0,1,0,4.614,4.614l3.127-3.127,2.055,2.055-3.127,3.127a3.263,3.263,0,1,0,4.614,4.614l3.127-3.127,1.693,1.693-7.13,7.13L42.651,55.378Zm-4.672,41.57h1.205v7.537H45.109ZM37.49,87.6l6.257-6.142c0,.095-.007.189-.007.285A8.052,8.052,0,0,0,46.264,87.6Zm-8.014,6.789a9.412,9.412,0,0,0,1.2-.57v3.538h-1.2Zm7.817-4.57H38.5v7.537H37.292Zm-1.821-3.349c.028-.3.044-.6.044-.9A9.475,9.475,0,0,0,26.051,76.1c-.2,0-.407.009-.608.022l6.188-6.051a6.281,6.281,0,0,0,12.546-.45c0-.148-.007-.295-.017-.441l6.366,4.586a8.062,8.062,0,0,0-4.415,2.261v-.007ZM15.8,70.514l1.7,1.7,2.081,6.46A9.529,9.529,0,0,0,17.9,80.759a5.776,5.776,0,0,1-4.5-5.592A5.714,5.714,0,0,1,15.8,70.514Zm22.1-4.952a4.062,4.062,0,1,1-4.062,4.062A4.067,4.067,0,0,1,37.895,65.562Zm17.345,8.867S41.821,64.72,41.665,64.6A6.269,6.269,0,0,0,33.651,65L21.37,77l-1.636-5.08L35.168,56.488h5.454L56.055,71.921l-.808,2.51-.008,0ZM16.077,58.18,19.2,61.307a1.043,1.043,0,1,1-1.475,1.475L14.6,59.655ZM7.385,63.733,5.956,61.794l18.93-18.93,1.938,1.428Zm5.647-2.508,3.127,3.127a3.263,3.263,0,1,0,4.614-4.614L17.646,56.61l.026-.026L19.7,54.555l3.127,3.127a3.263,3.263,0,0,0,4.614-4.614l-3.127-3.127,1.693-1.693,7.13,7.13L18.469,70.047,11.34,62.917Zm9.714-9.714,3.127,3.127A1.043,1.043,0,0,1,24.4,56.113l-3.127-3.127ZM8.962,75.166a10.18,10.18,0,0,1,3.671-7.816l1.579,1.579A7.949,7.949,0,0,0,16.994,82.82a9.4,9.4,0,0,0-.391,2.2A10.189,10.189,0,0,1,8.962,75.166Zm9.844,10.4a7.245,7.245,0,1,1,7.245,7.245,7.253,7.253,0,0,1-7.245-7.245Zm7.363,13.985a1.087,1.087,0,0,1-1.085-1.087V94.983a9.356,9.356,0,0,0,2.172-.03v3.513A1.088,1.088,0,0,1,26.169,99.552Zm7.816,0A1.087,1.087,0,0,1,32.9,98.465V92.1l2.172-2.132v8.494a1.088,1.088,0,0,1-1.087,1.087Zm7.818,0a1.087,1.087,0,0,1-1.086-1.086V89.818h2.172v8.647A1.087,1.087,0,0,1,41.8,99.551Zm7.817,0a1.087,1.087,0,0,1-1.086-1.086V89.818h2.172v8.647A1.087,1.087,0,0,1,49.62,99.551Zm2.2-11.954a5.857,5.857,0,1,1,5.857-5.857A5.863,5.863,0,0,1,51.816,87.6ZM62.383,75.167A5.713,5.713,0,0,1,59.7,80.015,8.078,8.078,0,0,0,57.17,75.7l1.123-3.489,1.7-1.7a5.713,5.713,0,0,1,2.391,4.653ZM68.4,63.732,48.966,44.294,50.9,42.864l18.93,18.93Zm4.52-6.13-1.758,2.385L52.711,41.532,55.1,39.774a3.241,3.241,0,0,1,4.24.319l13.27,13.27A3.241,3.241,0,0,1,72.924,57.6Z" transform="translate(0.001 -36.907)" stroke="#fff" stroke-width="0.1"/>
      <path id="Path_6871" data-name="Path 6871" d="M160.055,346.341a3.35,3.35,0,1,0-3.35,3.35A3.354,3.354,0,0,0,160.055,346.341Zm-4.48,0a1.13,1.13,0,1,1,1.13,1.13A1.131,1.131,0,0,1,155.575,346.341Z" transform="translate(-130.654 -296.081)" fill="#ff4612" stroke="#fff" stroke-width="0.1"/>
      <path id="Path_6872" data-name="Path 6872" d="M330.758,317.143a3.35,3.35,0,1,0,3.35,3.35A3.354,3.354,0,0,0,330.758,317.143Zm0,4.48a1.13,1.13,0,1,1,1.13-1.13A1.131,1.131,0,0,1,330.758,321.623Z" transform="translate(-278.942 -274.059)" fill="#ff4612" stroke="#fff" stroke-width="0.1"/>
    </g>
  </g>
</svg>
