<svg xmlns="http://www.w3.org/2000/svg" width="80" height="80.35" viewBox="0 0 80 80.35">
  <g id="icon-8" transform="translate(9728 3415)">
    <rect id="Rectangle_518" data-name="Rectangle 518" width="80" height="79.978" transform="translate(-9728 -3415)" fill="#fff"/>
    <g id="XMLID_1323_" transform="translate(-9721.617 -3402.655)">
      <g id="XMLID_760_" transform="translate(0 0)">
        <path id="XMLID_1388_" d="M85.5,68.5A33.87,33.87,0,0,0,51.72,100.528a10.344,10.344,0,0,0,0,3.6A33.827,33.827,0,1,0,85.5,68.5Zm16.64,59.051-.417-.723a1.8,1.8,0,1,0-3.116,1.8l.421.728A30.009,30.009,0,0,1,87.3,132.5v-.845a1.8,1.8,0,1,0-3.6,0v.845a30,30,0,0,1-11.728-3.146l.421-.728a1.8,1.8,0,1,0-3.116-1.8l-.417.723a30.474,30.474,0,0,1-8.583-8.583L61,118.55a1.8,1.8,0,1,0-1.8-3.116l-.728.42a30.009,30.009,0,0,1-3.146-11.728h.844a1.8,1.8,0,1,0,0-3.6h-.845A30,30,0,0,1,58.472,88.8l.728.42A1.8,1.8,0,1,0,61,86.1l-.723-.418A30.473,30.473,0,0,1,68.859,77.1l.417.723a1.8,1.8,0,0,0,3.116-1.8l-.421-.728A30.009,30.009,0,0,1,83.7,72.154V73a1.8,1.8,0,1,0,3.6,0v-.845A30,30,0,0,1,99.026,75.3l-.421.728a1.8,1.8,0,1,0,3.116,1.8l.417-.723a30.473,30.473,0,0,1,8.583,8.583L110,86.1a1.8,1.8,0,1,0,1.8,3.116l.728-.421a30.009,30.009,0,0,1,3.146,11.728h-.845a1.8,1.8,0,1,0,0,3.6h.845a30,30,0,0,1-3.146,11.728l-.728-.42a1.8,1.8,0,1,0-1.8,3.116l.723.418A30.471,30.471,0,0,1,102.14,127.551Z" transform="translate(-51.6 -68.5)" stroke="#fff" stroke-width="0.7"/>
        <path id="XMLID_1439_" d="M232.067,143.176a20.391,20.391,0,1,0,20.391,20.391A20.414,20.414,0,0,0,232.067,143.176Zm0,37.183a16.792,16.792,0,1,1,16.792-16.792A16.811,16.811,0,0,1,232.067,180.359Z" transform="translate(-198.167 -129.739)" stroke="#fff" stroke-width="0.7"/>
        <path id="XMLID_1442_" d="M294.9,219.8a6.6,6.6,0,1,0,6.6,6.6A6.611,6.611,0,0,0,294.9,219.8Zm0,9.608a3,3,0,1,1,3-3A3.008,3.008,0,0,1,294.9,229.408Z" transform="translate(-261.004 -192.576)" fill="#ff4612" stroke="#fff" stroke-width="0.7"/>
        <path id="XMLID_1443_" d="M250.071,247.027a1.8,1.8,0,1,0,.527,1.272A1.813,1.813,0,0,0,250.071,247.027Z" transform="translate(-227.135 -214.472)" fill="#ff4612" stroke="#fff" stroke-width="0.7"/>
        <path id="XMLID_1444_" d="M383,248.3a1.8,1.8,0,1,0,.527-1.272A1.812,1.812,0,0,0,383,248.3Z" transform="translate(-338.664 -214.472)" fill="#ff4612" stroke="#fff" stroke-width="0.7"/>
        <path id="XMLID_1445_" d="M316.8,182.1a1.8,1.8,0,1,0-1.272-.527A1.812,1.812,0,0,0,316.8,182.1Z" transform="translate(-282.9 -158.707)" fill="#ff4612" stroke="#fff" stroke-width="0.7"/>
        <path id="XMLID_1446_" d="M316.8,314.5a1.8,1.8,0,1,0,1.272.527A1.813,1.813,0,0,0,316.8,314.5Z" transform="translate(-282.9 -270.236)" fill="#ff4612" stroke="#fff" stroke-width="0.7"/>
        <path id="XMLID_1447_" d="M364.879,202.019a1.8,1.8,0,1,0-1.272-.527A1.813,1.813,0,0,0,364.879,202.019Z" transform="translate(-322.329 -175.043)" fill="#ff4612" stroke="#fff" stroke-width="0.7"/>
        <path id="XMLID_1455_" d="M268.719,294.58a1.8,1.8,0,1,0,1.272.527A1.809,1.809,0,0,0,268.719,294.58Z" transform="translate(-243.471 -253.901)" fill="#ff4612" stroke="#fff" stroke-width="0.7"/>
        <path id="XMLID_1456_" d="M364.879,294.58a1.8,1.8,0,1,0,1.272.527A1.812,1.812,0,0,0,364.879,294.58Z" transform="translate(-322.329 -253.901)" fill="#ff4612" stroke="#fff" stroke-width="0.7"/>
        <path id="XMLID_1457_" d="M268.719,198.42a1.8,1.8,0,1,0,1.272.527A1.8,1.8,0,0,0,268.719,198.42Z" transform="translate(-243.471 -175.043)" fill="#ff4612" stroke="#fff" stroke-width="0.7"/>
      </g>
    </g>
  </g>
</svg>
