<svg xmlns="http://www.w3.org/2000/svg" width="80" height="79.459" viewBox="0 0 80 79.459">
  <g id="icon-16" transform="translate(9899 3244)">
    <g id="Group_6304" data-name="Group 6304" transform="translate(-9899 -3244)">
      <path id="Path_7256" data-name="Path 7256" d="M0,0H80V79.459H0Z" fill="#fff"/>
      <g id="_13-car" data-name="13-car" transform="translate(1.6 27.627)">
        <g id="linear_color" data-name="linear color">
          <path id="Path_6744" data-name="Path 6744" d="M76.238,114.1,62.76,112.07,49.851,101.519A6.762,6.762,0,0,0,45.587,100H27.71a6.7,6.7,0,0,0-5.243,2.5l-7.75,9.622H9.493A5.481,5.481,0,0,0,4,117.581v6.063a6.7,6.7,0,0,0,6.714,6.669h3.268a7.946,7.946,0,0,0,15.439,0H57.929a7.946,7.946,0,0,0,15.439,0h2.047a5.481,5.481,0,0,0,5.493-5.456V119.5a5.437,5.437,0,0,0-4.669-5.395Zm-28.713-9.773,9.539,7.8H39.4v-8.488h6.185A3.075,3.075,0,0,1,47.525,104.328Zm-22.2.446a3.044,3.044,0,0,1,2.383-1.137h.7v8.488H19.407ZM21.7,132.737a4.244,4.244,0,1,1,4.273-4.244A4.258,4.258,0,0,1,21.7,132.737Zm43.947,0a4.244,4.244,0,1,1,4.273-4.244A4.258,4.258,0,0,1,65.648,132.737Zm11.6-7.881a1.827,1.827,0,0,1-1.831,1.819H73.368a7.946,7.946,0,0,0-15.439,0H29.42a7.946,7.946,0,0,0-15.439,0H10.714a3.045,3.045,0,0,1-3.052-3.031v-6.063a1.827,1.827,0,0,1,1.831-1.819H30.246a1.825,1.825,0,0,0,1.831-1.819V103.637H35.74v10.306a1.825,1.825,0,0,0,1.831,1.819H62.853L75.689,117.7a1.835,1.835,0,0,1,1.556,1.8Z" transform="translate(-4 -100)" stroke="#fff" stroke-width="1"/>
          <path id="Path_6745" data-name="Path 6745" d="M216.273,212h-2.441a1.819,1.819,0,1,0,0,3.638h2.441a1.819,1.819,0,1,0,0-3.638Z" transform="translate(-180.26 -195.025)" fill="#ff4612" stroke="#fff" stroke-width="1"/>
        </g>
      </g>
    </g>
  </g>
</svg>
