<svg xmlns="http://www.w3.org/2000/svg" width="77" height="77.747" viewBox="0 0 77 77.747">
  <g id="icon-14" transform="translate(9785 3415)">
    <rect id="Rectangle_513" data-name="Rectangle 513" width="77" height="77" transform="translate(-9785 -3415)" fill="#fff"/>
    <g id="Group_6278" data-name="Group 6278" transform="translate(-9783.462 -3377.225)">
      <path id="Path_6852" data-name="Path 6852" d="M797.457-499.779c-8.357,0-16.714-.021-25.072.008-4.821.016-8.435,2.556-9.515,7.046a9.325,9.325,0,0,0,.189,5.456,96.51,96.51,0,0,0,6.949,14.169c5.383,8.47,13.459,12.834,23.488,13.022,11.158.209,22.322.082,33.483.028a9.289,9.289,0,0,0,9.182-10.973q-1.75-10.561-3.7-21.088c-.836-4.547-4.691-7.61-9.6-7.655-6.157-.056-12.316-.018-18.474-.02h-6.927ZM817.264-462.8a11.222,11.222,0,0,1-1.237.147c-7.691,0-15.388.178-23.073-.058a24.279,24.279,0,0,1-20.287-11.123c-2.722-4.071-4.661-8.688-6.743-13.157-2.443-5.24.8-10.208,6.6-10.223,12.416-.034,24.832.012,37.248-.019,1.132,0,1.486.386,1.653,1.469.516,3.361,1.163,6.7,1.759,10.051C814.54-478.1,815.895-470.494,817.264-462.8Zm-3.455-34.41c3.126,0,5.862,0,8.6,0a11.419,11.419,0,0,1,1.477.074,6.749,6.749,0,0,1,5.923,5.19c.771,3.632,1.324,7.311,1.983,11.042H816.7C815.74-486.314,814.8-491.633,813.808-497.21Zm3.553,19.048c4.777,0,9.485-.02,14.193.046.317,0,.823.625.9,1.026.453,2.258.854,4.528,1.177,6.808a6.614,6.614,0,0,1-5.583,7.506,77.792,77.792,0,0,1-8.11.055c-.869-4.817-1.728-9.558-2.573-14.3A7.6,7.6,0,0,1,817.362-478.162Z" transform="translate(-762.557 499.796)" stroke="#fff" stroke-width="0.3"/>
      <path id="Path_6853" data-name="Path 6853" d="M829.6-481.513a11.751,11.751,0,0,0-11.59,11.917,11.96,11.96,0,0,0,12,11.582,11.79,11.79,0,0,0,11.528-12A11.632,11.632,0,0,0,829.6-481.513Zm.172,20.887a9.411,9.411,0,0,1-9.156-9.177,9.3,9.3,0,0,1,9.311-9.154,9.2,9.2,0,0,1,9.039,9.233A9.281,9.281,0,0,1,829.774-460.626Z" transform="translate(-793.527 489.775)" fill="#ff4612"/>
      <path id="Path_6854" data-name="Path 6854" d="M788.6-452.661a7.767,7.767,0,0,0-7.891,7.781,7.763,7.763,0,0,0,7.839,7.83,7.737,7.737,0,0,0,7.884-7.776A7.759,7.759,0,0,0,788.6-452.661Zm5.217,7.805a5.157,5.157,0,0,1-5.244,5.2,5.209,5.209,0,0,1-5.277-5.19,5.231,5.231,0,0,1,5.271-5.2A5.129,5.129,0,0,1,793.819-444.856Z" transform="translate(-772.697 456.076)"/>
    </g>
  </g>
</svg>
