<svg xmlns="http://www.w3.org/2000/svg" xmlns:xlink="http://www.w3.org/1999/xlink" width="139.318" height="45.573" viewBox="0 0 139.318 45.573">
  <defs>
    <clipPath id="clip-path">
      <rect width="139.318" height="45.573" fill="none"/>
    </clipPath>
    <clipPath id="clip-path-2">
      <path id="Path_5965" data-name="Path 5965" d="M154.748,340.854l-6.282-3.627-12.117-7c-.673-.388-1.343-.153-1.343.659v28.5c0,.609.479.871,1.064.534l12.4-7.158,6.282-3.627,6.038-3.486c.708-.409.64-.971.043-1.293S154.748,340.854,154.748,340.854Z" transform="translate(-135.006 -330.047)" fill="none"/>
    </clipPath>
    <linearGradient id="linear-gradient" x1="0.5" x2="0.5" y2="1" gradientUnits="objectBoundingBox">
      <stop offset="0" stop-color="#006aa2"/>
      <stop offset="0.345" stop-color="#2f8da6"/>
      <stop offset="0.786" stop-color="#66b6ac"/>
      <stop offset="1" stop-color="#7cc6af"/>
    </linearGradient>
    <linearGradient id="linear-gradient-2" y1="0.5" x2="1" y2="0.5" gradientUnits="objectBoundingBox">
      <stop offset="0" stop-color="#4ab59d"/>
      <stop offset="1" stop-color="#dfe385"/>
    </linearGradient>
    <linearGradient id="linear-gradient-3" x1="0.5" x2="0.5" y2="1" gradientUnits="objectBoundingBox">
      <stop offset="0" stop-color="#e4282d"/>
      <stop offset="0.316" stop-color="#ba2d4e"/>
      <stop offset="0.777" stop-color="#83357b"/>
      <stop offset="1" stop-color="#6e388d"/>
    </linearGradient>
    <linearGradient id="linear-gradient-4" x1="0.5" x2="0.5" y2="1" gradientUnits="objectBoundingBox">
      <stop offset="0" stop-color="#f07165"/>
      <stop offset="0.659" stop-color="#faa460"/>
      <stop offset="1" stop-color="#ffba5e"/>
    </linearGradient>
  </defs>
  <g id="Repeat_Grid_8" data-name="Repeat Grid 8" clip-path="url(#clip-path)">
    <g id="Group_4745" data-name="Group 4745">
      <path id="Path_5960" data-name="Path 5960" d="M235.959,335.487a6.159,6.159,0,0,1-6.157,6.159h-127a6.16,6.16,0,0,1-6.159-6.159V302.233a6.159,6.159,0,0,1,6.159-6.159h127a6.158,6.158,0,0,1,6.157,6.159Z" transform="translate(-96.641 -296.074)" fill="#1a1818"/>
      <g id="PLAY" transform="translate(10.45 9.254)">
        <g id="Group_4740" data-name="Group 4740" clip-path="url(#clip-path-2)">
          <path id="Path_5961" data-name="Path 5961" d="M135.006,328.285v30.862l15.562-15.431Z" transform="translate(-135.006 -328.765)" fill="url(#linear-gradient)"/>
          <path id="Path_5962" data-name="Path 5962" d="M154.748,339.272l-6.282-3.627-13.46-7.772v.112l15.562,15.431Z" transform="translate(-135.006 -328.465)" fill="url(#linear-gradient-2)"/>
          <path id="Path_5963" data-name="Path 5963" d="M135.006,400.368v.112l13.46-7.772,6.282-3.627-4.18-4.144Z" transform="translate(-135.006 -369.987)" fill="url(#linear-gradient-3)"/>
          <path id="Path_5964" data-name="Path 5964" d="M196.319,369.721l-4.18,4.145,4.18,4.144,7.179-4.144Z" transform="translate(-176.577 -358.914)" fill="url(#linear-gradient-4)"/>
        </g>
      </g>
      <g id="Group_4741" data-name="Group 4741" transform="translate(104.248 17.331)">
        <path id="Path_5966" data-name="Path 5966" d="M483.544,382.235a3.881,3.881,0,0,1-1.6-.323,3.018,3.018,0,0,1-1.216-.995h-.1a12.063,12.063,0,0,1,.1,1.49V386.1h-1.359v-13h1.105l.188,1.228h.065a3.16,3.16,0,0,1,1.221-1.064,3.708,3.708,0,0,1,1.6-.328,3.317,3.317,0,0,1,2.756,1.22,6.5,6.5,0,0,1-.016,6.859A3.325,3.325,0,0,1,483.544,382.235Zm-.2-8.148a2.409,2.409,0,0,0-1.99.762,3.922,3.922,0,0,0-.631,2.424v.3a4.49,4.49,0,0,0,.631,2.707,2.4,2.4,0,0,0,2.022.814,2.1,2.1,0,0,0,1.823-.941,4.468,4.468,0,0,0,.659-2.6,4.3,4.3,0,0,0-.659-2.575A2.17,2.17,0,0,0,483.347,374.087Z" transform="translate(-479.368 -369.329)" fill="#f9f9f9"/>
        <path id="Path_5967" data-name="Path 5967" d="M516.3,372.445h-1.359V359.7H516.3Z" transform="translate(-505.254 -359.703)" fill="#f9f9f9"/>
        <path id="Path_5968" data-name="Path 5968" d="M532.088,382.114l-.271-1.277h-.065a3.767,3.767,0,0,1-1.339,1.142,4.068,4.068,0,0,1-1.666.3,3,3,0,0,1-2.092-.688,2.508,2.508,0,0,1-.758-1.957q0-2.718,4.348-2.85l1.524-.049v-.557a2.273,2.273,0,0,0-.455-1.56,1.868,1.868,0,0,0-1.454-.5,5.919,5.919,0,0,0-2.539.688l-.418-1.04a6.388,6.388,0,0,1,1.454-.565,6.294,6.294,0,0,1,1.584-.2,3.419,3.419,0,0,1,2.379.712,2.976,2.976,0,0,1,.774,2.285v6.125Zm-3.071-.958a2.762,2.762,0,0,0,1.994-.7,2.577,2.577,0,0,0,.725-1.949V377.7l-1.36.057a4.946,4.946,0,0,0-2.338.5,1.519,1.519,0,0,0-.716,1.388,1.4,1.4,0,0,0,.446,1.122A1.85,1.85,0,0,0,529.017,381.157Z" transform="translate(-513.223 -369.372)" fill="#f9f9f9"/>
        <path id="Path_5969" data-name="Path 5969" d="M555.222,373.533h1.457l1.966,5.118a19.557,19.557,0,0,1,.8,2.531h.066q.106-.418.446-1.43t2.223-6.219h1.458l-3.857,10.22a5.1,5.1,0,0,1-1.339,2.15,2.848,2.848,0,0,1-1.879.634,5.5,5.5,0,0,1-1.229-.139v-1.089a4.748,4.748,0,0,0,1.008.1,2.076,2.076,0,0,0,2-1.573l.5-1.277Z" transform="translate(-534.561 -369.766)" fill="#f9f9f9"/>
      </g>
      <g id="Group_4743" data-name="Group 4743" transform="translate(42.278 16.328)">
        <path id="Path_5970" data-name="Path 5970" d="M383.545,374.789a3.058,3.058,0,0,1-.245,5.2,1.321,1.321,0,0,0-.526.921,1.029,1.029,0,0,0,.489.807l.676.525a3.269,3.269,0,0,1,1.576,2.629c0,1.765-1.708,3.548-4.937,3.548-2.722,0-4.036-1.295-4.036-2.685a2.7,2.7,0,0,1,1.446-2.29,8.093,8.093,0,0,1,3.585-.864,1.964,1.964,0,0,1-.564-1.275,1.694,1.694,0,0,1,.188-.733c-.207.019-.413.038-.6.038a2.968,2.968,0,0,1-3.116-2.947,3.377,3.377,0,0,1,1.2-2.516,5.12,5.12,0,0,1,3.361-1.033h3.866l-1.2.676Zm-1.333,8.335a2.909,2.909,0,0,0-.431-.02,7.516,7.516,0,0,0-1.972.3,2.109,2.109,0,0,0-1.615,1.933c0,1.332,1.3,2.291,3.3,2.291,1.8,0,2.76-.865,2.76-2.028C384.259,384.643,383.639,384.138,382.212,383.124Zm.545-3.567a1.9,1.9,0,0,0,.468-1.371c0-1.351-.807-3.454-2.364-3.454a1.753,1.753,0,0,0-1.315.62,2.169,2.169,0,0,0-.413,1.389c0,1.258.732,3.341,2.347,3.341A1.922,1.922,0,0,0,382.757,379.557Z" transform="translate(-342.581 -369.185)" fill="#f9f9f9"/>
        <path id="Path_5971" data-name="Path 5971" d="M346.646,382.112a4.423,4.423,0,0,1-4.573-4.424,4.644,4.644,0,0,1,4.855-4.553,4.382,4.382,0,0,1,4.479,4.423A4.58,4.58,0,0,1,346.646,382.112Zm2.342-1.518a3.391,3.391,0,0,0,.563-2.081c0-1.65-.787-4.8-3.111-4.8a2.611,2.611,0,0,0-1.686.638,2.836,2.836,0,0,0-.863,2.287c0,1.854.918,4.908,3.187,4.908A2.394,2.394,0,0,0,348.988,380.594Z" transform="translate(-317.5 -368.473)" fill="#f9f9f9"/>
        <path id="Path_5972" data-name="Path 5972" d="M309.349,382.112a4.423,4.423,0,0,1-4.573-4.424,4.644,4.644,0,0,1,4.855-4.553,4.381,4.381,0,0,1,4.479,4.423A4.58,4.58,0,0,1,309.349,382.112Zm2.343-1.518a3.4,3.4,0,0,0,.563-2.081c0-1.65-.787-4.8-3.112-4.8a2.611,2.611,0,0,0-1.687.638,2.836,2.836,0,0,0-.862,2.287c0,1.854.918,4.908,3.187,4.908A2.4,2.4,0,0,0,311.692,380.594Z" transform="translate(-290.362 -368.473)" fill="#f9f9f9"/>
        <path id="Path_5973" data-name="Path 5973" d="M264.839,370.486l-2.695.622a19.964,19.964,0,0,1-3.109.32c-5.2,0-7.179-3.825-7.179-6.822,0-3.655,2.807-7.046,7.613-7.046a10.844,10.844,0,0,1,2.882.4,7.348,7.348,0,0,1,2.487,1.168l-1.564,1.489-.659.15.471-.754a5.386,5.386,0,0,0-4.032-1.77,5.2,5.2,0,0,0-5.22,5.559,6.664,6.664,0,0,0,6.67,6.877,5.612,5.612,0,0,0,2.393-.471V367.17l-2.845.151,1.507-.811h4l-.489.471a.44.44,0,0,0-.189.3c-.02.17-.037.717-.037.905Z" transform="translate(-251.856 -357.14)" fill="#f9f9f9"/>
        <path id="Path_5974" data-name="Path 5974" d="M413.423,368.822c-.622-.057-.752-.169-.752-.9V357.252c0-.041.007-.082.01-.121.076-.659.264-.772.849-1.112h-2.7l-1.414.679h1.441v11.635c0,.376-.074.433-.508,1h3.336l.7-.414C414.065,368.878,413.744,368.86,413.423,368.822Z" transform="translate(-366.503 -356.019)" fill="#f9f9f9"/>
        <path id="Path_5975" data-name="Path 5975" d="M434.02,381.464c-.205.112-.411.244-.616.337a4.359,4.359,0,0,1-1.817.356,4,4,0,0,1-2.489-.73,4.843,4.843,0,0,1-1.908-3.949,4.241,4.241,0,0,1,4.285-4.322,3.637,3.637,0,0,1,1.928.524,3.1,3.1,0,0,1,1.308,1.852l-4.4,1.778-1.441.112c.467,2.376,2.076,3.76,3.855,3.76a4.836,4.836,0,0,0,2.283-.654Zm-1.758-5.577c.355-.131.542-.243.542-.505a1.857,1.857,0,0,0-1.853-1.609,2.3,2.3,0,0,0-2.152,2.6c0,.318.037.655.057.993Z" transform="translate(-379.432 -368.488)" fill="#f9f9f9"/>
        <g id="Group_4742" data-name="Group 4742" transform="translate(55.835 4.668)">
          <path id="Path_5976" data-name="Path 5976" d="M457.4,373.284v1.235h-.15v-1.235h-.409v-.128h.967v.128Z" transform="translate(-456.846 -373.156)" fill="#f9f9f9"/>
          <path id="Path_5977" data-name="Path 5977" d="M462.327,374.519v-1.246h-.007l-.38,1.246h-.117l-.384-1.246h0v1.246H461.3v-1.363h.233l.347,1.1h0l.342-1.1h.237v1.363Z" transform="translate(-460.085 -373.156)" fill="#f9f9f9"/>
        </g>
      </g>
      <g id="Group_4744" data-name="Group 4744" transform="translate(42.31 9.181)">
        <path id="Path_5978" data-name="Path 5978" d="M255.684,333.913h-.936a6.213,6.213,0,0,0-.266-1.094H253.13a5.654,5.654,0,0,0-.275,1.094h-.881q0-.114.683-1.873a14.725,14.725,0,0,0,.683-1.937h1.106a16.17,16.17,0,0,0,.619,1.909A16.712,16.712,0,0,1,255.684,333.913Zm-1.352-1.653a16.545,16.545,0,0,1-.5-1.633h-.047a17.129,17.129,0,0,1-.518,1.633Z" transform="translate(-251.974 -330.015)" fill="#f7f8f8"/>
        <path id="Path_5979" data-name="Path 5979" d="M271.06,333.913h-.723a7.125,7.125,0,0,0-.8-1.267,6.978,6.978,0,0,1-.96-1.653h-.047a10.321,10.321,0,0,1,.073,1.159q0,.723.041,1.762h-.72q.044-.907.044-1.993,0-1.068-.044-1.817h.869a5.506,5.506,0,0,0,.723,1.237,7.288,7.288,0,0,1,.884,1.56h.044a11.117,11.117,0,0,1-.07-1.17q0-.793-.041-1.627h.732q-.041.726-.041,1.817T271.06,333.913Z" transform="translate(-263.577 -330.015)" fill="#f7f8f8"/>
        <path id="Path_5980" data-name="Path 5980" d="M286.419,331.829a2.158,2.158,0,0,1-.533,1.451,1.86,1.86,0,0,1-1.492.62q-.433,0-1.194-.035.038-.884.038-1.993,0-1.065-.038-1.817h.512q.126,0,.375-.009c.166-.006.274-.009.325-.009a1.972,1.972,0,0,1,1.532.527A1.821,1.821,0,0,1,286.419,331.829Zm-.8.126a1.41,1.41,0,0,0-.328-.947,1.242,1.242,0,0,0-1-.385,3.1,3.1,0,0,0-.345.026q.029.585.029,1.223,0,.7.029,1.387a1.942,1.942,0,0,0,.381.038,1.105,1.105,0,0,0,.932-.391A1.507,1.507,0,0,0,285.62,331.955Z" transform="translate(-274.695 -329.968)" fill="#f7f8f8"/>
        <path id="Path_5981" data-name="Path 5981" d="M301.135,333.865h-.866a5.746,5.746,0,0,0-.521-1.279.682.682,0,0,0-.585-.243q-.17,0-.325,0,0,.752.026,1.518h-.813q.038-.884.038-1.993,0-1.065-.038-1.817h.506q.088,0,.367-.009t.516-.009q1.343,0,1.343.919a1.031,1.031,0,0,1-.767,1.015v.044a.914.914,0,0,1,.518.461A10.2,10.2,0,0,1,301.135,333.865Zm-1.1-2.692q0-.582-.749-.582a2.549,2.549,0,0,0-.486.041q.032.454.032,1.182.161.006.272.006Q300.038,331.82,300.038,331.173Z" transform="translate(-285.5 -329.968)" fill="#f7f8f8"/>
        <path id="Path_5982" data-name="Path 5982" d="M314.822,331.7a2.1,2.1,0,0,1-.55,1.489,1.785,1.785,0,0,1-1.361.591,1.719,1.719,0,0,1-1.293-.543,1.91,1.91,0,0,1-.521-1.379,2.1,2.1,0,0,1,.55-1.489,1.785,1.785,0,0,1,1.361-.591,1.721,1.721,0,0,1,1.293.542A1.909,1.909,0,0,1,314.822,331.7Zm-.807.085a1.51,1.51,0,0,0-.313-.992.964.964,0,0,0-.772-.38.892.892,0,0,0-.726.383,1.53,1.53,0,0,0-.3.968,1.506,1.506,0,0,0,.315.99.964.964,0,0,0,.771.382.891.891,0,0,0,.726-.385A1.531,1.531,0,0,0,314.014,331.787Z" transform="translate(-294.993 -329.78)" fill="#f7f8f8"/>
        <path id="Path_5983" data-name="Path 5983" d="M328.633,333.913h-.828q.038-.907.038-1.993,0-1.068-.038-1.817h.828q-.038.737-.038,1.817Q328.6,333.023,328.633,333.913Z" transform="translate(-307.15 -330.015)" fill="#f7f8f8"/>
        <path id="Path_5984" data-name="Path 5984" d="M337.817,331.829a2.157,2.157,0,0,1-.533,1.451,1.859,1.859,0,0,1-1.492.62q-.433,0-1.194-.035.038-.884.038-1.993,0-1.065-.038-1.817h.512q.126,0,.375-.009c.166-.006.274-.009.325-.009a1.972,1.972,0,0,1,1.532.527A1.822,1.822,0,0,1,337.817,331.829Zm-.8.126a1.411,1.411,0,0,0-.328-.947,1.243,1.243,0,0,0-1-.385,3.1,3.1,0,0,0-.345.026q.029.585.029,1.223,0,.7.029,1.387a1.942,1.942,0,0,0,.381.038,1.106,1.106,0,0,0,.932-.391A1.507,1.507,0,0,0,337.019,331.955Z" transform="translate(-312.093 -329.968)" fill="#f7f8f8"/>
        <path id="Path_5985" data-name="Path 5985" d="M357.16,333.913h-.936a6.168,6.168,0,0,0-.267-1.094h-1.352a5.647,5.647,0,0,0-.275,1.094h-.881q0-.114.683-1.873a14.7,14.7,0,0,0,.683-1.937h1.106a16.149,16.149,0,0,0,.619,1.909A16.791,16.791,0,0,1,357.16,333.913Zm-1.352-1.653a16.6,16.6,0,0,1-.5-1.633h-.047a17.127,17.127,0,0,1-.518,1.633Z" transform="translate(-325.81 -330.015)" fill="#f7f8f8"/>
        <path id="Path_5986" data-name="Path 5986" d="M372.176,331.053a1.141,1.141,0,0,1-.52,1.033,2.309,2.309,0,0,1-1.274.333q-.138,0-.2-.006,0,.55.032,1.451H369.4q.038-.845.038-1.993,0-1.053-.038-1.817h.509q.108,0,.415-.009t.532-.009a1.674,1.674,0,0,1,.939.252A.851.851,0,0,1,372.176,331.053Zm-.755.161q0-.626-.831-.626a2.339,2.339,0,0,0-.439.044q.032.553.032,1.252c.049,0,.105.006.17.006Q371.421,331.89,371.421,331.214Z" transform="translate(-337.412 -329.968)" fill="#f7f8f8"/>
        <path id="Path_5987" data-name="Path 5987" d="M385.06,331.053a1.141,1.141,0,0,1-.519,1.033,2.311,2.311,0,0,1-1.274.333c-.092,0-.157,0-.2-.006q0,.55.032,1.451h-.822q.038-.845.038-1.993,0-1.053-.038-1.817h.509q.108,0,.416-.009t.532-.009a1.675,1.675,0,0,1,.939.252A.851.851,0,0,1,385.06,331.053Zm-.755.161q0-.626-.831-.626a2.338,2.338,0,0,0-.439.044q.032.553.032,1.252c.049,0,.105.006.17.006Q384.3,331.89,384.3,331.214Z" transform="translate(-346.787 -329.968)" fill="#f7f8f8"/>
        <path id="Path_5988" data-name="Path 5988" d="M403.6,331.7a2.1,2.1,0,0,1-.55,1.489,1.784,1.784,0,0,1-1.361.591,1.719,1.719,0,0,1-1.293-.543,1.912,1.912,0,0,1-.521-1.379,2.1,2.1,0,0,1,.55-1.489,1.786,1.786,0,0,1,1.361-.591,1.721,1.721,0,0,1,1.293.542A1.911,1.911,0,0,1,403.6,331.7Zm-.808.085a1.509,1.509,0,0,0-.313-.992.963.963,0,0,0-.772-.38.893.893,0,0,0-.726.383,1.529,1.529,0,0,0-.3.968,1.507,1.507,0,0,0,.315.99.963.963,0,0,0,.771.382.89.89,0,0,0,.726-.385A1.529,1.529,0,0,0,402.792,331.787Z" transform="translate(-359.59 -329.78)" fill="#f7f8f8"/>
        <path id="Path_5989" data-name="Path 5989" d="M419.723,333.913H419a7.124,7.124,0,0,0-.8-1.267,6.983,6.983,0,0,1-.96-1.653h-.047a10.374,10.374,0,0,1,.073,1.159q0,.723.041,1.762h-.72q.044-.907.044-1.993,0-1.068-.044-1.817h.869a5.515,5.515,0,0,0,.723,1.237,7.283,7.283,0,0,1,.884,1.56h.044a11.049,11.049,0,0,1-.07-1.17q0-.793-.041-1.627h.731q-.041.726-.041,1.817T419.723,333.913Z" transform="translate(-371.747 -330.015)" fill="#f7f8f8"/>
      </g>
    </g>
  </g>
</svg>
