<svg id="Group_4739" data-name="Group 4739" xmlns="http://www.w3.org/2000/svg" width="139.318" height="45.573" viewBox="0 0 139.318 45.573">
  <path id="Path_5936" data-name="Path 5936" d="M235.959,975.239A6.158,6.158,0,0,1,229.8,981.4h-127a6.159,6.159,0,0,1-6.159-6.159V941.984a6.159,6.159,0,0,1,6.159-6.159h127a6.158,6.158,0,0,1,6.157,6.159Z" transform="translate(-96.641 -935.825)"/>
  <g id="Group_4735" data-name="Group 4735" transform="translate(9.345 7.085)">
    <path id="Path_5937" data-name="Path 5937" d="M158.622,1005.572a22.567,22.567,0,0,1-2.04,3.809c-1.325,2.017-3.193,4.529-5.506,4.551-2.057.019-2.584-1.338-5.375-1.323s-3.373,1.347-5.43,1.328c-2.314-.021-4.083-2.289-5.408-4.307-3.705-5.64-4.092-12.259-1.807-15.778a8.2,8.2,0,0,1,6.594-3.965c2.452,0,3.994,1.345,6.022,1.345,1.967,0,3.166-1.347,6-1.347a8,8,0,0,1,6.032,3.185A6.9,6.9,0,0,0,158.622,1005.572Z" transform="translate(-131.637 -982.533)" fill="#fff"/>
    <g id="Group_4734" data-name="Group 4734" transform="translate(12.97)">
      <path id="Path_5938" data-name="Path 5938" d="M185.122,967.453a6.884,6.884,0,0,0,1.529-5.1,7.438,7.438,0,0,0-4.8,2.582,6.39,6.39,0,0,0-1.569,4.973A6.277,6.277,0,0,0,185.122,967.453Z" transform="translate(-180.207 -962.355)" fill="#fff"/>
    </g>
  </g>
  <g id="Group_4738" data-name="Group 4738" transform="translate(42.31 7.152)">
    <g id="Group_4736" data-name="Group 4736" transform="translate(0 10.917)">
      <path id="Path_5939" data-name="Path 5939" d="M260.389,1004.42l-5.307,15.623h2.431l1.584-4.8h5.139l1.63,4.8h2.5l-5.33-15.623Zm1.259,2.569c.179.7.373,1.421.621,2.2l1.43,4.142h-4.071l1.411-4.17C261.255,1008.49,261.459,1007.76,261.649,1006.989Z" transform="translate(-255.082 -1004.171)" fill="#fff"/>
      <path id="Path_5940" data-name="Path 5940" d="M314.028,1019.586a4.423,4.423,0,0,0-3.758,1.8l-.094-1.554h-2.162l.013.2c.064.968.09,2.034.09,3.563v12.042h2.364v-5.62a4.15,4.15,0,0,0,3.231,1.388,4.873,4.873,0,0,0,3.582-1.523,6.458,6.458,0,0,0,1.581-4.546,6.288,6.288,0,0,0-1.373-4.151A4.5,4.5,0,0,0,314.028,1019.586Zm-.589,1.957c2.107,0,3.05,1.952,3.05,3.886,0,2.494-1.2,4.044-3.14,4.044a2.866,2.866,0,0,1-2.785-2.194,3.019,3.019,0,0,1-.084-.765v-1.9a3.557,3.557,0,0,1,.075-.583c.012-.065.025-.129.034-.192A2.993,2.993,0,0,1,313.439,1021.543Z" transform="translate(-293.879 -1015.287)" fill="#fff"/>
      <path id="Path_5941" data-name="Path 5941" d="M359.609,1019.586a4.425,4.425,0,0,0-3.758,1.8l-.094-1.554H353.6l.012.2c.064.969.091,2.034.091,3.563v12.042h2.364v-5.62a4.149,4.149,0,0,0,3.23,1.388,4.88,4.88,0,0,0,3.583-1.523,6.466,6.466,0,0,0,1.581-4.546,6.288,6.288,0,0,0-1.374-4.151A4.5,4.5,0,0,0,359.609,1019.586Zm-.588,1.957c2.106,0,3.049,1.952,3.049,3.886,0,2.494-1.2,4.044-3.14,4.044a2.866,2.866,0,0,1-2.785-2.194,3.019,3.019,0,0,1-.083-.765v-1.9a3.5,3.5,0,0,1,.075-.585c.012-.064.023-.128.034-.19A2.991,2.991,0,0,1,359.021,1021.543Z" transform="translate(-327.289 -1015.287)" fill="#fff"/>
      <path id="Path_5942" data-name="Path 5942" d="M417.772,1010.357c-2.206-.854-2.913-1.526-2.913-2.767,0-1.045.831-2.1,2.687-2.1a5.371,5.371,0,0,1,2.775.7l.2.124.667-1.973-.132-.077a6.853,6.853,0,0,0-3.442-.772c-3.014,0-5.12,1.779-5.12,4.327,0,2.054,1.318,3.49,4.149,4.519,2.006.75,2.753,1.518,2.753,2.835,0,1.49-1.152,2.415-3,2.415a6.468,6.468,0,0,1-3.407-.966l-.205-.131-.635,2.018.117.077a8.1,8.1,0,0,0,3.995,1.027c4.063,0,5.5-2.477,5.5-4.6C421.759,1012.823,420.6,1011.474,417.772,1010.357Z" transform="translate(-370.203 -1003.488)" fill="#fff"/>
      <path id="Path_5943" data-name="Path 5943" d="M453.061,1010.439l-2.319.728v1.964h-1.7v1.889h1.7v5.787a4.423,4.423,0,0,0,.819,3,3.031,3.031,0,0,0,2.287.9,5.57,5.57,0,0,0,1.827-.282l.132-.047-.113-1.893-.227.07a3.563,3.563,0,0,1-1.1.127c-.916,0-1.307-.58-1.307-1.94v-5.719h2.851v-1.889h-2.851Z" transform="translate(-397.249 -1008.583)" fill="#fff"/>
      <path id="Path_5944" data-name="Path 5944" d="M481.279,1019.586c-3.307,0-5.617,2.469-5.617,6,0,3.427,2.235,5.82,5.436,5.82h.022c2.706,0,5.617-1.885,5.617-6.024a5.972,5.972,0,0,0-1.506-4.181A5.26,5.26,0,0,0,481.279,1019.586Zm-.068,1.866c2.126,0,3.095,2.073,3.095,4,0,2.37-1.321,4.089-3.139,4.089h-.023c-1.792,0-3.094-1.691-3.094-4.021C478.049,1023.5,479.027,1021.452,481.21,1021.452Z" transform="translate(-416.758 -1015.287)" fill="#fff"/>
      <path id="Path_5945" data-name="Path 5945" d="M528.095,1019.7l-.142-.036a2.271,2.271,0,0,0-.588-.074,3.372,3.372,0,0,0-2.964,1.9l-.069-1.654h-2.121l.014.2c.063.936.089,1.986.089,3.4l-.022,7.722h2.364v-6.024a6.1,6.1,0,0,1,.065-.916,2.613,2.613,0,0,1,2.487-2.382,6.046,6.046,0,0,1,.634.039l.253.026Z" transform="translate(-450.876 -1015.287)" fill="#fff"/>
      <path id="Path_5946" data-name="Path 5946" d="M549.475,1019.5c-3.147,0-5.344,2.514-5.344,6.114,0,3.467,2.186,5.707,5.571,5.707a9.064,9.064,0,0,0,3.742-.718l.142-.064-.454-1.761-.2.079a7.326,7.326,0,0,1-2.961.529,3.286,3.286,0,0,1-3.54-3.427l7.63.023.031-.151a5.252,5.252,0,0,0,.071-.987C554.164,1022.382,552.936,1019.5,549.475,1019.5Zm-.157,1.8a2.332,2.332,0,0,1,1.735.662,3.364,3.364,0,0,1,.814,2.2h-5.391C546.7,1022.8,547.55,1021.3,549.318,1021.3Z" transform="translate(-466.943 -1015.226)" fill="#fff"/>
    </g>
    <g id="Group_4737" data-name="Group 4737">
      <path id="Path_5947" data-name="Path 5947" d="M255.082,964.034a17.228,17.228,0,0,1,2.267-.153,5.059,5.059,0,0,1,3.328.911,3.236,3.236,0,0,1,1.17,2.666,3.743,3.743,0,0,1-1.182,2.874,5.485,5.485,0,0,1-3.645,1.064,16.362,16.362,0,0,1-1.938-.088Zm1.073,6.549a7.605,7.605,0,0,0,1.073.044c2.267.01,3.5-1.141,3.5-3.137.012-1.767-1.085-2.853-3.328-2.853a6.737,6.737,0,0,0-1.243.1Z" transform="translate(-255.082 -963.541)" fill="#fff"/>
      <path id="Path_5948" data-name="Path 5948" d="M286.892,976.991a2.665,2.665,0,0,1-2.828-2.731,2.739,2.739,0,0,1,2.925-2.82,2.644,2.644,0,0,1,2.84,2.721,2.749,2.749,0,0,1-2.925,2.83Zm.037-.724a1.889,1.889,0,0,0,1.792-2.074,1.8,1.8,0,1,0-1.8,2.074Z" transform="translate(-276.325 -969.081)" fill="#fff"/>
      <path id="Path_5949" data-name="Path 5949" d="M309,971.891l.792,2.688c.158.592.317,1.152.426,1.7h.037c.134-.538.329-1.108.524-1.689l.963-2.7h.9l.914,2.655c.219.626.39,1.2.524,1.734h.037a14.707,14.707,0,0,1,.451-1.722l.841-2.666h1.061l-1.9,5.31h-.975l-.9-2.534a17.334,17.334,0,0,1-.525-1.755h-.024a14.561,14.561,0,0,1-.537,1.766l-.95,2.523h-.975l-1.78-5.31Z" transform="translate(-293.795 -969.412)" fill="#fff"/>
      <path id="Path_5950" data-name="Path 5950" d="M343.877,973c0-.559-.012-1-.049-1.437h.951l.061.867h.025a2.234,2.234,0,0,1,1.95-.988,2.019,2.019,0,0,1,2.084,2.26v3.17h-1.072v-3.06c0-.856-.354-1.58-1.366-1.58a1.53,1.53,0,0,0-1.438.987,1.3,1.3,0,0,0-.073.45v3.2h-1.072Z" transform="translate(-320.129 -969.081)" fill="#fff"/>
      <path id="Path_5951" data-name="Path 5951" d="M369.346,962.607h1.073V970.4h-1.073Z" transform="translate(-338.833 -962.607)" fill="#fff"/>
      <path id="Path_5952" data-name="Path 5952" d="M381.26,976.991a2.665,2.665,0,0,1-2.828-2.731,2.739,2.739,0,0,1,2.925-2.82,2.644,2.644,0,0,1,2.84,2.721,2.749,2.749,0,0,1-2.925,2.83Zm.036-.724a1.889,1.889,0,0,0,1.792-2.074,1.8,1.8,0,1,0-1.8,2.074Z" transform="translate(-345.492 -969.081)" fill="#fff"/>
      <path id="Path_5953" data-name="Path 5953" d="M407.977,975.6a8.008,8.008,0,0,0,.086,1.272H407.1l-.1-.669h-.036a2.268,2.268,0,0,1-1.8.789,1.608,1.608,0,0,1-1.8-1.525c0-1.283,1.267-1.986,3.547-1.975v-.11c0-.439-.134-1.24-1.341-1.229a3.081,3.081,0,0,0-1.548.395l-.244-.647a4.154,4.154,0,0,1,1.951-.461,1.974,1.974,0,0,1,2.255,2.172Zm-1.048-1.437c-1.17-.022-2.5.164-2.5,1.2a.9.9,0,0,0,1,.922,1.487,1.487,0,0,0,1.45-.889.887.887,0,0,0,.049-.307Z" transform="translate(-363.761 -969.081)" fill="#fff"/>
      <path id="Path_5954" data-name="Path 5954" d="M431.018,962.607v6.418c0,.472.013,1.009.049,1.371H430.1l-.049-.921h-.024a2.208,2.208,0,0,1-2,1.042,2.532,2.532,0,0,1-2.536-2.7,2.647,2.647,0,0,1,2.645-2.852,2.029,2.029,0,0,1,1.78.8h.024v-3.16Zm-1.072,4.64a1.612,1.612,0,0,0-.049-.417,1.551,1.551,0,0,0-1.548-1.108,1.817,1.817,0,0,0-1.768,2.041,1.761,1.761,0,0,0,1.743,1.974,1.6,1.6,0,0,0,1.572-1.152,1.508,1.508,0,0,0,.049-.417Z" transform="translate(-379.988 -962.607)" fill="#fff"/>
      <path id="Path_5955" data-name="Path 5955" d="M463.748,976.991a2.665,2.665,0,0,1-2.828-2.731,2.739,2.739,0,0,1,2.925-2.82,2.644,2.644,0,0,1,2.841,2.721,2.749,2.749,0,0,1-2.925,2.83Zm.037-.724a1.889,1.889,0,0,0,1.792-2.074,1.8,1.8,0,1,0-1.8,2.074Z" transform="translate(-405.953 -969.081)" fill="#fff"/>
      <path id="Path_5956" data-name="Path 5956" d="M487.447,973c0-.559-.013-1-.049-1.437h.951l.061.867h.024a2.234,2.234,0,0,1,1.95-.988,2.02,2.02,0,0,1,2.085,2.26v3.17H491.4v-3.06c0-.856-.353-1.58-1.365-1.58a1.532,1.532,0,0,0-1.439.987,1.3,1.3,0,0,0-.073.45v3.2h-1.072Z" transform="translate(-425.36 -969.081)" fill="#fff"/>
      <path id="Path_5957" data-name="Path 5957" d="M522.047,967.127V968.4h1.535v.735h-1.535V972c0,.658.207,1.031.8,1.031a2.206,2.206,0,0,0,.622-.066l.049.735a3.224,3.224,0,0,1-.951.132,1.624,1.624,0,0,1-1.158-.406A1.927,1.927,0,0,1,521,972.03v-2.9h-.914V968.4H521v-.976Z" transform="translate(-449.317 -965.92)" fill="#fff"/>
      <path id="Path_5958" data-name="Path 5958" d="M537.7,962.607h1.072v3.313h.025a1.821,1.821,0,0,1,.768-.68,2.264,2.264,0,0,1,1.1-.274,2.018,2.018,0,0,1,2.06,2.271V970.4h-1.072v-3.05c0-.867-.354-1.58-1.365-1.58a1.541,1.541,0,0,0-1.438.965,1.061,1.061,0,0,0-.074.461v3.2H537.7Z" transform="translate(-462.233 -962.607)" fill="#fff"/>
      <path id="Path_5959" data-name="Path 5959" d="M562.479,974.349a1.8,1.8,0,0,0,2.012,1.843,4.474,4.474,0,0,0,1.634-.264l.195.68a5.28,5.28,0,0,1-1.975.34,2.617,2.617,0,0,1-2.9-2.676,2.7,2.7,0,0,1,2.779-2.874,2.324,2.324,0,0,1,2.426,2.5,2.227,2.227,0,0,1-.036.46Zm3.134-.691a1.425,1.425,0,0,0-1.476-1.569,1.67,1.67,0,0,0-1.645,1.569Z" transform="translate(-479.632 -969.05)" fill="#fff"/>
    </g>
  </g>
</svg>
