<svg xmlns="http://www.w3.org/2000/svg" width="40" height="40" viewBox="0 0 40 40">
  <g id="correct" transform="translate(17807 -9887.999)">
    <g id="Group_7296" data-name="Group 7296" transform="translate(-16233.196 11232.317)">
      <path id="Path_7394" data-name="Path 7394" d="M-1558.222-1311.477c-.07-.089-.115-.153-.168-.212q-3.824-4.3-7.653-8.6c-.156-.175-.136-.24.046-.369q1.924-1.362,3.831-2.749c.161-.117.226-.113.336.063,1.033,1.657,2.08,3.306,3.114,4.964.128.206.175.214.318.008a41.355,41.355,0,0,1,10.735-10.772,25.946,25.946,0,0,1,6.187-3.114c.287-.1.26-.092.3.2.051.41-.108.6-.481.8a28.188,28.188,0,0,0-6.708,4.946,42.673,42.673,0,0,0-9.174,13.292C-1557.768-1312.53-1557.982-1312.026-1558.222-1311.477Z" fill="#7bc144"/>
    </g>
    <circle id="Ellipse_726" data-name="Ellipse 726" cx="20" cy="20" r="20" transform="translate(-17807 9887.999)" fill="none"/>
    <path id="Path_7753" data-name="Path 7753" d="M20,0A20,20,0,1,1,0,20C0,14.82,5.4,6.327,5.4,6.327S14.135,0,20,0Z" transform="translate(-17807 9887.999)" fill="none"/>
  </g>
</svg>
