<svg xmlns="http://www.w3.org/2000/svg" width="19.36" height="19.36" viewBox="0 0 19.36 19.36">
  <g id="Icon_feather-instagram" data-name="Icon feather-instagram" transform="translate(0.5 0.5)">
    <path id="Path_7701" data-name="Path 7701" d="M7.59,3h9.18a4.59,4.59,0,0,1,4.59,4.59v9.18a4.59,4.59,0,0,1-4.59,4.59H7.59A4.59,4.59,0,0,1,3,16.77V7.59A4.59,4.59,0,0,1,7.59,3Z" transform="translate(-3 -3)" fill="none" stroke="#c7c7c7" stroke-linecap="round" stroke-linejoin="round" stroke-width="1"/>
    <path id="Path_7702" data-name="Path 7702" d="M19.369,15.068a3.672,3.672,0,1,1-3.094-3.094A3.672,3.672,0,0,1,19.369,15.068Z" transform="translate(-6.517 -6.467)" fill="none" stroke="#c7c7c7" stroke-linecap="round" stroke-linejoin="round" stroke-width="1"/>
    <path id="Path_7703" data-name="Path 7703" d="M26.25,9.75h0" transform="translate(-12.021 -5.619)" fill="none" stroke="#c7c7c7" stroke-linecap="round" stroke-linejoin="round" stroke-width="1"/>
  </g>
</svg>
