<svg id="_002-instagram" data-name="002-instagram" xmlns="http://www.w3.org/2000/svg" width="34.555" height="34.555" viewBox="0 0 34.555 34.555">
  <path id="Path_2956" data-name="Path 2956" d="M213.614,210.307A3.307,3.307,0,1,1,210.307,207,3.307,3.307,0,0,1,213.614,210.307Zm0,0" transform="translate(-193.029 -193.029)"/>
  <path id="Path_2957" data-name="Path 2957" d="M151.352,137.771a3.285,3.285,0,0,0-1.883-1.883,5.489,5.489,0,0,0-1.842-.341c-1.046-.048-1.36-.058-4.009-.058s-2.963.01-4.009.058a5.493,5.493,0,0,0-1.842.342,3.287,3.287,0,0,0-1.883,1.883,5.49,5.49,0,0,0-.341,1.842c-.048,1.046-.058,1.36-.058,4.009s.01,2.963.058,4.009a5.488,5.488,0,0,0,.341,1.842,3.285,3.285,0,0,0,1.883,1.883,5.482,5.482,0,0,0,1.842.342c1.046.048,1.36.058,4.009.058s2.963-.01,4.009-.058a5.482,5.482,0,0,0,1.842-.342,3.285,3.285,0,0,0,1.883-1.883,5.494,5.494,0,0,0,.342-1.842c.048-1.046.058-1.36.058-4.009s-.01-2.963-.058-4.009A5.483,5.483,0,0,0,151.352,137.771Zm-7.734,10.946a5.094,5.094,0,1,1,5.094-5.094A5.094,5.094,0,0,1,143.618,148.717Zm5.3-9.2a1.191,1.191,0,1,1,1.191-1.191A1.191,1.191,0,0,1,148.914,139.517Zm0,0" transform="translate(-126.341 -126.344)"/>
  <path id="Path_2958" data-name="Path 2958" d="M17.278,0A17.278,17.278,0,1,0,34.555,17.278,17.279,17.279,0,0,0,17.278,0Zm9.861,21.368a7.279,7.279,0,0,1-.461,2.408,5.073,5.073,0,0,1-2.9,2.9,7.284,7.284,0,0,1-2.408.461c-1.058.048-1.4.06-4.09.06s-3.032-.012-4.091-.06a7.284,7.284,0,0,1-2.408-.461,5.073,5.073,0,0,1-2.9-2.9,7.277,7.277,0,0,1-.461-2.408c-.049-1.058-.06-1.4-.06-4.091s.011-3.032.06-4.09a7.28,7.28,0,0,1,.461-2.408,5.076,5.076,0,0,1,2.9-2.9,7.286,7.286,0,0,1,2.408-.461c1.058-.048,1.4-.06,4.09-.06s3.032.012,4.09.06a7.287,7.287,0,0,1,2.408.461,5.074,5.074,0,0,1,2.9,2.9,7.278,7.278,0,0,1,.461,2.408c.048,1.058.06,1.4.06,4.09S27.187,20.31,27.139,21.368Zm0,0"/>
</svg>
