<svg xmlns="http://www.w3.org/2000/svg" width="19.278" height="19.278" viewBox="0 0 19.278 19.278">
  <path id="Icon_awesome-linkedin" data-name="Icon awesome-linkedin" d="M17.9,2.25H1.373A1.383,1.383,0,0,0,0,3.64v16.5a1.383,1.383,0,0,0,1.373,1.39H17.9a1.387,1.387,0,0,0,1.377-1.39V3.64A1.387,1.387,0,0,0,17.9,2.25ZM5.826,18.774H2.969v-9.2H5.831v9.2ZM4.4,8.317A1.657,1.657,0,1,1,6.054,6.661,1.657,1.657,0,0,1,4.4,8.317ZM16.537,18.774H13.68V14.3c0-1.067-.022-2.44-1.485-2.44-1.489,0-1.717,1.162-1.717,2.362v4.553H7.621v-9.2h2.741V10.83H10.4a3.009,3.009,0,0,1,2.707-1.485c2.892,0,3.43,1.906,3.43,4.385Z" transform="translate(0 -2.25)" fill="#c7c7c7"/>
</svg>
