<svg xmlns="http://www.w3.org/2000/svg" width="25.573" height="25.573" viewBox="0 0 25.573 25.573">
  <path id="_004-twitter" data-name="004-twitter" d="M12.787,0A12.787,12.787,0,1,0,25.573,12.787,12.788,12.788,0,0,0,12.787,0Zm5.838,9.97q.008.189.008.379a8.294,8.294,0,0,1-8.35,8.35h0a8.307,8.307,0,0,1-4.5-1.318,5.969,5.969,0,0,0,.7.041,5.889,5.889,0,0,0,3.645-1.256,2.938,2.938,0,0,1-2.742-2.038,2.925,2.925,0,0,0,1.326-.05A2.936,2.936,0,0,1,6.359,11.2c0-.013,0-.025,0-.037a2.915,2.915,0,0,0,1.329.367A2.937,2.937,0,0,1,6.78,7.611a8.333,8.333,0,0,0,6.05,3.067A2.936,2.936,0,0,1,17.83,8a5.887,5.887,0,0,0,1.864-.712A2.946,2.946,0,0,1,18.4,8.912a5.853,5.853,0,0,0,1.685-.462,5.964,5.964,0,0,1-1.464,1.52Zm0,0"/>
</svg>
