<svg xmlns="http://www.w3.org/2000/svg" width="80" height="80" viewBox="0 0 80 80">
  <g id="icon-battery-replacement" transform="translate(15540 -10678)">
    <rect id="Rectangle_622" data-name="Rectangle 622" width="80" height="80" transform="translate(-15540 10678)" fill="#fff"/>
    <g id="_007-battery" data-name="007-battery" transform="translate(-15534.479 10691.532)">
      <path id="Path_3029" data-name="Path 3029" d="M76.487,22.148h-3.42v-3.29a3.342,3.342,0,0,0-6.684,0v3.29H49.7V20.179h3.471a1.088,1.088,0,0,0,1.088-1.088V12.563a1.088,1.088,0,0,0-1.088-1.088H32.654a1.088,1.088,0,0,0-1.088,1.088v6.528a1.088,1.088,0,0,0,1.088,1.088h3.471v1.968H19.441v-3.29a3.342,3.342,0,0,0-6.684,0v3.29H9.338A1.088,1.088,0,0,0,8.25,23.236v5.8a1.088,1.088,0,0,0,1.088,1.088h3.42V75.7a1.088,1.088,0,0,0,1.088,1.088H71.979A1.088,1.088,0,0,0,73.067,75.7V30.127h3.42a1.088,1.088,0,0,0,1.088-1.088v-5.8A1.088,1.088,0,0,0,76.487,22.148Zm-7.927-3.29a1.166,1.166,0,1,1,2.332,0v3.29H68.56ZM33.742,13.651H52.083V18H33.742ZM38.3,20.179h9.223v1.968H38.3ZM14.934,18.858a1.166,1.166,0,0,1,2.332,0v3.29H14.934ZM70.891,74.614H14.934V36.377H70.891Zm0-40.414H14.934V30.127H70.891ZM75.4,27.951H10.426V24.324H75.4Z" transform="translate(-8.25 -11.475)"/>
      <path id="Path_3030" data-name="Path 3030" d="M50.2,77.022h7.08v9.543a1.088,1.088,0,0,0,2.039.53L67.488,72.44a1.088,1.088,0,0,0-.951-1.617h-7.08V61.28a1.088,1.088,0,0,0-2.039-.53L49.251,75.4a1.088,1.088,0,0,0,.951,1.617Zm7.08-11.555V71.91A1.088,1.088,0,0,0,58.369,73h6.316l-5.228,9.379V75.934a1.088,1.088,0,0,0-1.088-1.088H52.054Z" transform="translate(-23.707 -29.902)" fill="#ff4612"/>
      <path id="Path_3031" data-name="Path 3031" d="M24.671,61.581H26.8V63.7a1.088,1.088,0,1,0,2.176,0V61.581H31.1a1.088,1.088,0,1,0,0-2.176H28.972V57.28a1.088,1.088,0,0,0-2.176,0V59.4H24.671a1.088,1.088,0,0,0,0,2.176Z" transform="translate(-14.05 -28.389)" fill="#ff4612"/>
      <path id="Path_3032" data-name="Path 3032" d="M91.671,63.535H98.1a1.088,1.088,0,1,0,0-2.176H91.671a1.088,1.088,0,1,0,0,2.176Z" transform="translate(-39.392 -30.344)" fill="#ff4612"/>
    </g>
  </g>
</svg>
