<svg xmlns="http://www.w3.org/2000/svg" width="80" height="80" viewBox="0 0 80 80">
  <g id="icon-out-of-fuel" transform="translate(15252 -10678)">
    <rect id="Rectangle_625" data-name="Rectangle 625" width="80" height="80" transform="translate(-15252 10678)" fill="#fff"/>
    <g id="Group_7373" data-name="Group 7373" transform="translate(-15237.753 10691.532)">
      <path id="Path_3011" data-name="Path 3011" d="M110.994,68.983H133.6a.814.814,0,0,0,.814-.814V61.686a2.61,2.61,0,0,0-2.608-2.606H112.788a2.61,2.61,0,0,0-2.608,2.606V68.17A.814.814,0,0,0,110.994,68.983Zm.814-7.3a.981.981,0,0,1,.98-.979h19.023a.981.981,0,0,1,.98.979v5.67H111.807Z" transform="translate(-104.04 -53.262)" stroke="#000" stroke-width="0.5"/>
      <path id="Path_3012" data-name="Path 3012" d="M108.274,191.97a.814.814,0,0,0-.814.814v1.062a.814.814,0,1,0,1.627,0v-1.062A.814.814,0,0,0,108.274,191.97Z" transform="translate(-101.688 -168.132)" stroke="#000" stroke-width="0.5"/>
      <path id="Path_3013" data-name="Path 3013" d="M108.274,217.71a.814.814,0,0,0-.814.814v15.938a.814.814,0,1,0,1.627,0V218.524A.814.814,0,0,0,108.274,217.71Z" transform="translate(-101.688 -190.381)" stroke="#000" stroke-width="0.5"/>
      <path id="Path_3014" data-name="Path 3014" d="M149.128,185.714a.814.814,0,0,0,.814.814h18.344a1.127,1.127,0,0,1,1.126,1.126v27.432a1.127,1.127,0,0,1-1.126,1.126H142.593a1.127,1.127,0,0,1-1.126-1.126V187.653a1.127,1.127,0,0,1,1.126-1.126h3.281a.814.814,0,1,0,0-1.627h-3.281a2.756,2.756,0,0,0-2.753,2.753v27.432a2.756,2.756,0,0,0,2.753,2.753h25.693a2.756,2.756,0,0,0,2.753-2.753V187.653a2.756,2.756,0,0,0-2.753-2.753H149.942A.814.814,0,0,0,149.128,185.714Z" transform="translate(-129.677 -162.02)" stroke="#000" stroke-width="0.5"/>
      <path id="Path_3015" data-name="Path 3015" d="M199.475,245.849a7.821,7.821,0,0,0,6.752-11.777l-6.049-10.329a.814.814,0,0,0-1.4,0l-6.051,10.329a7.82,7.82,0,0,0,6.753,11.777Zm-5.349-10.955,5.349-9.131,5.348,9.131a6.2,6.2,0,1,1-10.7,0Z" transform="translate(-174.459 -195.248)" fill="#ff4612" stroke="#ff4612" stroke-width="0.5"/>
      <path id="Path_3016" data-name="Path 3016" d="M253.575,329.608a.812.812,0,0,0,.264-.044,4.713,4.713,0,0,0,.952-.453,4.785,4.785,0,0,0,.846-.673,4.692,4.692,0,0,0,1.288-2.4.814.814,0,0,0-1.594-.321,3.069,3.069,0,0,1-.844,1.572,3.154,3.154,0,0,1-.556.442,3.078,3.078,0,0,1-.621.295.814.814,0,0,0,.264,1.583Z" transform="translate(-227.287 -283.201)" fill="#ff4612" stroke="#ff4612" stroke-width="0.5"/>
      <path id="Path_3017" data-name="Path 3017" d="M116.271,28.183l-11.632-5.648a.814.814,0,0,0-1.094.392l-1.623,3.524-.663-.342V22.97a6.8,6.8,0,0,0-6.791-6.79H71.691A6.8,6.8,0,0,0,64.9,22.97V74.433a6.8,6.8,0,0,0,6.791,6.79h37.943a6.8,6.8,0,0,0,6.79-6.79v-40a.814.814,0,0,0-.441-.723l-1.056-.545,1.732-3.917a.814.814,0,0,0-.389-1.061ZM114.8,74.433a5.168,5.168,0,0,1-5.163,5.163H71.691a5.169,5.169,0,0,1-5.164-5.163V22.97a5.169,5.169,0,0,1,5.164-5.163H94.466A5.169,5.169,0,0,1,99.63,22.97V26.6a.814.814,0,0,0,.441.723l14.726,7.6Zm-1.318-42.019L103.368,27.2l1.307-2.835L114.854,29.3Z" transform="translate(-64.9 -16.18)" stroke="#000" stroke-width="0.5"/>
    </g>
  </g>
</svg>
