<svg xmlns="http://www.w3.org/2000/svg" width="80" height="80" viewBox="0 0 80 80">
  <g id="icon-flat-tyre" transform="translate(15348 -10678)">
    <rect id="Rectangle_624" data-name="Rectangle 624" width="80" height="80" transform="translate(-15348 10678)" fill="#fff"/>
    <g id="_002-flat-tire" data-name="002-flat-tire" transform="translate(-15341.326 10690.532)">
      <g id="Group_7411" data-name="Group 7411" transform="translate(0 0)">
        <path id="Path_3078" data-name="Path 3078" d="M120.691,167.715a20.253,20.253,0,1,1,20.253-20.253A20.276,20.276,0,0,1,120.691,167.715Zm0-38.553a18.3,18.3,0,1,0,18.3,18.3A18.321,18.321,0,0,0,120.691,129.162Z" transform="translate(-87.362 -110.647)"/>
        <path id="Path_3079" data-name="Path 3079" d="M97.259,147.791a23.738,23.738,0,1,1,22.55-16.256.976.976,0,1,1-1.853-.617,21.813,21.813,0,1,0-1.48,3.431.976.976,0,0,1,1.72.925A23.749,23.749,0,0,1,97.259,147.791Z" transform="translate(-63.93 -87.216)"/>
        <path id="Path_3080" data-name="Path 3080" d="M232.117,262.463a3.575,3.575,0,1,1,3.575-3.574A3.579,3.579,0,0,1,232.117,262.463Zm0-5.2a1.622,1.622,0,1,0,1.622,1.622A1.624,1.624,0,0,0,232.117,257.267Z" transform="translate(-198.788 -222.073)" fill="#ff4612"/>
        <path id="Path_3081" data-name="Path 3081" d="M222.864,162.426a4.959,4.959,0,1,1,4.959-4.959A4.965,4.965,0,0,1,222.864,162.426Zm0-7.966a3.007,3.007,0,1,0,3.007,3.007A3.01,3.01,0,0,0,222.864,154.46Z" transform="translate(-189.535 -132.651)" fill="#ff4612"/>
        <path id="Path_3082" data-name="Path 3082" d="M222.864,346.767a4.959,4.959,0,1,1,4.959-4.959A4.965,4.965,0,0,1,222.864,346.767Zm0-7.966a3.007,3.007,0,1,0,3.007,3.007A3.01,3.01,0,0,0,222.864,338.8Z" transform="translate(-189.535 -292.992)" fill="#ff4612"/>
        <path id="Path_3083" data-name="Path 3083" d="M143.02,208.5a4.975,4.975,0,1,1,1.292-.171A4.988,4.988,0,0,1,143.02,208.5Zm.013-7.97a3.027,3.027,0,0,0-.783.1,2.989,2.989,0,1,0,.783-.1Z" transform="translate(-120.091 -172.721)" fill="#ff4612"/>
        <path id="Path_3084" data-name="Path 3084" d="M302.663,300.669a4.974,4.974,0,1,1,1.292-.171A4.989,4.989,0,0,1,302.663,300.669Zm.013-7.97a3.025,3.025,0,0,0-.783.1,2.989,2.989,0,1,0,.783-.1Z" transform="translate(-258.95 -252.892)" fill="#ff4612"/>
        <path id="Path_3085" data-name="Path 3085" d="M143.036,300.669a4.988,4.988,0,0,1-1.292-.171,4.931,4.931,0,1,1,1.292.171Zm-.013-7.97a3.016,3.016,0,1,0,.783.1A3.022,3.022,0,0,0,143.023,292.7Z" transform="translate(-120.091 -252.892)" fill="#ff4612"/>
        <path id="Path_3086" data-name="Path 3086" d="M302.679,208.5a4.989,4.989,0,0,1-1.292-.171,4.932,4.932,0,1,1,1.292.171Zm-.013-7.97a3.016,3.016,0,1,0,.783.1A3.024,3.024,0,0,0,302.666,200.529Z" transform="translate(-258.949 -172.722)" fill="#ff4612"/>
        <path id="Path_3087" data-name="Path 3087" d="M441.361,9.326a.976.976,0,0,1-.691-1.667l7.37-7.37a.976.976,0,1,1,1.381,1.381l-7.37,7.37A.973.973,0,0,1,441.361,9.326Z" transform="translate(-383.049 -0.002)" fill="#ff4612"/>
        <path id="Path_3088" data-name="Path 3088" d="M408.042,7.063a.977.977,0,0,1-.9-1.345L409.216.608a.976.976,0,1,1,1.809.736l-2.078,5.111a.976.976,0,0,1-.9.609Z" transform="translate(-354.069 0.001)" fill="#ff4612"/>
        <path id="Path_3089" data-name="Path 3089" d="M462.58,76.024a.977.977,0,0,1-.313-1.9l4.608-1.559a.976.976,0,0,1,.626,1.85l-4.608,1.559A.975.975,0,0,1,462.58,76.024Z" transform="translate(-401.506 -63.071)" fill="#ff4612"/>
        <path id="Path_3090" data-name="Path 3090" d="M55.868,89.945H10.79a4.626,4.626,0,0,1-2.859-8.262A33.35,33.35,0,0,1,4.054,44.159a.976.976,0,1,1,1.714.935,31.4,31.4,0,0,0,4.4,36.176.977.977,0,0,1-.362,1.567,2.671,2.671,0,0,0,.982,5.155H55.868a2.671,2.671,0,0,0,.982-5.155.976.976,0,0,1-.361-1.567,31.375,31.375,0,0,0-.878-43.259.976.976,0,0,1-.017-1.357,1.274,1.274,0,1,0-1.915-1.679.976.976,0,0,1-1.347.158,31.089,31.089,0,0,0-19-6.409A31.335,31.335,0,0,0,7.77,41.9a.976.976,0,0,1-1.59-1.134A33.288,33.288,0,0,1,33.329,26.772,33.015,33.015,0,0,1,52.869,33.1a3.228,3.228,0,0,1,4.689,4.116,33.329,33.329,0,0,1,1.168,44.471,4.624,4.624,0,0,1-2.857,8.259Z" transform="translate(0 -23.286)"/>
      </g>
    </g>
  </g>
</svg>
