<svg xmlns="http://www.w3.org/2000/svg" width="80" height="80.219" viewBox="0 0 80 80.219">
  <g id="icon-mechanical-breakdown" transform="translate(15828 -10678)">
    <rect id="Rectangle_619" data-name="Rectangle 619" width="80" height="80" transform="translate(-15828 10678)" fill="#fff"/>
    <g id="Group_7371" data-name="Group 7371" transform="translate(-15826.895 10696.812)">
      <path id="Path_2819" data-name="Path 2819" d="M285.584,320.065h-4.543a1.208,1.208,0,1,0,0,2.416h4.543a1.208,1.208,0,1,0,0-2.416Z" transform="translate(-236.713 -279.49)"/>
      <path id="Path_2820" data-name="Path 2820" d="M79.631,378.183a3.877,3.877,0,1,0,3.876,3.876A3.881,3.881,0,0,0,79.631,378.183Zm0,5.337a1.461,1.461,0,1,1,1.46-1.461A1.462,1.462,0,0,1,79.631,383.52Z" transform="translate(-64.081 -328.652)"/>
      <path id="Path_2821" data-name="Path 2821" d="M414.992,378.183a3.877,3.877,0,1,0,3.877,3.876A3.881,3.881,0,0,0,414.992,378.183Zm0,5.337a1.461,1.461,0,1,1,1.46-1.461A1.462,1.462,0,0,1,414.992,383.52Z" transform="translate(-347.767 -328.652)"/>
      <path id="Path_2822" data-name="Path 2822" d="M189.684,80.3a11.777,11.777,0,1,0-11.777-11.777A11.79,11.79,0,0,0,189.684,80.3Zm0-21.138a9.361,9.361,0,1,1-9.361,9.361A9.371,9.371,0,0,1,189.684,59.158Z" transform="translate(-150.493 -56.742)" fill="#ff4612"/>
      <path id="Path_2823" data-name="Path 2823" d="M223.515,111.249a1.23,1.23,0,0,0,1.708,0l2.741-2.741,2.741,2.741a1.23,1.23,0,0,0,1.708,0,1.208,1.208,0,0,0,0-1.708l-2.741-2.741,2.741-2.741a1.208,1.208,0,0,0-1.708-1.708l-2.741,2.741-2.741-2.741a1.208,1.208,0,1,0-1.708,1.708l2.741,2.741-2.741,2.741A1.208,1.208,0,0,0,223.515,111.249Z" transform="translate(-188.774 -95.023)" fill="#ff4612"/>
      <path id="Path_2824" data-name="Path 2824" d="M36.973,60.168A5.992,5.992,0,0,0,35.636,72a5.413,5.413,0,0,0-.03.572,5.32,5.32,0,1,0,7.185-4.983,5.991,5.991,0,0,0-5.818-7.422Zm6.857,12.4A2.9,2.9,0,1,1,38.26,71.42a1.209,1.209,0,0,0-.116-1.162c-.349-.511-.845-.495-1.394-.529a3.576,3.576,0,1,1,3.8-3.569,3.576,3.576,0,0,1-.443,1.725,1.208,1.208,0,0,0,.989,1.79A2.9,2.9,0,0,1,43.829,72.573Z" transform="translate(-26.207 -59.64)"/>
      <path id="Path_2825" data-name="Path 2825" d="M15.606,236.362a3.577,3.577,0,1,0,3.577-3.578A3.581,3.581,0,0,0,15.606,236.362Zm3.577-1.162a1.161,1.161,0,1,1-1.161,1.162A1.163,1.163,0,0,1,19.183,235.2Z" transform="translate(-13.201 -205.658)"/>
      <path id="Path_2826" data-name="Path 2826" d="M31.1,175.824a3.577,3.577,0,1,0-3.577-3.577A3.581,3.581,0,0,0,31.1,175.824Zm0-4.739a1.161,1.161,0,1,1-1.161,1.161A1.162,1.162,0,0,1,31.1,171.085Z" transform="translate(-23.283 -151.422)"/>
      <path id="Path_2827" data-name="Path 2827" d="M67.224,256.649a8.012,8.012,0,0,0,7.357-4.859h3.1a1.208,1.208,0,0,0,1.208-1.208v-7.9a11.783,11.783,0,0,0-.169-1.976l-.007-.04a11.639,11.639,0,0,0-4.077-6.994l-.033-.026a11.627,11.627,0,0,0-4.8-2.353L65,226.709a16,16,0,0,0-11.1-4.449H44.592a33.333,33.333,0,0,0-13.8,2.973,1.208,1.208,0,0,0,.994,2.2,30.927,30.927,0,0,1,12.807-2.759h6.159l.974,7.2-29.84,1.158,5.557-3.259a1.208,1.208,0,0,0-1.222-2.084l-8.6,5.043-5.822-11.6a1.208,1.208,0,0,0-2.159,1.084L15.2,233.3l-2.691.119a11.619,11.619,0,0,0-3.856.844c-.032.01-.064.02-.1.033a11.643,11.643,0,0,0-5.775,5.187A10.83,10.83,0,0,0,1.7,242.2L.161,247.174a3.562,3.562,0,0,0,3.4,4.615H8.191a8,8,0,0,0,14.714,0H59.867A8.012,8.012,0,0,0,67.224,256.649Zm5.572-7.637a5.582,5.582,0,0,1-11.1.406,5.473,5.473,0,0,1-.056-.769,5.584,5.584,0,1,1,11.168,0Q72.808,248.832,72.8,249.012Zm.306-13.473.051.043q.342.286.656.6l.039.039a9.289,9.289,0,0,1,2.387,4.366,3.8,3.8,0,0,1-3.133-3.734ZM53.9,224.676a13.594,13.594,0,0,1,9.431,3.78l2.987,2.854-12.171.472-.961-7.106H53.9ZM4.55,241.37A9.31,9.31,0,0,1,7.9,237.385v.333a3.8,3.8,0,0,1-3.4,3.772Zm16.582,7.283a5.588,5.588,0,0,1-5.571,5.581h-.013a5.584,5.584,0,1,1,5.584-5.581Zm2.383.721c.021,0,.033-.684.033-.725a8,8,0,1,0-16,0c0,.241.011.484.033.725H3.564a1.146,1.146,0,0,1-1.1-1.485L3.7,243.913q.2.014.41.014a6.215,6.215,0,0,0,6.208-6.208v-1.388c0-.031,0-.061,0-.092a9.2,9.2,0,0,1,2.306-.4l4.554-.2,7.041-.273c-.454,2.86-1.082,9.13,1.042,14.012Zm19.615,0H27.951c-2.58-4.571-1.69-11.623-1.265-14.108l25.306-.982c.145,2.5.152,8.662-2.9,12.3A7.863,7.863,0,0,1,43.131,249.374Zm6.584,0a10.318,10.318,0,0,0,1.231-1.239c3.594-4.286,3.631-11.087,3.464-13.944l14.7-.57a9.2,9.2,0,0,1,1.715.536,6.219,6.219,0,0,0-.141,1.313v1.388a6.215,6.215,0,0,0,5.791,6.192v6.325H75.191c.006-.061.008-.121.012-.182s.008-.1.011-.157c.006-.128.01-.257.01-.386a8,8,0,1,0-16,0c0,.129,0,.258.01.386,0,.052.007.1.011.155s.007.122.012.184Z" transform="translate(0.001 -195.241)"/>
    </g>
  </g>
</svg>
