<svg xmlns="http://www.w3.org/2000/svg" width="80" height="80" viewBox="0 0 80 80">
  <g id="icon-key-lockout" transform="translate(15444 -10678)">
    <rect id="Rectangle_623" data-name="Rectangle 623" width="80" height="80" transform="translate(-15444 10678)" fill="#fff"/>
    <g id="_001-key" data-name="001-key" transform="translate(-15441 10691.532)">
      <g id="Group_4430" data-name="Group 4430" transform="translate(15.305 6.248)">
        <g id="Group_4429" data-name="Group 4429">
          <path id="Path_3075" data-name="Path 3075" d="M123.293,81.416l-7.933-7.933a3.77,3.77,0,0,0-5.325,0L106.9,76.621a3.77,3.77,0,0,0,0,5.325l7.933,7.933a3.77,3.77,0,0,0,5.325,0l3.139-3.139A3.77,3.77,0,0,0,123.293,81.416ZM121.8,85.25l-3.139,3.139a1.657,1.657,0,0,1-2.343,0l-7.933-7.933a1.659,1.659,0,0,1,0-2.343l3.139-3.139a1.659,1.659,0,0,1,2.343,0l7.933,7.934a1.657,1.657,0,0,1,0,2.343Z" transform="translate(-105.794 -72.381)" fill="#ff4612"/>
        </g>
      </g>
      <g id="Group_4432" data-name="Group 4432" transform="translate(5.691 15.862)">
        <g id="Group_4431" data-name="Group 4431" transform="translate(0 0)">
          <path id="Path_3076" data-name="Path 3076" d="M56.838,147.871,48.9,139.937a3.77,3.77,0,0,0-5.325,0l-3.139,3.139a3.77,3.77,0,0,0,0,5.325l7.933,7.933a3.77,3.77,0,0,0,5.325,0l3.139-3.139A3.77,3.77,0,0,0,56.838,147.871ZM55.347,151.7l-3.139,3.139a1.659,1.659,0,0,1-2.343,0l-7.933-7.934a1.657,1.657,0,0,1,0-2.343l3.139-3.139a1.659,1.659,0,0,1,2.343,0l7.933,7.934A1.659,1.659,0,0,1,55.347,151.7Z" transform="translate(-39.339 -138.836)" fill="#ff4612"/>
        </g>
      </g>
      <g id="Group_4434" data-name="Group 4434" transform="translate(0 0)">
        <g id="Group_4433" data-name="Group 4433" transform="translate(0 0)">
          <path id="Path_3077" data-name="Path 3077" d="M71.906,49.442l-9.984-9.984a7.365,7.365,0,0,0-7.132-1.91,28.69,28.69,0,0,0-6.043-3.468,25.469,25.469,0,0,0-9.642-2.239h0c-.394,0-.771.016-1.133.047a5.112,5.112,0,0,0-3.381-1.744l-9.631-.914a8.265,8.265,0,0,0-6.647,2.392L8.235,41.7A1.054,1.054,0,0,0,9.726,43.19L19.8,33.112a6.164,6.164,0,0,1,4.957-1.784l9.631.914A3.013,3.013,0,0,1,37.1,34.954l.516,5.439-.029-.026c-.088-.078-.174-.157-.259-.236s-.148-.139-.219-.208l-.1-.1c-.1-.1-.2-.2-.3-.3s-.164-.176-.243-.264l-.056-.063c-.074-.084-.147-.168-.216-.252l-.046-.056q-.082-.1-.159-.2l-.064-.082q-.084-.11-.162-.219l-.075-.107-.056-.082a3.361,3.361,0,1,0-1.5,1.538,12.863,12.863,0,0,0,1.045,1.24A19.553,19.553,0,0,0,37.9,43.308l.121,1.277a6.165,6.165,0,0,1-1.784,4.957L19.212,66.564a2.306,2.306,0,0,1-3.261,0L2.782,53.4a2.306,2.306,0,0,1,0-3.261l2.075-2.075a1.054,1.054,0,0,0-1.491-1.491L1.291,48.643a4.42,4.42,0,0,0,0,6.243L14.46,68.054a4.414,4.414,0,0,0,6.243,0L37.724,51.033a8.263,8.263,0,0,0,2.417-6.274,31.075,31.075,0,0,0,3.316,1.66q.983.421,1.967.767L39.5,54.844a7.421,7.421,0,0,0-.153,8.851L34.48,68.561a2.262,2.262,0,0,0-.6,2.109.14.14,0,0,1-.037.13L30.336,74.31a1.967,1.967,0,0,0-.35.476l-1.977,3.765-3.548,1.834a1.977,1.977,0,0,0-.867.891L22.2,84.162l-4.224,2.646a1.732,1.732,0,0,0-.8,1.253l-.614,4.794a1.74,1.74,0,0,0,1.721,1.96,1.787,1.787,0,0,0,.225-.014l4.794-.614a1.734,1.734,0,0,0,1.253-.8L27.2,89.161l2.885-1.391a1.977,1.977,0,0,0,.892-.867l1.834-3.547,3.766-1.977a1.96,1.96,0,0,0,.476-.35l3.511-3.511a.137.137,0,0,1,.13-.037,2.262,2.262,0,0,0,2.109-.6l4.865-4.865a7.419,7.419,0,0,0,8.852-.153L62.158,67.5a1.054,1.054,0,1,0-1.29-1.668L55.23,70.2a5.3,5.3,0,0,1-6.9-.36l0,0-.042-.04-.041-.039L41.61,63.118l-.038-.04-.042-.044,0,0a5.3,5.3,0,0,1-.36-6.9l6.407-8.282a21.661,21.661,0,0,0,5.525.8h0a13.118,13.118,0,0,0,1.426-.074L62.94,57a3.128,3.128,0,1,0,4.424-4.424L58.79,44a3.128,3.128,0,0,0-5.34,2.212,3.174,3.174,0,0,0,.018.331c-.121,0-.244.006-.369.006h0a18.551,18.551,0,0,1-4.118-.515l3.545-4.583a5.278,5.278,0,0,1,7.906-.5l9.984,9.984a5.278,5.278,0,0,1-.5,7.906l-3.406,2.635a1.054,1.054,0,0,0,1.29,1.668L71.2,60.506a7.386,7.386,0,0,0,.7-11.064ZM32.606,38a1.261,1.261,0,1,1,0-2.522,1.285,1.285,0,0,1,.155.011A4.574,4.574,0,0,0,33.1,37.9,1.259,1.259,0,0,1,32.606,38Zm8.16,27.256L46.108,70.6l-4.8,4.8a.14.14,0,0,1-.13.037,2.262,2.262,0,0,0-2.109.6l-3.5,3.5L31.792,81.51a1.955,1.955,0,0,0-.832.837l-1.832,3.545-2.879,1.389a1.961,1.961,0,0,0-.811.727l-2.575,4.111-4.147.531.531-4.147,4.111-2.575a1.962,1.962,0,0,0,.727-.811l1.388-2.879L29.017,80.4a1.955,1.955,0,0,0,.837-.832l1.988-3.786,3.5-3.5a2.261,2.261,0,0,0,.6-2.109.137.137,0,0,1,.037-.13ZM58.609,46.8l7.264,7.264a1.02,1.02,0,1,1-1.442,1.442l-7.515-7.515A4.61,4.61,0,0,0,58.609,46.8Zm-2.752-1.309a1.018,1.018,0,0,1,1.227-.164,2.894,2.894,0,0,1-1.524.915c0-.01,0-.02,0-.03A1.013,1.013,0,0,1,55.857,45.491Zm-5-5.33-4.07,5.261c-.827-.269-1.664-.583-2.5-.941A27.9,27.9,0,0,1,39.9,42.135l-.7-7.38a5.13,5.13,0,0,0-.143-.805h.047a23.343,23.343,0,0,1,8.811,2.068,27.643,27.643,0,0,1,4.664,2.533A7.385,7.385,0,0,0,50.858,40.161Z" transform="translate(0 -29.192)"/>
        </g>
      </g>
    </g>
  </g>
</svg>
