<svg xmlns="http://www.w3.org/2000/svg" width="80.315" height="80" viewBox="0 0 80.315 80">
  <g id="icon-electric-breakdown" transform="translate(15732.166 -10678)">
    <rect id="Rectangle_620" data-name="Rectangle 620" width="80" height="80" transform="translate(-15732 10678)" fill="#fff"/>
    <g id="Group_7372" data-name="Group 7372" transform="translate(-15732 10712.043)">
      <path id="Path_2819" data-name="Path 2819" d="M285.665,320.065h-4.607a1.225,1.225,0,1,0,0,2.45h4.607a1.225,1.225,0,1,0,0-2.45Z" transform="translate(-236.109 -296.41)" stroke="#fff" stroke-width="0.3"/>
      <path id="Path_2820" data-name="Path 2820" d="M79.685,378.183a3.931,3.931,0,1,0,3.931,3.931A3.935,3.935,0,0,0,79.685,378.183Zm0,5.412a1.481,1.481,0,1,1,1.481-1.481A1.483,1.483,0,0,1,79.685,383.6Z" transform="translate(-63.917 -345.447)" stroke="#fff" stroke-width="0.3"/>
      <path id="Path_2821" data-name="Path 2821" d="M415.047,378.183a3.931,3.931,0,1,0,3.931,3.931A3.935,3.935,0,0,0,415.047,378.183Zm0,5.412a1.481,1.481,0,1,1,1.481-1.481A1.483,1.483,0,0,1,415.047,383.6Z" transform="translate(-346.879 -345.447)" stroke="#fff" stroke-width="0.3"/>
      <path id="Path_2825" data-name="Path 2825" d="M15.606,236.412a3.627,3.627,0,1,0,3.627-3.628A3.631,3.631,0,0,0,15.606,236.412Zm3.627-1.178a1.178,1.178,0,1,1-1.177,1.178A1.179,1.179,0,0,1,19.233,235.234Z" transform="translate(-13.167 -222.766)" fill="#ff4612" stroke="#fff" stroke-width="0.3"/>
      <path id="Path_2826" data-name="Path 2826" d="M31.151,175.924a3.627,3.627,0,1,0-3.627-3.627A3.631,3.631,0,0,0,31.151,175.924Zm0-4.8a1.178,1.178,0,1,1-1.178,1.177A1.179,1.179,0,0,1,31.151,171.119Z" transform="translate(-23.223 -168.669)" fill="#ff4612" stroke="#fff" stroke-width="0.3"/>
      <path id="Path_2827" data-name="Path 2827" d="M68.166,257.156a8.124,8.124,0,0,0,7.46-4.927h3.147A1.225,1.225,0,0,0,80,251V243a11.947,11.947,0,0,0-.171-2l-.007-.041a11.8,11.8,0,0,0-4.134-7.092l-.033-.027a11.789,11.789,0,0,0-4.872-2.386L65.913,226.8a16.224,16.224,0,0,0-11.255-4.512H45.216A33.8,33.8,0,0,0,31.222,225.3a1.225,1.225,0,0,0,1.008,2.233,31.361,31.361,0,0,1,12.987-2.8h6.246l.987,7.3L22.191,233.21l5.635-3.305a1.225,1.225,0,0,0-1.24-2.113l-8.719,5.114-5.9-11.759a1.225,1.225,0,0,0-2.19,1.1l5.642,11.239-2.728.121a11.781,11.781,0,0,0-3.91.856c-.033.01-.065.02-.1.034a11.807,11.807,0,0,0-5.856,5.26,10.982,10.982,0,0,0-1.1,2.754L.163,247.548a3.612,3.612,0,0,0,3.451,4.68H8.306a8.111,8.111,0,0,0,14.92,0h37.48A8.124,8.124,0,0,0,68.166,257.156Zm5.65-7.744a5.661,5.661,0,0,1-11.255.412,5.55,5.55,0,0,1-.057-.78,5.662,5.662,0,1,1,11.325,0Q73.829,249.229,73.816,249.412Zm.311-13.662.052.043q.347.29.665.613l.039.04a9.419,9.419,0,0,1,2.421,4.427,3.851,3.851,0,0,1-3.177-3.787ZM54.658,224.735a13.784,13.784,0,0,1,9.563,3.833l3.029,2.894-12.342.479-.974-7.206h.724ZM4.614,241.663a9.441,9.441,0,0,1,3.4-4.04v.338a3.85,3.85,0,0,1-3.451,3.825Zm16.815,7.385a5.666,5.666,0,0,1-5.649,5.659h-.014a5.662,5.662,0,1,1,5.662-5.659Zm2.417.731c.021,0,.033-.694.033-.735a8.112,8.112,0,0,0-16.225,0c0,.245.011.491.033.735H3.614a1.162,1.162,0,0,1-1.11-1.506l1.247-4.031q.208.014.416.014a6.3,6.3,0,0,0,6.295-6.295v-1.407c0-.031,0-.062,0-.093a9.332,9.332,0,0,1,2.338-.407l4.618-.205,7.14-.277c-.46,2.9-1.1,9.258,1.056,14.208Zm19.89,0H28.343c-2.617-4.635-1.714-11.786-1.283-14.305l25.661-1c.147,2.533.154,8.783-2.938,12.471A7.973,7.973,0,0,1,43.735,249.779Zm6.676,0a10.465,10.465,0,0,0,1.249-1.256c3.644-4.346,3.682-11.243,3.512-14.14l14.909-.578a9.325,9.325,0,0,1,1.739.543,6.305,6.305,0,0,0-.143,1.332v1.407a6.3,6.3,0,0,0,5.872,6.279v6.413h-1.3c.006-.061.008-.123.013-.185s.008-.106.011-.159c.006-.13.01-.261.01-.391a8.112,8.112,0,1,0-16.225,0c0,.131,0,.261.01.392,0,.053.007.1.011.157s.007.124.013.186Z" transform="translate(0.001 -212.376)" stroke="#fff" stroke-width="0.3"/>
    </g>
  </g>
</svg>
