<svg xmlns="http://www.w3.org/2000/svg" width="80" height="80" viewBox="0 0 80 80">
  <g id="icon-female-scooty" transform="translate(15156 -10678)">
    <rect id="Rectangle_626" data-name="Rectangle 626" width="80" height="80" transform="translate(-15156 10678)" fill="#fff"/>
    <g id="scooter" transform="translate(-15154.579 10695.235)">
      <g id="Group_4416" data-name="Group 4416" transform="translate(35.845 16.642)">
        <g id="Group_4415" data-name="Group 4415">
          <path id="Path_3068" data-name="Path 3068" d="M4.818,152H28.466a4.824,4.824,0,0,1,4.819,4.819v.6a4.813,4.813,0,0,1-3.145,4.5,33.181,33.181,0,0,1,10.8,17.961,1.28,1.28,0,0,1-1.249,1.558H11.521a1.28,1.28,0,0,1-1.28-1.28A15.379,15.379,0,0,1,25.6,164.8a1.28,1.28,0,1,1,0,2.56,12.819,12.819,0,0,0-12.737,11.522h25.18a30.643,30.643,0,0,0-11.138-16.3l-.452-.344H8.449a17.1,17.1,0,0,1-1.664,16.083,1.28,1.28,0,1,1-2.116-1.441A14.494,14.494,0,0,0,5.6,162.242h-.78A4.824,4.824,0,0,1,0,157.423v-.6A4.824,4.824,0,0,1,4.818,152ZM2.56,157.423a2.261,2.261,0,0,0,2.258,2.258H28.466a2.261,2.261,0,0,0,2.258-2.258v-.6a2.261,2.261,0,0,0-2.258-2.258H4.818a2.261,2.261,0,0,0-2.258,2.258Z" transform="translate(0 -152)"/>
        </g>
      </g>
      <g id="Group_4418" data-name="Group 4418" transform="translate(8.961 48.647)">
        <g id="Group_4417" data-name="Group 4417">
          <path id="Path_3069" data-name="Path 3069" d="M361.28,352a1.28,1.28,0,0,1,1.28,1.28,2.56,2.56,0,1,0,5.121,0,1.28,1.28,0,0,1,2.56,0,5.121,5.121,0,1,1-10.242,0A1.28,1.28,0,0,1,361.28,352Z" transform="translate(-360 -352)"/>
        </g>
      </g>
      <g id="Group_4420" data-name="Group 4420" transform="translate(56.328 48.647)">
        <g id="Group_4419" data-name="Group 4419" transform="translate(0)">
          <path id="Path_3070" data-name="Path 3070" d="M65.28,352a1.28,1.28,0,0,1,1.28,1.28,2.56,2.56,0,1,0,5.121,0,1.28,1.28,0,0,1,2.56,0,5.121,5.121,0,1,1-10.242,0A1.28,1.28,0,0,1,65.28,352Z" transform="translate(-64 -352)"/>
        </g>
      </g>
      <g id="Group_4422" data-name="Group 4422" transform="translate(0 12.802)">
        <g id="Group_4421" data-name="Group 4421">
          <path id="Path_3071" data-name="Path 3071" d="M262.569,145.988v-1.345l.008-.141a27.367,27.367,0,0,1,8.049-16.13L271,128h.53a7.689,7.689,0,0,1,7.681,7.681v11.153a8.833,8.833,0,0,0,2.6,6.281l.448.448a8.946,8.946,0,0,0,3.472,2.147,1.282,1.282,0,1,1-.81,2.432,11.513,11.513,0,0,1-4.472-2.764L280,154.93a11.368,11.368,0,0,1-3.352-8.1V135.681a5.128,5.128,0,0,0-4.609-5.1,24.708,24.708,0,0,0-6.913,14.129v1.272A14.1,14.1,0,0,1,277.932,160a1.28,1.28,0,0,1-1.28,1.28h-25.6a1.28,1.28,0,0,1-1.28-1.28A14.1,14.1,0,0,1,262.569,145.988ZM275.3,158.725a11.522,11.522,0,0,0-22.9,0Z" transform="translate(-249.767 -128)"/>
        </g>
      </g>
      <g id="Group_4424" data-name="Group 4424" transform="translate(70.411 25.604)">
        <g id="Group_4423" data-name="Group 4423" transform="translate(0)">
          <path id="Path_3072" data-name="Path 3072" d="M1.28,208H5.121a1.28,1.28,0,0,1,1.28,1.28V214.4a1.28,1.28,0,1,1-2.56,0V210.56H1.28a1.28,1.28,0,1,1,0-2.56Z" transform="translate(0 -208)" fill="#ff4612"/>
        </g>
      </g>
      <g id="Group_4426" data-name="Group 4426" transform="translate(16.642)">
        <g id="Group_4425" data-name="Group 4425">
          <path id="Path_3073" data-name="Path 3073" d="M273.28,48h4.481a4.473,4.473,0,0,1,4.415,3.841h5.186a1.28,1.28,0,0,1,0,2.56h-5.186a4.473,4.473,0,0,1-4.415,3.841H273.28a1.28,1.28,0,0,1-1.28-1.28V49.28A1.28,1.28,0,0,1,273.28,48Zm1.28,7.681h3.2a1.92,1.92,0,0,0,1.92-1.92v-1.28a1.92,1.92,0,0,0-1.92-1.92h-3.2Z" transform="translate(-272 -48)" fill="#ff4612"/>
        </g>
      </g>
      <g id="Group_4428" data-name="Group 4428" transform="translate(0 48.647)">
        <g id="Group_4427" data-name="Group 4427">
          <path id="Path_3074" data-name="Path 3074" d="M1.28,362.242H6.857a11.5,11.5,0,0,1-4.3-8.961,1.28,1.28,0,0,1,2.56,0,8.961,8.961,0,0,0,17.923,0,1.28,1.28,0,0,1,2.56,0,11.5,11.5,0,0,1-4.3,8.961H54.224a11.5,11.5,0,0,1-4.3-8.961,1.28,1.28,0,0,1,2.56,0,8.961,8.961,0,0,0,17.923,0,1.28,1.28,0,0,1,2.56,0,11.5,11.5,0,0,1-4.3,8.961h6.857a1.28,1.28,0,1,1,0,2.56H1.28a1.28,1.28,0,1,1,0-2.56Z" transform="translate(0 -352)"/>
        </g>
      </g>
    </g>
  </g>
</svg>
