<svg xmlns="http://www.w3.org/2000/svg" width="80.632" height="80" viewBox="0 0 80.632 80">
  <g id="icon-car-towing" transform="translate(15636.632 -10678)">
    <rect id="Rectangle_621" data-name="Rectangle 621" width="80" height="80" transform="translate(-15636 10678)" fill="#fff"/>
    <g id="Tow_Truck" data-name="Tow Truck" transform="translate(-15636.382 10692.532)">
      <rect id="Rectangle_134" data-name="Rectangle 134" width="5.309" height="2.654" transform="translate(53.087 39.603)" stroke="#fff" stroke-width="0.5"/>
      <rect id="Rectangle_135" data-name="Rectangle 135" width="2.654" height="2.654" transform="translate(11.945 55.529)" stroke="#fff" stroke-width="0.5"/>
      <rect id="Rectangle_136" data-name="Rectangle 136" width="2.654" height="2.654" transform="translate(61.05 55.529)" stroke="#fff" stroke-width="0.5"/>
      <path id="Path_3091" data-name="Path 3091" d="M80.715,41.889,74.261,29.944a3.982,3.982,0,0,0-3.5-2.089H52.593L10.6,8.285a1.329,1.329,0,0,0-1.764.642L6.6,13.745a1.327,1.327,0,0,0,.644,1.768l.069.028v7.006a1.327,1.327,0,0,0,1.327,1.327A1.327,1.327,0,1,1,7.309,25.2H4.654a3.982,3.982,0,1,0,5.309-3.755V16.777L44.47,32.861V51.745H3.327A1.327,1.327,0,0,0,2,53.072V63.689a2.654,2.654,0,0,0,2.654,2.654H7.428a7.954,7.954,0,0,0,15.687,0H56.534a7.954,7.954,0,0,0,15.687,0h5.428a3.982,3.982,0,0,0,3.982-3.982V45.252A6.582,6.582,0,0,0,80.715,41.889Zm-8.79-10.682L78,42.454H57.742V30.51H70.757a1.327,1.327,0,0,1,1.168.7ZM10.685,11.251,49.779,29.472v2.937L9.565,13.662ZM47.124,34.1l2.654,1.237V51.745H47.124ZM15.272,70.325a5.309,5.309,0,1,1,5.309-5.309A5.309,5.309,0,0,1,15.272,70.325Zm0-13.272a7.971,7.971,0,0,0-7.844,6.636H4.654V54.4H49.779v9.29H23.115a7.971,7.971,0,0,0-7.844-6.636ZM64.377,70.325a5.309,5.309,0,1,1,5.309-5.309A5.309,5.309,0,0,1,64.377,70.325Zm13.272-6.636H72.221a7.954,7.954,0,0,0-15.687,0h-4.1V30.51h2.654V43.782a1.327,1.327,0,0,0,1.327,1.327H78.957c0,.048.02.094.02.143v2.511H73.668a2.654,2.654,0,0,0-2.654,2.654v2.654a2.654,2.654,0,0,0,2.654,2.654h5.309V58.38H74.995v2.654h3.982v1.327A1.327,1.327,0,0,1,77.649,63.689Zm1.327-13.272v2.654H73.668V50.417Z" transform="translate(-2 -8.16)" stroke="#fff" stroke-width="0.5"/>
      <path id="Path_3092" data-name="Path 3092" d="M13.7,43.581H30.115a3.958,3.958,0,0,0,7.475,0h2.9a1.327,1.327,0,0,0,1.327-1.327V36.945a1.327,1.327,0,0,0-.386-.937l-2.642-2.654a1.327,1.327,0,0,0-.941-.39H35.671L26.753,25.32a1.327,1.327,0,0,0-.864-.32H14.258A3.959,3.959,0,0,0,10.7,27.2L7.816,32.963H4.654A2.654,2.654,0,0,0,2,35.617v6.636a1.327,1.327,0,0,0,1.327,1.327h2.9a3.958,3.958,0,0,0,7.475,0Zm20.152,0a1.327,1.327,0,1,1,1.327-1.327A1.327,1.327,0,0,1,33.852,43.581ZM31.6,32.963H21.908V27.654H25.4ZM13.071,28.388a1.319,1.319,0,0,1,1.187-.734h5v5.309h-8.47ZM4.654,35.617H37.3l1.866,1.875v3.433H37.59a3.958,3.958,0,0,0-7.475,0H13.7a3.958,3.958,0,0,0-7.475,0H4.654Zm5.309,7.963a1.327,1.327,0,1,1,1.327-1.327A1.327,1.327,0,0,1,9.963,43.581Z" transform="translate(-2 -2.65)" fill="#ff4612" stroke="#fff" stroke-width="0.5"/>
    </g>
  </g>
</svg>
