<svg xmlns="http://www.w3.org/2000/svg" width="80" height="80" viewBox="0 0 80 80">
  <g id="icon-corporate-insurance" transform="translate(15348 -10774)">
    <rect id="Rectangle_632" data-name="Rectangle 632" width="80" height="80" transform="translate(-15348 10774)" fill="#fff"/>
    <g id="Group_7377" data-name="Group 7377" transform="translate(-15334 10784.889)">
      <path id="Path_6547" data-name="Path 6547" d="M-393.126-485.733c0-4.214.034-8.429-.021-12.643a1.968,1.968,0,0,1,1.6-2.264c8.107-2.284,16.2-4.617,24.308-6.9a3.282,3.282,0,0,1,1.678.063c8,2.235,15.989,4.515,23.992,6.741a2.149,2.149,0,0,1,1.854,2.427c-.062,8.024,0,16.049-.035,24.073a36.347,36.347,0,0,1-25.635,34.2,3.939,3.939,0,0,1-2.158-.027,36.359,36.359,0,0,1-25.582-34.416c-.021-3.752,0-7.5,0-11.257Zm2.439.952c0,3.521-.03,7.043.005,10.564a33.963,33.963,0,0,0,23.259,31.649,3.437,3.437,0,0,0,1.969,0,33.85,33.85,0,0,0,23.223-30.956c.167-7.847.016-15.7.06-23.551a1.441,1.441,0,0,0-1.28-1.654c-7.39-2.063-14.762-4.187-22.15-6.258a3.21,3.21,0,0,0-1.657,0c-7.384,2.082-14.752,4.224-22.142,6.284a1.522,1.522,0,0,0-1.314,1.792C-390.661-492.863-390.692-488.822-390.687-484.781Z" transform="translate(393.147 507.619)" stroke="#fff" stroke-width="0.2"/>
      <path id="Path_6548" data-name="Path 6548" d="M-335.5-473.743c-.3,5.062.139,9.961-.765,14.913-1.927,10.546-8.38,17.871-17.795,22.721a6.392,6.392,0,0,1-6.107.085c-12-5.741-18.472-15.192-19.005-28.475-.271-6.746-.021-13.512-.078-20.269a2.117,2.117,0,0,1,1.809-2.444c6.233-1.709,12.433-3.542,18.664-5.259a5.327,5.327,0,0,1,2.687-.05c6.348,1.727,12.667,3.561,19.007,5.317a1.851,1.851,0,0,1,1.56,2.1C-335.579-481.407-335.5-473.913-335.5-473.743Zm-2.5.458c0-3.407-.027-6.815.018-10.221.012-.94-.207-1.427-1.213-1.7-5.731-1.576-11.434-3.251-17.16-4.842a3.94,3.94,0,0,0-2.008,0c-5.672,1.572-11.32,3.229-17,4.787a1.634,1.634,0,0,0-1.461,1.884c.056,6.41-.044,12.821.049,19.229a28.824,28.824,0,0,0,17.976,25.96,4.032,4.032,0,0,0,2.754.006c8.712-3.625,14.655-9.986,16.86-19.121C-337.939-462.449-337.846-473.271-338-473.285Z" transform="translate(384.102 497.851)" stroke="#fff" stroke-width="0.2"/>
      <path id="Path_6549" data-name="Path 6549" d="M-332.11-469.274a21.527,21.527,0,0,1,2.938.021,5.028,5.028,0,0,1,4.04,6.727,5.425,5.425,0,0,1-.87,1.873c-1.513,1.642-1.111,3.364-.712,5.307,1.089,5.312,1.9,10.681,2.9,16.011a7.524,7.524,0,0,1-1.721,6.769c-1.179,1.346-2.27,2.77-3.46,4.105-1.869,2.1-4.249,2.1-6.15.053-.079-.084-.151-.175-.226-.263-6.56-7.7-5.763-6.155-3.84-16.9.741-4.136,1.638-8.245,2.442-12.37a1.547,1.547,0,0,0-.174-.776c-.059-.152-.235-.254-.326-.4-1.426-2.269-2.952-4.529-1.527-7.377C-337.378-469.313-334.818-469.518-332.11-469.274Zm.087,12.068c-2.6,0-2.63.024-3.08,2.61-.652,3.749-1.284,7.5-1.959,11.245-1.513,8.4-1.936,6.307,3.5,12.939.073.089.148.176.223.264.854,1.008,1.726,1.057,2.6.033,1.049-1.227,2.055-2.494,3.142-3.687a5.771,5.771,0,0,0,1.4-5.427c-1.027-5.143-1.9-10.318-2.816-15.483C-329.448-457.132-329.513-457.205-332.023-457.206Zm.063-9.7v.013c-.751,0-1.505-.05-2.251.009a2.667,2.667,0,0,0-2.376,3.947,13.7,13.7,0,0,0,.83,1.713c1.11,1.889,5.6,2.38,6.873.615.937-1.3,2.147-2.72,1.4-4.572-.774-1.92-2.5-1.746-4.131-1.725C-331.729-466.908-331.844-466.91-331.96-466.91Z" transform="translate(358.795 482.612)" fill="#ff4612" stroke="#fff" stroke-width="0.5"/>
    </g>
  </g>
</svg>
