<svg xmlns="http://www.w3.org/2000/svg" width="80" height="80" viewBox="0 0 80 80">
  <g id="icon-car-insurance" transform="translate(15828 -10774)">
    <rect id="Rectangle_627" data-name="Rectangle 627" width="80" height="80" transform="translate(-15828 10774)" fill="#fff"/>
    <g id="_001-insurance-1" data-name="001-insurance-1" transform="translate(-15817.141 10786.889)">
      <g id="Group_5194" data-name="Group 5194" transform="translate(5.091 43.968)">
        <g id="Group_5193" data-name="Group 5193">
          <path id="Path_6529" data-name="Path 6529" d="M63.973,285.888h-8.3a1.542,1.542,0,0,0-1.538,1.538v5.69a1.542,1.542,0,0,0,1.538,1.538h8.3a1.542,1.542,0,0,0,1.538-1.538v-5.69A1.542,1.542,0,0,0,63.973,285.888Zm-1.538,5.69H57.206v-2.615h5.229Z" transform="translate(-54.13 -285.888)" stroke="#fff" stroke-width="0.5"/>
        </g>
      </g>
      <g id="Group_5196" data-name="Group 5196" transform="translate(36.004 43.968)">
        <g id="Group_5195" data-name="Group 5195">
          <path id="Path_6530" data-name="Path 6530" d="M264.973,285.888h-8.3a1.542,1.542,0,0,0-1.538,1.538v5.69a1.542,1.542,0,0,0,1.538,1.538h8.3a1.542,1.542,0,0,0,1.538-1.538v-5.69A1.542,1.542,0,0,0,264.973,285.888Zm-1.538,5.69h-5.229v-2.615h5.229Z" transform="translate(-255.13 -285.888)" stroke="#fff" stroke-width="0.5"/>
        </g>
      </g>
      <g id="Group_5198" data-name="Group 5198" transform="translate(19.394 49.505)">
        <g id="Group_5197" data-name="Group 5197">
          <path id="Path_6531" data-name="Path 6531" d="M159.372,321.888h-10.7a1.538,1.538,0,1,0,0,3.076h10.7a1.538,1.538,0,1,0,0-3.076Z" transform="translate(-147.13 -321.888)" stroke="#fff" stroke-width="0.5"/>
        </g>
      </g>
      <g id="Group_5200" data-name="Group 5200" transform="translate(19.394 45.198)">
        <g id="Group_5199" data-name="Group 5199">
          <path id="Path_6532" data-name="Path 6532" d="M159.372,293.888h-10.7a1.538,1.538,0,1,0,0,3.076h10.7a1.538,1.538,0,0,0,0-3.076Z" transform="translate(-147.13 -293.888)" stroke="#fff" stroke-width="0.5"/>
        </g>
      </g>
      <g id="Group_5202" data-name="Group 5202" transform="translate(0 0)">
        <g id="Group_5201" data-name="Group 5201" transform="translate(0)">
          <path id="Path_6533" data-name="Path 6533" d="M79.009,7.457,65.367.183A1.5,1.5,0,0,0,63.906.2L50.6,7.473a1.543,1.543,0,0,0-.815,1.353v10.3a20.114,20.114,0,0,0,1.246,6.859H33.409A5.118,5.118,0,0,0,28.7,29.112l-3.8,8.843-1.538,1.461a6.776,6.776,0,0,0-2.338,5.167V60.148a5,5,0,0,0,4.952,5.06h2.953a5.034,5.034,0,0,0,5.014-5.06V58.271H60.554v1.861a5.1,5.1,0,0,0,5.091,5.06h2.922a5.084,5.084,0,0,0,5.06-5.06V44.168a6.782,6.782,0,0,0-2.107-4.906l-1.077-1.138-.707-1.553A20.451,20.451,0,0,0,79.763,18.93V8.826A1.415,1.415,0,0,0,79.009,7.457ZM31.532,30.327a2.076,2.076,0,0,1,1.876-1.276h19.04a22.571,22.571,0,0,0,1.476,2.307,8.043,8.043,0,0,0-5,6H28.533Zm24.684,3.645a21.353,21.353,0,0,0,4.722,3.383H52.095A4.89,4.89,0,0,1,56.217,33.972ZM30.887,60.132a1.959,1.959,0,0,1-1.938,1.984H26.027a1.924,1.924,0,0,1-1.907-1.984v-2.2a4.76,4.76,0,0,0,1.907.338h4.86Zm39.679,0a1.989,1.989,0,0,1-1.984,1.984H65.66a2.015,2.015,0,0,1-2.015-1.984V58.271h4.937a5.136,5.136,0,0,0,1.984-.338Zm0-15.979v9.135A1.924,1.924,0,0,1,68.582,55.2H26.027a1.858,1.858,0,0,1-1.907-1.815V44.568A3.737,3.737,0,0,1,25.4,41.723l.031-.031L26.8,40.431H68.382l.938.969c.015.015.046.031.077.062A3.739,3.739,0,0,1,70.566,44.153Zm6.152-25.238A17.392,17.392,0,0,1,66.059,34.987l-1.461.631-1.246-.538A17.48,17.48,0,0,1,52.864,19.1V9.718L64.6,3.274,76.717,9.734Z" transform="translate(-21.028 0)" stroke="#fff" stroke-width="0.5"/>
        </g>
      </g>
      <g id="Group_5204" data-name="Group 5204" transform="translate(36.572 14.967)">
        <g id="Group_5203" data-name="Group 5203">
          <path id="Path_6534" data-name="Path 6534" d="M273.513,97.88a1.539,1.539,0,0,0-2.169-.215l-7.2,5.86-2.614-3.061a1.538,1.538,0,1,0-2.338,2l3.583,4.2.046.046c.015.015.031.046.062.062s.046.046.061.062.046.031.061.046a.338.338,0,0,0,.077.046c.015.015.046.031.062.046.031.015.046.031.077.046a.116.116,0,0,0,.062.031.218.218,0,0,0,.092.031c.015.015.046.015.061.031.031.015.062.015.092.031.015,0,.046.015.062.015.031,0,.062.015.092.015.015,0,.046.015.061.015h.338c.031,0,.077-.015.108-.015a.056.056,0,0,0,.046-.015c.031,0,.062-.015.092-.015.015,0,.031-.015.046-.015.031,0,.046-.015.077-.031.015,0,.031-.015.062-.015.015-.015.046-.015.062-.031s.031-.015.062-.031.046-.015.062-.031a.08.08,0,0,1,.062-.031.117.117,0,0,1,.062-.031c.015,0,.031-.031.061-.046.015-.015.031-.015.046-.031l8.367-6.8A1.539,1.539,0,0,0,273.513,97.88Z" transform="translate(-258.824 -97.315)" fill="#ff4612" stroke="#fff" stroke-width="0.5"/>
        </g>
      </g>
    </g>
  </g>
</svg>
