<svg xmlns="http://www.w3.org/2000/svg" width="80" height="80" viewBox="0 0 80 80">
  <g id="icon-micro-insurance" transform="translate(15252 -10774)">
    <rect id="Rectangle_633" data-name="Rectangle 633" width="80" height="80" transform="translate(-15252 10774)" fill="#fff"/>
    <g id="Page-1" transform="translate(-15245 10784.889)">
      <g id="_033---Insurance" data-name="033---Insurance" transform="translate(0 0)">
        <path id="Shape" d="M49.57,7.533,32.578.1a1.133,1.133,0,0,0-.906,0L14.68,7.533A1.133,1.133,0,0,0,14,8.571V26.356a12.477,12.477,0,0,0,5.166,10.091l11.744,8.47a2.073,2.073,0,0,0,2.431,0l11.744-8.469A12.477,12.477,0,0,0,50.25,26.357V8.571A1.133,1.133,0,0,0,49.57,7.533ZM47.984,26.357a10.205,10.205,0,0,1-4.225,8.254L32.125,43,20.491,34.61a10.205,10.205,0,0,1-4.225-8.254V9.312L32.125,2.37,47.984,9.312Z" transform="translate(1.839 -0.001)"/>
        <path id="Shape-2" data-name="Shape" d="M31.14,4.461,18.68,9.917A1.133,1.133,0,0,0,18,10.954V25.777a7.93,7.93,0,0,0,3.285,6.416l9.646,6.958a1.133,1.133,0,0,0,1.325,0L41.9,32.193a7.93,7.93,0,0,0,3.285-6.416V10.954a1.133,1.133,0,0,0-.68-1.038L32.047,4.461A1.133,1.133,0,0,0,31.14,4.461Zm11.781,7.233V25.777a5.664,5.664,0,0,1-2.345,4.579l-8.983,6.48-8.983-6.48a5.664,5.664,0,0,1-2.345-4.579V11.694L31.594,6.736Z" transform="translate(2.371 0.579)"/>
        <path id="Shape-3" data-name="Shape" d="M9.383,34.124,6.933,28.4A3.611,3.611,0,0,0,.325,31.315l4.439,9.766a12.031,12.031,0,0,0,2.459,3.55l6.981,6.983a2.252,2.252,0,0,0-.614,1.541v9.062a2.266,2.266,0,0,0,2.266,2.266H28.318a2.266,2.266,0,0,0,2.266-2.266V53.155a2.266,2.266,0,0,0-2.266-2.266V48.781a11.87,11.87,0,0,0-2.483-7.42,8.156,8.156,0,0,0-3.776-2.754,22.408,22.408,0,0,1-6.485-4.162A5.211,5.211,0,0,0,9.383,34.124ZM28.318,62.217H15.857V53.155H28.318ZM24.066,42.776a9.612,9.612,0,0,1,1.986,6v2.108H16.685L8.826,43.03a9.8,9.8,0,0,1-2-2.885L2.387,30.379a1.346,1.346,0,1,1,2.463-1.087L7.384,35.2a13.368,13.368,0,0,0,2.857,4.22L15.415,44.6a1.133,1.133,0,1,0,1.6-1.6l-5.175-5.176a11.173,11.173,0,0,1-1.4-1.7,2.945,2.945,0,0,1,3.669.061,24.15,24.15,0,0,0,7.227,4.577A5.951,5.951,0,0,1,24.066,42.776Z" transform="translate(-0.017 3.485)"/>
        <path id="Shape-4" data-name="Shape" d="M22.266,53H21.133a1.133,1.133,0,0,0,0,2.266h1.133a1.133,1.133,0,0,0,0-2.266Z" transform="translate(2.636 7.038)"/>
        <path id="Shape-5" data-name="Shape" d="M58.819,41.087l4.439-9.766A3.611,3.611,0,1,0,56.652,28.4l-2.445,5.7a5.225,5.225,0,0,0-6.2.34,22.407,22.407,0,0,1-6.485,4.162,8.156,8.156,0,0,0-3.776,2.754,11.87,11.87,0,0,0-2.483,7.423V50.9A2.266,2.266,0,0,0,33,53.161v9.062a2.266,2.266,0,0,0,2.266,2.266H47.726a2.266,2.266,0,0,0,2.266-2.266V53.161a2.252,2.252,0,0,0-.614-1.541l6.981-6.983A12.03,12.03,0,0,0,58.819,41.087ZM47.726,62.223H35.266V53.161H47.726ZM46.9,50.9H37.531V48.787a9.612,9.612,0,0,1,1.986-6,5.955,5.955,0,0,1,2.719-2.02,24.14,24.14,0,0,0,7.228-4.577,2.945,2.945,0,0,1,3.676-.071,11.107,11.107,0,0,1-1.4,1.711L46.562,43a1.133,1.133,0,0,0,1.6,1.6l5.175-5.176a13.367,13.367,0,0,0,2.857-4.22L58.729,29.3a1.346,1.346,0,1,1,2.463,1.089l-4.439,9.766a9.8,9.8,0,0,1-2,2.885Z" transform="translate(4.363 3.479)"/>
        <path id="Shape-6" data-name="Shape" d="M39.266,53H38.133a1.133,1.133,0,0,0,0,2.266h1.133a1.133,1.133,0,1,0,0-2.266Z" transform="translate(4.894 7.038)"/>
        <path id="Shape-7" data-name="Shape" d="M24.812,22.422a1.133,1.133,0,0,0-1.359,1.812l4.531,3.4a1.133,1.133,0,0,0,.68.227,1.218,1.218,0,0,0,.191-.016,1.133,1.133,0,0,0,.751-.488l9.062-13.594A1.133,1.133,0,0,0,36.784,12.5l-8.4,12.6Z" transform="translate(3.035 1.593)" fill="#ff4612"/>
      </g>
    </g>
  </g>
</svg>
