<svg xmlns="http://www.w3.org/2000/svg" width="80" height="80" viewBox="0 0 80 80">
  <g id="icon-travel-insurance" transform="translate(15636 -10774)">
    <rect id="Rectangle_629" data-name="Rectangle 629" width="80" height="80" transform="translate(-15636 10774)" fill="#fff"/>
    <g id="_002-airplane" data-name="002-airplane" transform="translate(-15634.999 10804.272)">
      <path id="Path_6535" data-name="Path 6535" d="M77.112,107.852a6.431,6.431,0,0,0-3.347-3.653,23.283,23.283,0,0,0-17.92-.782L49.7,105.653,32.157,96.971a2.272,2.272,0,0,0-1.784-.1L19.9,100.685a2.271,2.271,0,0,0-.549,3.977l11.115,7.991-15.447,5.622-5.732-4.648a2.271,2.271,0,0,0-2.207-.37l-5.586,2.033A2.271,2.271,0,0,0,.138,118.2L3.7,127.976a12.673,12.673,0,0,0,16.243,7.574L33.548,130.6l-2.935,11.523a2.271,2.271,0,0,0,2.977,2.694L44.063,141a2.271,2.271,0,0,0,1.3-1.222L52.4,123.736l20.844-7.587a6.481,6.481,0,0,0,3.869-8.3ZM25.49,103.483l5.523-2.01L43.8,107.8l-8.168,2.973Zm46.2,8.4L49.932,119.8a2.271,2.271,0,0,0-1.3,1.222L41.6,137.067l-5.523,2.01,2.935-11.523a2.271,2.271,0,0,0-2.977-2.694l-17.646,6.423a8.132,8.132,0,0,1-10.423-4.86l-2.781-7.641,2.244-.817,5.732,4.648a2.272,2.272,0,0,0,2.207.37l42.033-15.3a18.77,18.77,0,0,1,14.448.631,1.933,1.933,0,0,1-.156,3.568Z" transform="translate(-0.001 -96.736)" stroke="#fff" stroke-width="1.75"/>
    </g>
  </g>
</svg>
