<svg xmlns="http://www.w3.org/2000/svg" width="80" height="80" viewBox="0 0 80 80">
  <g id="icon-takaful" transform="translate(15732 -10774)">
    <rect id="Rectangle_628" data-name="Rectangle 628" width="80" height="80" transform="translate(-15732 10774)" fill="#fff"/>
    <g id="Group_7374" data-name="Group 7374" transform="translate(-15723.962 10785.889)">
      <path id="Path_6521" data-name="Path 6521" d="M-25.616-279.5a1.369,1.369,0,0,1-.756-1.457c.028-2.071.01-4.142.01-6.214,0-4.5-1.148-6.009-5.525-7.176-1.059-.283-2.148-.457-3.224-.676a1.018,1.018,0,0,1-.784-.619,2.855,2.855,0,0,1,1.239-3.565,4.187,4.187,0,0,0,2.264-2.412c.973-3.119,1.1-8.66-2.179-10.288a6.252,6.252,0,0,0-6.15,0,5.365,5.365,0,0,0-2.766,5.032,16.44,16.44,0,0,0,.251,4.549,5,5,0,0,0,3.022,3.352c1.513.656.68,2.022.8,3.071.07.634-.555.814-1.128.954-1.476.361-2.94.769-4.4,1.184a1.016,1.016,0,0,1-1.4-.613.967.967,0,0,1,.674-1.364c1.315-.413,2.65-.764,3.975-1.147.081-.024.2-.093.207-.158a.284.284,0,0,0-.118-.239,6.948,6.948,0,0,1-3.939-6.187c-.142-3.043-.432-6.157,1.86-8.711a8.23,8.23,0,0,1,8.865-2.138,7.59,7.59,0,0,1,5.061,7.133c.056,2.86.329,5.788-1.769,8.193a7.4,7.4,0,0,1-2.143,1.677c-.086.046-.128.174-.19.264a.926.926,0,0,0,.256.157c3.012.648,5.975,1.406,8.081,3.912a5.365,5.365,0,0,1,1.258,3.491c.022,2.975.007,5.949.01,8.924a1.138,1.138,0,0,1-.793,1.078Z" transform="translate(89.307 344.853)" stroke="#000" stroke-width="0.7"/>
      <path id="Path_6522" data-name="Path 6522" d="M-63.395-271.007c-.764-.331-.708-1-.766-1.68-.244-2.8-2.426-3.547-4.624-4.2-2.479-.733-3.152-1.875-2.536-4.5a1.205,1.205,0,0,1,.692-.8,3.687,3.687,0,0,0,2.173-3.826c-.121-1.808.293-3.7-1.006-5.281a4.988,4.988,0,0,0-5.454-1.369,4.449,4.449,0,0,0-2.966,4.475c-.006.9.036,1.809-.009,2.71a2.971,2.971,0,0,0,2.2,3.337.983.983,0,0,1,.686,1c.089,3.424.088,3.416-3.128,4.379-2.392.716-4.252,1.89-4.081,4.808.028.476-.363.749-.769.944h-.564c-1.225-.649-.816-1.764-.626-2.678.751-3.616,3.62-4.7,6.734-5.448.119-.028.321-.154.313-.2-.068-.4.278-.968-.162-1.194a4.664,4.664,0,0,1-2.684-4.509c.017-2.01-.3-4.057.51-6a6.762,6.762,0,0,1,7.685-3.893,6.5,6.5,0,0,1,5.42,6.744c.006,2.573.447,5.312-2.128,7.089a1.5,1.5,0,0,0-.762,1.557c.031.307.119.393.4.464,2.763.7,5.36,1.646,6.49,4.632a6.065,6.065,0,0,1,.312,2.475,1.125,1.125,0,0,1-.785.965Z" transform="translate(105.635 336.357)" stroke="#000" stroke-width="0.7"/>
      <path id="Path_6523" data-name="Path 6523" d="M-120.058-252.954a.152.152,0,0,0-.005-.051.307.307,0,0,1,.461,0,.151.151,0,0,0,0,.051Z" transform="translate(120.979 318.304)" stroke="#000" stroke-width="0.7"/>
      <path id="Path_6524" data-name="Path 6524" d="M-7.165-320.605l-.05-.345.05.006Z" transform="translate(72.436 347.487)" stroke="#000" stroke-width="0.7"/>
      <path id="Path_6525" data-name="Path 6525" d="M-120.294-277.506h-.461a.921.921,0,0,1-.8-.872c.015-2.528-.367-5.1.175-7.574.712-3.246,3.412-4.484,6.224-5.443.948-.323,1.944-.5,2.916-.757a1.148,1.148,0,0,0,.279-.168c-.066-.1-.109-.236-.2-.291a7.492,7.492,0,0,1-3.9-6.635c-.074-2.819-.26-5.665,1.758-8.06a8.264,8.264,0,0,1,8.923-2.3,7.594,7.594,0,0,1,5.129,7.106c.043,2.827.307,5.709-1.742,8.092a8.163,8.163,0,0,1-2.159,1.8c-.093.053-.14.189-.209.286a.985.985,0,0,0,.271.174c.539.13,1.086.228,1.621.368a1,1,0,0,1,.827,1.287,1,1,0,0,1-1.327.765c-.819-.162-1.634-.353-2.456-.5a1.194,1.194,0,0,1-1.059-1.261,2.8,2.8,0,0,1,1.686-3.281,4.508,4.508,0,0,0,2.4-4.135c.067-2.533.541-5.182-1.488-7.313a6.2,6.2,0,0,0-6.562-1.316,5.456,5.456,0,0,0-3.511,5.155c.009,2.168-.381,4.417,1.058,6.355a4.347,4.347,0,0,0,1.915,1.624c1.788.645,1.087,2.122,1.078,3.274-.008.986-1.039.876-1.735,1.02a14.29,14.29,0,0,0-6.149,2.37,4.065,4.065,0,0,0-1.675,3.437c.029,1.892.009,3.785.006,5.677A1.052,1.052,0,0,1-120.294-277.506Z" transform="translate(121.671 342.806)" stroke="#000" stroke-width="0.7"/>
      <path id="Path_6526" data-name="Path 6526" d="M-117.87-315.868h0Z" transform="translate(120.036 345.301)" stroke="#000" stroke-width="0.7"/>
      <path id="Path_6527" data-name="Path 6527" d="M-121.492-321.133l-.042.292Z" transform="translate(121.612 347.566)" stroke="#000" stroke-width="0.7"/>
      <path id="Path_6528" data-name="Path 6528" d="M-121.5-341.087a19.541,19.541,0,0,1,5.544-11.077,39.838,39.838,0,0,1,21.8-11.988c.87-.178,1.759-.263,2.638-.39.112-.047.238.014.349-.042l.328-.015c.134-.046.279.014.413-.04l.431-.022a12.193,12.193,0,0,0,.028-1.315,5.411,5.411,0,0,1,.018-.7.951.951,0,0,1,1.121-.84c.583.041,1.058.432.949.979-.351,1.774.585,1.871,2.031,2.113,11.929,1.991,21.805,7.243,27.92,18.19a13.372,13.372,0,0,1,1.524,5.25c.059.109-.02.238.05.345v.735c-1.561,2.548-3.319,2.507-5.082.023-1.165-1.641-3.059-1.933-4.911-2.034a8.236,8.236,0,0,0-6.156,1.829,2.156,2.156,0,0,1-2.994-.149c-2.807-2.43-9.663-2.233-12.282.379a.482.482,0,0,0-.068.308q-.005,4.518,0,9.038c0,.716-.329,1.184-1.063,1.18-.718,0-1.043-.464-1.042-1.17,0-2.956-.013-5.912.01-8.868.006-.679-.584-.785-.936-1.061-2.736-2.14-8.905-1.968-11.586.239a2.262,2.262,0,0,1-3.183-.069c-2.424-2.127-7.768-2.271-10.281-.245-.819.66-.976,1.934-2.121,2.29l-.566.126a3.875,3.875,0,0,1-.841,0,2.294,2.294,0,0,1-2.088-2.708C-121.485-340.886-121.54-340.993-121.5-341.087Zm31.555-25.589q-.023,1.007-.047,2.014Zm-.891,2.076.413-.04Zm-.678.057.349-.042Zm18.368,17.827a.992.992,0,0,1-.841,1.3.986.986,0,0,1-1.221-.88,23.042,23.042,0,0,0-10.8-15.251,5.106,5.106,0,0,0-5.872,0,23.036,23.036,0,0,0-10.8,15.251.984.984,0,0,1-1.223.877,1,1,0,0,1-.839-1.3,23.619,23.619,0,0,1,3.5-8.62,26.5,26.5,0,0,1,5.766-6.345c-.21.042-.289.054-.366.075a38.96,38.96,0,0,0-16.19,8.594c-3.768,3.356-6.785,7.211-7.38,12.474-.029.256.07.349.3.353.795.012.738-.779,1.067-1.184,2.69-3.307,10.377-3.635,13.706-.548.194.18.348.274.6.066,3.594-2.977,10.985-2.945,14.548.059a.329.329,0,0,0,.493,0c3.586-3,10.975-3.036,14.558-.078.1.084.362.136.433.073a9.228,9.228,0,0,1,6.574-2.233c3.144.043,6.152.522,7.895,3.673.07.126.412.121.629.128.041,0,.136-.239.127-.361a12.821,12.821,0,0,0-1.328-4.723c-2.938-5.914-7.86-9.763-13.482-12.855a37.346,37.346,0,0,0-9.091-3.53A25.533,25.533,0,0,1-73.143-346.715Z" transform="translate(121.617 367.52)" fill="#ff4612" stroke="#ff4612" stroke-width="0.7"/>
    </g>
  </g>
</svg>
