<svg xmlns="http://www.w3.org/2000/svg" width="80" height="80" viewBox="0 0 80 80">
  <g id="icon-health-insurance" transform="translate(15540 -10774)">
    <rect id="Rectangle_630" data-name="Rectangle 630" width="80" height="80" transform="translate(-15540 10774)" fill="#fff"/>
    <g id="Group_7375" data-name="Group 7375" transform="translate(-15532 10785.889)">
      <path id="Path_6536" data-name="Path 6536" d="M68.6,48.149a8.013,8.013,0,0,0-6.786-6.786V39.282c0-5.742-4.365-10.417-9.73-10.417-5.211,0-9.573,4.533-9.73,10.106h.066l-.066.011V61.541c0,7.212-5.392,13.068-12.02,13.068s-12.02-5.864-12.02-13.068V59.587c1.66,0,3.434-1.2,3.434-4.579V52.129C29.1,50.251,34.342,43.942,34.342,36.79V34.4H32.052L32,19.5a5.729,5.729,0,0,0-4.709-5.6,3.416,3.416,0,1,0-.078,2.334,3.434,3.434,0,0,1,2.494,3.276L29.763,34.4H27.473v2.42a9.1,9.1,0,0,1-6.589,8.541,10.409,10.409,0,0,1-6.3,0,9.1,9.1,0,0,1-6.575-8.541V34.4H4.579V19.522a3.434,3.434,0,0,1,2.541-3.3A3.45,3.45,0,1,0,7.049,13.9a5.724,5.724,0,0,0-4.76,5.626V34.4H0v2.381c0,7.16,5.249,13.471,12.592,15.345v2.879c0,3.376,1.774,4.579,3.434,4.579v1.954c0,8.471,6.418,15.358,14.309,15.358S44.644,70,44.644,61.541v-22.5c.114-4.344,3.455-7.879,7.441-7.879,4.1,0,7.441,3.645,7.441,8.127v2.078A8.013,8.013,0,1,0,68.6,48.149ZM24.039,16.088a1.145,1.145,0,1,1,1.145-1.145A1.145,1.145,0,0,1,24.039,16.088ZM10.3,13.8a1.145,1.145,0,1,1-1.145,1.145A1.145,1.145,0,0,1,10.3,13.8ZM2.289,36.784v-.092H5.724v.13a11.374,11.374,0,0,0,8.171,10.718,12.738,12.738,0,0,0,7.69,0,11.376,11.376,0,0,0,8.178-10.718v-.13h2.289v.092c0,6.368-4.909,11.971-11.676,13.327a16.329,16.329,0,0,1-4.83.237,14.951,14.951,0,0,1-1.581-.239C7.2,48.756,2.289,43.152,2.289,36.784ZM16.026,57.3c-1.03,0-1.145-1.6-1.145-2.289V52.579c.092.011.185.016.278.025.114.013.229.022.343.032.541.048,1.087.08,1.638.081H17.2c.549,0,1.094-.033,1.632-.081.114-.01.236-.019.354-.032.09-.01.184-.014.275-.025v2.429c0,.687-.114,2.289-1.145,2.289ZM60.67,55.008a5.724,5.724,0,1,1,5.724-5.724A5.724,5.724,0,0,1,60.67,55.008Z" transform="translate(0 -11.508)" stroke="#000" stroke-width="0.5"/>
    </g>
  </g>
</svg>
