<svg xmlns="http://www.w3.org/2000/svg" width="80" height="80" viewBox="0 0 80 80">
  <g id="icon-roadside-coverage" transform="translate(15156 -10774)">
    <path id="Path_7754" data-name="Path 7754" d="M0,0H80V80H0Z" transform="translate(-15156 10774)" fill="#fff"/>
    <g id="Group_7378" data-name="Group 7378" transform="translate(-15145.527 10783.889)">
      <path id="Path_2784" data-name="Path 2784" d="M576.528,317.495s18.2.683,28.669-5.461c0,0,15.017,7.395,28.327,5.8,0,0,4.437,15.927-2.5,32.2,0,0-6.6,18.771-25.825,29.01,0,0-16.041-8.077-24.346-24.346C580.851,354.7,572.2,340.02,576.528,317.495Z" transform="translate(-575.317 -312.034)" fill="none" stroke="#000" stroke-width="2.5"/>
      <g id="Group_4255" data-name="Group 4255" transform="translate(14.379 19.412)">
        <path id="Path_2739" data-name="Path 2739" d="M117.392,167.514a.594.594,0,0,0,.061-.493l-1.885-5.963a1.016,1.016,0,0,0-.944-.746H99.978a1.016,1.016,0,0,0-.944.746l-1.885,5.963a.541.541,0,0,0,.457.721H117A.472.472,0,0,0,117.392,167.514Zm-19.1-.853,1.657-5.242a.034.034,0,0,1,.03-.024h14.646a.034.034,0,0,1,.03.024l1.657,5.242Z" transform="translate(-91.312 -158.582)" fill="#ff4612" stroke="#ff4612" stroke-width="0.2"/>
        <path id="Path_2740" data-name="Path 2740" d="M351.687,354.961c0,1.274,1.348,2.272,3.069,2.272s3.069-1,3.069-2.272-1.348-2.272-3.069-2.272S351.687,353.687,351.687,354.961Zm5.168,0c0,.562-.9,1.19-2.1,1.19s-2.1-.628-2.1-1.19.9-1.19,2.1-1.19S356.855,354.4,356.855,354.961Z" transform="translate(-329.464 -337.108)" fill="#ff4612" stroke="#ff4612" stroke-width="0.2"/>
        <path id="Path_2741" data-name="Path 2741" d="M66.192,352.689c-1.721,0-3.069,1-3.069,2.272s1.348,2.272,3.069,2.272,3.069-1,3.069-2.272S67.912,352.689,66.192,352.689Zm0,3.462c-1.2,0-2.1-.628-2.1-1.19s.9-1.19,2.1-1.19,2.1.628,2.1,1.19S67.393,356.151,66.192,356.151Z" transform="translate(-59.505 -337.108)" fill="#ff4612" stroke="#ff4612" stroke-width="0.2"/>
        <path id="Path_2742" data-name="Path 2742" d="M38.507,143.768H35.923a.5.5,0,0,0-.47.41l-.34,1.52-2.38-7.531a2.59,2.59,0,0,0-2.406-1.9H15.68a2.59,2.59,0,0,0-2.406,1.9l-2.38,7.531-.34-1.52a.5.5,0,0,0-.47-.41H7.5a.515.515,0,0,0-.484.541v2.308a.515.515,0,0,0,.484.541h2.676L8.523,149.74a3.064,3.064,0,0,0-.475,1.656v6.762a2.966,2.966,0,0,0,1.034,2.289c0,.006,0,.013,0,.019V162.2a1.066,1.066,0,0,0,1,1.118h3.1a1.066,1.066,0,0,0,1-1.118v-1.19H31.821v1.19a1.066,1.066,0,0,0,1,1.118h3.1a1.066,1.066,0,0,0,1-1.118v-1.731c0-.006,0-.013,0-.019a2.966,2.966,0,0,0,1.034-2.289V151.4a3.064,3.064,0,0,0-.475-1.656l-1.652-2.582h2.676a.515.515,0,0,0,.484-.541v-2.308A.515.515,0,0,0,38.507,143.768ZM7.983,146.076V144.85H9.7l.275,1.226Zm10.853,8.007h8.333v1.226H18.836ZM18.912,153a1.614,1.614,0,0,1,1.507-1.226h5.168A1.614,1.614,0,0,1,27.093,153Zm-.076,3.39h8.333v1.226H18.836ZM36.913,158.7a1.614,1.614,0,0,1-1.507,1.226H10.6A1.614,1.614,0,0,1,9.093,158.7Zm-23.7,3.5a.034.034,0,0,1-.032.036h-3.1a.034.034,0,0,1-.032-.036v-1.19h3.165Zm22.739-1.19v1.19a.034.034,0,0,1-.032.036h-3.1a.034.034,0,0,1-.032-.036v-1.19h3.165Zm1.034-9.611v6.221h-8.85v-4.075a2.716,2.716,0,0,0-2.552-2.849H20.419a2.716,2.716,0,0,0-2.552,2.849v4.075H9.017V151.4a1.9,1.9,0,0,1,.295-1.027l2.054-3.211H29.2a.544.544,0,0,0,0-1.082H11.8l2.386-7.549a1.607,1.607,0,0,1,1.493-1.179H30.326a1.607,1.607,0,0,1,1.493,1.179l2.386,7.549H31.272a.544.544,0,0,0,0,1.082H34.64l2.054,3.211A1.9,1.9,0,0,1,36.989,151.4Zm1.034-5.32h-2l.275-1.226h1.721Z" transform="translate(-7.014 -136.266)" fill="#ff4612" stroke="#ff4612" stroke-width="0.2"/>
      </g>
    </g>
  </g>
</svg>
