<svg xmlns="http://www.w3.org/2000/svg" width="128" height="128.59" viewBox="0 0 128 128.59">
  <g id="Group_6081" data-name="Group 6081" transform="translate(-1120 -1180)">
    <path id="Path_7114" data-name="Path 7114" d="M0,0H128V128H0Z" transform="translate(1120 1180)" fill="#fff"/>
    <g id="Group_6070" data-name="Group 6070" transform="translate(1163.464 1218.929)">
      <path id="Path_3057" data-name="Path 3057" d="M32.977,96.989H62.092c4.122,0,6.4-3.463,6.4-7.721v-46.5c0-4.257-2.273-7.72-6.4-7.72H59.625V29.691a6.436,6.436,0,0,0-5.064-6.356V12.523a4.805,4.805,0,0,0-4.783-4.815H45.288A4.805,4.805,0,0,0,40.5,12.523V23.335a6.436,6.436,0,0,0-5.064,6.356v5.355H32.975c-4.124,0-6.4,3.463-6.4,7.72v46.5c0,4.258,2.276,7.722,6.4,7.722ZM45.289,9.939H49.78A2.607,2.607,0,0,1,52.4,12.523V23.211H42.665V12.523a2.607,2.607,0,0,1,2.623-2.584ZM37.6,29.691a4.187,4.187,0,0,1,4.113-4.249H53.356a4.186,4.186,0,0,1,4.111,4.249v5.355H37.6V29.691ZM28.741,42.766c0-3.027,1.306-5.489,4.236-5.489H62.092c2.933,0,4.235,2.463,4.235,5.489v46.5c0,3.027-1.3,5.49-4.235,5.49H32.977c-2.933,0-4.236-2.463-4.236-5.49Z" transform="translate(-26.578 -7.708)" stroke="#000" stroke-width="0.758"/>
      <path id="Path_3058" data-name="Path 3058" d="M43.18,17.16a1.1,1.1,0,0,0,1.08-1.117V13.254a1.081,1.081,0,1,0-2.16,0v2.789a1.1,1.1,0,0,0,1.081,1.115Z" transform="translate(-22.223 -6.465)" fill="#ff4612"/>
    </g>
  </g>
</svg>
