<svg xmlns="http://www.w3.org/2000/svg" width="129.126" height="128" viewBox="0 0 129.126 128">
  <g id="Group_6085" data-name="Group 6085" transform="translate(-1671.374 -1180)">
    <rect id="Rectangle_467" data-name="Rectangle 467" width="128" height="128" transform="translate(1672 1180)" fill="#fff"/>
    <g id="m_Landing_SignedOut_RepairTiles-_2404_" data-name="m_Landing_SignedOut_RepairTiles-[2404]" transform="translate(1671.874 1235.34)">
      <g id="Common-Repairs-and-Makes-Tiles" transform="translate(0 0)">
        <g id="Icon_Common-Repairs-and-Makes-Tile" data-name="Icon/Common-Repairs-and-Makes-Tile" transform="translate(0 0)">
          <g id="Icon_Common-Repairs_Engine-Tune-Up-24" data-name="Icon/Common-Repairs/Engine-Tune-Up-24" transform="translate(0 0)">
            <g id="Group" transform="translate(0)">
              <g id="noun_Engine_1596366" transform="translate(0)">
                <g id="Group_4394" data-name="Group 4394" transform="translate(0 0)">
                  <path id="Shape" d="M115.831,26.788v6.826H110L89.939,13.533H65.951V8.341H86.126a4.02,4.02,0,0,0,0-8.04H36.987a4.02,4.02,0,0,0,0,8.04H57.161v5.192H19.8l-6.692,7.406H7.49V32.926H2.179V52.211a.611.611,0,0,1-.611.611H.7a.611.611,0,0,1-.611-.611V39.542h0V20.257A.611.611,0,0,1,.7,19.645h.865a.611.611,0,0,1,.611.611V39.542H7.49V51.526h5.648L33.175,71.588h70.142l6.829-7.562h5.684v6.826h4.107c5.371,0,8.272-11.332,8.281-22.011V48.8c-.006-8.1-2.909-22.011-8.281-22.011ZM36.987,6.252a1.93,1.93,0,0,1,0-3.86H86.125a1.93,1.93,0,0,1,0,3.86H36.987Zm22.26,2.09h4.617v5.192H59.247Zm6.7,7.28H88.464V69.5H34.649V15.623h31.3ZM2.179,37.452V35.015H7.49v2.437Zm7.4,2.09V23.028h2.948V49.437H9.577Zm5.036-17.155,6.112-6.764h11.84v52.4L14.613,50.05ZM102.389,69.5H90.552V17.1L108.5,35.072V62.736Zm8.2-7.563V35.7h5.243V61.936Zm9.351,6.828h-2.022V28.877h2.022c2.929,0,6.19,8.19,6.2,19.944S122.866,68.764,119.938,68.764Z" transform="translate(-0.091 -0.301)" stroke="#000" stroke-width="1"/>
                </g>
                <g id="Group_4491" data-name="Group 4491" transform="translate(32.88)">
                  <path id="Shape-2" data-name="Shape" d="M70.539,8.341a4.02,4.02,0,0,0,0-8.04H21.4a4.02,4.02,0,0,0,0,8.04ZM21.4,6.252a1.93,1.93,0,0,1,0-3.86H70.538a1.93,1.93,0,0,1,0,3.86H21.4Z" transform="translate(-17.384 -0.301)" fill="#ff4612" stroke="#ff4612" stroke-width="1"/>
                </g>
              </g>
            </g>
          </g>
        </g>
      </g>
    </g>
  </g>
</svg>
