<svg id="Group_5242" data-name="Group 5242" xmlns="http://www.w3.org/2000/svg" width="43.35" height="43.35" viewBox="0 0 43.35 43.35">
  <path id="Path_6561" data-name="Path 6561" d="M42.732,186.837h-.795a.711.711,0,0,1-.669-.467c-.088-.231-.183-.457-.285-.681a.712.712,0,0,1,.144-.806l.566-.567a2.173,2.173,0,0,0,0-3.063l-2.042-2.042a2.172,2.172,0,0,0-3.063,0l-.566.566a.715.715,0,0,1-.806.144c-.224-.1-.45-.2-.682-.289a.71.71,0,0,1-.469-.67v-.795A2.167,2.167,0,0,0,31.895,176H29a2.167,2.167,0,0,0-2.167,2.167v.795a.711.711,0,0,1-.467.669c-.231.088-.457.183-.681.285a.714.714,0,0,1-.806-.144l-.567-.566a2.173,2.173,0,0,0-3.063,0l-2.042,2.048a2.173,2.173,0,0,0,0,3.063l.566.566a.712.712,0,0,1,.144.806c-.1.224-.2.45-.285.682a.71.71,0,0,1-.674.466h-.795A2.167,2.167,0,0,0,16,189v2.89a2.168,2.168,0,0,0,2.167,2.168h.795a.711.711,0,0,1,.669.467c.088.231.183.457.285.681a.712.712,0,0,1-.144.806l-.566.567a2.173,2.173,0,0,0,0,3.063l2.042,2.042a2.173,2.173,0,0,0,3.063,0l.566-.566a.715.715,0,0,1,.806-.145c.224.1.45.2.682.289a.71.71,0,0,1,.473.67v.795A2.167,2.167,0,0,0,29,204.9h2.89a2.167,2.167,0,0,0,2.167-2.168v-.795a.711.711,0,0,1,.467-.669c.231-.088.457-.183.681-.285a.714.714,0,0,1,.806.144l.567.566a2.173,2.173,0,0,0,3.063,0l2.042-2.042a2.172,2.172,0,0,0,0-3.063l-.566-.566a.712.712,0,0,1-.145-.806c.1-.224.2-.45.289-.682a.71.71,0,0,1,.67-.469h.795a2.167,2.167,0,0,0,2.167-2.168V189A2.167,2.167,0,0,0,42.732,186.837Zm.722,5.057a.723.723,0,0,1-.722.723h-.795a2.175,2.175,0,0,0-2.023,1.4q-.115.3-.249.6a2.174,2.174,0,0,0,.433,2.425l.565.566a.723.723,0,0,1,0,1.022h0l-2.042,2.042a.722.722,0,0,1-1.022,0l-.566-.566a2.172,2.172,0,0,0-2.425-.434c-.2.089-.4.172-.6.249a2.174,2.174,0,0,0-1.4,2.022v.795a.723.723,0,0,1-.722.723H29a.723.723,0,0,1-.722-.723v-.795a2.175,2.175,0,0,0-1.4-2.023q-.3-.115-.6-.249a2.175,2.175,0,0,0-2.425.433l-.566.565a.722.722,0,0,1-1.022,0h0l-2.042-2.04a.722.722,0,0,1,0-1.022l.566-.566a2.174,2.174,0,0,0,.433-2.425c-.089-.2-.172-.4-.249-.6a2.174,2.174,0,0,0-2.022-1.4h-.795a.723.723,0,0,1-.722-.723V189a.723.723,0,0,1,.722-.723h.795a2.175,2.175,0,0,0,2.023-1.4q.115-.3.249-.6a2.174,2.174,0,0,0-.434-2.425l-.568-.566a.722.722,0,0,1,0-1.022h0l2.042-2.042a.723.723,0,0,1,1.022,0l.566.566a2.172,2.172,0,0,0,2.425.434c.2-.089.4-.172.6-.249a2.174,2.174,0,0,0,1.4-2.022v-.795a.723.723,0,0,1,.722-.722h2.89a.723.723,0,0,1,.722.722v.795a2.175,2.175,0,0,0,1.4,2.023q.3.115.6.249a2.172,2.172,0,0,0,2.425-.433l.566-.565a.727.727,0,0,1,1.022,0l2.042,2.042a.723.723,0,0,1,0,1.022l-.566.566a2.174,2.174,0,0,0-.433,2.425c.089.2.172.4.249.6a2.174,2.174,0,0,0,2.022,1.4h.795a.723.723,0,0,1,.722.723Z" transform="translate(-16 -161.55)"/>
  <path id="Path_6562" data-name="Path 6562" d="M116.953,270.214c-.007-.173-.02-.346-.04-.518s-.051-.368-.089-.548c-.025-.118-.059-.234-.09-.351q-.061-.223-.137-.44c-.035-.1-.072-.2-.11-.3a6.423,6.423,0,0,0-.319-.676c-.009-.017-.015-.035-.025-.051a6.4,6.4,0,0,0-.65-.947c-.021-.026-.045-.051-.066-.076-.1-.118-.2-.232-.31-.341-.056-.059-.116-.113-.175-.17s-.145-.134-.217-.2q-.132-.114-.268-.221l-.118-.088A6.456,6.456,0,0,0,110.465,264c-.072,0-.145.011-.217.014-.154,0-.309.013-.464.029-.082.009-.164.018-.246.03a6.607,6.607,0,0,0-.7.131,6.506,6.506,0,0,0,.005,12.6.161.161,0,0,1,.036.006,6.864,6.864,0,0,0,.757.144c.168.021.337.025.506.033.113.006.217.022.335.022.206,0,.42-.014.638-.035a.715.715,0,0,0,.072-.009c.176-.02.353-.046.535-.082.072-.014.139-.032.209-.048.127-.03.254-.061.384-.1.1-.03.2-.066.3-.1s.2-.072.3-.111.189-.084.282-.127c.121-.056.242-.111.361-.176h0a8.555,8.555,0,0,0,1.852-1.337,2.279,2.279,0,0,0,.387-.474,7.713,7.713,0,0,0,1.088-2.969c.02-.139.038-.279.049-.421s.017-.261.02-.391c0-.041.006-.08.006-.121C116.967,270.406,116.957,270.312,116.953,270.214ZM109.2,265.6a5.232,5.232,0,0,1,1.269-.159,5.014,5.014,0,0,1,.618.042c.055.007.109.017.163.025.156.025.311.056.463.095.05.013.1.025.149.038a5.1,5.1,0,0,1,1.1.464c.056.033.11.066.165.1.114.072.225.145.334.227.059.043.118.085.174.13a5.227,5.227,0,0,1,.407.361c.051.052.1.109.148.163.083.09.164.183.241.28.053.067.1.137.155.207.072.1.145.212.21.322l.109.18a4.952,4.952,0,0,1,.249.53c.029.072.053.144.079.217.047.133.087.267.123.4.018.072.038.137.053.207a5.089,5.089,0,0,1,.092.592c0,.053,0,.106.008.159.01.166.013.333.007.5,0,.06-.005.12-.009.179-.013.175-.035.35-.065.525a5.068,5.068,0,0,1-2.539,3.54c-.09.047-.178.091-.266.132l-.06.029a5.22,5.22,0,0,1-1.318.4l-.1.015c-.09.013-.179.024-.267.032-.116.01-.233.016-.353.018h-.151a5.045,5.045,0,0,1-.512-.032l-.087-.01a5.327,5.327,0,0,1-.59-.111,5.057,5.057,0,0,1-.005-9.8Z" transform="translate(-96.015 -241.603)" fill="#ff4612"/>
  <path id="Path_6563" data-name="Path 6563" d="M136.563,31.172h-2.272a.705.705,0,0,1-.673-.474,15.048,15.048,0,0,0-.811-1.959.707.707,0,0,1,.139-.816l1.611-1.613a2.168,2.168,0,0,0,0-3.064l-3.072-3.067a2.167,2.167,0,0,0-3.064,0l-1.61,1.61a.707.707,0,0,1-.815.139,15.009,15.009,0,0,0-1.959-.816.705.705,0,0,1-.477-.673V18.167A2.167,2.167,0,0,0,121.39,16h-4.335a2.167,2.167,0,0,0-2.167,2.167V20.44a.705.705,0,0,1-.474.673,15.055,15.055,0,0,0-1.959.815.706.706,0,0,1-.816-.139l-1.613-1.611a2.172,2.172,0,0,0-3.064,0L103.9,23.244a2.168,2.168,0,0,0,0,3.065l2.369,2.373a.722.722,0,0,0,1.023-1.02l-2.37-2.373a.722.722,0,0,1,0-1.022l3.066-3.066a.723.723,0,0,1,1.022,0l1.614,1.611a2.148,2.148,0,0,0,2.483.407,13.667,13.667,0,0,1,1.771-.736,2.149,2.149,0,0,0,1.46-2.045V18.167a.723.723,0,0,1,.723-.722h4.335a.723.723,0,0,1,.722.722V20.44a2.149,2.149,0,0,0,1.46,2.044,13.628,13.628,0,0,1,1.772.737,2.153,2.153,0,0,0,2.482-.408l1.614-1.61a.723.723,0,0,1,1.022,0l3.066,3.067a.722.722,0,0,1,0,1.021L131.917,26.9a2.15,2.15,0,0,0-.407,2.482,13.664,13.664,0,0,1,.736,1.771,2.149,2.149,0,0,0,2.045,1.46h2.272a.723.723,0,0,1,.723.722v4.335a.723.723,0,0,1-.723.722h-2.272a2.149,2.149,0,0,0-2.044,1.46,13.627,13.627,0,0,1-.737,1.772,2.151,2.151,0,0,0,.408,2.482l1.611,1.614a.722.722,0,0,1,0,1.022l-3.068,3.066a.722.722,0,0,1-1.021,0l-2.374-2.369a.722.722,0,0,0-1.038,1.005l.018.018,2.373,2.369a2.167,2.167,0,0,0,3.064,0l3.066-3.066a2.168,2.168,0,0,0,0-3.065l-1.609-1.612a.708.708,0,0,1-.139-.815,15.013,15.013,0,0,0,.816-1.959.705.705,0,0,1,.673-.477h2.272a2.167,2.167,0,0,0,2.167-2.167V33.34A2.167,2.167,0,0,0,136.563,31.172Z" transform="translate(-95.381 -16)"/>
  <path id="Path_6564" data-name="Path 6564" d="M217.7,130.8a9.4,9.4,0,0,0-13.282,0,.722.722,0,0,0,1.022,1.022,7.947,7.947,0,0,1,11.314,11.164l-.075.075a.722.722,0,0,0,1,1.039l.018-.018A9.4,9.4,0,0,0,217.7,130.8Z" transform="translate(-187.22 -117.93)" fill="#ff4612"/>
</svg>
