<svg xmlns="http://www.w3.org/2000/svg" width="127" height="129" viewBox="0 0 127 129">
  <g id="Group_6060" data-name="Group 6060" transform="translate(-1022 -1203)">
    <g id="Group_6057" data-name="Group 6057" transform="translate(1022 1231.761)">
      <path id="Path_2819" data-name="Path 2819" d="M289.045,320.065h-7.277a1.935,1.935,0,1,0,0,3.87h7.277a1.935,1.935,0,1,0,0-3.87Z" transform="translate(-210.765 -255.072)"/>
      <path id="Path_2820" data-name="Path 2820" d="M81.963,378.183a6.209,6.209,0,1,0,6.209,6.209A6.216,6.216,0,0,0,81.963,378.183Zm0,8.549a2.339,2.339,0,1,1,2.339-2.34A2.342,2.342,0,0,1,81.963,386.732Z" transform="translate(-57.056 -298.846)"/>
      <path id="Path_2821" data-name="Path 2821" d="M417.325,378.183a6.209,6.209,0,1,0,6.21,6.209A6.216,6.216,0,0,0,417.325,378.183Zm0,8.549a2.339,2.339,0,1,1,2.339-2.34A2.342,2.342,0,0,1,417.325,386.732Z" transform="translate(-309.645 -298.846)"/>
      <path id="Path_2822" data-name="Path 2822" d="M196.771,94.47a18.864,18.864,0,1,0-18.864-18.864A18.885,18.885,0,0,0,196.771,94.47Zm0-33.858a14.994,14.994,0,1,1-14.994,14.994A15.011,15.011,0,0,1,196.771,60.612Z" transform="translate(-133.996 -56.742)" fill="#ff4612"/>
      <path id="Path_2823" data-name="Path 2823" d="M223.728,116.818a1.97,1.97,0,0,0,2.736,0l4.391-4.391,4.391,4.391a1.971,1.971,0,0,0,2.736,0,1.935,1.935,0,0,0,0-2.736l-4.391-4.391,4.391-4.391a1.935,1.935,0,1,0-2.736-2.736l-4.391,4.391-4.391-4.391a1.935,1.935,0,0,0-2.736,2.736l4.391,4.391-4.391,4.391A1.936,1.936,0,0,0,223.728,116.818Z" transform="translate(-168.081 -90.827)" fill="#ff4612"/>
      <path id="Path_2824" data-name="Path 2824" d="M40.578,60.168a9.6,9.6,0,0,0-2.141,18.954,8.669,8.669,0,0,0-.048.916A8.521,8.521,0,1,0,49.9,72.056a9.6,9.6,0,0,0-9.32-11.888Zm10.983,19.87a4.651,4.651,0,1,1-8.92-1.847,1.937,1.937,0,0,0-.186-1.861c-.56-.818-1.353-.792-2.232-.847a5.727,5.727,0,1,1,6.085-5.716,5.728,5.728,0,0,1-.71,2.762A1.935,1.935,0,0,0,47.181,75.4,4.651,4.651,0,0,1,51.561,80.038Z" transform="translate(-23.334 -59.322)"/>
      <path id="Path_2825" data-name="Path 2825" d="M15.606,238.514a5.73,5.73,0,1,0,5.73-5.73A5.736,5.736,0,0,0,15.606,238.514Zm5.73-1.861a1.86,1.86,0,1,1-1.86,1.861A1.862,1.862,0,0,1,21.336,236.654Z" transform="translate(-11.754 -189.334)"/>
      <path id="Path_2826" data-name="Path 2826" d="M33.254,180.129a5.73,5.73,0,1,0-5.73-5.73A5.736,5.736,0,0,0,33.254,180.129Zm0-7.59a1.86,1.86,0,1,1-1.86,1.86A1.862,1.862,0,0,1,33.254,172.539Z" transform="translate(-20.73 -141.043)"/>
      <path id="Path_2827" data-name="Path 2827" d="M107.679,278.42a12.833,12.833,0,0,0,11.784-7.784h4.972a1.935,1.935,0,0,0,1.935-1.935V256.054a18.874,18.874,0,0,0-.27-3.166c0-.021-.007-.043-.011-.065a18.643,18.643,0,0,0-6.53-11.2l-.052-.042a18.624,18.624,0,0,0-7.7-3.769l-7.69-7.346a25.628,25.628,0,0,0-17.779-7.127H71.426A53.391,53.391,0,0,0,49.32,228.1a1.935,1.935,0,0,0,1.592,3.528,49.539,49.539,0,0,1,20.514-4.42h9.866l1.559,11.533-47.8,1.855,8.9-5.221A1.935,1.935,0,0,0,42,232.036l-13.772,8.078L18.9,221.538a1.935,1.935,0,1,0-3.459,1.736l8.912,17.753-4.31.191a18.612,18.612,0,0,0-6.177,1.352c-.051.016-.1.032-.153.053a18.65,18.65,0,0,0-9.251,8.308,17.348,17.348,0,0,0-1.742,4.35L.259,263.244a5.705,5.705,0,0,0,5.451,7.392h7.411a12.812,12.812,0,0,0,23.568,0h59.2A12.833,12.833,0,0,0,107.679,278.42Zm8.925-12.233a8.942,8.942,0,0,1-17.78.65,8.766,8.766,0,0,1-.09-1.232,8.945,8.945,0,1,1,17.889,0Q116.623,265.9,116.6,266.188Zm.491-21.581.082.068q.548.458,1.05.968l.062.063a14.879,14.879,0,0,1,3.824,6.994,6.083,6.083,0,0,1-5.019-5.982Zm-30.754-17.4a21.774,21.774,0,0,1,15.106,6.055l4.785,4.571-19.5.757L85.2,227.208h1.143ZM7.289,253.947a14.913,14.913,0,0,1,5.367-6.382v.534a6.082,6.082,0,0,1-5.451,6.042C7.233,254.076,7.261,254.011,7.289,253.947ZM33.85,265.612a8.95,8.95,0,0,1-8.923,8.939h-.021a8.945,8.945,0,1,1,8.944-8.939Zm3.818,1.155c.034,0,.053-1.1.053-1.161a12.815,12.815,0,1,0-25.629,0c0,.387.018.776.053,1.161H5.71a1.836,1.836,0,0,1-1.754-2.379l1.969-6.368q.328.022.657.022a9.954,9.954,0,0,0,9.943-9.943v-2.223c0-.049,0-.1,0-.147a14.743,14.743,0,0,1,3.693-.643l7.3-.324,11.279-.438c-.727,4.581-1.733,14.625,1.668,22.444Zm31.418,0H44.773c-4.133-7.321-2.708-18.617-2.027-22.6L83.28,242.6c.233,4,.243,13.874-4.641,19.7A12.594,12.594,0,0,1,69.086,266.767Zm10.546,0a16.521,16.521,0,0,0,1.973-1.985c5.756-6.865,5.816-17.759,5.548-22.335l23.55-.914a14.734,14.734,0,0,1,2.747.858,9.96,9.96,0,0,0-.225,2.1v2.223a9.955,9.955,0,0,0,9.275,9.918v10.131H120.44c.009-.1.013-.194.02-.291s.013-.167.017-.252c.01-.206.016-.412.016-.618a12.815,12.815,0,1,0-25.629,0c0,.207.006.413.016.619,0,.083.011.165.017.248.006.1.011.2.02.294Z" transform="translate(0.001 -180.059)"/>
    </g>
    <rect id="Rectangle_452" data-name="Rectangle 452" width="127" height="129" transform="translate(1022 1203)" fill="none"/>
  </g>
</svg>
