<svg xmlns="http://www.w3.org/2000/svg" width="128" height="128.56" viewBox="0 0 128 128.56">
  <g id="Group_6094" data-name="Group 6094" transform="translate(-1349 -1189)">
    <rect id="Rectangle_472" data-name="Rectangle 472" width="128" height="128" transform="translate(1349 1189)" fill="#fff"/>
    <g id="_004-car" data-name="004-car" transform="translate(1377.055 1220.063)">
      <path id="Path_6538" data-name="Path 6538" d="M134.379,78.7a41.351,41.351,0,0,0-10.184-3.056c1.171-1.213,2.369-2.51,3.569-3.887a78.59,78.59,0,0,0,11.371-16.7,47.213,47.213,0,0,0,5.241-20.871,34.188,34.188,0,1,0-68.376,0A47.214,47.214,0,0,0,81.241,55.06a78.591,78.591,0,0,0,11.371,16.7c1.2,1.377,2.4,2.674,3.569,3.887A41.352,41.352,0,0,0,86,78.7c-5.123,2.445-6.2,5.235-6.2,7.146,0,2.419,1.673,5.86,9.643,8.517a68.188,68.188,0,0,0,20.746,2.879,68.189,68.189,0,0,0,20.746-2.879c7.97-2.657,9.643-6.1,9.643-8.517,0-1.91-1.075-4.7-6.2-7.146ZM79.8,34.188a30.389,30.389,0,1,1,60.779,0c0,14.1-8.494,26.823-15.62,35.012a104.777,104.777,0,0,1-14.769,13.9A104.791,104.791,0,0,1,95.419,69.2C88.293,61.011,79.8,48.29,79.8,34.188Zm49.934,56.575a64.365,64.365,0,0,1-19.545,2.684,64.364,64.364,0,0,1-19.545-2.684c-5.2-1.734-7.046-3.73-7.046-4.913,0-1.973,4.95-5.371,15.923-6.89,1.625,1.545,3.138,2.889,4.461,4.015-2.015.7-3.29,1.726-3.29,2.875,0,2.1,4.253,3.8,9.5,3.8s9.5-1.7,9.5-3.8c0-1.149-1.275-2.179-3.29-2.875,1.322-1.126,2.836-2.47,4.461-4.015,10.973,1.518,15.923,4.916,15.923,6.89,0,1.183-1.845,3.18-7.046,4.913Z" transform="translate(-76)" stroke="#fff" stroke-width="0.5"/>
      <path id="Path_6539" data-name="Path 6539" d="M169.181,66.591a26.591,26.591,0,1,0-26.591,26.591A26.621,26.621,0,0,0,169.181,66.591Zm-49.383,0a22.792,22.792,0,1,1,22.792,22.792A22.818,22.818,0,0,1,119.8,66.591Z" transform="translate(-108.403 -32.403)" stroke="#fff" stroke-width="0.5"/>
      <path id="Path_6540" data-name="Path 6540" d="M178.792,122.792v3.8a3.8,3.8,0,0,0,3.8,3.8h3.8a3.8,3.8,0,0,0,3.8-3.8V114.082l3.242-3.242a1.9,1.9,0,1,0-2.686-2.686l-1.935,1.935-4.519-9.039a1.9,1.9,0,0,0-1.7-1.05H167.4a1.9,1.9,0,0,0-1.7,1.05l-4.519,9.039-1.935-1.935a1.9,1.9,0,0,0-2.686,2.686l3.242,3.242v12.508a3.8,3.8,0,0,0,3.8,3.8h3.8a3.8,3.8,0,0,0,3.8-3.8v-3.8Zm-15.195-7.6h3.8v3.8h-3.8Zm15.195,0v3.8h-7.6v-3.8Zm7.6,0v3.8h-3.8v-3.8Zm-3.8,11.4v-3.8h3.8v3.8ZM168.57,103.8h12.847l3.8,7.6H164.771ZM163.6,126.591v-3.8h3.8v3.8Z" transform="translate(-140.805 -81.007)" fill="#ff4612" stroke="#fff" stroke-width="0.5"/>
    </g>
  </g>
</svg>
