<svg xmlns="http://www.w3.org/2000/svg" width="128" height="128.429" viewBox="0 0 128 128.429">
  <g id="Group_6079" data-name="Group 6079" transform="translate(-844 -1180)">
    <path id="Path_7112" data-name="Path 7112" d="M0,0H128V128H0Z" transform="translate(844 1180)" fill="#fff"/>
    <g id="synthetic-oil-change" transform="translate(847.612 1218.929)">
      <g id="Group_4391" data-name="Group 4391" transform="translate(0 0)">
        <path id="Path_3055" data-name="Path 3055" d="M115.471,30.118H101.433a7.693,7.693,0,0,0-1.34.123,1.959,1.959,0,0,0-.663-.123H83.39V28.083a2.02,2.02,0,0,0-2-2.035H75.227a14,14,0,0,0-27.777,0H41.291a2.021,2.021,0,0,0-2.005,2.035v2.035H13.212a6.1,6.1,0,0,0,0,12.2H39.285V44.56a10.148,10.148,0,0,0-8.019,9.962V93.177a10.1,10.1,0,0,0,10.018,10.167H81.393A10.1,10.1,0,0,0,91.41,93.177V54.523a10.148,10.148,0,0,0-8.019-9.962V42.323H93.416V60.628a8.086,8.086,0,0,0,8.017,8.137h14.038a8.085,8.085,0,0,0,8.017-8.135V38.253a8.085,8.085,0,0,0-8.017-8.135Zm-54.132-12.2a10.078,10.078,0,0,1,9.822,8.135H51.516a10.078,10.078,0,0,1,9.822-8.135ZM43.295,40.288V30.118h36.09V44.356H43.295V40.29ZM13.212,38.253a1.991,1.991,0,0,1-1.993-2.033,2.016,2.016,0,0,1,1.993-2.035H39.285v4.068H13.212ZM87.4,54.524V93.177a6.062,6.062,0,0,1-6.009,6.1H41.285a6.062,6.062,0,0,1-6.009-6.1V54.523a6.061,6.061,0,0,1,6.009-6.1H81.393a6.061,6.061,0,0,1,6.009,6.1Zm6.013-16.271H83.392V34.186H94.5a8.171,8.171,0,0,0-1.084,4.068ZM119.478,60.63a4.044,4.044,0,0,1-4.008,4.068H101.433a4.043,4.043,0,0,1-4.008-4.069V38.253a4.043,4.043,0,0,1,4.008-4.068h14.038a4.042,4.042,0,0,1,4.008,4.068Z" transform="translate(-3.199 -13.844)"/>
        <path id="Path_3056" data-name="Path 3056" d="M16.275,37.207a1.99,1.99,0,0,0-3.3,0C11.577,39.261,4.6,49.756,4.6,54.635A10.11,10.11,0,0,0,14.625,64.807,10.11,10.11,0,0,0,24.649,54.635C24.649,49.756,17.673,39.261,16.275,37.207Zm-1.65,23.531a6.065,6.065,0,0,1-6.013-6.1c0-2.221,3.128-8.019,6.013-12.6,2.885,4.577,6.015,10.375,6.015,12.6a6.065,6.065,0,0,1-6.013,6.1Z" transform="translate(-4.601 -1.749)" fill="#ff4612"/>
      </g>
    </g>
  </g>
</svg>
