<svg id="Group_5246" data-name="Group 5246" xmlns="http://www.w3.org/2000/svg" xmlns:xlink="http://www.w3.org/1999/xlink" width="43.35" height="53.754" viewBox="0 0 43.35 53.754">
  <defs>
    <clipPath id="clip-path">
      <rect id="Rectangle_252" data-name="Rectangle 252" width="43.35" height="53.754" fill="none"/>
    </clipPath>
    <clipPath id="clip-path-2">
      <rect id="Rectangle_252-2" data-name="Rectangle 252" width="33.123" height="41.072" fill="#ff4612"/>
    </clipPath>
  </defs>
  <g id="Group_5238" data-name="Group 5238" transform="translate(0 0)">
    <g id="Group_5237" data-name="Group 5237" clip-path="url(#clip-path)">
      <path id="Path_6552" data-name="Path 6552" d="M180.769,267.405a.753.753,0,0,1-.369-.1c-13.141-7.356-20.986-19.181-20.986-31.641V223.8a.756.756,0,0,1,.242-.555.746.746,0,0,1,.572-.2c8.769.681,15.288-2.024,19.935-8.259a.783.783,0,0,1,1.209,0c4.651,6.235,11.178,8.938,19.938,8.259a.756.756,0,0,1,.814.756v11.863a32.137,32.137,0,0,1-5.564,17.771,44.545,44.545,0,0,1-15.422,13.869.753.753,0,0,1-.369.1Zm-19.843-42.793v11.056c0,11.785,7.409,23.015,19.843,30.112A42.862,42.862,0,0,0,195.3,252.6a30.63,30.63,0,0,0,5.312-16.934V224.612c-8.543.476-15.057-2.193-19.843-8.134-4.785,5.94-11.292,8.61-19.843,8.134Zm0,0" transform="translate(-159.354 -213.53)"/>
    </g>
  </g>
  <path id="Path_6553" data-name="Path 6553" d="M284.082,432.906" transform="translate(-265.86 -400.113)"/>
  <g id="Group_6037" data-name="Group 6037" transform="translate(5.113 6.341)">
    <g id="Group_5237-2" data-name="Group 5237" clip-path="url(#clip-path-2)">
      <path id="Path_6552-2" data-name="Path 6552" d="M175.731,254.925a.575.575,0,0,1-.282-.073c-10.041-5.621-16.035-14.656-16.035-24.176V221.61a.578.578,0,0,1,.185-.424.57.57,0,0,1,.437-.152c6.7.52,11.681-1.546,15.232-6.311a.6.6,0,0,1,.924,0c3.554,4.764,8.541,6.829,15.234,6.311a.578.578,0,0,1,.622.578v9.064a24.556,24.556,0,0,1-4.252,13.579,34.036,34.036,0,0,1-11.784,10.6.576.576,0,0,1-.282.074Zm-15.162-32.7v8.448c0,9,5.661,17.586,15.162,23.008a32.751,32.751,0,0,0,11.1-10.069,23.4,23.4,0,0,0,4.059-12.939v-8.448c-6.528.364-11.5-1.675-15.162-6.215-3.656,4.539-8.628,6.579-15.162,6.215Zm0,0" transform="translate(-159.368 -213.76)" fill="#ff4612"/>
    </g>
  </g>
</svg>
