<svg xmlns="http://www.w3.org/2000/svg" width="43.35" height="43.906" viewBox="0 0 43.35 43.906">
  <g id="Group_5240" data-name="Group 5240" transform="translate(0 0)">
    <path id="Path_6554" data-name="Path 6554" d="M233.656,219.84a10.4,10.4,0,0,0-1.1-12.321.643.643,0,1,0-.962.853,9.125,9.125,0,0,1,.639.813,11.2,11.2,0,0,1-2.966,1.683,12.854,12.854,0,0,0-2.708-5.4,9.1,9.1,0,0,1,2.892,1.121.643.643,0,1,0,.662-1.1,10.456,10.456,0,0,0-6.963-1.365,10.549,10.549,0,0,0-7.864,5.9,10.322,10.322,0,0,0-.538,1.408,10.4,10.4,0,0,0,.544,7.421,10.421,10.421,0,0,0,9.451,6.014,10.409,10.409,0,0,0,8.914-5.029Zm-4.138-7.692A12.552,12.552,0,0,0,232.9,210.3a9.134,9.134,0,0,1,0,8.277,12.548,12.548,0,0,0-3.381-1.852,15.412,15.412,0,0,0,0-4.574Zm-1.116,2.286a14.141,14.141,0,0,1-.129,1.9,14.361,14.361,0,0,0-7.063,0,14.134,14.134,0,0,1,0-3.8,14.353,14.353,0,0,0,7.063,0,14.129,14.129,0,0,1,.129,1.9Zm-3.66-8.983a11.127,11.127,0,0,1,3.3,5.813,13.074,13.074,0,0,1-6.6,0,11.127,11.127,0,0,1,3.3-5.813Zm-1.816.016a12.856,12.856,0,0,0-2.708,5.4,11.2,11.2,0,0,1-2.965-1.682,9.17,9.17,0,0,1,5.673-3.72Zm-7.332,8.967a9.091,9.091,0,0,1,.991-4.138,12.542,12.542,0,0,0,3.382,1.851,15.447,15.447,0,0,0,0,4.573,12.527,12.527,0,0,0-3.382,1.851,9.091,9.091,0,0,1-.991-4.138Zm1.659,5.247A11.2,11.2,0,0,1,220.218,218a12.846,12.846,0,0,0,2.707,5.4,9.169,9.169,0,0,1-5.673-3.72Zm7.49,3.737a11.124,11.124,0,0,1-3.3-5.813,13.082,13.082,0,0,1,6.6,0,11.126,11.126,0,0,1-3.3,5.813ZM229.267,218a11.2,11.2,0,0,1,2.964,1.682,9.166,9.166,0,0,1-5.672,3.719,12.852,12.852,0,0,0,2.707-5.4Zm0,0" transform="translate(-203.068 -204)" fill="#ff4612"/>
    <path id="Path_6555" data-name="Path 6555" d="M132.623,309.816c.809-2.368.153-4.8-2.008-7.428a.643.643,0,0,0-.994.816c1.88,2.29,2.448,4.258,1.785,6.2-.9,2.621.078,6.546.766,8.941h-7.548c.223-1.683.715-5.541.659-6.339a4.37,4.37,0,0,0-.82-2.434,13.724,13.724,0,0,0-1.965-1.951c-.33-.286-.642-.556-.943-.842-1.849-1.762-2.113-4.083-2.393-6.539-.046-.4-1.636-10.414-1.877-12.345a1.667,1.667,0,0,1,3.331-.038c0,.019,1.546,11.182,1.557,11.215a2.456,2.456,0,0,0,.377.956l2.716,4.314a.643.643,0,1,0,1.088-.686l-2.721-4.321-.009-.014a1.191,1.191,0,1,1,1.981-1.323l.023.032c.472.62,1.334,1.744,2.146,2.8a.643.643,0,1,0,1.019-.785c-.8-1.044-1.657-2.157-2.131-2.778a2.46,2.46,0,0,0-.885-.793l-.368-7.279c0-.008,0-.016,0-.024a2.258,2.258,0,0,0-3.534-1.662,2.953,2.953,0,0,0-5.874.42c0,.027,1.84,12.059,1.886,12.456.293,2.576.6,5.239,2.783,7.324.323.308.661.6.988.883a12.633,12.633,0,0,1,1.789,1.765,3.149,3.149,0,0,1,.555,1.74c.045.629-.435,4.507-.748,6.8a.643.643,0,0,0,.637.73h9.141a.643.643,0,0,0,.616-.825c-.616-2.084-1.9-6.423-1.023-8.985Zm-10.194-21.1a.974.974,0,0,1,1.7.553l.349,6.915a2.466,2.466,0,0,0-1.236.412c-.037.025-.073.051-.108.077l-.449-3.252-.49-3.923a.972.972,0,0,1,.238-.782Zm0,0" transform="translate(-116 -275.72)"/>
    <path id="Path_6556" data-name="Path 6556" d="M357.242,285.723a2.953,2.953,0,0,0-4.881,1.782,2.259,2.259,0,0,0-3.534,1.663c0,.008-.369,7.3-.369,7.3a2.457,2.457,0,0,0-.885.795c-1.058,1.389-3.645,4.75-3.952,5.125-2.161,2.631-2.817,5.06-2.008,7.428.876,2.562-.407,6.9-1.024,8.985a.643.643,0,0,0,.617.825h9.141a.643.643,0,0,0,.637-.729c-.313-2.3-.793-6.175-.748-6.8a3.147,3.147,0,0,1,.555-1.74,12.6,12.6,0,0,1,1.789-1.764c.327-.283.665-.576.988-.884,2.186-2.084,2.49-4.748,2.783-7.323.045-.4.092-.807.145-1.207.233-1.766.536-3.556.83-5.289.325-1.921.661-3.906.906-5.879a.616.616,0,0,0,.005-.081,2.955,2.955,0,0,0-.993-2.2Zm-7.133,3.546a.974.974,0,1,1,1.934.237l-.939,7.167c-.035-.026-.071-.052-.108-.076a2.461,2.461,0,0,0-1.236-.414Zm4.963,10.967c-.28,2.456-.544,4.776-2.393,6.538-.3.287-.612.556-.942.842a13.74,13.74,0,0,0-1.965,1.951,4.372,4.372,0,0,0-.82,2.434c-.056.8.436,4.656.659,6.339h-7.548c.688-2.395,1.662-6.32.766-8.941-.663-1.938-.1-3.907,1.785-6.2.334-.407,3.042-3.928,3.993-5.177l.023-.033a1.191,1.191,0,1,1,1.98,1.323l-.009.015-2.721,4.321a.643.643,0,0,0,1.089.685l2.717-4.314a4.755,4.755,0,0,0,.4-1.059s1.532-11.093,1.533-11.112a1.666,1.666,0,0,1,2.77-1.167,1.644,1.644,0,0,1,.56,1.205c-.241,1.931-1.831,11.943-1.877,12.345Zm0,0" transform="translate(-314.886 -275.721)"/>
  </g>
</svg>
