<svg xmlns="http://www.w3.org/2000/svg" width="128" height="128.215" viewBox="0 0 128 128.215">
  <g id="Group_6065" data-name="Group 6065" transform="translate(-1052 -1633)">
    <path id="Path_7108" data-name="Path 7108" d="M0,0H128V128H0Z" transform="translate(1052 1633)" fill="none"/>
    <g id="_001-key" data-name="001-key" transform="translate(1065 1670.065)">
      <g id="Group_4430" data-name="Group 4430" transform="translate(21.2 8.655)">
        <g id="Group_4429" data-name="Group 4429">
          <path id="Path_3075" data-name="Path 3075" d="M130.033,84.9,119.044,73.906a5.222,5.222,0,0,0-7.376,0l-4.349,4.349a5.222,5.222,0,0,0,0,7.376L118.308,96.62a5.222,5.222,0,0,0,7.376,0l4.349-4.348A5.222,5.222,0,0,0,130.033,84.9Zm-2.065,5.311-4.349,4.348a2.3,2.3,0,0,1-3.246,0L109.384,83.566a2.3,2.3,0,0,1,0-3.246l4.349-4.348a2.3,2.3,0,0,1,3.246,0l10.989,10.989a2.3,2.3,0,0,1,0,3.246Z" transform="translate(-105.794 -72.381)" fill="#ff4612"/>
        </g>
      </g>
      <g id="Group_4432" data-name="Group 4432" transform="translate(7.883 21.971)">
        <g id="Group_4431" data-name="Group 4431" transform="translate(0 0)">
          <path id="Path_3076" data-name="Path 3076" d="M63.578,151.351,52.589,140.361a5.222,5.222,0,0,0-7.376,0l-4.349,4.349a5.222,5.222,0,0,0,0,7.376l10.989,10.989a5.222,5.222,0,0,0,7.376,0l4.349-4.349A5.222,5.222,0,0,0,63.578,151.351Zm-2.065,5.311-4.349,4.349a2.3,2.3,0,0,1-3.246,0L42.929,150.021a2.3,2.3,0,0,1,0-3.246l4.349-4.349a2.3,2.3,0,0,1,3.246,0l10.989,10.989A2.3,2.3,0,0,1,61.513,156.662Z" transform="translate(-39.339 -138.836)" fill="#ff4612"/>
        </g>
      </g>
      <g id="Group_4434" data-name="Group 4434" transform="translate(0 0)">
        <g id="Group_4433" data-name="Group 4433" transform="translate(0 0)">
          <path id="Path_3077" data-name="Path 3077" d="M99.6,57.242l-13.83-13.83a10.2,10.2,0,0,0-9.879-2.646,39.741,39.741,0,0,0-8.371-4.8,35.28,35.28,0,0,0-13.356-3.1h0c-.545,0-1.068.023-1.569.065a7.08,7.08,0,0,0-4.683-2.416L34.573,29.244a11.449,11.449,0,0,0-9.207,3.313L11.407,46.516a1.46,1.46,0,1,0,2.065,2.065L27.431,34.622A8.538,8.538,0,0,1,34.3,32.152l13.341,1.266a4.174,4.174,0,0,1,3.756,3.756l.715,7.533-.041-.036c-.121-.108-.241-.217-.358-.326s-.2-.192-.3-.288l-.139-.136c-.14-.139-.278-.278-.411-.417-.116-.122-.227-.244-.336-.365l-.078-.087c-.1-.117-.2-.233-.3-.348l-.063-.077q-.114-.139-.22-.276l-.089-.114q-.116-.153-.224-.3c-.035-.05-.069-.1-.1-.149l-.077-.114a4.655,4.655,0,1,0-2.074,2.13,17.817,17.817,0,0,0,1.448,1.717,27.084,27.084,0,0,0,3.752,3.23l.168,1.769a8.539,8.539,0,0,1-2.471,6.866L26.612,80.959a3.194,3.194,0,0,1-4.518,0L3.853,62.718a3.194,3.194,0,0,1,0-4.518l2.874-2.874a1.46,1.46,0,1,0-2.065-2.065L1.788,56.135a6.122,6.122,0,0,0,0,8.648L20.029,83.023a6.115,6.115,0,0,0,8.648,0L52.255,59.445A11.446,11.446,0,0,0,55.6,50.754a43.047,43.047,0,0,0,4.593,2.3q1.361.584,2.725,1.063L54.712,64.725A10.279,10.279,0,0,0,54.5,76.986l-6.739,6.739a3.133,3.133,0,0,0-.827,2.921.193.193,0,0,1-.051.18L42.02,91.689a2.723,2.723,0,0,0-.485.659L38.8,97.564l-4.914,2.54a2.738,2.738,0,0,0-1.2,1.235l-1.927,4L24.9,109a2.4,2.4,0,0,0-1.111,1.736l-.85,6.641a2.41,2.41,0,0,0,2.384,2.715,2.48,2.48,0,0,0,.312-.02l6.641-.85a2.4,2.4,0,0,0,1.736-1.111l3.665-5.851,4-1.927a2.738,2.738,0,0,0,1.235-1.2l2.54-4.914,5.216-2.738a2.714,2.714,0,0,0,.659-.485l4.863-4.863a.19.19,0,0,1,.18-.051,3.133,3.133,0,0,0,2.921-.827l6.739-6.739A10.277,10.277,0,0,0,78.29,88.3L86.1,82.261a1.46,1.46,0,1,0-1.787-2.31L76.5,85.993a7.348,7.348,0,0,1-9.552-.5l-.006-.006-.059-.056c-.019-.018-.038-.035-.057-.054l-9.193-9.193-.053-.056-.058-.061,0,0a7.348,7.348,0,0,1-.5-9.552L65.9,55.04a30,30,0,0,0,7.653,1.115h0a18.172,18.172,0,0,0,1.975-.1L87.183,67.708a4.333,4.333,0,0,0,6.128-6.128L81.435,49.7a4.333,4.333,0,0,0-7.4,3.064,4.4,4.4,0,0,0,.025.458c-.168.005-.338.008-.511.008h0a25.7,25.7,0,0,1-5.7-.713l4.911-6.348a7.311,7.311,0,0,1,10.951-.7l13.83,13.83a7.31,7.31,0,0,1-.7,10.951l-4.719,3.65a1.46,1.46,0,0,0,1.787,2.31l4.719-3.65A10.231,10.231,0,0,0,99.6,57.242ZM45.166,41.392a1.747,1.747,0,1,1,0-3.493,1.783,1.783,0,0,1,.215.015,6.336,6.336,0,0,0,.462,3.343A1.744,1.744,0,0,1,45.166,41.392Zm11.3,37.755,7.4,7.4-6.643,6.643a.193.193,0,0,1-.18.051,3.133,3.133,0,0,0-2.921.827l-4.842,4.842-5.244,2.753a2.708,2.708,0,0,0-1.153,1.16l-2.538,4.911-3.988,1.923a2.717,2.717,0,0,0-1.124,1.006l-3.567,5.695-5.745.735.735-5.744,5.694-3.567a2.717,2.717,0,0,0,1.007-1.124l1.923-3.988,4.911-2.539a2.708,2.708,0,0,0,1.159-1.152l2.753-5.245,4.842-4.842a3.132,3.132,0,0,0,.827-2.921.19.19,0,0,1,.051-.18ZM81.184,53.583,91.246,63.645a1.413,1.413,0,0,1-2,2l-10.41-10.41A6.386,6.386,0,0,0,81.184,53.583Zm-3.811-1.814a1.41,1.41,0,0,1,1.7-.227,4.009,4.009,0,0,1-2.111,1.267c0-.014,0-.027,0-.041A1.4,1.4,0,0,1,77.373,51.769Zm-6.925-7.383-5.638,7.288c-1.146-.373-2.306-.807-3.464-1.3a38.643,38.643,0,0,1-6.074-3.25L54.3,36.9a7.1,7.1,0,0,0-.2-1.115h.065a32.334,32.334,0,0,1,12.2,2.865,38.292,38.292,0,0,1,6.461,3.509A10.231,10.231,0,0,0,70.447,44.386Z" transform="translate(0 -29.192)" stroke="#000" stroke-width="0.5"/>
        </g>
      </g>
    </g>
  </g>
</svg>
