<svg xmlns="http://www.w3.org/2000/svg" width="128" height="128" viewBox="0 0 128 128">
  <g id="Group_6093" data-name="Group 6093" transform="translate(-1212 -1189)">
    <rect id="Rectangle_471" data-name="Rectangle 471" width="128" height="128" transform="translate(1212 1189)" fill="#fff"/>
    <g id="Group_5206" data-name="Group 5206" transform="translate(1225.845 1220.063)">
      <g id="Group_5205" data-name="Group 5205" transform="translate(0 0)">
        <path id="Path_6536" data-name="Path 6536" d="M101.185,65.553A11.819,11.819,0,0,0,91.176,55.544v-3.07c0-8.469-6.438-15.365-14.352-15.365-7.686,0-14.12,6.686-14.352,14.906h.1l-.1.017V85.306c0,10.637-7.953,19.275-17.729,19.275s-17.729-8.65-17.729-19.275V82.424c2.448,0,5.065-1.775,5.065-6.754V71.424C42.917,68.653,50.653,59.348,50.653,48.8v-3.52H47.276L47.205,23.3a8.451,8.451,0,0,0-6.946-8.265,5.038,5.038,0,1,0-.115,3.443,5.065,5.065,0,0,1,3.679,4.832L43.9,45.278H40.522v3.569a13.426,13.426,0,0,1-9.719,12.6,15.353,15.353,0,0,1-9.286,0,13.419,13.419,0,0,1-9.7-12.6V45.278H6.754V23.329A5.065,5.065,0,0,1,10.5,18.459a5.089,5.089,0,1,0-.1-3.429,8.442,8.442,0,0,0-7.021,8.3v21.95H0V48.79C0,59.351,7.741,68.66,18.573,71.424V75.67c0,4.979,2.617,6.754,5.065,6.754v2.882c0,12.494,9.467,22.652,21.105,22.652S65.849,97.789,65.849,85.306V52.113c.169-6.408,5.1-11.621,10.975-11.621,6.051,0,10.975,5.376,10.975,11.988v3.065a11.819,11.819,0,1,0,13.386,10.009ZM35.457,18.263a1.688,1.688,0,1,1,1.688-1.688A1.689,1.689,0,0,1,35.457,18.263ZM15.2,14.886a1.688,1.688,0,1,1-1.688,1.688A1.689,1.689,0,0,1,15.2,14.886ZM3.377,48.79v-.135H8.442v.192A16.776,16.776,0,0,0,20.494,64.656a18.788,18.788,0,0,0,11.343,0A16.779,16.779,0,0,0,43.9,48.848v-.192h3.377v.135c0,9.393-7.24,17.658-17.222,19.657a24.085,24.085,0,0,1-7.124.35,22.058,22.058,0,0,1-2.332-.353C10.617,66.448,3.377,58.183,3.377,48.79ZM23.638,79.047c-1.52,0-1.688-2.364-1.688-3.377V72.087c.135.017.274.024.41.037.169.019.338.032.507.047.8.071,1.6.118,2.416.12h.084c.81,0,1.614-.049,2.408-.12.169-.015.348-.029.522-.047.133-.015.272-.02.405-.037V75.67c0,1.013-.169,3.377-1.688,3.377ZM89.487,75.67a8.442,8.442,0,1,1,8.442-8.442A8.442,8.442,0,0,1,89.487,75.67Z" transform="translate(0 -11.508)"/>
      </g>
    </g>
  </g>
</svg>
