<svg xmlns="http://www.w3.org/2000/svg" width="128" height="128" viewBox="0 0 128 128">
  <g id="Group_6091" data-name="Group 6091" transform="translate(-938 -1189)">
    <rect id="Rectangle_469" data-name="Rectangle 469" width="128" height="128" transform="translate(938 1189)" fill="#fff"/>
    <g id="Group_6087" data-name="Group 6087" transform="translate(954.038 1220.063)">
      <path id="Path_6521" data-name="Path 6521" d="M-15.909-263.032a2.007,2.007,0,0,1-1.108-2.136c.041-3.036.015-6.073.015-9.111,0-6.6-1.683-8.811-8.1-10.523-1.553-.414-3.149-.67-4.727-.991a1.494,1.494,0,0,1-1.15-.907,4.187,4.187,0,0,1,1.816-5.228,6.139,6.139,0,0,0,3.32-3.536c1.427-4.574,1.617-12.7-3.2-15.086a9.167,9.167,0,0,0-9.017-.006,7.867,7.867,0,0,0-4.056,7.378c0,2.227-.251,4.477.368,6.67a7.33,7.33,0,0,0,4.431,4.915c2.218.962,1,2.965,1.167,4.5.1.929-.814,1.194-1.654,1.4-2.164.529-4.311,1.128-6.455,1.736a1.49,1.49,0,0,1-2.055-.9,1.418,1.418,0,0,1,.988-2c1.928-.6,3.886-1.121,5.829-1.682.119-.035.287-.137.3-.232a.417.417,0,0,0-.173-.351,10.188,10.188,0,0,1-5.776-9.072c-.209-4.462-.633-9.028,2.727-12.773a12.068,12.068,0,0,1,13-3.135,11.129,11.129,0,0,1,7.421,10.458c.082,4.193.483,8.487-2.594,12.012a10.853,10.853,0,0,1-3.142,2.459c-.126.067-.188.256-.279.388a1.358,1.358,0,0,0,.375.23c4.416.95,8.761,2.062,11.85,5.736a7.867,7.867,0,0,1,1.844,5.118c.032,4.362.011,8.723.015,13.085a1.668,1.668,0,0,1-1.162,1.58Z" transform="translate(109.297 358.853)" stroke="#000" stroke-width="0.7"/>
      <path id="Path_6522" data-name="Path 6522" d="M-53.6-259.784c-1.12-.485-1.038-1.466-1.124-2.464-.358-4.112-3.558-5.2-6.78-6.153-3.635-1.074-4.621-2.75-3.718-6.593a1.767,1.767,0,0,1,1.015-1.178,5.406,5.406,0,0,0,3.186-5.61c-.178-2.651.429-5.424-1.476-7.743a7.314,7.314,0,0,0-8-2.007c-2.752.97-4.329,3.344-4.349,6.561-.008,1.325.053,2.653-.013,3.974-.124,2.448.836,4.118,3.228,4.893a1.441,1.441,0,0,1,1.006,1.465c.13,5.021.129,5.008-4.587,6.42-3.507,1.05-6.235,2.771-5.984,7.05.042.7-.532,1.1-1.127,1.385h-.827c-1.8-.952-1.2-2.587-.918-3.926,1.1-5.3,5.308-6.893,9.874-7.988.175-.042.471-.226.459-.3-.1-.591.408-1.42-.238-1.751a6.839,6.839,0,0,1-3.936-6.612c.025-2.947-.442-5.948.748-8.8A9.914,9.914,0,0,1-65.9-294.866c4.9.972,7.934,4.707,7.948,9.889.009,3.773.655,7.789-3.12,10.394a2.2,2.2,0,0,0-1.117,2.283c.046.45.175.577.586.681,4.051,1.024,7.86,2.413,9.517,6.791a8.893,8.893,0,0,1,.458,3.629,1.65,1.65,0,0,1-1.151,1.415Z" transform="translate(115.54 355.605)" stroke="#000" stroke-width="0.7"/>
      <path id="Path_6523" data-name="Path 6523" d="M-120.055-252.882a.223.223,0,0,0-.008-.074.45.45,0,0,1,.676,0,.222.222,0,0,0-.007.074Z" transform="translate(121.406 348.703)" stroke="#000" stroke-width="0.7"/>
      <path id="Path_6524" data-name="Path 6524" d="M-7.141-320.445l-.074-.505.074.008Z" transform="translate(102.847 359.861)" stroke="#000" stroke-width="0.7"/>
      <path id="Path_6525" data-name="Path 6525" d="M-119.651-262.324h-.676A1.35,1.35,0,0,1-121.5-263.6c.023-3.707-.538-7.474.257-11.106,1.044-4.759,5-6.575,9.127-7.98,1.39-.474,2.851-.737,4.275-1.109a1.685,1.685,0,0,0,.409-.247c-.1-.144-.16-.347-.3-.426a10.986,10.986,0,0,1-5.725-9.728c-.109-4.134-.381-8.306,2.578-11.818a12.118,12.118,0,0,1,13.084-3.376,11.135,11.135,0,0,1,7.521,10.42c.064,4.146.45,8.37-2.554,11.865a11.971,11.971,0,0,1-3.165,2.632c-.137.078-.206.276-.306.419a1.443,1.443,0,0,0,.4.255c.79.191,1.592.334,2.377.539a1.465,1.465,0,0,1,1.213,1.887,1.473,1.473,0,0,1-1.945,1.122c-1.2-.238-2.4-.518-3.6-.738a1.751,1.751,0,0,1-1.552-1.849c-.211-2.177.186-3.715,2.471-4.811a6.609,6.609,0,0,0,3.518-6.063c.1-3.714.793-7.6-2.182-10.723a9.093,9.093,0,0,0-9.621-1.929,8,8,0,0,0-5.149,7.558c.013,3.179-.558,6.477,1.552,9.318a6.373,6.373,0,0,0,2.807,2.381c2.621.946,1.593,3.112,1.581,4.8-.012,1.446-1.523,1.285-2.543,1.5-3.2.661-6.365,1.413-9.016,3.476a5.96,5.96,0,0,0-2.457,5.039c.043,2.774.013,5.549.008,8.324A1.542,1.542,0,0,1-119.651-262.324Z" transform="translate(121.671 358.071)" stroke="#000" stroke-width="0.7"/>
      <path id="Path_6526" data-name="Path 6526" d="M-117.87-315.868h0Z" transform="translate(121.046 359.025)" stroke="#000" stroke-width="0.7"/>
      <path id="Path_6527" data-name="Path 6527" d="M-121.472-321.133l-.062.428Z" transform="translate(121.648 359.891)" stroke="#000" stroke-width="0.7"/>
      <path id="Path_6528" data-name="Path 6528" d="M-121.474-328.762c.762-6.389,3.856-11.639,8.129-16.242,8.707-9.381,19.5-15.02,31.972-17.577,1.275-.261,2.578-.385,3.869-.572.165-.069.349.021.512-.062l.481-.022c.2-.068.409.02.606-.059l.632-.032a17.882,17.882,0,0,0,.042-1.928,7.935,7.935,0,0,1,.027-1.026,1.394,1.394,0,0,1,1.644-1.232c.855.06,1.551.633,1.392,1.436-.515,2.6.858,2.744,2.978,3.1,17.491,2.92,31.973,10.62,40.939,26.672a19.609,19.609,0,0,1,2.235,7.7c.087.16-.029.348.074.505v1.077c-2.289,3.736-4.867,3.675-7.451.033-1.708-2.406-4.486-2.835-7.2-2.982-3.293-.179-6.378.394-9.026,2.681a3.162,3.162,0,0,1-4.39-.218c-4.116-3.564-14.169-3.274-18.008.556a.706.706,0,0,0-.1.452q-.008,6.625,0,13.252c0,1.05-.483,1.735-1.559,1.73-1.053-.006-1.529-.68-1.528-1.715,0-4.334-.018-8.669.015-13,.008-1-.856-1.151-1.372-1.555-4.011-3.137-13.058-2.886-16.988.35a3.317,3.317,0,0,1-4.667-.1c-3.554-3.118-11.39-3.33-15.075-.359-1.2.968-1.431,2.836-3.111,3.358l-.831.185a5.686,5.686,0,0,1-1.233,0c-2.244-.379-3.184-1.766-3.061-3.971C-121.457-328.468-121.537-328.625-121.474-328.762Zm46.269-37.52q-.034,1.476-.068,2.954Zm-1.306,3.045.606-.059Zm-.993.084.512-.062Zm26.932,26.14a1.455,1.455,0,0,1-1.233,1.9A1.445,1.445,0,0,1-53.6-336.4a33.785,33.785,0,0,0-15.841-22.362,7.486,7.486,0,0,0-8.61,0A33.776,33.776,0,0,0-93.889-336.4a1.443,1.443,0,0,1-1.793,1.286,1.464,1.464,0,0,1-1.231-1.908,34.633,34.633,0,0,1,5.129-12.639,38.859,38.859,0,0,1,8.455-9.3c-.307.062-.424.079-.537.109a57.127,57.127,0,0,0-23.739,12.6c-5.525,4.921-9.949,10.574-10.821,18.291-.043.375.1.511.446.517,1.166.018,1.082-1.142,1.565-1.736,3.944-4.849,15.215-5.33,20.1-.8.285.264.511.4.88.1,5.27-4.365,16.107-4.318,21.332.086a.482.482,0,0,0,.724,0c5.258-4.4,16.092-4.451,21.346-.114.149.124.531.2.634.107a13.531,13.531,0,0,1,9.639-3.274c4.611.064,9.02.766,11.576,5.386.1.185.6.178.922.187.06,0,.2-.35.185-.53a18.8,18.8,0,0,0-1.948-6.925c-4.308-8.671-11.525-14.315-19.769-18.849a54.761,54.761,0,0,0-13.33-5.175C-57.083-353.109-52.334-345.981-50.573-337.014Z" transform="translate(121.65 367.52)" fill="#ff4612" stroke="#ff4612" stroke-width="0.7"/>
    </g>
  </g>
</svg>
