<svg xmlns="http://www.w3.org/2000/svg" width="128" height="128" viewBox="0 0 128 128">
  <g id="Group_6061" data-name="Group 6061" transform="translate(-1166 -1203)">
    <g id="Group_6058" data-name="Group 6058" transform="translate(1168 1260.227)">
      <g id="Group_4435" data-name="Group 4435" transform="translate(0)">
        <path id="Path_2819" data-name="Path 2819" d="M288.92,320.065h-7.178a1.909,1.909,0,1,0,0,3.817h7.178a1.909,1.909,0,1,0,0-3.817Z" transform="translate(-211.704 -283.206)"/>
        <path id="Path_2820" data-name="Path 2820" d="M81.879,378.183A6.125,6.125,0,1,0,88,384.308,6.132,6.132,0,0,0,81.879,378.183Zm0,8.433a2.308,2.308,0,1,1,2.307-2.308A2.31,2.31,0,0,1,81.879,386.616Z" transform="translate(-57.311 -327.175)"/>
        <path id="Path_2821" data-name="Path 2821" d="M417.241,378.183a6.125,6.125,0,1,0,6.125,6.125A6.132,6.132,0,0,0,417.241,378.183Zm0,8.433a2.308,2.308,0,1,1,2.308-2.308A2.31,2.31,0,0,1,417.241,386.616Z" transform="translate(-311.025 -327.175)"/>
        <path id="Path_2825" data-name="Path 2825" d="M15.606,238.436a5.652,5.652,0,1,0,5.652-5.652A5.658,5.658,0,0,0,15.606,238.436Zm5.652-1.835a1.835,1.835,0,1,1-1.835,1.835A1.837,1.837,0,0,1,21.258,236.6Z" transform="translate(-11.806 -217.175)" fill="#ff4612"/>
        <path id="Path_2826" data-name="Path 2826" d="M33.176,179.973a5.652,5.652,0,1,0-5.652-5.652A5.658,5.658,0,0,0,33.176,179.973Zm0-7.487a1.835,1.835,0,1,1-1.835,1.835A1.837,1.837,0,0,1,33.176,172.486Z" transform="translate(-20.823 -168.669)" fill="#ff4612"/>
        <path id="Path_2827" data-name="Path 2827" d="M106.214,277.632a12.658,12.658,0,0,0,11.624-7.678h4.9a1.908,1.908,0,0,0,1.909-1.909V255.57a18.617,18.617,0,0,0-.267-3.122c0-.021-.007-.043-.01-.064a18.389,18.389,0,0,0-6.442-11.051l-.052-.041a18.371,18.371,0,0,0-7.592-3.717l-7.585-7.246a25.28,25.28,0,0,0-17.537-7.03H70.455A52.665,52.665,0,0,0,48.649,228a1.909,1.909,0,0,0,1.571,3.48,48.865,48.865,0,0,1,20.235-4.36h9.732l1.538,11.376-47.147,1.829,8.78-5.15a1.909,1.909,0,0,0-1.931-3.293l-13.585,7.968-9.2-18.323a1.909,1.909,0,1,0-3.412,1.713l8.791,17.511-4.251.189a18.357,18.357,0,0,0-6.093,1.333c-.051.016-.1.032-.151.053a18.4,18.4,0,0,0-9.125,8.2,17.112,17.112,0,0,0-1.719,4.291L.255,262.662a5.628,5.628,0,0,0,5.377,7.291h7.311a12.638,12.638,0,0,0,23.248,0h58.4A12.658,12.658,0,0,0,106.214,277.632Zm8.8-12.066a8.82,8.82,0,0,1-17.538.642,8.644,8.644,0,0,1-.089-1.216,8.823,8.823,0,1,1,17.646,0Q115.037,265.281,115.018,265.566Zm.484-21.287.081.067q.541.452,1.036.954l.061.062a14.677,14.677,0,0,1,3.772,6.9,6,6,0,0,1-4.951-5.9ZM85.167,227.116a21.478,21.478,0,0,1,14.9,5.973l4.72,4.509-19.23.746-1.518-11.228h1.128ZM7.19,253.491a14.711,14.711,0,0,1,5.294-6.3v.527a6,6,0,0,1-5.377,5.959C7.135,253.619,7.162,253.555,7.19,253.491ZM33.39,265a8.829,8.829,0,0,1-8.8,8.817h-.021A8.823,8.823,0,1,1,33.39,265Zm3.766,1.139c.033,0,.052-1.081.052-1.145a12.64,12.64,0,0,0-25.28,0c0,.381.017.765.052,1.145H5.633a1.811,1.811,0,0,1-1.73-2.346l1.943-6.282q.324.022.648.022a9.819,9.819,0,0,0,9.808-9.808V245.53c0-.048,0-.1,0-.145a14.542,14.542,0,0,1,3.643-.634l7.2-.32L38.263,244c-.717,4.519-1.71,14.426,1.646,22.139Zm30.991,0H44.164c-4.077-7.222-2.671-18.364-2-22.29L82.148,242.3c.23,3.946.24,13.686-4.578,19.431A12.423,12.423,0,0,1,68.146,266.137Zm10.4,0a16.3,16.3,0,0,0,1.946-1.958c5.678-6.771,5.736-17.518,5.472-22.032l23.23-.9a14.534,14.534,0,0,1,2.709.847,9.826,9.826,0,0,0-.222,2.075v2.193a9.819,9.819,0,0,0,9.149,9.783v9.993H118.8c.009-.1.013-.192.02-.287s.013-.165.017-.248c.009-.2.015-.406.015-.61a12.64,12.64,0,1,0-25.28,0c0,.2.006.407.016.61,0,.082.011.163.017.245s.011.193.019.29Z" transform="translate(0.001 -207.859)"/>
      </g>
    </g>
    <rect id="Rectangle_453" data-name="Rectangle 453" width="128" height="128" transform="translate(1166 1203)" fill="none"/>
  </g>
</svg>
