<svg xmlns="http://www.w3.org/2000/svg" width="128" height="128" viewBox="0 0 128 128">
  <g id="Group_6096" data-name="Group 6096" transform="translate(-1623 -1189)">
    <rect id="Rectangle_474" data-name="Rectangle 474" width="128" height="128" transform="translate(1623 1189)" fill="#fff"/>
    <g id="_033---Insurance" data-name="033---Insurance" transform="translate(1638.961 1220.063)">
      <path id="Shape" d="M64.187,10.628,40.212.134a1.6,1.6,0,0,0-1.279,0L14.959,10.628A1.6,1.6,0,0,0,14,12.092V37.186a17.6,17.6,0,0,0,7.288,14.238l16.57,11.951a2.925,2.925,0,0,0,3.43,0l16.57-11.949a17.6,17.6,0,0,0,7.288-14.238v-25.1A1.6,1.6,0,0,0,64.187,10.628ZM61.949,37.188a14.4,14.4,0,0,1-5.962,11.645L39.573,60.671,23.158,48.833A14.4,14.4,0,0,1,17.2,37.188V13.138L39.573,3.343l22.376,9.794Z" transform="translate(8.348 -0.001)"/>
      <path id="Shape-2" data-name="Shape" d="M36.54,4.5,18.959,12.2A1.6,1.6,0,0,0,18,13.661V34.575a11.188,11.188,0,0,0,4.635,9.053l13.61,9.817a1.6,1.6,0,0,0,1.87,0l13.61-9.817a11.188,11.188,0,0,0,4.635-9.053V13.661A1.6,1.6,0,0,0,55.4,12.2L37.819,4.5A1.6,1.6,0,0,0,36.54,4.5ZM53.163,14.705v19.87a7.992,7.992,0,0,1-3.308,6.46L37.18,50.178,24.505,41.036a7.992,7.992,0,0,1-3.308-6.46V14.705l15.983-7Z" transform="translate(10.742 2.612)"/>
      <path id="Shape-3" data-name="Shape" d="M13.232,37.361,9.774,29.283A5.1,5.1,0,0,0,.451,33.4L6.715,47.178a16.976,16.976,0,0,0,3.47,5.009l9.85,9.852a3.177,3.177,0,0,0-.866,2.174V77a3.2,3.2,0,0,0,3.2,3.2H39.947a3.2,3.2,0,0,0,3.2-3.2V64.213a3.2,3.2,0,0,0-3.2-3.2V58.041a16.747,16.747,0,0,0-3.5-10.469,11.508,11.508,0,0,0-5.327-3.885,31.616,31.616,0,0,1-9.15-5.872A7.352,7.352,0,0,0,13.232,37.361ZM39.947,77H22.366V64.213H39.947Zm-6-27.43a13.562,13.562,0,0,1,2.8,8.473v2.974H23.534L12.445,49.927a13.824,13.824,0,0,1-2.821-4.071L3.36,32.077a1.9,1.9,0,1,1,3.475-1.534l3.575,8.338a18.861,18.861,0,0,0,4.031,5.954l7.3,7.3A1.6,1.6,0,1,0,24,49.877l-7.3-7.3a15.765,15.765,0,0,1-1.971-2.4,4.156,4.156,0,0,1,5.177.086,34.074,34.074,0,0,0,10.2,6.457A8.4,8.4,0,0,1,33.949,49.569Z" transform="translate(-0.017 15.702)"/>
      <path id="Shape-4" data-name="Shape" d="M23.2,53H21.6a1.6,1.6,0,1,0,0,3.2h1.6a1.6,1.6,0,0,0,0-3.2Z" transform="translate(11.938 31.71)"/>
      <path id="Shape-5" data-name="Shape" d="M69.429,47.206l6.264-13.779a5.1,5.1,0,1,0-9.321-4.116l-3.449,8.047a7.372,7.372,0,0,0-8.744.479,31.616,31.616,0,0,1-9.15,5.872A11.508,11.508,0,0,0,39.7,47.6,16.747,16.747,0,0,0,36.2,58.07v2.974a3.2,3.2,0,0,0-3.2,3.2V77.027a3.2,3.2,0,0,0,3.2,3.2H53.778a3.2,3.2,0,0,0,3.2-3.2V64.241a3.177,3.177,0,0,0-.866-2.174l9.85-9.852A16.974,16.974,0,0,0,69.429,47.206ZM53.778,77.027H36.2V64.241H53.778ZM52.61,61.044H39.393V58.07A13.562,13.562,0,0,1,42.2,49.6a8.4,8.4,0,0,1,3.836-2.85,34.06,34.06,0,0,0,10.2-6.457,4.156,4.156,0,0,1,5.187-.1,15.672,15.672,0,0,1-1.98,2.413l-7.3,7.3a1.6,1.6,0,0,0,2.26,2.26l7.3-7.3a18.859,18.859,0,0,0,4.031-5.954l3.575-8.34a1.9,1.9,0,1,1,3.475,1.536L66.513,45.886a13.823,13.823,0,0,1-2.821,4.071Z" transform="translate(19.716 15.674)"/>
      <path id="Shape-6" data-name="Shape" d="M40.2,53H38.6a1.6,1.6,0,0,0,0,3.2h1.6a1.6,1.6,0,0,0,0-3.2Z" transform="translate(22.11 31.71)"/>
      <path id="Shape-7" data-name="Shape" d="M25.557,26.7a1.6,1.6,0,0,0-1.918,2.557l6.393,4.795a1.6,1.6,0,0,0,.959.32,1.719,1.719,0,0,0,.27-.022,1.6,1.6,0,0,0,1.06-.689l12.786-19.18a1.6,1.6,0,0,0-2.66-1.774L30.6,30.486Z" transform="translate(13.733 7.179)" fill="#ff4612"/>
    </g>
  </g>
</svg>
