<svg xmlns="http://www.w3.org/2000/svg" width="128" height="128.971" viewBox="0 0 128 128.971">
  <g id="Group_6092" data-name="Group 6092" transform="translate(-1075 -1189)">
    <rect id="Rectangle_470" data-name="Rectangle 470" width="128" height="128" transform="translate(1075 1189)" fill="#fff"/>
    <g id="_002-airplane" data-name="002-airplane" transform="translate(1089.076 1255.5)">
      <path id="Path_6535" data-name="Path 6535" d="M98.71,110.965a8.233,8.233,0,0,0-4.285-4.676,29.8,29.8,0,0,0-22.939-1l-7.868,2.864L41.164,97.037a2.908,2.908,0,0,0-2.283-.126l-13.407,4.88a2.907,2.907,0,0,0-.7,5.091L39,117.112l-19.774,7.2-7.338-5.95a2.907,2.907,0,0,0-2.825-.474l-7.15,2.6a2.907,2.907,0,0,0-1.737,3.725l4.554,12.513a16.223,16.223,0,0,0,20.793,9.7l17.42-6.341-3.756,14.751A2.907,2.907,0,0,0,43,158.281l13.407-4.88a2.907,2.907,0,0,0,1.668-1.564l9-20.538,26.683-9.712a8.3,8.3,0,0,0,4.953-10.622Zm-66.08-5.593L39.7,102.8l16.367,8.1-10.456,3.805Zm59.139,10.752L63.918,126.261a2.906,2.906,0,0,0-1.668,1.565l-9,20.538-7.07,2.573,3.756-14.751a2.907,2.907,0,0,0-3.811-3.449l-22.588,8.221a10.409,10.409,0,0,1-13.342-6.221l-3.56-9.782,2.872-1.046,7.338,5.95a2.908,2.908,0,0,0,2.825.474L73.475,110.75a24.028,24.028,0,0,1,18.494.807,2.474,2.474,0,0,1-.2,4.567Z" transform="translate(-0.001 -96.736)" stroke="#fff" stroke-width="1.5"/>
    </g>
  </g>
</svg>
