<svg xmlns="http://www.w3.org/2000/svg" width="128" height="128" viewBox="0 0 128 128">
  <g id="Group_6066" data-name="Group 6066" transform="translate(-1198 -1633)">
    <rect id="Rectangle_457" data-name="Rectangle 457" width="128" height="128" transform="translate(1198 1633)" fill="none"/>
    <g id="_002-flat-tire" data-name="002-flat-tire" transform="translate(1216 1670.065)">
      <path id="Path_3078" data-name="Path 3078" d="M127.934,182.2a27.5,27.5,0,1,1,27.5-27.5A27.527,27.527,0,0,1,127.934,182.2Zm0-52.341a24.845,24.845,0,1,0,24.845,24.845A24.873,24.873,0,0,0,127.934,129.86Z" transform="translate(-82.685 -104.724)" stroke="#000" stroke-width="0.4"/>
      <path id="Path_3079" data-name="Path 3079" d="M105.756,164.786a32.228,32.228,0,1,1,30.615-22.07,1.326,1.326,0,1,1-2.516-.837,29.614,29.614,0,1,0-2.01,4.658,1.326,1.326,0,0,1,2.335,1.256A32.243,32.243,0,0,1,105.756,164.786Z" transform="translate(-60.508 -82.547)" stroke="#000" stroke-width="0.4"/>
      <path id="Path_3080" data-name="Path 3080" d="M233.395,265.02a4.853,4.853,0,1,1,4.853-4.853A4.858,4.858,0,0,1,233.395,265.02Zm0-7.054a2.2,2.2,0,1,0,2.2,2.2A2.2,2.2,0,0,0,233.395,257.965Z" transform="translate(-188.146 -210.186)" fill="#ff4612" stroke="#ff4612" stroke-width="0.4"/>
      <path id="Path_3081" data-name="Path 3081" d="M224.638,165.973a6.733,6.733,0,1,1,6.733-6.733A6.741,6.741,0,0,1,224.638,165.973Zm0-10.815a4.082,4.082,0,1,0,4.082,4.082A4.087,4.087,0,0,0,224.638,155.158Z" transform="translate(-179.389 -125.551)" fill="#ff4612" stroke="#ff4612" stroke-width="0.4"/>
      <path id="Path_3082" data-name="Path 3082" d="M224.638,350.314a6.733,6.733,0,1,1,6.733-6.733A6.741,6.741,0,0,1,224.638,350.314Zm0-10.815a4.082,4.082,0,1,0,4.082,4.082A4.087,4.087,0,0,0,224.638,339.5Z" transform="translate(-179.389 -277.309)" fill="#ff4612" stroke="#ff4612" stroke-width="0.4"/>
      <path id="Path_3083" data-name="Path 3083" d="M144.792,212.047a6.755,6.755,0,1,1,1.754-.232A6.774,6.774,0,0,1,144.792,212.047Zm.017-10.82a4.11,4.11,0,0,0-1.063.141,4.058,4.058,0,1,0,1.063-.141Z" transform="translate(-113.663 -163.475)" fill="#ff4612" stroke="#ff4612" stroke-width="0.4"/>
      <path id="Path_3084" data-name="Path 3084" d="M304.435,304.217a6.752,6.752,0,1,1,1.754-.232A6.775,6.775,0,0,1,304.435,304.217Zm.018-10.82a4.1,4.1,0,0,0-1.063.141,4.057,4.057,0,1,0,1.063-.141Z" transform="translate(-245.088 -239.355)" fill="#ff4612" stroke="#ff4612" stroke-width="0.4"/>
      <path id="Path_3085" data-name="Path 3085" d="M144.813,304.218a6.774,6.774,0,0,1-1.754-.232,6.7,6.7,0,1,1,1.754.232ZM144.8,293.4a4.094,4.094,0,1,0,1.063.141A4.1,4.1,0,0,0,144.8,293.4Z" transform="translate(-113.662 -239.355)" fill="#ff4612" stroke="#ff4612" stroke-width="0.4"/>
      <path id="Path_3086" data-name="Path 3086" d="M304.456,212.048a6.773,6.773,0,0,1-1.754-.232,6.7,6.7,0,1,1,1.754.232Zm-.017-10.82a4.094,4.094,0,1,0,1.063.141A4.1,4.1,0,0,0,304.439,201.228Z" transform="translate(-245.088 -163.477)" fill="#ff4612" stroke="#ff4612" stroke-width="0.4"/>
      <path id="Path_3087" data-name="Path 3087" d="M441.71,12.66a1.326,1.326,0,0,1-.937-2.263L450.779.391a1.326,1.326,0,0,1,1.875,1.875L442.647,12.271A1.321,1.321,0,0,1,441.71,12.66Z" transform="translate(-362.545 -0.002)" fill="#ff4612" stroke="#ff4612" stroke-width="0.4"/>
      <path id="Path_3088" data-name="Path 3088" d="M408.392,9.59a1.326,1.326,0,0,1-1.227-1.825L409.986.826a1.326,1.326,0,1,1,2.456,1L409.62,8.763a1.326,1.326,0,0,1-1.229.827Z" transform="translate(-335.116 0.001)" fill="#ff4612" stroke="#ff4612" stroke-width="0.4"/>
      <path id="Path_3089" data-name="Path 3089" d="M462.929,77.279A1.326,1.326,0,0,1,462.5,74.7l6.255-2.116a1.326,1.326,0,0,1,.85,2.511l-6.255,2.116A1.323,1.323,0,0,1,462.929,77.279Z" transform="translate(-380.013 -59.695)" fill="#ff4612" stroke="#ff4612" stroke-width="0.4"/>
      <path id="Path_3090" data-name="Path 3090" d="M75.848,112.538h-61.2a6.281,6.281,0,0,1-3.882-11.216A45.276,45.276,0,0,1,5.5,50.377a1.326,1.326,0,1,1,2.327,1.27,42.623,42.623,0,0,0,5.977,49.114,1.326,1.326,0,0,1-.491,2.127,3.626,3.626,0,0,0,1.333,7h61.2a3.626,3.626,0,0,0,1.333-7,1.326,1.326,0,0,1-.491-2.127A42.6,42.6,0,0,0,75.5,42.031a1.326,1.326,0,0,1-.024-1.842,1.73,1.73,0,1,0-2.6-2.279,1.325,1.325,0,0,1-1.829.214,42.208,42.208,0,0,0-25.8-8.7,42.541,42.541,0,0,0-34.7,17.885,1.326,1.326,0,0,1-2.158-1.54,45.193,45.193,0,0,1,36.857-19,44.822,44.822,0,0,1,26.528,8.591,4.383,4.383,0,0,1,6.366,5.587,45.249,45.249,0,0,1,1.585,60.374,6.277,6.277,0,0,1-3.879,11.213Z" transform="translate(0 -22.04)" stroke="#000" stroke-width="0.4"/>
    </g>
  </g>
</svg>
