<svg xmlns="http://www.w3.org/2000/svg" width="128" height="132.283" viewBox="0 0 128 132.283">
  <g id="Group_6082" data-name="Group 6082" transform="translate(-1258 -1180)">
    <path id="Path_7115" data-name="Path 7115" d="M0,0H128V128H0Z" transform="translate(1258 1180)" fill="#fff"/>
    <g id="Group_6077" data-name="Group 6077" transform="translate(25)">
      <path id="Path_7110" data-name="Path 7110" d="M83.535,33.454l-1.122.037L11.99,31.584A12.824,12.824,0,0,1-.6,18.15a15.084,15.084,0,0,1,13.509-14.3l70.7-6.58A16.921,16.921,0,0,1,99.877,5.1a18.066,18.066,0,0,1-.04,18.492,19.681,19.681,0,0,1-16.3,9.907v-.041Zm-.873-2.637a16.7,16.7,0,0,0,14.516-7.889,15.5,15.5,0,0,0,.532-16.064A14.419,14.419,0,0,0,83.686-.078L12.969,6.475A12.188,12.188,0,0,0,2.132,18.019,10.359,10.359,0,0,0,12.227,28.869l70.434,1.946Z" transform="translate(1250.015 1288.168) rotate(-45)"/>
      <path id="Path_7111" data-name="Path 7111" d="M9.079,22.523a9.079,9.079,0,0,1-9.511-9.5A10.653,10.653,0,0,1,9.73,2.877a9.079,9.079,0,0,1,9.512,9.5A10.669,10.669,0,0,1,9.079,22.523ZM9.641,5.547a7.772,7.772,0,0,0-6.763,4.634,6.922,6.922,0,0,0,1.294,7.745,6.949,6.949,0,0,0,7.755,1.293,7.765,7.765,0,0,0,4.64-6.756A6.622,6.622,0,0,0,9.641,5.547ZM79.069,23.4a12.027,12.027,0,0,1-11.784-7.642,13.481,13.481,0,0,1,3.3-14.289A13.528,13.528,0,0,1,84.891-1.82,12.011,12.011,0,0,1,92.545,9.947,14.144,14.144,0,0,1,79.069,23.4Zm.775-23.4A11.232,11.232,0,0,0,69.131,10.7,9.572,9.572,0,0,0,79.15,20.722,11.233,11.233,0,0,0,89.872,10.035,9.585,9.585,0,0,0,79.844.023V.01Z" transform="translate(1256.693 1288.46) rotate(-45)"/>
      <path id="Path_3049" data-name="Path 3049" d="M73.9,5.712a3.775,3.775,0,0,1-3.955-3.949,4.43,4.43,0,0,1,4.225-4.219,3.775,3.775,0,0,1,3.955,3.949A4.444,4.444,0,0,1,73.9,5.712Zm.182-5.5a1.54,1.54,0,0,0-1.338.917A1.371,1.371,0,0,0,73,2.662a1.375,1.375,0,0,0,1.534.256,1.536,1.536,0,0,0,.918-1.337A1.307,1.307,0,0,0,74.083.213ZM3.805,8.033A3.774,3.774,0,0,1-.135,4.076,4.429,4.429,0,0,1,4.093-.136a3.774,3.774,0,0,1,3.95,3.949A4.444,4.444,0,0,1,3.805,8.033Zm.182-5.5A1.536,1.536,0,0,0,2.537,4,1.308,1.308,0,0,0,3.911,5.363,1.534,1.534,0,0,0,5.371,3.9,1.31,1.31,0,0,0,3.987,2.534Z" transform="translate(1266.744 1290.784) rotate(-45)" fill="#ff4612"/>
    </g>
  </g>
</svg>
