<svg xmlns="http://www.w3.org/2000/svg" width="128" height="128.676" viewBox="0 0 128 128.676">
  <g id="Group_6090" data-name="Group 6090" transform="translate(-801 -1189)">
    <rect id="Rectangle_468" data-name="Rectangle 468" width="128" height="128" transform="translate(801 1189)" fill="#fff"/>
    <g id="_001-insurance-1" data-name="001-insurance-1" transform="translate(821.5 1220.063)">
      <g id="Group_5194" data-name="Group 5194" transform="translate(7.594 65.583)">
        <g id="Group_5193" data-name="Group 5193">
          <path id="Path_6529" data-name="Path 6529" d="M68.812,285.888H56.424a2.3,2.3,0,0,0-2.294,2.294v8.488a2.3,2.3,0,0,0,2.294,2.294H68.812a2.3,2.3,0,0,0,2.294-2.294v-8.488A2.3,2.3,0,0,0,68.812,285.888Zm-2.294,8.488h-7.8v-3.9h7.8Z" transform="translate(-54.13 -285.888)" stroke="#fff" stroke-width="0.7"/>
        </g>
      </g>
      <g id="Group_5196" data-name="Group 5196" transform="translate(53.703 65.583)">
        <g id="Group_5195" data-name="Group 5195">
          <path id="Path_6530" data-name="Path 6530" d="M269.812,285.888H257.424a2.3,2.3,0,0,0-2.294,2.294v8.488a2.3,2.3,0,0,0,2.294,2.294h12.388a2.3,2.3,0,0,0,2.294-2.294v-8.488A2.3,2.3,0,0,0,269.812,285.888Zm-2.294,8.488h-7.8v-3.9h7.8Z" transform="translate(-255.13 -285.888)" stroke="#fff" stroke-width="0.7"/>
        </g>
      </g>
      <g id="Group_5198" data-name="Group 5198" transform="translate(28.928 73.841)">
        <g id="Group_5197" data-name="Group 5197">
          <path id="Path_6531" data-name="Path 6531" d="M165.39,321.888H149.424a2.294,2.294,0,0,0,0,4.588H165.39a2.294,2.294,0,0,0,0-4.588Z" transform="translate(-147.13 -321.888)" stroke="#fff" stroke-width="0.7"/>
        </g>
      </g>
      <g id="Group_5200" data-name="Group 5200" transform="translate(28.928 67.418)">
        <g id="Group_5199" data-name="Group 5199">
          <path id="Path_6532" data-name="Path 6532" d="M165.39,293.888H149.424a2.294,2.294,0,1,0,0,4.588H165.39a2.294,2.294,0,1,0,0-4.588Z" transform="translate(-147.13 -293.888)" stroke="#fff" stroke-width="0.7"/>
        </g>
      </g>
      <g id="Group_5202" data-name="Group 5202" transform="translate(0 0)">
        <g id="Group_5201" data-name="Group 5201" transform="translate(0)">
          <path id="Path_6533" data-name="Path 6533" d="M107.512,11.123,87.164.273A2.234,2.234,0,0,0,84.985.3L65.142,11.146a2.3,2.3,0,0,0-1.216,2.019v15.37a30,30,0,0,0,1.858,10.231H39.5a7.635,7.635,0,0,0-7.02,4.657L26.809,56.613l-2.294,2.179A10.108,10.108,0,0,0,21.028,66.5V89.716a7.461,7.461,0,0,0,7.387,7.547h4.4A7.509,7.509,0,0,0,40.3,89.716v-2.8H79.984v2.776a7.607,7.607,0,0,0,7.593,7.547h4.359a7.583,7.583,0,0,0,7.547-7.547V65.881a10.117,10.117,0,0,0-3.143-7.318l-1.606-1.7-1.055-2.317a30.5,30.5,0,0,0,14.957-26.312V13.165A2.11,2.11,0,0,0,107.512,11.123ZM36.7,45.235a3.1,3.1,0,0,1,2.8-1.9h28.4a33.667,33.667,0,0,0,2.2,3.441,12,12,0,0,0-7.455,8.947H32.223Zm36.819,5.437a31.849,31.849,0,0,0,7.043,5.047H67.367A7.294,7.294,0,0,1,73.515,50.672ZM35.733,89.693a2.922,2.922,0,0,1-2.89,2.959H28.484a2.87,2.87,0,0,1-2.845-2.959v-3.28a7.1,7.1,0,0,0,2.845.5h7.249Zm59.185,0a2.966,2.966,0,0,1-2.959,2.959H87.6A3.006,3.006,0,0,1,84.6,89.693V86.917h7.364a7.66,7.66,0,0,0,2.959-.5Zm0-23.835V79.485a2.87,2.87,0,0,1-2.959,2.845H28.484a2.771,2.771,0,0,1-2.845-2.707V66.478a5.574,5.574,0,0,1,1.9-4.244l.046-.046,2.042-1.881h62.03l1.4,1.445c.023.023.069.046.115.092A5.577,5.577,0,0,1,94.918,65.858Zm9.176-37.645A25.941,25.941,0,0,1,88.2,52.186l-2.179.941-1.858-.8A26.073,26.073,0,0,1,68.514,28.489V14.5l17.5-9.612,18.077,9.635Z" transform="translate(-21.028 0)" stroke="#fff" stroke-width="0.7"/>
        </g>
      </g>
      <g id="Group_5204" data-name="Group 5204" transform="translate(54.55 22.324)">
        <g id="Group_5203" data-name="Group 5203">
          <path id="Path_6534" data-name="Path 6534" d="M280.733,98.158a2.3,2.3,0,0,0-3.235-.321l-10.736,8.74-3.9-4.565a2.294,2.294,0,1,0-3.487,2.982l5.345,6.263.069.069c.023.023.046.069.092.092s.069.069.092.092.069.046.092.069a.5.5,0,0,0,.115.069c.023.023.069.046.092.069.046.023.069.046.115.069a.174.174,0,0,0,.092.046.325.325,0,0,0,.138.046c.023.023.069.023.092.046.046.023.092.023.138.046.023,0,.069.023.092.023.046,0,.092.023.138.023.023,0,.069.023.092.023h.5c.046,0,.115-.023.161-.023a.084.084,0,0,0,.069-.023c.046,0,.092-.023.138-.023.023,0,.046-.023.069-.023.046,0,.069-.023.115-.046.023,0,.046-.023.092-.023.023-.023.069-.023.092-.046s.046-.023.092-.046.069-.023.092-.046a.119.119,0,0,1,.092-.046.174.174,0,0,1,.092-.046c.023,0,.046-.046.092-.069.023-.023.046-.023.069-.046l12.479-10.14A2.3,2.3,0,0,0,280.733,98.158Z" transform="translate(-258.824 -97.315)" fill="#ff4612" stroke="#fff" stroke-width="0.7"/>
        </g>
      </g>
    </g>
  </g>
</svg>
