<svg xmlns="http://www.w3.org/2000/svg" width="128" height="128" viewBox="0 0 128 128">
  <g id="Group_6078" data-name="Group 6078" transform="translate(-706 -1180)">
    <rect id="Rectangle_460" data-name="Rectangle 460" width="128" height="128" transform="translate(706 1180)" fill="#fff"/>
    <g id="replace-front-brake-pads" transform="translate(724.021 1218.929)">
      <g id="Group_4390" data-name="Group 4390" transform="translate(0 0)">
        <path id="Path_3051" data-name="Path 3051" d="M56.708,12.062a42.121,42.121,0,0,0-9.591,1.118l-.295-1.064a4.917,4.917,0,0,0-1.754-2.581l.368,0h-.372a4.673,4.673,0,0,0-4.539-.738A48.677,48.677,0,0,0,8.293,51.41a4.891,4.891,0,0,0,4.871,5.217h1.08A42.513,42.513,0,1,0,56.708,12.062Zm-44.452,40.5a1.2,1.2,0,0,1-.322-.9A45.012,45.012,0,0,1,41.741,12.252a1.149,1.149,0,0,1,.942.071,1.231,1.231,0,0,1,.623.773l.768,2.777v.005l0,0,4.212,15.249A1.262,1.262,0,0,1,47.5,32.62,24.027,24.027,0,0,0,32.976,51.946a1.2,1.2,0,0,1-1.2,1.013H13.164a1.228,1.228,0,0,1-.908-.4Zm44.45,41.3A39,39,0,0,1,17.891,56.626H31.778A4.834,4.834,0,0,0,36.6,52.377,20.356,20.356,0,0,1,48.909,36,4.957,4.957,0,0,0,51.8,30.15L48.092,16.714a38.5,38.5,0,0,1,8.616-.985,39.064,39.064,0,0,1,0,78.127Z" transform="translate(-8.283 -8.52)"/>
        <path id="Path_3052" data-name="Path 3052" d="M50.058,30.34a18.3,18.3,0,1,0,18.2,18.3A18.271,18.271,0,0,0,50.058,30.34Zm0,34.151A15.853,15.853,0,1,1,65.829,48.638,15.83,15.83,0,0,1,50.058,64.491Z" transform="translate(-1.633 -2.364)" stroke="#000" stroke-width="0.808"/>
        <path id="Path_3053" data-name="Path 3053" d="M42.361,54.624a2.028,2.028,0,1,0,2.018,2.027A2.023,2.023,0,0,0,42.361,54.624Zm12.88,0a2.028,2.028,0,1,0,2.017,2.027,2.021,2.021,0,0,0-2.017-2.027ZM57.247,44.3a2.017,2.017,0,1,0,2.017-2.028A2.022,2.022,0,0,0,57.247,44.3ZM38.333,42.269A2.028,2.028,0,1,0,40.351,44.3a2.022,2.022,0,0,0-2.018-2.028Zm10.466-3.6a2.028,2.028,0,1,0-2.017-2.028A2.023,2.023,0,0,0,48.8,38.673Z" transform="translate(-0.374 -1.158)" fill="#ff4612"/>
        <path id="Path_3054" data-name="Path 3054" d="M54.235,46.1a6.707,6.707,0,1,0-6.708,6.741A6.732,6.732,0,0,0,54.235,46.1Zm-6.707,4.3A4.3,4.3,0,1,1,51.8,46.1,4.292,4.292,0,0,1,47.529,50.393Z" transform="translate(0.897 0.178)" fill="#ff4612" stroke="#ff4612" stroke-width="0.808"/>
      </g>
    </g>
  </g>
</svg>
