<svg xmlns="http://www.w3.org/2000/svg" width="128" height="128" viewBox="0 0 128 128">
  <g id="Group_6067" data-name="Group 6067" transform="translate(-1345 -1633)">
    <rect id="Rectangle_458" data-name="Rectangle 458" width="128" height="128" transform="translate(1345 1633)" fill="none"/>
    <g id="Group_6064" data-name="Group 6064" transform="translate(1372.998 1663.065)">
      <g id="Group_5180" data-name="Group 5180" transform="translate(0.002 7)">
        <path id="Path_3011" data-name="Path 3011" d="M111.307,72.8H142.63a1.127,1.127,0,0,0,1.127-1.127V62.691a3.615,3.615,0,0,0-3.612-3.611H113.792a3.616,3.616,0,0,0-3.612,3.611v8.981A1.127,1.127,0,0,0,111.307,72.8Zm1.127-10.108a1.359,1.359,0,0,1,1.358-1.356h26.352a1.359,1.359,0,0,1,1.358,1.356v7.854H112.434Z" transform="translate(-101.676 -51.021)" stroke="#000" stroke-width="0.7"/>
        <g id="Group_5179" data-name="Group 5179" transform="translate(0 0)">
          <path id="Path_3012" data-name="Path 3012" d="M108.587,191.97a1.127,1.127,0,0,0-1.127,1.127v1.471a1.127,1.127,0,1,0,2.254,0V193.1A1.127,1.127,0,0,0,108.587,191.97Z" transform="translate(-99.466 -158.948)" stroke="#000" stroke-width="0.7"/>
          <path id="Path_3013" data-name="Path 3013" d="M108.587,217.71a1.127,1.127,0,0,0-1.127,1.127v22.079a1.127,1.127,0,1,0,2.254,0V218.837A1.127,1.127,0,0,0,108.587,217.71Z" transform="translate(-99.466 -179.852)" stroke="#000" stroke-width="0.7"/>
          <path id="Path_3014" data-name="Path 3014" d="M152.707,186.027a1.127,1.127,0,0,0,1.127,1.127h25.412a1.561,1.561,0,0,1,1.559,1.559v38a1.561,1.561,0,0,1-1.559,1.559H143.653a1.561,1.561,0,0,1-1.559-1.559v-38a1.561,1.561,0,0,1,1.559-1.559H148.2a1.127,1.127,0,1,0,0-2.254h-4.545a3.818,3.818,0,0,0-3.813,3.813v38a3.818,3.818,0,0,0,3.813,3.813h35.593a3.818,3.818,0,0,0,3.813-3.813v-38a3.818,3.818,0,0,0-3.813-3.813H153.834A1.127,1.127,0,0,0,152.707,186.027Z" transform="translate(-125.763 -153.205)" stroke="#000" stroke-width="0.7"/>
          <path id="Path_3015" data-name="Path 3015" d="M202.49,254.521a10.834,10.834,0,0,0,9.353-16.315l-8.38-14.309a1.127,1.127,0,0,0-1.945,0l-8.382,14.309a10.834,10.834,0,0,0,9.355,16.315Zm-7.409-15.175L202.49,226.7l7.408,12.649a8.586,8.586,0,1,1-14.817,0Z" transform="translate(-167.838 -184.425)" fill="#ff4612" stroke="#ff4612" stroke-width="0.7"/>
          <path id="Path_3016" data-name="Path 3016" d="M253.887,331.349a1.128,1.128,0,0,0,.366-.061,6.53,6.53,0,0,0,1.319-.627,6.634,6.634,0,0,0,1.172-.932,6.5,6.5,0,0,0,1.785-3.327,1.127,1.127,0,0,0-2.209-.444,4.251,4.251,0,0,1-1.169,2.178,4.371,4.371,0,0,1-.77.613,4.265,4.265,0,0,1-.86.409,1.127,1.127,0,0,0,.366,2.192Z" transform="translate(-217.474 -267.061)" fill="#ff4612" stroke="#ff4612" stroke-width="0.7"/>
          <path id="Path_3017" data-name="Path 3017" d="M136.063,32.807l-16.114-7.824a1.127,1.127,0,0,0-1.516.542l-2.249,4.881-.918-.473V25.586a9.418,9.418,0,0,0-9.408-9.406H74.308A9.418,9.418,0,0,0,64.9,25.586V96.877a9.418,9.418,0,0,0,9.408,9.406H126.87a9.417,9.417,0,0,0,9.406-9.406V41.46a1.127,1.127,0,0,0-.61-1L134.2,39.7l2.4-5.426a1.127,1.127,0,0,0-.538-1.47Zm-2.042,64.069a7.16,7.16,0,0,1-7.152,7.152H74.308a7.161,7.161,0,0,1-7.154-7.152V25.586a7.161,7.161,0,0,1,7.154-7.152h31.55a7.161,7.161,0,0,1,7.154,7.152V30.62a1.127,1.127,0,0,0,.61,1l20.4,10.524ZM132.2,38.668l-14.007-7.227L120,27.513l14.1,6.847Z" transform="translate(-64.9 -16.18)" stroke="#000" stroke-width="0.7"/>
        </g>
      </g>
    </g>
  </g>
</svg>
