<svg xmlns="http://www.w3.org/2000/svg" width="127" height="129.336" viewBox="0 0 127 129.336">
  <g id="Group_6062" data-name="Group 6062" transform="translate(-1312 -1203)">
    <g id="Tow_Truck" data-name="Tow Truck" transform="translate(1312 1231.761)">
      <rect id="Rectangle_134" data-name="Rectangle 134" width="8.237" height="4.119" transform="translate(82.374 61.45)"/>
      <rect id="Rectangle_135" data-name="Rectangle 135" width="4.119" height="4.119" transform="translate(18.534 86.162)"/>
      <rect id="Rectangle_136" data-name="Rectangle 136" width="4.119" height="4.119" transform="translate(94.73 86.162)"/>
      <path id="Path_3091" data-name="Path 3091" d="M124.14,60.5,114.125,41.962a6.178,6.178,0,0,0-5.437-3.241H80.5L15.349,8.353a2.062,2.062,0,0,0-2.737,1l-3.48,7.475a2.059,2.059,0,0,0,1,2.743l.107.043V30.483A2.059,2.059,0,0,0,12.3,32.542,2.059,2.059,0,1,1,10.237,34.6H6.119a6.178,6.178,0,1,0,8.237-5.826V21.531L67.9,46.488v29.3H4.059A2.059,2.059,0,0,0,2,77.847V94.322a4.119,4.119,0,0,0,4.119,4.119h4.3a12.342,12.342,0,0,0,24.341,0H86.618a12.342,12.342,0,0,0,24.341,0h8.423a6.178,6.178,0,0,0,6.178-6.178V65.714A10.212,10.212,0,0,0,124.14,60.5ZM110.5,43.92l9.432,17.453H88.492V42.839h20.2A2.059,2.059,0,0,1,110.5,43.92ZM15.476,12.956l60.66,28.272v4.557L13.738,16.7ZM72.018,48.409l4.119,1.919V75.788H72.018ZM22.593,104.619a8.237,8.237,0,1,1,8.237-8.237A8.237,8.237,0,0,1,22.593,104.619Zm0-20.593a12.368,12.368,0,0,0-12.171,10.3h-4.3V79.907H76.136V94.322H34.764a12.368,12.368,0,0,0-12.171-10.3Zm76.2,20.593a8.237,8.237,0,1,1,8.237-8.237A8.237,8.237,0,0,1,98.789,104.619Zm20.593-10.3H110.96a12.342,12.342,0,0,0-24.341,0H80.255V42.839h4.119V63.432a2.059,2.059,0,0,0,2.059,2.059h34.978c0,.074.031.146.031.222v3.9H113.2a4.119,4.119,0,0,0-4.119,4.119v4.119a4.119,4.119,0,0,0,4.119,4.119h8.237v4.119h-6.178V90.2h6.178v2.059A2.059,2.059,0,0,1,119.383,94.322Zm2.059-20.593v4.119H113.2V73.729Z" transform="translate(-2 -8.16)"/>
      <path id="Path_3092" data-name="Path 3092" d="M20.155,53.831h25.47a6.141,6.141,0,0,0,11.6,0h4.5a2.059,2.059,0,0,0,2.059-2.059V43.534a2.059,2.059,0,0,0-.6-1.454l-4.1-4.119a2.059,2.059,0,0,0-1.46-.605H54.246L40.409,25.5a2.059,2.059,0,0,0-1.341-.5H21.02a6.143,6.143,0,0,0-5.525,3.414l-4.471,8.942H6.119A4.119,4.119,0,0,0,2,41.475v10.3a2.059,2.059,0,0,0,2.059,2.059h4.5a6.141,6.141,0,0,0,11.6,0Zm31.269,0a2.059,2.059,0,1,1,2.059-2.059A2.059,2.059,0,0,1,51.424,53.831Zm-3.5-16.475H32.89V29.119h5.416Zm-28.744-7.1a2.047,2.047,0,0,1,1.841-1.139h7.751v8.237H15.629ZM6.119,41.475H56.766l2.9,2.91v5.327H57.223a6.141,6.141,0,0,0-11.6,0H20.155a6.141,6.141,0,0,0-11.6,0H6.119Zm8.237,12.356a2.059,2.059,0,1,1,2.059-2.059A2.059,2.059,0,0,1,14.356,53.831Z" transform="translate(-2 9.679)" fill="#ff4612"/>
    </g>
    <rect id="Rectangle_454" data-name="Rectangle 454" width="127" height="129" transform="translate(1312 1203)" fill="none"/>
  </g>
</svg>
