<svg xmlns="http://www.w3.org/2000/svg" width="128" height="128" viewBox="0 0 128 128">
  <g id="Group_6083" data-name="Group 6083" transform="translate(-1396 -1180)">
    <rect id="Rectangle_465" data-name="Rectangle 465" width="128" height="128" transform="translate(1396 1180)" fill="#fff"/>
    <g id="Group_6074" data-name="Group 6074" transform="translate(1415.481 1218.929)">
      <path id="Path_3065" data-name="Path 3065" d="M93.73,14.459l-7.7,7.634-.714-.708a6.07,6.07,0,0,0-8.416,0L48.651,49.379l-1.569-1.555a4.43,4.43,0,0,0-5.991,0l-4.423,4.382a4.075,4.075,0,0,0,0,5.937L38.236,59.7,23.258,74.542v.142L11.845,85.993a6.957,6.957,0,0,0,0,10.038l3.994,3.957a1.388,1.388,0,0,0,2,0,1.358,1.358,0,0,0,0-1.979l-3.994-3.959a4.239,4.239,0,0,1,0-6.079l7.419-7.351a6.6,6.6,0,0,0,2,4.1l.428.425-4.28,4.239a1.358,1.358,0,0,0,0,1.98L24.4,96.313a1.388,1.388,0,0,0,2,0l4.279-4.241.428.425a7.28,7.28,0,0,0,10.272,0l14.98-14.844,1.568,1.554a4.161,4.161,0,0,0,5.991,0l4.423-4.382a4.073,4.073,0,0,0,0-5.937l-1.569-1.555,28.245-27.99a5.937,5.937,0,0,0,0-8.342l-.571-.564L102,22.943a5.937,5.937,0,0,0,0-8.342,5.766,5.766,0,0,0-8.273-.14ZM25.54,93.343l-3-2.969,3.282-3.251,3,2.969Zm13.98-2.685a4.5,4.5,0,0,1-6.275,0l-7.99-7.918a4.4,4.4,0,0,1,0-6.219l.571-.567L30.819,80.9a1.388,1.388,0,0,0,2,0,1.358,1.358,0,0,0,0-1.979l-4.993-4.949L30.1,71.713,35.1,76.662a1.388,1.388,0,0,0,2,0,1.358,1.358,0,0,0,0-1.98L32.1,69.735l2.283-2.262,4.993,4.947a1.388,1.388,0,0,0,2,0,1.358,1.358,0,0,0,0-1.979l-4.993-4.947,3.709-3.675L54.356,75.954l-14.835,14.7Zm26.963-17.53L62.06,77.509a1.388,1.388,0,0,1-2,0l-21.4-21.2a1.358,1.358,0,0,1,0-1.979l4.423-4.384a1.388,1.388,0,0,1,2,0l21.4,21.206A1.357,1.357,0,0,1,66.483,73.127ZM93.159,37.5,64.914,65.494,50.648,51.357,78.893,23.365a3.307,3.307,0,0,1,4.422,0l9.844,9.755A2.974,2.974,0,0,1,93.159,37.5Zm6.99-16.681-7.561,7.493-4.422-4.384,7.561-7.493a3.306,3.306,0,0,1,4.422,0,3.232,3.232,0,0,1,0,4.384Z" transform="translate(-9.705 -12.781)" stroke="#000" stroke-width="0.5"/>
      <path id="Path_3066" data-name="Path 3066" d="M41.457,50.123a1.355,1.355,0,0,0,0,1.979,1.388,1.388,0,0,0,2,0,1.355,1.355,0,0,0,0-1.979A1.383,1.383,0,0,0,41.457,50.123Zm5.707,5.8a1.358,1.358,0,0,0,0,1.979,1.388,1.388,0,0,0,2,0,1.358,1.358,0,0,0,0-1.979A1.383,1.383,0,0,0,47.163,55.919Z" transform="translate(3.337 2.59)" fill="#ff4612" stroke="#ff4612" stroke-width="1.228"/>
    </g>
  </g>
</svg>
