<svg id="Group_5241" data-name="Group 5241" xmlns="http://www.w3.org/2000/svg" width="43.35" height="48.917" viewBox="0 0 43.35 48.917">
  <path id="Path_6557" data-name="Path 6557" d="M176.362,250.2c.095-.155.19-.307.285-.465,4.281-7.087,6.435-13.287,6.4-18.425a13.377,13.377,0,0,0-26.754,0c-.031,5.143,2.124,11.343,6.4,18.43.1.158.19.31.285.465C153.975,251.31,148,254.531,148,258.355c0,4.8,9.519,8.562,21.675,8.562s21.675-3.761,21.675-8.562c0-3.825-5.975-7.045-14.987-8.159ZM157.74,231.305a11.935,11.935,0,1,1,23.87,0c.062,10.243-9.515,22.877-11.935,25.906-2.42-3.029-12-15.663-11.935-25.911Zm11.935,34.17c-12.1,0-20.233-3.682-20.233-7.12,0-3.049,6.028-5.886,14.4-6.807a76.276,76.276,0,0,0,5.288,7.274.721.721,0,0,0,1.1,0,76.279,76.279,0,0,0,5.288-7.274c8.365.92,14.4,3.756,14.4,6.807,0,3.438-8.13,7.12-20.233,7.12Zm0,0" transform="translate(-148 -218)"/>
  <path id="Path_6558" data-name="Path 6558" d="M210.495,519.771a19.7,19.7,0,0,1-7.23-2.03.721.721,0,1,0-.755,1.229,21.04,21.04,0,0,0,7.8,2.231.774.774,0,0,0,.092.005.721.721,0,0,0,.091-1.436Zm0,0" transform="translate(-194.716 -476.473)" fill="#ff4612"/>
  <path id="Path_6559" data-name="Path 6559" d="M290.619,535.611c-1,.023-2.052.018-3.073-.02a.722.722,0,0,0-.053,1.442c.634.023,1.277.035,1.915.035q.629,0,1.245-.014a.722.722,0,0,0,.7-.738.713.713,0,0,0-.738-.705Zm0,0" transform="translate(-267.733 -491.967)" fill="#ff4612"/>
  <path id="Path_6560" data-name="Path 6560" d="M273.643,276.629a6.09,6.09,0,1,0-6.089,6.09,6.09,6.09,0,0,0,6.089-6.09Zm-10.737,0a4.648,4.648,0,1,1,4.648,4.648,4.648,4.648,0,0,1-4.648-4.648Zm0,0" transform="translate(-245.878 -263.323)" fill="#ff4612"/>
</svg>
