<svg xmlns="http://www.w3.org/2000/svg" width="128" height="128" viewBox="0 0 128 128">
  <g id="Group_6068" data-name="Group 6068" transform="translate(-1491 -1633)">
    <rect id="Rectangle_459" data-name="Rectangle 459" width="128" height="128" transform="translate(1491 1633)" fill="none"/>
    <g id="scooter" transform="translate(1499 1670.065)">
      <g id="Group_4416" data-name="Group 4416" transform="translate(52.658 24.448)">
        <g id="Group_4415" data-name="Group 4415">
          <path id="Path_3068" data-name="Path 3068" d="M7.078,152H41.817a7.086,7.086,0,0,1,7.079,7.079v.888a7.071,7.071,0,0,1-4.621,6.614,48.744,48.744,0,0,1,15.859,26.385,1.881,1.881,0,0,1-1.836,2.289H16.925a1.881,1.881,0,0,1-1.881-1.881,22.592,22.592,0,0,1,22.568-22.568,1.881,1.881,0,1,1,0,3.761A18.831,18.831,0,0,0,18.9,191.493h36.99A45.016,45.016,0,0,0,39.53,167.551l-.664-.506H12.412a25.126,25.126,0,0,1-2.445,23.626,1.881,1.881,0,1,1-3.109-2.118,21.293,21.293,0,0,0,1.365-21.509H7.078A7.086,7.086,0,0,1,0,159.966v-.888A7.086,7.086,0,0,1,7.078,152Zm-3.317,7.966a3.321,3.321,0,0,0,3.317,3.317H41.817a3.321,3.321,0,0,0,3.317-3.317v-.888a3.321,3.321,0,0,0-3.317-3.317H7.078a3.321,3.321,0,0,0-3.317,3.317Z" transform="translate(0 -152)"/>
        </g>
      </g>
      <g id="Group_4418" data-name="Group 4418" transform="translate(13.164 71.464)">
        <g id="Group_4417" data-name="Group 4417">
          <path id="Path_3069" data-name="Path 3069" d="M361.881,352a1.881,1.881,0,0,1,1.881,1.881,3.761,3.761,0,1,0,7.523,0,1.881,1.881,0,1,1,3.761,0,7.523,7.523,0,0,1-15.045,0A1.881,1.881,0,0,1,361.881,352Z" transform="translate(-360 -352)"/>
        </g>
      </g>
      <g id="Group_4420" data-name="Group 4420" transform="translate(82.748 71.464)">
        <g id="Group_4419" data-name="Group 4419" transform="translate(0)">
          <path id="Path_3070" data-name="Path 3070" d="M65.881,352a1.881,1.881,0,0,1,1.881,1.881,3.761,3.761,0,1,0,7.523,0,1.881,1.881,0,1,1,3.761,0,7.523,7.523,0,0,1-15.045,0A1.881,1.881,0,0,1,65.881,352Z" transform="translate(-64 -352)"/>
        </g>
      </g>
      <g id="Group_4422" data-name="Group 4422" transform="translate(0 18.806)">
        <g id="Group_4421" data-name="Group 4421">
          <path id="Path_3071" data-name="Path 3071" d="M268.574,154.425v-1.977l.011-.207a40.2,40.2,0,0,1,11.824-23.7l.551-.545h.779a11.3,11.3,0,0,1,11.284,11.284v16.384a12.976,12.976,0,0,0,3.821,9.226l.658.658a13.143,13.143,0,0,0,5.1,3.154,1.883,1.883,0,1,1-1.19,3.573,16.913,16.913,0,0,1-6.569-4.06l-.658-.658a16.7,16.7,0,0,1-4.924-11.893V139.284a7.534,7.534,0,0,0-6.77-7.485,36.3,36.3,0,0,0-10.155,20.757v1.869a20.706,20.706,0,0,1,18.806,20.591,1.881,1.881,0,0,1-1.881,1.881H251.648a1.881,1.881,0,0,1-1.881-1.881A20.706,20.706,0,0,1,268.574,154.425Zm18.7,18.71a16.926,16.926,0,0,0-33.645,0Z" transform="translate(-249.767 -128)"/>
        </g>
      </g>
      <g id="Group_4424" data-name="Group 4424" transform="translate(103.435 37.613)">
        <g id="Group_4423" data-name="Group 4423" transform="translate(0)">
          <path id="Path_3072" data-name="Path 3072" d="M1.881,208H7.523A1.881,1.881,0,0,1,9.4,209.881V217.4a1.881,1.881,0,1,1-3.761,0v-5.642H1.881a1.881,1.881,0,1,1,0-3.761Z" transform="translate(0 -208)" fill="#ff4612"/>
        </g>
      </g>
      <g id="Group_4426" data-name="Group 4426" transform="translate(24.448)">
        <g id="Group_4425" data-name="Group 4425">
          <path id="Path_3073" data-name="Path 3073" d="M273.881,48h6.582a6.571,6.571,0,0,1,6.486,5.642h7.619a1.881,1.881,0,0,1,0,3.761h-7.619a6.571,6.571,0,0,1-6.486,5.642h-6.582A1.881,1.881,0,0,1,272,61.164V49.881A1.881,1.881,0,0,1,273.881,48Zm1.881,11.284h4.7a2.821,2.821,0,0,0,2.821-2.821V54.582a2.821,2.821,0,0,0-2.821-2.821h-4.7Z" transform="translate(-272 -48)" fill="#ff4612"/>
        </g>
      </g>
      <g id="Group_4428" data-name="Group 4428" transform="translate(0 71.464)">
        <g id="Group_4427" data-name="Group 4427">
          <path id="Path_3074" data-name="Path 3074" d="M1.881,367.045h8.192a16.893,16.893,0,0,1-6.311-13.164,1.881,1.881,0,1,1,3.761,0,13.164,13.164,0,0,0,26.329,0,1.881,1.881,0,1,1,3.761,0A16.893,16.893,0,0,1,31.3,367.045H79.656a16.893,16.893,0,0,1-6.311-13.164,1.881,1.881,0,1,1,3.761,0,13.164,13.164,0,0,0,26.329,0,1.881,1.881,0,1,1,3.761,0,16.893,16.893,0,0,1-6.311,13.164h10.073a1.881,1.881,0,0,1,0,3.761H1.881a1.881,1.881,0,0,1,0-3.761Z" transform="translate(0 -352)"/>
        </g>
      </g>
    </g>
  </g>
</svg>
