<svg xmlns="http://www.w3.org/2000/svg" width="128" height="129" viewBox="0 0 128 129">
  <g id="Group_6063" data-name="Group 6063" transform="translate(-1456 -1203)">
    <g id="Group_6059" data-name="Group 6059" transform="translate(1463 1239.694)">
      <g id="_007-battery" data-name="007-battery" transform="translate(10)">
        <path id="Path_3029" data-name="Path 3029" d="M102.262,26.179H97.551V21.647a4.6,4.6,0,0,0-9.208,0v4.532H65.357V23.467h4.782a1.5,1.5,0,0,0,1.5-1.5V12.974a1.5,1.5,0,0,0-1.5-1.5H41.872a1.5,1.5,0,0,0-1.5,1.5v8.994a1.5,1.5,0,0,0,1.5,1.5h4.782v2.712H23.669V21.647a4.6,4.6,0,0,0-9.208,0v4.532H9.749a1.5,1.5,0,0,0-1.5,1.5v8a1.5,1.5,0,0,0,1.5,1.5H14.46V99.962a1.5,1.5,0,0,0,1.5,1.5H96.052a1.5,1.5,0,0,0,1.5-1.5V37.173h4.711a1.5,1.5,0,0,0,1.5-1.5v-8A1.5,1.5,0,0,0,102.262,26.179ZM91.34,21.647a1.606,1.606,0,0,1,3.212,0v4.532H91.34Zm-47.97-7.174H68.64v6H43.371Zm6.281,8.994H62.359v2.712H49.652Zm-32.194-1.82a1.606,1.606,0,0,1,3.212,0v4.532H17.458ZM94.553,98.464H17.458V45.783H94.553Zm0-55.679H17.458V37.173H94.553Zm6.21-8.61H11.248v-5h89.515Z" transform="translate(-8.25 -11.475)" stroke="#000" stroke-width="0.5"/>
        <path id="Path_3030" data-name="Path 3030" d="M50.612,83.38h9.754V96.527a1.5,1.5,0,0,0,2.809.73l11.253-20.19a1.5,1.5,0,0,0-1.31-2.227H63.364V61.691a1.5,1.5,0,0,0-2.809-.73L49.3,81.151a1.5,1.5,0,0,0,1.31,2.227Zm9.754-15.92v8.877a1.5,1.5,0,0,0,1.5,1.5h8.7l-7.2,12.922V81.881a1.5,1.5,0,0,0-1.5-1.5h-8.7Z" transform="translate(-14.11 -18.461)" fill="#ff4612" stroke="#ff4612" stroke-width="0.5"/>
        <path id="Path_3031" data-name="Path 3031" d="M25.082,63.616h2.927v2.926a1.5,1.5,0,1,0,3,0V63.616h2.927a1.5,1.5,0,1,0,0-3H31.007V57.691a1.5,1.5,0,0,0-3,0v2.927H25.082a1.5,1.5,0,1,0,0,3Z" transform="translate(-10.449 -17.887)" fill="#ff4612" stroke="#ff4612" stroke-width="0.5"/>
        <path id="Path_3032" data-name="Path 3032" d="M92.082,64.357h8.851a1.5,1.5,0,1,0,0-3H92.082a1.5,1.5,0,1,0,0,3Z" transform="translate(-20.056 -18.628)" fill="#ff4612" stroke="#ff4612" stroke-width="0.5"/>
      </g>
    </g>
    <rect id="Rectangle_455" data-name="Rectangle 455" width="128" height="129" transform="translate(1456 1203)" fill="none"/>
  </g>
</svg>
