<svg xmlns="http://www.w3.org/2000/svg" width="128" height="128" viewBox="0 0 128 128">
  <g id="Group_6097" data-name="Group 6097" transform="translate(-1760 -1189)">
    <rect id="Rectangle_475" data-name="Rectangle 475" width="128" height="128" transform="translate(1760 1189)" fill="#fff"/>
    <g id="Group_6089" data-name="Group 6089" transform="translate(1782 1220.063)">
      <path id="Path_2784" data-name="Path 2784" d="M577.015,319.693s25.528.957,40.207-7.659c0,0,21.061,10.371,39.728,8.138,0,0,6.223,22.337-3.51,45.153,0,0-9.253,26.326-36.218,40.686,0,0-22.5-11.328-34.144-34.144C583.078,371.866,570.952,351.284,577.015,319.693Z" transform="translate(-575.318 -312.034)" fill="none" stroke="#000" stroke-width="2.5"/>
      <g id="Group_4255" data-name="Group 4255" transform="translate(20.166 27.225)">
        <path id="Path_2739" data-name="Path 2739" d="M125.55,170.412a.833.833,0,0,0,.086-.691l-2.643-8.362a1.426,1.426,0,0,0-1.324-1.046H101.127a1.425,1.425,0,0,0-1.324,1.046l-2.643,8.363a.758.758,0,0,0,.641,1.011H125A.661.661,0,0,0,125.55,170.412Zm-26.789-1.2,2.324-7.351a.047.047,0,0,1,.043-.034h20.541a.047.047,0,0,1,.043.034l2.324,7.351Z" transform="translate(-88.974 -157.885)" fill="#ff4612" stroke="#ff4612" stroke-width="0.2"/>
        <path id="Path_2740" data-name="Path 2740" d="M351.687,355.876c0,1.787,1.89,3.187,4.3,3.187s4.3-1.4,4.3-3.187-1.89-3.187-4.3-3.187S351.687,354.089,351.687,355.876Zm7.248,0c0,.788-1.259,1.669-2.944,1.669s-2.944-.881-2.944-1.669,1.259-1.669,2.944-1.669S358.935,355.088,358.935,355.876Z" transform="translate(-320.52 -330.838)" fill="#ff4612" stroke="#ff4612" stroke-width="0.2"/>
        <path id="Path_2741" data-name="Path 2741" d="M67.427,352.689c-2.413,0-4.3,1.4-4.3,3.187s1.89,3.187,4.3,3.187,4.3-1.4,4.3-3.187S69.84,352.689,67.427,352.689Zm0,4.856c-1.685,0-2.944-.881-2.944-1.669s1.259-1.669,2.944-1.669,2.945.881,2.945,1.669S69.112,357.545,67.427,357.545Z" transform="translate(-58.049 -330.838)" fill="#ff4612" stroke="#ff4612" stroke-width="0.2"/>
        <path id="Path_2742" data-name="Path 2742" d="M51.182,146.787H47.558a.7.7,0,0,0-.659.575l-.477,2.132-3.338-10.562a3.633,3.633,0,0,0-3.375-2.666H19.167a3.633,3.633,0,0,0-3.375,2.666l-3.338,10.562-.477-2.132a.7.7,0,0,0-.659-.575H7.693a.722.722,0,0,0-.679.759v3.237a.722.722,0,0,0,.679.759h3.753L9.13,155.163a4.3,4.3,0,0,0-.667,2.323v9.484a4.159,4.159,0,0,0,1.451,3.211c0,.009,0,.018,0,.027v2.428a1.5,1.5,0,0,0,1.4,1.568h4.349a1.5,1.5,0,0,0,1.4-1.568v-1.669H41.8v1.669a1.5,1.5,0,0,0,1.4,1.568h4.349a1.5,1.5,0,0,0,1.4-1.568v-2.428c0-.009,0-.018,0-.027a4.159,4.159,0,0,0,1.451-3.211v-9.484a4.3,4.3,0,0,0-.667-2.323l-2.317-3.621h3.753a.722.722,0,0,0,.679-.759v-3.237A.722.722,0,0,0,51.182,146.787ZM8.373,150.024V148.3h2.414l.385,1.72Zm15.221,11.229H35.281v1.72H23.594Zm.107-1.517a2.264,2.264,0,0,1,2.113-1.72h7.248a2.264,2.264,0,0,1,2.113,1.72Zm-.107,4.755H35.281v1.72H23.594Zm25.352,3.237a2.264,2.264,0,0,1-2.113,1.72H12.042a2.264,2.264,0,0,1-2.113-1.72Zm-33.234,4.906a.048.048,0,0,1-.045.051H11.318a.048.048,0,0,1-.045-.051v-1.669h4.439ZM47.6,170.965v1.669a.048.048,0,0,1-.045.051H43.209a.048.048,0,0,1-.045-.051v-1.669H47.6Zm1.45-13.479v8.725H36.64v-5.716a3.809,3.809,0,0,0-3.579-4H25.814a3.809,3.809,0,0,0-3.579,4v5.716H9.823v-8.725a2.665,2.665,0,0,1,.413-1.441l2.881-4.5H38.135a.763.763,0,0,0,0-1.518H13.727l3.346-10.587a2.253,2.253,0,0,1,2.093-1.654H39.708a2.253,2.253,0,0,1,2.093,1.654l3.346,10.587H41.034a.763.763,0,0,0,0,1.518h4.724l2.881,4.5A2.665,2.665,0,0,1,49.053,157.486Zm1.45-7.461H47.7l.385-1.72H50.5Z" transform="translate(-7.014 -136.266)" fill="#ff4612" stroke="#ff4612" stroke-width="0.2"/>
      </g>
    </g>
  </g>
</svg>
