<svg xmlns="http://www.w3.org/2000/svg" width="128" height="129.499" viewBox="0 0 128 129.499">
  <g id="Group_6080" data-name="Group 6080" transform="translate(-982 -1178.93)">
    <path id="Path_7113" data-name="Path 7113" d="M0,0H128V128H0Z" transform="translate(982 1180)" fill="#fff"/>
    <g id="Group_6069" data-name="Group 6069" transform="translate(-403 -95.289)">
      <g id="replace-starter-motor" transform="translate(1403.698 1314.218)">
        <g id="Group_4395" data-name="Group 4395" transform="translate(0 0)">
          <path id="Path_3064" data-name="Path 3064" d="M97.613,45.268V41.54a1.866,1.866,0,0,0-1.867-1.864h-5.6V35.947a9.341,9.341,0,0,0-9.336-9.323H49.066V13.57A1.866,1.866,0,0,0,47.2,11.706H43.465V7.977H39.73v3.729H36a1.866,1.866,0,0,0-1.867,1.866V26.623H17.324a9.339,9.339,0,0,0-9.335,9.322V86.29a11.2,11.2,0,0,0,22.4,0V78.831H80.809a9.339,9.339,0,0,0,9.335-9.322v-3.73h5.6a1.866,1.866,0,0,0,1.866-1.864ZM27.2,86.29c0,4.119-3.885,8.587-8.011,8.587s-7.976-4.469-7.976-8.587V78.831H27.2Zm0-10.322H11.214V35.947a6.543,6.543,0,0,1,6.11-6.145H27.2Zm9.477-61.655h9.94v4.852h-9.94Zm0,7.525h9.94v4.785h-9.94Zm31.51,54.13h-37.8V65.779h37.8V75.968Zm0-13.025h-37.8V29.8h37.8V62.943Zm19.239-21.4V69.508c0,3.09-3.526,6.46-6.619,6.46H71.473V29.8h9.335c3.094,0,6.62,3.054,6.62,6.145Zm7.726,5.593v15.81H90.145V42.549h5.008Z" transform="translate(-7.989 -7.977)"/>
        </g>
      </g>
      <g id="replace-starter-motor-2" data-name="replace-starter-motor" transform="translate(1429.837 1314.218)">
        <g id="Group_4395-2" data-name="Group 4395" transform="translate(0 0)">
          <path id="Path_3064-2" data-name="Path 3064" d="M36.945,26.623V13.57a1.866,1.866,0,0,0-1.867-1.864H31.344V7.977H27.609v3.729H23.875a1.866,1.866,0,0,0-1.867,1.866V26.623c2.78.013,1.7-.01,5.594,0,.859.008,2.6.093,6.264,0A22.943,22.943,0,0,0,36.945,26.623ZM24.558,14.313H34.5v4.852h-9.94Zm0,7.525H34.5v4.785h-9.94Z" transform="translate(-22.008 -7.977)" fill="#ff4612"/>
        </g>
      </g>
    </g>
  </g>
</svg>
