<svg xmlns="http://www.w3.org/2000/svg" width="128" height="129.097" viewBox="0 0 128 129.097">
  <g id="Group_6084" data-name="Group 6084" transform="translate(-1534 -1180)">
    <path id="Path_7116" data-name="Path 7116" d="M0,0H128V128H0Z" transform="translate(1534 1180)" fill="#fff"/>
    <g id="Group_6075" data-name="Group 6075" transform="translate(1553.079 1218.929)">
      <path id="Path_3059" data-name="Path 3059" d="M53.124,17.177A35.946,35.946,0,1,0,89.07,53.124,35.988,35.988,0,0,0,53.124,17.177ZM82.9,68.887l-5.9-3.407a26.641,26.641,0,0,0,2.418-6.709l6.715,1.184a33.444,33.444,0,0,1-3.23,8.932ZM65.735,84.364l-2.328-6.4a26.9,26.9,0,0,0,6.18-3.6l4.375,5.215A33.706,33.706,0,0,1,65.735,84.364ZM32.285,79.578l4.376-5.215a26.9,26.9,0,0,0,6.179,3.6l-2.33,6.4a33.706,33.706,0,0,1-8.226-4.787Zm12.665-.838A26.771,26.771,0,0,0,52,79.985v6.808a33.51,33.51,0,0,1-9.379-1.656l2.328-6.4Zm9.3,1.246A26.771,26.771,0,0,0,61.3,78.739l2.33,6.4a33.511,33.511,0,0,1-9.381,1.657Zm-1.123-2.218A24.644,24.644,0,1,1,77.767,53.124,24.671,24.671,0,0,1,53.124,77.767Zm-33-17.811,6.713-1.184a26.651,26.651,0,0,0,2.418,6.711l-5.9,3.405a33.441,33.441,0,0,1-3.23-8.932Zm-.7-6.832a33.917,33.917,0,0,1,.356-4.866l6.711,1.183a26.225,26.225,0,0,0-.031,7.116L19.75,57.74a33.811,33.811,0,0,1-.325-4.618Zm4.028-15.96,5.9,3.405a26.693,26.693,0,0,0-2.462,6.662l-6.713-1.184a33.458,33.458,0,0,1,3.274-8.884ZM40.591,21.848l2.33,6.4a26.891,26.891,0,0,0-6.132,3.534l-4.374-5.214a33.7,33.7,0,0,1,8.177-4.718Zm33.241,4.718-4.375,5.215a26.891,26.891,0,0,0-6.132-3.534l2.33-6.4a33.7,33.7,0,0,1,8.177,4.718Zm-12.617.911a26.746,26.746,0,0,0-6.969-1.218V19.451a33.54,33.54,0,0,1,9.3,1.628ZM52,26.259a26.748,26.748,0,0,0-6.969,1.218l-2.33-6.4A33.519,33.519,0,0,1,52,19.451ZM86.069,46.045l-6.713,1.184a26.692,26.692,0,0,0-2.462-6.662l5.9-3.407a33.455,33.455,0,0,1,3.274,8.884ZM79.787,56.556a26.3,26.3,0,0,0-.032-7.116l6.712-1.183A33.285,33.285,0,0,1,86.5,57.74l-6.712-1.184Zm1.869-21.331-5.9,3.405a27.093,27.093,0,0,0-4.572-5.413L75.558,28a33.946,33.946,0,0,1,6.1,7.22ZM30.689,28l4.374,5.212a27.1,27.1,0,0,0-4.572,5.413l-5.9-3.405A33.947,33.947,0,0,1,30.689,28Zm-6.218,42.83,5.9-3.407a27.084,27.084,0,0,0,4.57,5.486l-4.378,5.218a33.949,33.949,0,0,1-6.094-7.3Zm51.212,7.3L71.3,72.913a27.085,27.085,0,0,0,4.573-5.486l5.9,3.407a33.95,33.95,0,0,1-6.094,7.3Z" transform="translate(-8.191 -8.191)" stroke="#000" stroke-width="0.5"/>
      <path id="Path_3060" data-name="Path 3060" d="M46.186,34.621a11.45,11.45,0,1,0,11.448,11.45A11.463,11.463,0,0,0,46.186,34.621Zm0,20.652a9.2,9.2,0,1,1,9.2-9.2A9.213,9.213,0,0,1,46.186,55.273Z" transform="translate(-1.253 -1.299)" fill="#ff4612" stroke="#ff4612" stroke-width="0.758"/>
      <path id="Path_3061" data-name="Path 3061" d="M20.48,25.523a5.02,5.02,0,1,0-5.02-5.02A5.025,5.025,0,0,0,20.48,25.523Zm0-7.792A2.773,2.773,0,1,1,17.706,20.5,2.776,2.776,0,0,1,20.48,17.732Zm66.645-2.248a5.02,5.02,0,1,0,5.02,5.02,5.027,5.027,0,0,0-5.02-5.02Zm0,7.793A2.773,2.773,0,1,1,89.9,20.5a2.776,2.776,0,0,1-2.773,2.773ZM20.48,82.06a5.02,5.02,0,1,0,5.02,5.02,5.027,5.027,0,0,0-5.02-5.02Zm0,7.793a2.773,2.773,0,1,1,2.773-2.773,2.776,2.776,0,0,1-2.773,2.773Z" transform="translate(-8.869 -8.86)" stroke="#000" stroke-width="0.5"/>
      <path id="Path_3062" data-name="Path 3062" d="M68.25,63.2a5.02,5.02,0,1,0,5.02,5.02A5.027,5.027,0,0,0,68.25,63.2Zm0,7.793a2.773,2.773,0,1,1,2.773-2.774A2.776,2.776,0,0,1,68.25,71Z" transform="translate(10.005 9.995)" stroke="#000" stroke-width="0.5"/>
      <path id="Path_3063" data-name="Path 3063" d="M91.418,10.736h-71.5a9.194,9.194,0,0,0-9.181,9.181v71.5a9.194,9.194,0,0,0,9.181,9.183h71.5a9.194,9.194,0,0,0,9.183-9.183v-71.5A9.194,9.194,0,0,0,91.418,10.736Zm6.935,80.682a6.944,6.944,0,0,1-6.934,6.935h-71.5a6.944,6.944,0,0,1-6.935-6.934v-71.5a6.943,6.943,0,0,1,6.935-6.935h71.5a6.944,6.944,0,0,1,6.935,6.935v71.5Z" transform="translate(-10.736 -10.736)" stroke="#000" stroke-width="0.606"/>
    </g>
  </g>
</svg>
