<svg id="fl-warning" xmlns="http://www.w3.org/2000/svg" width="18" height="16.2" viewBox="0 0 18 16.2">
  <path id="Path_7232" data-name="Path 7232" d="M9,4.5a.9.9,0,0,1,.9.9V9.9a.9.9,0,1,1-1.8,0V5.4A.9.9,0,0,1,9,4.5Z" fill="#ff4612"/>
  <path id="Path_7233" data-name="Path 7233" d="M9.9,12.6a.9.9,0,1,1-.9-.9A.9.9,0,0,1,9.9,12.6Z" fill="#ff4612"/>
  <path id="Path_7234" data-name="Path 7234" d="M17.574,11.228,11.689,1.666a3,3,0,0,0-5.378,0L.426,11.228q-.017.027-.032.056A3.482,3.482,0,0,0,.4,14.523,3.05,3.05,0,0,0,3.1,16.2H14.9A3.05,3.05,0,0,0,17.6,14.523a3.482,3.482,0,0,0,.01-3.239C17.6,11.265,17.585,11.246,17.574,11.228Zm-9.683-8.7a1.208,1.208,0,0,1,2.218,0q.015.028.031.056l5.882,9.558A1.682,1.682,0,0,1,16,13.68a1.252,1.252,0,0,1-1.1.72H3.1A1.252,1.252,0,0,1,2,13.68a1.683,1.683,0,0,1-.018-1.539L7.859,2.584Q7.876,2.557,7.891,2.529Z" fill="#ff4612" fill-rule="evenodd"/>
</svg>
