<svg xmlns="http://www.w3.org/2000/svg" width="50" height="50" viewBox="0 0 50 50">
  <g id="Group_6289" data-name="Group 6289" transform="translate(9899 3244)">
    <g id="Group_6304" data-name="Group 6304">
      <path id="Path_7256" data-name="Path 7256" d="M0,0H50V50H0Z" transform="translate(-9899 -3244)" fill="#fff"/>
      <g id="_13-car" data-name="13-car" transform="translate(-9902 -3329.548)">
        <g id="linear_color" data-name="linear color" transform="translate(4 100)">
          <path id="Path_6744" data-name="Path 6744" d="M49.149,108.873l-8.424-1.278-8.068-6.639A4.209,4.209,0,0,0,29.992,100H18.819a4.175,4.175,0,0,0-3.277,1.575L10.7,107.63H7.433A3.437,3.437,0,0,0,4,111.063v3.815a4.2,4.2,0,0,0,4.2,4.2h2.042a4.958,4.958,0,0,0,9.649,0H37.706a4.958,4.958,0,0,0,9.649,0h1.279a3.437,3.437,0,0,0,3.433-3.433v-3.373a3.414,3.414,0,0,0-2.918-3.395ZM31.2,102.723l5.962,4.906H26.126v-5.341h3.865A1.914,1.914,0,0,1,31.2,102.723ZM17.329,103a1.9,1.9,0,0,1,1.49-.715h.441v5.341h-5.63Zm-2.266,17.6a2.67,2.67,0,1,1,2.67-2.67A2.67,2.67,0,0,1,15.063,120.6Zm27.467,0a2.67,2.67,0,1,1,2.67-2.67A2.67,2.67,0,0,1,42.53,120.6Zm7.248-4.959a1.146,1.146,0,0,1-1.144,1.144H47.355a4.958,4.958,0,0,0-9.649,0H19.888a4.958,4.958,0,0,0-9.649,0H8.2a1.91,1.91,0,0,1-1.907-1.907v-3.815a1.146,1.146,0,0,1,1.144-1.144H20.4a1.144,1.144,0,0,0,1.144-1.144v-6.485h2.289v6.485a1.144,1.144,0,0,0,1.144,1.144h15.8l8.022,1.217a1.152,1.152,0,0,1,.973,1.132Z" transform="translate(-4 -100)" stroke="#fff" stroke-width="1"/>
          <path id="Path_6745" data-name="Path 6745" d="M214.67,212h-1.526a1.144,1.144,0,1,0,0,2.289h1.526a1.144,1.144,0,0,0,0-2.289Z" transform="translate(-192.163 -201.318)" fill="#ff4612" stroke="#fff" stroke-width="1"/>
        </g>
      </g>
    </g>
  </g>
</svg>
