<svg xmlns="http://www.w3.org/2000/svg" width="50" height="50" viewBox="0 0 50 50">
  <g id="Group_6303" data-name="Group 6303" transform="translate(9728 3301)">
    <rect id="Rectangle_519" data-name="Rectangle 519" width="50" height="50" transform="translate(-9728 -3301)" fill="#fff"/>
    <g id="_009-windshield" data-name="009-windshield" transform="translate(-9726 -3406.469)">
      <g id="Group_5629" data-name="Group 5629" transform="translate(0 119.468)">
        <path id="Path_6851" data-name="Path 6851" d="M46.971,139.623,41.487,120.04a.783.783,0,0,0-.754-.572H6.267a.783.783,0,0,0-.754.572L.029,139.623a.783.783,0,0,0,.5.952c.115.04,11.614,3.959,22.972,3.959s22.857-3.92,22.972-3.959A.783.783,0,0,0,46.971,139.623Zm-7.889,1.369L35.25,137.16v-5.215a.783.783,0,1,0-1.567,0v3.648l-8.846-8.846a.783.783,0,0,0-1.108,1.108l13.537,13.537a70.591,70.591,0,0,1-12.69,1.563.778.778,0,0,0-.083-.1L21.15,139.51V134.3a.783.783,0,0,0-1.567,0v3.648l-9.629-9.63a.783.783,0,1,0-1.108,1.108l13.532,13.532A80.692,80.692,0,0,1,1.74,139.322l5.121-18.287H40.139l5.121,18.288C44.192,139.659,41.974,140.323,39.082,140.992Z" transform="translate(0 -119.468)" stroke="#fff" stroke-width="0.2"/>
        <path id="Path_6876" data-name="Path 6876" d="M39.082,140.992,35.25,137.16v-5.215a.783.783,0,1,0-1.567,0v3.648l-8.846-8.846a.783.783,0,0,0-1.108,1.108l13.537,13.537a70.591,70.591,0,0,1-12.69,1.563.778.778,0,0,0-.083-.1L21.15,139.51V134.3a.783.783,0,0,0-1.567,0v3.648l-9.629-9.63a.783.783,0,1,0-1.108,1.108l13.532,13.532A68.521,68.521,0,0,0,39.082,140.992Z" transform="translate(0 -119.469)" fill="#ff4612" stroke="#fff" stroke-width="0.2"/>
      </g>
    </g>
  </g>
</svg>
