<svg xmlns="http://www.w3.org/2000/svg" width="50" height="50" viewBox="0 0 50 50">
  <g id="Group_6285" data-name="Group 6285" transform="translate(9899 3472)">
    <path id="Path_7251" data-name="Path 7251" d="M0,0H50V50H0Z" transform="translate(-9899 -3472)" fill="#fff"/>
    <g id="_003-check-up" data-name="003-check-up" transform="translate(-9900 -3475.892)">
      <path id="Path_6726" data-name="Path 6726" d="M7,56H8.588v1.588H7Z" transform="translate(-1.03 -10.089)" stroke="#fff" stroke-width="0.3"/>
      <path id="Path_6727" data-name="Path 6727" d="M11,54h1.588v1.588H11Z" transform="translate(-1.854 -9.677)" stroke="#fff" stroke-width="0.3"/>
      <path id="Path_6728" data-name="Path 6728" d="M55,56h1.588v1.588H55Z" transform="translate(-10.916 -10.089)" stroke="#fff" stroke-width="0.3"/>
      <path id="Path_6729" data-name="Path 6729" d="M51,54h1.588v1.588H51Z" transform="translate(-10.092 -9.677)" stroke="#fff" stroke-width="0.3"/>
      <path id="Path_6730" data-name="Path 6730" d="M48.849,11.767H41.7V10.179a.794.794,0,0,0-.794-.794H38.423a3.176,3.176,0,0,0-6.146,0H29.792a.794.794,0,0,0-.794.794v1.588H21.851a.794.794,0,0,0-.794.794v4.764H13.426A3.97,3.97,0,0,0,9.5,20.668L8.456,28.442H8.1l-1.39-3.47a.794.794,0,0,0-.738-.5H2.794A.794.794,0,0,0,2,25.265v3.176a.794.794,0,0,0,.667.786l.794.127A3.97,3.97,0,0,0,2,32.412V42.734a.794.794,0,0,0,.794.794h.794v4.764a1.593,1.593,0,0,0,1.588,1.588h6.352a1.593,1.593,0,0,0,1.588-1.588V43.528H38.526v4.764a1.593,1.593,0,0,0,1.588,1.588h6.352a1.593,1.593,0,0,0,1.588-1.588V43.528h.794a.794.794,0,0,0,.794-.794V12.561a.794.794,0,0,0-.794-.794ZM3.588,26.059H5.43l.866,2.16-2.708-.453Zm0,8.735H5.176v3.97H3.588Zm7.94,13.5h-.794V46.7H9.146v1.588H5.176V43.528H5.97v1.588H7.558V43.528h3.97Zm9.529-6.352H3.588V40.352H21.057ZM6.764,38.764v-3.97H14.7v3.97Zm14.293,0H16.293v-3.97h4.764Zm0-5.558H3.588v-.794A2.389,2.389,0,0,1,5.97,30.03H21.057Zm0-4.764H10.052l1.024-7.535a2.373,2.373,0,0,1,2.35-1.993h7.631Zm9.529-17.469h2.382a.794.794,0,0,0,.794-.794,1.588,1.588,0,0,1,3.176,0,.794.794,0,0,0,.794.794h2.382v3.97H30.586Zm-.794,5.558H40.908a.794.794,0,0,0,.794-.794h3.97V39.558H25.027V15.737H29A.794.794,0,0,0,29.792,16.531ZM46.467,48.293H42.5V46.7H40.908v1.588h-.794V43.528h3.97v1.588h1.588V43.528h.794Zm1.588-6.352H22.645V13.355H29v.794H24.233a.794.794,0,0,0-.794.794V40.352a.794.794,0,0,0,.794.794H46.467a.794.794,0,0,0,.794-.794V14.943a.794.794,0,0,0-.794-.794H41.7v-.794h6.352Z" transform="translate(0)" stroke="#fff" stroke-width="0.3"/>
      <path id="Path_6731" data-name="Path 6731" d="M36.268,25.636a.794.794,0,0,0,.621-.3l3.176-3.97-1.24-.993-2.721,3.4-1.776-1.184-.881,1.321L35.828,25.5A.794.794,0,0,0,36.268,25.636Z" transform="translate(-6.476 -2.752)" fill="#ff4612" stroke="#fff" stroke-width="0.3"/>
      <path id="Path_6732" data-name="Path 6732" d="M36.268,34.636a.794.794,0,0,0,.621-.3l3.176-3.97-1.24-.993-2.721,3.4-1.776-1.184-.881,1.321L35.828,34.5A.794.794,0,0,0,36.268,34.636Z" transform="translate(-6.476 -4.606)" fill="#ff4612" stroke="#fff" stroke-width="0.3"/>
      <path id="Path_6733" data-name="Path 6733" d="M36.268,43.636a.794.794,0,0,0,.621-.3l3.176-3.97-1.24-.993-2.721,3.4-1.776-1.184-.881,1.321L35.828,43.5A.794.794,0,0,0,36.268,43.636Z" transform="translate(-6.476 -6.459)" fill="#ff4612" stroke="#fff" stroke-width="0.3"/>
      <path id="Path_6734" data-name="Path 6734" d="M44,25h8.735v1.588H44Z" transform="translate(-8.65 -3.705)" fill="#ff4612" stroke="#fff" stroke-width="0.3"/>
      <path id="Path_6735" data-name="Path 6735" d="M44,34h8.735v1.588H44Z" transform="translate(-8.65 -5.558)" fill="#ff4612" stroke="#fff" stroke-width="0.3"/>
      <path id="Path_6736" data-name="Path 6736" d="M44,43h8.735v1.588H44Z" transform="translate(-8.65 -7.412)" fill="#ff4612" stroke="#fff" stroke-width="0.3"/>
    </g>
  </g>
</svg>
