<svg xmlns="http://www.w3.org/2000/svg" width="50" height="50" viewBox="0 0 50 50">
  <g id="Group_6297" data-name="Group 6297" transform="translate(9785 3358)">
    <rect id="Rectangle_515" data-name="Rectangle 515" width="50" height="50" transform="translate(-9785 -3358)" fill="#fff"/>
    <g id="_003-car" data-name="003-car" transform="translate(-9784 -3426.854)">
      <g id="Group_5614" data-name="Group 5614" transform="translate(0 88.02)">
        <g id="Group_5613" data-name="Group 5613" transform="translate(0 0)">
          <path id="Path_6832" data-name="Path 6832" d="M47.128,107.187a7.135,7.135,0,0,1-6.39-3.914V103.2c0-9.645-6.114-15.177-16.774-15.177C14.013,88.016,0,92.729,0,103.193S14.013,118.37,23.963,118.37H47.128a.8.8,0,0,0,.8-.8v-9.585A.8.8,0,0,0,47.128,107.187ZM1.6,103.193c0-9.266,13.346-13.579,22.366-13.579,9.787,0,15.177,4.823,15.177,13.579s-5.39,13.579-15.177,13.579C14.944,116.772,1.6,112.459,1.6,103.193Zm44.732,13.579H32.619c4.517-1.971,7.26-5.729,7.937-10.958a8.866,8.866,0,0,0,5.773,2.933Z" transform="translate(0 -88.02)" stroke="#fff" stroke-width="0.2"/>
        </g>
      </g>
      <g id="Group_5616" data-name="Group 5616" transform="translate(3.195 91.211)">
        <g id="Group_5615" data-name="Group 5615" transform="translate(0 0)">
          <path id="Path_6833" data-name="Path 6833" d="M52.182,119.98C43.8,119.98,32,123.7,32,131.962s11.8,11.982,20.182,11.982c9,0,14.166-4.367,14.166-11.982S61.184,119.98,52.182,119.98Zm0,22.366c-7.495,0-18.584-3.3-18.584-10.384s11.089-10.384,18.584-10.384c4.694,0,12.568,1.349,12.568,10.384S56.876,142.346,52.182,142.346Z" transform="translate(-32 -119.98)" fill="#ff4612" stroke="#fff" stroke-width="0.2"/>
        </g>
      </g>
    </g>
  </g>
</svg>
