<svg xmlns="http://www.w3.org/2000/svg" width="50" height="50.451" viewBox="0 0 50 50.451">
  <g id="Group_6294" data-name="Group 6294" transform="translate(9842 3472)">
    <path id="Path_7253" data-name="Path 7253" d="M0,0H50V50H0Z" transform="translate(-9842 -3472)" fill="#fff"/>
    <g id="_008-filter" data-name="008-filter" transform="translate(-9840.532 -3465.538)">
      <g id="Group_5528" data-name="Group 5528" transform="translate(12.051 1.551)">
        <path id="Path_6746" data-name="Path 6746" d="M25.99,28.479a12.99,12.99,0,1,1,12.99-12.99A13,13,0,0,1,25.99,28.479Zm0-24.612A11.622,11.622,0,1,0,37.612,15.49,11.635,11.635,0,0,0,25.99,3.867Z" transform="translate(-13 -2.5)" stroke="#fff" stroke-width="0.1"/>
      </g>
      <g id="Group_5529" data-name="Group 5529" transform="translate(10 -0.5)">
        <path id="Path_6747" data-name="Path 6747" d="M25.041,29.581A15.041,15.041,0,1,1,40.081,14.541,15.058,15.058,0,0,1,25.041,29.581Zm0-28.714A13.673,13.673,0,1,0,38.714,14.541,13.689,13.689,0,0,0,25.041.867Z" transform="translate(-10 0.5)" stroke="#fff" stroke-width="0.1"/>
      </g>
      <g id="Group_5530" data-name="Group 5530" transform="translate(10 28.214)">
        <path id="Path_6748" data-name="Path 6748" d="M25.041,57.224A15.058,15.058,0,0,1,10,42.184a.684.684,0,0,1,1.367,0,13.673,13.673,0,0,0,27.347,0,.684.684,0,0,1,1.367,0A15.058,15.058,0,0,1,25.041,57.224Z" transform="translate(-10 -41.5)" stroke="#fff" stroke-width="0.1"/>
      </g>
      <g id="Group_5531" data-name="Group 5531" transform="translate(10 26.163)">
        <path id="Path_6749" data-name="Path 6749" d="M25.041,54.224A15.058,15.058,0,0,1,10,39.184a.684.684,0,1,1,1.367,0,13.673,13.673,0,0,0,27.347,0,.684.684,0,1,1,1.367,0A15.058,15.058,0,0,1,25.041,54.224Z" transform="translate(-10 -38.5)" stroke="#fff" stroke-width="0.1"/>
      </g>
      <g id="Group_5532" data-name="Group 5532" transform="translate(10 15.933)">
        <path id="Path_6750" data-name="Path 6750" d="M25.041,39.261A15.058,15.058,0,0,1,10,24.221a.684.684,0,1,1,1.367,0,13.673,13.673,0,0,0,27.347,0,.684.684,0,1,1,1.367,0A15.058,15.058,0,0,1,25.041,39.261Z" transform="translate(-10 -23.537)" stroke="#fff" stroke-width="0.1"/>
      </g>
      <g id="Group_5540" data-name="Group 5540" transform="translate(12.05 23.795)">
        <g id="Group_5533" data-name="Group 5533">
          <path id="Path_6751" data-name="Path 6751" d="M13.5,44.987a.557.557,0,0,1-.5-.6V34.96a.508.508,0,1,1,1,0v9.426A.557.557,0,0,1,13.5,44.987Z" transform="translate(-12.999 -34.359)"/>
        </g>
        <g id="Group_5534" data-name="Group 5534" transform="translate(2.051 2.58)">
          <path id="Path_6752" data-name="Path 6752" d="M16.5,49.079a.582.582,0,0,1-.5-.639v-9.57a.515.515,0,1,1,1,0v9.57A.582.582,0,0,1,16.5,49.079Z" transform="translate(-15.999 -38.23)"/>
        </g>
        <g id="Group_5535" data-name="Group 5535" transform="translate(4.102 4.13)">
          <path id="Path_6753" data-name="Path 6753" d="M19.5,51.581a.581.581,0,0,1-.5-.637V41.408a.515.515,0,1,1,1,0v9.536A.581.581,0,0,1,19.5,51.581Z" transform="translate(-18.999 -40.771)"/>
        </g>
        <g id="Group_5536" data-name="Group 5536" transform="translate(6.153 5.292)">
          <path id="Path_6754" data-name="Path 6754" d="M22.5,53.82c-.276,0-.5-.3-.5-.666V43.181c0-.369.224-.666.5-.666s.5.3.5.666v9.972C23,53.521,22.775,53.82,22.5,53.82Z" transform="translate(-21.999 -42.515)"/>
        </g>
        <g id="Group_5537" data-name="Group 5537" transform="translate(8.204 6.059)">
          <path id="Path_6755" data-name="Path 6755" d="M25.5,54.971c-.276,0-.5-.3-.5-.666V44.331c0-.369.224-.666.5-.666s.5.3.5.666V54.3C26,54.673,25.776,54.971,25.5,54.971Z" transform="translate(-24.999 -43.665)"/>
        </g>
        <g id="Group_5538" data-name="Group 5538" transform="translate(10.255 6.497)">
          <path id="Path_6756" data-name="Path 6756" d="M28.5,55.627c-.276,0-.5-.3-.5-.666V44.988c0-.369.224-.666.5-.666s.5.3.5.666v9.972C29,55.329,28.775,55.627,28.5,55.627Z" transform="translate(-27.999 -44.322)"/>
        </g>
        <g id="Group_5539" data-name="Group 5539" transform="translate(12.306 6.64)">
          <path id="Path_6757" data-name="Path 6757" d="M31.5,55.842c-.277,0-.5-.3-.5-.666V45.2c0-.369.223-.666.5-.666s.5.3.5.666v9.972C32,55.544,31.775,55.842,31.5,55.842Z" transform="translate(-30.999 -44.537)"/>
        </g>
      </g>
      <g id="Group_5547" data-name="Group 5547" transform="translate(26.407 23.795)">
        <g id="Group_5541" data-name="Group 5541" transform="translate(10.255)">
          <path id="Path_6758" data-name="Path 6758" d="M49.5,45.06a.56.56,0,0,1-.5-.605V34.965a.509.509,0,1,1,1,0v9.489A.56.56,0,0,1,49.5,45.06Z" transform="translate(-48.999 -34.36)"/>
        </g>
        <g id="Group_5542" data-name="Group 5542" transform="translate(8.204 2.579)">
          <path id="Path_6759" data-name="Path 6759" d="M46.5,49.537c-.276,0-.5-.3-.5-.666V38.9c0-.369.224-.666.5-.666s.5.3.5.666V48.87C47,49.239,46.775,49.537,46.5,49.537Z" transform="translate(-45.999 -38.23)"/>
        </g>
        <g id="Group_5543" data-name="Group 5543" transform="translate(6.153 4.273)">
          <path id="Path_6760" data-name="Path 6760" d="M43.5,52.077c-.277,0-.5-.3-.5-.666V41.438c0-.369.223-.666.5-.666s.5.3.5.666v9.973C44,51.779,43.775,52.077,43.5,52.077Z" transform="translate(-42.999 -40.771)"/>
        </g>
        <g id="Group_5544" data-name="Group 5544" transform="translate(4.102 5.435)">
          <path id="Path_6761" data-name="Path 6761" d="M40.5,53.821c-.277,0-.5-.3-.5-.666V43.181c0-.369.223-.666.5-.666s.5.3.5.666v9.973C41,53.522,40.776,53.821,40.5,53.821Z" transform="translate(-39.999 -42.515)"/>
        </g>
        <g id="Group_5545" data-name="Group 5545" transform="translate(2.051 6.202)">
          <path id="Path_6762" data-name="Path 6762" d="M37.5,54.971c-.277,0-.5-.3-.5-.666V44.331c0-.369.223-.666.5-.666s.5.3.5.666V54.3C38,54.673,37.775,54.971,37.5,54.971Z" transform="translate(-36.999 -43.665)"/>
        </g>
        <g id="Group_5546" data-name="Group 5546" transform="translate(0 6.64)">
          <path id="Path_6763" data-name="Path 6763" d="M34.5,55.628c-.277,0-.5-.3-.5-.666V44.988c0-.369.224-.666.5-.666s.5.3.5.666v9.973C35,55.33,34.776,55.628,34.5,55.628Z" transform="translate(-33.999 -44.322)"/>
        </g>
      </g>
      <g id="Group_5548" data-name="Group 5548" transform="translate(10 13.857)">
        <path id="Path_6764" data-name="Path 6764" d="M10.684,36.224A.683.683,0,0,1,10,35.541V21.184a.684.684,0,1,1,1.367,0V35.541A.683.683,0,0,1,10.684,36.224Z" transform="translate(-10 -20.5)"/>
      </g>
      <g id="Group_5549" data-name="Group 5549" transform="translate(38.713 13.857)">
        <path id="Path_6765" data-name="Path 6765" d="M52.683,36.224A.683.683,0,0,1,52,35.541V21.184a.684.684,0,1,1,1.367,0V35.541A.683.683,0,0,1,52.683,36.224Z" transform="translate(-51.999 -20.5)"/>
      </g>
      <g id="Group_5607" data-name="Group 5607" transform="translate(14.118 3.602)">
        <g id="Group_5553" data-name="Group 5553" transform="translate(0 12.306)">
          <path id="Path_6769" data-name="Path 6769" d="M16.711,24.867A.684.684,0,0,1,16.7,23.5h.008a.684.684,0,1,1,0,1.367Z" transform="translate(-16.024 -23.5)" fill="#ff4612" stroke="#fff" stroke-width="0.1"/>
        </g>
        <g id="Group_5554" data-name="Group 5554" transform="translate(2.051 14.357)">
          <path id="Path_6770" data-name="Path 6770" d="M19.711,27.867A.684.684,0,0,1,19.7,26.5h.008a.684.684,0,1,1,0,1.367Z" transform="translate(-19.024 -26.5)" fill="#ff4612" stroke="#fff" stroke-width="0.1"/>
        </g>
        <g id="Group_5555" data-name="Group 5555" transform="translate(4.102 16.408)">
          <path id="Path_6771" data-name="Path 6771" d="M22.711,30.867A.684.684,0,0,1,22.7,29.5h.008a.684.684,0,1,1,0,1.367Z" transform="translate(-22.024 -29.5)" fill="#ff4612" stroke="#fff" stroke-width="0.1"/>
        </g>
        <g id="Group_5556" data-name="Group 5556" transform="translate(6.153 18.459)">
          <path id="Path_6772" data-name="Path 6772" d="M25.711,33.867A.684.684,0,0,1,25.7,32.5h.008a.684.684,0,0,1,0,1.367Z" transform="translate(-25.024 -32.5)" fill="#ff4612" stroke="#fff" stroke-width="0.1"/>
        </g>
        <g id="Group_5557" data-name="Group 5557" transform="translate(8.204 20.51)">
          <path id="Path_6773" data-name="Path 6773" d="M28.711,36.867A.684.684,0,0,1,28.7,35.5h.008a.684.684,0,1,1,0,1.367Z" transform="translate(-28.024 -35.5)" fill="#ff4612" stroke="#fff" stroke-width="0.1"/>
        </g>
        <g id="Group_5558" data-name="Group 5558" transform="translate(0 8.204)">
          <path id="Path_6774" data-name="Path 6774" d="M16.711,18.867A.684.684,0,0,1,16.7,17.5h.008a.684.684,0,0,1,0,1.367Z" transform="translate(-16.024 -17.5)" fill="#ff4612" stroke="#fff" stroke-width="0.1"/>
        </g>
        <g id="Group_5559" data-name="Group 5559" transform="translate(2.051 10.255)">
          <path id="Path_6775" data-name="Path 6775" d="M19.711,21.867A.684.684,0,0,1,19.7,20.5h.008a.684.684,0,1,1,0,1.367Z" transform="translate(-19.024 -20.5)" fill="#ff4612" stroke="#fff" stroke-width="0.1"/>
        </g>
        <g id="Group_5560" data-name="Group 5560" transform="translate(4.102 12.306)">
          <path id="Path_6776" data-name="Path 6776" d="M22.711,24.867A.684.684,0,0,1,22.7,23.5h.008a.684.684,0,1,1,0,1.367Z" transform="translate(-22.024 -23.5)" fill="#ff4612" stroke="#fff" stroke-width="0.1"/>
        </g>
        <g id="Group_5561" data-name="Group 5561" transform="translate(6.153 14.357)">
          <path id="Path_6777" data-name="Path 6777" d="M25.711,27.867A.684.684,0,0,1,25.7,26.5h.008a.684.684,0,0,1,0,1.367Z" transform="translate(-25.024 -26.5)" fill="#ff4612" stroke="#fff" stroke-width="0.1"/>
        </g>
        <g id="Group_5562" data-name="Group 5562" transform="translate(8.204 16.408)">
          <path id="Path_6778" data-name="Path 6778" d="M28.711,30.867A.684.684,0,0,1,28.7,29.5h.008a.684.684,0,1,1,0,1.367Z" transform="translate(-28.024 -29.5)" fill="#ff4612" stroke="#fff" stroke-width="0.1"/>
        </g>
        <g id="Group_5563" data-name="Group 5563" transform="translate(10.255 18.459)">
          <path id="Path_6779" data-name="Path 6779" d="M31.711,33.867A.684.684,0,0,1,31.7,32.5h.008a.684.684,0,1,1,0,1.367Z" transform="translate(-31.024 -32.5)" fill="#ff4612" stroke="#fff" stroke-width="0.1"/>
        </g>
        <g id="Group_5564" data-name="Group 5564" transform="translate(12.306 20.51)">
          <path id="Path_6780" data-name="Path 6780" d="M34.711,36.867A.684.684,0,0,1,34.7,35.5h.008a.684.684,0,1,1,0,1.367Z" transform="translate(-34.024 -35.5)" fill="#ff4612" stroke="#fff" stroke-width="0.1"/>
        </g>
        <g id="Group_5566" data-name="Group 5566" transform="translate(2.051 6.153)">
          <path id="Path_6782" data-name="Path 6782" d="M19.711,15.867A.684.684,0,0,1,19.7,14.5h.008a.684.684,0,1,1,0,1.367Z" transform="translate(-19.024 -14.5)" fill="#ff4612" stroke="#fff" stroke-width="0.1"/>
        </g>
        <g id="Group_5567" data-name="Group 5567" transform="translate(4.102 8.204)">
          <path id="Path_6783" data-name="Path 6783" d="M22.711,18.867A.684.684,0,0,1,22.7,17.5h.008a.684.684,0,1,1,0,1.367Z" transform="translate(-22.024 -17.5)" fill="#ff4612" stroke="#fff" stroke-width="0.1"/>
        </g>
        <g id="Group_5568" data-name="Group 5568" transform="translate(6.153 10.255)">
          <path id="Path_6784" data-name="Path 6784" d="M25.711,21.867A.684.684,0,0,1,25.7,20.5h.008a.684.684,0,0,1,0,1.367Z" transform="translate(-25.024 -20.5)" fill="#ff4612" stroke="#fff" stroke-width="0.1"/>
        </g>
        <g id="Group_5569" data-name="Group 5569" transform="translate(8.204 12.306)">
          <path id="Path_6785" data-name="Path 6785" d="M28.711,24.867A.684.684,0,0,1,28.7,23.5h.008a.684.684,0,1,1,0,1.367Z" transform="translate(-28.024 -23.5)" fill="#ff4612" stroke="#fff" stroke-width="0.1"/>
        </g>
        <g id="Group_5570" data-name="Group 5570" transform="translate(10.255 14.357)">
          <path id="Path_6786" data-name="Path 6786" d="M31.711,27.867A.684.684,0,0,1,31.7,26.5h.008a.684.684,0,1,1,0,1.367Z" transform="translate(-31.024 -26.5)" fill="#ff4612" stroke="#fff" stroke-width="0.1"/>
        </g>
        <g id="Group_5571" data-name="Group 5571" transform="translate(12.306 16.408)">
          <path id="Path_6787" data-name="Path 6787" d="M34.711,30.867A.684.684,0,0,1,34.7,29.5h.008a.684.684,0,1,1,0,1.367Z" transform="translate(-34.024 -29.5)" fill="#ff4612" stroke="#fff" stroke-width="0.1"/>
        </g>
        <g id="Group_5572" data-name="Group 5572" transform="translate(14.357 18.459)">
          <path id="Path_6788" data-name="Path 6788" d="M37.711,33.867A.684.684,0,0,1,37.7,32.5h.008a.684.684,0,0,1,0,1.367Z" transform="translate(-37.024 -32.5)" fill="#ff4612" stroke="#fff" stroke-width="0.1"/>
        </g>
        <g id="Group_5575" data-name="Group 5575" transform="translate(4.102 4.102)">
          <path id="Path_6791" data-name="Path 6791" d="M22.711,12.867A.684.684,0,0,1,22.7,11.5h.008a.684.684,0,1,1,0,1.367Z" transform="translate(-22.024 -11.5)" fill="#ff4612" stroke="#fff" stroke-width="0.1"/>
        </g>
        <g id="Group_5576" data-name="Group 5576" transform="translate(6.153 6.153)">
          <path id="Path_6792" data-name="Path 6792" d="M25.711,15.867A.684.684,0,0,1,25.7,14.5h.008a.684.684,0,0,1,0,1.367Z" transform="translate(-25.024 -14.5)" fill="#ff4612" stroke="#fff" stroke-width="0.1"/>
        </g>
        <g id="Group_5577" data-name="Group 5577" transform="translate(8.204 8.204)">
          <path id="Path_6793" data-name="Path 6793" d="M28.711,18.867A.684.684,0,0,1,28.7,17.5h.008a.684.684,0,1,1,0,1.367Z" transform="translate(-28.024 -17.5)" fill="#ff4612" stroke="#fff" stroke-width="0.1"/>
        </g>
        <g id="Group_5578" data-name="Group 5578" transform="translate(10.255 10.255)">
          <path id="Path_6794" data-name="Path 6794" d="M31.711,21.867A.684.684,0,0,1,31.7,20.5h.008a.684.684,0,1,1,0,1.367Z" transform="translate(-31.024 -20.5)" fill="#ff4612" stroke="#fff" stroke-width="0.1"/>
        </g>
        <g id="Group_5579" data-name="Group 5579" transform="translate(12.306 12.306)">
          <path id="Path_6795" data-name="Path 6795" d="M34.711,24.867A.684.684,0,0,1,34.7,23.5h.008a.684.684,0,1,1,0,1.367Z" transform="translate(-34.024 -23.5)" fill="#ff4612" stroke="#fff" stroke-width="0.1"/>
        </g>
        <g id="Group_5580" data-name="Group 5580" transform="translate(14.357 14.357)">
          <path id="Path_6796" data-name="Path 6796" d="M37.711,27.867A.684.684,0,0,1,37.7,26.5h.008a.684.684,0,0,1,0,1.367Z" transform="translate(-37.024 -26.5)" fill="#ff4612" stroke="#fff" stroke-width="0.1"/>
        </g>
        <g id="Group_5581" data-name="Group 5581" transform="translate(16.408 16.408)">
          <path id="Path_6797" data-name="Path 6797" d="M40.711,30.867A.684.684,0,0,1,40.7,29.5h.008a.684.684,0,0,1,0,1.367Z" transform="translate(-40.024 -29.5)" fill="#ff4612" stroke="#fff" stroke-width="0.1"/>
        </g>
        <g id="Group_5584" data-name="Group 5584" transform="translate(6.153 2.051)">
          <path id="Path_6800" data-name="Path 6800" d="M25.711,9.867A.684.684,0,0,1,25.7,8.5h.008a.684.684,0,0,1,0,1.367Z" transform="translate(-25.024 -8.5)" fill="#ff4612" stroke="#fff" stroke-width="0.1"/>
        </g>
        <g id="Group_5585" data-name="Group 5585" transform="translate(8.204 4.102)">
          <path id="Path_6801" data-name="Path 6801" d="M28.711,12.867A.684.684,0,0,1,28.7,11.5h.008a.684.684,0,1,1,0,1.367Z" transform="translate(-28.024 -11.5)" fill="#ff4612" stroke="#fff" stroke-width="0.1"/>
        </g>
        <g id="Group_5586" data-name="Group 5586" transform="translate(10.255 6.153)">
          <path id="Path_6802" data-name="Path 6802" d="M31.711,15.867A.684.684,0,0,1,31.7,14.5h.008a.684.684,0,1,1,0,1.367Z" transform="translate(-31.024 -14.5)" fill="#ff4612" stroke="#fff" stroke-width="0.1"/>
        </g>
        <g id="Group_5587" data-name="Group 5587" transform="translate(12.306 8.204)">
          <path id="Path_6803" data-name="Path 6803" d="M34.711,18.867A.684.684,0,0,1,34.7,17.5h.008a.684.684,0,1,1,0,1.367Z" transform="translate(-34.024 -17.5)" fill="#ff4612" stroke="#fff" stroke-width="0.1"/>
        </g>
        <g id="Group_5588" data-name="Group 5588" transform="translate(14.357 10.255)">
          <path id="Path_6804" data-name="Path 6804" d="M37.711,21.867A.684.684,0,0,1,37.7,20.5h.008a.684.684,0,0,1,0,1.367Z" transform="translate(-37.024 -20.5)" fill="#ff4612" stroke="#fff" stroke-width="0.1"/>
        </g>
        <g id="Group_5589" data-name="Group 5589" transform="translate(16.408 12.306)">
          <path id="Path_6805" data-name="Path 6805" d="M40.711,24.867A.684.684,0,0,1,40.7,23.5h.008a.684.684,0,1,1,0,1.367Z" transform="translate(-40.024 -23.5)" fill="#ff4612" stroke="#fff" stroke-width="0.1"/>
        </g>
        <g id="Group_5590" data-name="Group 5590" transform="translate(18.459 14.357)">
          <path id="Path_6806" data-name="Path 6806" d="M43.711,27.867A.684.684,0,0,1,43.7,26.5h.008a.684.684,0,0,1,0,1.367Z" transform="translate(-43.024 -26.5)" fill="#ff4612" stroke="#fff" stroke-width="0.1"/>
        </g>
        <g id="Group_5592" data-name="Group 5592" transform="translate(8.204)">
          <path id="Path_6808" data-name="Path 6808" d="M28.711,6.867A.684.684,0,0,1,28.7,5.5h.008a.684.684,0,1,1,0,1.367Z" transform="translate(-28.024 -5.5)" fill="#ff4612" stroke="#fff" stroke-width="0.1"/>
        </g>
        <g id="Group_5593" data-name="Group 5593" transform="translate(10.255 2.051)">
          <path id="Path_6809" data-name="Path 6809" d="M31.711,9.867A.684.684,0,0,1,31.7,8.5h.008a.684.684,0,1,1,0,1.367Z" transform="translate(-31.024 -8.5)" fill="#ff4612" stroke="#fff" stroke-width="0.1"/>
        </g>
        <g id="Group_5594" data-name="Group 5594" transform="translate(12.306 4.102)">
          <path id="Path_6810" data-name="Path 6810" d="M34.711,12.867A.684.684,0,0,1,34.7,11.5h.008a.684.684,0,1,1,0,1.367Z" transform="translate(-34.024 -11.5)" fill="#ff4612" stroke="#fff" stroke-width="0.1"/>
        </g>
        <g id="Group_5595" data-name="Group 5595" transform="translate(14.357 6.153)">
          <path id="Path_6811" data-name="Path 6811" d="M37.711,15.867A.684.684,0,0,1,37.7,14.5h.008a.684.684,0,1,1,0,1.367Z" transform="translate(-37.024 -14.5)" fill="#ff4612" stroke="#fff" stroke-width="0.1"/>
        </g>
        <g id="Group_5596" data-name="Group 5596" transform="translate(16.408 8.204)">
          <path id="Path_6812" data-name="Path 6812" d="M40.711,18.867A.684.684,0,0,1,40.7,17.5h.008a.684.684,0,0,1,0,1.367Z" transform="translate(-40.024 -17.5)" fill="#ff4612" stroke="#fff" stroke-width="0.1"/>
        </g>
        <g id="Group_5597" data-name="Group 5597" transform="translate(18.459 10.255)">
          <path id="Path_6813" data-name="Path 6813" d="M43.711,21.867A.684.684,0,0,1,43.7,20.5h.008a.684.684,0,0,1,0,1.367Z" transform="translate(-43.024 -20.5)" fill="#ff4612" stroke="#fff" stroke-width="0.1"/>
        </g>
        <g id="Group_5598" data-name="Group 5598" transform="translate(20.51 12.306)">
          <path id="Path_6814" data-name="Path 6814" d="M46.711,24.867A.684.684,0,0,1,46.7,23.5h.008a.684.684,0,1,1,0,1.367Z" transform="translate(-46.024 -23.5)" fill="#ff4612" stroke="#fff" stroke-width="0.1"/>
        </g>
        <g id="Group_5599" data-name="Group 5599" transform="translate(12.306)">
          <path id="Path_6815" data-name="Path 6815" d="M34.711,6.867A.684.684,0,0,1,34.7,5.5h.008a.684.684,0,1,1,0,1.367Z" transform="translate(-34.024 -5.5)" fill="#ff4612" stroke="#fff" stroke-width="0.1"/>
        </g>
        <g id="Group_5600" data-name="Group 5600" transform="translate(14.357 2.051)">
          <path id="Path_6816" data-name="Path 6816" d="M37.711,9.867A.684.684,0,0,1,37.7,8.5h.008a.684.684,0,0,1,0,1.367Z" transform="translate(-37.024 -8.5)" fill="#ff4612" stroke="#fff" stroke-width="0.1"/>
        </g>
        <g id="Group_5601" data-name="Group 5601" transform="translate(16.408 4.102)">
          <path id="Path_6817" data-name="Path 6817" d="M40.711,12.867A.684.684,0,0,1,40.7,11.5h.008a.684.684,0,0,1,0,1.367Z" transform="translate(-40.024 -11.5)" fill="#ff4612" stroke="#fff" stroke-width="0.1"/>
        </g>
        <g id="Group_5602" data-name="Group 5602" transform="translate(18.459 6.153)">
          <path id="Path_6818" data-name="Path 6818" d="M43.711,15.867A.684.684,0,0,1,43.7,14.5h.008a.684.684,0,1,1,0,1.367Z" transform="translate(-43.024 -14.5)" fill="#ff4612" stroke="#fff" stroke-width="0.1"/>
        </g>
        <g id="Group_5603" data-name="Group 5603" transform="translate(20.51 8.204)">
          <path id="Path_6819" data-name="Path 6819" d="M46.711,18.867A.684.684,0,0,1,46.7,17.5h.008a.684.684,0,1,1,0,1.367Z" transform="translate(-46.024 -17.5)" fill="#ff4612" stroke="#fff" stroke-width="0.1"/>
        </g>
      </g>
    </g>
  </g>
</svg>
