<svg xmlns="http://www.w3.org/2000/svg" width="50" height="50.459" viewBox="0 0 50 50.459">
  <g id="Group_6293" data-name="Group 6293" transform="translate(9842 3415)">
    <rect id="Rectangle_508" data-name="Rectangle 508" width="50" height="50" transform="translate(-9842 -3415)" fill="#fff"/>
    <g id="_009-radiator" data-name="009-radiator" transform="translate(-9839 -3426.803)">
      <g id="Group_5609" data-name="Group 5609" transform="translate(7.342 35.095)">
        <g id="Group_5608" data-name="Group 5608">
          <path id="Path_6823" data-name="Path 6823" d="M112.942,185.5H83.663a.663.663,0,0,0-.663.663v18.752a.663.663,0,0,0,.663.663h29.278a.663.663,0,0,0,.663-.663V186.163A.663.663,0,0,0,112.942,185.5Zm-.663,16.231H96.887a.663.663,0,0,0,0,1.327h15.391v1.194H84.327v-1.194h9.907a.663.663,0,0,0,0-1.327H84.327V200.36h27.952Zm0-5.528H108.74a.663.663,0,1,0,0,1.327h3.538v1.5H84.327v-1.5h21.76a.663.663,0,1,0,0-1.327H84.327v-1.327h27.952Zm0-2.654H84.327v-1.5h27.952Zm0-5.528H90.784a.663.663,0,0,0,0,1.327h21.494v1.371H84.327v-1.371h3.8a.663.663,0,0,0,0-1.327h-3.8v-1.194h27.952Z" transform="translate(-83 -185.5)" stroke="#fff" stroke-width="0.2"/>
        </g>
        <g id="Path_6873" data-name="Path 6873" transform="translate(1.658 5.708)" fill="#ff4612">
          <path d="M -0.2281274944543839 0.7905107140541077 L -0.2281274944543839 -0.3999975025653839 L 27.55625343322754 -0.3999975025653839 L 27.55625343322754 0.7594840526580811 L -0.2281274944543839 0.7905107140541077 Z" stroke="none"/>
          <path d="M -0.1281280517578125 -0.2999975085258484 L -0.1281280517578125 0.6903989315032959 L 27.45625305175781 0.6595956087112427 L 27.45625305175781 -0.2999975085258484 L -0.1281280517578125 -0.2999975085258484 M -0.3281269073486328 -0.4999974966049194 L 27.65625190734863 -0.4999974966049194 L 27.65625190734863 0.8593724966049194 L -0.3281269073486328 0.8906224966049194 L -0.3281269073486328 -0.4999974966049194 Z" stroke="none" fill="#fff"/>
        </g>
        <g id="Path_6874" data-name="Path 6874" transform="translate(1.658 8.708)" fill="#ff4612">
          <path d="M 27.55625343322754 0.587873101234436 L -0.2281274944543839 0.5563599467277527 L -0.2281274944543839 -0.5718157291412354 L 27.55625343322754 -0.5558208823204041 L 27.55625343322754 0.587873101234436 Z" stroke="none"/>
          <path d="M -0.1281280517578125 -0.4717581570148468 L -0.1281280517578125 0.4564732313156128 L 27.45625305175781 0.487759530544281 L 27.45625305175781 -0.4558784365653992 L -0.1281280517578125 -0.4717581570148468 M -0.3281269073486328 -0.6718733310699463 L 27.65625190734863 -0.6557633876800537 L 27.65625190734863 0.6879866123199463 L -0.3281269073486328 0.6562466621398926 L -0.3281269073486328 -0.6718733310699463 Z" stroke="none" fill="#fff"/>
        </g>
      </g>
      <g id="Group_5611" data-name="Group 5611" transform="translate(0 20.5)">
        <g id="Group_5610" data-name="Group 5610" transform="translate(0 0)">
          <path id="Path_6824" data-name="Path 6824" d="M43.826,37.129h-1.1v-.908A1.925,1.925,0,0,0,40.8,34.3h-.709a1.906,1.906,0,0,0-1.838-1.415H18.4V31.56a1.332,1.332,0,0,0-.973-1.28v-.947c0-.026,0-.051,0-.076h.3a1.175,1.175,0,0,0,1.148-1.421l-1.34-6.251A1.379,1.379,0,0,0,16.189,20.5H11.5a1.38,1.38,0,0,0-1.342,1.085l-1.34,6.251a1.174,1.174,0,0,0,1.148,1.421h.3c0,.025,0,.051,0,.076v.947a1.332,1.332,0,0,0-.973,1.28v1.323H7.035A1.906,1.906,0,0,0,5.2,34.3H4.488a1.925,1.925,0,0,0-1.923,1.923v.908h-1.1A1.465,1.465,0,0,0,0,38.592V51.677A1.465,1.465,0,0,0,1.463,53.14h1.1v.908A1.925,1.925,0,0,0,4.488,55.97H5.2a1.906,1.906,0,0,0,1.838,1.415h14.99V58.8a1.332,1.332,0,0,0,1.33,1.33h2.473v.821a1.214,1.214,0,0,0,1.213,1.213h3.146A1.214,1.214,0,0,0,31.4,60.949v-.821h2.385a1.332,1.332,0,0,0,1.33-1.33V57.386h3.137a1.906,1.906,0,0,0,1.838-1.415H40.8a1.925,1.925,0,0,0,1.923-1.923V53.14h1.1a1.465,1.465,0,0,0,1.463-1.463V38.592A1.465,1.465,0,0,0,43.826,37.129ZM2.565,51.813h-1.1a.136.136,0,0,1-.136-.136V38.592a.136.136,0,0,1,.136-.136h1.1ZM5.13,54.643H4.488a.6.6,0,0,1-.6-.6V36.221a.6.6,0,0,1,.6-.6H5.13ZM16.189,21.827a.046.046,0,0,1,.044.036l1.3,6.067H15.872l-.408-6.1Zm.883,11.057H10.616l0-1.327h6.45Zm-3.52-11.057h.582l.408,6.1h-1.4Zm1.5,7.43h.968a.076.076,0,0,1,.076.076v.9H11.588v-.9a.076.076,0,0,1,.076-.076h3.391Zm-4.9-1.327,1.3-6.067a.046.046,0,0,1,.045-.036h.725l-.408,6.1H10.153ZM30.075,60.835H27.156v-.708h2.919ZM33.788,58.8h0l-10.434,0V57.386H33.789ZM41.4,37.793V54.048a.6.6,0,0,1-.6.6h-.643V42.879a.663.663,0,0,0-1.327,0v12.6a.578.578,0,0,1-.578.578H7.035a.578.578,0,0,1-.578-.578V34.788a.578.578,0,0,1,.578-.578H38.254a.578.578,0,0,1,.578.578v5.437a.663.663,0,1,0,1.327,0v-4.6H40.8a.6.6,0,0,1,.6.6Zm2.565,13.884a.136.136,0,0,1-.136.136h-1.1V38.456h1.1a.136.136,0,0,1,.136.136Z" transform="translate(0 -20.5)" stroke="#fff" stroke-width="0.2"/>
        </g>
      </g>
    </g>
  </g>
</svg>
