<svg xmlns="http://www.w3.org/2000/svg" width="34.555" height="34.555" viewBox="0 0 34.555 34.555">
  <path id="_003-linkedin" data-name="003-linkedin" d="M17.278,0A17.278,17.278,0,1,0,34.555,17.278,17.279,17.279,0,0,0,17.278,0ZM12.257,26.119H8.049V13.459h4.208Zm-2.1-14.388h-.027a2.193,2.193,0,1,1,.055-4.374,2.194,2.194,0,1,1-.028,4.374ZM27.43,26.119H23.222V19.346c0-1.7-.609-2.863-2.132-2.863a2.3,2.3,0,0,0-2.159,1.539,2.882,2.882,0,0,0-.138,1.027v7.07H14.586s.055-11.472,0-12.659h4.208v1.792a4.177,4.177,0,0,1,3.792-2.09c2.768,0,4.844,1.809,4.844,5.7Zm0,0"/>
</svg>
