<svg xmlns="http://www.w3.org/2000/svg" width="45.284" height="45.285" viewBox="0 0 45.284 45.285">
  <path id="Icon_ionic-ios-arrow-dropdown-circle" data-name="Icon ionic-ios-arrow-dropdown-circle" d="M0,22.257A22.257,22.257,0,1,1,22.257,44.514,22.254,22.254,0,0,1,0,22.257ZM30.936,26.9a2.073,2.073,0,0,0,2.921,0,2.04,2.04,0,0,0,.6-1.455,2.076,2.076,0,0,0-.61-1.466L23.755,13.921a2.063,2.063,0,0,0-2.846.064L10.669,24.194a2.066,2.066,0,0,0,2.921,2.921l8.678-8.764Z" transform="matrix(-0.017, -1, 1, -0.017, 0.777, 45.285)" fill="#b2b2b2"/>
</svg>
