<svg xmlns="http://www.w3.org/2000/svg" width="41.414" height="21.41" viewBox="0 0 41.414 21.41">
  <path id="Icon_ionic-ios-arrow-round-forward" data-name="Icon ionic-ios-arrow-round-forward" d="M30.419,11.662a1.457,1.457,0,0,0-.011,2.052l6.779,6.79L2.073,20.331a1.45,1.45,0,0,0,0,2.9l35.1.173L30.4,30.193a1.467,1.467,0,0,0,.011,2.052,1.444,1.444,0,0,0,2.04-.011l9.188-9.255h0a1.628,1.628,0,0,0,.3-.457,1.383,1.383,0,0,0,.112-.558,1.453,1.453,0,0,0-.413-1.015L32.448,11.7A1.42,1.42,0,0,0,30.419,11.662Z" transform="translate(-0.635 -11.252)"/>
</svg>
