<svg xmlns="http://www.w3.org/2000/svg" width="33.198" height="17.738" viewBox="0 0 33.198 17.738">
  <path id="Icon_ionic-ios-arrow-round-forward" data-name="Icon ionic-ios-arrow-round-forward" d="M23.791,11.57a1.133,1.133,0,0,0-.009,1.6l5.271,5.279-27.3-.134a1.127,1.127,0,0,0,0,2.254l27.292.134-5.271,5.279a1.141,1.141,0,0,0,.009,1.6,1.122,1.122,0,0,0,1.586-.009l7.143-7.2h0a1.266,1.266,0,0,0,.234-.355,1.076,1.076,0,0,0,.087-.433,1.13,1.13,0,0,0-.321-.789l-7.143-7.2A1.1,1.1,0,0,0,23.791,11.57Z" transform="translate(-0.135 -10.752)" fill="#ff4612" stroke="#fff" stroke-width="1"/>
</svg>
