<svg xmlns="http://www.w3.org/2000/svg" width="43.272" height="44.405" viewBox="0 0 43.272 44.405">
  <path id="Icon_map-car-repair" data-name="Icon map-car-repair" d="M19.251,6.78l-2.207,3H11.889a4.809,4.809,0,0,0,5.623,2.956c.862-.058,3.768-.52,4.972-.236,1.6.385.935.386,3.81,2.693L40.622,27.013a1.9,1.9,0,0,0,2.778-.418,2.383,2.383,0,0,0-.057-3.209L25.205,8.875C24.07,7.964,23.784,6.7,23.392,5.248a6.882,6.882,0,0,0-6.313-4.5c-2.215,0-4.6,1.916-5.477,3.6h5.441ZM31.693,28.826,26.087,19.1c-.221-.4-.781-1.152-1.241-1.152H9.241c-.46,0-1.019.748-1.242,1.152L2.534,28.826h-.14c-.92,0-1.674.335-1.674,1.256v8.37c0,.921.754,1.256,1.674,1.256H4.347v2.929A2.3,2.3,0,0,0,6.579,45.15h.837a2.4,2.4,0,0,0,2.372-2.512V39.709H24.3v2.929A2.4,2.4,0,0,0,26.67,45.15h.837a2.3,2.3,0,0,0,2.233-2.512V39.709h1.953c.92,0,1.674-.335,1.674-1.256v-8.37C33.367,29.161,32.614,28.826,31.693,28.826ZM5.324,35.1a2.093,2.093,0,1,1,2.093-2.093A2.092,2.092,0,0,1,5.324,35.1ZM7,28.826l3.393-7.1c.206-.412.752-1.063,1.212-1.063H22.485c.46,0,1,.651,1.212,1.063l3.393,7.1ZM28.763,35.1a2.093,2.093,0,1,1,2.093-2.093A2.093,2.093,0,0,1,28.763,35.1Z" transform="translate(-0.72 -0.745)" fill="#ff4612"/>
</svg>
