<svg xmlns="http://www.w3.org/2000/svg" width="16.187" height="17.038" viewBox="0 0 16.187 17.038">
  <path id="Icon_awesome-phone-square-alt" data-name="Icon awesome-phone-square-alt" d="M14.452,2.25H1.734A1.782,1.782,0,0,0,0,4.076V17.463a1.782,1.782,0,0,0,1.734,1.826H14.452a1.782,1.782,0,0,0,1.734-1.826V4.076A1.782,1.782,0,0,0,14.452,2.25ZM13.86,13.94l-.542,2.472a.549.549,0,0,1-.528.442A10.765,10.765,0,0,1,2.312,5.825a.592.592,0,0,1,.42-.556L5.081,4.7A.627.627,0,0,1,5.2,4.684a.588.588,0,0,1,.5.346L6.785,7.692a.712.712,0,0,1,.044.225.661.661,0,0,1-.2.442L5.261,9.537a8.612,8.612,0,0,0,4,4.213l1.12-1.441A.6.6,0,0,1,10.8,12.1a.617.617,0,0,1,.214.046l2.529,1.141a.62.62,0,0,1,.328.524.7.7,0,0,1-.014.128Z" transform="translate(0 -2.25)" fill="#fff"/>
</svg>
