<svg xmlns="http://www.w3.org/2000/svg" width="24" height="24" viewBox="0 0 24 24">
  <g id="Group_6475" data-name="Group 6475" transform="translate(-1167 -1164)">
    <path id="Icon_feather-phone" data-name="Icon feather-phone" d="M14.167,11.252v1.659a1.106,1.106,0,0,1-1.206,1.106,10.945,10.945,0,0,1-4.773-1.7A10.785,10.785,0,0,1,4.87,9a10.945,10.945,0,0,1-1.7-4.8A1.106,1.106,0,0,1,4.273,3H5.932a1.106,1.106,0,0,1,1.106.951,7.1,7.1,0,0,0,.387,1.554,1.106,1.106,0,0,1-.249,1.167l-.7.7a8.849,8.849,0,0,0,3.318,3.318l.7-.7a1.106,1.106,0,0,1,1.167-.249,7.1,7.1,0,0,0,1.554.387A1.106,1.106,0,0,1,14.167,11.252Z" transform="translate(1170.216 1167.176)" fill="none" stroke="#fff" stroke-linecap="round" stroke-linejoin="round" stroke-width="0.5"/>
    <g id="Group_6474" data-name="Group 6474" transform="translate(6164.22 20.22)">
      <g id="Ellipse_138" data-name="Ellipse 138" transform="translate(-4997.22 1143.78)" fill="none" stroke="#fff" stroke-width="0.5">
        <circle cx="12" cy="12" r="12" stroke="none"/>
        <circle cx="12" cy="12" r="11.75" fill="none"/>
      </g>
    </g>
  </g>
</svg>
