<svg xmlns="http://www.w3.org/2000/svg" width="18.902" height="17.551" viewBox="0 0 18.902 17.551">
  <path id="Icon_ionic-ios-star" data-name="Icon ionic-ios-star" d="M20.434,9.451H14.228L12.342,3.822a.683.683,0,0,0-1.283,0L9.174,9.451H2.925a.677.677,0,0,0-.675.675.5.5,0,0,0,.013.114.649.649,0,0,0,.283.477l5.1,3.595L5.689,20a.677.677,0,0,0,.232.759.653.653,0,0,0,.38.165.827.827,0,0,0,.422-.152L11.7,17.226l4.979,3.548a.791.791,0,0,0,.422.152.606.606,0,0,0,.375-.165A.669.669,0,0,0,17.709,20l-1.958-5.692,5.059-3.628.122-.105a.708.708,0,0,0,.219-.451A.715.715,0,0,0,20.434,9.451Z" transform="translate(-2.25 -3.375)" fill="#ff4612"/>
</svg>
