<svg xmlns="http://www.w3.org/2000/svg" xmlns:xlink="http://www.w3.org/1999/xlink" width="80" height="80.147" viewBox="0 0 80 80.147">
  <defs>
    <clipPath id="clip-path">
      <rect id="Rectangle_564" data-name="Rectangle 564" width="80" height="80.147" fill="none"/>
    </clipPath>
  </defs>
  <g id="learn-about-your-needs-zensurance" clip-path="url(#clip-path)">
    <path id="Path_7629" data-name="Path 7629" d="M40,0A40.074,40.074,0,1,1,0,40.073,40.037,40.037,0,0,1,40,0Z" transform="translate(0 0)" fill="#ff4612"/>
    <g id="Group_7023" data-name="Group 7023">
      <path id="Path_7624" data-name="Path 7624" d="M-41.853,4.526l-13.4,13.4a3,3,0,0,0,0,4.248l12.275,12.277a3.005,3.005,0,0,0,4.25,0l13.4-13.4Z" transform="translate(85.375 15.629)" fill="none" stroke="#fff" stroke-linecap="round" stroke-linejoin="round" stroke-width="2"/>
      <path id="Path_7625" data-name="Path 7625" d="M-55.666,29.032l-7.819,7.82A1.744,1.744,0,0,0-64,38.084,1.744,1.744,0,0,0-63.5,39.32l7.1,7.1a1.746,1.746,0,0,0,2.468-.011l7.82-7.819Z" transform="translate(87.137 10.14)" fill="none" stroke="#fff" stroke-linecap="round" stroke-linejoin="round" stroke-width="2"/>
      <path id="Path_7626" data-name="Path 7626" d="M-63.646,43.331l-4.43,4.43a.963.963,0,0,0-.044,1.36l3.8,3.8a.964.964,0,0,0,1.361-.044l4.43-4.43Z" transform="translate(88.118 6.938)" fill="none" stroke="#fff" stroke-linecap="round" stroke-linejoin="round" stroke-width="2"/>
      <line id="Line_129" data-name="Line 129" x2="11.352" y2="11.352" transform="translate(42.015 26.747)" fill="none" stroke="#fff" stroke-linecap="round" stroke-linejoin="round" stroke-width="2"/>
      <path id="Path_7627" data-name="Path 7627" d="M-31.17,4.834a20.668,20.668,0,0,1,11.35,11.35" transform="translate(79.783 15.561)" fill="none" stroke="#fff" stroke-linecap="round" stroke-linejoin="round" stroke-width="2"/>
    </g>
  </g>
</svg>
