<svg xmlns="http://www.w3.org/2000/svg" xmlns:xlink="http://www.w3.org/1999/xlink" width="80" height="80.147" viewBox="0 0 80 80.147">
  <defs>
    <clipPath id="clip-path">
      <rect id="Rectangle_563" data-name="Rectangle 563" width="80" height="80.147" fill="none"/>
    </clipPath>
  </defs>
  <g id="get-insurance-and-save-zensurance" clip-path="url(#clip-path)">
    <path id="Path_7628" data-name="Path 7628" d="M40,0A40.074,40.074,0,1,1,0,40.073,40.037,40.037,0,0,1,40,0Z" transform="translate(0 0)" fill="#ff4612"/>
    <g id="Group_7022" data-name="Group 7022" transform="translate(16.555 25.723)">
      <g id="Group_7016" data-name="Group 7016" transform="translate(0 0)">
        <path id="Path_7618" data-name="Path 7618" d="M458.744,180.4" transform="translate(-413.417 -160.688)" fill="none" stroke="#fff" stroke-linecap="round" stroke-linejoin="round" stroke-width="3"/>
        <path id="Path_7619" data-name="Path 7619" d="M442.86,155.861a51.339,51.339,0,0,0-6.5,0c-5.977.981-17.291,5.834-23.292,6.677a61.315,61.315,0,0,1-6.62,0,4.13,4.13,0,0,0-4.4,4.489v14.3c0,2.611,1.968,3.69,4.4,3.69a61.033,61.033,0,0,0,6.62,0c5.972-.843,17.234-5.7,23.185-6.677a52.418,52.418,0,0,1,6.607,0c2.493,0,4.518-1.642,4.518-3.69v-15.1C447.378,157.581,445.357,155.861,442.86,155.861Z" transform="translate(-402.051 -155.743)" fill="none" stroke="#fff" stroke-linecap="round" stroke-linejoin="round" stroke-width="3"/>
      </g>
      <path id="Path_7620" data-name="Path 7620" d="M424.879,176.754a5.76,5.76,0,1,1,8.146,0" transform="translate(-406.289 -157.984)" fill="none" stroke="#fff" stroke-linecap="round" stroke-linejoin="round" stroke-width="3"/>
      <g id="Group_7018" data-name="Group 7018" transform="translate(4.108 11.115)">
        <g id="Group_7017" data-name="Group 7017" transform="translate(0.154)">
          <path id="Path_7621" data-name="Path 7621" d="M407.382,170.675c0-.57,1.03-1.03,1.03-1.03" transform="translate(-407.382 -169.645)" fill="none" stroke="#fff" stroke-linecap="round" stroke-linejoin="round" stroke-width="3"/>
        </g>
        <line id="Line_125" data-name="Line 125" x1="0.154" y2="4.475" transform="translate(0 0.967)" fill="none" stroke="#fff" stroke-linecap="round" stroke-linejoin="round" stroke-width="3"/>
      </g>
      <g id="Group_7019" data-name="Group 7019" transform="translate(4.462 24.992)">
        <line id="Line_126" data-name="Line 126" x1="4.111" fill="none" stroke="#fff" stroke-linecap="round" stroke-linejoin="round" stroke-width="3"/>
      </g>
      <g id="Group_7020" data-name="Group 7020" transform="translate(36.747 4.711)">
        <line id="Line_127" data-name="Line 127" x1="4.111" fill="none" stroke="#fff" stroke-linecap="round" stroke-linejoin="round" stroke-width="3"/>
      </g>
      <g id="Group_7021" data-name="Group 7021" transform="translate(40.209 17.524)">
        <path id="Path_7622" data-name="Path 7622" d="M453.372,177.661a1.011,1.011,0,0,1-1.03,1.03" transform="translate(-452.342 -177.661)" fill="none" stroke="#fff" stroke-linecap="round" stroke-linejoin="round" stroke-width="3"/>
      </g>
      <line id="Line_128" data-name="Line 128" y1="3.322" transform="translate(41.239 13.465)" fill="none" stroke="#fff" stroke-linecap="round" stroke-linejoin="round" stroke-width="3"/>
      <path id="Path_7623" data-name="Path 7623" d="M428.953,178.442a5.76,5.76,0,1,1,5.761-5.76" transform="translate(-406.29 -157.985)" fill="none" stroke="#fff" stroke-linecap="round" stroke-linejoin="round" stroke-width="3"/>
    </g>
  </g>
</svg>
