<svg xmlns="http://www.w3.org/2000/svg" width="99.999" height="99.999" viewBox="0 0 99.999 99.999">
  <g id="dollar-sign-black-circle" transform="translate(-0.415 -0.761)">
    <path id="Path_7601" data-name="Path 7601" d="M50.414,100.76a50,50,0,1,0-50-50A50,50,0,0,0,50.414,100.76Z" fill="#ff4612" fill-rule="evenodd"/>
    <circle id="Ellipse_704" data-name="Ellipse 704" cx="21" cy="21" r="21" transform="translate(29.524 29.761)" fill="none" stroke="#fff" stroke-width="3"/>
    <path id="Path_7602" data-name="Path 7602" d="M56.524,44.761c0-2.761-2.686-5-6-5s-6,2.239-6,5" fill="none" stroke="#fff" stroke-width="3"/>
    <path id="Path_7603" data-name="Path 7603" d="M44.524,56.761c0,2.761,2.686,5,6,5s6-2.239,6-5" fill="none" stroke="#fff" stroke-width="3"/>
    <path id="Path_7604" data-name="Path 7604" d="M56.524,56.761c0-7.636-12-4.364-12-12" fill="none" stroke="#fff" stroke-width="3"/>
    <path id="Path_7605" data-name="Path 7605" d="M50.524,40.761v-5" fill="none" stroke="#fff" stroke-width="3"/>
    <path id="Path_7606" data-name="Path 7606" d="M50.524,65.761v-5" fill="none" stroke="#fff" stroke-width="3"/>
  </g>
</svg>
