<svg xmlns="http://www.w3.org/2000/svg" xmlns:xlink="http://www.w3.org/1999/xlink" width="711" height="1192" viewBox="0 0 711 1192">
  <defs>
    <linearGradient id="linear-gradient" x1="0.5" x2="0.5" y2="1" gradientUnits="objectBoundingBox">
      <stop offset="0" stop-color="#29beff"/>
      <stop offset="1" stop-color="#016c9b"/>
    </linearGradient>
    <linearGradient id="linear-gradient-2" x1="0.5" y1="1" x2="0.5" gradientUnits="objectBoundingBox">
      <stop offset="0" stop-color="#cac7c2"/>
      <stop offset="0.216" stop-color="#dddbd8"/>
      <stop offset="0.468" stop-color="#ededeb"/>
      <stop offset="0.727" stop-color="#f7f7f7"/>
      <stop offset="1" stop-color="#fbfbfb"/>
    </linearGradient>
  </defs>
  <g id="Group_6350" data-name="Group 6350" transform="translate(-4922 10140)">
    <rect id="Rectangle_445" data-name="Rectangle 445" width="711" height="1192" transform="translate(4922 -10140)" fill="url(#linear-gradient)"/>
    <g id="Group_5994" data-name="Group 5994" transform="translate(4594.465 -9888.165)" opacity="0.67" style="mix-blend-mode: luminosity;isolation: isolate">
      <circle id="Ellipse_111" data-name="Ellipse 111" cx="23.53" cy="23.53" r="23.53" transform="translate(391.535 336.449)" fill="#cfe5ff"/>
      <g id="Group_5972" data-name="Group 5972" transform="translate(437.002 308.103)">
        <path id="Path_7050" data-name="Path 7050" d="M451.756,314.214c-4.2-1.123-10.8-11.712-16.248-12.192s-12.035,5.934-17.6,1.893-6.075-21.408-12.44-24.876-11.12.419-13.557-3.669.726-18.012-4.972-22.926-10.363-3.28-11.491-7.577,2.269-11.1-2.328-17.527-6.349-14.654.522-10.822,13.009,8.679,19.923,7.137,5.657,10.29,10.574,13.089,12.221-1.934,16.2.569,4.3,15.871,7.636,17.134,16.628-8,22.857-5.41-1.393,19.46,5.271,21.983,14.774,5.715,14.774,5.715Z" transform="translate(-369.072 -215.54)" fill="#b8e3c2"/>
        <path id="Path_7051" data-name="Path 7051" d="M376.252,223.763s7.5,24.763,74.718,67.809l4.27-6.94S400.942,261.016,376.252,223.763Z" transform="translate(-361.56 -206.938)" fill="#9ecdbb"/>
      </g>
      <path id="Path_7052" data-name="Path 7052" d="M380.869,286.1c-15,10-23.505,59.516,5.5,60.517,20,.689,27.869-17.328,20.36-22.934-18.861-14.077-40.866,35.436-18.861,45.439,10.382,4.718,20.915-2.805,32.266-11.965,17.373-14.022,36.663-31.876,60.259-15.542" transform="translate(65.958 163.11)" fill="none" stroke="#fff" stroke-miterlimit="10" stroke-width="2"/>
      <g id="Group_5975" data-name="Group 5975" transform="translate(801.967 219.036)">
        <path id="Path_7056" data-name="Path 7056" d="M664.547,207.015c-6.615-.577-16.193-.362-29.731,1.966a26.212,26.212,0,0,0-17.956,12.285c-6.971,11.523-17.754,29.789-20.025,36.181,0,0-19.18-2.989-30-9.565l-4.784,9.565s11.026,7.636,43.473,18.257c0,0,9.657-14.529,14.781-28.69,0,0-1.078,7.851,2.607,21.735,2.918,10.983-3.922,53.852-3.922,53.852l70.583-2.529-5.8-42.63,8.561-11.006a14.171,14.171,0,0,0,2.785-10.985c-1.318-8.117-4.546-22.754-11.98-36.342A23.5,23.5,0,0,0,664.547,207.015Z" transform="translate(-562.055 -136.128)" fill="#d85c1c"/>
        <path id="Path_7057" data-name="Path 7057" d="M622.142,241.6l-2.609-18.04s-3.476,23.691-5,26.517Z" transform="translate(-507.159 -118.542)" fill="#b14800"/>
        <path id="Path_7058" data-name="Path 7058" d="M613.38,245.428c-3.595,1.256-12.851,4.2-12,6.079.491,1.082,7.02-1.487,7.742-.6.544.665-1.778,4.131-5.954,6.328-3.241,1.706-5.494,1.35-5.627,2.9-.172,1.96,9.406,1.76,11.853,1.455a13.658,13.658,0,0,0,6.476-2.734c2.519-2.087,3.106-3.294,4.381-4.514a37.033,37.033,0,0,1,5.972-4.567l-4.769-7.744S615.448,244.7,613.38,245.428Z" transform="translate(-524.935 -99.221)" fill="#e7d1ad"/>
        <path id="Path_7059" data-name="Path 7059" d="M600.5,203.33l1.5,17.183s9.3,7.951,17.4-1.025l-4.5-20.774Z" transform="translate(-521.838 -144.529)" fill="#e0bd82"/>
        <path id="Path_7060" data-name="Path 7060" d="M635.906,182.233c4.383,4.285,7.867,10.68,7.867,19.677,0,13.275-15.685,32.007-30.055,32.007-12.667,0-22.934-13.019-22.934-29.077,0-12.307,6.1-22.7,14.552-27.067C617.283,171.591,630.128,176.586,635.906,182.233Z" transform="translate(-532.003 -169.413)" fill="#e7cb9e"/>
        <path id="Path_7061" data-name="Path 7061" d="M598.882,192.254s-3.912,6.449.8,6.738" transform="translate(-525.126 -151.287)" fill="none" stroke="#e0b695" stroke-miterlimit="10" stroke-width="0.5"/>
        <path id="Path_7062" data-name="Path 7062" d="M598.164,194.841c0,1.279-1.438,2.318-3.212,2.318s-3.21-1.039-3.21-2.318,1.438-2.32,3.21-2.32S598.164,193.56,598.164,194.841Z" transform="translate(-531.002 -151.008)" fill="#e0ab82"/>
        <path id="Path_7063" data-name="Path 7063" d="M610.784,195.023c0,1.42-1.745,2.572-3.9,2.572s-3.9-1.152-3.9-2.572,1.747-2.572,3.9-2.572S610.784,193.6,610.784,195.023Z" transform="translate(-519.237 -151.081)" fill="#e0ab82"/>
        <ellipse id="Ellipse_113" data-name="Ellipse 113" cx="57.491" cy="9.999" rx="57.491" ry="9.999" transform="translate(25.758 348.238)" fill="#e5ebf4" opacity="0.2" style="mix-blend-mode: multiply;isolation: isolate"/>
        <g id="Group_5973" data-name="Group 5973" transform="translate(103.387 321.106)">
          <path id="Path_7064" data-name="Path 7064" d="M633.84,338.106s3.317.681,2.836,5.684a116.886,116.886,0,0,0-.3,11.742l-1.408.544s-.79-6.009-1.209-6.071-3.21,6.044-6.515,7.45-11.64,4.074-14.009,1.645c-2.594-2.658,3.2-5.074,6.169-6.828S633.84,338.106,633.84,338.106Z" transform="translate(-612.585 -319.822)" fill="#393939"/>
          <path id="Path_7065" data-name="Path 7065" d="M619.7,331.38s3.476,13.731,1.786,19.632-6.216,10.936-6.69,12.113,6.218.4,8.587-1.655,8.675-12.739,8.284-14.171a96.2,96.2,0,0,1-1.019-18.128Z" transform="translate(-610.301 -329.17)" fill="#e7cb9e"/>
        </g>
        <g id="Group_5974" data-name="Group 5974" transform="translate(45.9 322.614)">
          <path id="Path_7066" data-name="Path 7066" d="M608.191,338.822s3.2,1.119,2.05,6.013a116.747,116.747,0,0,0-1.866,11.6l-1.467.352s.021-6.06-.387-6.179-3.842,5.661-7.3,6.613-12.227,2.382-14.253-.344c-2.216-2.981,3.851-4.6,7.028-5.942S608.191,338.822,608.191,338.822Z" transform="translate(-584.488 -320.581)" fill="#393939"/>
          <path id="Path_7067" data-name="Path 7067" d="M596.055,330.633s1.61,14.073-.853,19.693-7.623,10.007-8.252,11.11,6.109,1.232,8.733-.491,10.3-11.464,10.105-12.937a96.108,96.108,0,0,1,1.414-18.1Z" transform="translate(-581.957 -329.907)" fill="#e7cb9e"/>
        </g>
        <path id="Path_7068" data-name="Path 7068" d="M593.385,264.662s-5.972,59.813-6.8,79.75c-.735,17.619,7.5,72.214,7.5,72.214l14.23-1.234s1.684-52.33,5.723-69.773c3.077-13.285,12.3-53.138,12.3-53.138s4.743,37.836,6.322,50.448c2.247,17.917,14.2,73.409,14.2,73.409l16.8-.73s-4.471-56-4.221-74.667c.262-19.7,4.528-78.806,4.528-78.806Z" transform="translate(-536.447 -78.189)" fill="#2638a3"/>
        <path id="Path_7069" data-name="Path 7069" d="M593.385,263.776s-5.972,59.813-6.8,79.75c-.735,17.619,7.5,72.214,7.5,72.214l14.23-1.234s1.684-52.33,5.723-69.773c3.077-13.285,12.3-53.138,12.3-53.138s-8.19-9.952-10.748-28.614Z" transform="translate(-536.447 -77.303)" fill="#12259a"/>
        <path id="Path_7070" data-name="Path 7070" d="M646.5,204.589s-3.149,9.733-18.486.908a114.65,114.65,0,0,1-25.062-19.468s-5,12.876-12.872,18.04c0,0,.422-8.9,1.917-13.627,1.643-5.193,6.3-15.965,22.458-16.614C651.287,172.349,646.5,204.589,646.5,204.589Z" transform="translate(-532.738 -170.613)" fill="#424242"/>
        <path id="Path_7071" data-name="Path 7071" d="M625.345,198.115s8.489-4.673,5.2-14.277-16.023-14.8-22.6-6.23" transform="translate(-514.045 -171.147)" fill="#424242"/>
        <path id="Path_7072" data-name="Path 7072" d="M601.142,190.343c0,1.148.6,2.077,1.334,2.077s1.334-.929,1.334-2.077-.6-2.077-1.334-2.077S601.142,189.195,601.142,190.343Z" transform="translate(-521.167 -155.459)" fill="#424242"/>
        <path id="Path_7073" data-name="Path 7073" d="M594.356,190.725c0,1.146.626,2.075,1.4,2.075s1.4-.929,1.4-2.075-.624-2.077-1.4-2.077S594.356,189.577,594.356,190.725Z" transform="translate(-528.266 -155.059)" fill="#424242"/>
        <path id="Path_7074" data-name="Path 7074" d="M607.863,197.02s-6.572,3.1-11.814.481C595.938,200.273,602.707,205.671,607.863,197.02Z" transform="translate(-526.497 -146.301)" fill="#e5f1ff"/>
        <path id="Path_7075" data-name="Path 7075" d="M611.786,196.787c-1.747,5.379.2,10.721,4.362,11.935s8.941-2.163,10.689-7.542-.2-10.719-4.362-11.933S613.534,191.41,611.786,196.787Z" transform="translate(-510.703 -154.69)"/>
        <path id="Path_7076" data-name="Path 7076" d="M626.672,196.893s-8.043,11.955-24.78,8.043" transform="translate(-520.383 -146.434)" fill="none" stroke="#000" stroke-linecap="round" stroke-miterlimit="10" stroke-width="1"/>
        <path id="Path_7077" data-name="Path 7077" d="M643.465,212.955s4.424-40.473-27.65-40.723c-7.319-.057-20.508,2.674-24.271,15.513" transform="translate(-531.208 -172.232)" fill="none" stroke="#000" stroke-linecap="round" stroke-miterlimit="10" stroke-width="1"/>
      </g>
      <path id="Path_7078" data-name="Path 7078" d="M777.727,275.507l.02-.02L622.533,189.637a53.406,53.406,0,0,0-51.692,0L415.594,275.507l.02.02a22,22,0,0,0-11.476,19.325V510.909a22.005,22.005,0,0,0,22.006,22.005H767.231a22,22,0,0,0,22.005-22.005V294.852A22,22,0,0,0,777.727,275.507Z" transform="translate(92.208 57.344)" fill="#d8d8d8"/>
      <g id="Group_5976" data-name="Group 5976" transform="translate(710.494 177.651)">
        <path id="Path_7079" data-name="Path 7079" d="M510.733,216.238c1.768-3.976,13.258-8.837,14.584-14.14s-3.978-12.815.884-17.676,22.1-2.652,26.513-8.4,1.326-11.047,5.745-12.815,17.676,3.536,23.421-1.326,4.862-9.723,9.281-10.165,10.6,3.978,17.676.442,15.466-3.976,10.6,2.21-10.6,11.491-10.163,18.56-11.049,3.978-14.582,8.4,0,12.373-3.094,15.908S575.252,199,573.484,202.1s5.3,17.676,1.768,23.421-19-4.42-22.538,1.768-7.953,13.7-7.953,13.7Z" transform="translate(-510.733 -149.59)" fill="#b8e3c2"/>
        <path id="Path_7080" data-name="Path 7080" d="M595.656,155.6S570.025,159.135,517,218.792l6.185,5.3S555,174.159,595.656,155.6Z" transform="translate(-504.18 -143.305)" fill="#9ecdbb"/>
      </g>
      <path id="Rectangle_435" data-name="Rectangle 435" d="M12.333,0H284.742a12.333,12.333,0,0,1,12.333,12.333V303.077a0,0,0,0,1,0,0H0a0,0,0,0,1,0,0V12.333A12.333,12.333,0,0,1,12.333,0Z" transform="translate(540.611 234.304)" fill="url(#linear-gradient-2)"/>
      <g id="Group_5977" data-name="Group 5977" transform="translate(578.45 279.137)" style="mix-blend-mode: multiply;isolation: isolate">
        <rect id="Rectangle_436" data-name="Rectangle 436" width="221.705" height="1.739" transform="translate(0)" fill="#e1e3e6"/>
        <rect id="Rectangle_437" data-name="Rectangle 437" width="221.705" height="1.739" transform="translate(0 24.502)" fill="#e1e3e6"/>
        <rect id="Rectangle_438" data-name="Rectangle 438" width="221.705" height="1.739" transform="translate(0 49.003)" fill="#e1e3e6"/>
        <rect id="Rectangle_439" data-name="Rectangle 439" width="221.705" height="1.739" transform="translate(0 73.505)" fill="#e1e3e6"/>
        <rect id="Rectangle_440" data-name="Rectangle 440" width="221.705" height="1.739" transform="translate(0 98.007)" fill="#e1e3e6"/>
        <rect id="Rectangle_441" data-name="Rectangle 441" width="221.705" height="1.739" transform="translate(0 122.509)" fill="#e1e3e6"/>
        <rect id="Rectangle_442" data-name="Rectangle 442" width="221.705" height="1.739" transform="translate(0 147.01)" fill="#e1e3e6"/>
        <rect id="Rectangle_443" data-name="Rectangle 443" width="221.705" height="1.739" transform="translate(0 171.512)" fill="#e1e3e6"/>
      </g>
      <path id="Path_7081" data-name="Path 7081" d="M756.927,254.832l-162.1,162.094a.9.9,0,0,1-1.273,0L431.459,254.834a38.636,38.636,0,0,0-27.321-11.317h0V447.569a22.005,22.005,0,0,0,22.006,22.006H767.231a22,22,0,0,0,22.005-22.006V243.517h-4.99A38.635,38.635,0,0,0,756.927,254.832Z" transform="translate(92.208 118.522)" fill="#fff"/>
      <path id="Path_7082" data-name="Path 7082" d="M651.514,300.568l-56.68,56.678a.9.9,0,0,1-1.273,0L537.755,301.44l-133.627,78.7.021,7.755A22,22,0,0,0,426.154,409.9H767.241a22,22,0,0,0,22.005-22.005v-6.932Z" transform="translate(92.199 177.138)" fill="#e7e7e6" style="mix-blend-mode: multiply;isolation: isolate"/>
      <path id="Path_7083" data-name="Path 7083" d="M789.236,397.139V390.6l-166.7-92.2a53.4,53.4,0,0,0-51.692,0l-166.7,92.2v6.537a22.005,22.005,0,0,0,22.006,22.005H767.231A22,22,0,0,0,789.236,397.139Z" transform="translate(92.208 168.02)" fill="#fff"/>
      <g id="Group_5981" data-name="Group 5981" transform="translate(436.282 299.449)">
        <path id="Path_7089" data-name="Path 7089" d="M484.015,211.671c-34.48,2.7-67.989,37.042-74.489,44.044-6.68,6.83-39.362,41.955-40.4,76.523-.608,20.182,13.31,39.847,21.784,46.4l38.965-48.94s-6.288-6.263-20.039-10.11c0,0,3.4-17.565,24.481-39.685,19.888-20.87,39.027-26.959,39.027-26.959,4.506,13.549,11.063,19.528,11.063,19.528L531.412,231.2C524.455,223.048,504.144,210.094,484.015,211.671Z" transform="translate(-369.105 -211.54)" fill="#fff"/>
        <g id="Group_5979" data-name="Group 5979" transform="translate(13.132 111.715)">
          <path id="Path_7090" data-name="Path 7090" d="M422.685,272.2l-6.957-5.217c-4.581-3.574-16.911,4.569-27.54,18.19s-15.53,27.562-10.949,31.137l6.955,5.217Z" transform="translate(-375.523 -266.14)" fill="#e8e8e8"/>
          <path id="Path_7091" data-name="Path 7091" d="M408.179,300.667c-10.627,13.623-22.957,21.766-27.54,18.192s.321-17.516,10.949-31.137,22.959-21.766,27.542-18.19S418.808,287.046,408.179,300.667Z" transform="translate(-371.967 -263.473)" fill="#e8e8e8"/>
          <path id="Path_7092" data-name="Path 7092" d="M380.639,318.858c-4.581-3.577.321-17.516,10.949-31.137s22.959-21.766,27.542-18.19" transform="translate(-371.967 -263.473)" fill="none" stroke="#707070" stroke-miterlimit="10" stroke-width="1" style="mix-blend-mode: screen;isolation: isolate"/>
        </g>
        <g id="Group_5980" data-name="Group 5980" transform="translate(108.632 11.82)">
          <path id="Path_7093" data-name="Path 7093" d="M476.077,225.205l-5.862-6.421c-3.834-4.366-17.465,1.338-30.448,12.739s-20.4,24.185-16.559,28.551l5.862,6.421Z" transform="translate(-422.198 -217.317)" fill="#e8e8e8"/>
          <path id="Path_7094" data-name="Path 7094" d="M456.521,250.473c-12.98,11.4-26.613,17.105-30.447,12.739s3.578-17.148,16.559-28.551,26.613-17.105,30.448-12.739S469.5,239.073,456.521,250.473Z" transform="translate(-419.201 -214.034)" fill="#e6e6e6"/>
          <path id="Path_7095" data-name="Path 7095" d="M426.074,263.212c-3.836-4.366,3.578-17.148,16.559-28.551s26.613-17.105,30.448-12.739" transform="translate(-419.201 -214.034)" fill="none" stroke="#707070" stroke-miterlimit="10" stroke-width="1" style="mix-blend-mode: screen;isolation: isolate"/>
        </g>
        <path id="Path_7096" data-name="Path 7096" d="M371.55,310.429s23.184-64.338,88.1-94.768C459.652,215.661,407.776,239.424,371.55,310.429Z" transform="translate(-366.547 -207.228)" fill="#e8e8e8"/>
        <path id="Path_7097" data-name="Path 7097" d="M457.482,231.374s-18.492,2.159-45.5,26.709c-19.127,17.39-28.111,41.734-28.111,41.734a21.724,21.724,0,0,1,7.564-.256c20.547-52.49,66.159-67.5,66.045-68.187Z" transform="translate(-353.656 -191.98)" fill="#e8e8e8"/>
      </g>
      <g id="Group_5982" data-name="Group 5982" transform="translate(471.823 225.71)">
        <path id="Path_7098" data-name="Path 7098" d="M425.059,204.055A24.808,24.808,0,0,0,426,207.7a5.7,5.7,0,0,0,1.1,1.989,1.85,1.85,0,0,0,1.289.645,3,3,0,0,0,1.5-.409,4.166,4.166,0,0,0,1.964-2.551,11.749,11.749,0,0,0,.43-4.332,24.324,24.324,0,0,0-1.066-5.5,34.574,34.574,0,0,0-2.552-6.087,22.247,22.247,0,0,0-4.374-5.911,14.351,14.351,0,0,0-5.318-3.225,13.477,13.477,0,0,0-6.081-.5,20.075,20.075,0,0,0-6.631,2.255,20.851,20.851,0,0,0-7.437,6.468,23.093,23.093,0,0,0-3.787,8.976A29.705,29.705,0,0,0,394.969,210a35.5,35.5,0,0,0,3.773,10.942,28.1,28.1,0,0,0,5.572,7.532,18.361,18.361,0,0,0,6.65,4.074,16.665,16.665,0,0,0,7.394.726,22.5,22.5,0,0,0,7.835-2.576,41.122,41.122,0,0,0,4.55-2.772,38.921,38.921,0,0,0,3.429-2.721,23.31,23.31,0,0,0,2.392-2.464,14.011,14.011,0,0,0,1.406-1.987,5.7,5.7,0,0,1,1.391-1.457,2.684,2.684,0,0,1,1.273-.493,2.017,2.017,0,0,1,1.138.231,4.6,4.6,0,0,1,.968.679l2.286,2.441a36.074,36.074,0,0,1-2.68,4.174,37.265,37.265,0,0,1-3.521,4.076,38.7,38.7,0,0,1-4.462,3.832,43.608,43.608,0,0,1-5.469,3.419,30.293,30.293,0,0,1-10.985,3.523,24.289,24.289,0,0,1-10.318-1.048,25.477,25.477,0,0,1-9.068-5.363,33.725,33.725,0,0,1-7.194-9.445,38.306,38.306,0,0,1-3.433-9.025,39.48,39.48,0,0,1-1.111-9.285,37.316,37.316,0,0,1,1.119-9.074,34.683,34.683,0,0,1,3.251-8.33,32.176,32.176,0,0,1,5.285-7.088,29.332,29.332,0,0,1,7.233-5.367,24.668,24.668,0,0,1,9-2.809,22.579,22.579,0,0,1,8.976.81,22.986,22.986,0,0,1,8.08,4.4,25.989,25.989,0,0,1,6.333,7.986,29.9,29.9,0,0,1,3.118,8.943,25.138,25.138,0,0,1,.09,8.589,19.342,19.342,0,0,1-2.8,7.3,14.719,14.719,0,0,1-5.555,5.089,9.448,9.448,0,0,1-2.058.8,6.033,6.033,0,0,1-2.142.166,6.254,6.254,0,0,1-2.1-.6,6.637,6.637,0,0,1-1.96-1.485A15.757,15.757,0,0,1,419.917,222a13.254,13.254,0,0,1-4.17,3.45,8.388,8.388,0,0,1-3.609,1.058,7.262,7.262,0,0,1-3.278-.608,8.956,8.956,0,0,1-2.828-2.017,14.049,14.049,0,0,1-2.288-3.208,20.64,20.64,0,0,1-1.778-4.716,22.09,22.09,0,0,1-.653-5.269,23.166,23.166,0,0,1,.645-5.461,20.229,20.229,0,0,1,2.128-5.344,21.969,21.969,0,0,1,3.806-4.859A24.392,24.392,0,0,1,413.535,191q1.479-.783,2.7-1.3a21.091,21.091,0,0,1,2.333-.831,17.686,17.686,0,0,1,2.136-.479c.679-.106,1.4-.178,2.161-.221Zm-9.183-6.091a11.963,11.963,0,0,0-1.535.677,7.443,7.443,0,0,0-2.832,2.742,12.156,12.156,0,0,0-1.584,4.156,15.416,15.416,0,0,0-.125,4.868,13.959,13.959,0,0,0,1.532,4.849q1.716,3.238,3.9,2.081a4.63,4.63,0,0,0,1.226-.964,4.523,4.523,0,0,0,.888-1.557,7.684,7.684,0,0,0,.385-2.255,15.149,15.149,0,0,0-.262-3.085Z" transform="translate(-386.781 -174.207)" fill="#e8e8e8"/>
      </g>
      <circle id="Ellipse_115" data-name="Ellipse 115" cx="7.252" cy="7.252" r="7.252" transform="translate(601.099 204.997)" fill="#ffb700"/>
      <circle id="Ellipse_116" data-name="Ellipse 116" cx="3.626" cy="3.626" r="3.626" transform="translate(456.758 551.671)" fill="#ffb700"/>
      <path id="Path_7099" data-name="Path 7099" d="M656.6,172.857a10,10,0,1,1-10-10A10,10,0,0,1,656.6,172.857Z" transform="translate(317.885 41.935)" fill="#c3f0ce"/>
      <g id="Group_5983" data-name="Group 5983" transform="translate(822.943 204.118)">
        <path id="Path_7101" data-name="Path 7101" d="M610.255,177.348v-1.017a13.805,13.805,0,0,0-13.8-13.8H581.312a13.8,13.8,0,0,0-13.8,13.8v1.017a13.8,13.8,0,0,0,13.8,13.8h15.139c.182,0,.358-.018.538-.027a15.089,15.089,0,0,0,12.36,6.993,12.148,12.148,0,0,1-6.144-8.737A13.8,13.8,0,0,0,610.255,177.348Z" transform="translate(-567.509 -162.526)" fill="#ffb700"/>
        <path id="Path_7102" data-name="Path 7102" d="M577.421,170.752a2.315,2.315,0,1,1-2.316-2.316A2.315,2.315,0,0,1,577.421,170.752Z" transform="translate(-561.984 -156.344)" fill="#fefefe"/>
        <path id="Path_7103" data-name="Path 7103" d="M581.536,170.752a2.315,2.315,0,1,1-2.316-2.316A2.315,2.315,0,0,1,581.536,170.752Z" transform="translate(-557.679 -156.344)" fill="#fefefe"/>
        <path id="Path_7104" data-name="Path 7104" d="M585.652,170.752a2.316,2.316,0,1,1-2.316-2.316A2.315,2.315,0,0,1,585.652,170.752Z" transform="translate(-553.376 -156.344)" fill="#fefefe"/>
      </g>
    </g>
  </g>
</svg>
