<svg xmlns="http://www.w3.org/2000/svg" width="16.318" height="16.318" viewBox="0 0 16.318 16.318">
  <g id="Outline" transform="translate(0.1 0.1)">
    <path id="Path_7255" data-name="Path 7255" d="M30.237,18.149a.269.269,0,0,0,.269-.269v-.537A1.345,1.345,0,0,0,29.163,16H19.492a1.345,1.345,0,0,0-1.343,1.343V29.432h.537V17.343a.807.807,0,0,1,.806-.806h8.6a1.336,1.336,0,0,0-.269.806V30.775a.806.806,0,0,1-1.612,0v-.537a.269.269,0,0,0-.269-.269H16.269a.269.269,0,0,0-.269.269v.537a1.345,1.345,0,0,0,1.343,1.343h9.671a1.345,1.345,0,0,0,1.343-1.343V18.149ZM17.343,31.581a.807.807,0,0,1-.806-.806v-.269h9.133v.269a1.336,1.336,0,0,0,.269.806Zm11.82-15.043a.807.807,0,0,1,.806.806v.269H28.357v-.269A.807.807,0,0,1,29.163,16.537Z" transform="translate(-16 -16)" fill="#ff4612" stroke="#ff4612" stroke-width="0.2"/>
    <path id="Path_7256" data-name="Path 7256" d="M184,57.612a.686.686,0,0,0,.271.555,1.347,1.347,0,0,0,2.681,0,.7.7,0,0,0,0-1.111,1.347,1.347,0,0,0-2.681,0A.686.686,0,0,0,184,57.612Zm.662-.156a.269.269,0,0,0,.168-.405.16.16,0,0,1,.221-.221.269.269,0,0,0,.405-.168.16.16,0,0,1,.312,0,.269.269,0,0,0,.405.168.16.16,0,0,1,.221.221.269.269,0,0,0,.168.405.16.16,0,0,1,0,.312.269.269,0,0,0-.168.405.16.16,0,0,1-.221.221.269.269,0,0,0-.405.168.16.16,0,0,1-.312,0,.269.269,0,0,0-.405-.168.16.16,0,0,1-.221-.221.269.269,0,0,0-.168-.405.16.16,0,0,1,0-.312Z" transform="translate(-178.357 -54.657)" fill="#ff4612" stroke="#ff4612" stroke-width="0.2"/>
    <path id="Path_7257" data-name="Path 7257" d="M192,200h2.686v.537H192Z" transform="translate(-186.09 -193.822)" fill="#ff4612" stroke="#ff4612" stroke-width="0.2"/>
    <path id="Path_7258" data-name="Path 7258" d="M216,168h2.686v.537H216Z" transform="translate(-209.284 -162.896)" fill="#ff4612" stroke="#ff4612" stroke-width="0.2"/>
    <path id="Path_7259" data-name="Path 7259" d="M168,168h1.075v.537H168Z" transform="translate(-162.896 -162.896)" fill="#ff4612" stroke="#ff4612" stroke-width="0.2"/>
    <path id="Path_7260" data-name="Path 7260" d="M152,240h6.447v.537H152Z" transform="translate(-147.433 -232.478)" fill="#ff4612" stroke="#ff4612" stroke-width="0.2"/>
    <path id="Path_7261" data-name="Path 7261" d="M120,240h.537v.537H120Z" transform="translate(-116.508 -232.478)" fill="#ff4612" stroke="#ff4612" stroke-width="0.2"/>
    <path id="Path_7262" data-name="Path 7262" d="M152,272h4.3v.537H152Z" transform="translate(-147.433 -263.404)" fill="#ff4612" stroke="#ff4612" stroke-width="0.2"/>
    <path id="Path_7263" data-name="Path 7263" d="M296,272h1.612v.537H296Z" transform="translate(-286.598 -263.404)" fill="#ff4612" stroke="#ff4612" stroke-width="0.2"/>
    <path id="Path_7264" data-name="Path 7264" d="M152,304h6.447v.537H152Z" transform="translate(-147.433 -294.329)" fill="#ff4612" stroke="#ff4612" stroke-width="0.2"/>
    <path id="Path_7265" data-name="Path 7265" d="M120,304h.537v.537H120Z" transform="translate(-116.508 -294.329)" fill="#ff4612" stroke="#ff4612" stroke-width="0.2"/>
    <path id="Path_7266" data-name="Path 7266" d="M152,336h1.612v.537H152Z" transform="translate(-147.433 -325.255)" fill="#ff4612" stroke="#ff4612" stroke-width="0.2"/>
    <path id="Path_7267" data-name="Path 7267" d="M216,336h4.3v.537H216Z" transform="translate(-209.284 -325.255)" fill="#ff4612" stroke="#ff4612" stroke-width="0.2"/>
    <path id="Path_7268" data-name="Path 7268" d="M152,368h4.3v.537H152Z" transform="translate(-147.433 -356.18)" fill="#ff4612" stroke="#ff4612" stroke-width="0.2"/>
    <path id="Path_7269" data-name="Path 7269" d="M120,368h.537v.537H120Z" transform="translate(-116.508 -356.18)" fill="#ff4612" stroke="#ff4612" stroke-width="0.2"/>
    <path id="Path_7270" data-name="Path 7270" d="M152,400h6.447v.537H152Z" transform="translate(-147.433 -387.106)" fill="#ff4612" stroke="#ff4612" stroke-width="0.2"/>
    <path id="Path_7271" data-name="Path 7271" d="M296,368h1.612v.537H296Z" transform="translate(-286.598 -356.18)" fill="#ff4612" stroke="#ff4612" stroke-width="0.2"/>
    <path id="Path_7272" data-name="Path 7272" d="M402.418,113.075h-.269a1.075,1.075,0,1,0-2.149,0v8.6a.267.267,0,0,0,.029.12h0l.806,1.612a.269.269,0,0,0,.48,0l.806-1.612h0a.267.267,0,0,0,.029-.12v-8.059h.269a.269.269,0,0,1,.269.269v2.955h.537V113.88A.807.807,0,0,0,402.418,113.075Zm-1.343-.537a.538.538,0,0,1,.537.537h-1.075A.538.538,0,0,1,401.075,112.537Zm.537,8.865h-1.075v-4.029h1.075Zm0-4.567h-1.075V116.3h1.075Zm-.537,5.846-.371-.742h.742Zm.537-6.921h-1.075v-2.149h1.075Z" transform="translate(-387.106 -108.776)" fill="#ff4612" stroke="#ff4612" stroke-width="0.2"/>
  </g>
</svg>
