<svg xmlns="http://www.w3.org/2000/svg" width="18.461" height="18.454" viewBox="0 0 18.461 18.454">
  <g id="Group_6281" data-name="Group 6281" transform="translate(0.26 0.256)">
    <path id="Path_7275" data-name="Path 7275" d="M776.326,732.019c.183.021.319.033.454.052a.966.966,0,0,1,.917.983q.025,2.448,0,4.9a.964.964,0,0,1-1,1q-3.117.024-6.234,0a.96.96,0,0,1-1.021-.979q-.04-2.47,0-4.942a.965.965,0,0,1,.937-.967c.121-.017.242-.03.436-.054,0-.661-.01-1.318,0-1.976a2.757,2.757,0,0,1,5.511-.148C776.341,730.591,776.326,731.3,776.326,732.019Zm-2.767.733v0c-.954,0-1.908.011-2.861-.005-.41-.007-.585.137-.581.562q.022,2.193,0,4.386c0,.42.155.576.57.573q2.884-.016,5.769,0c.384,0,.564-.13.56-.535q-.017-2.216,0-4.432c0-.389-.15-.557-.548-.551C775.5,732.761,774.528,732.752,773.559,732.752Zm2.113-.724a23.056,23.056,0,0,0-.149-2.635,1.962,1.962,0,0,0-1.945-1.481,1.931,1.931,0,0,0-1.957,1.457,21.62,21.62,0,0,0-.156,2.659Z" transform="translate(-759.758 -721.004)" fill="#ff4612" stroke="#ff4612" stroke-width="0.5"/>
    <path id="Path_7276" data-name="Path 7276" d="M669.573,666.6a6.718,6.718,0,0,1-.427-4.378,2.637,2.637,0,0,1,2.873-2.147,2.712,2.712,0,0,1,2.528,2.508,16.632,16.632,0,0,1,0,2.448,9.156,9.156,0,0,1-.414,1.584c.317.139.707.306,1.093.48.232.1.416.261.272.536s-.373.189-.6.078-.448-.2-.677-.3a1.488,1.488,0,0,0-1.353.015,2.612,2.612,0,0,1-2.364-.073,1.068,1.068,0,0,0-.687-.066,6.418,6.418,0,0,0-4.044,3.348c-.3.588-.206.887.353,1.234a8.981,8.981,0,0,0,4.218,1.226c.9.062,1.814.021,2.721.019.25,0,.536-.053.57.3s-.248.382-.5.4a12.932,12.932,0,0,1-7.06-1.167,4.456,4.456,0,0,1-.473-.289,1.371,1.371,0,0,1-.516-1.892,7.221,7.221,0,0,1,4.02-3.689C669.254,666.717,669.4,666.666,669.573,666.6Zm4.308-2.72h0c0-.338.005-.677,0-1.015a2.069,2.069,0,0,0-4.137-.052q-.033,1.06,0,2.122a2.068,2.068,0,0,0,4.134.006C673.892,664.589,673.881,664.235,673.881,663.882Z" transform="translate(-664.908 -660.07)" fill="#ff4612" stroke="#ff4612" stroke-width="0.5"/>
    <path id="Path_7277" data-name="Path 7277" d="M803.572,801.148a1.107,1.107,0,0,0-.4-1.084.924.924,0,0,1-.029-1.365,1.035,1.035,0,0,1,1.053-.3,1.006,1.006,0,0,1,.428,1.711.9.9,0,0,0-.367.9,2.844,2.844,0,0,1-.014.735.283.283,0,0,1-.026.07.343.343,0,0,1-.565.044.388.388,0,0,1-.067-.116A1.912,1.912,0,0,1,803.572,801.148Z" transform="translate(-790.105 -785.573)" fill="#ff4612" stroke="#ff4612" stroke-width="0.5"/>
  </g>
</svg>
