<svg id="whatsapp" xmlns="http://www.w3.org/2000/svg" width="14.405" height="14.522" viewBox="0 0 14.405 14.522">
  <path id="Path_7273" data-name="Path 7273" d="M6.325,14.879,6.561,15a6.151,6.151,0,0,0,3.179.864h0A6.273,6.273,0,0,0,14.176,5.145,6.245,6.245,0,0,0,3.5,9.619a6.437,6.437,0,0,0,.942,3.3l.157.236L3.97,15.468Z" transform="translate(-2.518 -2.397)" fill="#00e676"/>
  <path id="Path_7274" data-name="Path 7274" d="M13.325,3.12A7.066,7.066,0,0,0,8.261,1,7.17,7.17,0,0,0,1.079,8.222a7.579,7.579,0,0,0,.942,3.572L1,15.523l3.807-.981a7.009,7.009,0,0,0,3.415.864h0a7.22,7.22,0,0,0,7.183-7.222A7.123,7.123,0,0,0,13.325,3.12ZM8.261,14.188h0a5.832,5.832,0,0,1-3.022-.824L5,13.246l-2.277.589L3.316,11.6l-.157-.236a5.958,5.958,0,1,1,8.2,1.923A5.722,5.722,0,0,1,8.261,14.188Zm3.454-4.357-.432-.2s-.628-.275-1.021-.471c-.039,0-.079-.039-.118-.039a.567.567,0,0,0-.275.079h0s-.039.039-.589.667a.216.216,0,0,1-.2.118H9.046a.3.3,0,0,1-.157-.079l-.2-.079h0a3.816,3.816,0,0,1-1.138-.746c-.079-.079-.2-.157-.275-.236a4.384,4.384,0,0,1-.746-.942L6.5,7.83c-.039-.039-.039-.079-.079-.157a.294.294,0,0,1,.039-.2s.157-.2.275-.314c.079-.079.118-.2.2-.275A.483.483,0,0,0,7.005,6.5,15.28,15.28,0,0,0,6.377,5a.454.454,0,0,0-.275-.2H5.671c-.079,0-.157.039-.236.039L5.4,4.886c-.079.039-.157.118-.236.157-.079.079-.118.157-.2.236A2,2,0,0,0,4.533,6.5h0a2.328,2.328,0,0,0,.2.9l.039.118a6.539,6.539,0,0,0,1.452,2l.157.157a2.368,2.368,0,0,1,.314.314A7.014,7.014,0,0,0,9.517,11.48c.118.039.275.039.393.079H10.3a1.455,1.455,0,0,0,.589-.157c.118-.079.2-.079.275-.157l.079-.079c.079-.079.157-.118.236-.2a1.041,1.041,0,0,0,.2-.236,2.25,2.25,0,0,0,.157-.55V9.91A.486.486,0,0,0,11.715,9.831Z" transform="translate(-1 -1)" fill="#fff"/>
</svg>
