<svg xmlns="http://www.w3.org/2000/svg" width="24.472" height="24.503" viewBox="0 0 24.472 24.503">
  <path id="Icon_zocial-call" data-name="Icon zocial-call" d="M3.319,7.755a1.8,1.8,0,0,1,.459-.979L7.449,3.1q.429-.367.642.122l2.968,5.568a.8.8,0,0,1-.153.948L9.56,11.089a1.522,1.522,0,0,0-.428.948,4.67,4.67,0,0,0,.948,2.356,20.117,20.117,0,0,0,1.866,2.448l.948.978c.286.286.652.638,1.1,1.056a18.47,18.47,0,0,0,2.217,1.652,4.963,4.963,0,0,0,2.432,1.025,1.332,1.332,0,0,0,.979-.4l1.592-1.591a.672.672,0,0,1,.917-.122l5.355,3.151a.447.447,0,0,1,.245.321.391.391,0,0,1-.122.352L23.94,26.937a1.8,1.8,0,0,1-.978.458,7.4,7.4,0,0,1-3.382-.413,15.3,15.3,0,0,1-3.487-1.667q-1.606-1.04-2.983-2.11t-2.2-1.836l-.8-.766q-.305-.305-.811-.841t-1.761-2.11a30.726,30.726,0,0,1-2.172-3.075,17.936,17.936,0,0,1-1.591-3.411A7.257,7.257,0,0,1,3.319,7.755Z" transform="translate(-3.267 -2.947)" fill="#fff"/>
</svg>
