<svg xmlns="http://www.w3.org/2000/svg" width="184.2" height="184.2" viewBox="0 0 184.2 184.2">
  <g id="car-full-circle-chart" transform="translate(-1.3 -1.3)">
    <path id="Path_7361" data-name="Path 7361" d="M93.4,185.5a92.1,92.1,0,1,1,92.1-92.1A92.056,92.056,0,0,1,93.4,185.5Zm0-5.9A86.2,86.2,0,1,0,7.2,93.4a86.209,86.209,0,0,0,86.2,86.2Z" fill="#ff4612"/>
    <path id="Path_7362" data-name="Path 7362" d="M32.8,84c.1,0,.1,0,.2.1C32.9,84.1,32.8,84.1,32.8,84Z" fill="#fbfafa"/>
    <path id="Path_7363" data-name="Path 7363" d="M33.3,80.8c0,.1,0,.1-.1.2A.349.349,0,0,1,33.3,80.8Z" fill="#fbfafa"/>
    <path id="Path_7364" data-name="Path 7364" d="M33.1,81.3c0,.1,0,.2-.1.2C33,81.4,33,81.3,33.1,81.3Z" fill="#fbfafa"/>
    <path id="Path_7365" data-name="Path 7365" d="M33,81.5c0,.1,0,.1-.1.2C32.9,81.6,32.9,81.5,33,81.5Z" fill="#fbfafa"/>
    <g id="Group_6442" data-name="Group 6442">
      <path id="Path_7366" data-name="Path 7366" d="M120.3,56.7a7.792,7.792,0,0,1,3.7.3,10.572,10.572,0,0,1,1.7,2.6,9.737,9.737,0,0,1-.2,2.4c0,1.4.3,2.6.3,4h-.1v-.2a18.568,18.568,0,0,1-2.2-2.7C122.3,61.2,121.5,58.7,120.3,56.7Zm-9.4.3c.2,0,.2,0,.3.1,4.4,4.2,7.1,10.3,10.4,15.6.8,1.2,1.6,2.5,2.4,3.8.2.3.8.9.7,1.3-.1.2,0,.1-.2.2l-1.8.3c-.3-.7-1.8-.5-2.8-.4a7.007,7.007,0,0,1-1.4.3c-.9-2.1-1.6-4.1-2.5-6.2a66.048,66.048,0,0,0-4.6-8.2c-.8-1.2-1.5-2.5-2.3-3.8a2.2,2.2,0,0,1-.2-1.4C109.2,57.6,110.2,57.6,110.9,57Zm25.9-.1a8.1,8.1,0,0,1,2.2,0,22.638,22.638,0,0,0,2.6,4.2c2.3,3.3,4.3,6.8,6.6,10.2.7,1.1,1.5,2.2,2.2,3.3a4.869,4.869,0,0,1,1.1,1.8h-2c-1-1.9-2.3-3.7-3.4-5.5-2-3.1-3.7-6.3-5.8-9.3C139.3,60.2,137.7,58.4,136.8,56.9ZM72.1,58.3c.2,0,.2,0,.3.1a16.128,16.128,0,0,0-2.8,2.4l-.9,1a21.711,21.711,0,0,0-4.5,5.1L63.1,68a14.63,14.63,0,0,0-.9,1.3c1.1,0,2,.1,3.1.1.4.2,1.4.1,1.8.3A16.409,16.409,0,0,1,70,71.3c.6.4.7,1.7,1.5,1.8.7-.5,6.4-.3,7.1-.3,0,0,.4.2.4.3.5.2,1.7-.9,2.3-1,2-.4,9.1.7,11.5.6v.2A13.721,13.721,0,0,0,91,74.5a16.638,16.638,0,0,1-2.7,1.3l-.6.1-.7.7a11.224,11.224,0,0,1-2.6.8,10.393,10.393,0,0,1-3.9-.4A5.279,5.279,0,0,0,78,77l-4.5.1L69.4,77a49.115,49.115,0,0,1-7.7.3l-3.8.1a3.112,3.112,0,0,1-.6-.4,8.223,8.223,0,0,0-2.7.2H52.5c-2.5,0-3.3,0-4-1.8,1.6.1,1.8-.8,2.7-1.5,1.1-.9,2.2-1.9,3.3-2.7.8-.6,1.5-1.4,2.3-2,1.9-1.4,3.7-2.8,5.7-4.2L64,63.5c.8-.6,1.6-1,2.4-1.6l.8-.8c1.2-.8,2.6-1.5,3.8-2.2.3-.3.8-.3,1.1-.6Zm73.1-.5c.3.1,1.5.4,1.7.5.5.2.8.7,1.2,1,.9.6,1.2,1.9,1.8,2.8a6.885,6.885,0,0,0,1.1,1.3,13.426,13.426,0,0,1,1.2,3c.1.4.7,1,.8,1.5-.1,0,.1,2.5,0,2.5-1.2-2-3.7-6.7-5-8.8A33.747,33.747,0,0,1,145.2,57.8Zm-38.1,2a15.82,15.82,0,0,1,2.7,3.1c1.1,2.1.7,4.2,1.6,6.4a10.108,10.108,0,0,1,1.3,3h-.1v-.2a13.015,13.015,0,0,1-1.8-2.3c-.9-1.4-1.5-3.2-2.4-4.5-.7-1-2-1.5-2.7-2.5a5.019,5.019,0,0,1-.2-1.2Zm21.1,4.1a8.945,8.945,0,0,1,1.9,3.1c1.3,3.1,2.3,6.9,3.6,10h-1.8c-.6-1.3-1.1-2.7-1.8-4l-.9-1.8.1-2.3-.5-.4a17.589,17.589,0,0,1-.6-4.6ZM65,71.3A10.086,10.086,0,0,1,68.8,73v.2a26.7,26.7,0,0,1-4,0,8.574,8.574,0,0,1-2.7-.5,1.943,1.943,0,0,1-.9-1.1c.3-.1.7-.2,1-.3Zm47.8,1.1c.1.1,0,0,.1.2h-.1Zm0,.2c.1.1,0,0,.1.2h-.1Zm.1.1c.1.1,0,0,.1.2h-.1Zm.1.2c.1.1,0,0,.1.2H113ZM84.6,115.7a18.6,18.6,0,0,1,4.7.3,7.412,7.412,0,0,0,2.1-.1,9.253,9.253,0,0,0,2.9-.2l1.4.1a38.529,38.529,0,0,1,5.9-.1h2.3a23.587,23.587,0,0,0,7.5,0,7.634,7.634,0,0,1,2.6.2l1.6-.1c.5.1,1.2-.1,1.7,0a20.9,20.9,0,0,0,2.5.1c3.6-.1,8,.1,10.7.2,2.2.1,4.4-.5,6.1-.1,1.2.3,3-.2,3.9.1a3.591,3.591,0,0,0,1.8-.2l4-.1a56.22,56.22,0,0,1,8.2.3l1-.1a18.5,18.5,0,0,1,4.1.2,7.84,7.84,0,0,0,3.4-.2,18.251,18.251,0,0,1,4,.5c-.2.3-.3.4-.8.4-.7.4-2.3-.1-3.2.1a44.422,44.422,0,0,1-6.3.4h-3.3a20.793,20.793,0,0,1-6.1.1h-4a8.519,8.519,0,0,1-2.3.4,4.951,4.951,0,0,1-1.3-.4,8.223,8.223,0,0,0-2.7.2,5.462,5.462,0,0,1-1.8-.1,13.279,13.279,0,0,0-4,.4h-8.5c-.6.1-1.6-.1-2.1,0a10.869,10.869,0,0,1-1.8.1,2.769,2.769,0,0,0-.9-.1c-1.2.3-3.1-.3-4.6,0-3.2.7-7.1-.6-10.5.4l-1.8-.1a1.38,1.38,0,0,0-.4.3c-.8.2-1.1-.4-1.8-.4a2.354,2.354,0,0,0-.8.2,3.812,3.812,0,0,1-1.5-.1,7.387,7.387,0,0,0-3.6.3,8.105,8.105,0,0,1-3.8-.3h-2a2.537,2.537,0,0,0-1.2-.2,12.382,12.382,0,0,1-4.7,0,24.319,24.319,0,0,1-2.7,0c-1.2-.3-2.2.4-3.3.1-.8-.2-1.4.2-2.1.2-.5,0-1.1-.4-1.8-.2-.4.1-.8.5-1.5.4a11.824,11.824,0,0,0-5.3-.2c-.7.2-.7-.5-1.3-.4-1,.2-2.7.9-3.8,0a7.364,7.364,0,0,1-3.3.1c-.6-.1-.9.3-1.4.2a12.5,12.5,0,0,0-4.7-.2,3.722,3.722,0,0,1-1.8-.2H45.9c-.2,0-.5-.2-.8-.1a3.8,3.8,0,0,1-1.8.3,5.853,5.853,0,0,0-1.3-.2c-.1,0-.3.3-.6.2l-.3-.4H39c-.2,0-.3.2-.6.2,0,0-.2-.2-.3-.2-.2,0-.6.3-.9.3l-.9-.3-1.7.3a4.986,4.986,0,0,0-2.4-.3,2.879,2.879,0,0,1-1.3-.1,1.7,1.7,0,0,0-.7.1,2.954,2.954,0,0,1-1.3-.2c-1,0-2,0-3,.1a8.854,8.854,0,0,0-2.3,0l-3.2-.1L20,117v-.2a2.92,2.92,0,0,1,.9-.2c1-.6,3,.1,4.3-.2A50.7,50.7,0,0,1,32,116h2.9c.5-.1,1.2.1,1.8,0,2-.5,4.6.3,6.8-.1l4-.1H49a28.973,28.973,0,0,1,5.1-.1l9.1-.1h3.4a13.46,13.46,0,0,0,4.9.1l9.5.1a8.744,8.744,0,0,0,3.6-.1Z" fill="#bfbfbf"/>
      <path id="Path_7367" data-name="Path 7367" d="M87.3,107.4v.2c0,.1-.1.1-.2.2v.1a5.639,5.639,0,0,1-1.1,2c-.1.1-.1.1-.2.1.1.2.1.1.4.4a.52.52,0,0,0,.4.2c.6-.7,1.7-2.2,1.6-2.6A2.361,2.361,0,0,0,87.3,107.4ZM133.7,77c2.2-.2,4.5-.2,6.7-.2a18.213,18.213,0,0,0,3.3-.1c.5-.1,1.3,0,1.7-.1.9-.2,2.8.2,3.4-.2h.7c-2.7-4.5-5.4-8.9-8.2-13.3-1.3-2-2.9-3.9-4.2-5.9a6.465,6.465,0,0,1-2-.4,16.859,16.859,0,0,0-3.2-.1c-.7.6-2.1.6-2.6,1.4s-.2,1.6-.4,2.7c-.1.5-.4,1.2-.5,1.6v1.4c.4,1.4,1.3,2.9,1.8,4.2,1.2,3.1,2.4,6,3.5,9ZM63.8,98.1c-.4-.3-.7-.3-1.1-.8h-.4l-1,.9a5.853,5.853,0,0,0-.6,3.7c.2.2.3.6.5.8.5.5,2.5,1.3,3.4.6.5-.2.5-.8,1-1.1A3.91,3.91,0,0,0,63.8,98.1ZM62.1,71.2c-.2.1-.7.1-.9.3-.1.1,0,.2,0,.4.5.6.7,1,1.6,1.2.8.2,1.9-.2,2.5.2h3.5C67.7,71.7,65.1,71.2,62.1,71.2Zm24.6,35.3-.3-.7c-.2-.4-2.6-.8-2.8-.6-.3.1-.3,2.1.1,2.2a10.548,10.548,0,0,0,2.4-.6C86.3,106.6,86.5,106.6,86.7,106.5Zm-40.6,4a25.726,25.726,0,0,0-6.8-.6c-.5.3-1.6,0-2.3.2a30.965,30.965,0,0,1-6.1.1c-.7,0-2.2.2-2.6-.1a1.421,1.421,0,0,0-.6.2c.2,1.2,1.5,2.3,2.4,2.9a13.958,13.958,0,0,0,5.4,2.8,15.484,15.484,0,0,0,4.3,0,13.272,13.272,0,0,0,4-.3,15.321,15.321,0,0,0,4.2-3.4c.3-.4.5-1.1,1-1.5-.6-.5-2-.1-2.9-.3Zm39-37.6a20.34,20.34,0,0,0,5.5-.1c.5-.1,1.1.1,1.5-.2,1.4,0,1.9-1.6,2.5-2.5.2-.3.6-.6.8-.9,1-1.5,1.5-3.2,2.5-4.7a6.918,6.918,0,0,0,1.8-4.7c-.3-.3-.5-.7-.8-1a7.366,7.366,0,0,0-1.4-.4c-.9-.4-1.8-.7-2.7-1H90.1a30.834,30.834,0,0,0-5.3-.3H77.2c-.5.5-.9-.1-1.6.1a10.052,10.052,0,0,0-3.7,1.2,33.2,33.2,0,0,0-4.3,4.1L65,65.1c-.4.5-.7,1.1-1.1,1.7L63,67.9a7.1,7.1,0,0,1-1,1.4v.1h3.2A9.209,9.209,0,0,1,71,73a33,33,0,0,1,8.3.1Zm-29.5,29-.2-.6c-.5-1-.9-2-1.4-3.2a14.647,14.647,0,0,0-1.7-2.4,12.423,12.423,0,0,1-3.3-.4H43.3c-3.4,0-6.4-.2-9.8-.2-.7.4-2.2.2-2.9.6-1.9,1.1-2.8,3.3-3.5,5.5a3.779,3.779,0,0,0,.9,3.9c1.5,1,2.7.3,4.1.6.6.1,1.6-.7,2.3-.5a22.567,22.567,0,0,0,3.7.1h5.5a32.876,32.876,0,0,1,7.6.9,9.729,9.729,0,0,0,5.3-.8,2.3,2.3,0,0,0,.5-2.6C56.5,102.4,55.9,102.4,55.6,101.9ZM98.7,71.2c-.2.3-.2.7-.4,1.1a3.943,3.943,0,0,0-.9,3.6v1c.1.4.5.6.7.9,2,.2,2.3-.8,3.3-1.8.2-.2.6-.3.8-.6l4.1-.4a12.272,12.272,0,0,1,2.6,1.2c.6.8.4,1.7,1.6,2a2.462,2.462,0,0,0,1.2.1c.1,0,.3-.3.4-.4,1.4-.1,2.9-.1,4.3-.1.7,0,1.8.4,2.2.1h.4a10.929,10.929,0,0,0-.8-1.5,30.211,30.211,0,0,0-1.8-3.6c-1.7-3.3-3.2-6.7-5.1-9.8-.7-1.1-1.3-2.2-1.9-3.3-.3-.4-.4-1.1-.9-1.3l-1.4,1.1a30.211,30.211,0,0,0,1.8,3.6c.9,2,1.5,4.1,2.4,6.1a24.772,24.772,0,0,1,1.7,3.7h0a11.815,11.815,0,0,0-1.6-2.9c-.9-1.5-1.7-3-2.7-4.5s-2.3-2.6-3.2-4.1c-.9.3-2.2,2.2-2.7,3a20.183,20.183,0,0,0-3,4.2,13.634,13.634,0,0,1-.4,1.7,5.5,5.5,0,0,1-.7.9Zm22.3.5c.9,1.5,1.8,2.9,2.7,4.4a4.2,4.2,0,0,1,.9,1.4c1.8-.4,1.4-4.7,1.3-6.9a5.853,5.853,0,0,0-.2-1.3V66a13.989,13.989,0,0,0-1.6-2.6c-.6-.9-.9-1.9-1.5-2.8-.8-1.3-1.7-2.6-2.4-3.8h-7.8c-.3.2-.9.1-1.2.3l-.1.1a20.821,20.821,0,0,1,3.2,4c2.4,3.2,4.4,6.8,6.7,10.5Zm27-.7a48.6,48.6,0,0,1,3.3,5.4c1.2-.1,2-1.2,2.8-1.7.4-2-.7-3.9-1.3-5.5-.2-.5-.2-1.2-.4-1.6a6.944,6.944,0,0,0-.5-1.3c-1.4-1.8-2.7-3.9-3.9-5.8-.5-.9-1.4-2-1.7-2-.6-.1-1-.5-1.5-.6-1.1-.3-2.6,0-3.4-.5h-2.5a31.756,31.756,0,0,0,2.7,3.7c2.2,3.2,4.3,6.5,6.4,9.9Zm-18.7.2h-.2v3.5c.1.2.4.4.4.5.3.5.4,1,.9,1.3.2.2.6.2.8.4h.5a28.255,28.255,0,0,0-1.7-4C129.8,72.4,129.5,71.8,129.3,71.2ZM38.1,91a48.738,48.738,0,0,0,5.4.2,15.063,15.063,0,0,0,3-.1h1.8l2.3-.4a8.794,8.794,0,0,0,1-.6c.1-.2,0-.1.1-.2a.764.764,0,0,0-.2-.5H45.1a20.184,20.184,0,0,1-3.5-.1c-.7-.2-1.7.1-2.4-.1H37.7a15.886,15.886,0,0,1-3.8-.2,2.506,2.506,0,0,0-.7.4c-.2.1-.1,0-.2.2s0,.3.1.4C33.7,91.6,36.3,90.7,38.1,91ZM21.3,97.5a18.413,18.413,0,0,1-.3,3.3c-.1.6.1,1.3-.2,1.8a.756.756,0,0,0,.1.4H22a2.586,2.586,0,0,0,1.1-1.4,3.642,3.642,0,0,0-1.8-4.1Zm133.6,8.7-.5-.1c-.2.1-.3.3-.6.4.1,1,1,1.7,1.5,2.4.1-.1.1.2.2.2.4-.1,1.3-.7,1.2-1.1C156.4,107.2,155.1,106.4,154.9,106.2Zm.7-5.4a4.248,4.248,0,0,0-1.7-1c-.2.3-1.1,2-.9,2.4a1.743,1.743,0,0,0,1.2.6C154.6,102.6,155.8,100.9,155.6,100.8ZM87,103.9a10.092,10.092,0,0,1-.7-1.5c-.1-.2.2-.4.3-.6-.5.1-1.3.5-1.3.7a3.9,3.9,0,0,0,1.5,2.3c.5.1.7-.4,1-.6-.2-.1-.6-.1-.8-.3Z" fill="#999"/>
      <path id="Path_7368" data-name="Path 7368" d="M162.4,101.9a15.3,15.3,0,0,0-3.3-5.3,6.633,6.633,0,0,0-1.9-.9c-.8-.2-1.6.3-2.1.2a18.916,18.916,0,0,0-2.3-.5c0-.1.1-.2.1-.4a11.706,11.706,0,0,0-3.8,1.7.905.905,0,0,1-.3,1c-.3.3-.7.4-1,.7a3.039,3.039,0,0,0-.5.7c-.3.6-.6,1.2-.9,1.7a1.47,1.47,0,0,1-.6.5,4.874,4.874,0,0,0-.4,1.1l-.3,1.6a20.365,20.365,0,0,1-.9,2.2c-.4.9-.4,2-1.1,2.6a10.768,10.768,0,0,0,4.9,5.8,11.432,11.432,0,0,0,8.7.7,15.054,15.054,0,0,0,2.2-1.1c3.9-3.3,3.9-5.7,3.9-7.7v-1.1c-.1-.4-.3-2.7-.4-3.5Zm-4,5.4a5.672,5.672,0,0,1-7.2,2.8,6.915,6.915,0,0,1-1.9-1,6.592,6.592,0,0,1-1.9-6.9,5.936,5.936,0,0,1,3.5-3.1,10.621,10.621,0,0,0,1.9-.4,5.853,5.853,0,0,1,6.2,5.6A5.087,5.087,0,0,1,158.4,107.3Z" fill="#999"/>
      <path id="Path_7369" data-name="Path 7369" d="M156.3,103.7a2.318,2.318,0,0,0-1.6.3,2.153,2.153,0,0,0,.2,1.1,8.506,8.506,0,0,0,2.2.4c.8,0,.7,0,.8-.2v-1.2A4.193,4.193,0,0,0,156.3,103.7Zm-8.1.1c-.1.1-.1.2-.2.2,0,.1-.1.2-.1.3a2,2,0,0,0,.2,1.3,8.025,8.025,0,0,0,3-.6C152.2,103.6,149.3,103.7,148.2,103.8Zm3,2.8a6.57,6.57,0,0,1-1.2,1.7c0,.2,0,.3.1.4.2.5,1,.7,1.1.8,1.1-.1.9-1.7,1.3-2.5,0-.4-.8-1-1.1-.7Zm-61.4,1.1-.6.5a6.22,6.22,0,0,0,.9,2.6,2.875,2.875,0,0,0,1.8-.7c-.1-1.1-1.1-1.6-1.5-2.4Zm61-4.7a1.7,1.7,0,0,0,1-.6c-.1-.8-.8-2.5-1.1-2.5a18.756,18.756,0,0,1-1.8,1.2C149.1,102,150.1,102.5,150.8,103Zm-59.7,2.3a1.388,1.388,0,0,0,0,.9.349.349,0,0,0,.1.2,8.881,8.881,0,0,0,2.8-.1,2.5,2.5,0,0,0-.1-1.7,6.438,6.438,0,0,0-2.8.7Zm-1.1-.5c.9-.2,1.5-1.3,2.2-1.8a1.4,1.4,0,0,0-1.2-1.4c-.5,0-1.5,2-1.6,2.2,0,.7.4,1,.6,1Zm56.7-9.3h1.8c.7-.2,1.2-1.2,2-1.4a7.367,7.367,0,0,0-.4-1.4c-.5-1.4-3.6-.7-5.2-1.1a34.321,34.321,0,0,0-6.4-.3h-7.4l-2.3.1v-.2h-.6c-.3.4-1.1.2-1.7.3l-3.4.3c-.2.1-.5.4-.7.4l-5.4.1c-.9.2-2,0-3,.2-2.6.6-5.5.4-8,1h-1.1c-1.4.3-3.9.1-4.8.8-.3.1-.4.3-.6.5,0,.4-.2.7.1,1.1.4,1.1,1.8.5,2.9.7.6.1,1.4-.4,2.1-.1a5.582,5.582,0,0,0,.8.5,7.267,7.267,0,0,0,2.5-.4l2.5-.1c1-.2,2.7,0,3.8-.3h1.7a29.106,29.106,0,0,1,5.1-.3h2a19.329,19.329,0,0,1,3.4-.1h6.8a38.46,38.46,0,0,0,8.3-.3c1.6,0,3.4-.1,5.2,0Z" fill="#999"/>
      <path id="Path_7370" data-name="Path 7370" d="M99.4,106.9a19.908,19.908,0,0,0-1.6-7.6,38.4,38.4,0,0,0-3-2.8c-.5-1-3.8-1.8-5.5-1.8a9.708,9.708,0,0,1-3.4,1.1A13.512,13.512,0,0,0,81.2,98a11.354,11.354,0,0,0-3.9,6.1,6.252,6.252,0,0,0-.4,3c1,3,1.9,5.6,4.2,7.3a13.9,13.9,0,0,0,2.1,1.1,5.223,5.223,0,0,0,1.1.8,12.984,12.984,0,0,0,6.2.3c.7-.2,1.2-.1,1.8-.3a10.6,10.6,0,0,0,7.2-6.9,20.082,20.082,0,0,0-.1-2.5Zm-5.2,0a4.529,4.529,0,0,1-.3,1.6,5.583,5.583,0,0,1-4,3.3H88.3a4.906,4.906,0,0,1-5.2-3.6,5.525,5.525,0,0,1-.3-3.1,6.365,6.365,0,0,1,3.9-4.1.367.367,0,0,0,.3-.1c0-.1.1-.1.2-.1a2.92,2.92,0,0,1,.9-.2c.1,0,.2.1.3.2,2.5,0,4.1.6,5.1,2.1a6.7,6.7,0,0,1,.7,1.8,4.108,4.108,0,0,1,0,2.2ZM81.8,77.1a.6.6,0,0,1,.4.1A.756.756,0,0,1,81.8,77.1Z" fill="#999"/>
      <path id="Path_7371" data-name="Path 7371" d="M87.6,106.9l.3.1a1.12,1.12,0,0,1,.3-1.5c.9-.5,1.1-.1,1.4-.1v-.1A1.248,1.248,0,0,0,88,105c-.5,0-1.1,1.1-.4,1.9Zm2.1-4.1h0l.7-1.2c.1-.1,0-.1-.2-.2-.2-.2-2.2-.3-2.5.1v.1C88.5,102.1,89.4,101.6,89.7,102.8ZM27.9,98.7a5.081,5.081,0,0,1,2.4-2.6l2-.1a32.473,32.473,0,0,1,5.4-.1l4.2.1a21.763,21.763,0,0,1,5.7-.1c1-.1,2-.1,3-.1a13.129,13.129,0,0,1,4,2.6h.1a10.144,10.144,0,0,0-1.6-2.6c-.3-.4-.3-.9-.6-1.3-.2-.3-.6-.4-.8-.6H43a32.33,32.33,0,0,1-4.4-.1H36.4a52.236,52.236,0,0,1-5.7-.1c-1,.9-2.6,1.5-3.1,2.8a2.817,2.817,0,0,0,.3,2.2ZM46.4,76.3a6.373,6.373,0,0,1-.7.2,20.211,20.211,0,0,0-3.2,1.1A71.507,71.507,0,0,0,31.8,83c-.9.6-2.4,1.1-2.8,2.2a2.263,2.263,0,0,0,.1,1.8,10.869,10.869,0,0,0,1.8-.1c1.3-.9,2.3-2.1,3.6-2.9s2.5-1.4,3.8-2.2c1.5-.9,2.8-2.1,4.3-3a19.793,19.793,0,0,0,4-2.3h.1A.769.769,0,0,0,46.4,76.3Zm46.9,30.4a6.1,6.1,0,0,1-2.7-.3,4.327,4.327,0,0,0-2.2,1.8c-.2.4-.7,1.2-.9,1.6-.3.5-.5,1.1-.9,1.1.4.9,3.3.8,4,.2,0,0-1-2.3-1.1-2.5-.2-.5.5-.7.6-.7.8.1,1.9,2.4,1.9,2.4.5-.6,1-1.1,1.5-1.7l.4-1.2v-.9A4.169,4.169,0,0,0,93.3,106.7Zm62.3-.5-.5-.2a20,20,0,0,1,1.9,2.2c.9,0,1.9-2.3,1.6-2.9a4.258,4.258,0,0,1-3,.9Zm2.6-3a7.434,7.434,0,0,0-1.3-2.1l-.7.7a10.606,10.606,0,0,1-1.5,1.5l-.1.4C155.8,103.5,157,103.3,158.2,103.2Z" fill="#ddd"/>
      <path id="Path_7372" data-name="Path 7372" d="M164.1,94.8a25.573,25.573,0,0,1-1.1-2.4,6.148,6.148,0,0,1,1.3-4.5v-.2c-.2.1-.2.2-.4.1h-.2a8.586,8.586,0,0,1-.3-1.7c-.1-.1.2-1.5.1-1.5a6.621,6.621,0,0,1-.1-2.8l-.5-3.8c-.2-.4-1-.4-1.2-.7s-.1-.6-.3-1.1c-.1-.3-.5-.7-.6-1a9.83,9.83,0,0,1-.5-1.6c-.9-2.7-1.6-5.3-2.5-7.9-.3-.9-.4-1.7-.7-2.6a28.319,28.319,0,0,0-2-2.8,21.419,21.419,0,0,0-4.5-3.2,25.579,25.579,0,0,0-2.7-.5c-1.2-.4-2.6-.7-3.9-1-.8-.2-1.7-.1-2.5-.3l-5.4-.3a8.6,8.6,0,0,0-3.2,0,14.55,14.55,0,0,1-2.1,0c-1.7.3-3.2-.2-4.7,0l-5.4-.2c-6,0-11.7.2-15.3,2.5a3.566,3.566,0,0,0-1,1.1c-.6.8-1.5,1.5-2.1,2.3s-.8,1.6-1.3,2.4-1.3,1.5-1.8,2.3a30.543,30.543,0,0,0-1.3,3.2c-.8,1.5-1.8,3-2.7,4.4-1.2,1.9-1.7,4-3.6,5l-1.1.4a24.186,24.186,0,0,1-3.9,2.1c-.7.3-1.4.3-2.1.6-1.2.4-2.5,1-3.7,1.4-1.8.6-3.4.9-5.1,1.6-1.2.5-2.6,1-3.8,1.6-.7.3-1.5,1-2.5.8.1.3.1.3.4.4-.1.3-.3.5-.4.8l-.2,1.1v.1c-.1.1-.4.1-.5.3-.4.7-.8,1.3-1.2,1.9a10.758,10.758,0,0,1-5.3,2.7c-1.2.3-3.5-.5-4-.2l-.3.1c.1,1.5,1.7,1.4,3.3,1.4a13.237,13.237,0,0,0,5.5-1.8,3.043,3.043,0,0,1,2.1-.1H69c-.1,1.9-.3,3.9-.3,5.9,0,2.5.1,4.7-1,6-.7.8-1.8.8-3.1,1.1-1.2.3-3.1.5-4.5.8l-2.6.2a22.68,22.68,0,0,1-5.8.4,9.2,9.2,0,0,0-3.3-.2c-1.2.3-2.3-.2-3.6.1H42.6a26.024,26.024,0,0,1-5.6-.2H34.5a43.387,43.387,0,0,1-7.2-.3c-.9-.2-1.9.1-2.7-.1a5.357,5.357,0,0,1-2.4-1.6c-.4-.5-.4-1.3-1-1.6v-.1h-.1a6.869,6.869,0,0,0,2.7,5.5c2.1,1.4,7.1,1,10.6,1a19.387,19.387,0,0,0,4.8-.3h7.6a48.375,48.375,0,0,0,7.6-.1h1.8a31.334,31.334,0,0,0,5.3-.2h1.6c2.8-.6,6.5.4,9-.5a7.033,7.033,0,0,0,4.1-4,9.8,9.8,0,0,1,2.2-4,1.048,1.048,0,0,0-.3-.4c.1-1,.8-1.5,1.2-2.1a11.938,11.938,0,0,1,.8-1.6,15.1,15.1,0,0,1,2.6-1.8,7.363,7.363,0,0,1,6.7-1.3c.4.1.7-.3,1.1-.4a5.847,5.847,0,0,1,1.9.4,9.516,9.516,0,0,1,1.9,2.1c4.7,1.9,5.1,7.8,5.3,12.2a.952.952,0,0,1-.2.7c0,.2.1.3.2.5.9,1.1,3.5,1,5.5,1l2.6-.3h2.6a20.933,20.933,0,0,0,2.4-.1,30.118,30.118,0,0,1,5.2-.1h5a4.441,4.441,0,0,0,2-.1,11.451,11.451,0,0,0,3.2-.1c.6,0,1.1-1.6,1-2.5l.3-.5a4.282,4.282,0,0,1-.6,2.2,2.768,2.768,0,0,0,.1.9l8.3.1a8.774,8.774,0,0,0,3.6-.2l.4-.4h1.1a2.445,2.445,0,0,0,1.1-.9,14.456,14.456,0,0,0,1.1-2.9c.1-.2.5-.1.5-.2a6.117,6.117,0,0,1,.5-1.2c.4-.9,0-1.9.6-3.3a10.639,10.639,0,0,1,.9-2.5c.1-.3.3-.3.7-.4V98l-.4-.2c.1-2.2,4-4.6,7.2-3.9a13.783,13.783,0,0,1,4.8,2.1c1.5,1.1,2.7,4.3,3.3,6.4.2.7-.1,2.3.3,2.8a.382.382,0,0,0,.5.3c.1,0,.2-.1.3-.2.3.2.2,1,.2,1.4h.2a6.376,6.376,0,0,0,.8-1.4v-3.1a47.789,47.789,0,0,0-.8-7.4ZM99.9,77.6c-.4.1-1.2.6-1.8.2-.8-.3-.4-.9-.7-1.8-.6-1.9.1-2.4.9-3.6.3-.5.5-1.1.8-1.6a15.871,15.871,0,0,0,.7-2,5.071,5.071,0,0,1,.9-1.6A38.673,38.673,0,0,1,106,61l1.6-1.7c.4-.3.8-.5,1.2-.8s.5-.7.8-1a6.049,6.049,0,0,1,2.1-.8c.3-.1.6,0,.8-.1h8.1a6.609,6.609,0,0,1,3.4.3,10.572,10.572,0,0,1,1.7,2.6c.3.9-.5,2.2-.2,3.3a37.122,37.122,0,0,1,.4,8.8c0,1.5.2,4.5-.3,5.3-.4,1.2-1.8.6-2.7,1.1-.4-.1-.4-.2-.5-.4a15.534,15.534,0,0,0-3.7.4c-.7.2-1.8-.3-2.7-.1h-3.8c-.1,0-.3.3-.4.4h-1.2c-.4-.4-1-.6-1.2-1.2-2.7,0-5.6.2-8.2.4H99.9ZM127,95.3a60.18,60.18,0,0,0-7,.4c-1.3.3-7,.2-8.5.3a36.181,36.181,0,0,1-8.7.1c0-.3-.2-.3.4-.9s1.9-.7,2.7-1c2.5-.9,15.1-.9,16.4-1.1a20.084,20.084,0,0,1,4.9,0l.3.1A7.173,7.173,0,0,1,127,95.3Zm1.6-2.1c-.1.1,0,.1-.1.2l-.2-.6h.4c.1.2,0,.3-.1.4Zm.6,2.1h-.3v-.2l.3.2Zm5.1-.2-3.2.1a6.124,6.124,0,0,0-.6-.4,3.881,3.881,0,0,1-.6-1.1,1.929,1.929,0,0,1,.3-1l7.2-.1c1.4,0,9.6-.3,9.8-.1.5.2.5.6.8,1,0,1.8-12.7,1.6-13.7,1.6ZM154,74.6a5.254,5.254,0,0,1-2.5,1.9h-2.8c-1,.2-2.3-.1-3.4.2a50.593,50.593,0,0,1-8.7.2c-1.7,0-3.7.6-5.4.1s-2.1-2-2.1-4.2V71.3a8.578,8.578,0,0,0,.2-2.3l-.5-.4c-.3-.5-.1-1.1-.3-1.8a11.244,11.244,0,0,1-.4-4.1,16.187,16.187,0,0,0,.6-1.7c.3-1.1-.1-2,.4-2.7s1.9-.8,2.6-1.4a28.251,28.251,0,0,1,2.9.2.87.87,0,0,1,.9-.4c3.2.2,6.2.8,9.4,1.3a6.485,6.485,0,0,1,4.5,2.2,13.707,13.707,0,0,1,2.6,5.9,1.22,1.22,0,0,1,.9.8c.4,1.5,1.2,3.2.6,4.8a.1.1,0,0,1-.1.1c.1.3.3.7.4,1a1.914,1.914,0,0,1,.2,1.8Z" fill="#ddd"/>
      <path id="Path_7373" data-name="Path 7373" d="M154.2,108.1a10.092,10.092,0,0,1-.7-1.5,3.887,3.887,0,0,0-1.5-.2.781.781,0,0,0,.4.4,6.931,6.931,0,0,1-1.2,2.6v.2c.7.2,3.2.7,3.9.2l.4-.1A6.985,6.985,0,0,1,154.2,108.1Zm-1-13a5.274,5.274,0,0,1-1.2.3c.1.1.3,0,.5.1,1.2.3.8.1,2.1,0A2.735,2.735,0,0,0,153.2,95.1Zm-1.9,11.1a9.226,9.226,0,0,0-3.7-.5,5.437,5.437,0,0,0,1.8,3.3c.6-.9.9-1.2,1.9-2.8Zm1.4-2.1h.2c.2,0,.3,0,.4.2l.1.1a1.6,1.6,0,0,1,.7.9v.1l.1-.1a1.545,1.545,0,0,0-.9-1.6,2.2,2.2,0,0,0-.8-.1c-.6.2-.8.4-.8.7v.3h0a1.389,1.389,0,0,1,1-.5ZM46.7,76.3h.2v.1C46.7,76.3,46.8,76.3,46.7,76.3ZM150.3,95.5h.2v.1c-.2-.1-.2,0-.2-.1Zm-2.2,2c.1.1.1.1.1.3l-.1.1H148v-.1c.1-.1.1-.1.1-.3Zm3.7,8.9h.2v.1C151.9,106.5,151.9,106.5,151.8,106.4Z" fill="#e6e7e8"/>
      <path id="Path_7374" data-name="Path 7374" d="M163.8,85.8l-.4-.1-.1-.3a18.753,18.753,0,0,0,0-2.4,29.838,29.838,0,0,1-.4-4.2c0-.7-.2-1.9.3-2.3l.1-.1V77a1.715,1.715,0,0,0,0,1.7c.4,1,1.9,1.2,2.1,2,.2.2,0,.7.1,1.1.3,1.4,0,5.6-.9,6-.1.1-.3-.8-.5-.8a1.421,1.421,0,0,1-.2-.6,1.759,1.759,0,0,1-.1-.6Zm-135-3.4a8.72,8.72,0,0,1-.3,3.2A14.86,14.86,0,0,1,26,91.2c-.3.4-1,.7-1.4,1.1-2.1,0-1.8-2.5-1.4-4,1.5-.6,2.2-2.2,3.1-3.4A29.489,29.489,0,0,1,28.8,82.4Zm41.5,2.7c0,3.7-2.2,5.2-4.4,6.6-.8.6-1.7,1.1-2.5,1.6a6.462,6.462,0,0,1-5.1-.3l-.8-.9.2-3.7c.2-.1.5-.4.7-.3a1.575,1.575,0,0,0,1.3.4A17.016,17.016,0,0,1,70.3,85.1Z" fill="#ff4612"/>
      <path id="Path_7375" data-name="Path 7375" d="M151.9,106.4a18.764,18.764,0,0,1-1.8,2.4c0,.2.1.2.2.3a.715.715,0,0,0,1.3,0,6.5,6.5,0,0,0,1.1-2.2C152.6,106.6,152.1,106.5,151.9,106.4Zm-62.6,2a13.315,13.315,0,0,0,1,2.8,1.231,1.231,0,0,0,1-.5c-.5-.9-1.1-1.8-1.7-2.7-.2.1-.3.2-.3.4Zm61.5-5.4c.1-.1.5-.2.6-.4-.6-.6-.6-1.9-1.4-2.3-.7.4-1.1.7-1.1.9.2.6,1.2,1.2,1.9,1.8Zm-63.5,4.4c-.1-.2-.3-.1-.3,0a6.136,6.136,0,0,0-1.7,1.9,1.1,1.1,0,0,0,.6,1l.3.2c.4-.1.7-1,1.1-1.7.1-.2.7-.7.5-1C87.6,107.6,87.4,107.6,87.3,107.4Zm-.6-5.6c-.1-.1-1,.5-1,.6.1.9.8,1.4,1.1,2.1.2.1.1,0,.2.1a1.012,1.012,0,0,0,.7-.4c.1-.2-.9-1.8-1-2.4Zm-.1,4.6h0c.1-1.3-1.9-1.3-2.7-1.3-.1.2.1.1,0,.2v1.5C84.1,107,84.6,106.5,86.6,106.4Zm5.3-3.9c-.3-.2-.2-.4-.7-.5-.6.6-1,1.6-1.6,2.2,0,.4,0,.5.2.6h.4a8.961,8.961,0,0,0,1.9-1.5.764.764,0,0,0-.2-.5Z" fill="#59595a"/>
      <path id="Path_7376" data-name="Path 7376" d="M95.9,104a7.741,7.741,0,0,0-.7-1.6c-1.2-1.9-3.5-2.5-6.7-2.5a10.621,10.621,0,0,0-1.9.4,6.455,6.455,0,0,0-3.4,3.1c-.1.6-.4,1.1-.5,1.7a5.705,5.705,0,0,0,4,7.1h.1c.5.2,1,0,1.6.2a6.93,6.93,0,0,0,3.2-.1,6.428,6.428,0,0,0,4.6-7.8A1.332,1.332,0,0,1,95.9,104Zm-1.3,2.9a4.529,4.529,0,0,1-.3,1.6,5.583,5.583,0,0,1-4,3.3H88.7a4.906,4.906,0,0,1-5.2-3.6,5.789,5.789,0,0,1-.3-3.2,6.365,6.365,0,0,1,3.9-4.1c.1,0,.3-.1.4-.1.2,0,.5-.1.7-.1.1,0,.1,0,.2-.1,2.7,0,4.4.5,5.5,2.1a6.7,6.7,0,0,1,.7,1.8,4.87,4.87,0,0,1,0,2.4Z" fill="#444"/>
      <path id="Path_7377" data-name="Path 7377" d="M94,104.9a7.173,7.173,0,0,0-2.9.6v.6c0,.3,2.5.3,2.9.1l.2-.2C94.1,105.7,94.1,105.3,94,104.9Zm61-4.5c-.2-.4-.8-.5-1.2-.6a9.172,9.172,0,0,0-.9,2.3c.1.5.4.4.7.6C154.2,102.1,155.2,100.5,155,100.4Zm-3.8,3.6a4.445,4.445,0,0,0-3-.2c-.1,0,0,.1-.1.1a1.275,1.275,0,0,0,0,1.2c1.3,0,2.1-.6,3.4-.6C151.3,104.3,151.3,104.1,151.2,104Zm-1.8-35.9c-.7-2.9-1.2-6.2-2.6-8.5h-.4l-.4.4a12.9,12.9,0,0,0,.8,2.8,49.4,49.4,0,0,1,1.8,7.6c.2,1,.2,3.8.6,4.4.2.5.5.4.9.2a13.843,13.843,0,0,0-.5-4.5Zm4.7,38.2a1.381,1.381,0,0,1-.4.3c.1,1,1.1,1.7,1.5,2.4.1.1.2.2.3.1a1.555,1.555,0,0,0,.8-.6C156.5,108.2,154.5,106.6,154.1,106.3Zm-32.4-28a4.791,4.791,0,0,0,4.4-1.4,9.2,9.2,0,0,0,.5-4.9c-.2-.8,0-1.8-.2-2.7-.1-1.1-.1-2.1-.1-3.2,0-1.3-.1-2.8-.1-4.2a7.757,7.757,0,0,0-.4-4c-.2-.3-.5-.5-.7-.8-.3-.4-.5-.9-1.1-1.1a24.319,24.319,0,0,0-4.7-.2c-.5.3-2.7,0-3.5.1a20.317,20.317,0,0,0-5.5.8,11.172,11.172,0,0,0-4.8,3.8c-.5.7-1.4,1.3-1.9,2a35.1,35.1,0,0,0-4.8,8.4c-.4.9-2.1,4-1.8,5.3a7.494,7.494,0,0,0,.5,1.6c.1.2.5.3.6.5.3.6.1,1,.6,1.3.5.4,1.4,0,1.8.3.1.1.2.4.3.4a10.179,10.179,0,0,0,3.5.3c2.6,0,5.6.3,6.2-1.8l8.1-.3a10.34,10.34,0,0,1,3.1-.2Zm-21.6.5a.844.844,0,0,1-.7-.2l-.3-.2V78l1-.1Zm9,.2-1.2.4h-3.8a3.673,3.673,0,0,1-1.8-.1c-1.2,0-1.1-.7-1.1-1.8a4.887,4.887,0,0,1,1.8-1.4c1-.3,2.9.2,3.7-.3H108a11.985,11.985,0,0,1,1.1,1.2c.2.3.2.7.4,1A2.994,2.994,0,0,1,109.1,79Zm8-1.5c-.9.2-2-.1-2.7.1-.9.2-2.4-.3-3.1.1h-.9l-.4-1.1a5.814,5.814,0,0,0-1.7-1.8,8.168,8.168,0,0,0-3.8.2c-.9.2-1.8-.1-2.5.3a14.309,14.309,0,0,0-1.5,1.1c-.1.1-.2.4-.4.5-.4.3-1.2,0-1.6.3-.6-.2-.8-1.2-.6-2a37.982,37.982,0,0,1,1.8-4.7,40.46,40.46,0,0,1,4.1-6.9c.6-.8,1.5-1.5,2-2.2a12.446,12.446,0,0,1,4.5-3.7,15.86,15.86,0,0,1,5.3-.8,12.917,12.917,0,0,0,3.4-.1,17.851,17.851,0,0,1,4,.1c1.9.1,1.8,2.8,1.8,4.9l.1,4.1a17.129,17.129,0,0,0,.1,3.2c.2.8,0,1.7.2,2.5a13.5,13.5,0,0,1-.1,4,10.907,10.907,0,0,1-.6,1.1c-1.8.9-4.8.2-7.4.8Zm38.6,4.4a5.359,5.359,0,0,0-1.1-.5h-3.8c-.2.3-.5.5-.7.8,0,1.7,1.6,1.5,3.2,1.5a3.673,3.673,0,0,0,1.8-.1c.7-.1.8-.6.8-1.4C155.8,82.1,155.7,82,155.7,81.9Zm-1,.7a7.393,7.393,0,0,1-3.3-.2h3.3v.2Z" fill="#444"/>
      <path id="Path_7378" data-name="Path 7378" d="M154.7,75.3c1.1-1.7-.5-4.6-.9-5.9l-.2-1.5a13.017,13.017,0,0,0-.8-1.7c-1.3-3.1-2.2-6.4-4.8-8.1a14.463,14.463,0,0,0-4.6-1.4l-2.4-.2c-.7-.2-1.8-.2-2.6-.4h-1.5a22.72,22.72,0,0,0-5.2-.3c-.2.1-.6,0-.9.1a4.069,4.069,0,0,0-1.9,1.3,8.558,8.558,0,0,0-.5,2.6c-.7,3.3.3,7,.3,10.2,0,2-.2,4.7.6,5.9A3.858,3.858,0,0,0,131,77a9.678,9.678,0,0,0,2.9.2,28.159,28.159,0,0,0,5.8-.2c.6-.1,1.5,0,1.9-.1,1.3-.3,2.8,0,4-.3C149.4,76.1,153,78,154.7,75.3Zm-7.3.4c-1.2.3-2.7,0-4,.3-.9.2-2-.1-3.1.2a16.951,16.951,0,0,0-2.2.1,14.21,14.21,0,0,1-4.6.1l-2-.1a3.805,3.805,0,0,1-1.3-.9,17.518,17.518,0,0,1-.4-4V69a26.39,26.39,0,0,1-.4-8.4,7.267,7.267,0,0,1,.4-2.5l.8-.8a2.016,2.016,0,0,0,1.1-.3,45.915,45.915,0,0,1,9.1.6h1.6a14.972,14.972,0,0,1,5,1.4c2,1.4,2.6,3.5,3.6,5.9a29.172,29.172,0,0,1,1.4,3.1l.2,1.4a12.522,12.522,0,0,1,1.1,5c-.4.4-.7,1-1.4,1.2Z" fill="#444"/>
      <path id="Path_7379" data-name="Path 7379" d="M166.6,93.6a7.945,7.945,0,0,0-.6-2.2c-.3-.5-.6-1-.9-1.6A8.489,8.489,0,0,1,166,86a12.6,12.6,0,0,0,.1-6.1,19.854,19.854,0,0,0-2.1-4.7c-.3-.4-.6-.7-.9-1.1-.3-.7-.3-1.3-.6-2s-.7-1.2-.9-1.8l-.4-1.8c-.2-.3-.5-.7-.7-1-.2-.4-.2-.9-.4-1.3-.5-1.2-.9-2.6-1.5-3.9a13.854,13.854,0,0,0-5-6c-2-1.2-4.9-1.7-7.4-2.4l-2.1-.4c-9.4-2.6-22.6-2-34.4-1.9l-8.6.3c-1.4.3-2.9,0-4.4.4-1.1.2-2.3.1-3.4.4-3.6.8-7.7.6-11.2,1.4-1.1.3-2.2-.1-3.4.3-2,.6-3.9,1.2-5.9,2a26.71,26.71,0,0,0-3.6,1.4A124.355,124.355,0,0,0,59,65c-.7.5-1.2,1.3-1.9,1.8-2.1,1.6-3.8,3.5-6,5A16.875,16.875,0,0,1,48,73.9a30.3,30.3,0,0,1-4.3,1.2c-1.1.3-2,.2-3,.5-6.3,2-12.5,3.7-15.8,8.5a19.854,19.854,0,0,0-2.1,4.7L22.5,90c-.1.3-.5.5-.6.7a12.445,12.445,0,0,0-1,2,31.874,31.874,0,0,0-.2,6.9c0,2.5,0,6.2,1.1,7.7a4.228,4.228,0,0,0,3.4,2.9,13.448,13.448,0,0,1,3.5.5h4.8c.1.1.4,1,.5,1.1a8.83,8.83,0,0,0,2.5,2.6,12.813,12.813,0,0,0,9.8.6,8.78,8.78,0,0,0,4.4-4.5l5.6-.1a27.262,27.262,0,0,0,5.7-.3c1.5-.3,3.3.2,4.7-.1,2.1-.5,5.2.4,6.5-.8.3.2.4,1,.6,1.4a22.687,22.687,0,0,0,1.8,2.5c1.8,2.3,5,2.7,8.4,3.4a17.6,17.6,0,0,0,4-.2c-.4-.2-2.2-.3-2.7-.5a13.69,13.69,0,0,1-4.9-3.3,19.235,19.235,0,0,1-1.8-3.1,8.949,8.949,0,0,1,.1-7,13.069,13.069,0,0,1,1.2-2.7,12.607,12.607,0,0,1,7.4-4.2,10.545,10.545,0,0,1,5,.3c.2.1.4.3.6.4,3,1.4,5,3,5.9,6.4a17.518,17.518,0,0,1,.4,4,6.473,6.473,0,0,0,.1,2.4,3.351,3.351,0,0,0,2.5,1.8,12.754,12.754,0,0,0,5.5,0c1.3-.3,2.7.1,4-.2h2.5a25.413,25.413,0,0,1,3.9-.1h7.4l5.9-.1a6.473,6.473,0,0,1,2.4.1h7.4a17.1,17.1,0,0,1,1.1,1.4,24.844,24.844,0,0,0,4,2.6,19.954,19.954,0,0,0,3.5.9c.6.2,1.5-.2,2,.1h1.1v-.1l-4-1.3c-.4-.2-1.2-.9-1.7-1.2a12.387,12.387,0,0,1-1.8-2.2c-.3-.4-.3-1-.7-1.3.2-.5.6-.7.8-1.1.1-.3.2-.6.3-1,.3-.8.7-1.8,1.1-2.6a20.48,20.48,0,0,0,.5-2.4c1-3.2,1.8-5.3,5-6.2a8.523,8.523,0,0,1,3.2-.3c.8.2,1.8.4,2.6.6a6.006,6.006,0,0,1,3.2,2.2,9.872,9.872,0,0,1,1.9,4c.4,1.5.1,3.6.8,4.7a2.471,2.471,0,0,0,2-1.4,5.675,5.675,0,0,0,1.2-1.8,22.943,22.943,0,0,0,.3-6.4Zm-1.4-12a8.222,8.222,0,0,1,.2,2.7l-1,2.9c-.5-.8-.2-2.1-.4-3.2-.2-.9,0-1.9-.3-2.9a19.077,19.077,0,0,1-.4-4.7C164.7,77.5,164.7,79.6,165.2,81.6Zm-113.3-9c.8-.6,1.5-1.3,2.3-1.9,1.5-1.2,2.8-2.8,4.3-4a117.614,117.614,0,0,1,9.8-7.2,22.7,22.7,0,0,1,5-1.7c.6-.2,1.5,0,2-.3,4.8.6,10.7-.4,15.2.6h4.7a11.374,11.374,0,0,1,4,1.1c.5,2-.6,3.1-1.3,4.4-.6,1.1-1.1,2.2-1.8,3.3a35.749,35.749,0,0,1-2.5,4.2l-1.1,1a7.28,7.28,0,0,1-1.7,1.8c-4.5,3-12.8,2.9-20.3,2.8a11.561,11.561,0,0,1,3.2-.8c1-.3,2-.5,3.1-.8,1.7-.4,3.7-.2,5.3-.5,1-.2,3.8.1,4.5-.3a.864.864,0,0,0,.6-.3.844.844,0,0,0-.2-.7,12.223,12.223,0,0,0-3.3.2l-2.5.1c-1.7.4-3.9.4-5.5.7-.4.1-.4-.2-.6-.3H69.8a30.955,30.955,0,0,1-4.3.2H64a43.665,43.665,0,0,1-4.8.8,24.905,24.905,0,0,0-3.7.9c-.7.2-1.6-.1-2.2.1-.3.1-.5.5-.8.6a5.385,5.385,0,0,1-2.8-.5,1.412,1.412,0,0,1-.5-1.5,18.9,18.9,0,0,1,2.7-2Zm15,4.1H56.8v-.1a55.8,55.8,0,0,1,6.9-1.3c1.1-.2,4.6.2,5.3-.2h3.1c-.3.2-.7.1-1.1.3a15.062,15.062,0,0,0-4.1,1.3ZM24.2,88a14.756,14.756,0,0,1,3.3-5.3c.2,0,.2,0,.3.1H28a13.163,13.163,0,0,1-1.5,6.7c-.3.6-.6,1.4-1.3,1.7-.3.2-.5.1-1,.1-1.1-1.2-.6-2,0-3.3Zm141.2,15.5a7.006,7.006,0,0,1-1.5,1.9c-.3-1.3-.6-2.6-.8-4a17.6,17.6,0,0,0-2.9-5.6,6.7,6.7,0,0,0-4-1.8,9.065,9.065,0,0,0-9,3c-.2.4-1.5,4.3-1.8,5.3-.1.5-1,3.3-1.3,4.2s-.4,1.7-1.1,2.2c-1.1.8-3.1.8-5,.8-2.9,0-5.9-.1-8.6,0,.2-2.3.2-4.5.2-6.8,0-5.3-.3-10-.3-15.4a33.2,33.2,0,0,0-.2-6.3c-.2-.9,0-1.9-.4-2.5a.76.76,0,0,0-.8-.6.52.52,0,0,1-.4.2c-.1.7.3.9.4,1.6a32.723,32.723,0,0,1,.4,5.4c0,5.5.2,10.6.2,15.9v7.2c-.1.5-.2.9-.3,1.4h-9.7a25.673,25.673,0,0,0-4.8.1l-4.5.1a15.484,15.484,0,0,0-2.1.1,12.912,12.912,0,0,1-4.8,0l-1.2-.1-1-.8a40.155,40.155,0,0,0-.2-4.9c-.9-4-2.2-6.6-5-8.7l-.8-.8a6.356,6.356,0,0,0-1.8-.6,7.637,7.637,0,0,0-4.7-.6c-.9.2-1.8,0-2.6.2a9.929,9.929,0,0,0-3.6,1.7,6.885,6.885,0,0,0-1.1,1.3,17.482,17.482,0,0,0-1.8,2.9c-1.7,4-2.5,8.5-7,9.7l-2.9.1a17.9,17.9,0,0,1-4,.2H62.3a37.6,37.6,0,0,1-6.7.3H53.2a25.413,25.413,0,0,1-3.9.1,24.44,24.44,0,0,1-4.7-.1,8.784,8.784,0,0,0-2.8.1h-3a22.623,22.623,0,0,1-4.5.2c-4.1,0-8.9.4-10.9-1.7a8.271,8.271,0,0,1-1.5-4.8c2.8-.4,2.2-5.6-.2-6.1,0-2.3-.2-4.6,1-5.7v-.1c.7.3,1.5,1.4,2.9.8,1.9-.8,2.7-4.9,3.3-7.3a6.96,6.96,0,0,0-.2-3.2,50.659,50.659,0,0,1,9.8-4.4c1.4-.5,2.8-.7,4.1-1.1l1.9-.3,3.6-1.1a2.878,2.878,0,0,0,.9,2.1c.8.2,1.7.4,2.5.6h1a44.5,44.5,0,0,0,7.3.1L74,77.7a51.814,51.814,0,0,0,10.4-.5c1.1-.1,2.2-.3,3.3-.5a16.214,16.214,0,0,0,8.4-7.5c.9-1.4,1.5-2.9,2.4-4.4a14.917,14.917,0,0,0,1.8-3,4.178,4.178,0,0,0-.2-3.1c-.7-1.1-2.7-1.1-4.2-1.5H94.8c-1.2-.3-2.9.2-4.2-.1-2.7-.6-6.5.1-9.3-.5-1.1-.2-3.4.4-4,0H75v-.1c1.2-.3,2.6-.8,3.8-1.1,1-.1,2-.2,3.1-.3,1.8-.4,3.9-.4,5.7-.8l1.8-.1c1.7-.4,3.8-.3,5.5-.7l1.7-.1c1.8-.4,4.1-.1,6-.5h2.5c1-.2,2.5.2,3.6-.1a20.617,20.617,0,0,1,4.3-.1h8.5c8.8,0,16.6.3,23.4,2.1l1.4.2q2.85.75,5.7,1.8a5.638,5.638,0,0,1,1.2.4A6.173,6.173,0,0,1,155,59a25.6,25.6,0,0,1,2,2.6,66.226,66.226,0,0,1,2.4,6.2c.2.5.7.9.9,1.5l.4,1.6c.3.8.8,1.7,1.1,2.6.3.7.3,1.6.9,2-.8,1.5-.4,4.2,0,5.8.2.7,0,1.6.2,2.3.4,1.7.2,3.4.6,4.9.5,1.8,1.6,3.3,2.1,5.2v2.8c0,1.7.3,5.7-.2,7ZM21.7,102.2V98.3c.3.1.3.2.5.4a7.457,7.457,0,0,1,.4,2.6c-.3.3-.3.6-.8.8v.1Z" fill="#444"/>
      <path id="Path_7380" data-name="Path 7380" d="M65.7,83.1c-.4.3-2.3.4-2.9.7-2.3,1-4.7,2.4-5.6,4.8a4.357,4.357,0,0,0,.8,4.5,6.973,6.973,0,0,0,5.3.6c2.8-.9,5.7-2.8,6.9-5.4a6.279,6.279,0,0,0,.3-1.9C70.4,83.9,68.4,83.1,65.7,83.1Zm3.7,4.4c-.6,2.4-3.7,4.3-6,5.1-1.6.6-4.4.4-5.2-.8-.6-.9,0-2.7.4-3.3a9.287,9.287,0,0,1,4.9-3.8c.5-.2,1.4-.3,1.8-.5a6.252,6.252,0,0,1,3,.4c.4.2.7.7,1.1,1Zm53.5-4.2c-.3.2-.9,0-1.3.1a5.89,5.89,0,0,0-2.1.5,2.046,2.046,0,0,0,.1,1.7c1.6.4,5.9.4,7.1-.4.1-.2,0-.1.1-.2C126.8,82.9,124.9,83.2,122.9,83.3Zm.3,1.5h-2.8c.1-.2,0-.1.1-.2.2-.2,1.3,0,1.8-.3a12.173,12.173,0,0,1,3.3.1h.2c-.4.6-2.1.1-2.6.4ZM63.4,96.7c-1.1.8-1.8.8-2.4,2.3a3.36,3.36,0,0,0,1.6,4.5,3.591,3.591,0,0,0,2.7.1c1.6-.5,3.7-3.1,2.3-5.3a4.415,4.415,0,0,0-4.2-1.6Zm1.4,5.8c-2.1.6-3.5-1.2-2.8-3.2.3-.9.9-1.1,1.5-1.7,1.3,0,2.6.2,3.1,1,1.1,1.7-.7,3.6-1.8,3.9ZM36.9,89.7h5.4a13.129,13.129,0,0,0,2.8-.1c.5-.1,1.2,0,1.6-.1,1.2-.3,4.1.5,4.9,0a8.658,8.658,0,0,0,3.2-.2c0-.3,0-.6-.2-.7a8.6,8.6,0,0,0-1.6-.1c-1.3,0-6.8-.2-7.7,0-.8.2-8.5.1-8.5.1a20.083,20.083,0,0,0-2.5.1c-1,.2-2.7-.4-3.5.1h-.2a2.92,2.92,0,0,0,.2.9A31.065,31.065,0,0,0,36.9,89.7Zm121,14.2h-.2a5.019,5.019,0,0,0-1.2-.2,2.885,2.885,0,0,0-1.8.3v.5c1.1,0,2,.4,3.2.4a1.7,1.7,0,0,0,0-1Z" fill="#444"/>
      <path id="Path_7381" data-name="Path 7381" d="M153.4,98.3c-.4.3-1.7.2-2.3.4a6.424,6.424,0,0,0-3.8,3.6,6.229,6.229,0,0,0,3.5,8.1c.1,0,.1,0,.2.1a5.029,5.029,0,0,0,3.4.7c2.4-.5,4.7-1.6,5.5-3.6,2.1-5.3-1.6-9.4-6.5-9.3Zm5.4,8.9a5.672,5.672,0,0,1-7.2,2.8,6.915,6.915,0,0,1-1.9-1,6.592,6.592,0,0,1-1.9-6.9,5.936,5.936,0,0,1,3.5-3.1,10.621,10.621,0,0,0,1.9-.4,5.9,5.9,0,0,1,6.2,5.5,7.455,7.455,0,0,1-.6,3.1ZM53.3,94.4a7.24,7.24,0,0,0-1.9-1.1,20.667,20.667,0,0,0-4.3-.2H38.7a8.784,8.784,0,0,1-2.8.1,25.029,25.029,0,0,0-5.5.4c-2.8.8-2.9,4.8-3.6,7.7-.5,1.8-.2,3.9,1,4.7,1,.6,4.9.3,6.5.3h9.1a29.023,29.023,0,0,1,5.1.2c.9.2,2-.1,2.7.1H53c1.6,0,3.3.3,4-.8,1.3-1.7-.3-4.4-1-5.9C55.4,98.2,54.6,95.4,53.3,94.4Zm3.1,10.1a4.053,4.053,0,0,1-.5.9,15.063,15.063,0,0,1-3,.1,28.22,28.22,0,0,1-5.8-.3H35.5c-2.2,0-6.3.4-7.6-.4a4.986,4.986,0,0,1-.3-2.4c.5-2.2,1-7,2.9-7.6a12.58,12.58,0,0,1,4.3-.4,6.473,6.473,0,0,0,2.4-.1h10c1.6,0,3.6-.2,4.6.4,1.8,1.1,2.4,3.3,3.3,5.4.2.5.6,1.1.8,1.7l.3,1.2C56.2,103.2,56.6,104.1,56.4,104.5Z" fill="#444"/>
      <path id="Path_7382" data-name="Path 7382" d="M54.8,101.3a.783.783,0,0,0-.8.1,12.173,12.173,0,0,1-3.3-.1V98.7a16.2,16.2,0,0,0,2.2.1c.2-.2.5-.3.3-.6l-.1-.3a9.863,9.863,0,0,0-2.4-.3c0-1.3.2-2.2-.5-2.8-.2,0-.3,0-.4.2a7.673,7.673,0,0,0-.1,2.6l-3.5-.2a10.474,10.474,0,0,0-.5-3c-.1-.1-.1,0-.2-.1-.4,0-.4.1-.6.3a24.02,24.02,0,0,0,.3,2.8H41.6c-.1-.7.1-3.2-1-2.6h-.2a21.75,21.75,0,0,0,.1,2.6c-1.2,0-2.5.1-3.6.1.1-1.2.3-3.1-1-2.6a20.9,20.9,0,0,0-.1,2.5H32.5c0-.6.2-1.4-.1-1.8l-.3-.3a.864.864,0,0,0-.6.3l-.1,1.8a4.158,4.158,0,0,0-2.2.2c0,1.1,1,.9,2.1.9v2.8H29.1a1.381,1.381,0,0,1-.4.3,1.136,1.136,0,0,0,.3.8h2.4a2.161,2.161,0,0,0-.1,1.1c.1.3.3.5.6.3.4-.2.5-.7.4-1.3l.1-.1h3a3.673,3.673,0,0,0,.1,1.8c.1.3.3.5.6.3l.3-.1a12.1,12.1,0,0,0,.1-1.9h3.8c0,.7-.2,2,.1,2.3l.1.2a1.135,1.135,0,0,0,.8-.3l.1-2.2h4.1a4.454,4.454,0,0,0,.3,2.3,1.135,1.135,0,0,0,.8-.3v-2l3.2-.1V104l.3.3a1.445,1.445,0,0,0,.7-.2,10.869,10.869,0,0,0,.1-1.8,18.8,18.8,0,0,0,4.1-.2.638.638,0,0,0,0-.6Zm-19.2.1H32.3a26.2,26.2,0,0,0,.1-2.8l3.3-.1Zm4.7,0H36.6l.1-2.9h3.7A27.148,27.148,0,0,1,40.3,101.4Zm5,0H41.5V98.5h3.7C45.2,99.5,45.3,100.4,45.3,101.4Zm4.4-.1a1.7,1.7,0,0,0-.7.1,5.66,5.66,0,0,1-2.6-.3l-.1-2.6a2.462,2.462,0,0,1,1.2.1,8.129,8.129,0,0,1,2.2.1Z" fill="#444"/>
    </g>
  </g>
</svg>
