<svg xmlns="http://www.w3.org/2000/svg" width="116" height="104.371" viewBox="0 0 116 104.371">
  <g id="icon_1" data-name="icon 1" transform="translate(-33.862 -2350)">
    <path id="rectttt" d="M0,0H114.638V103H0Z" transform="translate(34.362 2351)" fill="none"/>
    <g id="_001-car-accident-1" data-name="001-car-accident-1" transform="translate(34.362 2351)">
      <path id="Path_7263" data-name="Path 7263" d="M85.044,365.625h-.761a2.283,2.283,0,1,0,0,4.567h.761a2.283,2.283,0,1,0,0-4.567Zm0,0" transform="translate(-63.597 -283.564)" stroke="#fff" stroke-width="2"/>
      <path id="Path_7264" data-name="Path 7264" d="M114.73,283.216l-8.535-16.057a2.241,2.241,0,0,0-1.976-1.2H75.394a2.24,2.24,0,0,0-1.928,1.112l-9.218,15.69L57.5,288.106l-6.748-5.343-9.218-15.69a2.239,2.239,0,0,0-1.928-1.112H10.781a2.241,2.241,0,0,0-1.976,1.2L.27,283.216A2.314,2.314,0,0,0,0,284.3v16.831a2.265,2.265,0,0,0,2.246,2.283h1.2a8.5,8.5,0,0,0,16.466,0H34.817a8.5,8.5,0,0,0,16.466,0h4.191a4.191,4.191,0,0,0,2.026-.521,4.189,4.189,0,0,0,2.026.521h4.19a8.5,8.5,0,0,0,16.467,0H95.091a8.5,8.5,0,0,0,16.467,0h1.2A2.265,2.265,0,0,0,115,301.132V284.3a2.314,2.314,0,0,0-.27-1.085Zm-11.405,9.24a8.572,8.572,0,0,0-8.232,6.393H89.245V286.584h21.262v9.871a8.5,8.5,0,0,0-7.183-4Zm5.663-10.438H89.245v-11.49H102.88Zm-32.318-11.49h8.084v11.49H69.917ZM55.254,292.516v6.333H51.283a8.5,8.5,0,0,0-16.466,0H30.248V286.584H48.268l6.676,5.286a.818.818,0,0,1,.31.645Zm-43.579-.06a8.5,8.5,0,0,0-7.183,4v-9.871H25.755v12.265H19.908a8.573,8.573,0,0,0-8.233-6.393Zm33.407-10.438H30.247v-11.49h8.084Zm-32.961-11.49H25.755v11.49H6.012Zm-.446,34.715a4.11,4.11,0,1,1,4.043-4.11,4.081,4.081,0,0,1-4.043,4.11Zm31.375,0a4.11,4.11,0,1,1,4.043-4.11A4.081,4.081,0,0,1,43.05,305.242Zm16.7-12.727a.817.817,0,0,1,.311-.645l6.675-5.286H84.752v12.265H80.183a8.5,8.5,0,0,0-16.466,0H59.746Zm12.2,12.727a4.11,4.11,0,1,1,4.043-4.11A4.081,4.081,0,0,1,71.949,305.242Zm31.375,0a4.11,4.11,0,1,1,4.043-4.11A4.082,4.082,0,0,1,103.325,305.242Zm0,0" transform="translate(0 -206.938)" stroke="#fff" stroke-width="1"/>
      <path id="Path_7265" data-name="Path 7265" d="M409.712,365.625h-.761a2.283,2.283,0,0,0,0,4.567h.761a2.283,2.283,0,1,0,0-4.567Zm0,0" transform="translate(-315.399 -283.564)" stroke="#fff" stroke-width="2"/>
      <path id="Path_7266" data-name="Path 7266" d="M89.25,15.435a5.579,5.579,0,0,0-.28,1.745,5.654,5.654,0,0,0,2.869,4.893,9.069,9.069,0,0,0,17.823-1.54A7.707,7.707,0,0,0,106.7,5.467,7.71,7.71,0,0,0,95.052,1.29a7.627,7.627,0,0,0-2.009-.268A7.705,7.705,0,0,0,89.25,15.435ZM93.042,5.59a3.1,3.1,0,0,1,1.406.337A2.283,2.283,0,0,0,97.1,5.5a3.139,3.139,0,0,1,5.368,2.212,3.154,3.154,0,0,1-.042.471,2.283,2.283,0,0,0,3.458,2.282,3.138,3.138,0,1,1,1.669,5.809l-.023,0-.14-.008a2.282,2.282,0,0,0-2.345,2.708,4.558,4.558,0,0,1,.083.848,4.5,4.5,0,0,1-8.98.412A2.284,2.284,0,0,0,94.357,18.2a1.046,1.046,0,0,1-.2-1.978,2.283,2.283,0,0,0-.935-4.366l-.086,0L93,11.868a3.139,3.139,0,0,1,.04-6.278Zm0,0" transform="translate(-66.278)" fill="#ff4612" stroke="#fff" stroke-width="2"/>
      <path id="Path_7267" data-name="Path 7267" d="M248.283,213.407a2.284,2.284,0,0,0,2.283-2.283v-12.34a2.283,2.283,0,1,0-4.567,0v12.34A2.284,2.284,0,0,0,248.283,213.407Zm0,0" transform="translate(-190.783 -152.505)" fill="#ff4612" stroke="#fff" stroke-width="2"/>
      <path id="Path_7268" data-name="Path 7268" d="M211.743,265.815l2.109,2.109a2.283,2.283,0,1,0,3.229-3.229l-2.109-2.109a2.283,2.283,0,1,0-3.229,3.229Zm0,0" transform="translate(-163.713 -203.155)" fill="#ff4612" stroke="#fff" stroke-width="2"/>
      <path id="Path_7269" data-name="Path 7269" d="M274.465,262.587l-2.109,2.11a2.283,2.283,0,1,0,3.229,3.229l2.109-2.11a2.283,2.283,0,0,0-3.229-3.229Zm0,0" transform="translate(-210.725 -203.155)" fill="#ff4612" stroke="#fff" stroke-width="2"/>
      <path id="Path_7270" data-name="Path 7270" d="M270.053,69.49A9.61,9.61,0,0,0,287.8,73.938a8.5,8.5,0,0,0,7.724-14.4,8.139,8.139,0,0,0-9.9-10.492,8.143,8.143,0,0,0-12.411,4.512,8.139,8.139,0,0,0-3.16,15.929Zm2.137-11.427a3.554,3.554,0,0,1,1.87.536,2.284,2.284,0,0,0,3.459-2.282,3.62,3.62,0,0,1-.047-.537,3.572,3.572,0,0,1,6.107-2.516,2.283,2.283,0,0,0,2.647.432,3.535,3.535,0,0,1,1.6-.384,3.571,3.571,0,0,1,2.942,5.6,2.283,2.283,0,0,0,.751,3.284,3.939,3.939,0,0,1-1.94,7.366,3.886,3.886,0,0,1-1.876-.475,2.284,2.284,0,0,0-3.264,1.31,5.038,5.038,0,0,1-9.747-2.49,2.284,2.284,0,0,0-2.243-2.711c-.033,0-.067,0-.1,0l-.153.009-.029,0a3.573,3.573,0,0,1,.023-7.145Zm0,0" transform="translate(-205.146 -36.763)" fill="#ff4612" stroke="#fff" stroke-width="2"/>
      <path id="Path_7271" data-name="Path 7271" d="M248.283,156.067a2.284,2.284,0,1,0-1.614-.669A2.3,2.3,0,0,0,248.283,156.067Zm0,0" transform="translate(-190.783 -117.497)" fill="#ff4612" stroke="#fff" stroke-width="2"/>
    </g>
  </g>
</svg>
