<svg xmlns="http://www.w3.org/2000/svg" width="114.64" height="103" viewBox="0 0 114.64 103">
  <g id="icon_4" data-name="icon 4" transform="translate(-1654 -2359)">
    <path id="rect" d="M0,0H114.64V103H0Z" transform="translate(1654 2359)" fill="none"/>
    <g id="Group_6472" data-name="Group 6472" transform="translate(4003.03 3483.631)">
      <path id="Path_7325" data-name="Path 7325" d="M-2259.8-1038.389a9.843,9.843,0,0,1-15.932,0,9.791,9.791,0,0,1-7.944,4.06,9.681,9.681,0,0,1-7.984-4.054,9.719,9.719,0,0,1-7.972,4.053,9.729,9.729,0,0,1-7.944-4.059,9.741,9.741,0,0,1-7.961,4.061,9.744,9.744,0,0,1-7.976-4.051c-.135.166-.257.32-.385.469a9.754,9.754,0,0,1-7.443,3.586c-.642.015-1.026-.423-.858-.958a.783.783,0,0,1,.853-.549,8.4,8.4,0,0,0,3.036-.633.637.637,0,0,0,.48-.7c-.018-3.345-.067-6.691,0-10.034a9.459,9.459,0,0,1,5.868-8.942,8.252,8.252,0,0,1,3.542-.748h.494c.156-.875.312-1.733.462-2.593.469-2.683.9-5.373,1.413-8.047a7.572,7.572,0,0,1,6.049-6.011,15.431,15.431,0,0,1,2.712-.12q16.638-.011,33.276,0a7.288,7.288,0,0,1,6.125,3.311,10.513,10.513,0,0,1,1.563,4.651c.5,2.914,1.019,5.826,1.535,8.766.55.043,1.1.062,1.649.133a9.523,9.523,0,0,1,8.163,8.392c.152,1.733.086,3.487.1,5.231q.019,3.191-.006,6.381c0,.307.087.466.379.518.847.149,1.691.329,2.543.436.663.083,1.039.559.777,1.1a.779.779,0,0,1-.8.422,9.663,9.663,0,0,1-3.386-.666A10,10,0,0,1-2259.8-1038.389Zm-66.524.764a9.886,9.886,0,0,0,2.039-2.393c.48-.8,1.074-.779,1.556.026a7.961,7.961,0,0,0,6.57,4.132,8.048,8.048,0,0,0,7.816-4.177c.449-.737,1.083-.742,1.519,0a8.316,8.316,0,0,0,3.643,3.391c.365.173.748.308,1.195.49,0-.682.033-1.28-.006-1.873a2.435,2.435,0,0,1,2.562-2.581c5.4.048,10.8.021,16.195.018a2.3,2.3,0,0,1,2.5,2.52c0,.535,0,1.07,0,1.667.206-.078.343-.12.471-.179a8.581,8.581,0,0,0,3.746-3.411c.5-.825,1.1-.82,1.58.017a8.271,8.271,0,0,0,14.364-.034c.46-.791,1.041-.75,1.578,0a28.863,28.863,0,0,0,1.874,2.254,4.315,4.315,0,0,0,.711.524c.017-.153.026-.2.026-.239,0-3.3.06-6.6-.016-9.9a7.941,7.941,0,0,0-3.944-6.858,8.348,8.348,0,0,0-4.885-1.161c-.632.022-.877-.2-.984-.816q-.849-4.889-1.7-9.779a8.118,8.118,0,0,0-.831-2.895,6.156,6.156,0,0,0-5.661-3.268c-11.031.042-22.063.018-33.094.018-.468,0-.936,0-1.4,0a5.913,5.913,0,0,0-5.552,4.518c-.584,2.611-.964,5.267-1.432,7.9-.213,1.2-.418,2.395-.635,3.59a.777.777,0,0,1-.874.735c-.293,0-.587,0-.88,0a8.141,8.141,0,0,0-8.056,8.135q0,4.269,0,8.537C-2326.325-1038.393-2326.325-1038.074-2326.325-1037.625Zm36.122-1.465a1.422,1.422,0,0,0,.106.2,8.038,8.038,0,0,0,7.566,2.959.446.446,0,0,0,.279-.323c.028-.6.016-1.2.013-1.8,0-.755-.277-1.033-1.03-1.033q-3.274,0-6.548,0Zm-2.918,0h-6.337a2.347,2.347,0,0,0-.264,0,.742.742,0,0,0-.737.69c-.043.828-.013,1.66-.013,2.478C-2298.163-1035.375-2294.451-1036.968-2293.121-1039.089Z" transform="translate(-0.004)" stroke="#000" stroke-width="1.5"/>
      <path id="Path_7326" data-name="Path 7326" d="M-2259.785-699.981a9.9,9.9,0,0,1-15.963.006,9.72,9.72,0,0,1-7.964,4.045,9.664,9.664,0,0,1-7.952-4.064,9.728,9.728,0,0,1-7.957,4.064,9.646,9.646,0,0,1-7.958-4.044,9.886,9.886,0,0,1-15.949,0c-.248.292-.483.589-.739.864a9.79,9.79,0,0,1-7.05,3.2.8.8,0,0,1-.929-.723c-.023-.485.323-.791.938-.81a8.106,8.106,0,0,0,6.228-3.05,10.672,10.672,0,0,0,.819-1.195.8.8,0,0,1,1.483.01,8.037,8.037,0,0,0,7.755,4.207,8.006,8.006,0,0,0,6.5-3.879,2.728,2.728,0,0,0,.156-.265.861.861,0,0,1,.793-.595c.411.008.594.3.778.619a8.13,8.13,0,0,0,3.583,3.333,8.274,8.274,0,0,0,10.717-3.262c.038-.063.073-.128.11-.19a.78.78,0,0,1,1.466.021,8.044,8.044,0,0,0,5.906,4.138,8.232,8.232,0,0,0,8.385-3.87c.062-.1.116-.2.179-.3a.774.774,0,0,1,1.445.012,8.051,8.051,0,0,0,8,4.226,8.031,8.031,0,0,0,6.25-3.838c.049-.073.094-.149.138-.225.533-.906,1.084-.9,1.64,0a8.149,8.149,0,0,0,6.907,4.109,1.367,1.367,0,0,1,.695.2.664.664,0,0,1,.213.829.749.749,0,0,1-.846.486,16.033,16.033,0,0,1-2.129-.286A9.676,9.676,0,0,1-2259.785-699.981Z" transform="translate(0 -327.803)" fill="#ff4612" stroke="#ff4612" stroke-width="1.5"/>
      <path id="Path_7327" data-name="Path 7327" d="M-2156.6-1035.023q-10.87,0-21.739,0a2.613,2.613,0,0,1-.655-.043.749.749,0,0,1-.486-.919c.359-2.092.711-4.186,1.1-6.273a8.235,8.235,0,0,1,.554-2.11,4.289,4.289,0,0,1,4.107-2.633c11.427.01,22.853.031,34.28-.017a4.682,4.682,0,0,1,4.565,3.849c.43,2.331.82,4.671,1.222,7.008.14.816-.143,1.14-.985,1.14Zm21.3-1.52a1.588,1.588,0,0,0,0-.224c-.37-2.1-.7-4.217-1.126-6.309a2.927,2.927,0,0,0-3.069-2.412c-11.367,0-22.734.02-34.1-.023a3.225,3.225,0,0,0-3.163,2.614q-.454,2.573-.895,5.149c-.068.394-.127.789-.193,1.2Z" transform="translate(-134.806 -23.515)" stroke="#000" stroke-width="0.5"/>
      <path id="Path_7328" data-name="Path 7328" d="M-2259.438-851.516q-3.167,0-6.334,0a2.36,2.36,0,0,1-2.489-2.434q-.027-1.165,0-2.331a2.367,2.367,0,0,1,2.456-2.434q6.422-.015,12.844,0a2.381,2.381,0,0,1,2.426,2.424q.007,1.187,0,2.375a2.36,2.36,0,0,1-2.389,2.4C-2255.1-851.509-2257.268-851.515-2259.438-851.516Zm.029-1.506v0q3.167,0,6.334,0a.925.925,0,0,0,1.037-1.027c.008-.66,0-1.319,0-1.979,0-.879-.307-1.183-1.195-1.183h-6.465c-1.979,0-3.958,0-5.938,0-.8,0-1.114.312-1.115,1.073q0,1.011,0,2.023c0,.77.32,1.09,1.094,1.09Z" transform="translate(-56.455 -189.69)" stroke="#000" stroke-width="1.5"/>
      <path id="Path_7329" data-name="Path 7329" d="M-1861.024-851.53q-3.19,0-6.379,0a2.4,2.4,0,0,1-2.517-2.512c-.006-.718,0-1.437,0-2.156a2.421,2.421,0,0,1,2.545-2.539q6.093-.006,12.186,0c.22,0,.44-.009.66,0a2.272,2.272,0,0,1,2.291,2.024,15.969,15.969,0,0,1-.012,3.238,2.238,2.238,0,0,1-2.305,1.941C-1856.712-851.525-1858.868-851.531-1861.024-851.53Zm-.017-1.5q3.145,0,6.291,0c.737,0,1.065-.341,1.066-1.083,0-.674,0-1.349,0-2.023,0-.736-.329-1.077-1.072-1.077q-6.291-.007-12.582,0a.929.929,0,0,0-1.069,1.042c-.011.689,0,1.378,0,2.067.008.766.336,1.08,1.115,1.08Z" transform="translate(-408.011 -189.674)" stroke="#000" stroke-width="1.5"/>
    </g>
  </g>
</svg>
