<svg xmlns="http://www.w3.org/2000/svg" width="114.64" height="103" viewBox="0 0 114.64 103">
  <g id="icon_5" data-name="icon 5" transform="translate(-1443 -2477)">
    <path id="rect" d="M0,0H114.64V103H0Z" transform="translate(1443 2477)" fill="none"/>
    <g id="Group_6466" data-name="Group 6466" transform="translate(3792.084 3601.665)" opacity="0.28">
      <path id="Path_7325" data-name="Path 7325" d="M-2259.9-1038.436a9.829,9.829,0,0,1-15.911,0,9.778,9.778,0,0,1-7.933,4.054,9.668,9.668,0,0,1-7.973-4.049,9.706,9.706,0,0,1-7.961,4.048,9.716,9.716,0,0,1-7.934-4.054,9.728,9.728,0,0,1-7.951,4.055,9.732,9.732,0,0,1-7.965-4.045c-.135.165-.257.32-.385.468a9.742,9.742,0,0,1-7.434,3.581c-.641.015-1.024-.422-.857-.956a.782.782,0,0,1,.852-.548,8.384,8.384,0,0,0,3.032-.632.636.636,0,0,0,.479-.7c-.018-3.34-.067-6.682,0-10.021a9.447,9.447,0,0,1,5.861-8.93,8.242,8.242,0,0,1,3.537-.747h.494c.156-.874.311-1.731.461-2.589.468-2.679.9-5.365,1.411-8.036a7.562,7.562,0,0,1,6.041-6,15.413,15.413,0,0,1,2.709-.12q16.616-.011,33.231,0a7.279,7.279,0,0,1,6.117,3.306,10.5,10.5,0,0,1,1.561,4.645c.5,2.911,1.018,5.818,1.532,8.754.55.043,1.1.062,1.646.133a9.511,9.511,0,0,1,8.153,8.381c.152,1.731.086,3.482.1,5.224q.019,3.186-.006,6.373c0,.306.087.466.379.517.846.149,1.688.328,2.54.435.662.083,1.037.558.776,1.1a.777.777,0,0,1-.8.422,9.652,9.652,0,0,1-3.382-.666A9.986,9.986,0,0,1-2259.9-1038.436Zm-66.436.763a9.876,9.876,0,0,0,2.036-2.39c.479-.8,1.072-.778,1.554.026a7.95,7.95,0,0,0,6.561,4.126,8.037,8.037,0,0,0,7.806-4.172c.448-.736,1.082-.741,1.517,0a8.306,8.306,0,0,0,3.639,3.387c.364.173.746.308,1.193.49,0-.681.033-1.278-.006-1.87a2.432,2.432,0,0,1,2.559-2.577c5.391.048,10.782.021,16.173.018a2.3,2.3,0,0,1,2.5,2.516c0,.534,0,1.069,0,1.665.206-.078.342-.12.47-.179a8.57,8.57,0,0,0,3.741-3.407c.5-.824,1.094-.819,1.578.017a8.26,8.26,0,0,0,14.345-.034c.459-.79,1.04-.749,1.576,0a28.787,28.787,0,0,0,1.871,2.251,4.3,4.3,0,0,0,.71.524c.017-.153.026-.2.026-.239,0-3.3.06-6.594-.016-9.888a7.931,7.931,0,0,0-3.939-6.848,8.337,8.337,0,0,0-4.878-1.159c-.631.022-.876-.2-.983-.815q-.848-4.883-1.693-9.766a8.106,8.106,0,0,0-.83-2.891,6.148,6.148,0,0,0-5.653-3.264c-11.016.042-22.033.018-33.05.018-.468,0-.935,0-1.4,0a5.905,5.905,0,0,0-5.545,4.512c-.583,2.607-.963,5.26-1.43,7.893-.212,1.2-.417,2.391-.634,3.585a.776.776,0,0,1-.872.734c-.293,0-.586,0-.879,0a8.131,8.131,0,0,0-8.045,8.125q0,4.263,0,8.526C-2326.333-1038.44-2326.333-1038.122-2326.333-1037.673Zm36.074-1.464a1.415,1.415,0,0,0,.106.2,8.026,8.026,0,0,0,7.556,2.956.446.446,0,0,0,.279-.323c.028-.6.016-1.2.013-1.8,0-.754-.277-1.031-1.029-1.032q-3.269,0-6.539,0Zm-2.914,0h-6.329a2.368,2.368,0,0,0-.263,0,.741.741,0,0,0-.736.689c-.043.827-.013,1.657-.013,2.475C-2298.208-1035.426-2294.5-1037.016-2293.173-1039.135Z" transform="translate(-0.005)" stroke="#000" stroke-width="1.5"/>
      <path id="Path_7326" data-name="Path 7326" d="M-2259.881-699.984a9.887,9.887,0,0,1-15.941.006,9.707,9.707,0,0,1-7.953,4.04,9.651,9.651,0,0,1-7.941-4.059,9.715,9.715,0,0,1-7.946,4.059,9.633,9.633,0,0,1-7.948-4.038,9.872,9.872,0,0,1-15.927,0c-.248.291-.482.588-.738.863a9.778,9.778,0,0,1-7.04,3.191.8.8,0,0,1-.927-.722c-.023-.485.322-.79.937-.809a8.1,8.1,0,0,0,6.219-3.046,10.65,10.65,0,0,0,.818-1.193.8.8,0,0,1,1.481.01,8.027,8.027,0,0,0,7.745,4.2,8,8,0,0,0,6.488-3.874,2.724,2.724,0,0,0,.156-.265.86.86,0,0,1,.792-.594c.411.008.593.3.777.618a8.119,8.119,0,0,0,3.579,3.328,8.263,8.263,0,0,0,10.7-3.258c.038-.063.072-.127.11-.19a.779.779,0,0,1,1.464.021,8.033,8.033,0,0,0,5.9,4.132,8.221,8.221,0,0,0,8.374-3.865c.062-.1.116-.2.179-.3a.773.773,0,0,1,1.443.012,8.041,8.041,0,0,0,7.987,4.221,8.02,8.02,0,0,0,6.242-3.832c.049-.073.094-.149.138-.224.533-.9,1.083-.9,1.638,0a8.138,8.138,0,0,0,6.9,4.1,1.365,1.365,0,0,1,.694.2.663.663,0,0,1,.212.828.748.748,0,0,1-.845.485,16.018,16.018,0,0,1-2.127-.285A9.663,9.663,0,0,1-2259.881-699.984Z" transform="translate(0 -327.861)" fill="#ff4612" stroke="#ff4612" stroke-width="1.5"/>
      <path id="Path_7327" data-name="Path 7327" d="M-2156.63-1035.039q-10.855,0-21.71,0a2.605,2.605,0,0,1-.654-.043.748.748,0,0,1-.486-.917c.359-2.089.71-4.18,1.094-6.265a8.234,8.234,0,0,1,.553-2.107,4.283,4.283,0,0,1,4.1-2.63c11.411.01,22.823.031,34.235-.017a4.676,4.676,0,0,1,4.559,3.843c.43,2.328.819,4.665,1.221,7,.14.815-.143,1.138-.984,1.138Zm21.276-1.518a1.583,1.583,0,0,0,0-.224c-.369-2.1-.7-4.212-1.125-6.3a2.924,2.924,0,0,0-3.065-2.408c-11.352,0-22.7.02-34.055-.023a3.221,3.221,0,0,0-3.158,2.611q-.454,2.57-.893,5.142c-.068.393-.127.788-.193,1.2Z" transform="translate(-134.829 -23.519)" stroke="#000" stroke-width="0.5"/>
      <path id="Path_7328" data-name="Path 7328" d="M-2259.45-851.525q-3.163,0-6.326,0a2.357,2.357,0,0,1-2.486-2.431q-.027-1.164,0-2.328a2.364,2.364,0,0,1,2.453-2.431q6.414-.014,12.827,0a2.378,2.378,0,0,1,2.423,2.421q.007,1.186,0,2.372a2.357,2.357,0,0,1-2.386,2.4C-2255.115-851.518-2257.282-851.525-2259.45-851.525Zm.029-1.5v0q3.163,0,6.325,0a.924.924,0,0,0,1.036-1.025c.008-.659,0-1.318,0-1.976,0-.877-.307-1.181-1.193-1.182h-6.457c-1.977,0-3.953,0-5.93,0-.8,0-1.112.312-1.113,1.071q0,1.01,0,2.02c0,.769.32,1.088,1.093,1.089Z" transform="translate(-56.465 -189.723)" stroke="#000" stroke-width="1.5"/>
      <path id="Path_7329" data-name="Path 7329" d="M-1861.035-851.54q-3.185,0-6.371,0a2.4,2.4,0,0,1-2.514-2.508c-.006-.717,0-1.435,0-2.153a2.417,2.417,0,0,1,2.542-2.536q6.085-.006,12.17,0c.219,0,.44-.009.659,0a2.268,2.268,0,0,1,2.288,2.021,15.944,15.944,0,0,1-.012,3.234,2.235,2.235,0,0,1-2.3,1.939C-1856.73-851.534-1858.882-851.54-1861.035-851.54Zm-.017-1.5q3.141,0,6.283,0c.736,0,1.064-.341,1.065-1.081,0-.674,0-1.347,0-2.021,0-.735-.328-1.075-1.07-1.076q-6.283-.007-12.565,0a.928.928,0,0,0-1.067,1.041c-.011.688,0,1.376,0,2.064.008.765.336,1.078,1.114,1.078Z" transform="translate(-408.083 -189.708)" stroke="#000" stroke-width="1.5"/>
    </g>
  </g>
</svg>
