<svg xmlns="http://www.w3.org/2000/svg" width="114.64" height="103" viewBox="0 0 114.64 103">
  <g id="icon_3" data-name="icon 3" transform="translate(-1533 -2359)">
    <path id="rect" d="M0,0H114.64V103H0Z" transform="translate(1533 2359)" fill="none"/>
    <g id="Group_6464" data-name="Group 6464" transform="translate(1540.265 2385.656)">
      <g id="Path_7330" data-name="Path 7330" transform="translate(-1.799 -1.821)" fill="#ff4612">
        <path d="M 9.366641998291016 49.76269912719727 C 8.935321807861328 49.41160583496094 7.544867038726807 48.19284820556641 6.546864986419678 46.32836151123047 C 5.858695030212402 45.04269027709961 5.487985134124756 43.70203018188477 5.445034980773926 42.34362030029297 C 5.391264915466309 40.64266967773438 5.854084968566895 38.89810943603516 6.820655345916748 37.15840148925781 C 8.322495460510254 34.45529174804688 9.686514854431152 32.51209259033203 10.8748254776001 31.38278198242188 C 11.37669372558594 30.90583038330078 11.76245498657227 30.65834045410156 12.03676795959473 30.53068542480469 C 11.59424304962158 31.98721885681152 10.87042617797852 35.19001770019531 12.14347553253174 37.54796981811523 C 12.85708522796631 38.8697395324707 14.07979488372803 39.72014999389648 15.77763557434082 40.0755615234375 C 16.25760459899902 40.17604064941406 16.72841453552246 40.22698211669922 17.17699432373047 40.22698211669922 C 19.52190589904785 40.22698211669922 21.41473579406738 38.8466911315918 22.65085601806641 36.2353515625 C 23.55229568481445 34.33105087280273 23.78633499145508 32.45468139648438 23.79585456848145 32.375732421875 L 23.81171607971191 32.24423980712891 L 23.76039505004883 32.12213134765625 C 23.75005531311035 32.09744262695312 22.71403503417969 29.59269142150879 22.64876556396484 26.71322059631348 C 22.56661796569824 23.08981323242188 23.99515342712402 20.53711128234863 26.89647674560547 19.12002563476562 L 27.15010452270508 19.73788070678711 L 29.00723075866699 19.19148826599121 C 29.00258445739746 20.06056213378906 29.07445907592773 21.64118003845215 29.52764511108398 23.52942085266113 C 29.92653465270996 25.19149208068848 30.54034423828125 26.74802207946777 31.35200500488281 28.15577125549316 C 32.36879348754883 29.91929054260254 33.69948577880859 31.4514217376709 35.30711364746094 32.70960998535156 C 36.40328598022461 33.5675048828125 37.16399383544922 34.19514846801758 37.69174957275391 34.65328598022461 L 37.44277572631836 34.98054122924805 L 26.75327110290527 49.03799057006836 L 9.366641998291016 49.76269912719727 Z" stroke="none"/>
        <path d="M 27.04051399230957 19.60679244995117 C 24.38801574707031 20.93716430664062 23.07878494262695 23.31352615356445 23.14808464050293 26.67649078369141 C 23.20553588867188 29.46446990966797 24.21164512634277 31.90517044067383 24.22134590148926 31.92840957641602 L 24.3239860534668 32.17262268066406 L 24.29225540161133 32.43561172485352 C 24.28234481811523 32.51785278320312 24.03857421875 34.4724006652832 23.10278511047363 36.44927215576172 C 21.7780647277832 39.24777221679688 19.72896575927734 40.72698211669922 17.17699432373047 40.72698211669922 C 16.6940860748291 40.72698211669922 16.18880462646484 40.67247009277344 15.67519569396973 40.56494903564453 C 13.82657432556152 40.177978515625 12.49029541015625 39.24284362792969 11.70349502563477 37.7855110168457 C 10.66935729980469 35.87005615234375 10.86017227172852 33.46107482910156 11.2137565612793 31.74787902832031 C 10.34656143188477 32.57327651977539 9.036838531494141 34.19905853271484 7.257724761962891 37.40124130249023 C 5.600704193115234 40.38368225097656 5.504276275634766 43.29737091064453 6.971145629882812 46.06135177612305 C 7.837081909179688 47.69302749633789 9.023273468017578 48.8140869140625 9.538658142089844 49.25510025024414 L 26.49756813049316 48.54822158813477 L 37.00771331787109 34.72664260864258 C 36.52017974853516 34.31465911865234 35.86874389648438 33.78408050537109 34.99895477294922 33.10336303710938 C 33.340576171875 31.80545043945312 31.96782493591309 30.22487258911133 30.91884613037109 28.40552139282227 C 30.08319473266602 26.95617294311523 29.4515552520752 25.3548698425293 29.04144477844238 23.64611053466797 C 28.67656326293945 22.12577819824219 28.55268669128418 20.79423522949219 28.51869773864746 19.85641098022461 L 27.29122543334961 20.21755218505859 L 27.04051399230957 19.60679244995117 M 30.52872467041016 17.10503768920898 C 31.01784133911133 17.10497665405273 27.00897598266602 19.25821304321289 27.00897598266602 19.25821304321289 L 29.53155517578125 18.51603317260742 C 29.53155517578125 18.51603317260742 28.78972625732422 26.97397232055664 35.61527633666992 32.31586074829102 C 39.22843933105469 35.14363098144531 39.63988876342773 35.80913543701172 39.22687530517578 35.80913543701172 C 38.85967636108398 35.80913543701172 37.84077453613281 35.2831916809082 37.84077453613281 35.2831916809082 L 27.00897598266602 49.52777099609375 L 9.202896118164062 50.26996231079102 C 9.202896118164062 50.26996231079102 1.931896209716797 44.92806243896484 6.383586883544922 36.91557312011719 C 9.918800354003906 30.55261611938477 11.86309432983398 29.89742279052734 12.51375389099121 29.89733123779297 C 12.68243217468262 29.89730834960938 12.76404571533203 29.94131088256836 12.76404571533203 29.94131088256836 C 12.76404571533203 29.94131088256836 9.4996337890625 38.25053405761719 15.88008499145508 39.58617401123047 C 16.33922576904297 39.68228530883789 16.77157211303711 39.72698211669922 17.1769962310791 39.72698211669922 C 22.40555191040039 39.72698211669922 23.2994556427002 32.31586074829102 23.2994556427002 32.31586074829102 C 23.2994556427002 32.31586074829102 18.99647521972656 22.07752227783203 27.00897598266602 18.51603317260742 C 29.35393905639648 17.47371292114258 30.32635116577148 17.10506057739258 30.52872467041016 17.10503768920898 Z" stroke="none"/>
      </g>
      <path id="Path_7272" data-name="Path 7272" d="M89.918,45.969H84.293L73.9,32.983a7.954,7.954,0,0,0-6.24-3H40.243a7.965,7.965,0,0,0-4.2,1.192c-.2-.277-.4-.555-.625-.82-.583-.689-1.208-1.33-1.8-1.918l-.567-.564a15.761,15.761,0,0,1-3.756-4.741A5.6,5.6,0,0,1,30.571,16.8a1.6,1.6,0,0,0-1.216-2.792,12.078,12.078,0,0,0-8.312,4.655,11.784,11.784,0,0,0-2.383,7.545,23.039,23.039,0,0,0,.425,3.064c.659,3.581.7,5.149-1.515,6.247a4.33,4.33,0,0,1-5.016-1.17c-.918-1.1-.926-2.735-.03-5.464a1.6,1.6,0,0,0-2.47-1.777c-1.9,1.405-6.461,5.214-7.746,10.262a9.178,9.178,0,0,0,1.106,7.275A13.512,13.512,0,0,0,5.66,47.28,8,8,0,0,0,2,53.961V66.749a1.6,1.6,0,0,0,1.6,1.6H8.956a9.575,9.575,0,0,0,18.062,0H69.7a9.575,9.575,0,0,0,18.062,0h8.552a1.6,1.6,0,0,0,1.6-1.6V53.961a8,8,0,0,0-7.992-7.992ZM54.752,33.182H67.663a4.779,4.779,0,0,1,3.745,1.8L80.2,45.969H54.752ZM5.406,38.146a13.611,13.611,0,0,1,3.262-5.531,6.234,6.234,0,0,0,1.426,3.78,7.554,7.554,0,0,0,8.889,1.99c4.61-2.281,3.822-6.565,3.245-9.695a20.589,20.589,0,0,1-.374-2.637,8.577,8.577,0,0,1,4.1-7.6,9.1,9.1,0,0,0,.384,5.9A18.248,18.248,0,0,0,30.8,30.144l.556.553c.575.575,1.119,1.135,1.613,1.717.256.307.5.627.723.959l-10.078,12.6H9.868c-1.226,0-2.778-1.546-3.779-3.083A5.983,5.983,0,0,1,5.406,38.146Zm12.581,33.4a6.394,6.394,0,1,1,6.394-6.394A6.394,6.394,0,0,1,17.988,71.544Zm33.567-6.394H27.578a9.591,9.591,0,1,0-19.181,0H5.2V53.961a4.834,4.834,0,0,1,4.8-4.8h41.56Zm0-19.181H27.706L36.5,34.981a4.781,4.781,0,0,1,3.745-1.8H51.555ZM78.729,71.544a6.394,6.394,0,1,1,6.394-6.394A6.394,6.394,0,0,1,78.729,71.544Zm15.984-6.394H88.319a9.591,9.591,0,0,0-19.181,0H54.752V49.166H89.918a4.8,4.8,0,0,1,4.8,4.8Z" transform="translate(0 0)"/>
      <circle id="Ellipse_138" data-name="Ellipse 138" cx="3.5" cy="3.5" r="3.5" transform="translate(13.735 61.345)"/>
      <circle id="Ellipse_139" data-name="Ellipse 139" cx="3.5" cy="3.5" r="3.5" transform="translate(74.735 61.345)"/>
      <rect id="Rectangle_506" data-name="Rectangle 506" width="6" height="3" transform="translate(40.735 52.345)"/>
      <rect id="Rectangle_507" data-name="Rectangle 507" width="5" height="3" transform="translate(64.735 52.345)"/>
    </g>
  </g>
</svg>
