<svg xmlns="http://www.w3.org/2000/svg" width="114.64" height="103" viewBox="0 0 114.64 103">
  <g id="icon_6" data-name="icon 6" transform="translate(-1778 -2359)">
    <path id="rect" d="M0,0H114.64V103H0Z" transform="translate(1778 2359)" fill="none"/>
    <g id="Group_6467" data-name="Group 6467" transform="translate(443.467 -381.436)">
      <g id="Group_6365" data-name="Group 6365" transform="translate(1340 2812.364)">
        <path id="Path_7273" data-name="Path 7273" d="M51.516,58.538H1.612A1.609,1.609,0,0,1,0,56.928V37.606A1.609,1.609,0,0,1,1.612,36h49.9a1.61,1.61,0,1,1,0,3.22H3.222v16.1H51.516a1.61,1.61,0,0,1,0,3.22Z" transform="translate(-0.002 -35.996)"/>
      </g>
      <g id="Group_6366" data-name="Group 6366" transform="translate(1377.023 2831.686)">
        <path id="Path_7274" data-name="Path 7274" d="M37.487,57.663H24.606A1.609,1.609,0,0,1,23,56.053V49.606A1.609,1.609,0,0,1,24.606,48H37.487a1.609,1.609,0,0,1,1.61,1.61v6.447A1.609,1.609,0,0,1,37.487,57.663Zm-11.271-3.22h9.661V51.216H26.216Z" transform="translate(-22.996 -47.996)"/>
      </g>
      <g id="Group_6367" data-name="Group 6367" transform="translate(1340.003 2831.686)">
        <path id="Path_7275" data-name="Path 7275" d="M12.882,57.663H1.614A1.609,1.609,0,0,1,0,56.053V49.606A1.609,1.609,0,0,1,1.614,48H12.882a1.609,1.609,0,0,1,1.61,1.61v6.447A1.609,1.609,0,0,1,12.882,57.663Zm-9.658-3.22h8.047V51.216H3.224Z" transform="translate(-0.004 -47.996)"/>
      </g>
      <g id="Group_6368" data-name="Group 6368" transform="translate(1340 2805.93)">
        <path id="Path_7276" data-name="Path 7276" d="M1.612,41.654A1.61,1.61,0,0,1,.474,38.906L6.91,32.472a1.61,1.61,0,0,1,2.277,2.277L2.751,41.183a1.606,1.606,0,0,1-1.138.472Z" transform="translate(-0.002 -32)"/>
      </g>
      <g id="Group_6369" data-name="Group 6369" transform="translate(1383.469 2805.928)">
        <path id="Path_7277" data-name="Path 7277" d="M35.048,41.653a1.606,1.606,0,0,1-1.138-.472l-6.439-6.432a1.61,1.61,0,0,1,2.277-2.278L36.187,38.9a1.61,1.61,0,0,1-1.138,2.748Z" transform="translate(-26.999 -31.999)"/>
      </g>
      <g id="Group_6370" data-name="Group 6370" transform="translate(1378.638 2793.052)">
        <path id="Path_7278" data-name="Path 7278" d="M30.44,32.053a1.61,1.61,0,0,1-1.61-1.61,3.223,3.223,0,0,0-3.22-3.22,1.61,1.61,0,1,1,0-3.22,6.447,6.447,0,0,1,6.441,6.441A1.61,1.61,0,0,1,30.44,32.053Z" transform="translate(-23.999 -24.002)"/>
      </g>
      <g id="Group_6371" data-name="Group 6371" transform="translate(1346.436 2793.048)">
        <path id="Path_7279" data-name="Path 7279" d="M5.609,32.051A1.61,1.61,0,0,1,4,30.441,6.447,6.447,0,0,1,10.44,24a1.61,1.61,0,1,1,0,3.22,3.223,3.223,0,0,0-3.22,3.22,1.61,1.61,0,0,1-1.61,1.61Z" transform="translate(-3.999 -24)"/>
      </g>
      <g id="Group_6372" data-name="Group 6372" transform="translate(1383.469 2797.882)">
        <path id="Path_7280" data-name="Path 7280" d="M28.609,38.27A1.609,1.609,0,0,1,27,36.66V28.612a1.61,1.61,0,1,1,3.22,0V36.66A1.609,1.609,0,0,1,28.609,38.27Z" transform="translate(-26.999 -27.002)"/>
      </g>
      <g id="Group_6373" data-name="Group 6373" transform="translate(1351.266 2793.052)">
        <path id="Path_7281" data-name="Path 7281" d="M35.981,27.222H8.609a1.61,1.61,0,0,1,0-3.22H35.981a1.61,1.61,0,0,1,0,3.22Z" transform="translate(-6.999 -24.002)"/>
      </g>
      <g id="Group_6374" data-name="Group 6374" transform="translate(1346.436 2797.88)">
        <path id="Path_7282" data-name="Path 7282" d="M5.609,38.271A1.609,1.609,0,0,1,4,36.661V28.61a1.61,1.61,0,1,1,3.22,0v8.051A1.609,1.609,0,0,1,5.609,38.271Z" transform="translate(-3.999 -27)"/>
      </g>
      <g id="Group_6375" data-name="Group 6375" transform="translate(1346.436 2805.93)">
        <path id="Path_7283" data-name="Path 7283" d="M42.642,35.22H5.609a1.61,1.61,0,1,1,0-3.22H42.642a1.61,1.61,0,1,1,0,3.22Z" transform="translate(-3.999 -32)"/>
      </g>
      <g id="Group_6380" data-name="Group 6380" transform="translate(1346.441 2817.197)">
        <g id="Group_6376" data-name="Group 6376">
          <path id="Path_7284" data-name="Path 7284" d="M10.443,47.049A6.447,6.447,0,0,1,4,40.608a1.61,1.61,0,0,1,3.22,0,3.223,3.223,0,0,0,3.22,3.22,1.61,1.61,0,0,1,0,3.22Z" transform="translate(-4.002 -38.998)"/>
        </g>
        <g id="Group_6377" data-name="Group 6377" transform="translate(5.635)">
          <path id="Path_7285" data-name="Path 7285" d="M9.112,47.049a1.61,1.61,0,0,1,0-3.22.805.805,0,1,0,0-1.61,1.61,1.61,0,1,1,0-3.22,4.025,4.025,0,1,1,0,8.051Z" transform="translate(-7.502 -38.998)"/>
        </g>
        <g id="Group_6378" data-name="Group 6378" transform="translate(4.83 4.83)">
          <path id="Path_7286" data-name="Path 7286" d="M9.417,45.218H8.612a1.61,1.61,0,0,1,0-3.22h.805a1.61,1.61,0,0,1,0,3.22Z" transform="translate(-7.002 -41.998)"/>
        </g>
        <g id="Group_6379" data-name="Group 6379">
          <path id="Path_7287" data-name="Path 7287" d="M11.248,42.218H5.612a1.61,1.61,0,1,1,0-3.22h5.635a1.61,1.61,0,1,1,0,3.22Z" transform="translate(-4.002 -38.998)"/>
        </g>
      </g>
      <g id="Group_6385" data-name="Group 6385" transform="translate(1375.417 2817.197)">
        <g id="Group_6381" data-name="Group 6381" transform="translate(3.217)">
          <path id="Path_7288" data-name="Path 7288" d="M25.606,47.049a1.61,1.61,0,1,1,0-3.22,3.223,3.223,0,0,0,3.22-3.22,1.61,1.61,0,0,1,3.22,0A6.447,6.447,0,0,1,25.606,47.049Z" transform="translate(-23.996 -38.998)"/>
        </g>
        <g id="Group_6382" data-name="Group 6382">
          <path id="Path_7289" data-name="Path 7289" d="M26.023,47.049a4.025,4.025,0,0,1,0-8.051,1.61,1.61,0,1,1,0,3.22.805.805,0,0,0,0,1.61,1.61,1.61,0,1,1,0,3.22Z" transform="translate(-21.998 -38.998)"/>
        </g>
        <g id="Group_6383" data-name="Group 6383" transform="translate(2.415 4.83)">
          <path id="Path_7290" data-name="Path 7290" d="M25.91,45.218h-.8a1.61,1.61,0,0,1,0-3.22h.8a1.61,1.61,0,0,1,0,3.22Z" transform="translate(-23.498 -41.998)"/>
        </g>
        <g id="Group_6384" data-name="Group 6384" transform="translate(2.415)">
          <path id="Path_7291" data-name="Path 7291" d="M30.74,42.218H25.108a1.61,1.61,0,1,1,0-3.22H30.74a1.61,1.61,0,1,1,0,3.22Z" transform="translate(-23.498 -38.998)"/>
        </g>
      </g>
      <g id="Group_6386" data-name="Group 6386" transform="translate(1389.914 2812.364)">
        <path id="Path_7292" data-name="Path 7292" d="M82.52,58.538H32.612a1.61,1.61,0,1,1,0-3.22h48.3v-16.1h-48.3a1.61,1.61,0,1,1,0-3.22H82.52a1.609,1.609,0,0,1,1.61,1.61V56.928A1.609,1.609,0,0,1,82.52,58.538Z" transform="translate(-31.002 -35.996)"/>
      </g>
      <g id="Group_6387" data-name="Group 6387" transform="translate(1426.941 2831.686)">
        <path id="Path_7293" data-name="Path 7293" d="M68.489,57.663H55.608A1.609,1.609,0,0,1,54,56.053V49.606A1.609,1.609,0,0,1,55.608,48H68.489a1.609,1.609,0,0,1,1.61,1.61v6.447A1.609,1.609,0,0,1,68.489,57.663Zm-11.271-3.22h9.661V51.216H57.218Z" transform="translate(-53.998 -47.996)"/>
      </g>
      <g id="Group_6388" data-name="Group 6388" transform="translate(1389.918 2831.686)">
        <path id="Path_7294" data-name="Path 7294" d="M43.885,57.663H32.614A1.609,1.609,0,0,1,31,56.053V49.606A1.609,1.609,0,0,1,32.614,48H43.885a1.609,1.609,0,0,1,1.61,1.61v6.447A1.609,1.609,0,0,1,43.885,57.663Zm-9.661-3.22h8.051V51.216H34.224Z" transform="translate(-31.004 -47.996)"/>
      </g>
      <g id="Group_6389" data-name="Group 6389" transform="translate(1389.914 2805.928)">
        <path id="Path_7295" data-name="Path 7295" d="M32.612,41.655a1.61,1.61,0,0,1-1.138-2.748l6.439-6.436a1.61,1.61,0,0,1,2.277,2.277l-6.439,6.434A1.6,1.6,0,0,1,32.612,41.655Z" transform="translate(-31.002 -31.999)"/>
      </g>
      <g id="Group_6390" data-name="Group 6390" transform="translate(1433.385 2805.93)">
        <path id="Path_7296" data-name="Path 7296" d="M66.047,41.653a1.606,1.606,0,0,1-1.138-.472l-6.436-6.432a1.61,1.61,0,0,1,2.277-2.277l6.436,6.434a1.609,1.609,0,0,1-1.138,2.747Z" transform="translate(-58.001 -32)"/>
      </g>
      <g id="Group_6391" data-name="Group 6391" transform="translate(1428.556 2793.052)">
        <path id="Path_7297" data-name="Path 7297" d="M61.442,32.053a1.61,1.61,0,0,1-1.61-1.61,3.223,3.223,0,0,0-3.22-3.22,1.61,1.61,0,1,1,0-3.22,6.447,6.447,0,0,1,6.441,6.441A1.61,1.61,0,0,1,61.442,32.053Z" transform="translate(-55.001 -24.002)"/>
      </g>
      <g id="Group_6392" data-name="Group 6392" transform="translate(1396.353 2793.048)">
        <path id="Path_7298" data-name="Path 7298" d="M36.611,32.051A1.61,1.61,0,0,1,35,30.441,6.447,6.447,0,0,1,41.442,24a1.61,1.61,0,0,1,0,3.22,3.223,3.223,0,0,0-3.22,3.22A1.61,1.61,0,0,1,36.611,32.051Z" transform="translate(-35.001 -24)"/>
      </g>
      <g id="Group_6393" data-name="Group 6393" transform="translate(1433.386 2797.882)">
        <path id="Path_7299" data-name="Path 7299" d="M59.611,38.27A1.609,1.609,0,0,1,58,36.66V28.612a1.61,1.61,0,1,1,3.22,0V36.66A1.609,1.609,0,0,1,59.611,38.27Z" transform="translate(-58.001 -27.002)"/>
      </g>
      <g id="Group_6394" data-name="Group 6394" transform="translate(1401.184 2793.052)">
        <path id="Path_7300" data-name="Path 7300" d="M66.983,27.222H39.611a1.61,1.61,0,0,1,0-3.22H66.983a1.61,1.61,0,0,1,0,3.22Z" transform="translate(-38.001 -24.002)"/>
      </g>
      <g id="Group_6395" data-name="Group 6395" transform="translate(1396.353 2797.88)">
        <path id="Path_7301" data-name="Path 7301" d="M36.611,38.271A1.609,1.609,0,0,1,35,36.661V28.61a1.61,1.61,0,1,1,3.22,0v8.051A1.609,1.609,0,0,1,36.611,38.271Z" transform="translate(-35.001 -27)"/>
      </g>
      <g id="Group_6396" data-name="Group 6396" transform="translate(1396.353 2805.93)">
        <path id="Path_7302" data-name="Path 7302" d="M73.644,35.22H36.611a1.61,1.61,0,1,1,0-3.22H73.644a1.61,1.61,0,1,1,0,3.22Z" transform="translate(-35.001 -32)"/>
      </g>
      <g id="Group_6397" data-name="Group 6397" transform="translate(1400.38 2817.197)">
        <path id="Path_7303" data-name="Path 7303" d="M39.112,47.049a1.61,1.61,0,0,1,0-3.22.805.805,0,1,0,0-1.61,1.61,1.61,0,0,1,0-3.22,4.025,4.025,0,1,1,0,8.051Z" transform="translate(-37.502 -38.998)"/>
      </g>
      <g id="Group_6398" data-name="Group 6398" transform="translate(1397.965 2817.196)">
        <path id="Path_7304" data-name="Path 7304" d="M40.027,47.048a4.025,4.025,0,0,1,0-8.051,1.61,1.61,0,0,1,0,3.22.805.805,0,1,0,0,1.61,1.61,1.61,0,1,1,0,3.22Z" transform="translate(-36.002 -38.997)"/>
      </g>
      <g id="Group_6399" data-name="Group 6399" transform="translate(1429.391 2817.197)">
        <path id="Path_7305" data-name="Path 7305" d="M57.13,47.049a1.61,1.61,0,1,1,0-3.22.805.805,0,0,0,0-1.61,1.61,1.61,0,1,1,0-3.22,4.025,4.025,0,1,1,0,8.051Z" transform="translate(-55.52 -38.998)"/>
      </g>
      <g id="Group_6400" data-name="Group 6400" transform="translate(1426.976 2817.196)">
        <path id="Path_7306" data-name="Path 7306" d="M58.045,47.048a4.025,4.025,0,1,1,0-8.051,1.61,1.61,0,0,1,0,3.22.805.805,0,0,0,0,1.61,1.61,1.61,0,1,1,0,3.22Z" transform="translate(-54.02 -38.997)"/>
      </g>
      <g id="Group_6401" data-name="Group 6401" transform="translate(1389.911 2770.507)">
        <path id="Path_7307" data-name="Path 7307" d="M32.61,27.711A1.61,1.61,0,0,1,31,26.1V11.61a1.61,1.61,0,0,1,3.22,0V26.1A1.61,1.61,0,0,1,32.61,27.711Z" transform="translate(-31 -10)" fill="#ff4612"/>
      </g>
      <g id="Group_6402" data-name="Group 6402" transform="translate(1396.354 2778.692)">
        <path id="Path_7308" data-name="Path 7308" d="M36.612,26.22a1.61,1.61,0,0,1-1.138-2.748l7.915-7.915a1.61,1.61,0,1,1,2.277,2.277l-7.915,7.915A1.606,1.606,0,0,1,36.612,26.22Z" transform="translate(-35.002 -15.084)" fill="#ff4612"/>
      </g>
      <g id="Group_6403" data-name="Group 6403" transform="translate(1375.488 2778.692)">
        <path id="Path_7309" data-name="Path 7309" d="M31.569,26.22a1.606,1.606,0,0,1-1.138-.472l-7.915-7.915a1.61,1.61,0,0,1,2.277-2.277l7.915,7.915a1.61,1.61,0,0,1-1.138,2.748Z" transform="translate(-22.043 -15.084)" fill="#ff4612"/>
      </g>
      <g id="Group_6404" data-name="Group 6404" transform="translate(1388.35 2813.98)">
        <path id="Path_7310" data-name="Path 7310" d="M34.812,43.415a1.606,1.606,0,0,1-1.143-.477L30.5,39.744a1.61,1.61,0,1,1,2.286-2.267l3.17,3.194a1.61,1.61,0,0,1-1.143,2.744Z" transform="translate(-30.031 -37)"/>
      </g>
      <g id="Group_6405" data-name="Group 6405" transform="translate(1388.3 2817.176)">
        <path id="Path_7311" data-name="Path 7311" d="M31.61,45.45a1.61,1.61,0,0,1-1.143-2.744l3.22-3.246a1.61,1.61,0,0,1,2.286,2.267l-3.22,3.246a1.606,1.606,0,0,1-1.143.477Z" transform="translate(-30 -38.984)"/>
      </g>
      <g id="Group_6406" data-name="Group 6406" transform="translate(1388.35 2820.418)">
        <path id="Path_7312" data-name="Path 7312" d="M34.812,47.414a1.606,1.606,0,0,1-1.143-.477L30.5,43.743a1.61,1.61,0,1,1,2.286-2.267l3.17,3.194a1.61,1.61,0,0,1-1.143,2.744Z" transform="translate(-30.031 -40.998)"/>
      </g>
      <g id="Group_6407" data-name="Group 6407" transform="translate(1388.3 2823.614)">
        <path id="Path_7313" data-name="Path 7313" d="M31.61,49.449a1.61,1.61,0,0,1-1.143-2.744l3.22-3.246a1.61,1.61,0,0,1,2.286,2.267l-3.22,3.246a1.606,1.606,0,0,1-1.143.477Z" transform="translate(-30 -42.983)"/>
      </g>
      <g id="Group_6408" data-name="Group 6408" transform="translate(1388.35 2826.856)">
        <path id="Path_7314" data-name="Path 7314" d="M34.812,51.413a1.606,1.606,0,0,1-1.143-.477L30.5,47.742a1.61,1.61,0,1,1,2.286-2.267l3.17,3.194a1.61,1.61,0,0,1-1.143,2.744Z" transform="translate(-30.031 -44.997)"/>
      </g>
      <g id="Group_6409" data-name="Group 6409" transform="translate(1388.35 2812.395)">
        <path id="Path_7315" data-name="Path 7315" d="M31.641,40.821A1.61,1.61,0,0,1,30.5,38.073l1.584-1.586a1.61,1.61,0,0,1,2.277,2.277L32.78,40.35A1.606,1.606,0,0,1,31.641,40.821Z" transform="translate(-30.031 -36.015)"/>
      </g>
      <g id="Group_6410" data-name="Group 6410" transform="translate(1389.894 2830.052)">
        <path id="Path_7316" data-name="Path 7316" d="M32.6,51.827a1.61,1.61,0,0,1-1.138-2.748l1.626-1.625a1.61,1.61,0,0,1,2.277,2.277l-1.626,1.625a1.6,1.6,0,0,1-1.138.472Z" transform="translate(-30.99 -46.982)"/>
      </g>
      <g id="Group_6411" data-name="Group 6411" transform="translate(1340.003 2838.133)">
        <path id="Path_7317" data-name="Path 7317" d="M101.432,55.22H1.614a1.61,1.61,0,1,1,0-3.22h99.818a1.61,1.61,0,1,1,0,3.22Z" transform="translate(-0.004 -52)"/>
      </g>
      <g id="Group_6412" data-name="Group 6412" transform="translate(1356.098 2826.859)">
        <path id="Path_7318" data-name="Path 7318" d="M29.322,48.219H11.61a1.61,1.61,0,0,1,0-3.22H29.322a1.61,1.61,0,0,1,0,3.22Z" transform="translate(-10 -44.999)"/>
      </g>
      <g id="Group_6413" data-name="Group 6413" transform="translate(1406.01 2826.859)">
        <path id="Path_7319" data-name="Path 7319" d="M60.321,48.219H42.609a1.61,1.61,0,0,1,0-3.22H60.321a1.61,1.61,0,1,1,0,3.22Z" transform="translate(-40.999 -44.999)"/>
      </g>
    </g>
  </g>
</svg>
