<svg xmlns="http://www.w3.org/2000/svg" width="114.64" height="103" viewBox="0 0 114.64 103">
  <g id="icon_2" data-name="icon 2" transform="translate(-156 -2351)">
    <path id="rect" d="M0,0H114.64V103H0Z" transform="translate(156 2351)" fill="none"/>
    <g id="Group_6463" data-name="Group 6463" transform="translate(1285.602 3226.867)">
      <path id="Path_7320" data-name="Path 7320" d="M-1117-811.606c.031-.438.092-.876.088-1.314a4.048,4.048,0,0,1,2.972-3.9,5.961,5.961,0,0,1,.986-.2.421.421,0,0,0,.436-.461c.048-.776.106-1.553.2-2.325a1.592,1.592,0,0,1,1.313-1.552c.415-.085.437-.427.394-.761-.1-.786-.259-1.567-.32-2.356-.118-1.536-.185-3.076-.272-4.615-.007-.119,0-.238,0-.387-.185-.009-.333-.027-.481-.022a2.8,2.8,0,0,1-2.8-3.148,2.686,2.686,0,0,1,2.918-2.644c.846-.008.818-.016,1.07-.826.416-1.335.828-2.675,1.327-3.979a4.448,4.448,0,0,1,1.714-2.1,4.132,4.132,0,0,1,4.152-.188,6.791,6.791,0,0,1,1.1.568.615.615,0,0,0,.807-.052,4.2,4.2,0,0,1,4.561-.561,5.2,5.2,0,0,1,2.608,3.117c.417,1.191.749,2.414,1.084,3.632.087.318.219.433.532.395a3.634,3.634,0,0,1,.5,0,2.589,2.589,0,0,1,2.73,2.1,3.01,3.01,0,0,1-1.21,3.253,4.751,4.751,0,0,1-1.329.424,3.425,3.425,0,0,1-.725.008c0,.839.02,1.63,0,2.42a24.383,24.383,0,0,1-.635,5.076c-.036.145.128.35.227.51.041.067.152.1.237.129a2.239,2.239,0,0,1,1.541,2.3c.014.565.005,1.131.04,1.7.007.12.153.328.243.332a4.75,4.75,0,0,1,2.726,1.075.566.566,0,0,0,.833-.052,11.659,11.659,0,0,1,4.411-2.632c1.692-.454,3.4-.888,5.119-1.2a69.347,69.347,0,0,1,13.472-1.015,57.4,57.4,0,0,1,13.666,1.619,24.754,24.754,0,0,1,14.026,9.631c.66.9,1.28,1.826,1.88,2.765a3.584,3.584,0,0,0,1.837,1.493,11.214,11.214,0,0,1,4.573,3.348,6.007,6.007,0,0,1,1.365,4.071c0,.577.059,1.154.091,1.731v6.7c-.06.956-.16,1.913-.172,2.87a5.846,5.846,0,0,1-4.7,5.374c-1.095.186-2.219.2-3.331.282-.656.047-1.315.048-1.969.113a.776.776,0,0,0-.55.293c-.408.777-.683,1.632-1.15,2.367a10,10,0,0,1-13.749,3.347,10.58,10.58,0,0,1-4.416-5.558.508.508,0,0,0-.519-.4c-1.315-.032-2.629-.113-3.944-.117q-11.249-.032-22.5-.035c-.841,0-.841,0-1.133.792a9.9,9.9,0,0,1-6.811,6.376c-.711.211-1.459.3-2.19.438h-1.194c-.255-.04-.51-.075-.764-.12a10.347,10.347,0,0,1-8.085-6.678,1.09,1.09,0,0,0-1.131-.8c-1.069-.028-2.139-.058-3.208-.112a5.1,5.1,0,0,1-4-1.907,13.943,13.943,0,0,1-1.075-1.64,1.848,1.848,0,0,1-.225-.862c-.032-3.239-.065-6.478-.046-9.716a12.453,12.453,0,0,1,.3-2.766c.17-.721.013-.752-.458-.978a5.189,5.189,0,0,1-2.571-2.625,7.045,7.045,0,0,0-.408-.689Zm59.53,27.9a9.258,9.258,0,0,1,.007-1.214,10.278,10.278,0,0,1,9.115-8.686,9.885,9.885,0,0,1,9.414,4.556,11.029,11.029,0,0,1,1.636,4.8.524.524,0,0,0,.6.526c1.239-.008,2.478.016,3.716-.018,1.393-.037,3.135-1.418,3.131-2.882-.012-3.988,0-7.975.011-11.962a2.861,2.861,0,0,0-.724-1.879,9.025,9.025,0,0,0-4.4-2.767,2.932,2.932,0,0,1-1.651-1.334c-.931-1.431-1.855-2.877-2.912-4.214a21.636,21.636,0,0,0-5.765-5.322,30.416,30.416,0,0,0-12.487-3.732c-1.911-.217-3.846-.218-5.77-.311a64.237,64.237,0,0,0-16.8,1.482,10.8,10.8,0,0,0-5.176,2.472c-1.412,1.287-2.884,2.51-4.285,3.809-2.367,2.193-4.7,4.428-7.052,6.631a1.691,1.691,0,0,1-.743.388c-2.317.534-4.654.984-6.953,1.583a12.545,12.545,0,0,0-4.719,2.256,4.381,4.381,0,0,0-1.929,3.388c-.042,3.269-.029,6.539-.01,9.808a2.45,2.45,0,0,0,1.848,2.394,12.414,12.414,0,0,0,4.1.188.592.592,0,0,0,.566-.615,6.8,6.8,0,0,1,.049-.822,10.068,10.068,0,0,1,11.6-8.318c4.337.741,7.007,3.483,8.27,7.625a14.709,14.709,0,0,1,.329,2.169Zm-52.591-30.937a19.516,19.516,0,0,1-1.988-.012,2.446,2.446,0,0,0-2.388,1.035.947.947,0,0,0-.21.518c.032,3.208.092,6.416.121,9.624a2.42,2.42,0,0,0,1.271,2.225c.237.139.494.243.727.387a.542.542,0,0,0,.723-.066,17.185,17.185,0,0,1,4.7-2.8,51.716,51.716,0,0,1,8.323-2.11,1.816,1.816,0,0,0,.825-.414c.734-.669,1.426-1.384,2.142-2.072,1.851-1.78,3.71-3.553,5.555-5.339a2.638,2.638,0,0,0,.345-.56,2.015,2.015,0,0,0-.619-.316c-.606-.069-1.218-.08-1.828-.1-.406-.013-.812,0-1.22,0a39.225,39.225,0,0,0-.128-4.428c-1.661.567-3.231,1.1-4.8,1.639a10.524,10.524,0,0,1-5.7.284,33.632,33.632,0,0,1-3.483-1.11c-.849-.282-1.693-.579-2.576-.881C-1110.2-817.624-1110.13-816.164-1110.06-814.638Zm15.391,38.489a9.178,9.178,0,0,0,1.867-.138,7.458,7.458,0,0,0,5.583-7.987,7.614,7.614,0,0,0-8.846-6.619,7.6,7.6,0,0,0-5.955,8.621C-1101.513-779.316-1098.592-775.827-1094.67-776.148Zm47.225,0c4.285.289,7.694-3.835,7.53-7.567a7.558,7.558,0,0,0-7.556-7.289,7.617,7.617,0,0,0-7.44,7.534C-1054.85-779.446-1051.389-775.925-1047.445-776.15Zm-64.57-55.844h20.287c.078-.767,0-.854-.737-.888-.611-.028-1.221-.067-1.832-.095a.735.735,0,0,1-.79-.632c-.444-1.692-.946-3.369-1.435-5.049a2.865,2.865,0,0,0-1.265-1.626,1.238,1.238,0,0,0-1.424-.078c-.656.437-1.266.943-1.882,1.436-.305.244-.581.525-.885.8-.2-.24-.411-.5-.633-.75a4.785,4.785,0,0,0-2.264-1.568,1.376,1.376,0,0,0-1.293.242,3.1,3.1,0,0,0-1.091,1.549c-.447,1.47-.864,2.949-1.293,4.424-.118.406-.12.966-.392,1.176s-.816.084-1.241.089c-.635.008-1.27,0-1.93,0C-1112.079-832.6-1112.048-832.313-1112.015-831.994Zm3.953,9.729c.194.86.453,1.565,1.4,1.824,1.086.3,2.136.72,3.218,1.032a4.727,4.727,0,0,0,1.488.184,14.5,14.5,0,0,0,5.421-1.525c.531-.244.646-.763.761-1.384C-1099.87-822.367-1103.931-822.185-1108.062-822.266Zm-.875-5.389c.161,1.244.319,2.448.469,3.654.037.3.176.391.48.391,1.514,0,3.029.042,4.543.039,2.555-.005,5.109-.034,7.664-.05.245,0,.456-.019.484-.342.105-1.224.221-2.447.335-3.691Zm.129-1.48a4.351,4.351,0,0,0,.635.1q5.687.041,11.373.065a10.917,10.917,0,0,0,1.372-.084c.133-.016.249-.171.373-.263-.121-.089-.233-.234-.365-.256a6.482,6.482,0,0,0-1.049-.088c-1.758-.012-3.516-.024-5.275-.012-2.2.016-4.4.058-6.6.085C-1108.613-829.586-1108.852-829.571-1108.808-829.134Z" stroke="#000" stroke-width="0.7"/>
      <path id="Path_7321" data-name="Path 7321" d="M-857.329-536.495c.33-.311.658-.625.992-.933,3.18-2.935,6.375-5.852,9.532-8.81a8.87,8.87,0,0,1,4.35-1.99,57.78,57.78,0,0,1,12.806-1.118.732.732,0,0,1,.148.036v12.93h-27.773Zm25.449-2.207v-8.255a1.881,1.881,0,0,0-.207-.021A53.418,53.418,0,0,0-842-545.932a5.44,5.44,0,0,0-2.7,1.041q-3.2,2.884-6.386,5.788c-.1.094-.186.208-.357.4Z" transform="translate(-235.824 -266.565)" fill="#ff4612" stroke="#ff4612" stroke-width="0.7"/>
      <path id="Path_7322" data-name="Path 7322" d="M-528.053-534.606v-12.817c.473,0,.94-.008,1.406,0a30.672,30.672,0,0,1,9.5,1.553,21.083,21.083,0,0,1,9.222,5.913,17.343,17.343,0,0,1,2.985,5.35Zm2.371-2.383h16.932c-.6-1.56-3.72-4.246-6.52-5.533a28.771,28.771,0,0,0-10.412-2.567Z" transform="translate(-534.86 -268.308)" fill="#ff4612" stroke="#ff4612" stroke-width="0.7"/>
      <path id="Path_7323" data-name="Path 7323" d="M-1015.757-671.589a10.465,10.465,0,0,1-1.292-.22,1.784,1.784,0,0,1-1.206-2.177,1.755,1.755,0,0,1,1.686-1.389c.686-.012,1.374-.01,2.06.009a1.549,1.549,0,0,1,1.565.813,2.1,2.1,0,0,1-.125,2.13,1.5,1.5,0,0,1-1.122.708C-1014.66-671.658-1015.133-671.638-1015.757-671.589Zm.246-2.566a5.935,5.935,0,0,0-1.033.086.714.714,0,0,0-.43.414c-.085.263-.044.631.305.651a19,19,0,0,0,2.31-.019.453.453,0,0,0,.374-.585c-.049-.285-.179-.478-.5-.489S-1015.159-674.135-1015.511-674.155Z" transform="translate(-89.649 -152.103)"/>
      <path id="Path_7324" data-name="Path 7324" d="M-944.721-675.931c.663.05,1.156.047,1.634.13a1.593,1.593,0,0,1,1.406,1.82,1.671,1.671,0,0,1-1.426,1.748,14.655,14.655,0,0,1-2.642.009,1.535,1.535,0,0,1-1.456-1.358,1.853,1.853,0,0,1,.949-2.131A6.237,6.237,0,0,1-944.721-675.931Zm.3,1.278c-.319.02-.685.04-1.051.067-.275.021-.463.133-.472.446-.008.288-.01.627.344.645a16.76,16.76,0,0,0,2.267-.028c.152-.013.368-.353.39-.56a.463.463,0,0,0-.512-.514C-943.762-674.6-944.067-674.632-944.422-674.653Z" transform="translate(-154.17 -151.605)"/>
    </g>
  </g>
</svg>
