<svg xmlns="http://www.w3.org/2000/svg" width="38.04" height="31.739" viewBox="0 0 38.04 31.739">
  <g id="Group_6443" data-name="Group 6443" transform="translate(1566.148 1332.317)">
    <path id="Path_7394" data-name="Path 7394" d="M-1554.077-1300.578c-.106-.135-.176-.233-.255-.323q-5.824-6.554-11.655-13.1c-.238-.267-.207-.366.07-.562q2.93-2.075,5.834-4.187c.246-.178.345-.172.511.1,1.574,2.524,3.168,5.035,4.742,7.559.2.313.266.326.485.013a62.98,62.98,0,0,1,16.35-16.405,39.516,39.516,0,0,1,9.423-4.743c.438-.149.4-.141.451.3.078.625-.165.921-.732,1.211a42.925,42.925,0,0,0-10.216,7.532,64.989,64.989,0,0,0-13.971,20.244C-1553.385-1302.181-1553.711-1301.414-1554.077-1300.578Z" fill="#7bc144"/>
  </g>
</svg>
