<svg xmlns="http://www.w3.org/2000/svg" width="21.172" height="21.515" viewBox="0 0 21.172 21.515">
  <g id="Group_6246" data-name="Group 6246" transform="translate(1 1.001)">
    <path id="Path_7237" data-name="Path 7237" d="M570.5,472.513v7.2a1.482,1.482,0,0,0,.434,1.048l9.611,9.612a1.944,1.944,0,0,0,2.425.3,2.842,2.842,0,0,0,.446-.368l5.871-6.458s1.174-1.174-.587-2.936l-9.053-9.053a1.059,1.059,0,0,0-.821-.308l-7.923.528A.433.433,0,0,0,570.5,472.513Z" transform="translate(-570.5 -471.551)" fill="none" stroke="#ff4612" stroke-miterlimit="10" stroke-width="2"/>
    <circle id="Ellipse_134" data-name="Ellipse 134" cx="1.174" cy="1.174" r="1.174" transform="translate(3.229 3.199)" fill="#ff4612"/>
  </g>
</svg>
