<svg xmlns="http://www.w3.org/2000/svg" width="503.339" height="517.043" viewBox="0 0 503.339 517.043">
  <g id="Group_7433" data-name="Group 7433" transform="translate(0 -18.927)">
    <g id="Group_7430" data-name="Group 7430" transform="matrix(0.875, 0.485, -0.485, 0.875, 448.85, 481.665)" opacity="0.64">
      <g id="Ellipse_690" data-name="Ellipse 690" transform="translate(16.567 42.5)" fill="rgba(0,0,0,0)" stroke="#fffbfa" stroke-miterlimit="10" stroke-width="39">
        <ellipse cx="3.347" cy="3.347" rx="3.347" ry="3.347" stroke="none"/>
        <ellipse cx="3.347" cy="3.347" rx="16.153" ry="16.153" fill="none"/>
      </g>
      <g id="Ellipse_691" data-name="Ellipse 691" transform="translate(24.848 34)" fill="rgba(0,0,0,0)" stroke="#fffbfa" stroke-miterlimit="10" stroke-width="39">
        <ellipse cx="3.347" cy="3.347" rx="3.347" ry="3.347" stroke="none"/>
        <ellipse cx="3.347" cy="3.347" rx="16.153" ry="16.153" fill="none"/>
      </g>
      <g id="Ellipse_692" data-name="Ellipse 692" transform="translate(33.13 25.5)" fill="rgba(0,0,0,0)" stroke="#fffbfa" stroke-miterlimit="10" stroke-width="39">
        <ellipse cx="3.347" cy="3.347" rx="3.347" ry="3.347" stroke="none"/>
        <ellipse cx="3.347" cy="3.347" rx="16.153" ry="16.153" fill="none"/>
      </g>
      <g id="Ellipse_693" data-name="Ellipse 693" transform="translate(41.411 17)" fill="rgba(0,0,0,0)" stroke="#fffbfa" stroke-miterlimit="10" stroke-width="39">
        <ellipse cx="3.347" cy="3.347" rx="3.347" ry="3.347" stroke="none"/>
        <ellipse cx="3.347" cy="3.347" rx="16.153" ry="16.153" fill="none"/>
      </g>
      <g id="Ellipse_694" data-name="Ellipse 694" transform="translate(49.692 8.5)" fill="rgba(0,0,0,0)" stroke="#fffbfa" stroke-miterlimit="10" stroke-width="39">
        <ellipse cx="3.347" cy="3.347" rx="3.347" ry="3.347" stroke="none"/>
        <ellipse cx="3.347" cy="3.347" rx="16.153" ry="16.153" fill="none"/>
      </g>
      <g id="Ellipse_695" data-name="Ellipse 695" transform="translate(55.606 0)" fill="rgba(0,0,0,0)" stroke="#fffbfa" stroke-miterlimit="10" stroke-width="39">
        <ellipse cx="3.347" cy="3.347" rx="3.347" ry="3.347" stroke="none"/>
        <ellipse cx="3.347" cy="3.347" rx="16.153" ry="16.153" fill="none"/>
      </g>
      <g id="Ellipse_696" data-name="Ellipse 696" transform="translate(0 42.5)" fill="rgba(0,0,0,0)" stroke="#fffbfa" stroke-miterlimit="10" stroke-width="39">
        <ellipse cx="3.347" cy="3.347" rx="3.347" ry="3.347" stroke="none"/>
        <ellipse cx="3.347" cy="3.347" rx="16.153" ry="16.153" fill="none"/>
      </g>
      <g id="Ellipse_697" data-name="Ellipse 697" transform="translate(8.281 34)" fill="rgba(0,0,0,0)" stroke="#fffbfa" stroke-miterlimit="10" stroke-width="39">
        <ellipse cx="3.347" cy="3.347" rx="3.347" ry="3.347" stroke="none"/>
        <ellipse cx="3.347" cy="3.347" rx="16.153" ry="16.153" fill="none"/>
      </g>
      <g id="Ellipse_698" data-name="Ellipse 698" transform="translate(16.562 25.5)" fill="rgba(0,0,0,0)" stroke="#fffbfa" stroke-miterlimit="10" stroke-width="39">
        <ellipse cx="3.347" cy="3.347" rx="3.347" ry="3.347" stroke="none"/>
        <ellipse cx="3.347" cy="3.347" rx="16.153" ry="16.153" fill="none"/>
      </g>
      <g id="Ellipse_699" data-name="Ellipse 699" transform="translate(24.843 17)" fill="rgba(0,0,0,0)" stroke="#fffbfa" stroke-miterlimit="10" stroke-width="39">
        <ellipse cx="3.347" cy="3.347" rx="3.347" ry="3.347" stroke="none"/>
        <ellipse cx="3.347" cy="3.347" rx="16.153" ry="16.153" fill="none"/>
      </g>
      <g id="Ellipse_700" data-name="Ellipse 700" transform="translate(33.125 8.5)" fill="rgba(0,0,0,0)" stroke="#fffbfa" stroke-miterlimit="10" stroke-width="39">
        <ellipse cx="3.347" cy="3.347" rx="3.347" ry="3.347" stroke="none"/>
        <ellipse cx="3.347" cy="3.347" rx="16.153" ry="16.153" fill="none"/>
      </g>
      <g id="Ellipse_701" data-name="Ellipse 701" transform="translate(39.039 0)" fill="rgba(0,0,0,0)" stroke="#fffbfa" stroke-miterlimit="10" stroke-width="39">
        <ellipse cx="3.347" cy="3.347" rx="3.347" ry="3.347" stroke="none"/>
        <ellipse cx="3.347" cy="3.347" rx="16.153" ry="16.153" fill="none"/>
      </g>
    </g>
    <g id="Group_7431" data-name="Group 7431">
      <g id="Group_6780" data-name="Group 6780" transform="matrix(0.875, -0.485, 0.485, 0.875, 0, 30.204)" opacity="0.64">
        <g id="Ellipse_690-2" data-name="Ellipse 690" transform="translate(16.567 0)" fill="rgba(0,0,0,0)" stroke="#fffbfa" stroke-miterlimit="10" stroke-width="39">
          <ellipse cx="3.347" cy="3.347" rx="3.347" ry="3.347" stroke="none"/>
          <ellipse cx="3.347" cy="3.347" rx="16.153" ry="16.153" fill="none"/>
        </g>
        <g id="Ellipse_691-2" data-name="Ellipse 691" transform="translate(24.848 8.5)" fill="rgba(0,0,0,0)" stroke="#fffbfa" stroke-miterlimit="10" stroke-width="39">
          <ellipse cx="3.347" cy="3.347" rx="3.347" ry="3.347" stroke="none"/>
          <ellipse cx="3.347" cy="3.347" rx="16.153" ry="16.153" fill="none"/>
        </g>
        <g id="Ellipse_692-2" data-name="Ellipse 692" transform="translate(33.13 17)" fill="rgba(0,0,0,0)" stroke="#fffbfa" stroke-miterlimit="10" stroke-width="39">
          <ellipse cx="3.347" cy="3.347" rx="3.347" ry="3.347" stroke="none"/>
          <ellipse cx="3.347" cy="3.347" rx="16.153" ry="16.153" fill="none"/>
        </g>
        <g id="Ellipse_693-2" data-name="Ellipse 693" transform="translate(41.411 25.5)" fill="rgba(0,0,0,0)" stroke="#fffbfa" stroke-miterlimit="10" stroke-width="39">
          <ellipse cx="3.347" cy="3.347" rx="3.347" ry="3.347" stroke="none"/>
          <ellipse cx="3.347" cy="3.347" rx="16.153" ry="16.153" fill="none"/>
        </g>
        <g id="Ellipse_694-2" data-name="Ellipse 694" transform="translate(49.692 34)" fill="rgba(0,0,0,0)" stroke="#fffbfa" stroke-miterlimit="10" stroke-width="39">
          <ellipse cx="3.347" cy="3.347" rx="3.347" ry="3.347" stroke="none"/>
          <ellipse cx="3.347" cy="3.347" rx="16.153" ry="16.153" fill="none"/>
        </g>
        <g id="Ellipse_695-2" data-name="Ellipse 695" transform="translate(55.606 42.5)" fill="rgba(0,0,0,0)" stroke="#fffbfa" stroke-miterlimit="10" stroke-width="39">
          <ellipse cx="3.347" cy="3.347" rx="3.347" ry="3.347" stroke="none"/>
          <ellipse cx="3.347" cy="3.347" rx="16.153" ry="16.153" fill="none"/>
        </g>
        <g id="Ellipse_696-2" data-name="Ellipse 696" transform="translate(0 0)" fill="rgba(0,0,0,0)" stroke="#fffbfa" stroke-miterlimit="10" stroke-width="39">
          <ellipse cx="3.347" cy="3.347" rx="3.347" ry="3.347" stroke="none"/>
          <ellipse cx="3.347" cy="3.347" rx="16.153" ry="16.153" fill="none"/>
        </g>
        <g id="Ellipse_697-2" data-name="Ellipse 697" transform="translate(8.281 8.5)" fill="rgba(0,0,0,0)" stroke="#fffbfa" stroke-miterlimit="10" stroke-width="39">
          <ellipse cx="3.347" cy="3.347" rx="3.347" ry="3.347" stroke="none"/>
          <ellipse cx="3.347" cy="3.347" rx="16.153" ry="16.153" fill="none"/>
        </g>
        <g id="Ellipse_698-2" data-name="Ellipse 698" transform="translate(16.562 17)" fill="rgba(0,0,0,0)" stroke="#fffbfa" stroke-miterlimit="10" stroke-width="39">
          <ellipse cx="3.347" cy="3.347" rx="3.347" ry="3.347" stroke="none"/>
          <ellipse cx="3.347" cy="3.347" rx="16.153" ry="16.153" fill="none"/>
        </g>
        <g id="Ellipse_699-2" data-name="Ellipse 699" transform="translate(24.843 25.5)" fill="rgba(0,0,0,0)" stroke="#fffbfa" stroke-miterlimit="10" stroke-width="39">
          <ellipse cx="3.347" cy="3.347" rx="3.347" ry="3.347" stroke="none"/>
          <ellipse cx="3.347" cy="3.347" rx="16.153" ry="16.153" fill="none"/>
        </g>
        <g id="Ellipse_700-2" data-name="Ellipse 700" transform="translate(33.125 34)" fill="rgba(0,0,0,0)" stroke="#fffbfa" stroke-miterlimit="10" stroke-width="39">
          <ellipse cx="3.347" cy="3.347" rx="3.347" ry="3.347" stroke="none"/>
          <ellipse cx="3.347" cy="3.347" rx="16.153" ry="16.153" fill="none"/>
        </g>
        <g id="Ellipse_701-2" data-name="Ellipse 701" transform="translate(39.039 42.5)" fill="rgba(0,0,0,0)" stroke="#fffbfa" stroke-miterlimit="10" stroke-width="39">
          <ellipse cx="3.347" cy="3.347" rx="3.347" ry="3.347" stroke="none"/>
          <ellipse cx="3.347" cy="3.347" rx="16.153" ry="16.153" fill="none"/>
        </g>
      </g>
    </g>
  </g>
</svg>
