<svg xmlns="http://www.w3.org/2000/svg" width="50" height="50" viewBox="0 0 50 50">
  <g id="Group_6273" data-name="Group 6273" transform="translate(-133 -2445)">
    <g id="Group_6280" data-name="Group 6280">
      <path id="Path_7252" data-name="Path 7252" d="M0,0H50V50H0Z" transform="translate(133 2445)" fill="#fff"/>
      <g id="_007-battery" data-name="007-battery" transform="translate(126.75 2437.083)">
        <path id="Path_3029" data-name="Path 3029" d="M53.487,18.55H51.22V16.37a2.215,2.215,0,0,0-4.431,0V18.55H35.729v-1.3h2.3a.721.721,0,0,0,.721-.721V12.2a.721.721,0,0,0-.721-.721h-13.6a.721.721,0,0,0-.721.721v4.328a.721.721,0,0,0,.721.721h2.3v1.3H15.669V16.37a2.215,2.215,0,0,0-4.431,0V18.55H8.971a.721.721,0,0,0-.721.721v3.847a.721.721,0,0,0,.721.721h2.267V54.053a.721.721,0,0,0,.721.721H50.5a.721.721,0,0,0,.721-.721V23.84h2.267a.721.721,0,0,0,.721-.721V19.272A.721.721,0,0,0,53.487,18.55ZM48.231,16.37a.773.773,0,1,1,1.546,0V18.55H48.231ZM25.149,12.918H37.309V15.8H25.149Zm3.023,4.328h6.114v1.3H28.172ZM12.681,16.37a.773.773,0,0,1,1.546,0V18.55H12.681Zm37.1,36.962h-37.1V27.983h37.1Zm0-26.792h-37.1v-2.7h37.1ZM52.765,22.4H9.693v-2.4H52.765Z" stroke="#fff" stroke-width="0.2"/>
        <path id="Path_3030" data-name="Path 3030" d="M49.835,71.349h4.693v6.326a.721.721,0,0,0,1.352.351l5.415-9.715a.721.721,0,0,0-.63-1.072H55.971V60.913a.721.721,0,0,0-1.352-.351L49.2,70.277a.721.721,0,0,0,.63,1.072Zm4.693-7.66V67.96a.721.721,0,0,0,.721.721h4.187L55.971,74.9V70.628a.721.721,0,0,0-.721-.721H51.063Z" transform="translate(-24.021 -28.636)" fill="#ff4612"/>
        <path id="Path_3031" data-name="Path 3031" d="M24.3,59.764h1.408v1.408a.721.721,0,1,0,1.443,0V59.764h1.408a.721.721,0,1,0,0-1.443H27.155V56.913a.721.721,0,1,0-1.443,0v1.408H24.3a.721.721,0,1,0,0,1.443Z" transform="translate(-9.013 -26.286)" fill="#ff4612"/>
        <path id="Path_3032" data-name="Path 3032" d="M91.3,62.8h4.259a.721.721,0,1,0,0-1.443H91.3a.721.721,0,1,0,0,1.443Z" transform="translate(-48.397 -29.323)" fill="#ff4612"/>
      </g>
    </g>
  </g>
</svg>
