<svg xmlns="http://www.w3.org/2000/svg" width="50" height="50" viewBox="0 0 50 50">
  <g id="Group_6295" data-name="Group 6295" transform="translate(9785 3472)">
    <path id="Path_7254" data-name="Path 7254" d="M0,0H50V50H0Z" transform="translate(-9785 -3472)" fill="#fff"/>
    <g id="car-key" transform="translate(-9781.526 -3467.721)">
      <g id="Group_5639" data-name="Group 5639" transform="translate(15.364)">
        <g id="Group_5638" data-name="Group 5638">
          <path id="Path_6861" data-name="Path 6861" d="M206.489,0H195.345a7.67,7.67,0,0,0-7.661,7.661V34.128a7.67,7.67,0,0,0,7.661,7.661h11.144a7.671,7.671,0,0,0,7.661-7.661V7.661A7.67,7.67,0,0,0,206.489,0Zm6.268,34.128a6.276,6.276,0,0,1-6.268,6.268H195.345a6.276,6.276,0,0,1-6.268-6.268V7.661a6.276,6.276,0,0,1,6.268-6.268h11.144a6.276,6.276,0,0,1,6.268,6.268Z" transform="translate(-187.684)" stroke="#fff" stroke-width="0.1"/>
        </g>
      </g>
      <g id="Group_5641" data-name="Group 5641" transform="translate(18.846 3.482)">
        <g id="Group_5640" data-name="Group 5640">
          <path id="Path_6862" data-name="Path 6862" d="M233.833,42.667a3.482,3.482,0,1,0,3.482,3.482A3.486,3.486,0,0,0,233.833,42.667Zm0,5.572a2.089,2.089,0,1,1,2.089-2.089A2.092,2.092,0,0,1,233.833,48.239Z" transform="translate(-230.351 -42.667)" fill="#ff4612" stroke="#fff" stroke-width="0.1"/>
        </g>
      </g>
      <g id="Group_5643" data-name="Group 5643" transform="translate(19.543 11.84)">
        <g id="Group_5642" data-name="Group 5642">
          <path id="Path_6863" data-name="Path 6863" d="M250.724,145.067h-5.572a6.276,6.276,0,0,0-6.268,6.268v2.786a.7.7,0,0,0,.7.7H256.3a.7.7,0,0,0,.7-.7v-2.786A6.276,6.276,0,0,0,250.724,145.067Zm4.875,8.358H240.277v-2.089a4.881,4.881,0,0,1,4.875-4.875h5.572a4.881,4.881,0,0,1,4.875,4.875Z" transform="translate(-238.884 -145.067)" stroke="#fff" stroke-width="0.1"/>
        </g>
      </g>
      <g id="Group_5645" data-name="Group 5645" transform="translate(19.543 28.556)">
        <g id="Group_5644" data-name="Group 5644">
          <path id="Path_6864" data-name="Path 6864" d="M256.3,349.867H239.581a.7.7,0,0,0-.7.7v2.786a6.276,6.276,0,0,0,6.268,6.268h5.572a6.276,6.276,0,0,0,6.268-6.268v-2.786A.7.7,0,0,0,256.3,349.867Zm-.7,3.482a4.881,4.881,0,0,1-4.875,4.875h-5.572a4.881,4.881,0,0,1-4.875-4.875V351.26H255.6Z" transform="translate(-238.885 -349.867)" stroke="#fff" stroke-width="0.1"/>
        </g>
      </g>
      <g id="Group_5647" data-name="Group 5647" transform="translate(19.543 20.198)">
        <g id="Group_5646" data-name="Group 5646">
          <path id="Path_6865" data-name="Path 6865" d="M256.3,247.467H239.581a.7.7,0,0,0-.7.7v8.358a.7.7,0,0,0,.7.7H256.3a.7.7,0,0,0,.7-.7v-8.358A.7.7,0,0,0,256.3,247.467Zm-.7,8.358H240.278V248.86H255.6Z" transform="translate(-238.885 -247.467)"/>
        </g>
      </g>
      <g id="Group_5649" data-name="Group 5649" transform="translate(23.722 22.984)">
        <g id="Group_5648" data-name="Group 5648">
          <path id="Path_6866" data-name="Path 6866" d="M299.139,281.6h-8.358a.7.7,0,0,0-.7.7v2.786a.7.7,0,0,0,.7.7h8.358a.7.7,0,0,0,.7-.7V282.3A.7.7,0,0,0,299.139,281.6Zm-.7,2.786h-6.965v-1.393h6.965Z" transform="translate(-290.085 -281.6)" stroke="#fff" stroke-width="0.1"/>
        </g>
      </g>
      <g id="Group_5651" data-name="Group 5651" transform="translate(25.811 14.626)">
        <g id="Group_5650" data-name="Group 5650">
          <path id="Path_6867" data-name="Path 6867" d="M319.863,179.2h-2.786a1.394,1.394,0,0,0-1.393,1.393v1.393a1.394,1.394,0,0,0,1.393,1.393h2.786a1.394,1.394,0,0,0,1.393-1.393v-1.393A1.394,1.394,0,0,0,319.863,179.2Zm-2.786,2.786v-1.393h2.786v1.393Z" transform="translate(-315.684 -179.2)" stroke="#fff" stroke-width="0.1"/>
        </g>
      </g>
      <g id="Group_5653" data-name="Group 5653" transform="translate(25.811 31.342)">
        <g id="Group_5652" data-name="Group 5652">
          <path id="Path_6868" data-name="Path 6868" d="M319.863,384h-2.786a1.394,1.394,0,0,0-1.393,1.393v1.393a1.394,1.394,0,0,0,1.393,1.393h2.786a1.394,1.394,0,0,0,1.393-1.393v-1.393A1.394,1.394,0,0,0,319.863,384Zm-2.786,2.786v-1.393h2.786v1.393Z" transform="translate(-315.684 -384)" stroke="#fff" stroke-width="0.1"/>
        </g>
      </g>
      <g id="Group_5655" data-name="Group 5655" transform="translate(0.049 8.981)">
        <g id="Group_5654" data-name="Group 5654">
          <path id="Path_6869" data-name="Path 6869" d="M16.094,110.057a.686.686,0,0,0-.777.329l-15,26.561a2.072,2.072,0,0,0,.752,2.8l1.248.727a2.022,2.022,0,0,0,1.017.277,2.078,2.078,0,0,0,.538-.072,2.031,2.031,0,0,0,1.239-.97l11.408-20.276a.707.707,0,0,0,.09-.344v-8.358A.7.7,0,0,0,16.094,110.057Zm-.867,8.848L3.909,139.021a.655.655,0,0,1-.9.247l-1.249-.727a.669.669,0,0,1-.243-.9l13.713-24.277V118.9Z" transform="translate(-0.049 -110.034)"/>
        </g>
      </g>
    </g>
  </g>
</svg>
