<svg xmlns="http://www.w3.org/2000/svg" width="50" height="50" viewBox="0 0 50 50">
  <g id="Group_6277" data-name="Group 6277" transform="translate(-228 -4580)">
    <g id="Group_6281" data-name="Group 6281">
      <path id="Path_7250" data-name="Path 7250" d="M0,0H50V50H0Z" transform="translate(228 4580)" fill="#fff"/>
      <g id="_002-clutch" data-name="002-clutch" transform="translate(231.998 4584.38)">
        <g id="Group_5483" data-name="Group 5483" transform="translate(0.002 0.001)">
          <g id="Group_5482" data-name="Group 5482" transform="translate(0 0)">
            <path id="Path_6705" data-name="Path 6705" d="M41.788,23.211a2.935,2.935,0,0,1,0-4.422.624.624,0,0,0-.136-1.03l-.006,0A2.935,2.935,0,0,1,40.5,13.492l.005-.007a.627.627,0,0,0-.4-.963A2.935,2.935,0,0,1,37.9,8.689a.625.625,0,0,0-.636-.821,2.935,2.935,0,0,1-3.126-3.126.627.627,0,0,0-.829-.632,2.935,2.935,0,0,1-3.826-2.218.624.624,0,0,0-.959-.4l-.008.005a2.934,2.934,0,0,1-2.393.4A2.935,2.935,0,0,1,24.246.356l0-.008A.624.624,0,0,0,23.213.214a2.934,2.934,0,0,1-2.211,1,2.934,2.934,0,0,1-2.211-1,.624.624,0,0,0-1.03.136l0,.007A2.934,2.934,0,0,1,15.883,1.9a2.936,2.936,0,0,1-2.394-.4l-.007,0a.627.627,0,0,0-.959.4,2.935,2.935,0,0,1-3.832,2.21.625.625,0,0,0-.822.635A2.935,2.935,0,0,1,4.741,7.867.627.627,0,0,0,4.11,8.7a2.935,2.935,0,0,1-2.217,3.826.624.624,0,0,0-.4.962l0,0a2.934,2.934,0,0,1,.4,2.393,2.935,2.935,0,0,1-1.54,1.875l-.008,0A.624.624,0,0,0,.216,18.79,2.934,2.934,0,0,1,1.22,21a2.934,2.934,0,0,1-1,2.211.624.624,0,0,0,.133,1.029l.009,0A2.934,2.934,0,0,1,1.9,26.12a2.935,2.935,0,0,1-.4,2.393l0,.007a.627.627,0,0,0,.4.961A2.935,2.935,0,0,1,4.11,33.3a.625.625,0,0,0,.632.83A2.935,2.935,0,0,1,7.869,37.26a.627.627,0,0,0,.829.632,2.935,2.935,0,0,1,3.826,2.218.624.624,0,0,0,.959.4l.008-.005a2.935,2.935,0,0,1,4.268,1.142l0,.008a.624.624,0,0,0,1.029.134,2.935,2.935,0,0,1,4.422,0,.624.624,0,0,0,1.03-.136l0-.007a2.935,2.935,0,0,1,4.269-1.14l.007,0a.627.627,0,0,0,.959-.4,2.935,2.935,0,0,1,3.828-2.211.625.625,0,0,0,.826-.634,2.935,2.935,0,0,1,3.126-3.126.627.627,0,0,0,.633-.829,2.935,2.935,0,0,1,2.217-3.826.624.624,0,0,0,.4-.961l0-.006a2.935,2.935,0,0,1,1.142-4.268l.008,0a.624.624,0,0,0,.134-1.029ZM38.9,25.8a4.181,4.181,0,0,0,.182,2.693,4.181,4.181,0,0,0-2.556,4.423,4.182,4.182,0,0,0-3.612,3.611,4.181,4.181,0,0,0-4.423,2.557A4.182,4.182,0,0,0,23.554,40.4,4.181,4.181,0,0,0,21,39.535h0a4.181,4.181,0,0,0-2.552.869,4.183,4.183,0,0,0-4.938-1.321,4.181,4.181,0,0,0-4.423-2.556,4.182,4.182,0,0,0-3.611-3.612A4.181,4.181,0,0,0,2.92,28.492,4.183,4.183,0,0,0,3.1,25.8a4.183,4.183,0,0,0-1.5-2.244A4.181,4.181,0,0,0,2.468,21,4.181,4.181,0,0,0,1.6,18.448,4.183,4.183,0,0,0,3.1,16.2a4.181,4.181,0,0,0-.182-2.693A4.181,4.181,0,0,0,5.477,9.087,4.181,4.181,0,0,0,9.088,5.476a4.181,4.181,0,0,0,4.423-2.557,4.182,4.182,0,0,0,2.694.182A4.181,4.181,0,0,0,18.45,1.6,4.182,4.182,0,0,0,21,2.467,4.181,4.181,0,0,0,23.554,1.6,4.183,4.183,0,0,0,25.8,3.1a4.183,4.183,0,0,0,2.693-.182,4.181,4.181,0,0,0,4.423,2.556,4.182,4.182,0,0,0,3.611,3.611,4.183,4.183,0,0,0,2.557,4.424A4.183,4.183,0,0,0,40.4,18.448a4.183,4.183,0,0,0,0,5.1A4.18,4.18,0,0,0,38.9,25.8Z" transform="translate(-0.002 -0.001)"/>
          </g>
        </g>
        <g id="Group_5485" data-name="Group 5485" transform="translate(4.99 4.989)">
          <g id="Group_5484" data-name="Group 5484">
            <path id="Path_6706" data-name="Path 6706" d="M92.7,79.09a.624.624,0,0,0-.441-.24,2.037,2.037,0,0,1,0-4.06.624.624,0,0,0,.563-.727A16.236,16.236,0,0,0,79.578,60.818a.624.624,0,0,0-.727.563,2.037,2.037,0,0,1-4.06,0,.624.624,0,0,0-.727-.563A16.236,16.236,0,0,0,60.819,74.064a.624.624,0,0,0,.563.727,2.037,2.037,0,0,1,0,4.06.624.624,0,0,0-.563.727,16.115,16.115,0,0,0,1.648,4.836.624.624,0,1,0,1.1-.584,14.869,14.869,0,0,1-1.406-3.866,3.284,3.284,0,0,0,0-6.285A14.991,14.991,0,0,1,73.679,62.162a3.284,3.284,0,0,0,6.285,0A14.991,14.991,0,0,1,91.481,73.678a3.284,3.284,0,0,0,0,6.285A14.991,14.991,0,0,1,79.964,91.479a3.284,3.284,0,0,0-6.285,0A14.887,14.887,0,0,1,64.6,85.492a.624.624,0,1,0-1.017.723,16.236,16.236,0,0,0,10.487,6.608.624.624,0,0,0,.727-.563,2.037,2.037,0,0,1,4.06,0,.624.624,0,0,0,.622.572.633.633,0,0,0,.105-.009A16.236,16.236,0,0,0,92.825,79.577.624.624,0,0,0,92.7,79.09Z" transform="translate(-60.81 -60.809)"/>
          </g>
        </g>
        <g id="Group_5487" data-name="Group 5487" transform="translate(18.209 18.208)">
          <g id="Group_5486" data-name="Group 5486">
            <path id="Path_6707" data-name="Path 6707" d="M224.747,221.952a2.793,2.793,0,1,0,2.793,2.793A2.8,2.8,0,0,0,224.747,221.952Zm0,4.338a1.545,1.545,0,1,1,1.545-1.545A1.547,1.547,0,0,1,224.747,226.29Z" transform="translate(-221.954 -221.952)" fill="#ff4612"/>
          </g>
        </g>
        <g id="Group_5489" data-name="Group 5489" transform="translate(9.921 9.92)">
          <g id="Group_5488" data-name="Group 5488">
            <path id="Path_6708" data-name="Path 6708" d="M140.2,124.553a.624.624,0,1,0-.923.839,9.82,9.82,0,1,1-1.781-1.543.624.624,0,1,0,.7-1.034,11.088,11.088,0,1,0,2.006,1.737Z" transform="translate(-120.922 -120.923)"/>
          </g>
        </g>
        <g id="Group_5491" data-name="Group 5491" transform="translate(27.776 20.377)">
          <g id="Group_5490" data-name="Group 5490">
            <path id="Path_6709" data-name="Path 6709" d="M339.207,248.4a.623.623,0,0,0-.623.624h0v.014h0a.624.624,0,0,0,.623.625h0a.624.624,0,0,0,.624-.622v-.017A.623.623,0,0,0,339.207,248.4Z" transform="translate(-338.583 -248.395)" fill="#ff4612"/>
          </g>
        </g>
        <g id="Group_5493" data-name="Group 5493" transform="translate(23.665 27.007)">
          <g id="Group_5492" data-name="Group 5492">
            <path id="Path_6710" data-name="Path 6710" d="M289.646,329.562a.624.624,0,1,0-.281.837h0A.625.625,0,0,0,289.646,329.562Z" transform="translate(-288.463 -329.216)" fill="#ff4612"/>
          </g>
        </g>
        <g id="Group_5495" data-name="Group 5495" transform="translate(25.837 25.371)">
          <g id="Group_5494" data-name="Group 5494">
            <path id="Path_6711" data-name="Path 6711" d="M315.983,309.441a.624.624,0,1,0,.039.881A.622.622,0,0,0,315.983,309.441Z" transform="translate(-314.939 -309.277)" fill="#ff4612"/>
          </g>
        </g>
        <g id="Group_5497" data-name="Group 5497" transform="translate(27.273 23.064)">
          <g id="Group_5496" data-name="Group 5496">
            <path id="Path_6712" data-name="Path 6712" d="M333.3,281.193a.624.624,0,1,0,.354.808A.624.624,0,0,0,333.3,281.193Z" transform="translate(-332.452 -281.15)" fill="#ff4612"/>
          </g>
        </g>
        <g id="Group_5499" data-name="Group 5499" transform="translate(27.279 17.704)">
          <g id="Group_5498" data-name="Group 5498">
            <path id="Path_6713" data-name="Path 6713" d="M333.726,216.208a.623.623,0,1,0-.58.849.609.609,0,0,0,.225-.042A.624.624,0,0,0,333.726,216.208Z" transform="translate(-332.521 -215.81)" fill="#ff4612"/>
          </g>
        </g>
        <g id="Group_5501" data-name="Group 5501" transform="translate(25.846 15.394)">
          <g id="Group_5500" data-name="Group 5500">
            <path id="Path_6714" data-name="Path 6714" d="M316.14,187.851a.624.624,0,1,0-.041.881A.625.625,0,0,0,316.14,187.851Z" transform="translate(-315.055 -187.648)" fill="#ff4612"/>
          </g>
        </g>
        <g id="Group_5503" data-name="Group 5503" transform="translate(15.911 26.275)">
          <g id="Group_5502" data-name="Group 5502">
            <path id="Path_6715" data-name="Path 6715" d="M194.944,320.426a.624.624,0,1,0-.754.994.624.624,0,1,0,.754-.994Z" transform="translate(-193.944 -320.299)" fill="#ff4612"/>
          </g>
        </g>
        <g id="Group_5505" data-name="Group 5505" transform="translate(13.105 19.01)">
          <g id="Group_5504" data-name="Group 5504">
            <path id="Path_6716" data-name="Path 6716" d="M160.478,231.739a.624.624,0,1,0-.229,1.227.679.679,0,0,0,.115.011.624.624,0,0,0,.114-1.238Z" transform="translate(-159.739 -231.729)" fill="#ff4612"/>
          </g>
        </g>
        <g id="Group_5507" data-name="Group 5507" transform="translate(21.049 27.745)">
          <g id="Group_5506" data-name="Group 5506">
            <path id="Path_6717" data-name="Path 6717" d="M257.817,338.79a.624.624,0,1,0-.622.68l.056,0A.624.624,0,0,0,257.817,338.79Z" transform="translate(-256.572 -338.222)" fill="#ff4612"/>
          </g>
        </g>
        <g id="Group_5509" data-name="Group 5509" transform="translate(14.09 16.476)">
          <g id="Group_5508" data-name="Group 5508">
            <path id="Path_6718" data-name="Path 6718" d="M172.693,200.939a.624.624,0,0,0-.659,1.06.624.624,0,0,0,.859-.2A.623.623,0,0,0,172.693,200.939Z" transform="translate(-171.74 -200.846)" fill="#ff4612"/>
          </g>
        </g>
        <g id="Group_5511" data-name="Group 5511" transform="translate(14.081 24.264)">
          <g id="Group_5510" data-name="Group 5510">
            <path id="Path_6719" data-name="Path 6719" d="M172.793,296.076a.623.623,0,1,0-.2.858A.623.623,0,0,0,172.793,296.076Z" transform="translate(-171.638 -295.78)" fill="#ff4612"/>
          </g>
        </g>
        <g id="Group_5513" data-name="Group 5513" transform="translate(15.923 14.469)">
          <g id="Group_5512" data-name="Group 5512">
            <path id="Path_6720" data-name="Path 6720" d="M195.213,176.625a.624.624,0,1,0-.121.873A.623.623,0,0,0,195.213,176.625Z" transform="translate(-194.091 -176.377)" fill="#ff4612"/>
          </g>
        </g>
        <g id="Group_5515" data-name="Group 5515" transform="translate(13.102 21.728)">
          <g id="Group_5514" data-name="Group 5514">
            <path id="Path_6721" data-name="Path 6721" d="M160.941,265.376h0a.624.624,0,1,0-.614.737.667.667,0,0,0,.114-.01A.625.625,0,0,0,160.941,265.376Z" transform="translate(-159.703 -264.865)" fill="#ff4612"/>
          </g>
        </g>
        <g id="Group_5517" data-name="Group 5517" transform="translate(18.342 27.492)">
          <g id="Group_5516" data-name="Group 5516">
            <path id="Path_6722" data-name="Path 6722" d="M224.375,335.154a.624.624,0,1,0-.343,1.2.612.612,0,0,0,.171.024.624.624,0,0,0,.171-1.223Z" transform="translate(-223.58 -335.13)" fill="#ff4612"/>
          </g>
        </g>
        <g id="Group_5519" data-name="Group 5519" transform="translate(23.678 13.753)">
          <g id="Group_5518" data-name="Group 5518">
            <path id="Path_6723" data-name="Path 6723" d="M289.531,167.716a.624.624,0,1,0-.557,1.116.617.617,0,0,0,.278.066.624.624,0,0,0,.28-1.182Z" transform="translate(-288.629 -167.651)" fill="#ff4612"/>
          </g>
        </g>
        <g id="Group_5521" data-name="Group 5521" transform="translate(18.357 13.258)">
          <g id="Group_5520" data-name="Group 5520">
            <path id="Path_6724" data-name="Path 6724" d="M224.984,162.065a.624.624,0,1,0-.6.793.632.632,0,0,0,.171-.023A.624.624,0,0,0,224.984,162.065Z" transform="translate(-223.76 -161.612)" fill="#ff4612"/>
          </g>
        </g>
        <g id="Group_5523" data-name="Group 5523" transform="translate(21.064 13.009)">
          <g id="Group_5522" data-name="Group 5522">
            <path id="Path_6725" data-name="Path 6725" d="M257.444,158.587a.624.624,0,0,0-.114,1.243l.057,0a.624.624,0,0,0,.056-1.245Z" transform="translate(-256.763 -158.585)" fill="#ff4612"/>
          </g>
        </g>
      </g>
    </g>
  </g>
</svg>
