<svg xmlns="http://www.w3.org/2000/svg" width="50" height="50" viewBox="0 0 50 50">
  <g id="Group_6301" data-name="Group 6301" transform="translate(9728 3415)">
    <rect id="Rectangle_518" data-name="Rectangle 518" width="50" height="50" transform="translate(-9728 -3415)" fill="#fff"/>
    <g id="XMLID_1323_" transform="translate(-9736.516 -3479.762)">
      <g id="XMLID_760_" transform="translate(12.515 68.5)">
        <path id="XMLID_1388_" d="M72.847,68.5A21.229,21.229,0,0,0,51.675,88.574a6.484,6.484,0,0,0,0,2.256A21.2,21.2,0,1,0,72.847,68.5Zm10.43,37.011-.262-.453a1.128,1.128,0,0,0-1.953,1.128l.264.457a18.809,18.809,0,0,1-7.35,1.972v-.529a1.128,1.128,0,1,0-2.256,0v.529a18.805,18.805,0,0,1-7.35-1.972l.264-.457a1.128,1.128,0,1,0-1.953-1.128l-.262.453a19.1,19.1,0,0,1-5.38-5.38l.453-.262a1.128,1.128,0,0,0-1.128-1.953l-.457.264a18.809,18.809,0,0,1-1.972-7.35h.529a1.128,1.128,0,1,0,0-2.256h-.529a18.8,18.8,0,0,1,1.972-7.35l.457.264a1.128,1.128,0,0,0,1.128-1.953l-.453-.262a19.1,19.1,0,0,1,5.38-5.38l.262.453a1.128,1.128,0,0,0,1.953-1.128l-.264-.457a18.809,18.809,0,0,1,7.35-1.972v.529a1.128,1.128,0,1,0,2.256,0V70.79a18.805,18.805,0,0,1,7.35,1.972l-.264.457a1.128,1.128,0,1,0,1.953,1.128l.262-.453a19.1,19.1,0,0,1,5.38,5.38l-.453.262a1.128,1.128,0,1,0,1.128,1.953l.457-.264a18.809,18.809,0,0,1,1.972,7.35H91.23a1.128,1.128,0,1,0,0,2.256h.529a18.8,18.8,0,0,1-1.972,7.35l-.457-.264A1.128,1.128,0,0,0,88.2,99.87l.453.262A19.1,19.1,0,0,1,83.277,105.511Z" transform="translate(-51.6 -68.5)" stroke="#fff" stroke-width="0.7"/>
        <path id="XMLID_1439_" d="M224.456,143.176a12.78,12.78,0,1,0,12.78,12.78A12.795,12.795,0,0,0,224.456,143.176Zm0,23.305a10.525,10.525,0,1,1,10.525-10.525A10.537,10.537,0,0,1,224.456,166.481Z" transform="translate(-203.209 -134.754)" stroke="#fff" stroke-width="0.7"/>
        <path id="XMLID_1442_" d="M292.439,219.8a4.139,4.139,0,1,0,4.139,4.139A4.144,4.144,0,0,0,292.439,219.8Zm0,6.022a1.883,1.883,0,1,1,1.883-1.883A1.886,1.886,0,0,1,292.439,225.822Z" transform="translate(-271.192 -202.737)" fill="#ff4612" stroke="#fff" stroke-width="0.7"/>
        <path id="XMLID_1443_" d="M248.925,246.83a1.127,1.127,0,1,0,.33.8A1.136,1.136,0,0,0,248.925,246.83Z" transform="translate(-234.549 -226.426)" fill="#ff4612" stroke="#fff" stroke-width="0.7"/>
        <path id="XMLID_1444_" d="M383,247.628a1.128,1.128,0,1,0,.33-.8A1.136,1.136,0,0,0,383,247.628Z" transform="translate(-355.212 -226.426)" fill="#ff4612" stroke="#fff" stroke-width="0.7"/>
        <path id="XMLID_1445_" d="M316.128,180.756a1.128,1.128,0,1,0-.8-.331A1.136,1.136,0,0,0,316.128,180.756Z" transform="translate(-294.881 -166.095)" fill="#ff4612" stroke="#fff" stroke-width="0.7"/>
        <path id="XMLID_1446_" d="M316.128,314.5a1.128,1.128,0,1,0,.8.33A1.136,1.136,0,0,0,316.128,314.5Z" transform="translate(-294.881 -286.757)" fill="#ff4612" stroke="#fff" stroke-width="0.7"/>
        <path id="XMLID_1447_" d="M364.208,200.676a1.128,1.128,0,1,0-.8-.33A1.136,1.136,0,0,0,364.208,200.676Z" transform="translate(-337.538 -183.768)" fill="#ff4612" stroke="#fff" stroke-width="0.7"/>
        <path id="XMLID_1455_" d="M268.048,294.58a1.128,1.128,0,1,0,.8.33A1.134,1.134,0,0,0,268.048,294.58Z" transform="translate(-252.223 -269.083)" fill="#ff4612" stroke="#fff" stroke-width="0.7"/>
        <path id="XMLID_1456_" d="M364.208,294.58a1.128,1.128,0,1,0,.8.33A1.136,1.136,0,0,0,364.208,294.58Z" transform="translate(-337.538 -269.083)" fill="#ff4612" stroke="#fff" stroke-width="0.7"/>
        <path id="XMLID_1457_" d="M268.048,198.42a1.128,1.128,0,1,0,.8.33A1.129,1.129,0,0,0,268.048,198.42Z" transform="translate(-252.223 -183.768)" fill="#ff4612" stroke="#fff" stroke-width="0.7"/>
      </g>
    </g>
  </g>
</svg>
