<svg xmlns="http://www.w3.org/2000/svg" width="50" height="50" viewBox="0 0 50 50">
  <g id="Group_6276" data-name="Group 6276" transform="translate(-230 -4227)">
    <g id="Group_6284" data-name="Group 6284">
      <rect id="Rectangle_498" data-name="Rectangle 498" width="50" height="50" transform="translate(230 4227)" fill="#fff"/>
      <g id="Page-1" transform="translate(231 4225)">
        <g id="_034---Give-Rental-Car" data-name="034---Give-Rental-Car" transform="translate(0 7)">
          <path id="Shape" d="M49.6,22.944V18.8a2.4,2.4,0,0,0-2.4-2.4H46.1L43.56,11.328A2.4,2.4,0,0,0,41.408,10H28.992a2.4,2.4,0,0,0-2.152,1.328L24.3,16.4H20a2.4,2.4,0,0,0-2.4,2.4v4.144a2.4,2.4,0,0,0,.8,4.656h2.568a4.4,4.4,0,0,0,8.464,0h9.136a4.4,4.4,0,0,0,8.464,0H48.8a2.4,2.4,0,0,0,.8-4.656ZM48,18.8v4H45.32a4.368,4.368,0,0,0-5.04,0H36V20.4a.8.8,0,1,0-1.6,0v2.4H27.72a4.368,4.368,0,0,0-5.04,0H19.2V21.2h1.6a2.4,2.4,0,0,0,2.4-2.4V18h24A.8.8,0,0,1,48,18.8ZM29.112,24.4h9.776A4.168,4.168,0,0,0,38.4,26H29.6A4.168,4.168,0,0,0,29.112,24.4ZM42.128,12.04,44.3,16.4H36V11.6h5.408a.8.8,0,0,1,.72.44Zm-13.856,0a.8.8,0,0,1,.72-.44H34.4v4.8H26.1ZM20,18h1.6v.8a.8.8,0,0,1-.8.8H19.2v-.8A.8.8,0,0,1,20,18Zm-2.4,7.2a.8.8,0,0,1,.248-.568A.744.744,0,0,1,18.4,24.4h2.888A4.168,4.168,0,0,0,20.8,26H18.4A.8.8,0,0,1,17.6,25.2Zm7.6,4A2.8,2.8,0,1,1,28,26.4a2.8,2.8,0,0,1-2.8,2.8Zm17.6,0a2.8,2.8,0,1,1,2.8-2.8A2.8,2.8,0,0,1,42.8,29.2Zm6.552-3.432A.744.744,0,0,1,48.8,26H47.2a4.168,4.168,0,0,0-.464-1.6H48.8a.792.792,0,0,1,.552,1.368Z" transform="translate(-3.2 -10)" stroke="#fff" stroke-width="0.3"/>
          <path id="Shape-2" data-name="Shape" d="M32.8,23.6h1.6a.8.8,0,1,0,0-1.6H32.8a.8.8,0,0,0,0,1.6Z" transform="translate(-6.4 -12.4)" fill="#ff4612" stroke="#fff" stroke-width="0.3"/>
          <path id="Shape-3" data-name="Shape" d="M43.8,23.6h1.6a.8.8,0,0,0,0-1.6H43.8a.8.8,0,1,0,0,1.6Z" transform="translate(-8.6 -12.4)" fill="#ff4612" stroke="#fff" stroke-width="0.3"/>
          <path id="Shape-4" data-name="Shape" d="M44.056,38.344,29.248,43.28a2.4,2.4,0,0,1-.8.12H28a3.688,3.688,0,0,0-.3-3.152l-.072-.12A4.8,4.8,0,0,0,23.544,37.8H19.36A6.528,6.528,0,0,1,15.3,36.376,8.112,8.112,0,0,0,10.24,34.6H8.64A2.4,2.4,0,0,0,6.4,33h-4A2.4,2.4,0,0,0,0,35.4V52.2a2.4,2.4,0,0,0,2.4,2.4h4a2.4,2.4,0,0,0,1.776-.8H28.24a6.336,6.336,0,0,0,3.328-.936L46.56,43.736a2.991,2.991,0,0,0-2.5-5.392ZM6.4,53h-4a.8.8,0,0,1-.8-.8V35.4a.8.8,0,0,1,.8-.8h4a.8.8,0,0,1,.8.8V52.2A.8.8,0,0,1,6.4,53Zm40-11.552a1.384,1.384,0,0,1-.648.928L30.736,51.5a4.8,4.8,0,0,1-2.5.7H8.8v-16h1.44A6.528,6.528,0,0,1,14.3,37.624,8.112,8.112,0,0,0,19.36,39.4h4.184a3.2,3.2,0,0,1,2.744,1.552l.072.12a2.088,2.088,0,0,1-.12,2.328H21.384a8,8,0,0,0-4.44,1.344l-.584.392a.8.8,0,0,0,.88,1.328l.592-.392A6.4,6.4,0,0,1,21.384,45h7.1a4,4,0,0,0,1.264-.208l14.816-4.936a1.392,1.392,0,0,1,1.552.5,1.368,1.368,0,0,1,.28,1.1Z" transform="translate(0 -14.6)" stroke="#fff" stroke-width="0.3"/>
        </g>
      </g>
    </g>
  </g>
</svg>
