<svg xmlns="http://www.w3.org/2000/svg" width="50" height="50" viewBox="0 0 50 50">
  <g id="Group_6286" data-name="Group 6286" transform="translate(9899 3415)">
    <rect id="Rectangle_503" data-name="Rectangle 503" width="50" height="50" transform="translate(-9899 -3415)" fill="#fff"/>
    <g id="_008-car-2" data-name="008-car-2" transform="translate(-9995.315 -3470.309)">
      <path id="Path_6848" data-name="Path 6848" d="M137.528,101.682V59.772a.772.772,0,0,0-.772-.772H117.864a.772.772,0,0,0-.643.345L104.129,79.078A.772.772,0,0,0,104,79.5V90.653a.772.772,0,0,0,.772.772,10.269,10.269,0,0,1,10.257,10.257.772.772,0,0,0,.772.772h20.955A.772.772,0,0,0,137.528,101.682Zm-1.544-.772H116.548a11.819,11.819,0,0,0-11-11V79.738l12.734-19.194h17.707Z" stroke="#fff" stroke-width="0.2"/>
      <path id="Path_6849" data-name="Path 6849" d="M144,116.93v3.034a.765.765,0,0,0,.772.764h23.161a.765.765,0,0,0,.772-.764V99.772a.772.772,0,0,0-.772-.772h-11.7a.772.772,0,0,0-.642.343L144.13,116.5A.772.772,0,0,0,144,116.93Zm1.544.234,11.1-16.62h10.515v18.639H145.544Z" transform="translate(-35.588 -35.588)" stroke="#fff" stroke-width="0.2"/>
      <path id="Path_6850" data-name="Path 6850" d="M289.823,333h-8.051a.772.772,0,1,0,0,1.544h8.051a.772.772,0,1,0,0-1.544Z" transform="translate(-157.479 -243.78)" stroke="#fff" stroke-width="0.2"/>
    </g>
  </g>
</svg>
