<svg xmlns="http://www.w3.org/2000/svg" width="50" height="50" viewBox="0 0 50 50">
  <g id="Group_6288" data-name="Group 6288" transform="translate(9899 3301)">
    <rect id="Rectangle_504" data-name="Rectangle 504" width="50" height="50" transform="translate(-9899 -3301)" fill="#fff"/>
    <g id="_006-exhaust-pipe" data-name="006-exhaust-pipe" transform="translate(-9898 -3292.38)">
      <g id="Group_5525" data-name="Group 5525" transform="translate(0 0)">
        <g id="Group_5524" data-name="Group 5524">
          <path id="Path_6742" data-name="Path 6742" d="M.293,96.909l2.842,2.847a1,1,0,0,0,1.416,0l6.032-6.038a1.352,1.352,0,0,1,1.772,0A7.286,7.286,0,0,0,17.5,95.794h0a7.3,7.3,0,0,0,4.949-1.917l.873.873a1,1,0,0,0,1.416,0l.9-.9a4.1,4.1,0,0,0,5.426-.22L43.647,81.052a4,4,0,0,0,.219-5.427l.9-.9a1,1,0,0,0,0-1.416l-.87-.87,3.875-3.879a1,1,0,0,0,0-1.415l-2.842-2.847a1,1,0,0,0-1.416,0l-3.877,3.882-.878-.878a1,1,0,0,0-1.416,0l-.9.9a4.1,4.1,0,0,0-5.426.22L18.44,81a4,4,0,0,0-.219,5.427l-.9.9a1,1,0,0,0,0,1.416l.854.854a1.288,1.288,0,0,1-1.556-.138,7.414,7.414,0,0,0-10.29,0L.293,95.494A1,1,0,0,0,.293,96.909ZM44.224,66.418l1.426,1.43L42.483,71.02l-1.428-1.428ZM19.856,82.412,32.432,69.836a2.052,2.052,0,0,1,2.832,0l.479.479a1,1,0,0,0,1.416,0l.894-.894,4.592,4.592-.894.894a1,1,0,0,0,0,1.415l.479.481a2,2,0,0,1,0,2.832L29.655,92.211a2.052,2.052,0,0,1-2.832,0l-.479-.479a1,1,0,0,0-1.416,0l-.894.894-4.592-4.592.894-.894a1,1,0,0,0,0-1.415l-.479-.481a2,2,0,0,1,0-2.832ZM7.743,90.872a5.6,5.6,0,0,1,7.454,0,3.3,3.3,0,0,0,4.41.158l1.429,1.429a5.39,5.39,0,0,1-7.264-.156,3.421,3.421,0,0,0-4.6,0L3.843,97.632,2.417,96.2Z" transform="translate(0 -64)" stroke="#fff" stroke-width="0.6"/>
        </g>
      </g>
      <g id="Group_5527" data-name="Group 5527" transform="translate(27.227 18.078)">
        <g id="Group_5526" data-name="Group 5526" transform="translate(0 0)">
          <path id="Path_6743" data-name="Path 6743" d="M133.731,174.925a1,1,0,0,0,1.416,0l6.31-6.309a1,1,0,1,0-1.416-1.416l-6.31,6.309A1,1,0,0,0,133.731,174.925Z" transform="translate(-133.438 -166.907)" fill="#ff4612" stroke="#fff" stroke-width="0.6"/>
        </g>
      </g>
    </g>
  </g>
</svg>
