<svg xmlns="http://www.w3.org/2000/svg" width="50" height="50.082" viewBox="0 0 50 50.082">
  <g id="Group_6291" data-name="Group 6291" transform="translate(9842 3301)">
    <rect id="Rectangle_509" data-name="Rectangle 509" width="50" height="50" transform="translate(-9842 -3301)" fill="#fff"/>
    <g id="_001-air-conditioning" data-name="001-air-conditioning" transform="translate(-9854.5 -3293.853)">
      <g id="Group_5612" data-name="Group 5612" transform="translate(17.5 0)">
        <path id="Path_6830" data-name="Path 6830" d="M79.126,17.725a.629.629,0,0,0,.629-.629V2.359a1.1,1.1,0,0,1,1.1-1.1h20.6a.629.629,0,1,0,0-1.258h-20.6A2.362,2.362,0,0,0,78.5,2.359V17.1A.629.629,0,0,0,79.126,17.725Z" transform="translate(-73.382 0)" fill="#ff4612"/>
        <path id="Path_6831" data-name="Path 6831" d="M57.2,30.247a.827.827,0,0,0-.9-.094l-2.367,1.218c-.226-.34-.566-.872-.974-1.576a.629.629,0,1,0-1.089.63c.789,1.364,1.329,2.1,1.352,2.131a.629.629,0,0,0,.794.186l1.982-1.02-1.611,5.772L48.749,35.45l1.982-1.02a.629.629,0,0,0,.216-.935,31.306,31.306,0,0,1-3.2-6.029A52.134,52.134,0,0,1,43.976,10.9H45.8a47.59,47.59,0,0,0,4.787,17.13.629.629,0,0,0,1.127-.558c-.466-.941-.961-2.028-1.451-3.248a2.362,2.362,0,0,0,2.124-2.347V2.359A2.362,2.362,0,0,0,50.026,0H48.247a.629.629,0,0,0,0,1.258h1.779a1.1,1.1,0,0,1,1.1,1.1V21.876a1.1,1.1,0,0,1-1.1,1.1h-.245q-.248-.673-.488-1.391a1.1,1.1,0,0,0,.576-.967v-17a1.1,1.1,0,0,0-1.1-1.1H26.23a1.1,1.1,0,0,0-1.1,1.1v17a1.1,1.1,0,0,0,.574.965q-.241.723-.487,1.392h-.243a1.1,1.1,0,0,1-1.1-1.1V19.8a.629.629,0,0,0-1.258,0v2.079a2.362,2.362,0,0,0,2.124,2.347c-.242.6-.481,1.167-.712,1.681a38.671,38.671,0,0,1-2.955,5.467l-2.367-1.218a.827.827,0,0,0-1.175.957l2,7.171a.828.828,0,0,0,1.078.555l7-2.54h0a.827.827,0,0,0,.1-1.513l-2.225-1.145A35.855,35.855,0,0,0,28.394,28c.446-1.063.924-2.323,1.389-3.765h5.243V35.888H32.285a.759.759,0,0,0-.557,1.275l5.061,5.462a.969.969,0,0,0,1.421,0l5.061-5.462a.759.759,0,0,0-.557-1.275H39.974V24.235h5.243c.465,1.442.943,2.7,1.389,3.765a35.863,35.863,0,0,0,2.914,5.638L47.3,34.784a.827.827,0,0,0,.1,1.513l7,2.54a.827.827,0,0,0,1.078-.555l2-7.171a.826.826,0,0,0-.274-.863ZM43.561,17.673H39.974V13.9h3.014C43.143,15.221,43.338,16.48,43.561,17.673Zm-3.587,1.258h3.837q.166.787.346,1.53H39.974Zm2.881-6.289H39.974V10.9h2.742q.058.887.139,1.742Zm-16.467-3V5.869H48.611V9.642ZM32.012,13.9h3.014v3.774H31.439C31.662,16.48,31.857,15.221,32.012,13.9Zm-.823,5.031h3.837v1.53H30.843Q31.022,19.717,31.189,18.931Zm3.837-6.289H32.145q.081-.855.139-1.742h2.742Zm-8.2,5.031h-.436V13.9h1.185C27.368,15.223,27.112,16.483,26.825,17.673Zm.927-5.031H26.389V10.9H27.94Q27.862,11.786,27.752,12.642ZM47.426,13.9h1.186v3.774h-.44C47.883,16.477,47.63,15.217,47.426,13.9Zm1.186-3v1.742H47.248q-.109-.856-.189-1.742Zm-.119,8.031h.119v.432Q48.551,19.148,48.492,18.931Zm.119-15.157v.837H26.389V3.774ZM26.389,18.931H26.5c-.038.141-.076.281-.115.42Zm.865,8.535a31.311,31.311,0,0,1-3.2,6.029.629.629,0,0,0,.216.936l1.982,1.02-5.633,2.044-1.611-5.772,1.982,1.02a.629.629,0,0,0,.794-.186c3.524-4.869,6.792-13.415,7.42-21.656h1.821a52.134,52.134,0,0,1-3.77,16.566Zm2.917-4.489q.18-.61.353-1.258h4.5v1.258Zm11.4,14.169-4.073,4.4-4.073-4.4h2.229a.629.629,0,0,0,.629-.629V10.9h2.432V36.517a.629.629,0,0,0,.629.629Zm-1.6-14.169V21.719h4.5q.173.648.353,1.258Z" transform="translate(-17.5 0)"/>
      </g>
    </g>
  </g>
</svg>
