<svg xmlns="http://www.w3.org/2000/svg" width="50" height="50.584" viewBox="0 0 50 50.584">
  <g id="Group_6296" data-name="Group 6296" transform="translate(9785 3415)">
    <rect id="Rectangle_513" data-name="Rectangle 513" width="50" height="50" transform="translate(-9785 -3415)" fill="#fff"/>
    <g id="Group_6278" data-name="Group 6278" transform="translate(-10546.558 -2890.652)">
      <path id="Path_6852" data-name="Path 6852" d="M785.24-499.785c-5.432,0-10.863-.013-16.295.005-3.133.011-5.482,1.661-6.184,4.579a6.06,6.06,0,0,0,.123,3.546,62.725,62.725,0,0,0,4.516,9.209,17.612,17.612,0,0,0,15.266,8.464c7.252.136,14.508.053,21.762.018A6.037,6.037,0,0,0,810.4-481.1q-1.138-6.864-2.407-13.706a6.127,6.127,0,0,0-6.24-4.975c-4-.036-8-.012-12.007-.013h-4.5Zm12.873,24.034a7.294,7.294,0,0,1-.8.1c-5,0-10,.116-15-.038a15.78,15.78,0,0,1-13.185-7.229,63.171,63.171,0,0,1-4.382-8.551c-1.588-3.406.522-6.634,4.291-6.644,8.07-.022,16.139.008,24.209-.013.736,0,.966.251,1.074.955.335,2.184.756,4.356,1.143,6.532Zm-2.246-22.364c2.032,0,3.81,0,5.588,0a7.428,7.428,0,0,1,.96.048,4.387,4.387,0,0,1,3.849,3.373c.5,2.361.86,4.752,1.289,7.177h-9.807Zm2.309,12.38c3.1,0,6.165-.013,9.224.03.206,0,.535.406.587.667.295,1.467.555,2.943.765,4.425a4.3,4.3,0,0,1-3.629,4.878,50.559,50.559,0,0,1-5.271.036c-.565-3.131-1.123-6.212-1.673-9.3A4.929,4.929,0,0,1,798.177-485.736Z" transform="translate(0)" stroke="#fff" stroke-width="0.3"/>
      <path id="Path_6853" data-name="Path 6853" d="M825.542-481.514a7.638,7.638,0,0,0-7.533,7.746,7.773,7.773,0,0,0,7.8,7.528,7.663,7.663,0,0,0,7.493-7.8A7.56,7.56,0,0,0,825.542-481.514Zm.112,13.575A6.116,6.116,0,0,1,819.7-473.9a6.046,6.046,0,0,1,6.052-5.95,5.977,5.977,0,0,1,5.875,6A6.032,6.032,0,0,1,825.654-467.939Z" transform="translate(-39.539 -12.912)" fill="#ff4612"/>
      <path id="Path_6854" data-name="Path 6854" d="M785.84-452.661a5.048,5.048,0,0,0-5.128,5.057,5.045,5.045,0,0,0,5.1,5.089,5.029,5.029,0,0,0,5.124-5.054A5.043,5.043,0,0,0,785.84-452.661Zm3.391,5.073a3.352,3.352,0,0,1-3.408,3.38,3.386,3.386,0,0,1-3.43-3.373,3.4,3.4,0,0,1,3.425-3.378A3.333,3.333,0,0,1,789.231-447.588Z" transform="translate(-12.946 -44.916)"/>
    </g>
  </g>
</svg>
