<svg xmlns="http://www.w3.org/2000/svg" width="50" height="50.37" viewBox="0 0 50 50.37">
  <g id="Group_6290" data-name="Group 6290" transform="translate(9842 3244)">
    <rect id="Rectangle_511" data-name="Rectangle 511" width="50" height="50" transform="translate(-9842 -3244)" fill="#fff"/>
    <g id="Out_line" data-name="Out line" transform="translate(-9854 -3251.752)">
      <path id="Path_6737" data-name="Path 6737" d="M50.095,16.2A.7.7,0,0,0,49.6,16H47.5a.7.7,0,0,0-.495.2l-1.4,1.4a.7.7,0,0,0,0,.99l.2.2L44.7,19.91l-.205-.205a.7.7,0,0,0-.99,0l-7.7,7.7a.7.7,0,0,0,.61,1.186,7.579,7.579,0,0,1,4.2.5,16.118,16.118,0,0,1-10.21,8.41l-1.12.306A7.616,7.616,0,0,0,23.2,40l-7,7a.7.7,0,0,0,0,.99l2.8,2.8a.7.7,0,0,0,.99,0L21.6,49.19l3.21,3.21L23.2,54a.7.7,0,0,0,0,.99l2.8,2.8a.7.7,0,0,0,.99,0l7-7a7.616,7.616,0,0,0,2.2-6.081l.306-1.12a16.118,16.118,0,0,1,8.41-10.21,7.582,7.582,0,0,1,.5,4.2.7.7,0,0,0,1.185.61l7.7-7.7a.7.7,0,0,0,0-.99l-.2-.205,1.11-1.11.205.205a.7.7,0,0,0,.99,0l1.4-1.4A.7.7,0,0,0,58,26.5V24.4a.7.7,0,0,0-.205-.495ZM30.905,47.7a3.26,3.26,0,1,1,.955-2.3,3.26,3.26,0,0,1-.955,2.3Zm-5.6.99a4.667,4.667,0,0,0,6.058.458l1.119,1.119a6.229,6.229,0,0,1-8.753-8.753l1.119,1.119a4.662,4.662,0,0,0,.458,6.058ZM21.086,44.1a7.69,7.69,0,0,0,0,2.592l-1.3-1.3ZM19.5,49.31,17.69,47.5l1.11-1.11,1.81,1.81Zm7,7L24.69,54.5l1.11-1.11,1.81,1.81Zm2.1-2.1-1.3-1.3a7.545,7.545,0,0,0,2.592,0Zm4.872-4.928-1.119-1.119a4.66,4.66,0,0,0-6.516-6.516l-1.119-1.119a6.229,6.229,0,0,1,8.753,8.753Zm6.192-13.835a17.553,17.553,0,0,0-4.174,6.677,7.614,7.614,0,0,0-3.613-3.613,17.518,17.518,0,0,0,9.974-8.757,7.544,7.544,0,0,1,1.166.952l.278.278a7.54,7.54,0,0,1,.952,1.166,17.446,17.446,0,0,0-4.583,3.3Zm7.238.462a8.995,8.995,0,0,0-2.617-5.914l-.278-.278A8.993,8.993,0,0,0,38.091,27.1L44,21.19,52.81,30Zm6.2-7.6L45.69,20.9l1.11-1.11,7.41,7.41Zm3.5-2.1-.7.7L47.09,18.1l.7-.7h1.52l7.29,7.29Z" transform="translate(0 0)" stroke="#fff" stroke-width="0.15"/>
      <path id="Path_6738" data-name="Path 6738" d="M338.1,132.2a2.1,2.1,0,1,0-2.1-2.1A2.1,2.1,0,0,0,338.1,132.2Zm0-2.8a.7.7,0,1,1-.7.7A.7.7,0,0,1,338.1,129.4Z" transform="translate(-292 -102.2)" fill="#fc5719" stroke="#fff" stroke-width="0.15"/>
      <path id="Path_6739" data-name="Path 6739" d="M266.343,263.533l6.1,6.095v4.61a.7.7,0,0,0,.2.495l3.5,3.5a.7.7,0,0,0,.495.205h4.9a.7.7,0,0,0,.495-.205l3.5-3.5a.7.7,0,0,0,.205-.495v-4.9a.7.7,0,0,0-.205-.495l-3.5-3.5a.7.7,0,0,0-.495-.2h-4.61l-6.795-6.795-.99.99,6.505,6.5-2.51,2.51-5.805-5.805Zm10.585,3h4.32l3.09,3.09v4.32l-3.09,3.09h-4.32l-3.09-3.09v-4.32Z" transform="translate(-228.438 -221.138)" stroke="#fff" stroke-width="0.15"/>
      <path id="Path_6740" data-name="Path 6740" d="M19.705,29.095a.7.7,0,0,0,.495.205h4.61L31.6,36.095l.99-.99L26.09,28.6l2.51-2.51L35.8,33.295l.99-.99L29.3,24.81V20.2a.7.7,0,0,0-.205-.5l-3.5-3.5A.7.7,0,0,0,25.1,16H20.2a.7.7,0,0,0-.495,1.195L23.7,21.19v1.52l-.99.99H21.19L17.195,19.7A.7.7,0,0,0,16,20.2v4.9a.7.7,0,0,0,.205.5ZM17.4,21.89l3.005,3.005a.7.7,0,0,0,.495.2H23a.7.7,0,0,0,.495-.2l1.4-1.4A.7.7,0,0,0,25.1,23V20.9a.7.7,0,0,0-.205-.495l-3.005-3h2.92l3.09,3.09v4.32L24.81,27.9H20.49L17.4,24.81Z" transform="translate(0 0)" stroke="#fff" stroke-width="0.15"/>
      <path id="Path_6741" data-name="Path 6741" d="M376.2,380.695l1.4,1.4a.7.7,0,0,0,.495.2h2.1a.7.7,0,0,0,.495-.2l1.4-1.4a.7.7,0,0,0,.2-.495v-2.1a.7.7,0,0,0-.2-.495l-1.4-1.4A.7.7,0,0,0,380.2,376h-2.1a.7.7,0,0,0-.495.205l-1.4,1.4a.7.7,0,0,0-.205.495v2.1A.7.7,0,0,0,376.2,380.695Zm1.195-2.305.99-.99h1.52l.99.99v1.52l-.99.99h-1.52l-.99-.99Z" transform="translate(-328.5 -328.5)" fill="#ff4612" stroke="#fff" stroke-width="0.15"/>
      <rect id="Rectangle_401" data-name="Rectangle 401" width="1.4" height="6.435" transform="translate(28.105 29.095) rotate(-45.002)" stroke="#fff" stroke-width="0.15"/>
      <rect id="Rectangle_402" data-name="Rectangle 402" width="1.4" height="6.435" transform="translate(39.655 40.645) rotate(-45.002)" stroke="#fff" stroke-width="0.15"/>
    </g>
  </g>
</svg>
