<svg xmlns="http://www.w3.org/2000/svg" width="50" height="50.101" viewBox="0 0 50 50.101">
  <g id="Group_6298" data-name="Group 6298" transform="translate(9785 3301)">
    <rect id="Rectangle_514" data-name="Rectangle 514" width="50" height="50" transform="translate(-9785 -3301)" fill="#fff"/>
    <g id="_002---Car-Sensors" data-name="002---Car-Sensors" transform="translate(-9784.996 -3286.379)">
      <path id="Shape" d="M22.726,28.731l-3.931-.562A1.572,1.572,0,0,0,17,29.725v1.452a1.572,1.572,0,0,0,1.572,1.572H22.5a1.572,1.572,0,0,0,1.572-1.572v-.891A1.579,1.579,0,0,0,22.726,28.731Zm-4.154,2.447V29.725l3.931.561v.891Z" transform="translate(-3.421 -6.018)" stroke="#fff" stroke-width="0.2"/>
      <path id="Shape-2" data-name="Shape" d="M41.281,28.169l-3.931.562A1.579,1.579,0,0,0,36,30.287v.891a1.572,1.572,0,0,0,1.572,1.572H41.5a1.572,1.572,0,0,0,1.572-1.572V29.725a1.572,1.572,0,0,0-1.795-1.557Zm.223,3.009H37.572v-.891l3.931-.561Z" transform="translate(-7.483 -6.018)" stroke="#fff" stroke-width="0.2"/>
      <path id="Shape-3" data-name="Shape" d="M31.931,28H28.786a.786.786,0,0,0,0,1.572h3.145a.786.786,0,1,0,0-1.572Z" transform="translate(-5.772 -5.986)" stroke="#fff" stroke-width="0.2"/>
      <path id="Shape-4" data-name="Shape" d="M31.931,32H28.786a.786.786,0,0,0,0,1.572h3.145a.786.786,0,1,0,0-1.572Z" transform="translate(-5.772 -6.841)" stroke="#fff" stroke-width="0.2"/>
      <path id="Shape-5" data-name="Shape" d="M23.786,17.148c.427,0,.444-.119,2.128-1.8A.786.786,0,0,0,24.8,14.233L23.23,15.805a.786.786,0,0,0,.556,1.342Z" transform="translate(-4.704 -2.995)" stroke="#fff" stroke-width="0.2"/>
      <path id="Shape-6" data-name="Shape" d="M25.23,20.062a.786.786,0,0,0,1.112,0l4.717-4.717a.786.786,0,0,0-1.112-1.112L25.23,18.95a.786.786,0,0,0,0,1.112Z" transform="translate(-5.131 -2.995)" stroke="#fff" stroke-width="0.2"/>
      <path id="Shape-7" data-name="Shape" d="M2.115,11.692a.786.786,0,0,0,.754-1.01A7.083,7.083,0,0,1,13,2.42a.786.786,0,0,0,.754-1.38A8.644,8.644,0,0,0,1.362,11.128a.786.786,0,0,0,.753.564Z" transform="translate(0 0)" fill="#ff4612" stroke="#fff" stroke-width="0.2"/>
      <path id="Shape-8" data-name="Shape" d="M13.44,5.713a.786.786,0,0,0-.327-1.063,5.516,5.516,0,0,0-7.884,6.427.786.786,0,0,0,1.51-.44,3.942,3.942,0,0,1,5.639-4.6.786.786,0,0,0,1.063-.327Z" transform="translate(-0.857 -0.856)" fill="#ff4612" stroke="#fff" stroke-width="0.2"/>
      <path id="Shape-9" data-name="Shape" d="M11.737,9.669a.786.786,0,1,0,.743-1.386,2.359,2.359,0,0,0-3.366,2.774.787.787,0,1,0,1.494-.5.786.786,0,0,1,1.129-.889Z" transform="translate(-1.713 -1.711)" fill="#ff4612" stroke="#fff" stroke-width="0.2"/>
      <path id="Shape-10" data-name="Shape" d="M48.771,0a8.589,8.589,0,0,0-4.1,1.04.786.786,0,1,0,.754,1.38A7.083,7.083,0,0,1,55.55,10.682a.786.786,0,1,0,1.507.447A8.657,8.657,0,0,0,48.771,0Z" transform="translate(-9.247 0)" fill="#ff4612" stroke="#fff" stroke-width="0.2"/>
      <path id="Shape-11" data-name="Shape" d="M53.478,11.611a.786.786,0,0,0,.974-.535A5.516,5.516,0,0,0,46.568,4.65.786.786,0,1,0,47.3,6.04a3.942,3.942,0,0,1,5.639,4.6.786.786,0,0,0,.535.974Z" transform="translate(-9.652 -0.856)" fill="#ff4612" stroke="#fff" stroke-width="0.2"/>
      <path id="Shape-12" data-name="Shape" d="M50.835,11.553a.786.786,0,0,0,.995-.5,2.359,2.359,0,0,0-3.366-2.774.786.786,0,1,0,.743,1.386.786.786,0,0,1,1.132.889.786.786,0,0,0,.5.995Z" transform="translate(-10.058 -1.711)" fill="#ff4612" stroke="#fff" stroke-width="0.2"/>
      <path id="Shape-13" data-name="Shape" d="M47.388,35.946H37.022c.193-.542.145-.479.145-4.076a2.359,2.359,0,0,0,1.572-2.214V24.938a3.912,3.912,0,0,0-1.107-2.724,2.359,2.359,0,0,0-1.252-4.353H34.5l-1.267-4.441A4.738,4.738,0,0,0,28.7,10H20.476a4.738,4.738,0,0,0-4.537,3.422l-1.267,4.441H12.794a2.359,2.359,0,0,0-1.25,4.351,3.912,3.912,0,0,0-1.109,2.725v4.717a2.359,2.359,0,0,0,1.572,2.214c0,3.617-.047,3.538.145,4.076H1.786a.786.786,0,1,0,0,1.572h45.6a.786.786,0,0,0,0-1.572Zm-10.221-6.29a.786.786,0,0,1-.786.786H12.794a.786.786,0,0,1-.786-.786V24.938a2.359,2.359,0,0,1,2.359-2.359H34.808a2.359,2.359,0,0,1,2.359,2.359ZM17.511,32.015H31.663c0,3.412-.049,3.387.145,3.931H17.366c.193-.54.145-.484.145-3.931Zm18.87-12.58a.786.786,0,0,1,.546,1.346c-.3.307-.62.226-1.525.226l-.449-1.572ZM17.452,13.853a3.159,3.159,0,0,1,3.024-2.28H28.7a3.159,3.159,0,0,1,3.024,2.28l2.044,7.155H15.409Zm-4.658,5.582h1.429l-.449,1.572c-.982,0-1.237.069-1.539-.241a.786.786,0,0,1,.56-1.332Zm1.572,16.511a.786.786,0,0,1-.786-.786V32.015h2.359v3.145a.786.786,0,0,1-.786.786Zm19.656,0a.786.786,0,0,1-.786-.786V32.015h2.359v3.145a.786.786,0,0,1-.786.786Z" transform="translate(-0.001 -2.138)" stroke="#fff" stroke-width="0.2"/>
    </g>
  </g>
</svg>
