<svg xmlns="http://www.w3.org/2000/svg" width="50" height="50.63" viewBox="0 0 50 50.63">
  <g id="Group_6300" data-name="Group 6300" transform="translate(9728 3472)">
    <rect id="Rectangle_517" data-name="Rectangle 517" width="50" height="50" transform="translate(-9728 -3472)" fill="#fff"/>
    <g id="_006-damper" data-name="006-damper" transform="translate(-9729 -3467.628)">
      <path id="Path_6840" data-name="Path 6840" d="M16.913,10.827A2.913,2.913,0,1,0,14,7.913,2.916,2.916,0,0,0,16.913,10.827Zm0-4.37a1.457,1.457,0,1,1-1.457,1.457A1.458,1.458,0,0,1,16.913,6.457Z" transform="translate(-1.087 -1.087)" fill="#ff4612" stroke="#fff" stroke-width="0.2"/>
      <path id="Path_6841" data-name="Path 6841" d="M14,53.913A2.913,2.913,0,1,0,16.913,51,2.916,2.916,0,0,0,14,53.913Zm4.37,0a1.457,1.457,0,1,1-1.457-1.457A1.458,1.458,0,0,1,18.37,53.913Z" transform="translate(-1.087 -13.582)" fill="#ff4612" stroke="#fff" stroke-width="0.2"/>
      <path id="Path_6842" data-name="Path 6842" d="M44.913,51a2.913,2.913,0,1,0,2.913,2.913A2.916,2.916,0,0,0,44.913,51Zm0,4.37a1.457,1.457,0,1,1,1.457-1.457A1.458,1.458,0,0,1,44.913,55.37Z" transform="translate(-8.693 -13.582)" fill="#ff4612" stroke="#fff" stroke-width="0.2"/>
      <path id="Path_6843" data-name="Path 6843" d="M46.74,35.291V30.728A2.182,2.182,0,0,0,48.2,28.677V14.839a2.182,2.182,0,0,0-1.457-2.051v-.921a5.827,5.827,0,1,0-5.827,0v.921a2.182,2.182,0,0,0-1.457,2.051V28.677a2.182,2.182,0,0,0,1.457,2.051v4.562a5.827,5.827,0,1,0,5.827,0ZM39.457,6.827A4.37,4.37,0,1,1,45.7,10.77l-.415.2v1.685H42.37V10.968l-.415-.2A4.392,4.392,0,0,1,39.457,6.827Zm1.457,8.012a.729.729,0,0,1,.728-.728h4.37a.729.729,0,0,1,.728.728V28.677a.729.729,0,0,1-.728.728h-4.37a.729.729,0,0,1-.728-.728ZM43.827,44.7a4.367,4.367,0,0,1-1.872-8.313l.415-.2V30.862h2.913V36.19l.415.2A4.367,4.367,0,0,1,43.827,44.7Z" transform="translate(-7.606)" stroke="#fff" stroke-width="0.2"/>
      <path id="Path_6844" data-name="Path 6844" d="M21.654,6.827a5.827,5.827,0,1,0-8.74,5.04v.921a2.182,2.182,0,0,0-1.457,2.051v5.827a2.182,2.182,0,0,0,1.457,2.051v1.591h-.728a2.185,2.185,0,1,0,0,4.37h.728v1.457h-.728a2.185,2.185,0,1,0,0,4.37h.728v.787a5.827,5.827,0,1,0,5.827,0V34.5h.728a2.185,2.185,0,0,0,0-4.37H18.74V28.677h.728a2.185,2.185,0,0,0,0-4.37H18.74V22.716A2.182,2.182,0,0,0,20.2,20.665V14.839a2.182,2.182,0,0,0-1.457-2.051v-.921A5.857,5.857,0,0,0,21.654,6.827Zm-10.2,0A4.37,4.37,0,1,1,17.7,10.77l-.415.2v1.685H14.37V10.968l-.415-.2A4.392,4.392,0,0,1,11.457,6.827ZM17.7,36.388a4.37,4.37,0,1,1-3.744,0l.415-.2V34.5h2.913V36.19Zm2.5-4.069a.729.729,0,0,1-.728.728H12.185a.728.728,0,1,1,0-1.457h7.284A.729.729,0,0,1,20.2,32.319Zm-2.913-2.185H14.37V28.677h2.913ZM20.2,26.492a.729.729,0,0,1-.728.728H12.185a.728.728,0,1,1,0-1.457h7.284A.729.729,0,0,1,20.2,26.492ZM14.37,24.307V22.851h2.913v1.457Zm4.37-3.642a.729.729,0,0,1-.728.728h-4.37a.729.729,0,0,1-.728-.728V14.839a.729.729,0,0,1,.728-.728h4.37a.729.729,0,0,1,.728.728Z" stroke="#fff" stroke-width="0.2"/>
      <path id="Path_6845" data-name="Path 6845" d="M44.913,10.827A2.913,2.913,0,1,0,42,7.913,2.916,2.916,0,0,0,44.913,10.827Zm0-4.37a1.457,1.457,0,1,1-1.457,1.457A1.458,1.458,0,0,1,44.913,6.457Z" transform="translate(-8.693 -1.087)" fill="#ff4612" stroke="#fff" stroke-width="0.2"/>
      <path id="Path_6846" data-name="Path 6846" d="M16,21h2.913v1.457H16Z" transform="translate(-1.63 -5.433)" stroke="#fff" stroke-width="0.2"/>
      <path id="Path_6847" data-name="Path 6847" d="M16,25h2.913v1.457H16Z" transform="translate(-1.63 -6.52)" stroke="#fff" stroke-width="0.2"/>
    </g>
  </g>
</svg>
