<svg xmlns="http://www.w3.org/2000/svg" xmlns:xlink="http://www.w3.org/1999/xlink" width="50" height="50.167" viewBox="0 0 50 50.167">
  <defs>
    <clipPath id="clip-path">
      <rect width="50" height="50.167" fill="none"/>
    </clipPath>
  </defs>
  <g id="Repeat_Grid_6" data-name="Repeat Grid 6" clip-path="url(#clip-path)">
    <g id="Group_6299" data-name="Group 6299" transform="translate(9785 3244)">
      <rect id="Rectangle_516" data-name="Rectangle 516" width="50" height="50" transform="translate(-9785 -3244)" fill="#fff"/>
      <g id="key" transform="translate(-9778.97 -3237.74)">
        <path id="Path_6856" data-name="Path 6856" d="M210.138,207.887a.641.641,0,0,0-.642.642v1.065a.642.642,0,1,0,1.283,0v-1.065A.642.642,0,0,0,210.138,207.887Zm0,0" transform="translate(-191.115 -190.101)" fill="#ff4612"/>
        <path id="Path_6857" data-name="Path 6857" d="M48.821,207.887a.642.642,0,0,0-.642.642v1.065a.642.642,0,0,0,1.283,0v-1.065A.641.641,0,0,0,48.821,207.887Zm0,0" transform="translate(-43.601 -190.101)" fill="#ff4612"/>
        <path id="Path_6858" data-name="Path 6858" d="M110.091,220.474a2.557,2.557,0,0,1-3.135,0,.642.642,0,0,0-.786,1.014,3.839,3.839,0,0,0,4.708,0,.642.642,0,1,0-.787-1.014Zm0,0" transform="translate(-96.402 -201.487)" fill="#ff4612"/>
        <path id="Path_6859" data-name="Path 6859" d="M40.1,23.369,35.72,12.5a7.125,7.125,0,0,0-6.936-4.453,9.958,9.958,0,0,0-2.058-4.372.642.642,0,0,0-.994.811,8.676,8.676,0,0,1,1.78,3.739c-.355.083-2.159.778-2.159.778a6.432,6.432,0,0,0-12.789.975,6.383,6.383,0,0,0,.986,3.42H11a8.59,8.59,0,0,1-.7-3.42A8.69,8.69,0,0,1,23.857,2.773a.642.642,0,1,0,.72-1.062A9.912,9.912,0,0,0,19,0C12.122,0,9.584,6.664,9.584,6.664,4.284,6.738.5,10.561.5,15.352v5.088a6,6,0,0,0,6,6h8.745v2.172a1.79,1.79,0,0,1-.718,1.43L12.9,31.242a.642.642,0,0,0,0,1.03l1.78,1.325a1.4,1.4,0,0,1,.557,1.115v.026a1.33,1.33,0,0,1-.534,1.062l-1.8,1.342a.642.642,0,0,0,0,1.03l1.619,1.2a1.791,1.791,0,0,1,.718,1.43,2.481,2.481,0,0,1-.217.9,1.362,1.362,0,0,1-1.372.812H10.593A1.591,1.591,0,0,1,9,40.934V28.355a.642.642,0,0,0-1.283,0V40.934a2.876,2.876,0,0,0,2.873,2.873H13.65a2.651,2.651,0,0,0,2.532-1.546,3.689,3.689,0,0,0,.341-1.454,3.08,3.08,0,0,0-1.235-2.46l-.927-.69,1.112-.828a2.619,2.619,0,0,0,1.051-2.092v-.026a2.685,2.685,0,0,0-1.075-2.145l-1.088-.81.927-.691a3.08,3.08,0,0,0,1.235-2.46V26.435h1.226a5.975,5.975,0,0,0,2.025-.353l1.894,4.7a4.537,4.537,0,0,0,5.887,2.507l10.033-4.039A4.524,4.524,0,0,0,40.1,23.369ZM19,4.829A5.166,5.166,0,0,1,24.121,9.5l-2,.8a8.682,8.682,0,0,0-7.063-3.64A5.141,5.141,0,0,1,19,4.829Zm6.168,8.049a1.8,1.8,0,0,1,1.924.274,8.8,8.8,0,0,1-3.345,4.106V15.352a8.718,8.718,0,0,0-.074-1.132,11.345,11.345,0,0,1,1.495-1.342Zm1.357,3.638A10.094,10.094,0,0,0,27.833,14.6,1.679,1.679,0,0,1,26.522,16.516ZM23.609,21.75,32.434,18.2a1.134,1.134,0,0,1,1.474.628A1.181,1.181,0,0,1,33.28,20.3l-8.825,3.553a1.057,1.057,0,0,1-1.439-.552,5.943,5.943,0,0,0,.586-1.568ZM9.085,11.147a9.824,9.824,0,0,0,.54,2.261H8.939a1.132,1.132,0,0,1-1.131-1.13c0-1.143,1.277-1.131,1.277-1.131Zm6.075,2.261a5.113,5.113,0,0,1-1.178-2.261H15.3a1.135,1.135,0,1,1-.144,2.261ZM6.495,25.151a4.717,4.717,0,0,1-4.712-4.712V15.352a7.413,7.413,0,0,1,7.4-7.4h.038a9.974,9.974,0,0,0-.207,1.916,2.392,2.392,0,0,0-2.494,2.414,2.417,2.417,0,0,0,2.414,2.414H15.3a2.414,2.414,0,1,0,0-4.828H13.85a5.119,5.119,0,0,1,.415-1.916h.79a7.413,7.413,0,0,1,7.4,7.4v5.088a4.717,4.717,0,0,1-4.712,4.712ZM38.88,26.328a3.219,3.219,0,0,1-1.772,1.736L27.075,32.1a3.245,3.245,0,0,1-4.217-1.8l-1.928-4.79a6.052,6.052,0,0,0,1.3-1.1,2.132,2.132,0,0,0,2.7.629L33.76,21.49a2.416,2.416,0,1,0-1.8-4.483l-8.211,3.305V18.753a9.956,9.956,0,0,0,1.409-.931,3.479,3.479,0,0,0,1.943-.148,3.227,3.227,0,0,0,.059-5.962,3.339,3.339,0,0,0-3.823,1,8.65,8.65,0,0,0-.533-1.295s5.052-1.971,5.519-2.036h.015l.017,0a5.837,5.837,0,0,1,6.178,3.605L38.9,23.848a3.219,3.219,0,0,1-.024,2.481Zm0,0" stroke="#fff" stroke-width="0.2"/>
        <path id="Path_6860" data-name="Path 6860" d="M282.768,258.4l-8.825,3.553A2.552,2.552,0,0,0,272.6,265.1a2.336,2.336,0,0,0,3.144,1.339l8.825-3.553a2.416,2.416,0,0,0-1.8-4.483Zm1.326,3.293-8.825,3.553a1.135,1.135,0,0,1-1.474-.628,1.111,1.111,0,0,1,.628-1.474l8.825-3.553a1.133,1.133,0,1,1,.846,2.1Zm0,0" transform="translate(-248.701 -236.147)"/>
      </g>
    </g>
  </g>
</svg>
