<svg xmlns="http://www.w3.org/2000/svg" width="50" height="50.081" viewBox="0 0 50 50.081">
  <g id="Group_6302" data-name="Group 6302" transform="translate(9728 3358)">
    <rect id="Rectangle_520" data-name="Rectangle 520" width="50" height="50" transform="translate(-9728 -3358)" fill="#fff"/>
    <g id="Group_6279" data-name="Group 6279" transform="translate(-10153.013 -2727.662)">
      <path id="Path_6855" data-name="Path 6855" d="M451.795-588.723v5.683l.367.14c.714-.8,1.423-1.606,2.148-2.4a5,5,0,0,1,1.08-1.03.635.635,0,0,1,.276-.074.7.7,0,0,1,.74.875.38.38,0,0,1-.085.157c-1.537,1.6-3.121,3.158-4.7,4.719a.794.794,0,0,1-1.24-.039c-1.553-1.542-3.12-3.072-4.63-4.655a.385.385,0,0,1-.087-.166.715.715,0,0,1,.854-.867.44.44,0,0,1,.18.085c.765.64,1.448,1.378,2.148,2.093.4.408.775.84,1.16,1.262l.232-.091v-5.7h-1.178q-8.772,0-17.544,0c-1.431,0-1.5-.081-1.5-1.47q0-12.666,0-25.332c0-2.625,1.348-4.019,3.965-4.022q13.182-.016,26.363.009c2.27,0,3.37.835,4,3.05q3.8,13.285,7.576,26.578c.254.891,0,1.182-1.076,1.183q-8.585.013-17.169.007Zm-20.387-1.51h18.849v-7.185c-.525.5-.924.872-1.314,1.254-.759.745-1.478,1.536-2.29,2.216a.463.463,0,0,1-.291.084.707.707,0,0,1-.717-.889.386.386,0,0,1,.087-.157c1.537-1.6,3.1-3.178,4.718-4.7a1.133,1.133,0,0,1,1.1-.036c1.638,1.544,3.227,3.141,4.783,4.767a.337.337,0,0,1,.078.153.706.706,0,0,1-.762.849.511.511,0,0,1-.3-.1c-.83-.708-1.57-1.522-2.351-2.289-.362-.355-.741-.691-1.194-1.112v7.146h18.534c-.061-.248-.092-.4-.134-.546q-3.634-12.75-7.276-25.5c-.412-1.438-1.061-1.869-2.623-1.869q-12.949,0-25.9,0c-2.372,0-3.006.629-3.006,3q0,10.885,0,21.769Z" transform="translate(0 0)" stroke="#fff" stroke-width="0.2"/>
      <path id="Path_6875" data-name="Path 6875" d="M451.795-588.723v5.683l.367.14c.714-.8,1.423-1.606,2.148-2.4a5,5,0,0,1,1.08-1.03.635.635,0,0,1,.276-.074.7.7,0,0,1,.74.875.38.38,0,0,1-.085.157c-1.537,1.6-3.121,3.158-4.7,4.719a.794.794,0,0,1-1.24-.039c-1.553-1.542-3.12-3.072-4.63-4.655a.385.385,0,0,1-.087-.166.715.715,0,0,1,.854-.867.44.44,0,0,1,.18.085c.765.64,1.448,1.378,2.148,2.093.4.408.775.84,1.16,1.262l.232-.091v-5.7h-1.178c-5.848,0,10.342,0,4.619,0Zm-1.538-1.51v-7.185c-.525.5-.924.872-1.314,1.254-.759.745-1.478,1.536-2.29,2.216a.463.463,0,0,1-.291.084.707.707,0,0,1-.717-.889.386.386,0,0,1,.087-.157c1.537-1.6,3.1-3.178,4.718-4.7a1.133,1.133,0,0,1,1.1-.036c1.638,1.544,3.227,3.141,4.783,4.767a.337.337,0,0,1,.078.153.706.706,0,0,1-.762.849.511.511,0,0,1-.3-.1c-.83-.708-1.57-1.522-2.351-2.289-.362-.355-.741-.691-1.194-1.112v5.852s0,.672,0,1.292C452.226-590.195,454.4-590.315,450.257-590.233Z" fill="#ff4612"/>
    </g>
  </g>
</svg>
