<svg xmlns="http://www.w3.org/2000/svg" width="50.764" height="50" viewBox="0 0 50.764 50">
  <g id="Group_6307" data-name="Group 6307" transform="translate(9956.764 3358)">
    <g id="Group_6306" data-name="Group 6306">
      <g id="Group_6274" data-name="Group 6274" transform="translate(-10237 -6353)">
        <g id="Group_6282" data-name="Group 6282">
          <rect id="Rectangle_496" data-name="Rectangle 496" width="50" height="50" transform="translate(281 2995)" fill="#fff"/>
        </g>
      </g>
      <g id="Group_6305" data-name="Group 6305" transform="translate(-11036.246 -4828.66)">
        <path id="Path_3048" data-name="Path 3048" d="M4.963,10.917A5.054,5.054,0,0,1,0,5.961,4.742,4.742,0,0,1,4.834,1.134,5.054,5.054,0,0,1,9.8,6.09,4.748,4.748,0,0,1,4.963,10.917ZM4.852,2.464A3.452,3.452,0,0,0,1.585,4.618,3.65,3.65,0,0,0,6.308,9.335,3.449,3.449,0,0,0,8.466,6.073,3.687,3.687,0,0,0,4.852,2.464ZM39.892,12.974A6.71,6.71,0,0,1,33.838,8.89,6.394,6.394,0,0,1,35.153,1.84,6.417,6.417,0,0,1,42.213.527,6.7,6.7,0,0,1,46.3,6.573,6.3,6.3,0,0,1,39.892,12.974ZM39.738,1.323a5,5,0,0,0-5.1,5.087,5.328,5.328,0,0,0,5.228,5.228,5,5,0,0,0,5.1-5.082A5.337,5.337,0,0,0,39.738,1.33V1.323Z" transform="translate(1082.921 1508.016) rotate(-45)"/>
        <path id="Path_3049" data-name="Path 3049" d="M36.964,4.529A2.1,2.1,0,0,1,34.9,2.469,1.972,1.972,0,0,1,36.911.462a2.1,2.1,0,0,1,2.064,2.061A1.978,1.978,0,0,1,36.964,4.529Zm-.036-2.738a.684.684,0,0,0-.646.426.722.722,0,0,0,.934.933.682.682,0,0,0,.427-.645.728.728,0,0,0-.715-.714ZM2.057,4.068A2.1,2.1,0,0,1,0,2,1.971,1.971,0,0,1,2.012,0,2.1,2.1,0,0,1,4.073,2.061,1.978,1.978,0,0,1,2.057,4.068ZM2.02,1.329a.683.683,0,0,0-.689.7.728.728,0,0,0,.717.709.683.683,0,0,0,.694-.7.729.729,0,0,0-.722-.714Z" transform="translate(1087.772 1508.81) rotate(-45)" fill="#ff4612"/>
        <path id="Path_3050" data-name="Path 3050" d="M42.318,18.058l-.558-.007L6.591,15.472A7.152,7.152,0,0,1,0,8.481,6.7,6.7,0,0,1,6.408,1.661L41.521.013a9.322,9.322,0,0,1,8.293,4.278,9.051,9.051,0,0,1,.407,9.222,8.776,8.776,0,0,1-7.9,4.565v-.02Zm-.5-1.335a7.5,7.5,0,0,0,7.058-3.6,7.7,7.7,0,0,0-.106-8,7.953,7.953,0,0,0-7.155-3.787L6.5,2.971A5.414,5.414,0,0,0,1.361,8.479a5.778,5.778,0,0,0,5.286,5.645l35.175,2.6Z" transform="translate(1079.482 1507.876) rotate(-45)"/>
      </g>
    </g>
  </g>
</svg>
