<svg xmlns="http://www.w3.org/2000/svg" width="50" height="50.327" viewBox="0 0 50 50.327">
  <g id="Group_6275" data-name="Group 6275" transform="translate(-214 -3301)">
    <g id="Group_6283" data-name="Group 6283">
      <rect id="Rectangle_497" data-name="Rectangle 497" width="50" height="50" transform="translate(214 3301)" fill="#fff"/>
      <g id="replace-front-brake-pads" transform="translate(216 3306.541)">
        <g id="Group_4390" data-name="Group 4390" transform="translate(0)">
          <path id="Path_3051" data-name="Path 3051" d="M32.514,10.293a21.077,21.077,0,0,0-4.8.559l-.148-.532a2.46,2.46,0,0,0-.878-1.291h0a2.338,2.338,0,0,0-2.271-.37A24.357,24.357,0,0,0,8.288,29.981a2.447,2.447,0,0,0,2.437,2.61h.54a21.272,21.272,0,1,0,21.248-22.3ZM10.271,30.557a.6.6,0,0,1-.161-.45A22.523,22.523,0,0,1,25.024,10.387a.575.575,0,0,1,.472.035.616.616,0,0,1,.312.387l.384,1.39v0l2.107,7.63a.632.632,0,0,1-.393.745,12.022,12.022,0,0,0-7.269,9.67.6.6,0,0,1-.6.507H10.725a.615.615,0,0,1-.454-.2ZM32.513,51.221a19.514,19.514,0,0,1-19.422-18.63h6.948a2.419,2.419,0,0,0,2.412-2.126,10.186,10.186,0,0,1,6.16-8.192,2.48,2.48,0,0,0,1.449-2.929L28.2,12.62a19.262,19.262,0,0,1,4.311-.493,19.547,19.547,0,0,1,0,39.093Z" transform="translate(-8.283 -8.52)" stroke="#fafafa" stroke-width="0.5"/>
          <path id="Path_3052" data-name="Path 3052" d="M40.963,30.34A9.156,9.156,0,1,0,50.072,39.5,9.142,9.142,0,0,0,40.963,30.34Zm0,17.088A7.933,7.933,0,1,1,48.855,39.5,7.921,7.921,0,0,1,40.963,47.428Z" transform="translate(-16.733 -16.342)" stroke="#000" stroke-width="0.1"/>
          <path id="Path_3053" data-name="Path 3053" d="M39.342,44.628a1.015,1.015,0,1,0,1.01,1.014A1.012,1.012,0,0,0,39.342,44.628Zm6.445,0A1.015,1.015,0,1,0,46.8,45.642a1.011,1.011,0,0,0-1.009-1.014Zm1-5.168A1.009,1.009,0,1,0,47.8,38.445,1.012,1.012,0,0,0,46.79,39.46Zm-9.464-1.015a1.015,1.015,0,1,0,1.01,1.015,1.012,1.012,0,0,0-1.01-1.015Zm5.237-1.8a1.015,1.015,0,1,0-1.009-1.015,1.012,1.012,0,0,0,1.009,1.015Z" transform="translate(-18.332 -17.875)" fill="#ff4612"/>
          <path id="Path_3054" data-name="Path 3054" d="M47.534,42.727A3.356,3.356,0,1,0,44.177,46.1,3.368,3.368,0,0,0,47.534,42.727Zm-3.356,2.15a2.15,2.15,0,1,1,2.139-2.15A2.147,2.147,0,0,1,44.178,44.877Z" transform="translate(-19.947 -19.573)" fill="#ff4612" stroke="#ff4612" stroke-width="0.1"/>
        </g>
      </g>
    </g>
  </g>
</svg>
