<svg xmlns="http://www.w3.org/2000/svg" width="50" height="50" viewBox="0 0 50 50">
  <g id="Group_6287" data-name="Group 6287" transform="translate(9899 3358)">
    <path id="Path_7255" data-name="Path 7255" d="M0,0H50V50H0Z" transform="translate(-9899 -3358)" fill="#fff"/>
    <g id="car-engine" transform="translate(-9898.002 -3384.967)">
      <path id="Path_6870" data-name="Path 6870" d="M46.347,46.208l-8.292-8.292a3.4,3.4,0,0,0-4.453-.335l-4.479,3.3a.694.694,0,0,0-.079,1.049l1.079,1.079-4.742,4.742H21.973l-4.742-4.742,1.08-1.08a.693.693,0,0,0-.079-1.049l-4.479-3.3a3.4,3.4,0,0,0-4.453.335L7.987,39.23a.694.694,0,1,0,.981.981L10.281,38.9a2.024,2.024,0,0,1,2.649-.2l1.49,1.1L2.888,51.329l-1.1-1.49a2.027,2.027,0,0,1,.2-2.65l5.017-5.017a.694.694,0,0,0-.981-.981L1.008,46.208a3.406,3.406,0,0,0-.335,4.454l3.3,4.479a.694.694,0,0,0,.506.28l.052,0a.694.694,0,0,0,.49-.2L6.1,54.14l.805.805A7.738,7.738,0,0,0,10.467,68.41a5.933,5.933,0,0,0,3.819,4.469V75.37a2.065,2.065,0,0,0,4.011.694h.993a2.065,2.065,0,0,0,3.891,0h.993a2.065,2.065,0,0,0,3.891,0h.993a2.065,2.065,0,0,0,4.011-.693V69.918a5.032,5.032,0,0,0,2.818-1.378,7.7,7.7,0,0,0,3.869-1.329.694.694,0,0,0-.782-1.145,6.323,6.323,0,0,1-1.986.9,5,5,0,0,0,.415-1.611,4.963,4.963,0,0,0,1.073-8.44l.986-.986a6.343,6.343,0,0,1,1.256,8.359.694.694,0,1,0,1.16.761,7.729,7.729,0,0,0-1.432-10.1l.806-.806,1.079,1.079a.694.694,0,0,0,.49.2l.052,0a.694.694,0,0,0,.506-.28l3.3-4.479a3.4,3.4,0,0,0-.335-4.453ZM35.165,52.614a.648.648,0,0,1,.191-.461L37.31,50.2l.922.922-1.954,1.954a.652.652,0,0,1-1.113-.461Zm-1.717-6.277.616.616L32.11,48.907a.652.652,0,1,1-.922-.922l1.954-1.954ZM31.1,43.993l1.058,1.058L30.208,47a2.039,2.039,0,1,0,2.883,2.883l1.954-1.954,1.284,1.284-1.954,1.954a2.039,2.039,0,1,0,2.883,2.883L39.212,52.1l1.058,1.058-4.455,4.455-9.166-9.166ZM28.185,69.968h.753v4.709h-.753Zm-4.761-1.387,3.909-3.838c0,.059,0,.118,0,.178a5.031,5.031,0,0,0,1.577,3.66Zm-5.008,4.242a5.881,5.881,0,0,0,.753-.356v2.211h-.753ZM23.3,69.968h.753v4.709H23.3Zm-1.138-2.092c.018-.186.028-.373.028-.564A5.92,5.92,0,0,0,16.277,61.4c-.128,0-.254.005-.38.014l3.867-3.781A3.925,3.925,0,0,0,27.6,57.35c0-.093,0-.184-.011-.275l3.978,2.865a5.037,5.037,0,0,0-2.759,1.413v0ZM9.87,57.906l1.062,1.062L12.232,63a5.954,5.954,0,0,0-1.046,1.3,3.609,3.609,0,0,1-2.811-3.494A3.571,3.571,0,0,1,9.87,57.906Zm13.807-3.094a2.538,2.538,0,1,1-2.538,2.538A2.541,2.541,0,0,1,23.677,54.811Zm10.838,5.54s-8.384-6.066-8.482-6.14a3.917,3.917,0,0,0-5.007.247l-7.673,7.5L12.33,58.785l9.643-9.643h3.408l9.643,9.643-.505,1.569,0,0ZM10.045,50.2,12,52.153a.652.652,0,1,1-.922.922L9.123,51.121Zm-5.431,3.47-.893-1.211L15.549,40.629l1.211.893ZM8.143,52.1,10.1,54.055a2.039,2.039,0,1,0,2.883-2.883l-1.954-1.954.016-.016,1.268-1.268,1.954,1.954A2.039,2.039,0,0,0,17.147,47l-1.954-1.954,1.058-1.058,4.455,4.455L11.54,57.614,7.085,53.159Zm6.07-6.07,1.954,1.954a.652.652,0,0,1-.922.922l-1.954-1.954ZM5.6,60.813a6.361,6.361,0,0,1,2.294-4.884l.987.987a4.967,4.967,0,0,0,1.738,8.68,5.876,5.876,0,0,0-.244,1.373A6.366,6.366,0,0,1,5.6,60.813Zm6.151,6.5a4.527,4.527,0,1,1,4.527,4.527,4.532,4.532,0,0,1-4.527-4.527Zm4.6,8.738a.679.679,0,0,1-.678-.679V73.195a5.846,5.846,0,0,0,1.357-.019V75.37A.68.68,0,0,1,16.351,76.049Zm4.884,0a.679.679,0,0,1-.678-.679V71.4l1.357-1.332V75.37a.68.68,0,0,1-.679.679Zm4.885,0a.679.679,0,0,1-.679-.679v-5.4H26.8v5.4A.679.679,0,0,1,26.12,76.049Zm4.884,0a.679.679,0,0,1-.678-.679v-5.4h1.357v5.4A.679.679,0,0,1,31,76.049Zm1.372-7.469a3.659,3.659,0,1,1,3.659-3.659A3.664,3.664,0,0,1,32.376,68.58Zm6.6-7.767a3.57,3.57,0,0,1-1.674,3.03,5.047,5.047,0,0,0-1.584-2.7l.7-2.18,1.062-1.062a3.57,3.57,0,0,1,1.494,2.907Zm3.762-7.144L30.595,41.522l1.211-.893L43.634,52.457Zm2.824-3.83-1.1,1.49L32.935,39.8l1.49-1.1a2.025,2.025,0,0,1,2.649.2l8.292,8.292A2.025,2.025,0,0,1,45.565,49.838Z" transform="translate(0 -1)" stroke="#fff" stroke-width="0.1"/>
      <path id="Path_6871" data-name="Path 6871" d="M157.541,345.084a2.093,2.093,0,1,0-2.093,2.093A2.1,2.1,0,0,0,157.541,345.084Zm-2.8,0a.706.706,0,1,1,.706.706A.707.707,0,0,1,154.742,345.084Z" transform="translate(-139.171 -277.773)" fill="#ff4612" stroke="#fff" stroke-width="0.1"/>
      <path id="Path_6872" data-name="Path 6872" d="M329.5,317.143a2.093,2.093,0,1,0,2.093,2.093A2.1,2.1,0,0,0,329.5,317.143Zm0,2.8a.706.706,0,1,1,.706-.706A.707.707,0,0,1,329.5,319.942Z" transform="translate(-297.125 -254.315)" fill="#ff4612" stroke="#fff" stroke-width="0.1"/>
    </g>
  </g>
</svg>
