<svg xmlns="http://www.w3.org/2000/svg" width="50" height="50" viewBox="0 0 50 50">
  <g id="Group_6309" data-name="Group 6309" transform="translate(5177 5670)">
    <rect id="Rectangle_521" data-name="Rectangle 521" width="50" height="50" transform="translate(-5177 -5670)" fill="#fff"/>
    <g id="_001-honda" data-name="001-honda" transform="translate(-5173 -5686.277)">
      <g id="Group_5700" data-name="Group 5700" transform="translate(3.188 31.974)">
        <g id="Group_5699" data-name="Group 5699" transform="translate(0 0)">
          <path id="Path_6944" data-name="Path 6944" d="M73.389,72.038a3.3,3.3,0,0,0-2.521-1.186h-28.4a3.3,3.3,0,0,0-2.521,1.185,4.7,4.7,0,0,0-1.089,3.3l.822,21.945a3.955,3.955,0,0,0,3.719,3.95H69.937a3.955,3.955,0,0,0,3.719-3.951l.028-.745a.615.615,0,1,0-1.229-.046l-.028.745A2.721,2.721,0,0,1,69.937,100h-2.18l2.334-27.915h.776a2.059,2.059,0,0,1,1.6.765,3.474,3.474,0,0,1,.786,2.44l-.7,18.584a.615.615,0,1,0,1.229.046l.7-18.584A4.7,4.7,0,0,0,73.389,72.038Zm-7.827.045c-1.426,7.877-2.516,11.657-4.241,14.788a2.1,2.1,0,0,1-1.448,1.1,18.6,18.6,0,0,1-3.2.2,18.605,18.605,0,0,1-3.2-.2,2.106,2.106,0,0,1-1.452-1.1c-1.726-3.131-2.815-6.911-4.241-14.788ZM43.4,100a2.72,2.72,0,0,1-2.489-2.766L40.09,75.287a3.474,3.474,0,0,1,.786-2.44,2.059,2.059,0,0,1,1.595-.765h.777L45.582,100Zm23.121,0H63.241c-.029-.3-.079-.7-.165-1.162a.615.615,0,1,0-1.209.226c.068.361.11.682.137.939H51.335A9.841,9.841,0,0,1,52.6,95.976a1.729,1.729,0,0,1,.628-.619l.007,0a9.328,9.328,0,0,1,6.862,0l.007,0a1.736,1.736,0,0,1,.631.624,6.776,6.776,0,0,1,.45.842.615.615,0,0,0,1.122-.5,7.985,7.985,0,0,0-.53-.991A2.944,2.944,0,0,0,60.7,94.28a10.429,10.429,0,0,0-8.068,0,2.937,2.937,0,0,0-1.074,1.042A11.089,11.089,0,0,0,50.1,99.994H46.816L44.483,72.083h2.044c1.472,8.174,2.6,12.091,4.414,15.381a3.331,3.331,0,0,0,2.318,1.716,19.664,19.664,0,0,0,3.41.219,19.66,19.66,0,0,0,3.414-.22A3.329,3.329,0,0,0,62.4,87.464c1.814-3.291,2.942-7.207,4.414-15.382h2.044Z" transform="translate(-38.857 -70.852)"/>
        </g>
      </g>
      <g id="Group_5702" data-name="Group 5702" transform="translate(0 28.5)">
        <g id="Group_5701" data-name="Group 5701" transform="translate(0 0)">
          <path id="Path_6945" data-name="Path 6945" d="M40.577,30.921c-1.591-1.652-4.7-2.421-9.771-2.421H11.353c-5.171,0-8.327.776-9.932,2.442C-.122,32.545-.038,34.793.03,36.6l0,.087a.615.615,0,1,0,1.229-.046l0-.088c-.077-2.067-.048-3.618,1.048-4.756,1.339-1.39,4.3-2.066,9.046-2.066H30.805c4.654,0,7.561.669,8.885,2.044,1.1,1.14,1.128,2.7,1.05,4.778L39.919,58.5c-.126,3.362-2.661,6.1-5.651,6.1H7.732c-2.99,0-5.525-2.735-5.651-6.1L1.359,39.221a.615.615,0,1,0-1.229.046L.852,58.543a7.919,7.919,0,0,0,2.105,5.136,6.53,6.53,0,0,0,4.775,2.145H34.268a6.53,6.53,0,0,0,4.775-2.145,7.919,7.919,0,0,0,2.106-5.136L41.97,36.6C42.038,34.784,42.123,32.526,40.577,30.921Z" transform="translate(0 -28.5)"/>
        </g>
      </g>
    </g>
  </g>
</svg>
