<svg xmlns="http://www.w3.org/2000/svg" width="50" height="50" viewBox="0 0 50 50">
  <g id="Group_6318" data-name="Group 6318" transform="translate(4982 5670)">
    <rect id="Rectangle_524" data-name="Rectangle 524" width="50" height="50" transform="translate(-4982 -5670)" fill="#fff"/>
    <g id="_008-bmw" data-name="008-bmw" transform="translate(-4980 -5666.47)">
      <g id="Group_5758" data-name="Group 5758" transform="translate(20.675 2.192)">
        <g id="Group_5757" data-name="Group 5757">
          <path id="Path_6973" data-name="Path 6973" d="M231.969,24.24a1.567,1.567,0,0,1-1.807,0,1.578,1.578,0,0,0-1.576,1.576v3.041a.678.678,0,0,0,1.357,0v-3.04a.219.219,0,0,1,.439,0v3.041a.678.678,0,0,0,.678.678h.011a.678.678,0,0,0,.678-.678V25.816a.219.219,0,0,1,.439,0v3.041a.678.678,0,0,0,1.357,0V25.816A1.578,1.578,0,0,0,231.969,24.24Z" transform="translate(-228.586 -24.24)"/>
        </g>
      </g>
      <g id="Group_5760" data-name="Group 5760" transform="translate(11.143 4.342)">
        <g id="Group_5759" data-name="Group 5759">
          <path id="Path_6974" data-name="Path 6974" d="M128.445,50.512a1.631,1.631,0,0,0-.754-.683,1.641,1.641,0,0,0-2.447-1.608l-1.706.974a.678.678,0,0,0-.253.925l.958,1.678.958,1.678a.678.678,0,0,0,.925.253l1.706-.974A1.646,1.646,0,0,0,128.445,50.512Zm-3.36.025-.285-.5,1.117-.637a.288.288,0,0,1,.285.5Zm2.075,1.04-1.117.637-.285-.5.606-.346.511-.291a.288.288,0,0,1,.285.5Z" transform="translate(-123.196 -48.006)"/>
        </g>
      </g>
      <g id="Group_5762" data-name="Group 5762" transform="translate(29.091 3.738)">
        <g id="Group_5761" data-name="Group 5761">
          <path id="Path_6975" data-name="Path 6975" d="M327.394,43.2a.678.678,0,0,0-.925.253L324.962,46.1a.219.219,0,1,1-.381-.217l1.507-2.641a.678.678,0,0,0-.253-.925l0,0-.005,0a.678.678,0,0,0-.925.253L323.393,45.2a.219.219,0,1,1-.381-.218l1.507-2.641a.678.678,0,0,0-1.178-.672l-1.507,2.641a1.576,1.576,0,0,0,1.366,2.357c.049,0,.1,0,.148-.008a1.576,1.576,0,0,0,1.422.9,1.584,1.584,0,0,0,.418-.057,1.566,1.566,0,0,0,.953-.739l1.507-2.641A.678.678,0,0,0,327.394,43.2Z" transform="translate(-321.627 -41.331)"/>
        </g>
      </g>
      <g id="Group_5764" data-name="Group 5764" transform="translate(0 0)">
        <g id="Group_5763" data-name="Group 5763">
          <path id="Path_6976" data-name="Path 6976" d="M39.528,6.782A23.156,23.156,0,0,0,7.912,5.725a.678.678,0,0,0,.894,1.021A21.794,21.794,0,1,1,6.461,9.137a.678.678,0,1,0-1.039-.873A23.155,23.155,0,1,0,39.528,6.782Z" transform="translate(0 0)"/>
        </g>
      </g>
      <g id="Group_5766" data-name="Group 5766" transform="translate(8.186 8.186)">
        <g id="Group_5765" data-name="Group 5765">
          <path id="Path_6977" data-name="Path 6977" d="M105.469,90.5a14.969,14.969,0,1,0,14.969,14.969A14.986,14.986,0,0,0,105.469,90.5Zm-.678,1.374v12.917H91.874A13.631,13.631,0,0,1,104.791,91.874Zm1.357,27.191v-2.033a.678.678,0,0,0-1.357,0v2.033a13.631,13.631,0,0,1-12.917-12.917h12.917v7.975a.678.678,0,0,0,1.357,0v-7.975h2.216a.678.678,0,1,0,0-1.357h-2.216V91.874a13.631,13.631,0,0,1,12.917,12.917H111.3a.678.678,0,0,0,0,1.357h7.762A13.631,13.631,0,0,1,106.148,119.065Z" transform="translate(-90.5 -90.5)"/>
        </g>
      </g>
    </g>
  </g>
</svg>
