<svg xmlns="http://www.w3.org/2000/svg" width="50" height="50" viewBox="0 0 50 50">
  <g id="Group_6320" data-name="Group 6320" transform="translate(4982 5538)">
    <rect id="Rectangle_536" data-name="Rectangle 536" width="50" height="50" transform="translate(-4982 -5538)" fill="#fff"/>
    <g id="_010-ford" data-name="010-ford" transform="translate(-4982 -5641.327)">
      <g id="Group_5769" data-name="Group 5769" transform="translate(32.419 141.689)">
        <g id="Group_5768" data-name="Group 5768" transform="translate(0 0)">
          <path id="Path_6979" data-name="Path 6979" d="M340.253,266.191a1.153,1.153,0,0,0-.836-.7,2.184,2.184,0,0,0-2.062.729,2.27,2.27,0,0,0-.651,2.139,1.227,1.227,0,0,0,.969.653,1.829,1.829,0,0,0,.285.022,2.292,2.292,0,0,0,1.821-.982A2.127,2.127,0,0,0,340.253,266.191Zm-1.609.962a1.166,1.166,0,0,1-.484.394.952.952,0,0,1,.183-.278,1.872,1.872,0,0,1,.43-.315A1.29,1.29,0,0,1,338.644,267.153Z" transform="translate(-336.623 -265.438)"/>
        </g>
      </g>
      <g id="Group_5771" data-name="Group 5771" transform="translate(6.735 131.711)">
        <g id="Group_5770" data-name="Group 5770" transform="translate(0 0)">
          <path id="Path_6980" data-name="Path 6980" d="M105.675,166.819a.722.722,0,0,0-.622-.36l-2.407-.009h0a.722.722,0,0,0-.62.352l-1.791,3a2.681,2.681,0,0,0-1.5-.459h-.049a4.437,4.437,0,0,0-3.152,1.28,2.107,2.107,0,0,0-1.932-1.336q-.092-.006-.181-.006h-.011a2.789,2.789,0,0,0-1.512.442,2.33,2.33,0,0,0-1.59-.551h-.076a2.017,2.017,0,0,0-.867.156,4.46,4.46,0,0,0-1.553,1.088,2.725,2.725,0,0,0-.444-.6,1.379,1.379,0,0,0-1.016-.406,1.246,1.246,0,0,0-.185.015c.07-.043.139-.088.2-.135a1.937,1.937,0,0,0,.939-2.17,2.847,2.847,0,0,0-.147-.381,13.56,13.56,0,0,0,3.36.481c1.681,0,4.895-1.094,4.895-2.809a1.348,1.348,0,0,0-1.474-1.4,2.238,2.238,0,0,0-.444.042c-.041.007-.068.012-.1.015a23.881,23.881,0,0,1-4.018.039.722.722,0,1,0-.109,1.44,25.369,25.369,0,0,0,4.262-.041c.095-.009.167-.022.224-.032a.832.832,0,0,1,.181-.018,2.784,2.784,0,0,1-1.137.776,6.027,6.027,0,0,1-2.28.544,17.349,17.349,0,0,1-5.285-1.136c-.58-.194-1.08-.361-1.459-.446A18.162,18.162,0,0,0,80,163.58c-2.819,0-4.129.937-4.659,1.5a2.371,2.371,0,0,0-.708,1.777,1.2,1.2,0,0,0,1.245,1.141,1.742,1.742,0,0,0,.32-.031,3.757,3.757,0,0,0,1.534-.752,2.9,2.9,0,0,1-2.342,1.455,1.317,1.317,0,0,1-.944-.405,1.739,1.739,0,0,1-.476-1.215,2.72,2.72,0,0,1,1.358-2.219c1-.658,3.066-2.029,7.785-1.372.31.043.75.147,1.26.268.525.125,1.12.266,1.817.4a.722.722,0,0,0,.278-1.418c-.668-.131-1.249-.269-1.761-.39-.568-.135-1.017-.241-1.395-.294-5.259-.73-7.638.842-8.781,1.6a4.115,4.115,0,0,0-2.006,3.4,3.186,3.186,0,0,0,.889,2.248l0,0a4.87,4.87,0,0,0-2.548,1.628,4.075,4.075,0,0,0-.941,2.569,4.172,4.172,0,0,0,4.333,4.176,6.094,6.094,0,0,0,4.295-1.587,2.06,2.06,0,0,0,.543.776l.02.018a.714.714,0,0,0,.077.06l.022.015a1.16,1.16,0,0,0,.646.2h0a1.635,1.635,0,0,0,.767-.225l.044-.023.024-.013.013-.007.085-.049a3.353,3.353,0,0,0,2.514,1.079h.016a4.312,4.312,0,0,0,3.018-1.319l-.085.146a.722.722,0,0,0,.621,1.086l2.548.009h0a.722.722,0,0,0,.636-.38l.109-.2c.551-1.025.8-1.475,1.086-2a2.764,2.764,0,0,0,1.4.391c.107,0,.209.006.308.006s.225,0,.352-.007a2.9,2.9,0,0,0,.179.514,2.667,2.667,0,0,0,2.52,1.685h.015a6.207,6.207,0,0,0,2.182-.417,2.227,2.227,0,0,0,1.5.489h.011a4.834,4.834,0,0,0,3.711-1.852,5.05,5.05,0,0,0,1.215-2.277c0-.41-.19-.963-1.113-1.269a1.308,1.308,0,0,0-.659-.045c.89-1.569,1.942-3.419,2.788-4.908A.722.722,0,0,0,105.675,166.819Zm-28.538-1.05a2.359,2.359,0,0,1-1.017.724,1.225,1.225,0,0,1,.273-.425,2.7,2.7,0,0,1,.918-.594A1.349,1.349,0,0,0,77.137,165.769Zm7.307.128-.031.019c-.006-.013-.013-.024-.02-.036ZM80,165.024a11.35,11.35,0,0,1,2.165.289,8.884,8.884,0,0,0-1.976,2.371A11.128,11.128,0,0,0,79,167.9a4.111,4.111,0,0,0,.576-1.4,1.375,1.375,0,0,0-.257-1.09,1.159,1.159,0,0,0-.43-.334A9.639,9.639,0,0,1,80,165.024Zm-5.754,6.815.039-.016.011,0a1.405,1.405,0,0,0,.921-1.283,1.337,1.337,0,0,0-.075-.437c.082.007.164.012.247.012a3.757,3.757,0,0,0,1.3-.228c0,.005,0,.011,0,.016v.05a.723.723,0,0,0,.022.175l.012.049a1.315,1.315,0,0,0,.986.992c-1.457,1.872-2.381,2.663-3.831,2.367h0l-.014,0c-.162-.038-.322-.325-.322-.58A1.826,1.826,0,0,1,74.25,171.839Zm.016,4.365a2.709,2.709,0,0,1-2.888-2.757,2.612,2.612,0,0,1,.62-1.634,3.314,3.314,0,0,1,1.073-.864,2.976,2.976,0,0,0-.973,2,2.031,2.031,0,0,0,1.433,1.985l.01,0,.029.007a4.4,4.4,0,0,0,.9.1c2.175,0,3.538-1.834,5.344-4.265l.347-.466a.722.722,0,0,0-.325-1.108c.357-.065.677-.1.861-.125a.722.722,0,0,0,.519-.32c1.3-1.981,1.706-2.234,1.793-2.263h.013l.028.008.033.011a.082.082,0,0,1,.023.017s.07.256-.432.922a.722.722,0,0,0,.676,1.15l.1-.012a1.751,1.751,0,0,0,1.2-.443.723.723,0,0,0,.161-.339c.089-.488.391-.758.643-.773.276-.017.419.312.48.509.033.109.071.232-.4.574a7.524,7.524,0,0,1-2.66.861c-.178.034-.341.066-.48.1a.722.722,0,0,0-.462.326C78.34,175.186,76.6,176.2,74.265,176.2Zm25.429-1.016a.722.722,0,0,0,.846.951c.536-.128.955-.568,1.967-1.632l.481-.5c.015-.016.029-.032.043-.049a.541.541,0,0,1,.1-.079l.006,0c-.324.712-1.469,2.566-3.4,2.566h-.008c-.518,0-.607-.171-.654-.262a.722.722,0,0,0-.971-.307,4.82,4.82,0,0,1-2.04.5h-.006a1.246,1.246,0,0,1-1.227-.828l-.007-.015a1.763,1.763,0,0,1-.146-.724.722.722,0,0,0-.894-.7,3.2,3.2,0,0,1-.8.075c-.086,0-.175,0-.271-.005a1.082,1.082,0,0,1-1.005-.508.722.722,0,0,0-1.244.035l-.117.212c-.475.86-.666,1.206-1.337,2.452l-.864,0,1.678-2.881a.722.722,0,0,0,.076-.186.882.882,0,0,0-.4-1.079c-.533-.273-1.089.108-1.611.56a12.7,12.7,0,0,0-1.323,1.365c-.083.1-.171.207-.262.32-.717.884-1.609,1.982-2.968,1.982h-.009a1.788,1.788,0,0,1-1.671-.939.722.722,0,0,0-1.076-.267c-.074.054-.157.111-.247.169a2.9,2.9,0,0,0,.948-1.075c.133-.273.342-.669.526-1.018l.165-.313.005-.01a3.437,3.437,0,0,1,2.946-2.2c.062,0,.088.016.086.01a.139.139,0,0,1,.014.018.72.72,0,0,0,.091.109.757.757,0,0,0,.976.063,2.191,2.191,0,0,1,.279-.135,2.071,2.071,0,0,1,.443,1.052.722.722,0,0,0,1.262.359,6.055,6.055,0,0,1,1.79-1.585.732.732,0,0,0,.077-.031.682.682,0,0,1,.3-.038H90.3a.813.813,0,0,1,.694.245.63.63,0,0,1,.1.161.722.722,0,0,0,1.151.247,1.678,1.678,0,0,1,1.164-.545c.033,0,.068,0,.109,0a.665.665,0,0,1,.717.664.789.789,0,0,1-.692.771h0a.662.662,0,0,1-.6-.277.722.722,0,0,0-1.231.082,1.87,1.87,0,0,0-.177.582v0a.722.722,0,0,0,.344.746,2.771,2.771,0,0,0,2.678.328,2.951,2.951,0,0,0,1.179-1.137c.023-.035.042-.066.059-.09.87-.9,1.563-1.616,2.877-1.616h.05a1.163,1.163,0,0,1,1.046.58.714.714,0,0,0,.62.333.723.723,0,0,0,.609-.352l2.061-3.449.759,0C99.746,175.047,99.72,175.119,99.695,175.188Z" transform="translate(-69.933 -161.835)"/>
        </g>
      </g>
      <g id="Group_5773" data-name="Group 5773" transform="translate(19.162 141.626)">
        <g id="Group_5772" data-name="Group 5772" transform="translate(0 0)">
          <path id="Path_6981" data-name="Path 6981" d="M202.313,265.134a1.759,1.759,0,0,0-1.715-.236,2.537,2.537,0,0,0-1.6,1.971,1.312,1.312,0,0,0,.922,1.611.725.725,0,0,0,.169.02,2.6,2.6,0,0,0,2.379-1.836C202.615,266.264,202.788,265.534,202.313,265.134Zm-1.569,1.631a1.025,1.025,0,0,1-.283.207,1.056,1.056,0,0,1,.568-.692l.047-.019A1.663,1.663,0,0,1,200.743,266.765Z" transform="translate(-198.968 -264.779)"/>
        </g>
      </g>
      <g id="Group_5775" data-name="Group 5775" transform="translate(13.159 133.482)">
        <g id="Group_5774" data-name="Group 5774" transform="translate(0 0)">
          <path id="Path_6982" data-name="Path 6982" d="M168.221,180.348a.722.722,0,1,0-.825,1.186c1.8,1.251,3.941,3.3,3.941,5.971,0,2.8-2.346,5.473-6.607,7.531a39.186,39.186,0,0,1-16.611,3.315,44.827,44.827,0,0,1-10.594-1.212.722.722,0,0,0-.342,1.4,46.277,46.277,0,0,0,10.936,1.253,40.642,40.642,0,0,0,17.24-3.459c4.787-2.312,7.423-5.449,7.423-8.832C172.782,184.9,171.2,182.424,168.221,180.348Z" transform="translate(-136.631 -180.219)"/>
        </g>
      </g>
      <g id="Group_5777" data-name="Group 5777" transform="translate(0 128.501)">
        <g id="Group_5776" data-name="Group 5776">
          <path id="Path_6983" data-name="Path 6983" d="M41.854,131.942A40.733,40.733,0,0,0,24.646,128.5a40.64,40.64,0,0,0-17.238,3.456C2.631,134.265,0,137.394,0,140.768a8.165,8.165,0,0,0,3.035,5.973,22.018,22.018,0,0,0,7.7,4.206.722.722,0,0,0,.462-1.369c-6.106-2.06-9.751-5.354-9.751-8.811,0-2.79,2.341-5.457,6.593-7.51a39.183,39.183,0,0,1,16.609-3.312,39.276,39.276,0,0,1,16.582,3.3.722.722,0,0,0,.626-1.3Z" transform="translate(0 -128.501)"/>
        </g>
      </g>
    </g>
  </g>
</svg>
