<svg xmlns="http://www.w3.org/2000/svg" width="50" height="50" viewBox="0 0 50 50">
  <g id="Group_6319" data-name="Group 6319" transform="translate(4982 5604)">
    <rect id="Rectangle_532" data-name="Rectangle 532" width="50" height="50" transform="translate(-4982 -5604)" fill="#fff"/>
    <g id="_009-chevrolet" data-name="009-chevrolet" transform="translate(-4982 -5730.065)">
      <g id="Group_5767" data-name="Group 5767" transform="translate(0 156.501)">
        <path id="Path_6978" data-name="Path 6978" d="M49.3,160.705c0-.007,0-.013,0-.02a.734.734,0,0,0-.021-.082c0-.011-.008-.023-.013-.034s-.018-.044-.029-.065l-.018-.034c0-.006-.006-.013-.01-.02s-.021-.031-.032-.046-.011-.016-.017-.024a.712.712,0,0,0-.073-.079l0,0-.015-.012a.736.736,0,0,0-.066-.052l-.031-.02a.7.7,0,0,0-.065-.035l-.031-.015a.73.73,0,0,0-.1-.034h0a.728.728,0,0,0-.1-.019l-.034,0c-.016,0-.031,0-.047,0H34.2v-2.882c0-.021,0-.042,0-.062,0,0,0-.006,0-.008a.716.716,0,0,0-.016-.095l0-.019a.72.72,0,0,0-.031-.093.728.728,0,0,0-.044-.088l-.01-.017a.728.728,0,0,0-.055-.078l0,0a.722.722,0,0,0-.063-.066l-.017-.015a.716.716,0,0,0-.074-.057l0,0a.731.731,0,0,0-.08-.045l-.017-.008a.714.714,0,0,0-.182-.056l-.022,0a.729.729,0,0,0-.1-.007H15.827a.729.729,0,0,0-.1.007l-.022,0a.714.714,0,0,0-.182.056l-.017.008a.732.732,0,0,0-.08.045l0,0a.733.733,0,0,0-.074.057l-.017.015a.723.723,0,0,0-.063.066l0,0a.729.729,0,0,0-.055.078l-.01.017a.66.66,0,0,0-.075.181l0,.019a.728.728,0,0,0-.016.095s0,.006,0,.008c0,.021,0,.041,0,.063v2.882h-.467a.722.722,0,0,0,0,1.445h1.189a.722.722,0,0,0,.722-.722v-1.856l1.139,1.143V162.7h-9.6l-.7-1.149h4.167a.722.722,0,0,0,0-1.445H6.077l-.04,0-.045,0-.052.011-.043.01c-.017.005-.034.012-.05.018l-.041.016c-.016.007-.032.016-.048.025l-.037.021c-.016.01-.03.021-.045.032l-.033.025c-.015.012-.028.026-.042.039s-.019.017-.028.027-.028.033-.041.05-.014.017-.02.026a.728.728,0,0,0-.051.085L.078,171.019a.727.727,0,0,0-.041.1c0,.011-.006.022-.009.033a.718.718,0,0,0-.017.072c0,.012,0,.024-.006.037a.721.721,0,0,0,0,.076c0,.01,0,.02,0,.03a.709.709,0,0,0,.01.1c0,.007,0,.013,0,.02a.732.732,0,0,0,.021.082c0,.011.008.023.013.034s.018.044.029.065l.018.034c0,.006.006.013.01.02s.021.031.032.046.011.016.017.024a.707.707,0,0,0,.073.079l0,0a.715.715,0,0,0,.058.048l.013.009c.018.013.037.026.057.037l.02.011c.02.011.04.02.061.029l.015.006a.726.726,0,0,0,.078.026l.018,0q.032.008.064.013l.024,0a.716.716,0,0,0,.083.005H15.1v2.874c0,.021,0,.042,0,.063,0,0,0,.005,0,.008a.714.714,0,0,0,.016.095l0,.019a.722.722,0,0,0,.031.093.71.71,0,0,0,.044.088l.01.017a.735.735,0,0,0,.055.078l0,0a.709.709,0,0,0,.063.066l.017.015a.729.729,0,0,0,.074.057l0,0a.724.724,0,0,0,.08.045l.017.008a.715.715,0,0,0,.182.056l.022,0a.729.729,0,0,0,.1.007h1.881a.722.722,0,1,0,0-1.445h-.142l1.144-1.149H30.6l1.144,1.149H20.834a.722.722,0,1,0,0,1.445H33.482a.729.729,0,0,0,.1-.007l.022,0a.716.716,0,0,0,.182-.056l.017-.008a.723.723,0,0,0,.08-.045l0,0a.708.708,0,0,0,.074-.057l.017-.015a.734.734,0,0,0,.063-.066l0,0a.713.713,0,0,0,.055-.078l.011-.017a.66.66,0,0,0,.075-.18l0-.019a.715.715,0,0,0,.016-.095s0-.005,0-.008c0-.021,0-.042,0-.063V172.07h.491a.722.722,0,1,0,0-1.445H33.482a.722.722,0,0,0-.722.722V173.2l-1.139-1.143v-2.575h9.6l.7,1.149h-4.1a.722.722,0,1,0,0,1.445h5.407l.04,0,.045,0,.052-.011.043-.011c.017-.005.033-.012.05-.018l.041-.016c.016-.007.032-.016.047-.025l.038-.021c.015-.01.03-.021.044-.031s.023-.016.034-.025.028-.025.041-.039.02-.018.029-.028.027-.032.04-.049.015-.017.021-.027a.71.71,0,0,0,.051-.085l5.383-10.52a.727.727,0,0,0,.041-.1c0-.011.007-.022.01-.033a.717.717,0,0,0,.017-.072c0-.012,0-.024.006-.037a.719.719,0,0,0,0-.076c0-.01,0-.02,0-.03A.71.71,0,0,0,49.3,160.705Zm-15.817.845H46.027L44.153,162.7H31.621v-2.584l1.139-1.143v1.856A.722.722,0,0,0,33.482,161.55Zm-15.916-3.6H31.743L30.6,159.094H18.711Zm-11.821,5.17.413-.808.7,1.144L4.4,168.245l-1.867,1.144Zm11.943,8.937L16.549,173.2v-1.848a.722.722,0,0,0-.722-.722H3.282l1.874-1.149H17.688Zm23.5-4.02H30.9a.722.722,0,0,0-.722.722v2.874H19.133v-2.874a.722.722,0,0,0-.722-.722H6.134l1.99-3.889H18.411a.722.722,0,0,0,.722-.722v-2.882H30.176v2.882a.722.722,0,0,0,.722.722H43.176Zm1.965,1.836-.7-1.144,2.453-4.793,1.867-1.144Z" transform="translate(0 -156.501)"/>
      </g>
    </g>
  </g>
</svg>
