<svg xmlns="http://www.w3.org/2000/svg" width="50" height="50" viewBox="0 0 50 50">
  <g id="Group_6310" data-name="Group 6310" transform="translate(5177 5604)">
    <rect id="Rectangle_529" data-name="Rectangle 529" width="50" height="50" transform="translate(-5177 -5604)" fill="#fff"/>
    <g id="_002-hyundai" data-name="002-hyundai" transform="translate(-5177 -5697.65)">
      <g id="Group_5704" data-name="Group 5704" transform="translate(0 122.279)">
        <g id="Group_5703" data-name="Group 5703">
          <path id="Path_6946" data-name="Path 6946" d="M35.067,203.783a.731.731,0,0,0-.874-.551,42.022,42.022,0,0,1-9.26,1,36.278,36.278,0,0,1-16.769-3.708c-4.323-2.314-6.7-5.338-6.7-8.516a7.935,7.935,0,0,1,2.7-5.654.73.73,0,1,0-1.025-1.041A9.456,9.456,0,0,0,0,192.009c0,3.742,2.655,7.224,7.475,9.8a37.75,37.75,0,0,0,17.459,3.88,43.485,43.485,0,0,0,9.582-1.036A.73.73,0,0,0,35.067,203.783Z" transform="translate(0 -185.104)"/>
        </g>
      </g>
      <g id="Group_5706" data-name="Group 5706" transform="translate(5.534 115.5)">
        <g id="Group_5705" data-name="Group 5705">
          <path id="Path_6947" data-name="Path 6947" d="M93.676,119.38a37.75,37.75,0,0,0-17.459-3.88c-7.382,0-14.332,1.759-19.066,4.827a.731.731,0,0,0,.794,1.226c4.5-2.918,11.164-4.592,18.272-4.592a36.278,36.278,0,0,1,16.769,3.708c4.323,2.314,6.7,5.338,6.7,8.516,0,4.244-4.387,8.259-11.449,10.48a.731.731,0,1,0,.438,1.394,23.925,23.925,0,0,0,8.938-4.8,9.664,9.664,0,0,0,3.534-7.07C101.151,125.442,98.5,121.96,93.676,119.38Z" transform="translate(-56.818 -115.5)"/>
        </g>
      </g>
      <g id="Group_5708" data-name="Group 5708" transform="translate(2.922 118.419)">
        <g id="Group_5707" data-name="Group 5707">
          <path id="Path_6948" data-name="Path 6948" d="M68.091,149c-.363-.194-.744-.385-1.131-.565-.55-.257-1.128-.5-1.717-.727a37.542,37.542,0,0,0-13.231-2.242c-.731,0-1.472.019-2.2.055-.746.037-1.48.093-2.181.165A31.955,31.955,0,0,0,35.933,149c-3.77,2.018-5.933,4.654-5.933,7.231s2.162,5.212,5.933,7.231c.251.134.51.266.771.394.563.275,1.158.536,1.768.778A37.2,37.2,0,0,0,52.012,167c.522,0,1.038-.009,1.533-.028q.3-.01.594-.024c.541-.026,1.083-.062,1.618-.108a32.32,32.32,0,0,0,12.334-3.374c3.77-2.018,5.933-4.653,5.933-7.23S71.861,151.019,68.091,149ZM50.36,146.96c.55-.021,1.1-.033,1.652-.033a37.016,37.016,0,0,1,11.6,1.751c-2.3,2.057-6.162,4.74-10.663,4.74a3.276,3.276,0,0,1-2.884-1.1C49.36,151.289,49.469,149.4,50.36,146.96ZM36.622,162.174c-3.28-1.756-5.161-3.921-5.161-5.942s1.881-4.187,5.161-5.943a29.233,29.233,0,0,1,9.464-2.938,122.369,122.369,0,0,0-9.37,14.872Zm16.369,3.35c-.322.008-.649.012-.979.012A36.593,36.593,0,0,1,40,163.645c2.144-2.3,6.357-6.087,10.81-6.087a2.783,2.783,0,0,1,2.458,1.013C54.149,159.805,54.042,162.324,52.991,165.524Zm14.41-3.35a29.72,29.72,0,0,1-10.221,3.041c1.49-2.209,3.686-5.5,5.781-8.755a.73.73,0,1,0-1.229-.79c-2.437,3.79-5.013,7.623-6.447,9.739l-.07.006q-.33.025-.662.046h-.009c1.338-4.367.718-6.609-.081-7.735a4.183,4.183,0,0,0-3.65-1.629,13.423,13.423,0,0,0-7.639,2.8,28.334,28.334,0,0,0-4.638,4.187l-.1-.042c-.119-.051-.237-.1-.354-.153l-.056-.025A119.776,119.776,0,0,1,48.092,147.11l.079-.008q.269-.025.542-.046l.07-.006c-.666,2.041-1.039,4.461.07,6.09.785,1.153,2.162,1.738,4.092,1.738,5.373,0,9.837-3.388,12.207-5.636l.085.035q.172.07.343.142l.03.013c-.584.989-1.271,2.117-2.05,3.363a.73.73,0,0,0,1.239.775c.819-1.31,1.537-2.49,2.143-3.52.156.079.311.159.461.239,3.28,1.756,5.161,3.922,5.161,5.943S70.681,160.418,67.4,162.174Z" transform="translate(-30 -145.466)"/>
        </g>
      </g>
    </g>
  </g>
</svg>
