<svg xmlns="http://www.w3.org/2000/svg" width="50" height="50" viewBox="0 0 50 50">
  <g id="Group_6311" data-name="Group 6311" transform="translate(5177 5538)">
    <rect id="Rectangle_533" data-name="Rectangle 533" width="50" height="50" transform="translate(-5177 -5538)" fill="#fff"/>
    <g id="_003-nissan" data-name="003-nissan" transform="translate(-5175.746 -5554.601)">
      <g id="Group_5710" data-name="Group 5710" transform="translate(0 23.5)">
        <g id="Group_5709" data-name="Group 5709">
          <path id="Path_6949" data-name="Path 6949" d="M46.061,37.94h-2.57a21.425,21.425,0,0,0-7.414-10.22A21.233,21.233,0,0,0,5.646,33.046a.685.685,0,1,0,1.143.755,19.864,19.864,0,0,1,28.468-4.985A20.058,20.058,0,0,1,42.04,37.94H38.592a16.665,16.665,0,0,0-30.439,0H4.706c.2-.555.428-1.1.678-1.633a.685.685,0,1,0-1.24-.582,21.165,21.165,0,0,0-.889,2.215H.685A.685.685,0,0,0,0,38.625V50.83a.685.685,0,0,0,.685.685h2.57a21.425,21.425,0,0,0,7.415,10.221,21.252,21.252,0,0,0,21.788,2.183.685.685,0,0,0-.587-1.237A19.882,19.882,0,0,1,11.49,60.639a20.059,20.059,0,0,1-6.783-9.124H8.154a16.665,16.665,0,0,0,30.439,0H42.04A19.962,19.962,0,0,1,34.4,61.243a.685.685,0,1,0,.762,1.138,21.327,21.327,0,0,0,8.328-10.867h2.57a.685.685,0,0,0,.685-.685V38.625A.685.685,0,0,0,46.061,37.94Zm-31.288-5.86A15.3,15.3,0,0,1,37.08,37.94H9.666A15.3,15.3,0,0,1,14.774,32.079Zm30.6,18.066H35.206a.685.685,0,1,0,0,1.37H37.08a15.3,15.3,0,0,1-27.414,0H32.138a.685.685,0,1,0,0-1.37H1.37V39.309H45.377Z" transform="translate(0 -23.5)"/>
        </g>
      </g>
      <g id="Group_5712" data-name="Group 5712" transform="translate(3.433 40.652)">
        <g id="Group_5711" data-name="Group 5711">
          <path id="Path_6950" data-name="Path 6950" d="M43.389,211.365a.685.685,0,0,0-.685.685v4.73l-3.866-5.142a.685.685,0,0,0-1.232.412v6.781a.685.685,0,1,0,1.37,0V214.1l3.866,5.142a.685.685,0,0,0,1.232-.412v-6.781A.685.685,0,0,0,43.389,211.365Z" transform="translate(-37.606 -211.364)"/>
        </g>
      </g>
      <g id="Group_5714" data-name="Group 5714" transform="translate(36.845 40.652)">
        <g id="Group_5713" data-name="Group 5713">
          <path id="Path_6951" data-name="Path 6951" d="M409.338,211.365a.685.685,0,0,0-.685.685v4.73l-3.866-5.142a.685.685,0,0,0-1.232.412v6.781a.685.685,0,1,0,1.37,0V214.1l3.866,5.142a.685.685,0,0,0,1.232-.412V212.05A.685.685,0,0,0,409.338,211.365Z" transform="translate(-403.555 -211.365)"/>
        </g>
      </g>
      <g id="Group_5716" data-name="Group 5716" transform="translate(11.464 40.652)">
        <g id="Group_5715" data-name="Group 5715">
          <path id="Path_6952" data-name="Path 6952" d="M126.248,211.365a.685.685,0,0,0-.685.685v6.781a.685.685,0,0,0,1.37,0V212.05A.685.685,0,0,0,126.248,211.365Z" transform="translate(-125.563 -211.365)"/>
        </g>
      </g>
      <g id="Group_5718" data-name="Group 5718" transform="translate(14.412 40.652)">
        <g id="Group_5717" data-name="Group 5717">
          <path id="Path_6953" data-name="Path 6953" d="M161.94,214.755h-1.708a1.01,1.01,0,0,1,0-2.021h3.4a.685.685,0,1,0,0-1.37h-3.4a2.38,2.38,0,0,0,0,4.76h1.708a1.01,1.01,0,1,1,0,2.021h-3.4a.685.685,0,1,0,0,1.37h3.4a2.38,2.38,0,1,0,0-4.76Z" transform="translate(-157.852 -211.365)"/>
        </g>
      </g>
      <g id="Group_5720" data-name="Group 5720" transform="translate(21.917 40.652)">
        <g id="Group_5719" data-name="Group 5719">
          <path id="Path_6954" data-name="Path 6954" d="M244.143,214.755h-1.708a1.01,1.01,0,1,1,0-2.021h3.4a.685.685,0,1,0,0-1.37h-3.4a2.38,2.38,0,1,0,0,4.76h1.708a1.01,1.01,0,0,1,0,2.021h-3.4a.685.685,0,1,0,0,1.37h3.4a2.38,2.38,0,0,0,0-4.76Z" transform="translate(-240.055 -211.365)"/>
        </g>
      </g>
      <g id="Group_5722" data-name="Group 5722" transform="translate(29.423 40.652)">
        <g id="Group_5721" data-name="Group 5721">
          <path id="Path_6955" data-name="Path 6955" d="M325.493,211.365a3.238,3.238,0,0,0-3.234,3.234v4.232a.685.685,0,0,0,1.37,0v-2.706h3.729v2.706a.685.685,0,1,0,1.37,0V214.6A3.238,3.238,0,0,0,325.493,211.365Zm1.864,3.39h-3.729V214.6a1.864,1.864,0,0,1,3.729,0Z" transform="translate(-322.259 -211.365)"/>
        </g>
      </g>
    </g>
  </g>
</svg>
