<svg xmlns="http://www.w3.org/2000/svg" width="50" height="50" viewBox="0 0 50 50">
  <g id="Group_6312" data-name="Group 6312" transform="translate(5112 5670)">
    <rect id="Rectangle_522" data-name="Rectangle 522" width="50" height="50" transform="translate(-5112 -5670)" fill="#fff"/>
    <g id="_004-toyota" data-name="004-toyota" transform="translate(-5112 -5736.807)">
      <g id="Group_5724" data-name="Group 5724" transform="translate(0 82.5)">
        <g id="Group_5723" data-name="Group 5723">
          <path id="Path_6956" data-name="Path 6956" d="M42.567,87.371A31.9,31.9,0,0,0,25,82.5a34.433,34.433,0,0,0-13,2.456.732.732,0,0,0,.558,1.355A32.955,32.955,0,0,1,25,83.965c12.977,0,23.535,6.944,23.535,15.479S37.977,114.922,25,114.922,1.465,107.978,1.465,99.443c0-4.529,3.024-8.823,8.3-11.781a.732.732,0,1,0-.717-1.278C3.3,89.61,0,94.369,0,99.443c0,4.583,2.64,8.87,7.433,12.072A31.9,31.9,0,0,0,25,116.387a31.9,31.9,0,0,0,17.567-4.871C47.36,108.313,50,104.026,50,99.443S47.36,90.574,42.567,87.371Z" transform="translate(0 -82.5)"/>
        </g>
      </g>
      <g id="Group_5726" data-name="Group 5726" transform="translate(25.781 85.821)">
        <g id="Group_5725" data-name="Group 5725">
          <path id="Path_6957" data-name="Path 6957" d="M275.834,119.68c-1.845-1.365-5.721-2.915-11.068-3.169a.732.732,0,0,0-.263,1.428c2.213.725,4.12,3.276,5.1,6.826a.731.731,0,0,0,.891.513,16.493,16.493,0,0,0,5.332-2.31,2.037,2.037,0,0,0,.006-3.288Zm-.873,2.108a13.6,13.6,0,0,1-4.153,1.884,13.223,13.223,0,0,0-3.109-5.385,17.492,17.492,0,0,1,7.264,2.571.566.566,0,0,1,.238.464A.576.576,0,0,1,274.961,121.788Z" transform="translate(-263.999 -116.51)"/>
        </g>
      </g>
      <g id="Group_5728" data-name="Group 5728" transform="translate(11.551 85.821)">
        <g id="Group_5727" data-name="Group 5727">
          <path id="Path_6958" data-name="Path 6958" d="M130.939,117.11a.734.734,0,0,0-.755-.6c-5.333.253-9.211,1.8-11.063,3.156a2.037,2.037,0,0,0-.006,3.288,16.386,16.386,0,0,0,5.339,2.322.732.732,0,0,0,.891-.513c.982-3.55,2.889-6.1,5.1-6.825A.732.732,0,0,0,130.939,117.11Zm-6.8,6.561a13.5,13.5,0,0,1-4.156-1.893.572.572,0,0,1,0-.93,17.6,17.6,0,0,1,7.263-2.561A13.221,13.221,0,0,0,124.142,123.671Z" transform="translate(-118.283 -116.51)"/>
        </g>
      </g>
      <g id="Group_5730" data-name="Group 5730" transform="translate(3.595 91.243)">
        <g id="Group_5729" data-name="Group 5729">
          <path id="Path_6959" data-name="Path 6959" d="M75.59,172.218a.732.732,0,0,0-1.179.3c-.467,1.3-2.005,2.591-4.331,3.622a.732.732,0,0,0,.594,1.339,10.347,10.347,0,0,0,4.635-3.5,9.01,9.01,0,0,1,2.846,6.253c0,3.184-2.058,6.245-5.794,8.619a25.183,25.183,0,0,1-10.219,3.531,10.286,10.286,0,0,0,2.225-2.665,18.919,18.919,0,0,0,2.392-9.59c0-.444-.013-.886-.038-1.321.351-.087.7-.18,1.033-.277a.732.732,0,1,0-.407-1.407c-.5.146-1.029.281-1.563.4a.732.732,0,0,0-.568.779c.053.593.079,1.207.079,1.825a17.444,17.444,0,0,1-2.183,8.837c-1.338,2.232-3.076,3.461-4.895,3.461-2.568,0-4.946-2.46-6.206-6.419a.732.732,0,0,0-1.4.444,12.5,12.5,0,0,0,3.686,5.933,25.186,25.186,0,0,1-10.23-3.533c-3.737-2.374-5.795-5.435-5.795-8.619a9.009,9.009,0,0,1,2.849-6.255c1.322,2.043,4.409,3.791,8.586,4.83-.025.435-.038.877-.038,1.321a22.206,22.206,0,0,0,.242,3.287.732.732,0,1,0,1.449-.218,20.73,20.73,0,0,1-.226-3.07c0-.618.027-1.232.079-1.825a.732.732,0,0,0-.568-.779c-4.588-1.038-7.894-2.957-8.628-5.006a.732.732,0,0,0-1.179-.3c-2.636,2.369-4.03,5.14-4.03,8.013a9.638,9.638,0,0,0,1.781,5.467,15.849,15.849,0,0,0,4.693,4.388A28.135,28.135,0,0,0,58.215,194.1a28.132,28.132,0,0,0,14.931-4.012,15.846,15.846,0,0,0,4.693-4.388,9.639,9.639,0,0,0,1.781-5.467C79.62,177.358,78.226,174.588,75.59,172.218Z" transform="translate(-36.81 -172.03)"/>
        </g>
      </g>
      <g id="Group_5732" data-name="Group 5732" transform="translate(20.718 89.149)">
        <g id="Group_5731" data-name="Group 5731">
          <path id="Path_6960" data-name="Path 6960" d="M220.682,155.768c-.923-3.1-2.632-5.178-4.251-5.178s-3.328,2.081-4.252,5.178a.732.732,0,0,0,.616.937,31.979,31.979,0,0,0,7.269,0,.732.732,0,0,0,.617-.937Zm-4.251-.321c-.868,0-1.727-.036-2.563-.106.812-2.15,1.96-3.286,2.563-3.286s1.75,1.137,2.562,3.286C218.158,155.412,217.3,155.447,216.432,155.447Z" transform="translate(-212.149 -150.59)"/>
        </g>
      </g>
      <g id="Group_5734" data-name="Group 5734" transform="translate(20.051 97.313)">
        <g id="Group_5733" data-name="Group 5733">
          <path id="Path_6961" data-name="Path 6961" d="M215.169,234.871a.732.732,0,0,0-.813-.677,36.826,36.826,0,0,1-8.177,0,.733.733,0,0,0-.813.677c-.031.443-.047.9-.047,1.344a16.141,16.141,0,0,0,1.559,7.193c.958,1.876,2.225,3,3.39,3,2.336,0,4.948-4.357,4.948-10.188C215.215,235.767,215.2,235.314,215.169,234.871Zm-2.817,7.871c-.823,1.612-1.7,2.2-2.085,2.2-1.064,0-3.484-3.3-3.484-8.724q0-.242.007-.485a38.445,38.445,0,0,0,6.955,0q.007.243.007.485A14.661,14.661,0,0,1,212.352,242.742Z" transform="translate(-205.318 -234.19)"/>
        </g>
      </g>
    </g>
  </g>
</svg>
