<svg xmlns="http://www.w3.org/2000/svg" width="50" height="50" viewBox="0 0 50 50">
  <g id="Group_6313" data-name="Group 6313" transform="translate(5112 5604)">
    <rect id="Rectangle_530" data-name="Rectangle 530" width="50" height="50" transform="translate(-5112 -5604)" fill="#fff"/>
    <g id="_005-mercedes-benz" data-name="005-mercedes-benz" transform="translate(-5108 -5596.372)">
      <g id="Group_5736" data-name="Group 5736">
        <g id="Group_5735" data-name="Group 5735">
          <path id="Path_6962" data-name="Path 6962" d="M36.165,6.2A21.185,21.185,0,1,0,6.207,36.167a21.183,21.183,0,0,0,28.637,1.214.621.621,0,0,0-.8-.949,19.953,19.953,0,1,1,2.011-1.954.621.621,0,0,0,.925.828,21.183,21.183,0,0,0-.814-29.1Z"/>
        </g>
      </g>
      <g id="Group_5738" data-name="Group 5738" transform="translate(2.897 2.892)">
        <g id="Group_5737" data-name="Group 5737">
          <path id="Path_6963" data-name="Path 6963" d="M53.292,34.951A18.292,18.292,0,1,0,71.582,53.243,18.311,18.311,0,0,0,53.292,34.951ZM36.244,53.243a17.07,17.07,0,0,1,16.27-17.033L49.291,50.749,38.058,60.891A16.948,16.948,0,0,1,36.244,53.243Zm16.427-12V52.026l-9.3,5.742,6.9-6.23a.62.62,0,0,0,.19-.326Zm.621,29.053a17.051,17.051,0,0,1-14.5-8.092l9.43-3.571a.621.621,0,0,0-.44-1.161l-4.061,1.538L53.292,53.1l9.571,5.908-9.352-3.541a.622.622,0,0,0-.44,0l-2.786,1.055a.621.621,0,0,0,.44,1.161l2.567-.972,14.5,5.49A17.052,17.052,0,0,1,53.292,70.294Zm4-19.545-.657-2.965a.621.621,0,1,0-1.212.269l.695,3.133a.617.617,0,0,0,.194.351l6.9,6.228-9.3-5.74V41.246l.186.839c0,.008,0,.015.006.023l.756,3.409a.621.621,0,1,0,1.212-.269l-2-9.038a17.046,17.046,0,0,1,14.457,24.68Z" transform="translate(-35.003 -34.951)"/>
        </g>
      </g>
    </g>
  </g>
</svg>
