<svg xmlns="http://www.w3.org/2000/svg" width="50" height="50" viewBox="0 0 50 50">
  <g id="Group_6315" data-name="Group 6315" transform="translate(5047 5670)">
    <rect id="Rectangle_523" data-name="Rectangle 523" width="50" height="50" transform="translate(-5047 -5670)" fill="#fff"/>
    <g id="Group_6308" data-name="Group 6308" transform="translate(-7103.958 -6572.068)">
      <path id="Path_6984" data-name="Path 6984" d="M2081.783,927.068a47.978,47.978,0,0,1,5.918.357,39.44,39.44,0,0,1,8.368,1.915,24.261,24.261,0,0,1,5.957,2.98,12.494,12.494,0,0,1,3.334,3.314,7.18,7.18,0,0,1,1.194,3.2,6.5,6.5,0,0,1-.545,3.375,9.6,9.6,0,0,1-2.185,3.026,17.746,17.746,0,0,1-4.326,3,31.87,31.87,0,0,1-7.35,2.6,43.474,43.474,0,0,1-5.529.9,48.914,48.914,0,0,1-6.574.208,44.08,44.08,0,0,1-10.33-1.537,29,29,0,0,1-6.518-2.628,16.317,16.317,0,0,1-3.767-2.832,8.768,8.768,0,0,1-2.143-3.4,6.554,6.554,0,0,1,.642-5.476,11.031,11.031,0,0,1,2.66-3.03,20.673,20.673,0,0,1,4.834-2.879,33.5,33.5,0,0,1,5.985-1.949,43.655,43.655,0,0,1,5.543-.9C2078.559,927.146,2080.169,927.07,2081.783,927.068ZM2081.5,950.4a42.838,42.838,0,0,0,7.911-.682,31.519,31.519,0,0,0,6.494-1.891,18.777,18.777,0,0,0,4.482-2.574,9.624,9.624,0,0,0,2.541-2.9,5.642,5.642,0,0,0,.583-4.217,7.24,7.24,0,0,0-1.785-3.122,13.93,13.93,0,0,0-3.445-2.651,25.727,25.727,0,0,0-5.948-2.384,39.032,39.032,0,0,0-8.838-1.317,42.8,42.8,0,0,0-8.178.45,34.089,34.089,0,0,0-6.206,1.523,21.26,21.26,0,0,0-5.361,2.7,10.445,10.445,0,0,0-2.963,3.053,5.668,5.668,0,0,0-.527,5.191,8.021,8.021,0,0,0,2.013,2.894,15.7,15.7,0,0,0,3.906,2.679,28.063,28.063,0,0,0,6.2,2.193A40.351,40.351,0,0,0,2081.5,950.4Z" transform="translate(0 0)"/>
      <path id="Path_6985" data-name="Path 6985" d="M2381.006,1159.39v-5.582c0-.278-.072-.349-.353-.349-.366,0-.366,0-.366-.36,0-.081.006-.163,0-.243-.01-.117.033-.158.153-.157.414.006.829,0,1.243,0h2.406c.26,0,.345.085.345.35v3.825a1.131,1.131,0,0,0,0,.135.126.126,0,0,0,.2.1.614.614,0,0,0,.158-.162q1.371-1.934,2.737-3.872a.8.8,0,0,1,.731-.386c1,.016,1.991.007,2.987,0,.124,0,.234.013.3.138a.3.3,0,0,1-.057.325q-1.757,2.6-3.51,5.193c-.181.268-.181.281.008.548q2.11,2.983,4.22,5.967a.586.586,0,0,1,.1.189.241.241,0,0,1-.26.3c-.316,0-.631,0-.946,0-.779,0-1.559-.006-2.338,0a.67.67,0,0,1-.594-.3l-1.985-2.783q-.709-1-1.42-1.991a.46.46,0,0,0-.1-.109.137.137,0,0,0-.228.1,1.157,1.157,0,0,0,0,.148v4.569c0,.29-.078.367-.37.367h-2.717c-.254,0-.34-.086-.34-.342Z" transform="translate(-314.585 -219.528)"/>
      <path id="Path_6986" data-name="Path 6986" d="M3131.128,1152.832h2.243c.289,0,.337.035.428.308q2,5.966,4,11.932a.5.5,0,0,1,.025.234.214.214,0,0,1-.236.179q-1.453,0-2.906,0a.4.4,0,0,1-.381-.324q-.442-1.369-.881-2.738l-1.6-4.988a.48.48,0,0,0-.046-.112.106.106,0,0,0-.194,0,.591.591,0,0,0-.054.137l-2.437,7.669a.427.427,0,0,1-.494.358h-2.73c-.283,0-.381-.138-.29-.408l3.7-11.035.013-.039c.1-.309.024-.412-.3-.415-.348,0-.308.05-.31-.307,0-.1.006-.2,0-.3-.01-.118.034-.156.153-.155C3129.587,1152.834,3130.358,1152.832,3131.128,1152.832Z" transform="translate(-1039.69 -219.658)"/>
      <path id="Path_6987" data-name="Path 6987" d="M2888.393,1159.153v5.974c0,.285-.078.365-.358.365h-2.785c-.295,0-.37-.074-.37-.365q0-5.568,0-11.138c0-.05,0-.1,0-.149a.247.247,0,0,0-.255-.244,2.47,2.47,0,0,0-.3,0c-.1.009-.146-.023-.141-.134a4.549,4.549,0,0,0,0-.486c-.007-.117.04-.142.148-.141.933,0,1.865,0,2.8,0h.919c.255,0,.342.087.342.34Q2888.393,1156.166,2888.393,1159.153Z" transform="translate(-804.864 -219.665)"/>
    </g>
  </g>
</svg>
