<svg xmlns="http://www.w3.org/2000/svg" width="50" height="50" viewBox="0 0 50 50">
  <g id="Group_6316" data-name="Group 6316" transform="translate(5047 5604)">
    <rect id="Rectangle_531" data-name="Rectangle 531" width="50" height="50" transform="translate(-5047 -5604)" fill="#fff"/>
    <g id="_006-acura" data-name="006-acura" transform="translate(-5045 -5620.194)">
      <g id="Group_5740" data-name="Group 5740" transform="translate(0 25)">
        <g id="Group_5739" data-name="Group 5739" transform="translate(0 0)">
          <path id="Path_6964" data-name="Path 6964" d="M29.819,25H15.677A15.7,15.7,0,0,0,0,40.677v9.7A15.7,15.7,0,0,0,15.677,66.054H29.819A15.7,15.7,0,0,0,45.5,50.376v-9.7A15.7,15.7,0,0,0,29.819,25ZM44.164,50.376A14.361,14.361,0,0,1,29.819,64.721H15.677A14.361,14.361,0,0,1,1.333,50.376v-9.7A14.361,14.361,0,0,1,15.677,26.333H29.819A14.361,14.361,0,0,1,44.164,40.677Z" transform="translate(0 -25)"/>
        </g>
      </g>
      <g id="Group_5742" data-name="Group 5742" transform="translate(4.264 27.084)">
        <g id="Group_5741" data-name="Group 5741" transform="translate(0 0)">
          <path id="Path_6965" data-name="Path 6965" d="M71.53,48.452H61.408A13.439,13.439,0,0,0,47.985,61.875v2.131a.666.666,0,0,0,1.333,0V61.875A12.1,12.1,0,0,1,61.408,49.785h2L57.262,64.865a4.083,4.083,0,0,0-.273,1.056L55.042,82.188a12.093,12.093,0,0,1-5.724-10.274V66.894a.666.666,0,1,0-1.333,0v5.019A13.439,13.439,0,0,0,61.409,85.337H71.53A13.439,13.439,0,0,0,84.954,71.914V61.875A13.439,13.439,0,0,0,71.53,48.452ZM71.53,84H61.408a12.023,12.023,0,0,1-4.645-.928l8.328-15.521h2.756l8.328,15.522A12.024,12.024,0,0,1,71.53,84Zm12.09-12.091A12.093,12.093,0,0,1,77.9,82.188l-.481-4a.666.666,0,0,0-1.323.159l.272,2.262-7.48-13.941a.84.84,0,0,0-.74-.445H64.8a.84.84,0,0,0-.74.445L56.573,80.612l1.74-14.532a2.755,2.755,0,0,1,.184-.712L64.026,51.8v.872a.666.666,0,1,0,1.333,0V49.785h2.22V63.731h-2.22V55.52a.666.666,0,0,0-1.333,0v8.694a.847.847,0,0,0,.842.85h3.2a.847.847,0,0,0,.842-.85V51.808L74.434,65.37a2.755,2.755,0,0,1,.183.709l1.123,9.345a.666.666,0,0,0,1.323-.159L75.941,65.92a4.086,4.086,0,0,0-.272-1.052L69.528,49.785h2a12.1,12.1,0,0,1,12.09,12.091Z" transform="translate(-47.985 -48.452)"/>
        </g>
      </g>
    </g>
  </g>
</svg>
