<svg xmlns="http://www.w3.org/2000/svg" width="50" height="50.115" viewBox="0 0 50 50.115">
  <g id="Group_6317" data-name="Group 6317" transform="translate(5047 5538)">
    <rect id="Rectangle_535" data-name="Rectangle 535" width="50" height="50" transform="translate(-5047 -5538)" fill="#fff"/>
    <g id="_007-volkswagen" data-name="007-volkswagen" transform="translate(-5043.275 -5531.101)">
      <g id="Group_5744" data-name="Group 5744" transform="translate(16.781 5.817)">
        <g id="Group_5743" data-name="Group 5743">
          <path id="Path_6966" data-name="Path 6966" d="M208.388,69.93a.811.811,0,0,0-.518-.438,15.9,15.9,0,0,0-8.458,0,.814.814,0,0,0-.523,1.119h0L202.9,79.5a.813.813,0,0,0,1.483,0l4.008-8.885A.814.814,0,0,0,208.388,69.93Zm-8.345.161Zm3.6,7.97-3.379-7.48a14.656,14.656,0,0,1,6.754,0Z" transform="translate(-198.817 -68.92)"/>
        </g>
      </g>
      <g id="Group_5746" data-name="Group 5746" transform="translate(8.77 8.267)">
        <g id="Group_5745" data-name="Group 5745">
          <path id="Path_6967" data-name="Path 6967" d="M129.43,101.884a15.818,15.818,0,0,0-4.03-3.806.814.814,0,0,0-1.183.335l-5.3,11.295h-4.324l-5.322-11.3a.814.814,0,0,0-1.182-.334,15.816,15.816,0,0,0-4.019,3.791.815.815,0,0,0-.089.821l6.785,15.051a.813.813,0,0,0,1.459.05l2.345-4.381h4.352l2.346,4.382a.808.808,0,0,0,.716.43h.028a.808.808,0,0,0,.714-.478l4.026-8.908a.633.633,0,0,0-1.154-.521l-3.647,8.072-2.04-3.811a.812.812,0,0,0-.717-.429h-4.894a.812.812,0,0,0-.717.43l-2.039,3.81-6.3-13.969a14.538,14.538,0,0,1,3.106-2.983l5.218,11.076a.817.817,0,0,0,.736.467h4.9a.817.817,0,0,0,.736-.468l5.2-11.075a14.548,14.548,0,0,1,3.116,3l-1.539,3.405a.633.633,0,0,0,1.154.521l1.649-3.65A.815.815,0,0,0,129.43,101.884Z" transform="translate(-103.904 -97.945)"/>
        </g>
      </g>
      <g id="Group_5748" data-name="Group 5748" transform="translate(5.817 17.42)">
        <g id="Group_5747" data-name="Group 5747">
          <path id="Path_6968" data-name="Path 6968" d="M78.306,223.409l-7.451-16.54a.814.814,0,0,0-1.534.15,15.816,15.816,0,0,0,7.855,17.439.814.814,0,0,0,1.13-1.05Zm-8.121-12.832a14.681,14.681,0,0,1,.117-1.854l6.25,13.874A14.525,14.525,0,0,1,70.185,210.577Z" transform="translate(-68.919 -206.39)"/>
        </g>
      </g>
      <g id="Group_5750" data-name="Group 5750" transform="translate(16.781 26.245)">
        <g id="Group_5749" data-name="Group 5749">
          <path id="Path_6969" data-name="Path 6969" d="M208.413,320.613l-4.188-9.3a.633.633,0,0,0-.577-.373h0a.633.633,0,0,0-.577.373l-4.193,9.3a.633.633,0,0,0,.4.869,15.892,15.892,0,0,0,8.731,0,.633.633,0,0,0,.4-.868Zm-4.766.213a14.585,14.585,0,0,1-3.308-.378l3.307-7.335,3.3,7.336A14.59,14.59,0,0,1,203.647,320.826Z" transform="translate(-198.821 -310.939)"/>
        </g>
      </g>
      <g id="Group_5752" data-name="Group 5752" transform="translate(27.94 17.454)">
        <g id="Group_5751" data-name="Group 5751">
          <path id="Path_6970" data-name="Path 6970" d="M340.083,207.425a.814.814,0,0,0-1.534-.153l-7.458,16.5a.813.813,0,0,0,1.129,1.051,15.818,15.818,0,0,0,7.863-17.4Zm-7.236,15.539L339.1,209.13a14.7,14.7,0,0,1,.113,1.816A14.524,14.524,0,0,1,332.847,222.964Z" transform="translate(-331.018 -206.793)"/>
        </g>
      </g>
      <g id="Group_5754" data-name="Group 5754">
        <g id="Group_5753" data-name="Group 5753">
          <path id="Path_6971" data-name="Path 6971" d="M36.885,6.328a21.606,21.606,0,0,0-29.7-.813.633.633,0,0,0,.845.943A20.332,20.332,0,1,1,5.967,8.6a.633.633,0,0,0-.973-.81A21.608,21.608,0,1,0,36.885,6.328Z"/>
        </g>
      </g>
      <g id="Group_5756" data-name="Group 5756" transform="translate(2.954 2.95)">
        <g id="Group_5755" data-name="Group 5755">
          <path id="Path_6972" data-name="Path 6972" d="M53.656,34.95a18.657,18.657,0,0,0-8.383,35.32.633.633,0,0,0,.571-1.13A17.383,17.383,0,1,1,53.656,71a17.312,17.312,0,0,1-5.482-.885.633.633,0,1,0-.4,1.2A18.656,18.656,0,1,0,53.656,34.95Z" transform="translate(-35.003 -34.95)"/>
        </g>
      </g>
    </g>
  </g>
</svg>
