<svg xmlns="http://www.w3.org/2000/svg" width="176.662" height="176.662" viewBox="0 0 176.662 176.662">
  <g id="car-full-circle-chart" transform="translate(0.256 -0.272)">
    <path id="Path_7361" data-name="Path 7361" d="M89.631,177.962a88.331,88.331,0,1,1,88.331-88.331A88.288,88.288,0,0,1,89.631,177.962Zm0-5.659A82.672,82.672,0,1,0,6.959,89.631,82.681,82.681,0,0,0,89.631,172.3Z" transform="translate(-1.556 -1.028)" fill="#ff4612"/>
    <path id="Path_7362" data-name="Path 7362" d="M32.8,84c.1,0,.1,0,.192.1C32.9,84.1,32.8,84.1,32.8,84Z" transform="translate(-2.655 -4.615)" fill="#fbfafa"/>
    <path id="Path_7363" data-name="Path 7363" d="M33.3,80.8c0,.1,0,.1-.1.192A.335.335,0,0,1,33.3,80.8Z" transform="translate(-2.671 -4.484)" fill="#fbfafa"/>
    <path id="Path_7364" data-name="Path 7364" d="M33.1,81.3c0,.1,0,.192-.1.192C33,81.4,33,81.3,33.1,81.3Z" transform="translate(-2.663 -4.504)" fill="#fbfafa"/>
    <path id="Path_7365" data-name="Path 7365" d="M33,81.5c0,.1,0,.1-.1.192C32.9,81.6,32.9,81.5,33,81.5Z" transform="translate(-2.659 -4.512)" fill="#fbfafa"/>
    <g id="_001-target" data-name="001-target" transform="translate(27.268 27.796)">
      <path id="Path_7704" data-name="Path 7704" d="M105.577,29.334a4.3,4.3,0,0,0,3.04-1.259l11.908-11.908a2.62,2.62,0,0,0-1.687-4.463l-6.337-.4,4.135-4.135a1.777,1.777,0,0,0-2.513-2.513l-4.135,4.135-.4-6.337A2.62,2.62,0,0,0,105.127.769L93.219,12.678a4.3,4.3,0,0,0-1.25,3.309l.409,6.521a56.068,56.068,0,0,0-77.8,80.44,1.777,1.777,0,0,0,2.629-2.391,52.534,52.534,0,0,1,74.734-73.72l-8.107,8.107a41.113,41.113,0,0,0-64.361,49.1h0A41.138,41.138,0,0,0,96.344,73.6a1.777,1.777,0,1,0-3.479-.722,37.585,37.585,0,0,1-70.23,9.534h0a37.1,37.1,0,0,1-4.159-17.176,37.547,37.547,0,0,1,62.85-27.778L73.291,45.49A26.249,26.249,0,1,0,75.8,48l8.035-8.035a37.424,37.424,0,0,1,9.806,25.047,1.777,1.777,0,0,0,1.777,1.767h.01A1.777,1.777,0,0,0,97.2,64.994a40.968,40.968,0,0,0-10.847-27.54l8.108-8.108a52.534,52.534,0,0,1-71.422,76.711,1.777,1.777,0,1,0-2.237,2.761,56.062,56.062,0,0,0,91.32-43.585A55.606,55.606,0,0,0,101.1,31.842q-1.12-1.508-2.328-2.927c6.965.438,6.59.419,6.81.419Zm-26.853,35.9a22.691,22.691,0,1,1-7.952-17.225l-8.085,8.085A11.312,11.312,0,1,0,65.2,58.607l8.085-8.085A22.566,22.566,0,0,1,78.724,65.234ZM54.8,66.49a1.777,1.777,0,0,0,2.513,0l5.326-5.326a7.75,7.75,0,1,1-2.513-2.513L54.8,63.978a1.777,1.777,0,0,0,0,2.513ZM95.515,15.764a.744.744,0,0,1,.217-.574L106.174,4.749l.464,7.4-10.68,10.68Zm2.956,9.572,10.68-10.68,7.4.464L106.1,25.562a.742.742,0,0,1-.574.217Z" transform="translate(0 -0.002)"/>
    </g>
  </g>
</svg>
