<svg xmlns="http://www.w3.org/2000/svg" width="180.673" height="180.673" viewBox="0 0 180.673 180.673">
  <g id="car-full-circle-chart" transform="translate(0.256 -0.272)">
    <path id="Path_7361" data-name="Path 7361" d="M91.636,181.973a90.336,90.336,0,1,1,90.336-90.336A90.293,90.293,0,0,1,91.636,181.973Zm0-5.787A84.549,84.549,0,1,0,7.087,91.636a84.558,84.558,0,0,0,84.549,84.549Z" transform="translate(-1.556 -1.028)" fill="#ff4612"/>
    <path id="Path_7362" data-name="Path 7362" d="M32.8,84c.1,0,.1,0,.2.1C32.9,84.1,32.8,84.1,32.8,84Z" transform="translate(-1.964 -2.818)" fill="#fbfafa"/>
    <path id="Path_7363" data-name="Path 7363" d="M33.3,80.8c0,.1,0,.1-.1.2A.342.342,0,0,1,33.3,80.8Z" transform="translate(-1.972 -2.757)" fill="#fbfafa"/>
    <path id="Path_7364" data-name="Path 7364" d="M33.1,81.3c0,.1,0,.2-.1.2C33,81.4,33,81.3,33.1,81.3Z" transform="translate(-1.968 -2.767)" fill="#fbfafa"/>
    <path id="Path_7365" data-name="Path 7365" d="M33,81.5c0,.1,0,.1-.1.2C32.9,81.6,32.9,81.5,33,81.5Z" transform="translate(-1.966 -2.771)" fill="#fbfafa"/>
    <g id="_002-vision" data-name="002-vision" transform="translate(39.365 27.235)">
      <rect id="Rectangle_599" data-name="Rectangle 599" width="6" height="2" transform="translate(22.38 26.224)"/>
      <ellipse id="Ellipse_714" data-name="Ellipse 714" cx="1" cy="1.5" rx="1" ry="1.5" transform="translate(25.38 31.224)"/>
      <path id="Path_7705" data-name="Path 7705" d="M120.928,32.143H102.767a16.072,16.072,0,0,0-10.66,4.036H78.553a12.079,12.079,0,0,0-9.014,4.036H68.464V32.143A16.161,16.161,0,0,0,52.321,16H46.268a8.064,8.064,0,0,0-6.456,3.232,6.021,6.021,0,0,0-3.634-1.215,8.081,8.081,0,0,0-8.071,8.071v28.25a20.062,20.062,0,0,0,3.49,11.33l-8.959,5.6A14.044,14.044,0,0,0,16,83.246v51.807a2.018,2.018,0,0,0,2.018,2.018H78.553a2.018,2.018,0,0,0,2.018-2.018v-22.2h3.308A28.394,28.394,0,0,0,108.1,99.142l10.478-17.464,6.523-9.133a20.772,20.772,0,0,0,3.8-10.237,16.137,16.137,0,0,0-7.981-30.166Zm-18.161,4.036h7.5a16.11,16.11,0,0,0,0,24.214h-7.5a12.107,12.107,0,0,1,0-24.214ZM40.549,31.9a11.082,11.082,0,0,0,8.745,4.277H64.428v4.036H56.357a8.069,8.069,0,0,0-4.036,15.057v1.086A2.02,2.02,0,0,1,50.3,58.375H48.285v4.036H50.3a6.06,6.06,0,0,0,6.054-6.054H64.3a16.141,16.141,0,0,1-32.155-2.018V36.179h.346A9.741,9.741,0,0,0,40.549,31.9Zm15.807,20.42a4.036,4.036,0,0,1,0-8.071H67.14a12.077,12.077,0,0,0,0,8.071Zm-1.293,30.9-.643-2.571,1.832-5.5a2.021,2.021,0,0,0,.1-.638v-1.69a20.246,20.246,0,0,0,5.994-4.039l1.96,1.225Zm-9.36-4.67L44.25,74.19v-.079a20.258,20.258,0,0,0,8.071,0v.079l-1.454,4.363Zm-5.49-5.726v1.69a2.021,2.021,0,0,0,.1.638l1.832,5.5-.643,2.571L32.26,70.014l1.96-1.225a20.245,20.245,0,0,0,5.994,4.039ZM45.3,88.643,44.572,87.6l1.253-5.013h4.921L52,87.6l-.728,1.041ZM67.738,72.156l4.056,2.535a10.061,10.061,0,0,1,1.768,1.4L62.5,86.053a10.072,10.072,0,0,1-6.292,2.58Zm8.825,1.237a14.07,14.07,0,0,0-2.63-2.125l-8.959-5.6a20.054,20.054,0,0,0,3.389-9.312h1.176a12.082,12.082,0,0,0,8.4,4.02,23.886,23.886,0,0,0,.2,10.731l.176.7Zm5.8-2.043-.305-1.22a19.86,19.86,0,0,1,.022-9.737H92.107A16.081,16.081,0,0,0,100.76,64.3L90.324,77.718Zm9.966,10.363,11.342-14.583.956,4.781L93.174,84.8a11.463,11.463,0,0,1-4.568,3.123Zm-13.776-41.5H88.8a16.085,16.085,0,0,0,0,16.143H78.553a8.071,8.071,0,0,1,0-16.143ZM46.268,20.036h6.054A12.121,12.121,0,0,1,64.428,32.143H49.294a7.07,7.07,0,0,1-7.062-7.062V24.071A4.04,4.04,0,0,1,46.268,20.036ZM36.178,22.054A2.02,2.02,0,0,1,38.2,24.071v2.363a5.714,5.714,0,0,1-5.708,5.708h-.346V26.089A4.04,4.04,0,0,1,36.178,22.054ZM20.035,83.246a10.032,10.032,0,0,1,4.742-8.555l4.056-2.535L40.374,88.643h-4.2v4.036H55.747A14.1,14.1,0,0,0,65.2,89.052L80.648,75.145l7.375,5.9-9.612,16.02a24.337,24.337,0,0,1-20.764,11.756H40.214A20.2,20.2,0,0,1,20.035,88.643Zm56.5,49.79h-56.5V102.012a24.211,24.211,0,0,0,20.179,10.845H76.535Zm28.108-35.97a24.337,24.337,0,0,1-20.764,11.756H72.152a28.234,28.234,0,0,0,9.719-9.68l3.908-6.513A15.508,15.508,0,0,0,96.19,87.477l10.848-12.2,7.216,5.773ZM121.821,70.2l-5.332,7.465-7.851-6.281-1.391-6.955h13.681a16.121,16.121,0,0,0,3.645-.42,16.789,16.789,0,0,1-2.751,6.191Zm-.893-9.806a12.107,12.107,0,1,1,12.107-12.107,12.107,12.107,0,0,1-12.107,12.107Z" transform="translate(-16 -16)"/>
      <rect id="Rectangle_600" data-name="Rectangle 600" width="4" height="5" transform="translate(102.38 34.224)"/>
      <rect id="Rectangle_601" data-name="Rectangle 601" width="4" height="5" transform="translate(108.38 34.224)"/>
    </g>
  </g>
</svg>
