<svg id="Group_6360" data-name="Group 6360" xmlns="http://www.w3.org/2000/svg" width="12.927" height="16.386" viewBox="0 0 12.927 16.386">
  <path id="Path_6547" data-name="Path 6547" d="M-393.142-502.324c0-1.02.008-2.039-.005-3.059a.476.476,0,0,1,.386-.548c1.961-.553,3.919-1.117,5.881-1.669a.794.794,0,0,1,.406.015c1.936.541,3.868,1.092,5.8,1.631a.52.52,0,0,1,.448.587c-.015,1.941,0,3.883-.008,5.824a8.794,8.794,0,0,1-6.2,8.275.953.953,0,0,1-.522-.007,8.8,8.8,0,0,1-6.189-8.327c0-.908,0-1.816,0-2.724Zm.59.23c0,.852-.007,1.7,0,2.556a8.217,8.217,0,0,0,5.627,7.657.831.831,0,0,0,.477,0,8.19,8.19,0,0,0,5.619-7.49c.04-1.9,0-3.8.014-5.7a.349.349,0,0,0-.31-.4c-1.788-.5-3.572-1.013-5.359-1.514a.777.777,0,0,0-.4,0c-1.787.5-3.569,1.022-5.357,1.52a.368.368,0,0,0-.318.434C-392.546-504.049-392.553-503.071-392.552-502.094Z" transform="translate(393.147 507.619)"/>
  <path id="Path_6548" data-name="Path 6548" d="M-368.708-488.091a29.4,29.4,0,0,1-.185,3.608,7.568,7.568,0,0,1-4.305,5.5,1.547,1.547,0,0,1-1.477.021,7.512,7.512,0,0,1-4.6-6.889c-.066-1.632-.005-3.269-.019-4.9a.512.512,0,0,1,.438-.591c1.508-.414,3.008-.857,4.516-1.272a1.289,1.289,0,0,1,.65-.012c1.536.418,3.065.862,4.6,1.286a.448.448,0,0,1,.377.508C-368.726-489.945-368.708-488.132-368.708-488.091Zm-.6.111c0-.824-.007-1.649,0-2.473,0-.228-.05-.345-.294-.412-1.386-.381-2.766-.787-4.152-1.172a.954.954,0,0,0-.486,0c-1.372.38-2.739.781-4.112,1.158a.4.4,0,0,0-.353.456c.013,1.551-.011,3.1.012,4.652a6.974,6.974,0,0,0,4.349,6.281.975.975,0,0,0,.666,0,6.534,6.534,0,0,0,4.079-4.626A19.272,19.272,0,0,0-369.312-487.98Z" transform="translate(380.466 493.924)"/>
  <path id="Path_6549" data-name="Path 6549" d="M-338.528-469.331a5.209,5.209,0,0,1,.711.005,1.216,1.216,0,0,1,.977,1.627,1.313,1.313,0,0,1-.211.453c-.366.4-.269.814-.172,1.284.264,1.285.459,2.584.7,3.874a1.82,1.82,0,0,1-.416,1.638c-.285.326-.549.67-.837.993a.925.925,0,0,1-1.488.013c-.019-.02-.036-.042-.055-.064-1.587-1.863-1.394-1.489-.929-4.088.179-1,.4-1.995.591-2.993a.374.374,0,0,0-.042-.188c-.014-.037-.057-.062-.079-.1-.345-.549-.714-1.1-.369-1.785S-339.183-469.39-338.528-469.331Zm.021,2.92c-.629,0-.636.006-.745.631-.158.907-.311,1.815-.474,2.721-.366,2.033-.468,1.526.846,3.131l.054.064a.361.361,0,0,0,.629.008c.254-.3.5-.6.76-.892a1.4,1.4,0,0,0,.338-1.313c-.249-1.244-.459-2.5-.681-3.746C-337.883-466.394-337.9-466.411-338.507-466.412Zm.015-2.348v0c-.182,0-.364-.012-.545,0a.645.645,0,0,0-.575.955,3.316,3.316,0,0,0,.2.414,1.216,1.216,0,0,0,1.663.149c.227-.315.52-.658.339-1.106-.187-.465-.606-.422-1-.417Z" transform="translate(344.984 472.558)" fill="#ff4612"/>
</svg>
