<svg id="scooter" xmlns="http://www.w3.org/2000/svg" width="17" height="13.6" viewBox="0 0 17 13.6">
  <g id="Group_4416" data-name="Group 4416" transform="translate(0 3.683)">
    <g id="Group_4415" data-name="Group 4415">
      <path id="Path_3068" data-name="Path 3068" d="M8,152H2.766A1.068,1.068,0,0,0,1.7,153.066v.134a1.065,1.065,0,0,0,.7,1,7.344,7.344,0,0,0-2.389,3.975.284.284,0,0,0,.277.345H6.516a.283.283,0,0,0,.283-.283,3.4,3.4,0,0,0-3.4-3.4.283.283,0,0,0,0,.567,2.837,2.837,0,0,1,2.819,2.55H.646a6.782,6.782,0,0,1,2.465-3.607l.1-.076H7.2a3.785,3.785,0,0,0,.368,3.56.283.283,0,1,0,.468-.319,3.208,3.208,0,0,1-.206-3.24H8A1.068,1.068,0,0,0,9.066,153.2v-.134A1.068,1.068,0,0,0,8,152Zm.5,1.2a.5.5,0,0,1-.5.5H2.766a.5.5,0,0,1-.5-.5v-.134a.5.5,0,0,1,.5-.5H8a.5.5,0,0,1,.5.5Z" transform="translate(0 -152)"/>
    </g>
  </g>
  <g id="Group_4418" data-name="Group 4418" transform="translate(12.75 10.767)">
    <g id="Group_4417" data-name="Group 4417" transform="translate(0)">
      <path id="Path_3069" data-name="Path 3069" d="M361.983,352a.283.283,0,0,0-.283.283.567.567,0,1,1-1.133,0,.283.283,0,0,0-.567,0,1.133,1.133,0,0,0,2.267,0A.283.283,0,0,0,361.983,352Z" transform="translate(-360 -352)"/>
    </g>
  </g>
  <g id="Group_4420" data-name="Group 4420" transform="translate(2.267 10.767)">
    <g id="Group_4419" data-name="Group 4419" transform="translate(0)">
      <path id="Path_3070" data-name="Path 3070" d="M65.983,352a.283.283,0,0,0-.283.283.567.567,0,0,1-1.133,0,.283.283,0,0,0-.567,0,1.133,1.133,0,0,0,2.267,0A.283.283,0,0,0,65.983,352Z" transform="translate(-64 -352)"/>
    </g>
  </g>
  <g id="Group_4422" data-name="Group 4422" transform="translate(8.846 2.833)">
    <g id="Group_4421" data-name="Group 4421">
      <path id="Path_3071" data-name="Path 3071" d="M255.088,131.981v-.3l0-.031a6.057,6.057,0,0,0-1.781-3.57l-.083-.082H253.1a1.7,1.7,0,0,0-1.7,1.7v2.468a1.955,1.955,0,0,1-.576,1.39l-.1.1a1.98,1.98,0,0,1-.768.475.284.284,0,0,0,.179.538,2.547,2.547,0,0,0,.99-.612l.1-.1a2.516,2.516,0,0,0,.742-1.792V129.7a1.135,1.135,0,0,1,1.02-1.128,5.468,5.468,0,0,1,1.53,3.127v.282a3.119,3.119,0,0,0-2.833,3.1.283.283,0,0,0,.283.283h5.667a.283.283,0,0,0,.283-.283A3.119,3.119,0,0,0,255.088,131.981ZM252.27,134.8a2.55,2.55,0,0,1,5.069,0Z" transform="translate(-249.767 -128)"/>
    </g>
  </g>
  <g id="Group_4424" data-name="Group 4424" transform="translate(0 5.667)">
    <g id="Group_4423" data-name="Group 4423" transform="translate(0)">
      <path id="Path_3072" data-name="Path 3072" d="M1.133,208H.283a.283.283,0,0,0-.283.283v1.133a.283.283,0,0,0,.567,0v-.85h.567a.283.283,0,1,0,0-.567Z" transform="translate(0 -208)" fill="#ff4612"/>
    </g>
  </g>
  <g id="Group_4426" data-name="Group 4426" transform="translate(9.633)">
    <g id="Group_4425" data-name="Group 4425" transform="translate(0)">
      <path id="Path_3073" data-name="Path 3073" d="M275.4,48h-.992a.99.99,0,0,0-.977.85h-1.148a.283.283,0,0,0,0,.567h1.148a.99.99,0,0,0,.977.85h.992a.283.283,0,0,0,.283-.283v-1.7A.283.283,0,0,0,275.4,48Zm-.283,1.7h-.708a.425.425,0,0,1-.425-.425v-.283a.425.425,0,0,1,.425-.425h.708Z" transform="translate(-272 -48)" fill="#ff4612"/>
    </g>
  </g>
  <g id="Group_4428" data-name="Group 4428" transform="translate(0 10.767)">
    <g id="Group_4427" data-name="Group 4427">
      <path id="Path_3074" data-name="Path 3074" d="M16.717,354.267H15.482a2.545,2.545,0,0,0,.951-1.983.283.283,0,0,0-.567,0,1.983,1.983,0,0,1-3.967,0,.283.283,0,0,0-.567,0,2.545,2.545,0,0,0,.951,1.983H5a2.545,2.545,0,0,0,.951-1.983.283.283,0,0,0-.567,0,1.983,1.983,0,0,1-3.967,0,.283.283,0,0,0-.567,0,2.545,2.545,0,0,0,.951,1.983H.283a.283.283,0,1,0,0,.567H16.717a.283.283,0,1,0,0-.567Z" transform="translate(0 -352)"/>
    </g>
  </g>
</svg>
