<svg xmlns="http://www.w3.org/2000/svg" width="15" height="16.101" viewBox="0 0 15 16.101">
  <g id="_001-air-conditioning" data-name="001-air-conditioning" transform="translate(-17.5)">
    <g id="Group_5612" data-name="Group 5612" transform="translate(17.5 0)">
      <path id="Path_6830" data-name="Path 6830" d="M78.733,6.647a.236.236,0,0,0,.236-.236V.885a.413.413,0,0,1,.413-.413h7.723a.236.236,0,1,0,0-.472H79.382A.886.886,0,0,0,78.5.885V6.411A.236.236,0,0,0,78.733,6.647Z" transform="translate(-76.579 0)" fill="#ff4612"/>
      <path id="Path_6831" data-name="Path 6831" d="M32.386,11.343a.31.31,0,0,0-.338-.035l-.888.457c-.085-.128-.212-.327-.365-.591a.236.236,0,1,0-.408.236c.3.512.5.788.507.8a.236.236,0,0,0,.3.07l.743-.382-.6,2.165-2.112-.767.743-.382a.236.236,0,0,0,.081-.351,11.74,11.74,0,0,1-1.2-2.261,19.55,19.55,0,0,1-1.414-6.212h.683a17.846,17.846,0,0,0,1.8,6.424.236.236,0,1,0,.423-.209c-.175-.353-.36-.761-.544-1.218a.886.886,0,0,0,.8-.88V.885A.886.886,0,0,0,29.7,0H29.03a.236.236,0,1,0,0,.472H29.7a.413.413,0,0,1,.413.413V8.2a.413.413,0,0,1-.413.413h-.092q-.093-.252-.183-.522a.413.413,0,0,0,.216-.362V1.356a.413.413,0,0,0-.412-.412H20.774a.413.413,0,0,0-.412.412V7.732a.413.413,0,0,0,.215.362q-.09.271-.183.522H20.3A.413.413,0,0,1,19.89,8.2v-.78a.236.236,0,0,0-.472,0V8.2a.886.886,0,0,0,.8.88c-.091.227-.181.437-.267.63a14.5,14.5,0,0,1-1.108,2.05l-.888-.457a.31.31,0,0,0-.441.359l.75,2.689a.31.31,0,0,0,.4.208l2.624-.952h0a.31.31,0,0,0,.036-.567l-.834-.429A13.445,13.445,0,0,0,21.585,10.5c.167-.4.346-.871.521-1.412h1.966v4.37H23.044a.285.285,0,0,0-.209.478l1.9,2.048a.363.363,0,0,0,.533,0l1.9-2.048a.285.285,0,0,0-.209-.478H25.928V9.088h1.966c.174.541.354,1.013.521,1.412a13.448,13.448,0,0,0,1.093,2.114l-.834.429a.31.31,0,0,0,.036.567l2.624.952a.31.31,0,0,0,.4-.208l.75-2.689a.31.31,0,0,0-.1-.324ZM27.273,6.627H25.928V5.212h1.13C27.116,5.708,27.189,6.18,27.273,6.627ZM25.928,7.1h1.439q.062.3.13.574H25.928Zm1.081-2.358H25.928V4.087h1.028q.022.333.052.653ZM20.833,3.616V2.2h8.333V3.616Zm2.109,1.6h1.13V6.627H22.727C22.811,6.18,22.884,5.708,22.942,5.212ZM22.633,7.1h1.439v.574H22.5Q22.571,7.394,22.633,7.1Zm1.439-2.358H22.992q.031-.321.052-.653h1.028ZM21,6.627h-.164V5.212h.444C21.2,5.708,21.1,6.181,21,6.627Zm.347-1.887h-.511V4.087h.582Q21.386,4.42,21.344,4.741Zm7.378.472h.445V6.627H29C28.894,6.179,28.8,5.706,28.722,5.212Zm.445-1.125v.653h-.511q-.041-.321-.071-.653ZM29.122,7.1h.045v.162Q29.144,7.181,29.122,7.1Zm.045-5.684v.314H20.833V1.415ZM20.833,7.1h.043c-.014.053-.029.105-.043.157Zm.324,3.2a11.742,11.742,0,0,1-1.2,2.261.236.236,0,0,0,.081.351l.743.382-2.112.767-.6-2.165.743.382a.236.236,0,0,0,.3-.07,17.271,17.271,0,0,0,2.782-8.121h.683A19.55,19.55,0,0,1,21.158,10.3Zm1.094-1.683q.067-.229.132-.472h1.689v.472Zm4.276,5.313L25,15.578,23.472,13.93h.836a.236.236,0,0,0,.236-.236V4.087h.912v9.606a.236.236,0,0,0,.236.236Zm-.6-5.313V8.145h1.688q.065.243.132.472Z" transform="translate(-17.5 0)"/>
    </g>
  </g>
</svg>
