<svg xmlns="http://www.w3.org/2000/svg" width="15" height="18.824" viewBox="0 0 15 18.824">
  <g id="Group_6354" data-name="Group 6354" transform="translate(0)">
    <path id="Path_3011" data-name="Path 3011" d="M110.415,61.946h6.544a.235.235,0,0,0,.235-.235V59.834a.755.755,0,0,0-.755-.754h-5.505a.755.755,0,0,0-.755.754v1.876A.235.235,0,0,0,110.415,61.946Zm.235-2.112a.284.284,0,0,1,.284-.283h5.505a.284.284,0,0,1,.284.283v1.641h-6.073Z" transform="translate(-108.403 -57.396)"/>
    <path id="Path_3012" data-name="Path 3012" d="M107.7,191.97a.235.235,0,0,0-.235.235v.307a.235.235,0,1,0,.471,0v-.307A.235.235,0,0,0,107.7,191.97Z" transform="translate(-105.789 -185.071)"/>
    <path id="Path_3013" data-name="Path 3013" d="M107.7,217.71a.235.235,0,0,0-.235.235v4.613a.235.235,0,1,0,.471,0v-4.613A.235.235,0,0,0,107.7,217.71Z" transform="translate(-105.789 -209.801)"/>
    <path id="Path_3014" data-name="Path 3014" d="M142.528,185.135a.235.235,0,0,0,.235.235h5.309a.326.326,0,0,1,.326.326v7.939a.326.326,0,0,1-.326.326h-7.436a.326.326,0,0,1-.326-.326V185.7a.326.326,0,0,1,.326-.326h.949a.235.235,0,1,0,0-.471h-.949a.8.8,0,0,0-.8.8v7.939a.8.8,0,0,0,.8.8h7.436a.8.8,0,0,0,.8-.8V185.7a.8.8,0,0,0-.8-.8h-5.309A.235.235,0,0,0,142.528,185.135Z" transform="translate(-136.899 -178.278)"/>
    <path id="Path_3015" data-name="Path 3015" d="M193.912,229.854a2.263,2.263,0,0,0,1.954-3.408l-1.751-2.989a.235.235,0,0,0-.406,0l-1.751,2.989a2.263,2.263,0,0,0,1.954,3.408Zm-1.548-3.17,1.548-2.643,1.548,2.643a1.794,1.794,0,1,1-3.1,0Z" transform="translate(-186.672 -215.21)" fill="#ff4612"/>
    <path id="Path_3016" data-name="Path 3016" d="M253,326.4a.236.236,0,0,0,.076-.013,1.365,1.365,0,0,0,.276-.131,1.386,1.386,0,0,0,.245-.195,1.358,1.358,0,0,0,.373-.7.235.235,0,0,0-.461-.093.888.888,0,0,1-.244.455.912.912,0,0,1-.161.128.89.89,0,0,1-.18.085.235.235,0,0,0,.076.458Z" transform="translate(-245.39 -312.968)" fill="#ff4612"/>
    <path id="Path_3017" data-name="Path 3017" d="M79.767,19.654,76.4,18.019a.235.235,0,0,0-.317.113l-.47,1.02-.192-.1v-.908a1.968,1.968,0,0,0-1.965-1.965H66.865A1.967,1.967,0,0,0,64.9,18.145V33.039A1.967,1.967,0,0,0,66.865,35H77.847a1.967,1.967,0,0,0,1.965-1.965V21.461a.235.235,0,0,0-.128-.209l-.306-.158.5-1.134a.235.235,0,0,0-.112-.307Zm-.427,13.385a1.5,1.5,0,0,1-1.494,1.494H66.865a1.5,1.5,0,0,1-1.494-1.494V18.145a1.5,1.5,0,0,1,1.494-1.494h6.591a1.5,1.5,0,0,1,1.494,1.494V19.2a.235.235,0,0,0,.128.209l4.262,2.2Zm-.381-12.161-2.926-1.51.378-.821,2.946,1.43Z" transform="translate(-64.9 -16.18)"/>
  </g>
</svg>
