<svg xmlns="http://www.w3.org/2000/svg" width="15" height="13.497" viewBox="0 0 15 13.497">
  <g id="_003-check-up" data-name="003-check-up" transform="translate(-2 -7.012)">
    <path id="Path_6726" data-name="Path 6726" d="M7,56h.409v.409H7Z" transform="translate(-3.978 -36.513)"/>
    <path id="Path_6727" data-name="Path 6727" d="M11,54h.409v.409H11Z" transform="translate(-7.161 -34.922)"/>
    <path id="Path_6728" data-name="Path 6728" d="M55,56h.409v.409H55Z" transform="translate(-39.43 -36.513)"/>
    <path id="Path_6729" data-name="Path 6729" d="M51,54h.409v.409H51Z" transform="translate(-36.248 -34.922)"/>
    <path id="Path_6730" data-name="Path 6730" d="M16.75,8.509H14.5v-.5a.25.25,0,0,0-.25-.25h-.783a1,1,0,0,0-1.935,0H10.75a.25.25,0,0,0-.25.25v.5H8.25a.25.25,0,0,0-.25.25v1.5H5.6a1.25,1.25,0,0,0-1.235,1.052l-.33,2.447H3.92l-.437-1.092a.25.25,0,0,0-.232-.157h-1a.25.25,0,0,0-.25.25v1a.25.25,0,0,0,.21.248l.25.04a1.25,1.25,0,0,0-.46.962v3.25a.25.25,0,0,0,.25.25H2.5v1.5a.5.5,0,0,0,.5.5H5a.5.5,0,0,0,.5-.5v-1.5h8v1.5a.5.5,0,0,0,.5.5h2a.5.5,0,0,0,.5-.5v-1.5h.25a.25.25,0,0,0,.25-.25v-9.5a.25.25,0,0,0-.25-.25ZM2.5,13.009h.58l.273.68L2.5,13.546Zm0,2.75H3v1.25H2.5ZM5,20.009H4.75v-.5h-.5v.5H3v-1.5h.25v.5h.5v-.5H5Zm3-2H2.5v-.5H8Zm-4.5-1v-1.25H6v1.25Zm4.5,0H6.5v-1.25H8Zm0-1.75H2.5v-.25a.752.752,0,0,1,.75-.75H8Zm0-1.5H4.535l.323-2.372a.747.747,0,0,1,.74-.627H8Zm3-5.5h.75a.25.25,0,0,0,.25-.25.5.5,0,0,1,1,0,.25.25,0,0,0,.25.25H14v1.25H11Zm-.25,1.75h3.5a.25.25,0,0,0,.25-.25h1.25v7.5H9.25v-7.5H10.5A.25.25,0,0,0,10.75,10.009Zm5.25,10H14.75v-.5h-.5v.5H14v-1.5h1.25v.5h.5v-.5H16Zm.5-2h-8v-9h2v.25H9a.25.25,0,0,0-.25.25v8a.25.25,0,0,0,.25.25h7a.25.25,0,0,0,.25-.25v-8a.25.25,0,0,0-.25-.25H14.5v-.25h2Z"/>
    <path id="Path_6731" data-name="Path 6731" d="M34.172,21.729a.2.2,0,0,0,.16-.077l.817-1.022-.319-.255-.7.875-.457-.3-.227.34.613.409A.2.2,0,0,0,34.172,21.729Z" transform="translate(-23.353 -9.937)" fill="#ff4612"/>
    <path id="Path_6732" data-name="Path 6732" d="M34.172,30.729a.2.2,0,0,0,.16-.077l.817-1.022-.319-.255-.7.875-.457-.3-.227.34.613.409A.2.2,0,0,0,34.172,30.729Z" transform="translate(-23.353 -16.63)" fill="#ff4612"/>
    <path id="Path_6733" data-name="Path 6733" d="M34.172,39.729a.2.2,0,0,0,.16-.077l.817-1.022-.319-.255-.7.875-.457-.3-.227.34.613.409A.2.2,0,0,0,34.172,39.729Z" transform="translate(-23.353 -23.322)" fill="#ff4612"/>
    <path id="Path_6734" data-name="Path 6734" d="M44,25h2.248v.409H44Z" transform="translate(-30.678 -13.46)" fill="#ff4612"/>
    <path id="Path_6735" data-name="Path 6735" d="M44,34h2.248v.409H44Z" transform="translate(-30.678 -20.194)" fill="#ff4612"/>
    <path id="Path_6736" data-name="Path 6736" d="M44,43h2.248v.409H44Z" transform="translate(-30.678 -26.928)" fill="#ff4612"/>
  </g>
</svg>
