<svg xmlns="http://www.w3.org/2000/svg" width="22" height="10.476" viewBox="0 0 22 10.476">
  <g id="_13-car" data-name="13-car" transform="translate(-4 -100)">
    <g id="linear_color" data-name="linear color" transform="translate(4 100)">
      <path id="Path_6744" data-name="Path 6744" d="M24.664,104.061l-3.856-.585-3.693-3.039A1.926,1.926,0,0,0,15.9,100H10.782a1.911,1.911,0,0,0-1.5.721l-2.217,2.771H5.571A1.573,1.573,0,0,0,4,105.063v1.746a1.923,1.923,0,0,0,1.921,1.921h.935a2.269,2.269,0,0,0,4.416,0h8.155a2.269,2.269,0,0,0,4.416,0h.585A1.573,1.573,0,0,0,26,107.159v-1.544A1.562,1.562,0,0,0,24.664,104.061Zm-8.214-2.815,2.729,2.246H14.127v-2.444H15.9A.876.876,0,0,1,16.451,101.246Zm-6.35.129a.869.869,0,0,1,.682-.327h.2v2.444H8.407Zm-1.037,8.054a1.222,1.222,0,1,1,1.222-1.222A1.222,1.222,0,0,1,9.063,109.428Zm12.571,0a1.222,1.222,0,1,1,1.222-1.222A1.222,1.222,0,0,1,21.635,109.428Zm3.317-2.27a.524.524,0,0,1-.524.524h-.585a2.269,2.269,0,0,0-4.416,0H11.272a2.269,2.269,0,0,0-4.416,0H5.921a.874.874,0,0,1-.873-.873v-1.746a.524.524,0,0,1,.524-.524h5.937a.524.524,0,0,0,.524-.524v-2.968h1.048v2.968a.524.524,0,0,0,.524.524h7.232l3.672.557a.527.527,0,0,1,.445.518Z" transform="translate(-4 -100)"/>
      <path id="Path_6745" data-name="Path 6745" d="M213.222,212h-.7a.524.524,0,1,0,0,1.048h.7a.524.524,0,1,0,0-1.048Z" transform="translate(-202.921 -207.111)" fill="#ff4612"/>
    </g>
  </g>
</svg>
