<svg xmlns="http://www.w3.org/2000/svg" width="20" height="18.667" viewBox="0 0 20 18.667">
  <g id="Breakdown" transform="translate(-2 -4)">
    <rect id="Rectangle_501" data-name="Rectangle 501" transform="translate(14.463 15.209)"/>
    <path id="Path_7256" data-name="Path 7256" d="M18.206,47.637l.315-.182-.333-.577-.314.181a2.045,2.045,0,0,0-.267-.267l.181-.314-.577-.333-.182.315a2,2,0,0,0-.362-.1V46H16v.363a2,2,0,0,0-.363.1l-.182-.315-.577.333.181.314a2.047,2.047,0,0,0-.267.267l-.314-.181-.333.577.315.182a2,2,0,0,0-.1.362H14v.667h.363a2,2,0,0,0,.1.363l-.315.182.333.577.314-.181a2.046,2.046,0,0,0,.267.267l-.181.314.577.333.182-.315a2,2,0,0,0,.362.1v.363h.667V50.3a2,2,0,0,0,.363-.1l.182.315.577-.333-.181-.314a2.046,2.046,0,0,0,.267-.267l.314.181.333-.577-.315-.182a2,2,0,0,0,.1-.362h.363V48H18.3A2,2,0,0,0,18.206,47.637Zm-.539.7A1.333,1.333,0,1,1,16.333,47,1.333,1.333,0,0,1,17.667,48.333Z" transform="translate(-8 -28)"/>
    <rect id="Rectangle_502" data-name="Rectangle 502" width="1.391" transform="translate(7.506 20.774)"/>
    <path id="Path_7257" data-name="Path 7257" d="M46.206,47.637l.315-.182-.333-.577-.314.181a2.046,2.046,0,0,0-.267-.267l.181-.314-.577-.333-.182.315a2,2,0,0,0-.362-.1V46H44v.363a2,2,0,0,0-.363.1l-.182-.315-.577.333.181.314a2.046,2.046,0,0,0-.267.267l-.314-.181-.333.577.315.182a2,2,0,0,0-.1.362H42v.667h.363a2,2,0,0,0,.1.363l-.315.182.333.577.314-.181a2.046,2.046,0,0,0,.267.267l-.181.314.577.333.182-.315a2,2,0,0,0,.362.1v.363h.667V50.3a2,2,0,0,0,.363-.1l.182.315.577-.333-.181-.314a2.047,2.047,0,0,0,.267-.267l.314.181.333-.577-.315-.182a2,2,0,0,0,.1-.362h.363V48H46.3A2,2,0,0,0,46.206,47.637Zm-.539.7A1.333,1.333,0,1,1,44.333,47,1.333,1.333,0,0,1,45.667,48.333Z" transform="translate(-26.667 -28)"/>
    <rect id="Rectangle_503" data-name="Rectangle 503" transform="translate(17.246 20.774)"/>
    <path id="Path_7258" data-name="Path 7258" d="M19.667,22h-.383l-.627-1.583.689-2.067a1,1,0,0,1,.949-.684h1.039V17H20.294a1.664,1.664,0,0,0-1.581,1.139L17.6,21.492l-1.925-3.61A1.664,1.664,0,0,0,14.2,17H5.667A1.669,1.669,0,0,0,4,18.667v.667H2.667A.667.667,0,0,0,2,20v3.333A.667.667,0,0,0,2.667,24H4v3a1,1,0,0,0,1,1h.28a.333.333,0,0,0,.306-.2,3,3,0,0,1,5.5,0,.333.333,0,0,0,.306.2h3.227a.333.333,0,0,0,.306-.2,3,3,0,0,1,5.5,0,.333.333,0,0,0,.306.2H21a1,1,0,0,0,1-1V24.333A2.336,2.336,0,0,0,19.667,22Zm1.667,2.333v.333H20V24h1.3A1.667,1.667,0,0,1,21.333,24.333ZM18.567,22h-.438l.2-.6Zm-3.484-3.8L17.111,22H13.333V17.667H14.2a1,1,0,0,1,.882.529Zm-10.416.471a1,1,0,0,1,1-1h7V22h-8ZM5,24v.667H4.667V24Zm-2.333-.667v-1H3v-.667H2.667V21H3v-.667H2.667V20H4v1H3.667v.667H4v.667H3.667V23H4v.333Zm2.4,4H5A.333.333,0,0,1,4.667,27v-.333h.85a3.656,3.656,0,0,0-.448.667Zm3.264-2a3.662,3.662,0,0,0-2.667,1.154V26h-1v-.667H5a.667.667,0,0,0,.667-.667V24A.667.667,0,0,0,5,23.333H4.667v-.667h8v4.667H11.6A3.665,3.665,0,0,0,8.333,25.333Zm9.333,0a3.664,3.664,0,0,0-3.264,2H13.333V22.667h6.333a1.659,1.659,0,0,1,1.325.667H20a.667.667,0,0,0-.667.667v.667a.667.667,0,0,0,.667.667h1.333V26h-1v.487A3.662,3.662,0,0,0,17.667,25.333Zm3.333,2h-.069a3.656,3.656,0,0,0-.448-.667h.85V27A.333.333,0,0,1,21,27.333Z" transform="translate(0 -8.667)"/>
    <path id="Path_7259" data-name="Path 7259" d="M47.3,9.333h.667a.451.451,0,0,1,.155-.34,1.108,1.108,0,0,0,0-1.54.453.453,0,0,1,0-.683A1.1,1.1,0,0,0,48.433,6h-.667a.453.453,0,0,1-.155.341,1.109,1.109,0,0,0,0,1.541.452.452,0,0,1,0,.682A1.1,1.1,0,0,0,47.3,9.333Z" transform="translate(-30.2 -1.333)" fill="#ff4612"/>
    <path id="Path_7260" data-name="Path 7260" d="M53.3,7.333h.667a.451.451,0,0,1,.155-.34,1.108,1.108,0,0,0,0-1.54.453.453,0,0,1,0-.683A1.1,1.1,0,0,0,54.433,4h-.667a.453.453,0,0,1-.155.341,1.109,1.109,0,0,0,0,1.541.452.452,0,0,1,0,.682,1.1,1.1,0,0,0-.311.77Z" transform="translate(-34.2)" fill="#ff4612"/>
  </g>
</svg>
