<svg id="_004-car" data-name="004-car" xmlns="http://www.w3.org/2000/svg" width="13.217" height="18.797" viewBox="0 0 13.217 18.797">
  <path id="Path_6538" data-name="Path 6538" d="M87.284,15.213a7.993,7.993,0,0,0-1.969-.591c.226-.234.458-.485.69-.751a15.191,15.191,0,0,0,2.2-3.228,9.126,9.126,0,0,0,1.013-4.034A6.608,6.608,0,1,0,76,6.608a9.126,9.126,0,0,0,1.013,4.034,15.191,15.191,0,0,0,2.2,3.228c.232.266.464.517.69.751a7.993,7.993,0,0,0-1.969.591c-.99.473-1.2,1.012-1.2,1.381,0,.468.323,1.133,1.864,1.646a14.727,14.727,0,0,0,8.02,0c1.541-.514,1.864-1.179,1.864-1.646,0-.369-.208-.909-1.2-1.381Zm-10.55-8.6a5.874,5.874,0,1,1,11.748,0c0,2.726-1.642,5.185-3.019,6.768a20.252,20.252,0,0,1-2.855,2.687,20.256,20.256,0,0,1-2.855-2.687c-1.377-1.583-3.019-4.042-3.019-6.768Zm9.652,10.936a14.015,14.015,0,0,1-7.556,0c-1.005-.335-1.362-.721-1.362-.95,0-.381.957-1.038,3.078-1.332.314.3.607.558.862.776-.389.135-.636.334-.636.556,0,.406.822.734,1.836.734s1.836-.329,1.836-.734c0-.222-.246-.421-.636-.556.256-.218.548-.477.862-.776,2.121.293,3.078.95,3.078,1.332,0,.229-.357.615-1.362.95Z" transform="translate(-76)"/>
  <path id="Path_6539" data-name="Path 6539" d="M126.28,45.14a5.14,5.14,0,1,0-5.14,5.14A5.146,5.146,0,0,0,126.28,45.14Zm-9.545,0a4.406,4.406,0,1,1,4.406,4.406A4.411,4.411,0,0,1,116.734,45.14Z" transform="translate(-114.532 -38.531)"/>
  <path id="Path_6540" data-name="Path 6540" d="M160.406,104.406v.734a.735.735,0,0,0,.734.734h.734a.735.735,0,0,0,.734-.734v-2.418l.627-.627a.367.367,0,1,0-.519-.519l-.374.374-.874-1.747a.367.367,0,0,0-.328-.2H158.2a.367.367,0,0,0-.328.2L157,101.95l-.374-.374a.367.367,0,1,0-.519.519l.627.627v2.418a.735.735,0,0,0,.734.734h.734a.735.735,0,0,0,.734-.734v-.734Zm-2.937-1.469h.734v.734h-.734Zm2.937,0v.734h-1.469v-.734Zm1.469,0v.734h-.734v-.734Zm-.734,2.2v-.734h.734v.734Zm-2.71-4.406h2.483l.734,1.469H157.7Zm-.961,4.406v-.734h.734v.734Z" transform="translate(-153.063 -96.329)" fill="#ff4612"/>
</svg>
