<svg xmlns="http://www.w3.org/2000/svg" width="17.1" height="18.976" viewBox="0 0 17.1 18.976">
  <g id="_001-insurance-1" data-name="001-insurance-1" transform="translate(0.05 0.054)">
    <g id="Group_5194" data-name="Group 5194" transform="translate(1.473 12.725)">
      <g id="Group_5193" data-name="Group 5193">
        <path id="Path_6529" data-name="Path 6529" d="M56.979,285.888h-2.4a.446.446,0,0,0-.445.445v1.647a.446.446,0,0,0,.445.445h2.4a.446.446,0,0,0,.445-.445v-1.647A.446.446,0,0,0,56.979,285.888Zm-.445,1.647H55.02v-.757h1.513Z" transform="translate(-54.13 -285.888)" stroke="#fff" stroke-width="0.1"/>
      </g>
    </g>
    <g id="Group_5196" data-name="Group 5196" transform="translate(10.42 12.725)">
      <g id="Group_5195" data-name="Group 5195">
        <path id="Path_6530" data-name="Path 6530" d="M257.979,285.888h-2.4a.446.446,0,0,0-.445.445v1.647a.446.446,0,0,0,.445.445h2.4a.446.446,0,0,0,.445-.445v-1.647A.446.446,0,0,0,257.979,285.888Zm-.445,1.647H256.02v-.757h1.513Z" transform="translate(-255.13 -285.888)" stroke="#fff" stroke-width="0.1"/>
      </g>
    </g>
    <g id="Group_5198" data-name="Group 5198" transform="translate(5.613 14.327)">
      <g id="Group_5197" data-name="Group 5197">
        <path id="Path_6531" data-name="Path 6531" d="M150.673,321.888h-3.1a.445.445,0,0,0,0,.89h3.1a.445.445,0,1,0,0-.89Z" transform="translate(-147.13 -321.888)" stroke="#fff" stroke-width="0.1"/>
      </g>
    </g>
    <g id="Group_5200" data-name="Group 5200" transform="translate(5.613 13.081)">
      <g id="Group_5199" data-name="Group 5199">
        <path id="Path_6532" data-name="Path 6532" d="M150.673,293.888h-3.1a.445.445,0,0,0,0,.89h3.1a.445.445,0,1,0,0-.89Z" transform="translate(-147.13 -293.888)" stroke="#fff" stroke-width="0.1"/>
      </g>
    </g>
    <g id="Group_5202" data-name="Group 5202" transform="translate(0 0)">
      <g id="Group_5201" data-name="Group 5201" transform="translate(0)">
        <path id="Path_6533" data-name="Path 6533" d="M37.809,2.158,33.86.053a.433.433,0,0,0-.423,0l-3.85,2.105a.446.446,0,0,0-.236.392V5.537a5.821,5.821,0,0,0,.361,1.985h-5.1a1.481,1.481,0,0,0-1.362.9l-1.1,2.559-.445.423a1.961,1.961,0,0,0-.677,1.5v4.5a1.448,1.448,0,0,0,1.433,1.464h.855a1.457,1.457,0,0,0,1.451-1.464v-.543h7.7V17.4a1.476,1.476,0,0,0,1.473,1.464h.846A1.471,1.471,0,0,0,36.251,17.4v-4.62a1.963,1.963,0,0,0-.61-1.42l-.312-.329-.2-.45a5.919,5.919,0,0,0,2.9-5.105V2.555A.409.409,0,0,0,37.809,2.158ZM24.068,8.777a.6.6,0,0,1,.543-.369h5.51a6.533,6.533,0,0,0,.427.668A2.328,2.328,0,0,0,29.1,10.811H23.2Zm7.144,1.055a6.18,6.18,0,0,0,1.366.979H30.019A1.415,1.415,0,0,1,31.212,9.832ZM23.881,17.4a.567.567,0,0,1-.561.574h-.846a.557.557,0,0,1-.552-.574v-.637a1.378,1.378,0,0,0,.552.1h1.407Zm11.484,0a.576.576,0,0,1-.574.574h-.846a.583.583,0,0,1-.583-.574v-.539h1.429a1.486,1.486,0,0,0,.574-.1Zm0-4.625v2.644a.557.557,0,0,1-.574.552H22.475a.538.538,0,0,1-.552-.525V12.9a1.082,1.082,0,0,1,.369-.823l.009-.009.4-.365H34.733l.272.28s.013.009.022.018A1.082,1.082,0,0,1,35.365,12.779Zm1.78-7.3a5.033,5.033,0,0,1-3.085,4.651l-.423.182-.361-.156a5.059,5.059,0,0,1-3.036-4.625V2.813l3.4-1.865,3.507,1.869Z" transform="translate(-21.028 0)" stroke="#fff" stroke-width="0.1"/>
      </g>
    </g>
    <g id="Group_5204" data-name="Group 5204" transform="translate(10.584 4.332)">
      <g id="Group_5203" data-name="Group 5203">
        <path id="Path_6534" data-name="Path 6534" d="M263.075,97.478a.445.445,0,0,0-.628-.062l-2.083,1.7-.757-.886a.445.445,0,1,0-.677.579l1.037,1.215.013.013s.009.013.018.018.013.013.018.018.013.009.018.013a.1.1,0,0,0,.022.013s.013.009.018.013l.022.013a.034.034,0,0,0,.018.009.063.063,0,0,0,.027.009s.013,0,.018.009.018,0,.027.009.013,0,.018,0,.018,0,.027,0,.013,0,.018,0h.1c.009,0,.022,0,.031,0a.016.016,0,0,0,.013,0c.009,0,.018,0,.027,0s.009,0,.013,0,.013,0,.022-.009.009,0,.018,0,.013,0,.018-.009.009,0,.018-.009.013,0,.018-.009a.023.023,0,0,1,.018-.009.033.033,0,0,1,.018-.009s.009-.009.018-.013.009,0,.013-.009l2.421-1.967A.445.445,0,0,0,263.075,97.478Z" transform="translate(-258.824 -97.315)" fill="#ff4612" stroke="#fff" stroke-width="0.1"/>
      </g>
    </g>
  </g>
</svg>
