<svg xmlns="http://www.w3.org/2000/svg" width="20" height="17.117" viewBox="0 0 20 17.117">
  <g id="car-engine" transform="translate(0.001 -36.907)">
    <path id="Path_6870" data-name="Path 6870" d="M19.573,40.835l-3.5-3.5a1.438,1.438,0,0,0-1.881-.141L12.3,38.587a.293.293,0,0,0-.033.443l.456.456-2,2H9.28l-2-2,.456-.456a.293.293,0,0,0-.033-.443L5.808,37.192a1.437,1.437,0,0,0-1.881.141l-.554.555a.293.293,0,0,0,.414.414l.555-.555a.855.855,0,0,1,1.119-.084l.629.464L1.219,43l-.464-.629A.856.856,0,0,1,.84,41.25l2.119-2.119a.293.293,0,0,0-.414-.414L.425,40.835a1.438,1.438,0,0,0-.141,1.881l1.395,1.892a.293.293,0,0,0,.214.118h.022a.293.293,0,0,0,.207-.086l.456-.456.34.34a3.268,3.268,0,0,0,1.5,5.687A2.506,2.506,0,0,0,6.033,52.1v1.052a.872.872,0,0,0,1.694.293h.419a.872.872,0,0,0,1.643,0h.419a.872.872,0,0,0,1.643,0h.419a.872.872,0,0,0,1.694-.293v-2.3a2.125,2.125,0,0,0,1.19-.582,3.253,3.253,0,0,0,1.634-.561.293.293,0,0,0-.33-.484,2.671,2.671,0,0,1-.839.381,2.114,2.114,0,0,0,.175-.68,2.1,2.1,0,0,0,.453-3.565l.417-.417a2.679,2.679,0,0,1,.531,3.53.293.293,0,1,0,.49.321,3.264,3.264,0,0,0-.6-4.267l.34-.34.456.456a.293.293,0,0,0,.207.086h.022a.293.293,0,0,0,.214-.118l1.395-1.892a1.438,1.438,0,0,0-.141-1.881Zm-4.722,2.705a.273.273,0,0,1,.081-.195l.825-.825.389.389-.825.825a.275.275,0,0,1-.47-.195Zm-.725-2.651.26.26-.825.825a.275.275,0,0,1-.389-.389L14,40.761Zm-.99-.99.447.447-.825.825a.861.861,0,1,0,1.218,1.218l.825-.825.542.542-.825.825a.861.861,0,0,0,1.218,1.218l.825-.825.447.447-1.881,1.881-3.871-3.871ZM11.9,50.87h.318v1.989H11.9Zm-2.011-.586,1.651-1.621c0,.025,0,.05,0,.075a2.125,2.125,0,0,0,.666,1.546ZM7.778,52.076a2.483,2.483,0,0,0,.318-.151v.934H7.778ZM9.84,50.87h.318v1.989H9.84Zm-.481-.884c.007-.078.012-.158.012-.238a2.5,2.5,0,0,0-2.5-2.5c-.054,0-.107,0-.16.006l1.633-1.6a1.657,1.657,0,0,0,3.311-.119c0-.039,0-.078,0-.116l1.68,1.21a2.127,2.127,0,0,0-1.165.6v0Zm-5.192-4.21.448.448.549,1.7a2.515,2.515,0,0,0-.442.551A1.524,1.524,0,0,1,3.537,47,1.508,1.508,0,0,1,4.168,45.776ZM10,44.469a1.072,1.072,0,1,1-1.072,1.072A1.073,1.073,0,0,1,10,44.469Zm4.577,2.34s-3.541-2.562-3.582-2.593a1.654,1.654,0,0,0-2.115.1L5.639,47.488l-.432-1.341L9.28,42.074h1.439l4.073,4.073-.213.662h0ZM4.242,42.521l.825.825a.275.275,0,0,1-.389.389l-.825-.825ZM1.948,43.986l-.377-.511,5-5,.511.377Zm1.49-.662.825.825a.861.861,0,1,0,1.218-1.218l-.825-.825.007-.007.536-.536.825.825a.861.861,0,1,0,1.218-1.218l-.825-.825.447-.447,1.881,1.881L4.873,45.652,2.992,43.771ZM6,40.761l.825.825a.275.275,0,0,1-.389.389l-.825-.825ZM2.364,47a2.686,2.686,0,0,1,.969-2.063l.417.417a2.1,2.1,0,0,0,.734,3.666,2.482,2.482,0,0,0-.1.58A2.689,2.689,0,0,1,2.364,47Zm2.6,2.745A1.912,1.912,0,1,1,6.874,51.66,1.914,1.914,0,0,1,4.962,49.748ZM6.9,53.438a.287.287,0,0,1-.286-.287v-.919a2.469,2.469,0,0,0,.573-.008v.927A.287.287,0,0,1,6.9,53.438Zm2.063,0a.287.287,0,0,1-.286-.287V51.473l.573-.563v2.241a.287.287,0,0,1-.287.287Zm2.063,0a.287.287,0,0,1-.287-.287V50.87h.573v2.282A.287.287,0,0,1,11.031,53.438Zm2.063,0a.287.287,0,0,1-.287-.287V50.87h.573v2.282A.287.287,0,0,1,13.093,53.438Zm.579-3.154a1.545,1.545,0,1,1,1.545-1.545A1.547,1.547,0,0,1,13.673,50.284ZM16.461,47a1.508,1.508,0,0,1-.707,1.279,2.132,2.132,0,0,0-.669-1.138l.3-.921.448-.448A1.508,1.508,0,0,1,16.461,47Zm1.589-3.017-5.13-5.13.511-.377,5,5Zm1.193-1.618L18.779,43l-4.87-4.87.629-.464a.855.855,0,0,1,1.119.084l3.5,3.5A.855.855,0,0,1,19.243,42.368Z" transform="translate(0)"/>
    <path id="Path_6871" data-name="Path 6871" d="M154.659,343.643a.652.652,0,1,0-.652.652A.653.653,0,0,0,154.659,343.643Zm-.872,0a.22.22,0,1,1,.22.22A.22.22,0,0,1,153.787,343.643Z" transform="translate(-147.213 -293.765)" fill="#ff4612"/>
    <path id="Path_6872" data-name="Path 6872" d="M328.06,317.143a.652.652,0,1,0,.652.652A.653.653,0,0,0,328.06,317.143Zm0,.872a.22.22,0,1,1,.22-.22A.22.22,0,0,1,328.06,318.015Z" transform="translate(-314.294 -268.958)" fill="#ff4612"/>
  </g>
</svg>
