<svg xmlns="http://www.w3.org/2000/svg" width="20.257" height="12.645" viewBox="0 0 20.257 12.645">
  <g id="_002-airplane" data-name="002-airplane" transform="translate(0.102 0.103)">
    <path id="Path_6535" data-name="Path 6535" d="M19.9,99.6a1.66,1.66,0,0,0-.864-.943,6.008,6.008,0,0,0-4.624-.2l-1.586.577L8.3,96.8a.586.586,0,0,0-.46-.025l-2.7.984a.586.586,0,0,0-.142,1.026l2.868,2.062-3.986,1.451-1.479-1.2a.586.586,0,0,0-.569-.1l-1.441.525a.586.586,0,0,0-.35.751L.954,104.8a3.27,3.27,0,0,0,4.192,1.955l3.512-1.278L7.9,108.448a.586.586,0,0,0,.768.7l2.7-.984a.586.586,0,0,0,.336-.315l1.815-4.14,5.379-1.958a1.673,1.673,0,0,0,1-2.141ZM6.579,98.477,8,97.958l3.3,1.633-2.108.767ZM18.5,100.644l-5.615,2.044a.586.586,0,0,0-.336.315l-1.815,4.14-1.425.519.757-2.974a.586.586,0,0,0-.768-.7l-4.554,1.657a2.1,2.1,0,0,1-2.69-1.254l-.718-1.972.579-.211,1.479,1.2a.586.586,0,0,0,.569.1l10.847-3.948a4.844,4.844,0,0,1,3.728.163.5.5,0,0,1-.04.921Z" transform="translate(-0.001 -96.736)" stroke="#fff" stroke-width="0.2"/>
  </g>
</svg>
