<svg id="Group_6352" data-name="Group 6352" xmlns="http://www.w3.org/2000/svg" width="20" height="15.567" viewBox="0 0 20 15.567">
  <path id="Path_2819" data-name="Path 2819" d="M280.139,320.065h1.152a.306.306,0,0,1,0,.613h-1.152a.306.306,0,0,1,0-.613Z" transform="translate(-272.528 -309.779)"/>
  <path id="Path_2820" data-name="Path 2820" d="M76.737,378.183a.983.983,0,1,1-.983.983A.984.984,0,0,1,76.737,378.183Zm0,1.353a.37.37,0,1,0-.37-.37A.371.371,0,0,0,76.737,379.536Z" transform="translate(-60.679 -365.627)"/>
  <path id="Path_2821" data-name="Path 2821" d="M412.1,378.183a.983.983,0,1,1-.983.983A.984.984,0,0,1,412.1,378.183Zm0,1.353a.37.37,0,1,0-.37-.37A.371.371,0,0,0,412.1,379.536Z" transform="translate(-409.141 -365.627)"/>
  <path id="Path_2822" data-name="Path 2822" d="M180.893,62.713a2.986,2.986,0,1,1,2.985-2.986A2.989,2.989,0,0,1,180.893,62.713Zm0-5.359a2.373,2.373,0,1,0,2.373,2.373A2.376,2.376,0,0,0,180.893,57.354Z" transform="translate(-170.827 -56.742)" fill="#ff4612"/>
  <path id="Path_2823" data-name="Path 2823" d="M225.507,104.342a.312.312,0,0,1-.433,0l-.695-.695-.695.695a.312.312,0,0,1-.433,0,.306.306,0,0,1,0-.433l.695-.695-.695-.695a.306.306,0,0,1,.433-.433l.695.695.695-.695a.306.306,0,0,1,.433.433l-.695.695.695.695A.306.306,0,0,1,225.507,104.342Z" transform="translate(-214.314 -100.228)" fill="#ff4612"/>
  <path id="Path_2824" data-name="Path 2824" d="M33.332,60.168a1.519,1.519,0,0,1,.339,3,1.372,1.372,0,0,1,.008.145,1.349,1.349,0,1,1-1.822-1.263,1.519,1.519,0,0,1,1.475-1.881Zm-1.738,3.145a.736.736,0,1,0,1.412-.292.306.306,0,0,1,.029-.295c.089-.13.214-.125.353-.134a.906.906,0,1,0-.963-.9.907.907,0,0,0,.112.437.306.306,0,0,1-.251.454A.736.736,0,0,0,31.593,63.313Z" transform="translate(-16.061 -60.034)"/>
  <path id="Path_2825" data-name="Path 2825" d="M17.42,233.691a.907.907,0,1,1-.907-.907A.908.908,0,0,1,17.42,233.691Zm-.907-.294a.294.294,0,1,0,.294.294A.295.295,0,0,0,16.513,233.4Z" transform="translate(1.971 -225.907)"/>
  <path id="Path_2826" data-name="Path 2826" d="M28.431,170.483a.907.907,0,1,1,.907-.907A.908.908,0,0,1,28.431,170.483Zm0-1.2a.294.294,0,1,0,.294.294A.295.295,0,0,0,28.431,169.282Z" transform="translate(-10.413 -164.297)"/>
  <path id="Path_2827" data-name="Path 2827" d="M2.957,229.642a2.031,2.031,0,0,1-1.865-1.232H.305A.306.306,0,0,1,0,228.1v-2a2.987,2.987,0,0,1,.043-.5l0-.01a2.951,2.951,0,0,1,1.034-1.773l.008-.007a2.948,2.948,0,0,1,1.218-.6l1.217-1.163a4.056,4.056,0,0,1,2.814-1.128h2.36a8.45,8.45,0,0,1,3.5.754.306.306,0,0,1-.252.558,7.84,7.84,0,0,0-3.247-.7H7.133l-.247,1.825,7.565.294-1.409-.826a.306.306,0,0,1,.31-.528l2.18,1.278,1.476-2.94a.306.306,0,0,1,.547.275l-1.41,2.81.682.03a2.946,2.946,0,0,1,.978.214l.024.008a2.952,2.952,0,0,1,1.464,1.315,2.745,2.745,0,0,1,.276.688l.39,1.26a.9.9,0,0,1-.863,1.17H17.922a2.028,2.028,0,0,1-3.73,0H4.822A2.031,2.031,0,0,1,2.957,229.642Zm-1.412-1.936a1.415,1.415,0,0,0,2.814.1,1.388,1.388,0,0,0,.014-.2,1.416,1.416,0,1,0-2.831,0Q1.541,227.66,1.544,227.706Zm-.078-3.416-.013.011q-.087.072-.166.153l-.01.01a2.355,2.355,0,0,0-.605,1.107.963.963,0,0,0,.794-.947Zm4.867-2.754a3.446,3.446,0,0,0-2.391.958l-.757.723,3.085.12.244-1.8H6.334Zm12.511,4.232a2.36,2.36,0,0,0-.849-1.01v.085a.963.963,0,0,0,.863.956Zm-4.2,1.846a1.417,1.417,0,0,0,1.412,1.415h0a1.416,1.416,0,1,0-1.416-1.415Zm-.6.183c-.005,0-.008-.173-.008-.184a2.028,2.028,0,1,1,4.056,0c0,.061,0,.123-.008.184h1.018a.291.291,0,0,0,.278-.376l-.312-1.008q-.052,0-.1,0a1.575,1.575,0,0,1-1.574-1.574v-.352c0-.008,0-.016,0-.023a2.332,2.332,0,0,0-.585-.1l-1.155-.051-1.785-.069A6.914,6.914,0,0,1,13.6,227.8Zm-4.972,0h3.848a6.084,6.084,0,0,0,.321-3.576l-6.415-.249a4.819,4.819,0,0,0,.734,3.118A1.993,1.993,0,0,0,9.065,227.8Zm-1.669,0a2.615,2.615,0,0,1-.312-.314,5.364,5.364,0,0,1-.878-3.535L2.478,223.8a2.332,2.332,0,0,0-.435.136,1.576,1.576,0,0,1,.036.333v.352a1.575,1.575,0,0,1-1.468,1.57v1.6H.937c0-.015,0-.031,0-.046s0-.026,0-.04c0-.033,0-.065,0-.1a2.028,2.028,0,1,1,4.056,0c0,.033,0,.065,0,.1,0,.013,0,.026,0,.039s0,.031,0,.047Z" transform="translate(0.001 -214.075)"/>
</svg>
