<svg xmlns="http://www.w3.org/2000/svg" width="20.252" height="11.378" viewBox="0 0 20.252 11.378">
  <g id="Group_6353" data-name="Group 6353" transform="translate(0.05 0.05)">
    <path id="Path_2819" data-name="Path 2819" d="M280.142,320.065h1.16a.309.309,0,1,1,0,.617h-1.16a.309.309,0,0,1,0-.617Z" transform="translate(-272.474 -314.107)" stroke="#fff" stroke-width="0.1"/>
    <path id="Path_2820" data-name="Path 2820" d="M76.744,378.183a.99.99,0,1,1-.99.99A.991.991,0,0,1,76.744,378.183Zm0,1.363a.373.373,0,1,0-.373-.373A.373.373,0,0,0,76.744,379.546Z" transform="translate(-60.567 -369.938)" stroke="#fff" stroke-width="0.1"/>
    <path id="Path_2821" data-name="Path 2821" d="M412.106,378.183a.99.99,0,1,1-.99.99A.991.991,0,0,1,412.106,378.183Zm0,1.363a.373.373,0,1,0-.373-.373A.373.373,0,0,0,412.106,379.546Z" transform="translate(-409.126 -369.938)" stroke="#fff" stroke-width="0.1"/>
    <path id="Path_2825" data-name="Path 2825" d="M17.433,233.7a.914.914,0,1,1-.914-.914A.915.915,0,0,1,17.433,233.7Zm-.914-.3a.3.3,0,1,0,.3.3A.3.3,0,0,0,16.52,233.4Z" transform="translate(2.101 -230.261)" fill="#ff4612" stroke="#fff" stroke-width="0.1"/>
    <path id="Path_2826" data-name="Path 2826" d="M28.438,170.5a.914.914,0,1,1,.914-.914A.915.915,0,0,1,28.438,170.5Zm0-1.21a.3.3,0,1,0,.3.3A.3.3,0,0,0,28.438,169.286Z" transform="translate(-10.286 -168.669)" fill="#ff4612" stroke="#fff" stroke-width="0.1"/>
    <path id="Path_2827" data-name="Path 2827" d="M2.979,229.71A2.046,2.046,0,0,1,1.1,228.469H.307A.308.308,0,0,1,0,228.16v-2.016a3.009,3.009,0,0,1,.043-.5l0-.01a2.972,2.972,0,0,1,1.041-1.786l.008-.007a2.969,2.969,0,0,1,1.227-.6l1.226-1.171a4.086,4.086,0,0,1,2.835-1.136H8.759a8.512,8.512,0,0,1,3.525.759.309.309,0,0,1-.254.562,7.9,7.9,0,0,0-3.271-.7H7.186l-.249,1.839,7.621.3-1.419-.832a.309.309,0,0,1,.312-.532l2.2,1.288,1.487-2.962a.309.309,0,1,1,.551.277l-1.421,2.83.687.031a2.966,2.966,0,0,1,.985.215l.024.009a2.973,2.973,0,0,1,1.475,1.325,2.766,2.766,0,0,1,.278.693l.393,1.27a.91.91,0,0,1-.869,1.179H18.055a2.043,2.043,0,0,1-3.758,0H4.858A2.046,2.046,0,0,1,2.979,229.71Zm-1.423-1.95a1.426,1.426,0,0,0,2.835.1,1.4,1.4,0,0,0,.014-.2,1.426,1.426,0,1,0-2.852,0Q1.553,227.713,1.556,227.759Zm-.078-3.441-.013.011q-.087.073-.167.154l-.01.01a2.372,2.372,0,0,0-.61,1.115.97.97,0,0,0,.8-.954Zm4.9-2.774a3.472,3.472,0,0,0-2.408.965l-.763.729,3.108.121.245-1.815H6.381Zm12.6,4.263a2.378,2.378,0,0,0-.856-1.018v.085a.97.97,0,0,0,.869.963Zm-4.235,1.86a1.427,1.427,0,0,0,1.423,1.425h0a1.426,1.426,0,1,0-1.426-1.425Zm-.609.184c-.005,0-.008-.175-.008-.185a2.043,2.043,0,0,1,4.086,0c0,.062,0,.124-.008.185h1.026a.293.293,0,0,0,.28-.379l-.314-1.015c-.035,0-.07,0-.1,0a1.587,1.587,0,0,1-1.585-1.585v-.354c0-.008,0-.016,0-.023a2.35,2.35,0,0,0-.589-.1l-1.163-.052-1.8-.07a6.965,6.965,0,0,1-.266,3.578Zm-5.009,0h3.876a6.129,6.129,0,0,0,.323-3.6L6.869,224a4.854,4.854,0,0,0,.74,3.141A2.008,2.008,0,0,0,9.132,227.852Zm-1.681,0a2.637,2.637,0,0,1-.314-.316,5.4,5.4,0,0,1-.885-3.561L2.5,223.828a2.348,2.348,0,0,0-.438.137,1.588,1.588,0,0,1,.036.335v.354a1.587,1.587,0,0,1-1.479,1.581v1.615H.944c0-.016,0-.031,0-.047s0-.027,0-.04c0-.033,0-.066,0-.1a2.043,2.043,0,1,1,4.086,0c0,.033,0,.066,0,.1,0,.013,0,.026,0,.04s0,.031,0,.047Z" transform="translate(0.001 -218.432)" stroke="#fff" stroke-width="0.1"/>
  </g>
</svg>
