<svg id="_002-flat-tire" data-name="002-flat-tire" xmlns="http://www.w3.org/2000/svg" width="15" height="15" viewBox="0 0 15 15">
  <path id="Path_3078" data-name="Path 3078" d="M105,136.324a4.557,4.557,0,1,1,4.557-4.557A4.563,4.563,0,0,1,105,136.324Zm0-8.675a4.118,4.118,0,1,0,4.118,4.118A4.123,4.123,0,0,0,105,127.648Z" transform="translate(-97.495 -123.482)"/>
  <path id="Path_3079" data-name="Path 3079" d="M78.846,110.964a5.342,5.342,0,1,1,5.074-3.658.22.22,0,0,1-.417-.139,4.908,4.908,0,1,0-.333.772.22.22,0,0,1,.387.208A5.344,5.344,0,0,1,78.846,110.964Z" transform="translate(-71.346 -97.333)"/>
  <path id="Path_3080" data-name="Path 3080" d="M229.346,256.923a.8.8,0,1,1,.8-.8A.805.805,0,0,1,229.346,256.923Zm0-1.169a.365.365,0,1,0,.365.365A.365.365,0,0,0,229.346,255.753Z" transform="translate(-221.846 -247.834)" fill="#ff4612"/>
  <path id="Path_3081" data-name="Path 3081" d="M219.021,154.739a1.116,1.116,0,1,1,1.116-1.116A1.117,1.117,0,0,1,219.021,154.739Zm0-1.793a.677.677,0,1,0,.677.677A.677.677,0,0,0,219.021,152.946Z" transform="translate(-211.521 -148.039)" fill="#ff4612"/>
  <path id="Path_3082" data-name="Path 3082" d="M219.021,339.08a1.116,1.116,0,1,1,1.116-1.116A1.117,1.117,0,0,1,219.021,339.08Zm0-1.793a.677.677,0,1,0,.677.677A.677.677,0,0,0,219.021,337.287Z" transform="translate(-211.521 -326.979)" fill="#ff4612"/>
  <path id="Path_3083" data-name="Path 3083" d="M139.181,200.807a1.12,1.12,0,1,1,.291-.039A1.122,1.122,0,0,1,139.181,200.807Zm0-1.793a.682.682,0,0,0-.176.023.673.673,0,1,0,.176-.023Z" transform="translate(-134.021 -192.757)" fill="#ff4612"/>
  <path id="Path_3084" data-name="Path 3084" d="M298.824,292.978a1.119,1.119,0,1,1,.291-.038A1.123,1.123,0,0,1,298.824,292.978Zm0-1.793a.68.68,0,0,0-.176.023.672.672,0,1,0,.176-.023Z" transform="translate(-288.987 -282.227)" fill="#ff4612"/>
  <path id="Path_3085" data-name="Path 3085" d="M139.184,292.979a1.122,1.122,0,0,1-.291-.038,1.11,1.11,0,1,1,.291.038Zm0-1.793a.679.679,0,1,0,.176.023A.68.68,0,0,0,139.181,291.185Z" transform="translate(-134.021 -282.228)" fill="#ff4612"/>
  <path id="Path_3086" data-name="Path 3086" d="M298.827,200.809a1.123,1.123,0,0,1-.291-.038,1.11,1.11,0,1,1,.291.038Zm0-1.793a.679.679,0,1,0,.176.023A.68.68,0,0,0,298.824,199.015Z" transform="translate(-288.987 -192.758)" fill="#ff4612"/>
  <path id="Path_3087" data-name="Path 3087" d="M440.6,2.1a.22.22,0,0,1-.155-.375L442.107.067a.22.22,0,0,1,.311.311l-1.659,1.659A.219.219,0,0,1,440.6,2.1Z" transform="translate(-427.482 -0.002)" fill="#ff4612"/>
  <path id="Path_3088" data-name="Path 3088" d="M407.286,1.588a.22.22,0,0,1-.2-.3l.468-1.15a.22.22,0,1,1,.407.166l-.468,1.15a.22.22,0,0,1-.2.137Z" transform="translate(-395.14 0.001)" fill="#ff4612"/>
  <path id="Path_3089" data-name="Path 3089" d="M461.823,73.3a.22.22,0,0,1-.07-.428l1.037-.351a.22.22,0,1,1,.141.416l-1.037.351A.22.22,0,0,1,461.823,73.3Z" transform="translate(-448.08 -70.387)" fill="#ff4612"/>
  <path id="Path_3090" data-name="Path 3090" d="M12.572,40.988H2.428a1.041,1.041,0,0,1-.643-1.859,7.5,7.5,0,0,1-.872-8.444.22.22,0,1,1,.386.21,7.065,7.065,0,0,0,.991,8.141.22.22,0,0,1-.081.353.6.6,0,0,0,.221,1.16H12.572a.6.6,0,0,0,.221-1.16.22.22,0,0,1-.081-.353,7.06,7.06,0,0,0-.2-9.734.22.22,0,0,1,0-.305.287.287,0,1,0-.431-.378.22.22,0,0,1-.3.036A7,7,0,0,0,7.5,27.211a7.051,7.051,0,0,0-5.751,2.964.22.22,0,0,1-.358-.255A7.491,7.491,0,0,1,7.5,26.772,7.429,7.429,0,0,1,11.9,28.2a.726.726,0,0,1,1.055.926,7.5,7.5,0,0,1,.263,10.007,1.04,1.04,0,0,1-.643,1.859Z" transform="translate(0 -25.988)"/>
</svg>
