<svg id="_007-battery" data-name="007-battery" xmlns="http://www.w3.org/2000/svg" width="15" height="14.133" viewBox="0 0 15 14.133">
  <path id="Path_3029" data-name="Path 3029" d="M23.015,13.784h-.74v-.712a.723.723,0,0,0-1.446,0v.712h-3.61v-.426h.751a.235.235,0,0,0,.235-.235V11.71a.235.235,0,0,0-.235-.235H13.53a.235.235,0,0,0-.235.235v1.413a.235.235,0,0,0,.235.235h.751v.426h-3.61v-.712a.723.723,0,0,0-1.446,0v.712h-.74a.235.235,0,0,0-.235.235v1.256a.235.235,0,0,0,.235.235h.74v9.861a.235.235,0,0,0,.235.235H22.039a.235.235,0,0,0,.235-.235V15.511h.74a.235.235,0,0,0,.235-.235V14.02A.235.235,0,0,0,23.015,13.784ZM21.3,13.073a.252.252,0,0,1,.5,0v.712h-.5Zm-7.534-1.127h3.969v.942H13.766Zm.987,1.413h2v.426h-2ZM9.7,13.073a.252.252,0,0,1,.5,0v.712H9.7ZM21.8,25.137H9.7V16.863H21.8Zm0-8.744H9.7v-.881H21.8Zm.975-1.352H8.721v-.785H22.779Z" transform="translate(-8.25 -11.475)"/>
  <path id="Path_3030" data-name="Path 3030" d="M49.349,63.833h1.532V65.9a.235.235,0,0,0,.441.115l1.767-3.171a.235.235,0,0,0-.206-.35H51.352V60.427a.235.235,0,0,0-.441-.115l-1.767,3.171a.235.235,0,0,0,.206.35Zm1.532-2.5v1.394a.235.235,0,0,0,.235.235h1.367l-1.131,2.029V63.6a.235.235,0,0,0-.235-.235H49.75Z" transform="translate(-43.616 -53.637)" fill="#ff4612"/>
  <path id="Path_3031" data-name="Path 3031" d="M23.818,57.358h.46v.46a.235.235,0,1,0,.471,0v-.46h.46a.235.235,0,1,0,0-.471h-.46v-.46a.235.235,0,0,0-.471,0v.46h-.46a.235.235,0,1,0,0,.471Z" transform="translate(-21.52 -50.176)" fill="#ff4612"/>
  <path id="Path_3032" data-name="Path 3032" d="M90.818,61.83h1.39a.235.235,0,1,0,0-.471h-1.39a.235.235,0,1,0,0,.471Z" transform="translate(-79.507 -54.648)" fill="#ff4612"/>
</svg>
