<svg xmlns="http://www.w3.org/2000/svg" width="18.072" height="17.238" viewBox="0 0 18.072 17.238">
  <g id="_003-stethoscope" data-name="003-stethoscope" transform="translate(0.035 0.066)">
    <g id="Group_5206" data-name="Group 5206" transform="translate(0 0)">
      <g id="Group_5205" data-name="Group 5205" transform="translate(0 0)">
        <path id="Path_6536" data-name="Path 6536" d="M17.978,21.111A2.1,2.1,0,0,0,16.2,19.332v-.545a2.648,2.648,0,0,0-2.55-2.73,2.658,2.658,0,0,0-2.55,2.648h.017l-.017,0V24.62a3.3,3.3,0,0,1-3.15,3.425A3.3,3.3,0,0,1,4.8,24.62v-.512c.435,0,.9-.315.9-1.2v-.754A4.254,4.254,0,0,0,9,18.134v-.625H8.4l-.013-3.9a1.5,1.5,0,0,0-1.234-1.468.9.9,0,1,0-.02.612.9.9,0,0,1,.654.859l.014,3.9H7.2v.634a2.386,2.386,0,0,1-1.727,2.238,2.728,2.728,0,0,1-1.65,0A2.384,2.384,0,0,1,2.1,18.142v-.634H1.2v-3.9a.9.9,0,0,1,.666-.865.9.9,0,1,0-.019-.609A1.5,1.5,0,0,0,.6,13.608v3.9H0v.624a4.254,4.254,0,0,0,3.3,4.021v.754c0,.885.465,1.2.9,1.2v.512a3.9,3.9,0,0,0,3.75,4.025A3.9,3.9,0,0,0,11.7,24.62v-5.9a2.053,2.053,0,0,1,1.95-2.065,2.048,2.048,0,0,1,1.95,2.13v.544a2.1,2.1,0,1,0,2.378,1.778ZM6.3,12.708a.3.3,0,1,1,.3-.3A.3.3,0,0,1,6.3,12.708Zm-3.6-.6a.3.3,0,1,1-.3.3A.3.3,0,0,1,2.7,12.108ZM.6,18.132v-.024h.9v.034a2.981,2.981,0,0,0,2.141,2.809,3.338,3.338,0,0,0,2.015,0A2.981,2.981,0,0,0,7.8,18.142v-.034h.6v.024a3.678,3.678,0,0,1-3.06,3.493,4.279,4.279,0,0,1-1.266.062,3.918,3.918,0,0,1-.414-.063A3.676,3.676,0,0,1,.6,18.132Zm3.6,5.376c-.27,0-.3-.42-.3-.6v-.637l.073.007.09.008c.142.013.285.021.429.021h.015c.144,0,.287-.009.428-.021l.093-.008.072-.007v.637c0,.18-.03.6-.3.6Zm11.7-.6a1.5,1.5,0,1,1,1.5-1.5A1.5,1.5,0,0,1,15.9,22.908Z" transform="translate(0 -11.508)" stroke="#000" stroke-width="0.07"/>
      </g>
    </g>
    <g id="Group_5208" data-name="Group 5208" transform="translate(15.382 9.135)">
      <g id="Group_5207" data-name="Group 5207">
        <path id="Path_6537" data-name="Path 6537" d="M400.785,251.515a.785.785,0,1,0,.785.785A.785.785,0,0,0,400.785,251.515Zm0,1.047a.262.262,0,1,1,.262-.262A.262.262,0,0,1,400.785,252.562Z" transform="translate(-400 -251.515)" fill="#ff4612"/>
      </g>
    </g>
  </g>
</svg>
