<svg xmlns="http://www.w3.org/2000/svg" width="12" height="16.909" viewBox="0 0 12 16.909">
  <g id="_006-damper" data-name="006-damper" transform="translate(-10 -1)">
    <path id="Path_6840" data-name="Path 6840" d="M15.091,7.182A1.091,1.091,0,1,0,14,6.091,1.092,1.092,0,0,0,15.091,7.182Zm0-1.636a.545.545,0,1,1-.545.545A.546.546,0,0,1,15.091,5.545Z" transform="translate(-2.909 -2.909)" fill="#ff4612"/>
    <path id="Path_6841" data-name="Path 6841" d="M14,52.091A1.091,1.091,0,1,0,15.091,51,1.092,1.092,0,0,0,14,52.091Zm1.636,0a.545.545,0,1,1-.545-.545A.546.546,0,0,1,15.636,52.091Z" transform="translate(-2.909 -36.364)" fill="#ff4612"/>
    <path id="Path_6842" data-name="Path 6842" d="M43.091,51a1.091,1.091,0,1,0,1.091,1.091A1.092,1.092,0,0,0,43.091,51Zm0,1.636a.545.545,0,1,1,.545-.545A.546.546,0,0,1,43.091,52.636Z" transform="translate(-23.273 -36.364)" fill="#ff4612"/>
    <path id="Path_6843" data-name="Path 6843" d="M41.273,13.84V12.132a.817.817,0,0,0,.545-.768V6.182a.817.817,0,0,0-.545-.768V5.069a2.182,2.182,0,1,0-2.182,0v.345a.817.817,0,0,0-.545.768v5.182a.817.817,0,0,0,.545.768V13.84a2.182,2.182,0,1,0,2.182,0ZM38.545,3.182a1.636,1.636,0,1,1,2.337,1.477l-.155.074v.631H39.636V4.733l-.155-.074A1.645,1.645,0,0,1,38.545,3.182Zm.545,3a.273.273,0,0,1,.273-.273H41a.273.273,0,0,1,.273.273v5.182a.273.273,0,0,1-.273.273H39.364a.273.273,0,0,1-.273-.273Zm1.091,11.182a1.635,1.635,0,0,1-.7-3.113l.155-.074V12.182h1.091v1.995l.155.074a1.635,1.635,0,0,1-.7,3.113Z" transform="translate(-20.364 0)"/>
    <path id="Path_6844" data-name="Path 6844" d="M14.364,3.182a2.182,2.182,0,1,0-3.273,1.887v.345a.817.817,0,0,0-.545.768V8.364a.817.817,0,0,0,.545.768v.6h-.273a.818.818,0,1,0,0,1.636h.273v.545h-.273a.818.818,0,1,0,0,1.636h.273v.295a2.182,2.182,0,1,0,2.182,0v-.295h.273a.818.818,0,0,0,0-1.636h-.273v-.545h.273a.818.818,0,0,0,0-1.636h-.273v-.6a.817.817,0,0,0,.545-.768V6.182a.817.817,0,0,0-.545-.768V5.069A2.193,2.193,0,0,0,14.364,3.182Zm-3.818,0a1.636,1.636,0,1,1,2.337,1.477l-.155.074v.631H11.636V4.733l-.155-.074A1.645,1.645,0,0,1,10.545,3.182Zm2.337,11.069a1.636,1.636,0,1,1-1.4,0l.155-.074v-.631h1.091v.631Zm.935-1.523a.273.273,0,0,1-.273.273H10.818a.273.273,0,0,1,0-.545h2.727A.273.273,0,0,1,13.818,12.727Zm-1.091-.818H11.636v-.545h1.091Zm1.091-1.364a.273.273,0,0,1-.273.273H10.818a.273.273,0,0,1,0-.545h2.727A.273.273,0,0,1,13.818,10.545Zm-2.182-.818V9.182h1.091v.545Zm1.636-1.364A.273.273,0,0,1,13,8.636H11.364a.273.273,0,0,1-.273-.273V6.182a.273.273,0,0,1,.273-.273H13a.273.273,0,0,1,.273.273Z" transform="translate(0 0)"/>
    <path id="Path_6845" data-name="Path 6845" d="M43.091,7.182A1.091,1.091,0,1,0,42,6.091,1.092,1.092,0,0,0,43.091,7.182Zm0-1.636a.545.545,0,1,1-.545.545A.546.546,0,0,1,43.091,5.545Z" transform="translate(-23.273 -2.909)" fill="#ff4612"/>
    <path id="Path_6846" data-name="Path 6846" d="M16,21h1.091v.545H16Z" transform="translate(-4.364 -14.545)"/>
    <path id="Path_6847" data-name="Path 6847" d="M16,25h1.091v.545H16Z" transform="translate(-4.364 -17.455)"/>
  </g>
</svg>
