<svg xmlns="http://www.w3.org/2000/svg" width="20.1" height="16.381" viewBox="0 0 20.1 16.381">
  <g id="Tow_Truck" data-name="Tow Truck" transform="translate(0.05 0.052)">
    <rect id="Rectangle_134" data-name="Rectangle 134" width="1.151" height="0.575" transform="translate(13.464 10.005)" stroke="#fff" stroke-width="0.1"/>
    <path id="Path_3091" data-name="Path 3091" d="M21.77,16.631l-1.621-3a1,1,0,0,0-.88-.525H14.707L4.161,8.191a.334.334,0,0,0-.443.161l-.563,1.21a.333.333,0,0,0,.162.444l.017.007v1.76a.333.333,0,0,0,.333.333.333.333,0,1,1-.333.333H2.667A1,1,0,1,0,4,11.5V10.324l8.667,4.04v4.743H2.333A.333.333,0,0,0,2,19.44v2.667a.667.667,0,0,0,.667.667h.7a2,2,0,0,0,3.94,0H15.7a2,2,0,0,0,3.94,0H21a1,1,0,0,0,1-1v-4.3A1.653,1.653,0,0,0,21.77,16.631Zm-2.208-2.683,1.527,2.825H16v-3h3.269a.333.333,0,0,1,.293.175ZM4.181,8.936,14,13.513v.738L3.9,9.542Zm9.152,5.739.667.311v4.121h-.667Zm-8,9.1A1.333,1.333,0,1,1,6.667,22.44,1.333,1.333,0,0,1,5.333,23.773Zm0-3.333a2,2,0,0,0-1.97,1.667h-.7V19.773H14v2.333H7.3a2,2,0,0,0-1.97-1.667Zm12.333,3.333A1.333,1.333,0,1,1,19,22.44,1.333,1.333,0,0,1,17.667,23.773ZM21,22.107H19.637a2,2,0,0,0-3.94,0h-1.03V13.773h.667v3.333a.333.333,0,0,0,.333.333h5.662c0,.012,0,.024,0,.036v.631H20a.667.667,0,0,0-.667.667v.667a.667.667,0,0,0,.667.667h1.333v.667h-1v.667h1v.333A.333.333,0,0,1,21,22.107Zm.333-3.333v.667H20v-.667Z" transform="translate(-2 -8.16)" stroke="#fff" stroke-width="0.1"/>
    <path id="Path_3092" data-name="Path 3092" d="M4.536,29.028H8.094a.858.858,0,0,0,1.62,0h.628a.288.288,0,0,0,.288-.288V27.589a.288.288,0,0,0-.084-.2l-.573-.575a.288.288,0,0,0-.2-.085H9.3L7.366,25.069A.288.288,0,0,0,7.178,25H4.657a.858.858,0,0,0-.772.477l-.625,1.249H2.575A.575.575,0,0,0,2,27.3V28.74a.288.288,0,0,0,.288.288h.628a.858.858,0,0,0,1.62,0Zm4.368,0a.288.288,0,1,1,.288-.288A.288.288,0,0,1,8.9,29.028Zm-.489-2.3h-2.1V25.575h.757ZM4.4,25.734a.286.286,0,0,1,.257-.159H5.74v1.151H3.9ZM2.575,27.3H9.651l.4.406v.744H9.714a.858.858,0,0,0-1.62,0H4.536a.858.858,0,0,0-1.62,0H2.575Zm1.151,1.726a.288.288,0,1,1,.288-.288A.288.288,0,0,1,3.726,29.028Z" transform="translate(-2 -19.012)" fill="#ff4612" stroke="#fff" stroke-width="0.1"/>
  </g>
</svg>
