<svg xmlns="http://www.w3.org/2000/svg" width="13.198" height="14.71" viewBox="0 0 13.198 14.71">
  <g id="Group_6361" data-name="Group 6361" transform="translate(0.398 0.397)">
    <path id="Path_2784" data-name="Path 2784" d="M575.569,313.168s3.781.142,5.955-1.134a12.4,12.4,0,0,0,5.884,1.205,11.125,11.125,0,0,1-.52,6.687,12.075,12.075,0,0,1-5.364,6.026,12.777,12.777,0,0,1-5.057-5.057A11.775,11.775,0,0,1,575.569,313.168Z" transform="translate(-575.317 -312.034)" fill="none" stroke="#000" stroke-width="0.7"/>
    <g id="Group_4255" data-name="Group 4255" transform="translate(2.535 2.65)">
      <path id="Path_2739" data-name="Path 2739" d="M101.9,162.012a.14.14,0,0,0,.014-.116l-.445-1.407a.24.24,0,0,0-.223-.176H97.8a.24.24,0,0,0-.223.176l-.445,1.407a.128.128,0,0,0,.108.17h4.575A.111.111,0,0,0,101.9,162.012Zm-4.507-.2.391-1.237a.008.008,0,0,1,.007-.006h3.456a.008.008,0,0,1,.007.006l.391,1.237Z" transform="translate(-95.751 -159.905)" fill="#ff4612" stroke="#ff4612" stroke-width="0.07"/>
      <path id="Path_2740" data-name="Path 2740" d="M351.687,353.225c0,.3.318.536.724.536s.724-.236.724-.536-.318-.536-.724-.536S351.687,352.924,351.687,353.225Zm1.219,0c0,.133-.212.281-.5.281s-.5-.148-.5-.281.212-.281.5-.281S352.906,353.092,352.906,353.225Z" transform="translate(-346.444 -349.013)" fill="#ff4612" stroke="#ff4612" stroke-width="0.07"/>
      <path id="Path_2741" data-name="Path 2741" d="M63.847,352.689c-.406,0-.724.236-.724.536s.318.536.724.536.724-.236.724-.536S64.253,352.689,63.847,352.689Zm0,.817c-.284,0-.5-.148-.5-.281s.212-.281.5-.281.5.148.5.281S64.131,353.506,63.847,353.506Z" transform="translate(-62.269 -349.013)" fill="#ff4612" stroke="#ff4612" stroke-width="0.07"/>
      <path id="Path_2742" data-name="Path 2742" d="M14.445,138.036h-.61a.117.117,0,0,0-.111.1l-.08.359-.562-1.777a.611.611,0,0,0-.568-.449H9.059a.611.611,0,0,0-.568.449l-.562,1.777-.08-.359a.117.117,0,0,0-.111-.1h-.61a.122.122,0,0,0-.114.128v.545a.122.122,0,0,0,.114.128H7.76l-.39.609a.723.723,0,0,0-.112.391v1.6a.7.7,0,0,0,.244.54s0,0,0,0v.408a.251.251,0,0,0,.236.264H8.47a.251.251,0,0,0,.236-.264V142.1h4.161v.281a.251.251,0,0,0,.236.264h.732a.251.251,0,0,0,.236-.264v-.408s0,0,0,0a.7.7,0,0,0,.244-.54v-1.6a.723.723,0,0,0-.112-.391l-.39-.609h.631a.122.122,0,0,0,.114-.128v-.545A.122.122,0,0,0,14.445,138.036Zm-7.2.545v-.289h.406l.065.289ZM9.8,140.47H11.77v.289H9.8Zm.018-.255a.381.381,0,0,1,.355-.289H11.4a.381.381,0,0,1,.355.289Zm-.018.8H11.77v.289H9.8Zm4.265.545a.381.381,0,0,1-.355.289H7.86a.381.381,0,0,1-.355-.289Zm-5.591.825a.008.008,0,0,1-.008.009H7.738a.008.008,0,0,1-.008-.009V142.1h.747Zm5.365-.281v.281a.008.008,0,0,1-.008.009H13.1a.008.008,0,0,1-.008-.009V142.1h.747Zm.244-2.268V141.3H12v-.962a.641.641,0,0,0-.6-.672H10.177a.641.641,0,0,0-.6.672v.962H7.486v-1.468a.448.448,0,0,1,.07-.242l.485-.758H12.25a.128.128,0,0,0,0-.255H8.143l.563-1.781a.379.379,0,0,1,.352-.278h3.456a.379.379,0,0,1,.352.278l.563,1.781h-.692a.128.128,0,0,0,0,.255h.795l.485.758A.448.448,0,0,1,14.086,139.836Zm.244-1.255h-.471l.065-.289h.406Z" transform="translate(-7.014 -136.266)" fill="#ff4612" stroke="#ff4612" stroke-width="0.07"/>
    </g>
  </g>
</svg>
