<svg xmlns="http://www.w3.org/2000/svg" width="16.295" height="16.32" viewBox="0 0 16.295 16.32">
  <g id="Group_6359" data-name="Group 6359" transform="translate(0.146 0.15)">
    <path id="Path_6521" data-name="Path 6521" d="M-41.331-306.167a.335.335,0,0,1-.185-.357c.007-.508,0-1.015,0-1.523,0-1.1-.281-1.473-1.354-1.759-.26-.069-.526-.112-.79-.166a.25.25,0,0,1-.192-.152.7.7,0,0,1,.3-.874,1.026,1.026,0,0,0,.555-.591c.239-.765.27-2.123-.534-2.522a1.533,1.533,0,0,0-1.507,0,1.315,1.315,0,0,0-.678,1.233,4.03,4.03,0,0,0,.061,1.115,1.225,1.225,0,0,0,.741.822c.371.161.167.5.2.753.017.155-.136.2-.276.234-.362.088-.721.189-1.079.29a.249.249,0,0,1-.343-.15.237.237,0,0,1,.165-.334c.322-.1.65-.187.974-.281.02-.006.048-.023.051-.039a.07.07,0,0,0-.029-.059,1.7,1.7,0,0,1-.966-1.517,2.725,2.725,0,0,1,.456-2.135,2.017,2.017,0,0,1,2.173-.524,1.861,1.861,0,0,1,1.241,1.748,2.708,2.708,0,0,1-.434,2.008,1.814,1.814,0,0,1-.525.411c-.021.011-.031.043-.047.065a.227.227,0,0,0,.063.038,3.283,3.283,0,0,1,1.981.959,1.315,1.315,0,0,1,.308.856c.005.729,0,1.458,0,2.188a.279.279,0,0,1-.194.264Z" transform="translate(56.944 322.186)" stroke="#000" stroke-width="0.3"/>
    <path id="Path_6522" data-name="Path 6522" d="M-79.246-289.177c-.187-.081-.173-.245-.188-.412-.06-.687-.595-.869-1.134-1.029-.608-.18-.773-.46-.622-1.1a.3.3,0,0,1,.17-.2.9.9,0,0,0,.533-.938c-.03-.443.072-.907-.247-1.294a1.223,1.223,0,0,0-1.337-.336,1.091,1.091,0,0,0-.727,1.1c0,.221.009.444,0,.664a.728.728,0,0,0,.54.818.241.241,0,0,1,.168.245c.022.839.022.837-.767,1.073-.586.176-1.042.463-1,1.179.007.117-.089.184-.188.231h-.138c-.3-.159-.2-.432-.154-.656.184-.886.887-1.152,1.651-1.335.029-.007.079-.038.077-.05-.017-.1.068-.237-.04-.293a1.143,1.143,0,0,1-.658-1.105,3.754,3.754,0,0,1,.125-1.471,1.657,1.657,0,0,1,1.884-.954,1.593,1.593,0,0,1,1.329,1.653c0,.631.11,1.3-.522,1.738a.367.367,0,0,0-.187.382c.008.075.029.1.1.114a1.978,1.978,0,0,1,1.591,1.135,1.487,1.487,0,0,1,.077.607.276.276,0,0,1-.192.237Z" transform="translate(89.6 305.196)" stroke="#000" stroke-width="0.3"/>
    <path id="Path_6523" data-name="Path 6523" d="M-120.062-253.071a.037.037,0,0,0,0-.012.075.075,0,0,1,.113,0,.037.037,0,0,0,0,.012Z" transform="translate(120.288 269.09)" stroke="#fff" stroke-width="0.05"/>
    <path id="Path_6524" data-name="Path 6524" d="M-7.2-320.866l-.012-.085H-7.2Z" transform="translate(23.203 327.455)" stroke="#fff" stroke-width="0.05"/>
    <path id="Path_6525" data-name="Path 6525" d="M-121.333-302.085h-.113a.226.226,0,0,1-.2-.214,8.9,8.9,0,0,1,.043-1.857c.174-.8.836-1.1,1.526-1.334.232-.079.477-.123.715-.186a.28.28,0,0,0,.068-.041c-.016-.024-.027-.058-.049-.071a1.837,1.837,0,0,1-.957-1.626,2.7,2.7,0,0,1,.431-1.976,2.026,2.026,0,0,1,2.187-.564,1.862,1.862,0,0,1,1.257,1.742,2.716,2.716,0,0,1-.427,1.983,2,2,0,0,1-.529.44c-.023.013-.034.046-.051.07a.241.241,0,0,0,.066.043c.132.032.266.056.4.09a.245.245,0,0,1,.2.316.246.246,0,0,1-.325.188c-.2-.04-.4-.087-.6-.123a.293.293,0,0,1-.26-.309.686.686,0,0,1,.413-.8,1.1,1.1,0,0,0,.588-1.014,2.231,2.231,0,0,0-.365-1.793,1.52,1.52,0,0,0-1.608-.323,1.337,1.337,0,0,0-.861,1.264,2.408,2.408,0,0,0,.259,1.558,1.065,1.065,0,0,0,.469.4c.438.158.266.52.264.8,0,.242-.255.215-.425.25a3.5,3.5,0,0,0-1.507.581,1,1,0,0,0-.411.842c.007.464,0,.928,0,1.392A.258.258,0,0,1-121.333-302.085Z" transform="translate(121.671 318.092)" stroke="#000" stroke-width="0.3"/>
    <path id="Path_6526" data-name="Path 6526" d="M-117.87-315.868h0Z" transform="translate(118.401 323.083)" stroke="#fff" stroke-width="0.05"/>
    <path id="Path_6527" data-name="Path 6527" d="M-121.524-321.133l-.01.071Z" transform="translate(121.553 327.612)" stroke="#fff" stroke-width="0.05"/>
    <path id="Path_6528" data-name="Path 6528" d="M-121.535-361.04a4.79,4.79,0,0,1,1.359-2.715,9.766,9.766,0,0,1,5.345-2.939c.213-.044.431-.064.647-.1.028-.012.058,0,.086-.01l.08,0c.033-.011.068,0,.1-.01l.106-.005a2.988,2.988,0,0,0,.007-.322,1.329,1.329,0,0,1,0-.172.233.233,0,0,1,.275-.206c.143.01.259.106.233.24-.086.435.143.459.5.518a8.989,8.989,0,0,1,6.844,4.459,3.278,3.278,0,0,1,.374,1.287c.015.027,0,.058.012.085v.18c-.383.625-.814.614-1.246.006a1.447,1.447,0,0,0-1.2-.5,2.019,2.019,0,0,0-1.509.448.529.529,0,0,1-.734-.036,2.677,2.677,0,0,0-3.011.093.118.118,0,0,0-.017.076q0,1.108,0,2.215c0,.176-.081.29-.261.289s-.256-.114-.255-.287c0-.725,0-1.449,0-2.174,0-.166-.143-.193-.229-.26a2.724,2.724,0,0,0-2.84.059.555.555,0,0,1-.78-.017,2.271,2.271,0,0,0-2.52-.06c-.2.162-.239.474-.52.561l-.139.031a.95.95,0,0,1-.206,0,.562.562,0,0,1-.512-.664C-121.532-360.991-121.545-361.017-121.535-361.04Zm7.735-6.273q-.006.247-.011.494Zm-.218.509.1-.01Zm-.166.014.086-.01Zm4.5,4.37a.243.243,0,0,1-.206.318.242.242,0,0,1-.3-.216,5.648,5.648,0,0,0-2.648-3.739,1.252,1.252,0,0,0-1.439,0,5.647,5.647,0,0,0-2.648,3.738.241.241,0,0,1-.3.215.245.245,0,0,1-.206-.319,5.79,5.79,0,0,1,.857-2.113,6.5,6.5,0,0,1,1.413-1.555c-.051.01-.071.013-.09.018a9.551,9.551,0,0,0-3.969,2.107,4.807,4.807,0,0,0-1.809,3.058c-.007.063.017.086.075.086.195,0,.181-.191.262-.29a2.691,2.691,0,0,1,3.36-.134c.048.044.085.067.147.016a3.167,3.167,0,0,1,3.566.014.081.081,0,0,0,.121,0,3.179,3.179,0,0,1,3.569-.019c.025.021.089.033.106.018a2.262,2.262,0,0,1,1.611-.547,1.974,1.974,0,0,1,1.935.9c.017.031.1.03.154.031.01,0,.033-.059.031-.089a3.143,3.143,0,0,0-.326-1.158,7.459,7.459,0,0,0-3.3-3.151,9.153,9.153,0,0,0-2.229-.865A6.259,6.259,0,0,1-109.681-362.42Z" transform="translate(121.564 367.52)" fill="#ff4612" stroke="#ff4612" stroke-width="0.3"/>
  </g>
</svg>
