<svg id="Page-1" xmlns="http://www.w3.org/2000/svg" width="16.254" height="16.258" viewBox="0 0 16.254 16.258">
  <g id="_033---Insurance" data-name="033---Insurance" transform="translate(0 0)">
    <path id="Shape" d="M22.508,1.8,18.444.023a.271.271,0,0,0-.217,0L14.163,1.8A.271.271,0,0,0,14,2.051V6.3a2.984,2.984,0,0,0,1.236,2.414l2.809,2.026a.5.5,0,0,0,.581,0l2.809-2.026A2.984,2.984,0,0,0,22.671,6.3V2.051A.271.271,0,0,0,22.508,1.8Zm-.379,4.5a2.441,2.441,0,0,1-1.011,1.974l-2.783,2.007L15.553,8.279A2.441,2.441,0,0,1,14.542,6.3V2.228L18.335.567l3.794,1.66Z" transform="translate(-10.211 -0.001)"/>
    <path id="Shape-2" data-name="Shape" d="M21.143,4.389l-2.981,1.3A.271.271,0,0,0,18,5.942V9.488a1.9,1.9,0,0,0,.786,1.535l2.307,1.664a.271.271,0,0,0,.317,0l2.307-1.664A1.9,1.9,0,0,0,24.5,9.488V5.942a.271.271,0,0,0-.163-.248l-2.981-1.3A.271.271,0,0,0,21.143,4.389Zm2.818,1.73V9.488a1.355,1.355,0,0,1-.561,1.1l-2.149,1.55L19.1,10.583a1.355,1.355,0,0,1-.561-1.1V6.119l2.71-1.186Z" transform="translate(-13.127 -3.183)"/>
    <path id="Shape-3" data-name="Shape" d="M2.258,28.13,1.672,26.76a.864.864,0,0,0-1.581.7l1.062,2.336a2.878,2.878,0,0,0,.588.849l1.67,1.67a.539.539,0,0,0-.147.369V34.85a.542.542,0,0,0,.542.542H6.787a.542.542,0,0,0,.542-.542V32.682a.542.542,0,0,0-.542-.542v-.5a2.839,2.839,0,0,0-.594-1.775,1.951,1.951,0,0,0-.9-.659,5.36,5.36,0,0,1-1.551-1A1.246,1.246,0,0,0,2.258,28.13Zm4.529,6.72H3.806V32.682H6.787ZM5.77,30.2a2.3,2.3,0,0,1,.475,1.436v.5H4l-1.88-1.88a2.344,2.344,0,0,1-.478-.69L.584,27.234a.322.322,0,1,1,.589-.26l.606,1.414A3.2,3.2,0,0,0,2.463,29.4L3.7,30.635a.271.271,0,1,0,.383-.383L2.846,29.014a2.673,2.673,0,0,1-.334-.406.7.7,0,0,1,.878.015,5.777,5.777,0,0,0,1.729,1.095A1.423,1.423,0,0,1,5.77,30.2Z" transform="translate(-0.017 -19.134)"/>
    <path id="Shape-4" data-name="Shape" d="M20.542,53h-.271a.271.271,0,1,0,0,.542h.271a.271.271,0,1,0,0-.542Z" transform="translate(-14.585 -38.639)"/>
    <path id="Shape-5" data-name="Shape" d="M39.176,29.76l1.062-2.336a.864.864,0,1,0-1.58-.7l-.585,1.364a1.25,1.25,0,0,0-1.482.081,5.36,5.36,0,0,1-1.551,1,1.951,1.951,0,0,0-.9.659,2.839,2.839,0,0,0-.594,1.776v.5a.542.542,0,0,0-.542.542v2.168a.542.542,0,0,0,.542.542h2.981a.542.542,0,0,0,.542-.542V32.648a.539.539,0,0,0-.147-.369l1.67-1.67A2.878,2.878,0,0,0,39.176,29.76Zm-2.653,5.056H33.542V32.648h2.981Zm-.2-2.71H34.084v-.5a2.3,2.3,0,0,1,.475-1.436,1.424,1.424,0,0,1,.65-.483,5.774,5.774,0,0,0,1.729-1.095.7.7,0,0,1,.879-.017,2.657,2.657,0,0,1-.336.409l-1.238,1.238a.271.271,0,0,0,.383.383l1.238-1.238a3.2,3.2,0,0,0,.683-1.009l.606-1.414a.322.322,0,1,1,.589.26l-1.062,2.336a2.343,2.343,0,0,1-.478.69Z" transform="translate(-24.063 -19.1)"/>
    <path id="Shape-6" data-name="Shape" d="M37.542,53h-.271a.271.271,0,0,0,0,.542h.271a.271.271,0,0,0,0-.542Z" transform="translate(-26.979 -38.639)"/>
    <path id="Shape-7" data-name="Shape" d="M23.434,14.493a.271.271,0,1,0-.325.434l1.084.813a.271.271,0,0,0,.163.054.291.291,0,0,0,.046,0,.271.271,0,0,0,.18-.117l2.168-3.252a.271.271,0,0,0-.451-.3l-2.009,3.013Z" transform="translate(-16.772 -8.748)" fill="#ff4612"/>
  </g>
</svg>
