<svg xmlns="http://www.w3.org/2000/svg" xmlns:xlink="http://www.w3.org/1999/xlink" width="1920" height="596.633" viewBox="0 0 1920 596.633">
  <defs>
    <clipPath id="clip-path">
      <path id="Path_6086" data-name="Path 6086" d="M0,0H1920V596.63H0Z" transform="translate(0)" fill="#fff" stroke="#dedede" stroke-width="1"/>
    </clipPath>
    <clipPath id="clip-path-2">
      <path id="Path_6086-2" data-name="Path 6086" d="M0,0H1918V595.633H0Z" fill="#fff" stroke="#dedede" stroke-width="1"/>
    </clipPath>
  </defs>
  <g id="Group_4916" data-name="Group 4916" transform="translate(0 -3101)">
    <path id="Path_5995" data-name="Path 5995" d="M0,0H1920V596.63H0Z" transform="translate(0 3101)" fill="#016c9b" opacity="0.93"/>
    <g id="Group_5186" data-name="Group 5186">
      <g id="Mask_Group_2" data-name="Mask Group 2" transform="translate(0 3101)" opacity="0.07" clip-path="url(#clip-path)" style="mix-blend-mode: lighten;isolation: isolate">
        <g id="Group_4869" data-name="Group 4869" transform="translate(-4.513 0)" opacity="0.32">
          <g id="Group_4802" data-name="Group 4802" transform="translate(0 0)">
            <g id="Group_4801" data-name="Group 4801" transform="translate(0 0)">
              <g id="Group_4800" data-name="Group 4800">
                <g id="Group_4770" data-name="Group 4770" transform="translate(624.22 625.265)">
                  <path id="Path_5996" data-name="Path 5996" d="M566.956,301.915l-4.591-2.3,6.008-12.034,12.014-6.017,2.3,4.6L572.2,291.414Z" transform="translate(-562.364 -281.564)" fill="#fff"/>
                </g>
                <g id="Group_4771" data-name="Group 4771" transform="translate(592.346 593.337)">
                  <path id="Path_5997" data-name="Path 5997" d="M552.406,319.293l-4.591-2.3,16.632-33.319,33.263-16.66,2.3,4.6-31.733,15.893Z" transform="translate(-547.816 -267.016)" fill="#fff"/>
                </g>
                <g id="Group_4772" data-name="Group 4772" transform="translate(560.472 561.41)">
                  <path id="Path_5998" data-name="Path 5998" d="M537.858,336.672l-4.591-2.3,27.257-54.6,54.513-27.3,2.3,4.6L564.349,283.6Z" transform="translate(-533.267 -252.467)" fill="#fff"/>
                </g>
                <g id="Group_4773" data-name="Group 4773" transform="translate(528.598 529.483)">
                  <path id="Path_5999" data-name="Path 5999" d="M523.309,354.05l-4.591-2.3,37.88-75.888,75.763-37.945,2.3,4.6-74.232,37.178Z" transform="translate(-518.718 -237.917)" fill="#fff"/>
                </g>
                <g id="Group_4774" data-name="Group 4774" transform="translate(466.831 467.612)">
                  <path id="Path_6000" data-name="Path 6000" d="M492.82,388.877l-2.3-4.6,40.622-20.344,37.776-75.681,75.554-37.839,20.31-40.69,4.591,2.3L648.3,254.246l-75.554,37.839-37.776,75.681Z" transform="translate(-490.524 -209.724)" fill="#fff"/>
                </g>
                <g id="Group_4775" data-name="Group 4775" transform="translate(408.184 408.867)">
                  <path id="Path_6001" data-name="Path 6001" d="M468.346,419.7l-4.591-2.3,2.465-4.94,75.554-37.839,37.776-75.681L655.1,261.1l37.776-75.681,4.932-2.469,2.3,4.6-3.4,1.7L658.93,264.937l-75.554,37.839L545.6,378.457,470.045,416.3Z" transform="translate(-463.755 -182.954)" fill="#fff"/>
                </g>
                <g id="Group_4776" data-name="Group 4776" transform="translate(376.31 376.939)">
                  <path id="Path_6002" data-name="Path 6002" d="M453.8,437.081l-4.591-2.3,13.09-26.224,75.554-37.839,37.776-75.68L651.18,257.2l37.776-75.681L715.136,168.4l2.3,4.6-24.65,12.346-37.776,75.681L579.452,298.87l-37.776,75.681L466.121,412.39Z" transform="translate(-449.205 -168.405)" fill="#fff"/>
                </g>
                <g id="Group_4777" data-name="Group 4777" transform="translate(344.435 345.011)">
                  <path id="Path_6003" data-name="Path 6003" d="M439.247,454.46l-4.591-2.3,23.716-47.509,75.553-37.841,37.777-75.68,75.553-37.84,37.777-75.68,47.43-23.755,2.3,4.6-45.9,22.989-37.777,75.68-75.553,37.84-37.777,75.68L462.2,408.483Z" transform="translate(-434.656 -153.856)" fill="#fff"/>
                </g>
                <g id="Group_4778" data-name="Group 4778" transform="translate(312.561 313.084)">
                  <path id="Path_6004" data-name="Path 6004" d="M424.7,471.838l-4.591-2.3,34.34-68.794L530,362.9l37.777-75.68,75.553-37.84,37.777-75.68,68.68-34.4,2.3,4.6-67.149,33.631-37.777,75.68L571.6,291.057l-37.777,75.68-75.553,37.84Z" transform="translate(-420.107 -139.307)" fill="#fff"/>
                </g>
                <g id="Group_4779" data-name="Group 4779" transform="translate(261.419 261.857)">
                  <path id="Path_6005" data-name="Path 6005" d="M399.059,500.872l-2.3-4.6,26.456-13.249L461,407.343l75.553-37.84,37.777-75.68,75.553-37.84,37.777-75.68,75.554-37.84,13.227-26.5,4.591,2.3L767.037,146.3l-75.554,37.84-37.777,75.68-75.553,37.84-37.777,75.68-75.553,37.84-37.777,75.681Z" transform="translate(-396.763 -115.963)" fill="#fff"/>
                </g>
                <g id="Group_4780" data-name="Group 4780" transform="translate(197.671 198.002)">
                  <path id="Path_6006" data-name="Path 6006" d="M369.961,535.628l-2.3-4.6,68.954-34.535,37.777-75.68,75.553-37.84,37.777-75.68,75.553-37.84,37.777-75.68,75.553-37.84,34.477-69.07,4.591,2.3-35.242,70.6-75.553,37.84-37.777,75.679-75.553,37.84-37.777,75.68-75.553,37.84-37.777,75.68Z" transform="translate(-367.665 -86.865)" fill="#fff"/>
                </g>
                <g id="Group_4781" data-name="Group 4781" transform="translate(160.273 160.542)">
                  <path id="Path_6007" data-name="Path 6007" d="M355.186,554.869l-4.591-2.3,9.549-19.129L435.7,495.6l37.777-75.68,75.553-37.84,37.777-75.68,75.553-37.84,37.777-75.679,75.553-37.84,37.777-75.68,19.1-9.565,2.3,4.6-17.567,8.8-37.777,75.681-75.553,37.84-37.777,75.679-75.553,37.84-37.777,75.68L477.3,423.753l-37.777,75.68-75.554,37.84Z" transform="translate(-350.595 -69.795)" fill="#fff"/>
                </g>
                <g id="Group_4782" data-name="Group 4782" transform="translate(128.399 128.614)">
                  <path id="Path_6008" data-name="Path 6008" d="M340.637,572.247l-4.591-2.3,20.173-40.414,75.554-37.84,37.777-75.68,75.553-37.84,37.777-75.68,75.553-37.84,37.777-75.68,75.553-37.84,37.777-75.681,40.347-20.207,2.3,4.6-38.816,19.44L775.59,154.966l-75.553,37.84L662.26,268.486l-75.553,37.841L548.93,382.006l-75.553,37.841L435.6,495.526l-75.554,37.84Z" transform="translate(-336.046 -55.246)" fill="#fff"/>
                </g>
                <g id="Group_4783" data-name="Group 4783" transform="translate(96.525 96.687)">
                  <path id="Path_6009" data-name="Path 6009" d="M326.088,589.626l-4.591-2.3,30.8-61.7,75.554-37.84,37.776-75.68,75.554-37.84,37.777-75.68,75.553-37.84,37.777-75.68,75.553-37.839,37.777-75.681,61.6-30.85,2.3,4.6L809.443,75.379,771.666,151.06,696.113,188.9l-37.777,75.681-75.553,37.84L545.005,378.1l-75.554,37.84-37.776,75.68-75.554,37.84Z" transform="translate(-321.497 -40.697)" fill="#fff"/>
                </g>
                <g id="Group_4784" data-name="Group 4784" transform="translate(56.008 56.102)">
                  <path id="Path_6010" data-name="Path 6010" d="M305.3,612.866l-2.3-4.6,12.289-6.155,37.777-75.68,75.554-37.84,37.776-75.68,75.554-37.84,37.776-75.681,75.554-37.839,37.777-75.68,75.553-37.839,37.777-75.681,75.553-37.84L888.088,22.2l4.591,2.3-6.91,13.842-75.553,37.84-37.777,75.681L696.886,189.7l-37.777,75.681-75.554,37.839-37.776,75.681-75.554,37.841-37.776,75.679-75.554,37.84-37.777,75.68Z" transform="translate(-303.003 -22.203)" fill="#fff"/>
                </g>
                <g id="Group_4785" data-name="Group 4785" transform="translate(1.148 1.15)">
                  <path id="Path_6011" data-name="Path 6011" d="M280.257,638.326l-2.3-4.6,45.9-22.989,37.777-75.68,75.554-37.84,37.776-75.68,75.554-37.84,37.776-75.68,75.554-37.839L701.63,194.5l75.553-37.839L814.96,80.978l75.553-37.84,22.95-45.976,4.591,2.3L894.34,46.971l-75.553,37.84-37.777,75.681-75.553,37.839-37.777,75.681-75.554,37.839-37.776,75.681-75.554,37.841-37.776,75.679-75.554,37.84-37.777,75.68Z" transform="translate(-277.962 2.838)" fill="#fff"/>
                </g>
                <g id="Group_4786" data-name="Group 4786" transform="translate(1.148 1.15)">
                  <path id="Path_6012" data-name="Path 6012" d="M280.257,606.4l-2.3-4.6,24.65-12.346,37.777-75.68,75.553-37.84,37.777-75.68,75.554-37.84,37.776-75.68L642.6,248.894l37.776-75.681,75.554-37.84,37.777-75.68,75.553-37.84L881.59-2.838l4.591,2.3L873.09,25.686l-75.553,37.84-37.777,75.68-75.554,37.84L646.43,252.727l-75.554,37.839L533.1,366.246l-75.554,37.84-37.777,75.68-75.553,37.84-37.777,75.68Z" transform="translate(-277.962 2.838)" fill="#fff"/>
                </g>
                <g id="Group_4787" data-name="Group 4787" transform="translate(1.148 1.15)">
                  <path id="Path_6013" data-name="Path 6013" d="M280.257,574.471l-2.3-4.6,3.4-1.7,37.777-75.681,75.553-37.839,37.777-75.68,75.553-37.839L545.8,265.448l75.554-37.84,37.776-75.68,75.554-37.84,37.776-75.68L848.015.568l1.7-3.407,4.591,2.3L851.841,4.4l-75.554,37.84-37.776,75.68-75.554,37.84L625.18,231.44l-75.554,37.84-37.777,75.681L436.3,382.8l-37.777,75.681-75.553,37.839L285.189,572Z" transform="translate(-277.962 2.838)" fill="#fff"/>
                </g>
                <g id="Group_4788" data-name="Group 4788">
                  <path id="Path_6014" data-name="Path 6014" d="M282.029,516.352l-4.591-2.3,21.077-42.223,75.553-37.839,37.777-75.68L487.4,320.47l37.777-75.681,75.554-37.84,37.776-75.68,75.554-37.84,37.776-75.68L793.988-3.362l2.3,4.6L755.661,21.582,717.885,97.261,642.331,135.1l-37.776,75.68L529,248.622,491.224,324.3l-75.553,37.839-37.777,75.681L302.34,475.662Z" transform="translate(-277.438 3.362)" fill="#fff"/>
                </g>
                <g id="Group_4789" data-name="Group 4789" transform="translate(1.148 1.15)">
                  <path id="Path_6015" data-name="Path 6015" d="M280.257,453.855l-2.3-4.6,74.233-37.177L389.971,336.4l75.553-37.84,37.777-75.68,75.553-37.84,37.777-75.68,75.554-37.84L729.3-2.838l4.591,2.3-37.881,75.89-75.554,37.84-37.777,75.68-75.553,37.84-37.777,75.68L393.8,340.231,356.02,415.912Z" transform="translate(-277.962 2.838)" fill="#fff"/>
                </g>
                <g id="Group_4790" data-name="Group 4790" transform="translate(1.148 1.15)">
                  <path id="Path_6016" data-name="Path 6016" d="M280.257,421.928l-2.3-4.6,52.983-26.536,37.777-75.68,75.553-37.84,37.777-75.68,75.553-37.84,37.777-75.68,75.553-37.84L697.427-2.838l4.591,2.3-27.257,54.6-75.553,37.84-37.777,75.679-75.553,37.84L448.1,281.106l-75.553,37.84-37.777,75.68Z" transform="translate(-277.962 2.838)" fill="#fff"/>
                </g>
                <g id="Group_4791" data-name="Group 4791" transform="translate(1.148 1.15)">
                  <path id="Path_6017" data-name="Path 6017" d="M280.257,390l-2.3-4.6L309.7,369.508l37.777-75.68,75.553-37.84,37.777-75.68,75.553-37.84,37.777-75.68,75.553-37.84L665.553-2.838l4.591,2.3-16.632,33.32-75.553,37.84L540.182,146.3l-75.553,37.84-37.777,75.68L351.3,297.661l-37.777,75.68Z" transform="translate(-277.962 2.838)" fill="#fff"/>
                </g>
                <g id="Group_4792" data-name="Group 4792" transform="translate(1.148 1.15)">
                  <path id="Path_6018" data-name="Path 6018" d="M280.257,358.073l-2.3-4.6,10.485-5.251,37.777-75.68,75.553-37.84,37.777-75.68,75.553-37.84L552.884,45.5l75.553-37.84,5.242-10.5,4.591,2.3L632.263,11.5,556.71,49.336l-37.777,75.68-75.553,37.84L405.6,238.536l-75.553,37.84-37.777,75.68Z" transform="translate(-277.962 2.838)" fill="#fff"/>
                </g>
                <g id="Group_4793" data-name="Group 4793">
                  <path id="Path_6019" data-name="Path 6019" d="M282.029,310.6l-4.591-2.3,28.16-56.412,75.553-37.84,37.777-75.68,75.553-37.84,37.777-75.679L588.576-3.362l2.3,4.6L536.084,28.677l-37.777,75.68L422.754,142.2l-37.777,75.679-75.553,37.84Z" transform="translate(-277.438 3.362)" fill="#fff"/>
                </g>
                <g id="Group_4794" data-name="Group 4794">
                  <path id="Path_6020" data-name="Path 6020" d="M282.029,246.741l-4.591-2.3,6.91-13.842,75.554-37.84,37.777-75.68,75.553-37.84L511.009,3.559l13.819-6.921,2.3,4.6L514.835,7.391,477.058,83.072,401.5,120.912l-37.777,75.68-75.554,37.84Z" transform="translate(-277.438 3.362)" fill="#fff"/>
                </g>
                <g id="Group_4795" data-name="Group 4795" transform="translate(1.148 1.15)">
                  <path id="Path_6021" data-name="Path 6021" d="M280.257,205.531l-2.3-4.6,60.067-30.083,37.777-75.679,75.553-37.84L481.391-2.838l4.591,2.3-30.8,61.7L379.632,99l-37.777,75.68Z" transform="translate(-277.962 2.838)" fill="#fff"/>
                </g>
                <g id="Group_4796" data-name="Group 4796" transform="translate(1.148 1.15)">
                  <path id="Path_6022" data-name="Path 6022" d="M280.257,173.6l-2.3-4.6,38.817-19.441,37.776-75.68,75.554-37.839L449.517-2.838l4.591,2.3L433.935,39.876,358.381,77.715,320.605,153.4Z" transform="translate(-277.962 2.838)" fill="#fff"/>
                </g>
                <g id="Group_4797" data-name="Group 4797" transform="translate(1.148 1.15)">
                  <path id="Path_6023" data-name="Path 6023" d="M280.257,141.676l-2.3-4.6,17.568-8.8L333.306,52.6,408.86,14.759l8.783-17.6,4.591,2.3-9.549,19.13L337.132,56.431l-37.776,75.681Z" transform="translate(-277.962 2.838)" fill="#fff"/>
                </g>
                <g id="Group_4798" data-name="Group 4798">
                  <path id="Path_6024" data-name="Path 6024" d="M282.029,104.841l-4.591-2.3,35.242-70.6,70.485-35.3,2.3,4.6L316.506,35.771Z" transform="translate(-277.438 3.362)" fill="#fff"/>
                </g>
                <g id="Group_4799" data-name="Group 4799">
                  <path id="Path_6025" data-name="Path 6025" d="M282.029,40.987l-4.591-2.3,13.993-28.033L319.417-3.362l2.3,4.6-26.456,13.25Z" transform="translate(-277.438 3.362)" fill="#fff"/>
                </g>
              </g>
            </g>
          </g>
          <g id="Group_4835" data-name="Group 4835" transform="translate(1283.341 0)">
            <g id="Group_4834" data-name="Group 4834" transform="translate(0 0)">
              <g id="Group_4833" data-name="Group 4833">
                <g id="Group_4803" data-name="Group 4803" transform="translate(619.857 620.895)">
                  <path id="Path_6026" data-name="Path 6026" d="M566.924,301.773l-4.559-2.283,5.966-11.95,11.93-5.975,2.279,4.567-10.41,5.214Z" transform="translate(-562.364 -281.564)" fill="#fff"/>
                </g>
                <g id="Group_4804" data-name="Group 4804" transform="translate(588.206 589.191)">
                  <path id="Path_6027" data-name="Path 6027" d="M552.374,318.928l-4.559-2.283,16.516-33.086,33.031-16.543,2.28,4.567L568.13,287.364Z" transform="translate(-547.816 -267.016)" fill="#fff"/>
                </g>
                <g id="Group_4805" data-name="Group 4805" transform="translate(556.555 557.486)">
                  <path id="Path_6028" data-name="Path 6028" d="M537.826,336.083l-4.559-2.283,27.066-54.222,54.132-27.112,2.28,4.567-52.612,26.351Z" transform="translate(-533.267 -252.467)" fill="#fff"/>
                </g>
                <g id="Group_4806" data-name="Group 4806" transform="translate(524.903 525.782)">
                  <path id="Path_6029" data-name="Path 6029" d="M523.277,353.239l-4.559-2.283L556.333,275.6l75.233-37.68,2.28,4.567L560.133,279.4Z" transform="translate(-518.718 -237.917)" fill="#fff"/>
                </g>
                <g id="Group_4807" data-name="Group 4807" transform="translate(463.569 464.344)">
                  <path id="Path_6030" data-name="Path 6030" d="M492.8,387.625l-2.279-4.567,40.338-20.2L568.374,287.7,643.4,250.129l20.168-40.405,4.559,2.284L647.2,253.935,572.173,291.51l-37.512,75.152Z" transform="translate(-490.524 -209.724)" fill="#fff"/>
                </g>
                <g id="Group_4808" data-name="Group 4808" transform="translate(405.331 406.01)">
                  <path id="Path_6031" data-name="Path 6031" d="M468.314,418.048l-4.559-2.283,2.448-4.9,75.026-37.575,37.512-75.152,75.026-37.575,37.512-75.152,4.9-2.452,2.279,4.567-3.377,1.691-37.512,75.152L582.54,301.938,545.028,377.09,470,414.665Z" transform="translate(-463.755 -182.954)" fill="#fff"/>
                </g>
                <g id="Group_4809" data-name="Group 4809" transform="translate(373.68 374.304)">
                  <path id="Path_6032" data-name="Path 6032" d="M453.764,435.2l-4.559-2.283,13-26.041L537.23,369.3l37.512-75.152,75.026-37.575,37.512-75.152,26-13.021,2.279,4.567-24.478,12.26-37.512,75.152-75.026,37.575L541.029,373.11,466,410.685Z" transform="translate(-449.205 -168.405)" fill="#fff"/>
                </g>
                <g id="Group_4810" data-name="Group 4810" transform="translate(342.028 342.6)">
                  <path id="Path_6033" data-name="Path 6033" d="M439.215,452.359l-4.559-2.283,23.55-47.177,75.025-37.576,37.513-75.151L645.769,252.6l37.513-75.151,47.1-23.589,2.279,4.567-45.579,22.828L649.568,256.4l-75.025,37.576L537.03,369.128,462.005,406.7Z" transform="translate(-434.656 -153.856)" fill="#fff"/>
                </g>
                <g id="Group_4811" data-name="Group 4811" transform="translate(310.377 310.896)">
                  <path id="Path_6034" data-name="Path 6034" d="M424.666,469.514l-4.559-2.283,34.1-68.313,75.025-37.576,37.513-75.151,75.025-37.576,37.513-75.151,68.2-34.157,2.28,4.567-66.68,33.4L645.57,252.421,570.545,290l-37.513,75.151-75.025,37.576Z" transform="translate(-420.107 -139.307)" fill="#fff"/>
                </g>
                <g id="Group_4812" data-name="Group 4812" transform="translate(259.592 260.026)">
                  <path id="Path_6035" data-name="Path 6035" d="M399.043,498.182l-2.28-4.567,26.271-13.156,37.513-75.152,75.025-37.576,37.513-75.151L648.11,255l37.513-75.151,75.026-37.576,13.134-26.315,4.559,2.283-13.894,27.837-75.026,37.576L651.91,258.81l-75.025,37.576-37.513,75.151-75.025,37.576-37.513,75.152Z" transform="translate(-396.763 -115.963)" fill="#fff"/>
                </g>
                <g id="Group_4813" data-name="Group 4813" transform="translate(196.29 196.618)">
                  <path id="Path_6036" data-name="Path 6036" d="M369.945,532.492l-2.28-4.567,68.473-34.294,37.513-75.151,75.025-37.576,37.513-75.151,75.025-37.576,37.513-75.151,75.025-37.576,34.236-68.587,4.559,2.283-35,70.109-75.025,37.576-37.513,75.15L589.988,309.56l-37.513,75.151L477.45,422.287l-37.513,75.151Z" transform="translate(-367.665 -86.865)" fill="#fff"/>
                </g>
                <g id="Group_4814" data-name="Group 4814" transform="translate(159.153 159.42)">
                  <path id="Path_6037" data-name="Path 6037" d="M355.154,551.478,350.6,549.2l9.482-19L435.1,492.624l37.513-75.151L547.641,379.9l37.513-75.151,75.025-37.576,37.513-75.151,75.025-37.576,37.513-75.152,18.964-9.5,2.279,4.567L814.03,83.1,776.517,158.25l-75.025,37.576-37.513,75.15-75.025,37.576L551.44,383.7l-75.025,37.576L438.9,496.429l-75.026,37.576Z" transform="translate(-350.595 -69.795)" fill="#fff"/>
                </g>
                <g id="Group_4815" data-name="Group 4815" transform="translate(127.502 127.715)">
                  <path id="Path_6038" data-name="Path 6038" d="M340.605,568.634l-4.559-2.283,20.032-40.132L431.1,488.643l37.513-75.151,75.025-37.576,37.513-75.151,75.025-37.576,37.513-75.151,75.025-37.576,37.513-75.152L846.3,55.246l2.279,4.567-38.545,19.3-37.513,75.152-75.025,37.576L659.98,267l-75.025,37.576-37.513,75.15L472.417,417.3,434.9,492.449l-75.026,37.576Z" transform="translate(-336.046 -55.246)" fill="#fff"/>
                </g>
                <g id="Group_4816" data-name="Group 4816" transform="translate(95.851 96.011)">
                  <path id="Path_6039" data-name="Path 6039" d="M326.056,585.789l-4.559-2.283,30.583-61.268,75.026-37.576,37.512-75.151,75.026-37.576,37.513-75.151,75.025-37.576,37.513-75.152,75.025-37.575,37.513-75.152L863.4,40.7l2.279,4.567L806.032,75.136l-37.513,75.152-75.025,37.575-37.513,75.152-75.025,37.576-37.513,75.15-75.026,37.576-37.512,75.151-75.026,37.576Z" transform="translate(-321.497 -40.697)" fill="#fff"/>
                </g>
                <g id="Group_4817" data-name="Group 4817" transform="translate(55.617 55.71)">
                  <path id="Path_6040" data-name="Path 6040" d="M305.282,608.738,303,604.171l12.2-6.112,37.513-75.151,75.026-37.576,37.512-75.151,75.026-37.576,37.512-75.152,75.026-37.575,37.513-75.151,75.025-37.575L802.872,72,877.9,34.426,884,22.2l4.559,2.283L881.7,38.232,806.672,75.807l-37.513,75.152-75.025,37.575L656.62,263.686,581.594,301.26l-37.512,75.152-75.026,37.576-37.512,75.15-75.026,37.576L319,601.865Z" transform="translate(-303.003 -22.203)" fill="#fff"/>
                </g>
                <g id="Group_4818" data-name="Group 4818" transform="translate(1.14 1.142)">
                  <path id="Path_6041" data-name="Path 6041" d="M280.241,633.845l-2.28-4.567,45.579-22.828L361.054,531.3l75.026-37.576,37.512-75.151L548.618,381l37.512-75.152,75.026-37.575,37.513-75.152,75.025-37.575,37.513-75.152,75.025-37.576,22.79-45.655,4.559,2.283-23.55,47.177L815.007,84.2,777.494,159.35l-75.025,37.575-37.513,75.152-75.026,37.575L552.417,384.8l-75.026,37.576-37.512,75.15-75.026,37.576L327.34,610.256Z" transform="translate(-277.962 2.838)" fill="#fff"/>
                </g>
                <g id="Group_4819" data-name="Group 4819" transform="translate(1.14 1.142)">
                  <path id="Path_6042" data-name="Path 6042" d="M280.241,602.141l-2.28-4.567,24.478-12.26,37.513-75.151,75.025-37.576,37.513-75.151,75.026-37.576,37.512-75.152,75.026-37.575,37.512-75.152,75.026-37.576,37.513-75.151,75.025-37.576,12.24-24.519L881.93-.555l-13,26.041L793.906,63.062l-37.513,75.151-75.026,37.576L643.854,250.94l-75.026,37.575-37.512,75.152L456.29,401.243l-37.513,75.151-75.025,37.576L306.239,589.12Z" transform="translate(-277.962 2.838)" fill="#fff"/>
                </g>
                <g id="Group_4820" data-name="Group 4820" transform="translate(1.14 1.142)">
                  <path id="Path_6043" data-name="Path 6043" d="M280.241,570.436l-2.28-4.567,3.377-1.691,37.513-75.152,75.025-37.575L431.39,376.3l75.025-37.575,37.513-75.152L618.955,226l37.512-75.151,75.026-37.576L769,38.12,844.031.545l1.688-3.383,4.559,2.283L847.83,4.35,772.8,41.926l-37.512,75.151-75.026,37.576L622.754,229.8l-75.026,37.576-37.513,75.152-75.025,37.575-37.513,75.152-75.025,37.575-37.513,75.152Z" transform="translate(-277.962 2.838)" fill="#fff"/>
                </g>
                <g id="Group_4821" data-name="Group 4821">
                  <path id="Path_6044" data-name="Path 6044" d="M282,512.72l-4.559-2.284,20.929-41.928,75.025-37.575,37.513-75.152,75.025-37.575,37.513-75.152,75.026-37.576,37.512-75.151,75.026-37.576L748.519,17.6,790.378-3.362,792.657,1.2l-40.339,20.2-37.512,75.15-75.026,37.576-37.512,75.151-75.026,37.576L489.73,322.012,414.7,359.587l-37.513,75.152-75.025,37.575Z" transform="translate(-277.438 3.362)" fill="#fff"/>
                </g>
                <g id="Group_4822" data-name="Group 4822" transform="translate(1.14 1.142)">
                  <path id="Path_6045" data-name="Path 6045" d="M280.241,450.664l-2.28-4.567,73.714-36.917,37.513-75.152,75.025-37.576L501.727,221.3l75.025-37.576,37.513-75.151L689.291,71,726.148-2.838l4.559,2.283L693.09,74.8,618.064,112.38l-37.513,75.151-75.025,37.576-37.513,75.151-75.025,37.576-37.513,75.152Z" transform="translate(-277.962 2.838)" fill="#fff"/>
                </g>
                <g id="Group_4823" data-name="Group 4823" transform="translate(1.14 1.142)">
                  <path id="Path_6046" data-name="Path 6046" d="M280.241,418.959l-2.28-4.567,52.613-26.351,37.513-75.151,75.025-37.576,37.513-75.151,75.025-37.576,37.513-75.151,75.025-37.576L694.5-2.838l4.559,2.283L671.988,53.668,596.963,91.244l-37.513,75.15-75.025,37.576-37.513,75.151L371.887,316.7l-37.513,75.151Z" transform="translate(-277.962 2.838)" fill="#fff"/>
                </g>
                <g id="Group_4824" data-name="Group 4824" transform="translate(1.14 1.142)">
                  <path id="Path_6047" data-name="Path 6047" d="M280.241,387.255l-2.28-4.567,31.512-15.782,37.513-75.151,75.025-37.576,37.513-75.151,75.025-37.576L572.063,66.3l75.025-37.576L662.844-2.838,667.4-.555,650.887,32.532,575.862,70.108l-37.513,75.15-75.025,37.576-37.513,75.151-75.025,37.576-37.513,75.151Z" transform="translate(-277.962 2.838)" fill="#fff"/>
                </g>
                <g id="Group_4825" data-name="Group 4825" transform="translate(1.14 1.142)">
                  <path id="Path_6048" data-name="Path 6048" d="M280.241,355.551l-2.28-4.567,10.411-5.214,37.513-75.151,75.025-37.576,37.513-75.151,75.025-37.576,37.513-75.151L625.987,7.59l5.206-10.428,4.559,2.283L629.786,11.4,554.761,48.972l-37.513,75.151L442.223,161.7l-37.513,75.15-75.025,37.576-37.513,75.151Z" transform="translate(-277.962 2.838)" fill="#fff"/>
                </g>
                <g id="Group_4826" data-name="Group 4826">
                  <path id="Path_6049" data-name="Path 6049" d="M282,308.4l-4.559-2.283L305.4,250.1l75.025-37.576,37.513-75.151L492.964,99.8l37.513-75.15L586.4-3.362l2.28,4.567-54.4,27.249L496.763,103.6,421.738,141.18l-37.513,75.15L309.2,253.906Z" transform="translate(-277.438 3.362)" fill="#fff"/>
                </g>
                <g id="Group_4827" data-name="Group 4827">
                  <path id="Path_6050" data-name="Path 6050" d="M282,244.993l-4.559-2.283,6.861-13.746,75.026-37.576,37.513-75.151,75.025-37.576L509.376,3.511,523.1-3.362l2.28,4.567-12.2,6.112L475.663,82.468l-75.025,37.576-37.513,75.151L288.1,232.77Z" transform="translate(-277.438 3.362)" fill="#fff"/>
                </g>
                <g id="Group_4828" data-name="Group 4828" transform="translate(1.14 1.142)">
                  <path id="Path_6051" data-name="Path 6051" d="M280.241,204.074l-2.28-4.567,59.647-29.873,37.513-75.15,75.025-37.576L479.97-2.838l4.559,2.283L453.946,60.714,378.921,98.29,341.408,173.44Z" transform="translate(-277.962 2.838)" fill="#fff"/>
                </g>
                <g id="Group_4829" data-name="Group 4829" transform="translate(1.14 1.142)">
                  <path id="Path_6052" data-name="Path 6052" d="M280.241,172.37l-2.28-4.567,38.546-19.3L354.02,73.347l75.026-37.575,19.272-38.61,4.559,2.283L432.845,39.578,357.819,77.152,320.307,152.3Z" transform="translate(-277.962 2.838)" fill="#fff"/>
                </g>
                <g id="Group_4830" data-name="Group 4830" transform="translate(1.14 1.142)">
                  <path id="Path_6053" data-name="Path 6053" d="M280.241,140.666l-2.28-4.567,17.445-8.737,37.512-75.152,75.026-37.575,8.722-17.474,4.559,2.283-9.482,19L336.718,56.016l-37.512,75.152Z" transform="translate(-277.962 2.838)" fill="#fff"/>
                </g>
                <g id="Group_4831" data-name="Group 4831">
                  <path id="Path_6054" data-name="Path 6054" d="M282,104.085l-4.559-2.283,35-70.109L382.426-3.362,384.706,1.2,316.233,35.5Z" transform="translate(-277.438 3.362)" fill="#fff"/>
                </g>
                <g id="Group_4832" data-name="Group 4832">
                  <path id="Path_6055" data-name="Path 6055" d="M282,40.677l-4.559-2.283,13.9-27.837,27.79-13.918L321.4,1.2,295.132,14.362Z" transform="translate(-277.438 3.362)" fill="#fff"/>
                </g>
              </g>
            </g>
          </g>
          <g id="Group_4868" data-name="Group 4868" transform="translate(641.774 0)">
            <g id="Group_4867" data-name="Group 4867" transform="translate(0)">
              <g id="Group_4866" data-name="Group 4866">
                <g id="Group_4836" data-name="Group 4836" transform="translate(1.14 620.895)">
                  <path id="Path_6056" data-name="Path 6056" d="M577.98,301.773l4.559-2.283-5.965-11.95-11.93-5.975-2.28,4.567,10.41,5.214Z" transform="translate(-562.364 -281.564)" fill="#fff"/>
                </g>
                <g id="Group_4837" data-name="Group 4837" transform="translate(1.14 589.191)">
                  <path id="Path_6057" data-name="Path 6057" d="M595.083,318.928l4.559-2.283-16.516-33.086-33.031-16.543-2.279,4.567,31.511,15.782Z" transform="translate(-547.815 -267.016)" fill="#fff"/>
                </g>
                <g id="Group_4838" data-name="Group 4838" transform="translate(1.14 557.486)">
                  <path id="Path_6058" data-name="Path 6058" d="M612.185,336.083l4.559-2.283-27.066-54.222-54.132-27.112-2.28,4.567,52.612,26.351Z" transform="translate(-533.267 -252.467)" fill="#fff"/>
                </g>
                <g id="Group_4839" data-name="Group 4839" transform="translate(1.14 525.782)">
                  <path id="Path_6059" data-name="Path 6059" d="M629.287,353.239l4.559-2.283L596.23,275.6,521,237.917l-2.279,4.567L592.431,279.4Z" transform="translate(-518.718 -237.917)" fill="#fff"/>
                </g>
                <g id="Group_4840" data-name="Group 4840" transform="translate(0 464.344)">
                  <path id="Path_6060" data-name="Path 6060" d="M665.848,387.625l2.279-4.567-40.338-20.2L590.278,287.7l-75.026-37.575-20.168-40.405-4.559,2.284,20.928,41.927,75.026,37.575,37.512,75.152Z" transform="translate(-490.524 -209.724)" fill="#fff"/>
                </g>
                <g id="Group_4841" data-name="Group 4841" transform="translate(1.14 406.01)">
                  <path id="Path_6061" data-name="Path 6061" d="M693.9,418.048l4.559-2.283-2.448-4.9-75.026-37.575-37.512-75.152-75.026-37.575-37.512-75.152-4.9-2.452-2.279,4.567,3.377,1.691,37.512,75.152,75.026,37.575,37.512,75.152,75.026,37.575Z" transform="translate(-463.754 -182.954)" fill="#fff"/>
                </g>
                <g id="Group_4842" data-name="Group 4842" transform="translate(1.14 374.304)">
                  <path id="Path_6062" data-name="Path 6062" d="M711,435.2l4.559-2.283-13-26.041L627.533,369.3l-37.512-75.152-75.026-37.575-37.512-75.152-26-13.021-2.28,4.567,24.478,12.26L511.2,260.383l75.026,37.575,37.512,75.152,75.026,37.575Z" transform="translate(-449.205 -168.405)" fill="#fff"/>
                </g>
                <g id="Group_4843" data-name="Group 4843" transform="translate(1.14 342.6)">
                  <path id="Path_6063" data-name="Path 6063" d="M728.1,452.359l4.559-2.283L709.11,402.9l-75.025-37.576-37.513-75.151L521.547,252.6l-37.513-75.151-47.1-23.589-2.28,4.567,45.579,22.828L517.748,256.4l75.025,37.576,37.513,75.151L705.311,406.7Z" transform="translate(-434.656 -153.856)" fill="#fff"/>
                </g>
                <g id="Group_4844" data-name="Group 4844" transform="translate(1.14 310.896)">
                  <path id="Path_6064" data-name="Path 6064" d="M745.2,469.514l4.559-2.283-34.1-68.313-75.025-37.576-37.513-75.151L528.1,248.615l-37.513-75.151-68.2-34.157-2.28,4.567,66.68,33.4L524.3,252.421,599.325,290l37.513,75.151,75.025,37.576Z" transform="translate(-420.107 -139.307)" fill="#fff"/>
                </g>
                <g id="Group_4845" data-name="Group 4845" transform="translate(0 260.026)">
                  <path id="Path_6065" data-name="Path 6065" d="M776.063,498.182l2.28-4.567-26.271-13.156-37.513-75.152-75.025-37.576L602.021,292.58,527,255l-37.513-75.151-75.026-37.576-13.134-26.315-4.559,2.283,13.894,27.837,75.026,37.576L523.2,258.81l75.025,37.576,37.513,75.151,75.025,37.576,37.513,75.152Z" transform="translate(-396.763 -115.963)" fill="#fff"/>
                </g>
                <g id="Group_4846" data-name="Group 4846" transform="translate(0 196.618)">
                  <path id="Path_6066" data-name="Path 6066" d="M810.268,532.492l2.28-4.567-68.473-34.294-37.513-75.151-75.025-37.576-37.513-75.151L519,268.179l-37.513-75.151-75.025-37.576L372.225,86.865l-4.559,2.283,35,70.109,75.025,37.576,37.513,75.15,75.025,37.576,37.513,75.151,75.025,37.576,37.513,75.151Z" transform="translate(-367.665 -86.865)" fill="#fff"/>
                </g>
                <g id="Group_4847" data-name="Group 4847" transform="translate(1.14 159.42)">
                  <path id="Path_6067" data-name="Path 6067" d="M826.915,551.478l4.559-2.283-9.482-19-75.026-37.576-37.513-75.151L634.428,379.9l-37.513-75.151L521.89,267.171,484.376,192.02l-75.025-37.576L371.838,79.293l-18.964-9.5L350.6,74.362,368.039,83.1l37.513,75.152,75.025,37.576,37.513,75.15,75.025,37.576L630.628,383.7l75.025,37.576,37.513,75.151,75.026,37.576Z" transform="translate(-350.595 -69.795)" fill="#fff"/>
                </g>
                <g id="Group_4848" data-name="Group 4848" transform="translate(1.14 127.715)">
                  <path id="Path_6068" data-name="Path 6068" d="M844.017,568.634l4.559-2.283-20.032-40.132-75.026-37.576L716,413.492l-75.025-37.576-37.513-75.151L528.441,263.19l-37.513-75.151L415.9,150.463,378.39,75.312,338.325,55.246l-2.279,4.567,38.545,19.3L412.1,154.269l75.025,37.576L524.642,267l75.025,37.576,37.513,75.15L712.205,417.3l37.513,75.151,75.026,37.576Z" transform="translate(-336.046 -55.246)" fill="#fff"/>
                </g>
                <g id="Group_4849" data-name="Group 4849" transform="translate(1.14 96.011)">
                  <path id="Path_6069" data-name="Path 6069" d="M861.119,585.789l4.559-2.283L835.1,522.238l-75.026-37.576-37.512-75.151-75.026-37.576-37.513-75.151-75.025-37.576L497.48,184.057l-75.025-37.575L384.942,71.331,323.777,40.7,321.5,45.264l59.646,29.873,37.513,75.152,75.025,37.575,37.513,75.152,75.025,37.576,37.513,75.15,75.026,37.576,37.512,75.151L831.3,526.044Z" transform="translate(-321.497 -40.697)" fill="#fff"/>
                </g>
                <g id="Group_4850" data-name="Group 4850" transform="translate(0 55.71)">
                  <path id="Path_6070" data-name="Path 6070" d="M886.279,608.738l2.279-4.567-12.2-6.112-37.513-75.151-75.026-37.576L726.3,410.182l-75.026-37.576-37.512-75.152L538.74,259.88l-37.513-75.151L426.2,147.154,388.689,72,313.663,34.426l-6.1-12.223L303,24.486l6.861,13.746,75.025,37.576L422.4,150.959l75.025,37.575,37.513,75.152,75.026,37.575,37.512,75.152L722.5,413.988l37.512,75.15,75.026,37.576,37.513,75.151Z" transform="translate(-303.003 -22.203)" fill="#fff"/>
                </g>
                <g id="Group_4851" data-name="Group 4851" transform="translate(4.413 1.142)">
                  <path id="Path_6071" data-name="Path 6071" d="M911.3,633.845l2.279-4.567L868,606.45,830.489,531.3l-75.026-37.576-37.512-75.151L642.925,381l-37.512-75.152-75.026-37.575-37.513-75.152-75.025-37.575L380.336,80.393,305.311,42.817,282.521-2.838,277.962-.555l23.55,47.177L376.537,84.2,414.05,159.35l75.025,37.575,37.513,75.152,75.026,37.575L639.126,384.8l75.026,37.576,37.512,75.15,75.026,37.576L864.2,610.256Z" transform="translate(-277.962 2.838)" fill="#fff"/>
                </g>
                <g id="Group_4852" data-name="Group 4852" transform="translate(36.064 1.142)">
                  <path id="Path_6072" data-name="Path 6072" d="M879.651,602.141l2.279-4.567-24.478-12.26-37.513-75.151-75.025-37.576L707.4,397.437l-75.026-37.576L594.863,284.71l-75.026-37.575-37.512-75.152L407.3,134.407,369.785,59.257,294.76,21.681,282.521-2.838,277.962-.555l13,26.041,75.025,37.576L403.5,138.213l75.026,37.576,37.512,75.152,75.026,37.575,37.512,75.152L703.6,401.243l37.513,75.151,75.025,37.576,37.513,75.151Z" transform="translate(-277.962 2.838)" fill="#fff"/>
                </g>
                <g id="Group_4853" data-name="Group 4853" transform="translate(67.716 1.142)">
                  <path id="Path_6073" data-name="Path 6073" d="M848,570.436l2.279-4.567-3.377-1.691-37.513-75.152-75.025-37.575L696.849,376.3l-75.025-37.575-37.513-75.152L509.285,226l-37.512-75.151-75.026-37.576L359.235,38.12,284.209.545l-1.688-3.383L277.962-.555,280.41,4.35l75.026,37.576,37.512,75.151,75.026,37.576L505.486,229.8l75.026,37.576,37.513,75.152,75.025,37.575,37.513,75.152,75.025,37.575L843.1,567.984Z" transform="translate(-277.962 2.838)" fill="#fff"/>
                </g>
                <g id="Group_4854" data-name="Group 4854" transform="translate(125.952)">
                  <path id="Path_6074" data-name="Path 6074" d="M788.1,512.72l4.559-2.284-20.929-41.928L696.7,430.933,659.19,355.782l-75.025-37.575-37.513-75.152-75.026-37.576-37.512-75.151L359.088,92.753,321.576,17.6,279.717-3.362,277.438,1.2l40.339,20.2,37.512,75.15,75.026,37.576,37.512,75.151,75.026,37.576,37.513,75.152,75.025,37.575L692.9,434.739l75.025,37.575Z" transform="translate(-277.438 3.362)" fill="#fff"/>
                </g>
                <g id="Group_4855" data-name="Group 4855" transform="translate(187.287 1.142)">
                  <path id="Path_6075" data-name="Path 6075" d="M728.427,450.664l2.279-4.567-73.714-36.917L619.48,334.027l-75.025-37.576L506.942,221.3l-75.025-37.576L394.4,108.575,319.378,71,282.521-2.838,277.962-.555,315.578,74.8,390.6,112.38l37.513,75.151,75.025,37.576,37.513,75.151,75.025,37.576,37.513,75.152Z" transform="translate(-277.962 2.838)" fill="#fff"/>
                </g>
                <g id="Group_4856" data-name="Group 4856" transform="translate(218.94 1.142)">
                  <path id="Path_6076" data-name="Path 6076" d="M696.775,418.959l2.279-4.567-52.613-26.351-37.513-75.151L533.9,275.316,496.39,200.165l-75.025-37.576L383.852,87.438,308.827,49.863l-26.307-52.7L277.962-.555l27.066,54.223,75.025,37.576,37.513,75.15,75.025,37.576L530.1,279.121,605.129,316.7l37.513,75.151Z" transform="translate(-277.962 2.838)" fill="#fff"/>
                </g>
                <g id="Group_4857" data-name="Group 4857" transform="translate(250.591 1.142)">
                  <path id="Path_6077" data-name="Path 6077" d="M665.124,387.255l2.28-4.567-31.512-15.782-37.513-75.151-75.025-37.576L485.84,179.029l-75.025-37.576L373.3,66.3,298.277,28.726,282.521-2.838,277.962-.555l16.516,33.087L369.5,70.108l37.513,75.15,75.025,37.576,37.513,75.151,75.025,37.576,37.513,75.151Z" transform="translate(-277.962 2.838)" fill="#fff"/>
                </g>
                <g id="Group_4858" data-name="Group 4858" transform="translate(282.242 1.142)">
                  <path id="Path_6078" data-name="Path 6078" d="M633.473,355.551l2.279-4.567-10.411-5.214-37.513-75.151L512.8,233.043,475.29,157.893l-75.025-37.576L362.752,45.166,287.727,7.59,282.521-2.838,277.962-.555,283.927,11.4l75.025,37.576,37.513,75.151L471.49,161.7,509,236.849l75.025,37.576,37.513,75.151Z" transform="translate(-277.962 2.838)" fill="#fff"/>
                </g>
                <g id="Group_4859" data-name="Group 4859" transform="translate(329.929)">
                  <path id="Path_6079" data-name="Path 6079" d="M584.122,308.4l4.559-2.283L560.718,250.1l-75.025-37.576L448.18,137.374,373.155,99.8l-37.513-75.15L279.717-3.362,277.438,1.2l54.4,27.249L369.356,103.6l75.025,37.576,37.513,75.15,75.025,37.576Z" transform="translate(-277.438 3.362)" fill="#fff"/>
                </g>
                <g id="Group_4860" data-name="Group 4860" transform="translate(393.231)">
                  <path id="Path_6080" data-name="Path 6080" d="M520.82,244.993l4.559-2.283-6.861-13.746-75.026-37.576-37.513-75.151L330.953,78.662,293.44,3.511,279.717-3.362,277.438,1.2l12.2,6.112,37.513,75.152,75.025,37.576,37.513,75.151,75.026,37.576Z" transform="translate(-277.438 3.362)" fill="#fff"/>
                </g>
                <g id="Group_4861" data-name="Group 4861" transform="translate(433.465 1.142)">
                  <path id="Path_6081" data-name="Path 6081" d="M482.249,204.074l2.28-4.567-59.647-29.873-37.513-75.15L312.344,56.908,282.521-2.838,277.962-.555l30.583,61.269L383.569,98.29l37.513,75.151Z" transform="translate(-277.962 2.838)" fill="#fff"/>
                </g>
                <g id="Group_4862" data-name="Group 4862" transform="translate(465.117 1.142)">
                  <path id="Path_6082" data-name="Path 6082" d="M450.6,172.37l2.279-4.567-38.546-19.3L376.819,73.347,301.793,35.772,282.521-2.838,277.962-.555l20.032,40.133L373.02,77.152,410.532,152.3Z" transform="translate(-277.962 2.838)" fill="#fff"/>
                </g>
                <g id="Group_4863" data-name="Group 4863" transform="translate(496.768 1.142)">
                  <path id="Path_6083" data-name="Path 6083" d="M418.947,140.666l2.279-4.567-17.445-8.737L366.269,52.211,291.243,14.636,282.521-2.838,277.962-.555l9.482,19L362.47,56.016l37.512,75.152Z" transform="translate(-277.962 2.838)" fill="#fff"/>
                </g>
                <g id="Group_4864" data-name="Group 4864" transform="translate(533.904)">
                  <path id="Path_6084" data-name="Path 6084" d="M380.147,104.085l4.559-2.283-35-70.109L279.717-3.362,277.438,1.2,345.91,35.5Z" transform="translate(-277.438 3.362)" fill="#fff"/>
                </g>
                <g id="Group_4865" data-name="Group 4865" transform="translate(597.207)">
                  <path id="Path_6085" data-name="Path 6085" d="M316.844,40.677l4.559-2.283-13.9-27.837L279.717-3.362,277.438,1.2l26.271,13.157Z" transform="translate(-277.438 3.362)" fill="#fff"/>
                </g>
              </g>
            </g>
          </g>
        </g>
      </g>
    </g>
  </g>
</svg>
