<svg xmlns="http://www.w3.org/2000/svg" width="40" height="40" viewBox="0 0 40 40">
  <g id="car" transform="translate(17500 -9884.999)">
    <circle id="Ellipse_732" data-name="Ellipse 732" cx="20" cy="20" r="20" transform="translate(-17500 9884.999)" fill="none"/>
    <path id="Icon_map-car-repair" data-name="Icon map-car-repair" d="M12.7,4.646,11.273,6.588H7.941A3.109,3.109,0,0,0,11.576,8.5a14.935,14.935,0,0,1,3.215-.152c1.037.249.6.25,2.463,1.741l9.263,7.639a1.231,1.231,0,0,0,1.8-.27,1.541,1.541,0,0,0-.037-2.075L16.55,6a4.012,4.012,0,0,1-1.173-2.345A4.449,4.449,0,0,0,11.3.745,4.582,4.582,0,0,0,7.755,3.07h3.518ZM20.744,18.9,17.12,12.609c-.143-.261-.5-.745-.8-.745H6.229c-.3,0-.659.484-.8.745L1.893,18.9H1.8c-.6,0-1.082.216-1.082.812v5.411c0,.6.487.812,1.082.812H3.065v1.894a1.483,1.483,0,0,0,1.443,1.624h.541a1.554,1.554,0,0,0,1.534-1.624V25.935h9.381v1.894A1.554,1.554,0,0,0,17.5,29.453h.541a1.483,1.483,0,0,0,1.443-1.624V25.935h1.263c.6,0,1.082-.216,1.082-.812V19.712C21.826,19.116,21.339,18.9,20.744,18.9ZM3.7,22.959A1.353,1.353,0,1,1,5.05,21.606,1.353,1.353,0,0,1,3.7,22.959ZM4.779,18.9,6.972,14.31c.133-.266.486-.687.783-.687h7.035c.3,0,.65.421.783.687L17.768,18.9ZM18.85,22.959A1.353,1.353,0,1,1,20.2,21.605a1.353,1.353,0,0,1-1.353,1.353Z" transform="translate(-17493.18 9888.377)" fill="#ff4612"/>
  </g>
</svg>
