<svg xmlns="http://www.w3.org/2000/svg" width="80" height="80" viewBox="0 0 80 80">
  <g id="circle-red-app" transform="translate(17676 -9610)">
    <circle id="Ellipse_717" data-name="Ellipse 717" cx="40" cy="40" r="40" transform="translate(-17676 9610)" fill="#fd461d"/>
    <g id="Group_7321" data-name="Group 7321" transform="translate(-418 -2466.845)">
      <g id="Group_7326" data-name="Group 7326" transform="translate(-17232 12095)">
        <g id="download">
          <path id="Path_7746" data-name="Path 7746" d="M28.1,42.845H8.463A4.469,4.469,0,0,1,4,38.382V4.463A4.469,4.469,0,0,1,8.463,0H28.1a4.469,4.469,0,0,1,4.463,4.463V38.382A4.469,4.469,0,0,1,28.1,42.845ZM8.463,1.785A2.681,2.681,0,0,0,5.785,4.463V38.382A2.681,2.681,0,0,0,8.463,41.06H28.1a2.681,2.681,0,0,0,2.678-2.678V4.463A2.681,2.681,0,0,0,28.1,1.785Z" transform="translate(-4)" fill="#fff"/>
          <path id="Path_7747" data-name="Path 7747" d="M19.889,5.356H12.748A2.681,2.681,0,0,1,10.07,2.678a.893.893,0,0,0-.893-.893H7.393A.893.893,0,0,1,7.393,0H9.178a2.681,2.681,0,0,1,2.678,2.678.893.893,0,0,0,.893.893h7.141a.893.893,0,0,0,.893-.893A2.681,2.681,0,0,1,23.459,0h1.785a.893.893,0,0,1,0,1.785H23.459a.893.893,0,0,0-.893.893A2.681,2.681,0,0,1,19.889,5.356Z" transform="translate(-2.037)" fill="#fff"/>
          <path id="Path_7748" data-name="Path 7748" d="M12.393,22.62a.893.893,0,0,1-.893-.893V7.893a.893.893,0,1,1,1.785,0V21.728A.892.892,0,0,1,12.393,22.62Z" transform="translate(1.889 5.496)" fill="#fff"/>
          <path id="Path_7749" data-name="Path 7749" d="M14.356,18.748a.9.9,0,0,1-.632-.261L9.261,14.024a.892.892,0,1,1,1.262-1.262l3.833,3.831,3.831-3.831a.892.892,0,1,1,1.262,1.262l-4.463,4.463A.889.889,0,0,1,14.356,18.748Z" transform="translate(-0.074 9.816)" fill="#fff"/>
          <path id="Path_7750" data-name="Path 7750" d="M22.174,22.141H9.678A2.681,2.681,0,0,1,7,19.463v-3.57a.893.893,0,0,1,1.785,0v3.57a.893.893,0,0,0,.893.893h12.5a.893.893,0,0,0,.893-.893v-3.57a.893.893,0,0,1,1.785,0v3.57A2.681,2.681,0,0,1,22.174,22.141Z" transform="translate(-1.644 11.778)" fill="#fff"/>
        </g>
      </g>
    </g>
  </g>
</svg>
