<svg xmlns="http://www.w3.org/2000/svg" width="120" height="120" viewBox="0 0 120 120">
  <g id="circle-red-help" transform="translate(17360 -9379)">
    <path id="Path_7729" data-name="Path 7729" d="M60,0A60,60,0,1,1,0,60,60,60,0,0,1,60,0Z" transform="translate(-17360 9379)" fill="#fd461d"/>
    <g id="Group_7201" data-name="Group 7201" transform="translate(-17326.82 9404.031)">
      <path id="Path_7691" data-name="Path 7691" d="M653.4,749.959l-.428,6.448c-3.385,0-7.268.213-11.111-.075-2.576-.193-4.357-2.742-4.388-5.533-.048-4.4-.017-8.791-.017-13.187q0-18.589,0-37.178c0-4.865,2.052-6.938,6.858-6.94q10.623,0,21.245,0c4.621,0,6.748,2.1,6.753,6.67.008,8.18-.072,16.362.055,24.54a4.5,4.5,0,0,1-2.639,4.458c-.04-.84-.1-1.511-.1-2.182q-.011-11.63-.008-23.259c0-3.1-.966-4.078-4.026-4.081q-10.807-.009-21.611,0c-2.751,0-3.792,1.01-3.793,3.738q-.021,21.426,0,42.855c0,2.7,1.068,3.712,3.815,3.721C647.237,749.966,650.472,749.959,653.4,749.959Z" transform="translate(-637.443 -693.491)" fill="#fff"/>
      <path id="Path_7692" data-name="Path 7692" d="M660.613,739.371c-4.672-6.481-9.1-12.532-13.393-18.672a7.233,7.233,0,0,1-1.229-3.678,4.089,4.089,0,0,1,3.13-3.845,4.45,4.45,0,0,1,5,1.781c1.776,2.4,3.5,4.834,5.317,7.352,1.707-2.481,3.847-3.281,6.547-2.107,3.111-3.252,4.2-3.534,7.021-2.212,1.709-.878,3.056-2.012,4.517-2.184a4.68,4.68,0,0,1,3.652,1.464c3.874,5.013,7.859,10,10.065,16.059.495,1.363.713,2.825,1.076,4.235.431,1.672.8,3.363,1.347,5,.584,1.767.372,3.363-1.1,4.463q-6.3,4.713-12.757,9.217c-1.637,1.148-3.485.737-5.015-.607a7.332,7.332,0,0,0-2.752-1.576c-6.705-1.854-13.415-3.677-19.634-6.9-2.127-1.1-3.087-2.645-2.843-4.455a4.356,4.356,0,0,1,4.8-3.775C656.3,739.06,658.237,739.2,660.613,739.371Zm-5.812,1.71c-1.637-.251-2.688.238-3.071,1.635-.365,1.329.552,2.015,1.58,2.547,6.112,3.162,12.7,4.956,19.288,6.769a10.506,10.506,0,0,1,3.57,1.983c.955.757,1.733,1.048,2.76.307,4.006-2.892,8.052-5.732,11.985-8.721a2.87,2.87,0,0,0,.651-2.322c-.259-1.7-.824-3.347-1.25-5.021a41.58,41.58,0,0,0-1.12-4.412c-2.136-5.677-5.963-10.321-9.478-15.148a2.154,2.154,0,0,0-3.237-.481,2.216,2.216,0,0,0-.533,3.367c1,1.461,2.077,2.865,3.087,4.318.5.713,1.433,1.557.245,2.268-.339.2-1.493-.448-1.913-.987-1.648-2.115-3.122-4.366-4.72-6.521-1.019-1.375-2.319-1.615-3.476-.776s-1.342,2.159-.4,3.539c1.172,1.71,2.481,3.332,3.588,5.082a5.2,5.2,0,0,1,.27,2.052c-.642-.27-1.51-.362-1.887-.841-1.625-2.057-3.094-4.235-4.639-6.354-1.217-1.667-2.59-2.04-3.838-1.082-1.18.9-1.212,2.242-.061,3.868,1.2,1.692,2.478,3.332,3.589,5.079.25.391-.049,1.133-.1,1.712a8.5,8.5,0,0,1-1.539-.524c-.291-.161-.449-.564-.662-.861q-3.961-5.494-7.919-10.987c-1.034-1.436-2.04-2.893-3.12-4.293-1.042-1.35-2.351-1.6-3.477-.685a2.282,2.282,0,0,0-.449,3.395c.238.354.5.694.745,1.041,4.389,6.087,8.8,12.158,13.134,18.284.426.6.782,1.807.474,2.238a3.126,3.126,0,0,1-2.291.878C658.58,741.431,656.571,741.2,654.8,741.081Z" transform="translate(-632.892 -683.11)" fill="#fff"/>
      <path id="Path_7693" data-name="Path 7693" d="M640.269,720.428a13.11,13.11,0,0,1,26.131-1.407,4.6,4.6,0,0,1,.026,1.272c-.043.239-.369.634-.506.61-.3-.054-.737-.282-.8-.524-.187-.7-.169-1.451-.319-2.164a11.665,11.665,0,1,0-11.622,14.074,9.066,9.066,0,0,1,2.193.618,7.633,7.633,0,0,1-2.311.768A12.939,12.939,0,0,1,640.269,720.428Z" transform="translate(-635.938 -686.067)" fill="#fff"/>
      <path id="Path_7694" data-name="Path 7694" d="M651.661,728.133c-3.223.92-6.852-1.549-8.319-5.079a9.558,9.558,0,0,1,15.1-10.885c2.8,2.435,4.055,6.584,2.454,9.674a14.8,14.8,0,0,1-.323-2.121,8.4,8.4,0,1,0-10.552,7.789C650.582,727.674,651.116,727.923,651.661,728.133Z" transform="translate(-634.687 -684.789)" fill="#fff"/>
    </g>
  </g>
</svg>
