<svg xmlns="http://www.w3.org/2000/svg" width="120" height="120" viewBox="0 0 120 120">
  <g id="circle-red-24-7" transform="translate(23710 -13139)">
    <path id="Path_7727" data-name="Path 7727" d="M60,0A60,60,0,1,1,0,60,60,60,0,0,1,60,0Z" transform="translate(-23710 13139)" fill="#fd461d"/>
    <g id="clock" transform="translate(-23686.109 13162.063)">
      <g id="Group_7077" data-name="Group 7077" transform="translate(0 0)">
        <g id="Group_7076" data-name="Group 7076">
          <path id="Path_7648" data-name="Path 7648" d="M62.266,10.683A36.475,36.475,0,0,0,10.683,62.266,36.475,36.475,0,0,0,62.266,10.683ZM36.474,65.79A29.348,29.348,0,0,1,7.159,36.474c0-.027,0-.053,0-.079,0-.007,0-.013,0-.02s0-.022,0-.033A29.347,29.347,0,0,1,36.076,7.164c.033,0,.066,0,.1,0s.04,0,.06,0l.238,0a29.315,29.315,0,1,1,0,58.63Z" transform="translate(0 0)" fill="#fff"/>
        </g>
      </g>
      <g id="Group_7079" data-name="Group 7079" transform="translate(11.561 11.545)">
        <g id="Group_7078" data-name="Group 7078">
          <path id="Path_7649" data-name="Path 7649" d="M128.323,107.72a2.158,2.158,0,1,1,0-4.317h2.6a25.041,25.041,0,0,0-23.009-22.374v2.265a2.158,2.158,0,0,1-4.317,0V81.081A25.041,25.041,0,0,0,81.16,103.7h2.33a2.158,2.158,0,0,1,0,4.317H81.142A25.039,25.039,0,0,0,103.9,130.863v-2.736a2.158,2.158,0,0,1,4.317,0v2.736a25.037,25.037,0,0,0,22.778-23.143Zm-13.531-7.446-7.211,7.211a2.158,2.158,0,0,1-3.052,0L91.978,94.933a2.158,2.158,0,0,1,3.052-3.052l11.025,11.025,5.685-5.685a2.158,2.158,0,1,1,3.052,3.052Z" transform="translate(-81.142 -81.029)" fill="#fff"/>
        </g>
      </g>
    </g>
  </g>
</svg>
