<svg xmlns="http://www.w3.org/2000/svg" width="120" height="120" viewBox="0 0 120 120">
  <g id="circle-red-services" transform="translate(23492 -13139)">
    <path id="Path_7728" data-name="Path 7728" d="M60,0A60,60,0,1,1,0,60,60,60,0,0,1,60,0Z" transform="translate(-23492 13139)" fill="#fd461d"/>
    <g id="settings" transform="translate(-23459.813 13170.979)">
      <g id="Group_7080" data-name="Group 7080" transform="translate(0 0)">
        <path id="Path_7650" data-name="Path 7650" d="M44.371,34c-1.106,0-1.936.277-2.766.277l-8.021-8.021,6.638-6.638L48.8,16.575,55.158,6.341a1.74,1.74,0,0,0,0-1.66L51.839,1.362A1.7,1.7,0,0,0,49.9,1.086L39.392,7.171l-3.319,8.851L29.435,22.66l-7.468-8.021c0-.83.277-1.66.277-2.766A11.235,11.235,0,0,0,8.415,1.086l4.149,4.149a5.347,5.347,0,0,1,0,7.744,5.347,5.347,0,0,1-7.744,0L.394,9.107A10.859,10.859,0,0,0,13.947,22.383L21.968,30.4l-3.319,3.319a5.267,5.267,0,0,0-5.255,1.383L2.053,46.446A5.629,5.629,0,0,0,1.5,54.19a5.449,5.449,0,0,0,8.021.277L21.138,42.85A5.427,5.427,0,0,0,22.521,37.6l3.319-3.319L33.861,42.3a9.409,9.409,0,0,0-.277,2.766A11.235,11.235,0,0,0,47.413,55.85L43.265,51.7a5.476,5.476,0,0,1,7.744-7.744l4.149,4.149A11.225,11.225,0,0,0,44.371,34Z" transform="translate(0 -0.778)" fill="#fff"/>
      </g>
    </g>
  </g>
</svg>
