<svg xmlns="http://www.w3.org/2000/svg" width="80" height="80" viewBox="0 0 80 80">
  <g id="circle-red-curation" transform="translate(17456 -9606)">
    <circle id="Ellipse_720" data-name="Ellipse 720" cx="40" cy="40" r="40" transform="translate(-17456 9606)" fill="#fd461d"/>
    <g id="Group_7323" data-name="Group 7323" transform="translate(-17456 9606)">
      <path id="Path_7742" data-name="Path 7742" d="M-41.853,4.526l-13.4,13.4a3,3,0,0,0,0,4.248l12.275,12.277a3.005,3.005,0,0,0,4.25,0l13.4-13.4Z" transform="translate(85.375 15.629)" fill="none" stroke="#fff" stroke-linecap="round" stroke-linejoin="round" stroke-width="2"/>
      <path id="Path_7743" data-name="Path 7743" d="M-55.666,29.032l-7.819,7.82A1.744,1.744,0,0,0-64,38.084,1.744,1.744,0,0,0-63.5,39.32l7.1,7.1a1.746,1.746,0,0,0,2.468-.011l7.82-7.819Z" transform="translate(87.137 10.14)" fill="none" stroke="#fff" stroke-linecap="round" stroke-linejoin="round" stroke-width="2"/>
      <path id="Path_7744" data-name="Path 7744" d="M-63.646,43.331l-4.43,4.43a.963.963,0,0,0-.044,1.36l3.8,3.8a.964.964,0,0,0,1.361-.044l4.43-4.43Z" transform="translate(88.118 6.938)" fill="none" stroke="#fff" stroke-linecap="round" stroke-linejoin="round" stroke-width="2"/>
      <line id="Line_169" data-name="Line 169" x2="11.352" y2="11.352" transform="translate(42.015 26.747)" fill="none" stroke="#fff" stroke-linecap="round" stroke-linejoin="round" stroke-width="2"/>
      <path id="Path_7745" data-name="Path 7745" d="M-31.17,4.834a20.668,20.668,0,0,1,11.35,11.35" transform="translate(79.783 15.561)" fill="none" stroke="#fff" stroke-linecap="round" stroke-linejoin="round" stroke-width="2"/>
    </g>
  </g>
</svg>
