<svg xmlns="http://www.w3.org/2000/svg" width="120" height="120" viewBox="0 0 120 120">
  <g id="circle-red-payment" transform="translate(17118 -9379)">
    <path id="Path_7730" data-name="Path 7730" d="M60,0A60,60,0,1,1,0,60,60,60,0,0,1,60,0Z" transform="translate(-17118 9379)" fill="#fd461d"/>
    <g id="online-banking" transform="translate(-17093.76 9405.115)">
      <path id="Path_7695" data-name="Path 7695" d="M77.542,29.1H48.377a1.168,1.168,0,0,0-.523.115,18.812,18.812,0,1,0,.037,2.132,1.179,1.179,0,0,0,.487.114H77.542a2.878,2.878,0,0,1,0,5.755H62.511a5.376,5.376,0,0,0-5.331,5.329v.574H54.813a10.222,10.222,0,0,0-10.178,10.2V73.733A10.158,10.158,0,0,0,54.813,83.854h7.4A10.147,10.147,0,0,0,72.38,73.733V53.32a10.211,10.211,0,0,0-10.164-10.2H59.541v-.574a3.013,3.013,0,0,1,2.97-2.968H77.542a5.239,5.239,0,1,0,0-10.478ZM29.1,47.058A16.446,16.446,0,1,1,45.545,30.612,16.446,16.446,0,0,1,29.1,47.058Zm28.228,9.749V54.272a1.182,1.182,0,0,1,2.361,0V59.32a1.182,1.182,0,0,1-2.361,0ZM47,53.32a7.858,7.858,0,0,1,7.817-7.835h2.366v5.552a3.665,3.665,0,0,0-2.214,3.236v1.4H47ZM70.019,73.733a7.783,7.783,0,0,1-7.8,7.76h-7.4A7.794,7.794,0,0,1,47,73.733v-15.7h7.969V59.32a3.542,3.542,0,0,0,7.084,0V58.029h7.969Zm-7.8-28.248a7.847,7.847,0,0,1,7.8,7.835v2.348H62.049v-1.4a3.479,3.479,0,0,0-2.509-3.307V45.485Z" transform="translate(-10.293 -11.809)" fill="#fff"/>
      <path id="Path_7696" data-name="Path 7696" d="M54.9,42.062A14.338,14.338,0,1,0,69.238,56.4,14.338,14.338,0,0,0,54.9,42.062Zm0,26.315A11.977,11.977,0,1,1,66.877,56.4,11.977,11.977,0,0,1,54.9,68.377Z" transform="translate(-36.094 -37.597)" fill="#fff"/>
      <path id="Path_7697" data-name="Path 7697" d="M111.216,79.279a2.229,2.229,0,0,1,2.227,2.227,1.181,1.181,0,0,0,2.361,0,4.6,4.6,0,0,0-3.366-4.422v-.9a1.181,1.181,0,0,0-2.361,0v.88a4.588,4.588,0,0,0,1.139,9.033,2.226,2.226,0,0,1,.3,4.431,1.149,1.149,0,0,0-.548.008,2.229,2.229,0,0,1-1.979-2.212,1.181,1.181,0,1,0-2.361,0,4.6,4.6,0,0,0,3.449,4.445v.977a1.181,1.181,0,1,0,2.361,0v-1a4.588,4.588,0,0,0-1.222-9.01,2.227,2.227,0,1,1,0-4.454Z" transform="translate(-92.411 -65.675)" fill="#fff"/>
    </g>
  </g>
</svg>
