<svg xmlns="http://www.w3.org/2000/svg" width="120" height="120" viewBox="0 0 120 120">
  <g id="circle-red-updates" transform="translate(16874 -9381)">
    <path id="Path_7731" data-name="Path 7731" d="M60,0A60,60,0,1,1,0,60,60,60,0,0,1,60,0Z" transform="translate(-16874 9381)" fill="#fd461d"/>
    <g id="tow-truck" transform="translate(-16848.389 9409.674)">
      <g id="Group_7152" data-name="Group 7152" transform="translate(28.202 0)">
        <g id="Group_7151" data-name="Group 7151">
          <path id="Path_7698" data-name="Path 7698" d="M246.5,45.292a2,2,0,0,1-.88-1.778V36.159c2.353-2.353,4.453-3.876,4.453-7.219a6.687,6.687,0,0,0-6.679-6.679c-3.71,0-2.567-.2-31.913,29.147v10.93h7.961l21.726-21.726v2.9a6.362,6.362,0,0,0,3.26,5.718,2.227,2.227,0,1,1-3.26,1.973,2.227,2.227,0,1,0-4.453,0,6.679,6.679,0,1,0,9.786-5.913Zm-3.106-14.125a2.227,2.227,0,1,1,2.227-2.227A2.229,2.229,0,0,1,243.391,31.167Z" transform="translate(-211.478 -22.261)" fill="none" stroke="#fff" stroke-width="2"/>
        </g>
      </g>
      <g id="Group_7154" data-name="Group 7154" transform="translate(0 20.039)">
        <g id="Group_7153" data-name="Group 7153">
          <path id="Path_7699" data-name="Path 7699" d="M66.053,197.013h-42.3V174.749a2.227,2.227,0,0,0-2.227-2.227H11.132A11.145,11.145,0,0,0,0,183.654v11.132H6.679a2.227,2.227,0,1,1,0,4.453H0v2.227a6.687,6.687,0,0,0,6.679,6.679H8.906a6.679,6.679,0,1,0,13.359,0h6.679a6.679,6.679,0,1,0,13.359,0h5.937a6.679,6.679,0,1,0,13.359,0,6.687,6.687,0,0,0,6.679-6.679V199.24A2.227,2.227,0,0,0,66.053,197.013Zm-61.6-6.68v-6.679a6.687,6.687,0,0,1,6.679-6.68h3.711v13.359Zm11.133,20.038a2.227,2.227,0,1,1,2.227-2.227A2.229,2.229,0,0,1,15.586,210.372Zm20.038,0a2.227,2.227,0,1,1,2.227-2.227A2.229,2.229,0,0,1,35.624,210.372Zm19.3,0a2.227,2.227,0,1,1,2.227-2.227A2.229,2.229,0,0,1,54.92,210.372Z" transform="translate(0 -172.522)" fill="none" stroke="#fff" stroke-width="2"/>
        </g>
      </g>
    </g>
  </g>
</svg>
