<svg xmlns="http://www.w3.org/2000/svg" width="80" height="80" viewBox="0 0 80 80">
  <g id="circle-red-convenience" transform="translate(18006 -9610)">
    <circle id="Ellipse_715" data-name="Ellipse 715" cx="40" cy="40" r="40" transform="translate(-18006 9610)" fill="#fd461d"/>
    <g id="Group_7318" data-name="Group 7318" transform="translate(-17978.959 9630.072)">
      <path id="Path_7732" data-name="Path 7732" d="M348.719,146.157l-10.18,2.225a3.993,3.993,0,0,0-3.14,3.9v14.544c0,8.644,7.427,12.676,13.32,18.562v.019l.01-.01.01.01v-.019s13.32-9.918,13.32-18.562V152.284a3.994,3.994,0,0,0-3.141-3.9Z" transform="translate(-335.399 -146.157)" fill="none" stroke="#fff" stroke-linecap="round" stroke-linejoin="round" stroke-width="2"/>
      <line id="Line_160" data-name="Line 160" y2="15.714" transform="translate(13.184 5.903)" fill="none" stroke="#fff" stroke-linecap="round" stroke-linejoin="round" stroke-width="2"/>
      <g id="Group_7301" data-name="Group 7301" transform="translate(5.329 5.68)">
        <line id="Line_161" data-name="Line 161" y2="7.262" transform="translate(0 1.341)" fill="none" stroke="#fff" stroke-linecap="round" stroke-linejoin="round" stroke-width="2"/>
        <line id="Line_162" data-name="Line 162" x1="7.873" y2="1.341" fill="none" stroke="#fff" stroke-linecap="round" stroke-linejoin="round" stroke-width="2"/>
      </g>
      <g id="Group_7302" data-name="Group 7302" transform="translate(16.327 5.8)">
        <line id="Line_163" data-name="Line 163" y2="7.262" transform="translate(5.056 1.341)" fill="none" stroke="#fff" stroke-linecap="round" stroke-linejoin="round" stroke-width="2"/>
        <line id="Line_164" data-name="Line 164" x2="5.056" y2="1.341" fill="none" stroke="#fff" stroke-linecap="round" stroke-linejoin="round" stroke-width="2"/>
      </g>
      <path id="Path_7733" data-name="Path 7733" d="M353.812,187.356l.006-.006.007.006v-.011s8.264-6.154,8.264-11.517v.237" transform="translate(-340.843 -154.929)" fill="none" stroke="#fff" stroke-linecap="round" stroke-linejoin="round" stroke-width="2"/>
    </g>
  </g>
</svg>
