<svg xmlns="http://www.w3.org/2000/svg" width="120" height="120" viewBox="0 0 120 120">
  <g id="circle-red-coverage" transform="translate(23920 -13139)">
    <path id="Path_7725" data-name="Path 7725" d="M60,0A60,60,0,1,1,0,60,60,60,0,0,1,60,0Z" transform="translate(-23920 13139)" fill="#fd461d"/>
    <path id="Path_7726" data-name="Path 7726" d="M5.779,49.392c1.835.607,3.922,1.276,3.363,3.7-.533,2.346,2.375,3.038,2.068,4.54-.425,2.079-3.337.943-4.625,2.42-.707.814-1.839,1.106-2.231,2.383-.437,1.454-1.432,2.915-.707,4.333.881,1.724,2.753.955,4.055.633,4.991-1.232,10.178.266,15.047-.984,5.135-1.321,7.5,1.447,9.061,5.295,1.265,3.126,3.833,3.9,5.735,2.379,2.967-2.368,6.072-1.709,9.083-1.7,5.35.011,5.424-2.275,3.426-6.175-1.18-2.305-3.955-3.563-4-6.767-.007-.744-3.526-1.365-1.421-3.4,1.428-1.369,1.8-5.454,5.709-2.708.755.529,3.974.129,5.494-1.854,3.319-4.333,6.312-9.12,10.382-12.631,3.544-3.075,1.709-8.75,6.948-10.411C68.4,25.635,64.748,20.118,66.154,16.6c1.591-3.988,5.206-.207,7.833-.836a54.2,54.2,0,0,0,5.457-1.428c1.154-.414,2.46-.943,2.124-2.768C81.12,9.148,72.506.472,70.172,1.09c-4.244,1.125-8.8-.363-12.716,1.7-2.046,1.073-5.6,1.214-5.124,4.858.781,5.96-.24,7.988-5.949,10.471a1.288,1.288,0,0,0-.84,1.709c1,4.566-5.117,6.219-4.44,10.826.126.869-1.646-.052-2.364.137-4.136,1.11-10.071,1.828-11,5.613-1.4,5.772-4.469,5.846-8.954,6.645A39.465,39.465,0,0,1,0,41.611v1.14C2.79,44.2,2.538,48.315,5.779,49.392Z" transform="translate(-23901.188 13161.26)" fill="#fff"/>
    <g id="spanner" transform="translate(-23820.137 13194.348) rotate(98)">
      <g id="Group_7075" data-name="Group 7075" transform="translate(0 0)">
        <path id="Path_7647" data-name="Path 7647" d="M29.048,4.476c0-.076-.069-.151-.1-.151-.069,0-.137,0-.172.038l-3.09,3.333L22.49,4.173,25.58.764a.2.2,0,0,0,0-.265c-.034-.038-.034-.038-.069-.038A6.8,6.8,0,0,0,19.023,2.43c-1.648,1.818-1.236,3.939-.961,5.34.034.189.069.417.1.568C17.066,9.626,8.758,18.83,7.522,20.117c-.137-.038-.275-.076-.446-.114-1.27-.341-3.124-.833-4.841,1.023A8.421,8.421,0,0,0,.449,28.109a.189.189,0,0,0,.206.151.117.117,0,0,0,.069-.038l3.09-3.333,3.193,3.522L3.917,31.82a.2.2,0,0,0,0,.265c.034.038.034.038.069.038a6.624,6.624,0,0,0,1.511.189,6.758,6.758,0,0,0,4.978-2.2c1.648-1.818,1.236-3.939.961-5.34-.034-.189-.069-.417-.1-.568,1.1-1.288,9.407-10.491,10.643-11.779l.446.114c1.236.341,3.159.871,4.841-.985A8.536,8.536,0,0,0,29.048,4.476Z" fill="#ff4612"/>
      </g>
    </g>
  </g>
</svg>
