<svg xmlns="http://www.w3.org/2000/svg" width="40" height="40" viewBox="0 0 40 40">
  <g id="truck" transform="translate(17687 -9887.999)">
    <g id="Icon_feather-truck" data-name="Icon feather-truck" transform="translate(-17677.555 9899.056)">
      <path id="Path_7243" data-name="Path 7243" d="M1.5,4.5H17.637V18.486H1.5Z" transform="translate(-1.5 -4.5)" fill="none" stroke="#ff4612" stroke-linecap="round" stroke-linejoin="round" stroke-width="2"/>
      <path id="Path_7244" data-name="Path 7244" d="M24,12h4.3l3.227,3.227v5.379H24Z" transform="translate(-7.863 -6.621)" fill="none" stroke="#ff4612" stroke-linecap="round" stroke-linejoin="round" stroke-width="2"/>
      <path id="Path_7245" data-name="Path 7245" d="M9.879,26.69A2.69,2.69,0,1,1,7.19,24a2.69,2.69,0,0,1,2.69,2.69Z" transform="translate(-2.348 -10.014)" fill="none" stroke="#ff4612" stroke-linecap="round" stroke-linejoin="round" stroke-width="2"/>
      <path id="Path_7246" data-name="Path 7246" d="M29.379,26.69A2.69,2.69,0,1,1,26.69,24a2.69,2.69,0,0,1,2.69,2.69Z" transform="translate(-7.863 -10.014)" fill="none" stroke="#ff4612" stroke-linecap="round" stroke-linejoin="round" stroke-width="2"/>
    </g>
    <circle id="Ellipse_729" data-name="Ellipse 729" cx="20" cy="20" r="20" transform="translate(-17687 9887.999)" fill="none"/>
  </g>
</svg>
