<svg xmlns="http://www.w3.org/2000/svg" width="18.014" height="18.047" viewBox="0 0 18.014 18.047">
  <path id="Icon_feather-phone" data-name="Icon feather-phone" d="M19.68,15.387v2.491a1.661,1.661,0,0,1-1.81,1.661,16.431,16.431,0,0,1-7.165-2.549,16.19,16.19,0,0,1-4.982-4.982,16.431,16.431,0,0,1-2.549-7.2A1.661,1.661,0,0,1,4.827,3H7.318A1.661,1.661,0,0,1,8.978,4.428a10.661,10.661,0,0,0,.581,2.333,1.661,1.661,0,0,1-.374,1.752L8.131,9.567a13.284,13.284,0,0,0,4.982,4.982l1.054-1.054a1.661,1.661,0,0,1,1.752-.374,10.66,10.66,0,0,0,2.333.581,1.661,1.661,0,0,1,1.428,1.685Z" transform="translate(-2.417 -2.25)" fill="none" stroke="#000" stroke-linecap="round" stroke-linejoin="round" stroke-width="1.5"/>
</svg>
