<svg xmlns="http://www.w3.org/2000/svg" xmlns:xlink="http://www.w3.org/1999/xlink" width="80" height="80" viewBox="0 0 80 80">
  <defs>
    <clipPath id="clip-path">
      <rect id="Rectangle_11" data-name="Rectangle 11" width="70.793" height="64.894" fill="none"/>
    </clipPath>
  </defs>
  <g id="icon-car-repairs" transform="translate(15538 -11170)">
    <rect id="Rectangle_651" data-name="Rectangle 651" width="80" height="80" transform="translate(-15538 11170)" fill="#fff"/>
    <g id="Group_7391" data-name="Group 7391" transform="translate(-18961.633 16046.106)">
      <path id="Path_2829" data-name="Path 2829" d="M116.4,390.133a4.075,4.075,0,1,0,4.075,4.075,4.075,4.075,0,0,0-4.075-4.075Zm0,6.037a1.962,1.962,0,1,1,1.962-1.961,1.961,1.961,0,0,1-1.962,1.961Zm0,0" transform="translate(3322.712 -5218.668)"/>
      <g id="Group_6337" data-name="Group 6337" transform="translate(3426.633 -4862.176)">
        <g id="Group_4290" data-name="Group 4290" transform="translate(0 0)">
          <g id="Group_4289" data-name="Group 4289" clip-path="url(#clip-path)">
            <path id="Path_2828" data-name="Path 2828" d="M71.5,186.864l-2.323,4.126c-1.124,0-3.619,0-5,0a4.684,4.684,0,0,0-4.687,2.885,10.185,10.185,0,0,0-.49,2.469.974.974,0,0,0,.275.727.987.987,0,0,0,.721.3h0l3.46.006a6.576,6.576,0,0,0-2.479,5.285,1.111,1.111,0,0,0,.008.129l1.6,12.7a3.783,3.783,0,0,0,3.11,3.627v4.066a2.419,2.419,0,0,0,2.384,2.411H72.26a2.449,2.449,0,0,0,2.419-2.411v-4h35.712a10.959,10.959,0,0,0,3.15,17.27,1.031,1.031,0,0,0,.987-.045,1.017,1.017,0,0,0,.488-.85v-5.189l3.4-2.272,3.487,2.446-.021,5.017a1,1,0,0,0,1.44.9,10.981,10.981,0,0,0-.462-19.85V192.673a10.974,10.974,0,0,0,.46-19.842,1.008,1.008,0,0,0-1.457.892v5.188l-3.4,2.272-3.487-2.445.021-5.018a1,1,0,0,0-1.439-.9,10.875,10.875,0,0,0-5.963,8.112,6.446,6.446,0,0,0-1.008-.1H79.207c-3.084,0-5.82,2.154-7.709,6.03Zm-10.352,8.528a8.243,8.243,0,0,1,.238-.886,2.8,2.8,0,0,1,2.794-1.518c1.016,0,2.64,0,3.873,0L66.7,195.384Zm11.537,27.786a.455.455,0,0,1-.424.416H68.083a.423.423,0,0,1-.389-.416v-4h4.989Zm-6.34-6a1.758,1.758,0,0,1-1.753-1.757.979.979,0,0,0-.008-.128L62.976,202.6a4.143,4.143,0,0,1,3.637-4.374,1.032,1.032,0,0,0,.17-.007h47.092v5.708a3.848,3.848,0,0,0,0,7.343V216.6a6.805,6.805,0,0,0-1.024.579Zm34.491-20.952a4.7,4.7,0,0,1,9.265,0Zm13.042,9.927v2.9a1.848,1.848,0,0,1,0-2.9Zm-.887-30.649-.008,3.746a1,1,0,0,0,.428.821l4.482,3.135a1,1,0,0,0,1.126.013l4.407-2.945a.982.982,0,0,0,.429-.83v-3.932a8.75,8.75,0,0,1,3.548,7.143,9.045,9.045,0,0,1-5.864,8.414,1.025,1.025,0,0,0-.676.935v25.265a1.031,1.031,0,0,0,.684.934,9.038,9.038,0,0,1,5.855,8.415,8.918,8.918,0,0,1-3.531,7.15l.017-3.747a1,1,0,0,0-.424-.821l-4.48-3.135a1,1,0,0,0-1.124-.013L113.45,229a.981.981,0,0,0-.429.83v3.933a8.752,8.752,0,0,1-3.548-7.144,9.024,9.024,0,0,1,4.146-7.572.9.9,0,0,0,.111-.074,8.519,8.519,0,0,1,1.53-.77.964.964,0,0,0,.611-.934V192a.966.966,0,0,0-.613-.935,8.986,8.986,0,0,1-2.269-15.564Zm-5.557,7.432a11.222,11.222,0,0,0,6.444,9.735v3.555h-1.761a6.7,6.7,0,0,0-13.3,0H68.491l4.76-8.413c.01-.018.02-.044.028-.063.89-1.836,2.844-4.922,5.927-4.922h27.377a3.929,3.929,0,0,1,.847.108Zm0,0" transform="translate(-58.674 -171.983)"/>
          </g>
        </g>
        <path id="Path_2830" data-name="Path 2830" d="M197.17,388.613h26.4a1.039,1.039,0,0,0,.945-1.364l-.91-2.65a5.076,5.076,0,0,0-4.58-3.255H201.644a5.006,5.006,0,0,0-4.552,3.27l-.87,2.649a1.039,1.039,0,0,0,.141.917,1.019,1.019,0,0,0,.807.433Zm1.819-3.352a3.065,3.065,0,0,1,2.655-1.923h17.382a3.128,3.128,0,0,1,2.691,1.924l.462,1.354H198.545Zm0,0" transform="translate(-176.262 -350.828)" fill="#ff4612"/>
        <path id="Path_2831" data-name="Path 2831" d="M210.986,442.25H178.424a1,1,0,1,0,0,2h32.563a1,1,0,1,0,0-2Zm0,0" transform="translate(-160.193 -403.041)" fill="#ff4612"/>
      </g>
    </g>
  </g>
</svg>
