<svg xmlns="http://www.w3.org/2000/svg" width="80" height="80" viewBox="0 0 80 80">
  <g id="icon-media-enquiry" transform="translate(15154 -11170)">
    <rect id="Rectangle_654" data-name="Rectangle 654" width="80" height="80" transform="translate(-15154 11170)" fill="#fff"/>
    <g id="a10" transform="translate(-15157.667 11181.931)">
      <path id="Path_7672" data-name="Path 7672" d="M74.7,3.265H61.335V.982A.982.982,0,0,0,60.353,0H26.527a.982.982,0,0,0-.982.982V3.265H12.65a.992.992,0,0,0-.983.983v25.78a.982.982,0,0,0,.982.982H25.545v7.173a.982.982,0,0,0,.982.982h3a3.516,3.516,0,0,0-.372,1.219L27.861,51.569a7.814,7.814,0,0,0-.051.946,8.146,8.146,0,0,0,3.138,6.2l3.271,2.816v4.56a.982.982,0,0,0,.982.982h3.023a.982.982,0,1,0,0-1.965h-2.04V61.077a.983.983,0,0,0-.341-.745l-3.226-2.778c-1.576-1.357-2.8-2.842-2.841-5.054a5.83,5.83,0,0,1,.038-.705L31.105,40.61a1.561,1.561,0,0,1,1.552-1.382,1.626,1.626,0,0,1,1.171.531,1.59,1.59,0,0,1,.391,1.03v8.283a.982.982,0,1,0,1.965,0V22.45a1.561,1.561,0,0,1,3.123-.008s0,0,0,.007,0,.01,0,.015v12.42a.994.994,0,1,0,1.973.012c0-.213,0-.841,0-1,.175-2,3.526-1.951,3.526.1v1.488a.983.983,0,0,0,1.965,0,1.566,1.566,0,0,1,1.564-1.564c.977,0,1.966.423,1.966,1.564v.968a.983.983,0,0,0,1.965.017,1.409,1.409,0,0,1,.05-.4,1.6,1.6,0,0,1,3.071-.008L56.6,40.729a19.773,19.773,0,0,1-.1,10.3l-2.747,9.782a.979.979,0,0,0-.037.266V65.1H42.928a.982.982,0,1,0,0,1.965H54.7a.982.982,0,0,0,.982-.982V61.212l2.71-9.652A21.739,21.739,0,0,0,58.5,40.236l-.278-1.07h2.127a.982.982,0,0,0,.982-.982V9.214h12.38V29.045H64.972a.982.982,0,1,0,0,1.965H74.7a.982.982,0,0,0,.982-.982V4.247h0a.983.983,0,0,0-.983-.982ZM13.632,5.23H25.545v2.02H13.632ZM27.51,1.965H59.37V7.249H27.51ZM13.632,29.045V9.214H25.545V29.045ZM57.715,37.2l-.424-1.634a3.592,3.592,0,0,0-5.557-1.951,3.938,3.938,0,0,0-5.287-1.11,3.887,3.887,0,0,0-5.175-1.666V23.432h8.937a.953.953,0,0,1,.951.952v1.887a.952.952,0,0,1-.951.951H44.832a.982.982,0,1,0,0,1.965h5.378a2.919,2.919,0,0,0,2.916-2.916V24.385a2.92,2.92,0,0,0-2.916-2.917H41.131a3.526,3.526,0,0,0-6.913.983V37.2h-6.71V9.214H59.37V37.2Zm3.62-29.951V5.23h12.38v2.02Z" transform="translate(0)"/>
      <path id="Path_7673" data-name="Path 7673" d="M215.607,28.036H204.214a.982.982,0,0,0,0,1.965h11.393a.982.982,0,0,0,0-1.965Z" transform="translate(-166.471 -24.363)"/>
      <path id="Path_7674" data-name="Path 7674" d="M165.343,84.734h-7.758a.982.982,0,0,0-.982.982V90.2a.982.982,0,0,0,.982.982h7.758a.982.982,0,0,0,.982-.982V85.716A.982.982,0,0,0,165.343,84.734Zm-.982,4.487h-5.793V86.7h5.793Z" transform="translate(-125.95 -73.634)"/>
      <path id="Path_7675" data-name="Path 7675" d="M406.839,111.692h5.836a.982.982,0,0,0,0-1.965h-5.836a.982.982,0,0,0,0,1.965Z" transform="translate(-342.553 -95.353)"/>
      <path id="Path_7676" data-name="Path 7676" d="M412.676,143.956a.982.982,0,0,0,0-1.965h-5.836a.982.982,0,0,0,0,1.965Z" transform="translate(-342.553 -123.391)"/>
      <path id="Path_7677" data-name="Path 7677" d="M42.921,111.692h5.836a.982.982,0,1,0,0-1.965H42.921a.982.982,0,1,0,0,1.965Z" transform="translate(-26.307 -95.353)"/>
      <path id="Path_7678" data-name="Path 7678" d="M48.758,141.991H42.921a.982.982,0,1,0,0,1.965h5.836a.982.982,0,1,0,0-1.965Z" transform="translate(-26.307 -123.391)"/>
      <path id="Path_7679" data-name="Path 7679" d="M264.5,101.861H254.077a.982.982,0,0,0,0,1.965H264.5a.982.982,0,1,0,0-1.965Z" transform="translate(-209.802 -88.518)"/>
    </g>
  </g>
</svg>
