<svg xmlns="http://www.w3.org/2000/svg" width="80" height="80" viewBox="0 0 80 80">
  <g id="icon-fleet-services" transform="translate(15826 -11170)">
    <rect id="Rectangle_648" data-name="Rectangle 648" width="80" height="80" transform="translate(-15826 11170)" fill="#fff"/>
    <g id="Group_7412" data-name="Group 7412" transform="translate(-16149 10288.557)">
      <path id="Path_2849" data-name="Path 2849" d="M254.672,368.168A2.168,2.168,0,0,0,252.5,366h-4.336A2.168,2.168,0,0,0,246,368.168v3.252a2.168,2.168,0,0,0,2.168,2.168H252.5a2.168,2.168,0,0,0,2.168-2.168Zm-6.5,3.252v-3.252H252.5v3.252Zm0,0" transform="translate(106.355 555.894)" stroke="#000" stroke-width="0.2"/>
      <path id="Path_2850" data-name="Path 2850" d="M182.672,368.168A2.168,2.168,0,0,0,180.5,366h-4.336A2.168,2.168,0,0,0,174,368.168v3.252a2.167,2.167,0,0,0,2.168,2.168H180.5a2.167,2.167,0,0,0,2.168-2.168Zm-6.5,3.252v-3.252H180.5v3.252Zm0,0" transform="translate(165.349 555.894)" stroke="#000" stroke-width="0.2"/>
      <path id="Path_2851" data-name="Path 2851" d="M396.5,373.588a2.168,2.168,0,0,0,2.168-2.168v-3.252A2.168,2.168,0,0,0,396.5,366h-4.336A2.168,2.168,0,0,0,390,368.168v3.252a2.168,2.168,0,0,0,2.168,2.168Zm-4.336-5.42H396.5v3.252h-4.336Zm0,0" transform="translate(-11.626 555.894)" stroke="#000" stroke-width="0.2"/>
      <path id="Path_2852" data-name="Path 2852" d="M254.672,422.168A2.168,2.168,0,0,0,252.5,420h-4.336A2.168,2.168,0,0,0,246,422.168v3.252a2.168,2.168,0,0,0,2.168,2.168H252.5a2.168,2.168,0,0,0,2.168-2.168Zm-6.5,3.252v-3.252H252.5v3.252Zm0,0" transform="translate(106.355 511.649)" stroke="#000" stroke-width="0.2"/>
      <path id="Path_2853" data-name="Path 2853" d="M182.672,422.168A2.168,2.168,0,0,0,180.5,420h-4.336A2.168,2.168,0,0,0,174,422.168v3.252a2.168,2.168,0,0,0,2.168,2.168H180.5a2.168,2.168,0,0,0,2.168-2.168Zm-6.5,3.252v-3.252H180.5v3.252Zm0,0" transform="translate(165.349 511.649)" stroke="#000" stroke-width="0.2"/>
      <path id="Path_2854" data-name="Path 2854" d="M252.5,474h-4.336A2.168,2.168,0,0,0,246,476.168v3.252a2.168,2.168,0,0,0,2.168,2.168H252.5a2.168,2.168,0,0,0,2.168-2.168v-3.252A2.168,2.168,0,0,0,252.5,474Zm-4.336,5.42v-3.252H252.5v3.252Zm0,0" transform="translate(106.355 467.406)" stroke="#000" stroke-width="0.2"/>
      <path id="Path_2855" data-name="Path 2855" d="M320.168,373.588H324.5a2.167,2.167,0,0,0,2.168-2.168v-3.252A2.168,2.168,0,0,0,324.5,366h-4.336A2.168,2.168,0,0,0,318,368.168v3.252a2.168,2.168,0,0,0,2.168,2.168Zm0-5.42H324.5v3.252h-4.336Zm0,0" transform="translate(47.367 555.894)" stroke="#000" stroke-width="0.2"/>
      <path id="Path_2856" data-name="Path 2856" d="M318,425.42a2.168,2.168,0,0,0,2.168,2.168,1.084,1.084,0,1,0,0-2.168v-3.252H324.5a1.084,1.084,0,1,0,0-2.168h-4.336A2.168,2.168,0,0,0,318,422.168Zm0,0" transform="translate(47.367 511.649)" stroke="#000" stroke-width="0.2"/>
      <g id="Group_6324" data-name="Group 6324" transform="translate(330.678 894.795)">
        <path id="Path_2848" data-name="Path 2848" d="M185.621,222.5H180.2v-2.168a4.336,4.336,0,0,0-8.672,0V222.5h-8.672v-2.168a4.336,4.336,0,0,0-8.672,0V222.5h-8.672v-2.168a4.336,4.336,0,0,0-8.672,0V222.5h-5.42a5.42,5.42,0,0,0-5.42,5.42v43.361a5.42,5.42,0,0,0,5.42,5.42h30.353a1.084,1.084,0,1,0,0-2.168H131.42a3.262,3.262,0,0,1-3.252-3.252v-33.6h60.705v18.428a1.084,1.084,0,1,0,2.168,0V227.924a5.42,5.42,0,0,0-5.42-5.42ZM173.7,220.336a2.168,2.168,0,1,1,4.336,0v6.5a2.168,2.168,0,0,1-4.336,0Zm-17.344,0a2.168,2.168,0,1,1,4.336,0v6.5a2.168,2.168,0,0,1-4.336,0Zm-17.344,0a2.168,2.168,0,1,1,4.336,0v6.5a2.168,2.168,0,0,1-4.336,0Zm49.865,15.176H128.168v-7.588a3.262,3.262,0,0,1,3.252-3.252h5.42v2.168a4.336,4.336,0,0,0,8.672,0v-2.168h8.672v2.168a4.336,4.336,0,0,0,8.672,0v-2.168h8.672v2.168a4.336,4.336,0,0,0,8.672,0v-2.168h5.42a3.262,3.262,0,0,1,3.252,3.252Zm0,0" transform="translate(-126 -216)" stroke="#000" stroke-width="0.2"/>
        <g id="Group_6323" data-name="Group 6323" transform="translate(36.856 36.855)">
          <path id="Path_2859" data-name="Path 2859" d="M378.722,471.468l-8.432,8.432-3.832-3.833a1.084,1.084,0,0,0-1.533,1.533l4.6,4.6a1.083,1.083,0,0,0,1.533,0l9.2-9.2a1.084,1.084,0,0,0-1.533-1.533Zm0,0" transform="translate(-358.37 -461.918)" fill="#ff4612" stroke="#ff4612" stroke-width="0.2"/>
          <path id="Path_7257" data-name="Path 7257" d="M344.09,420a14.093,14.093,0,0,0-9.965,24.057,14.935,14.935,0,0,0,4.974,3.214,13.667,13.667,0,0,0,10.384-.16A14.092,14.092,0,0,0,344.09,420Zm0,26.016a11.924,11.924,0,1,1,11.924-11.924,11.925,11.925,0,0,1-11.924,11.924Zm0,0" transform="translate(-329.997 -420)" fill="#ff4612" stroke="#ff4612" stroke-width="0.2"/>
        </g>
      </g>
    </g>
  </g>
</svg>
