<svg xmlns="http://www.w3.org/2000/svg" width="80" height="80" viewBox="0 0 80 80">
  <g id="icon-car-tracker" transform="translate(15730 -11170)">
    <rect id="Rectangle_649" data-name="Rectangle 649" width="80" height="80" transform="translate(-15730 11170)" fill="#fff"/>
    <g id="Group_7389" data-name="Group 7389" transform="translate(-19833.238 15683.493)">
      <g id="Group_6331" data-name="Group 6331" transform="translate(4113.369 -4448.26)">
        <path id="Path_7209" data-name="Path 7209" d="M787.259,149.417a4.137,4.137,0,1,1-4.025-4.262A4.188,4.188,0,0,1,787.259,149.417Zm-2.372-.074a1.783,1.783,0,0,0-1.748-1.794,1.761,1.761,0,1,0-.067,3.521A1.784,1.784,0,0,0,784.887,149.342Z" transform="translate(-728.473 -145.153)"/>
        <path id="Path_7210" data-name="Path 7210" d="M461.045,149.279a4.127,4.127,0,1,1-4.164-4.123A4.205,4.205,0,0,1,461.045,149.279Zm-4.159,1.791a1.758,1.758,0,1,0-1.74-1.805A1.8,1.8,0,0,0,456.886,151.071Z" transform="translate(-452.79 -145.155)"/>
      </g>
      <g id="Group_6330" data-name="Group 6330" transform="translate(4104.238 -4512.255)">
        <g id="Group_6333" data-name="Group 6333">
          <g id="Group_6329" data-name="Group 6329" transform="translate(0 38.695)">
            <path id="Path_7206" data-name="Path 7206" d="M416.931,12.515a10.087,10.087,0,0,1-1.83,4.632,9.45,9.45,0,0,1-10.063,3.893c-4.12-.871-6.638-3.551-7.619-7.64a1.261,1.261,0,0,0-.912-1.119,3.945,3.945,0,0,1-2.666-3.791c-.011-3.174-.028-6.348,0-9.522a8.026,8.026,0,0,1,7.942-7.858.865.865,0,0,0,.951-.637,14.226,14.226,0,0,1,13.452-8.7c5.028.157,10.059.344,15.076.692a27.985,27.985,0,0,1,13.406,4.55c2.117,1.371,4.13,2.908,6.139,4.437A4.7,4.7,0,0,0,453.82-7.4c1.856-.016,3.713.109,5.57.171A13.056,13.056,0,0,1,471.775,3.933c.337,2.335.141,4.508-1.55,6.28a21.09,21.09,0,0,1-2.311,1.773,1.25,1.25,0,0,0-.5.643A9.868,9.868,0,0,1,447.9,13.1c-.1-.5-.324-.59-.78-.59q-12.231.016-24.462,0Zm30.854-2.4a9.9,9.9,0,0,1,3.056-6.027,9.565,9.565,0,0,1,6.266-2.667,9.681,9.681,0,0,1,5.819,1.51,9.869,9.869,0,0,1,4.416,6.5,4.628,4.628,0,0,0,2.248-3.113c.25-1.224.221-1.255-.944-1.523a9.642,9.642,0,0,1-6.922-7.922c-.082-.5-.091-1.181-.406-1.419a3.836,3.836,0,0,0-1.635-.328,3.79,3.79,0,0,0-.464-.009Q454.963-5,450.707-5.12q-12.922-.361-25.844-.716c-.92-.025-1.842,0-2.8,0V10.118Zm-50.6-.234c1.814-5.529,4.892-8.46,9.186-8.553,5.944-.128,9.247,3.116,10.636,8.637h2.466V-6.173l-16.627-.465c.652,4.648-1.893,9.33-6.647,9.557,0,1.874-.025,3.752.015,5.628A1.412,1.412,0,0,0,397.185,9.884ZM447.932-7.6l.06-.207c-.911-.668-1.816-1.346-2.736-2a26.832,26.832,0,0,0-12.666-5.192c-3.046-.338-6.123-.388-9.187-.559-.449-.025-.9,0-1.337,0V-8.3Zm2.12,18.815A7.535,7.535,0,0,0,457.6,18.8a7.667,7.667,0,0,0,7.591-7.688,7.571,7.571,0,0,0-15.14.094ZM407.067,3.778a7.513,7.513,0,1,0,7.568,7.494A7.533,7.533,0,0,0,407.067,3.778ZM419.545-8.544v-7.281c-6.982-.773-13.3,2.254-14.477,6.931ZM396.374.408c3.136.449,4.911-4.165,4.1-6.728C397.6-5.792,396.024-3.224,396.374.408Zm67.67-3.944c.468,2.924,2.78,5.639,4.987,5.879A10.659,10.659,0,0,0,464.044-3.536Z" transform="translate(-393.826 18.233)"/>
            <path id="Path_7208" data-name="Path 7208" d="M620.768,92.311a4.91,4.91,0,0,1-3.447-1.61,1.166,1.166,0,0,1,1.565-1.7c1.345,1.273,2.561,1.174,3.935.133a1.471,1.471,0,0,1,1.9.149c.366.525.124,1.25-.59,1.768A5.8,5.8,0,0,1,620.768,92.311Z" transform="translate(-582.422 -72.147)"/>
          </g>
          <g id="Group_6328" data-name="Group 6328" transform="translate(33.725)">
            <path id="Path_7207" data-name="Path 7207" d="M626.366-268.1A14.819,14.819,0,0,1,641.2-253.694a12.6,12.6,0,0,1-1.435,5.722,55.392,55.392,0,0,1-8.235,12.121c-1.333,1.575-2.743,3.084-4.14,4.6a1.165,1.165,0,0,1-1.927.059,81.539,81.539,0,0,1-10.478-13.183,21.647,21.647,0,0,1-3.161-7.176,13.11,13.11,0,0,1,1.579-8.808A14.742,14.742,0,0,1,626.366-268.1Zm.038,34.449c.894-1.006,1.733-1.917,2.534-2.858a62.566,62.566,0,0,0,8.425-11.9,10.768,10.768,0,0,0,1.206-7.461A12.47,12.47,0,0,0,619.6-263.71c-4.179,2.689-7.6,9.069-4.141,15.379A78.768,78.768,0,0,0,626.4-233.652Z" transform="translate(-611.609 268.101)" fill="#ff4612"/>
            <path id="Path_7211" data-name="Path 7211" d="M665.73-205.947a7.44,7.44,0,0,1-7.58-7.275,7.467,7.467,0,0,1,7.311-7.635,7.428,7.428,0,0,1,7.6,7.326A7.413,7.413,0,0,1,665.73-205.947Zm.036-2.37a5.04,5.04,0,0,0,5.057-5.07,5.059,5.059,0,0,0-5.044-5.1,5.074,5.074,0,0,0-5.142,5.081A5.057,5.057,0,0,0,665.766-208.317Z" transform="translate(-650.94 228.174)" fill="#ff4612"/>
          </g>
        </g>
      </g>
    </g>
  </g>
</svg>
