<svg xmlns="http://www.w3.org/2000/svg" width="80" height="80" viewBox="0 0 80 80">
  <g id="icon-car-maintaince" transform="translate(15442 -11170)">
    <rect id="Rectangle_652" data-name="Rectangle 652" width="80" height="80" transform="translate(-15442 11170)" fill="#fff"/>
    <g id="Group_7413" data-name="Group 7413" transform="translate(-18863.758 15872.561)">
      <g id="Group_6340" data-name="Group 6340" transform="translate(3438.218 -4673.16)">
        <path id="Path_2842" data-name="Path 2842" d="M135.8,175.307a1.335,1.335,0,0,0,.117-1.025l-3.6-12.415a1.979,1.979,0,0,0-1.8-1.553H102.572a1.979,1.979,0,0,0-1.8,1.553l-3.6,12.415a1.125,1.125,0,0,0,.872,1.5h37A.888.888,0,0,0,135.8,175.307ZM99.352,173.53l3.162-10.914a.065.065,0,0,1,.058-.05h27.95a.066.066,0,0,1,.058.05l3.162,10.914Z" transform="translate(-92.938 -160.313)"/>
        <path id="Path_2843" data-name="Path 2843" d="M351.687,357.42c0,2.653,2.572,4.731,5.856,4.731s5.856-2.078,5.856-4.731-2.572-4.731-5.856-4.731S351.687,354.767,351.687,357.42Zm9.862,0c0,1.17-1.713,2.478-4.007,2.478s-4.007-1.308-4.007-2.478,1.713-2.478,4.007-2.478S361.549,356.25,361.549,357.42Z" transform="translate(-316.18 -323.853)"/>
        <path id="Path_2844" data-name="Path 2844" d="M68.979,352.689c-3.284,0-5.856,2.078-5.856,4.731s2.572,4.731,5.856,4.731,5.856-2.078,5.856-4.731S72.262,352.689,68.979,352.689Zm0,7.209c-2.293,0-4.006-1.308-4.006-2.478s1.713-2.478,4.006-2.478,4.007,1.308,4.007,2.478S71.272,359.9,68.979,359.9Z" transform="translate(-63.123 -323.853)"/>
        <path id="Path_2846" data-name="Path 2846" d="M80.079,330.895H86a1.148,1.148,0,0,0,0-2.253H80.079a1.148,1.148,0,0,0,0,2.253Z" transform="translate(-77.18 -303.412)"/>
        <path id="Path_2847" data-name="Path 2847" d="M367.718,329.768a1.04,1.04,0,0,0,.925,1.126h5.917a1.148,1.148,0,0,0,0-2.253h-5.917A1.04,1.04,0,0,0,367.718,329.768Z" transform="translate(-330.241 -303.412)"/>
      </g>
      <g id="Group_6339" data-name="Group 6339" transform="translate(3428.758 -4690.749)">
        <g id="Group_6338" data-name="Group 6338">
          <path id="Path_2839" data-name="Path 2839" d="M442.141,109.01a3.463,3.463,0,0,1-3.186-3.68.985.985,0,1,0-1.95,0,3.463,3.463,0,0,1-3.185,3.68,1.138,1.138,0,0,0,0,2.253,3.463,3.463,0,0,1,3.185,3.68.985.985,0,1,0,1.95,0,3.463,3.463,0,0,1,3.186-3.68,1.138,1.138,0,0,0,0-2.253Zm-4.16,2.458a5.659,5.659,0,0,0-1.153-1.332,5.659,5.659,0,0,0,1.153-1.332,5.657,5.657,0,0,0,1.153,1.332A5.657,5.657,0,0,0,437.981,111.468Z" transform="translate(-376.678 -88.585)" fill="#ff4612"/>
          <path id="Path_2840" data-name="Path 2840" d="M4.161,114.942a1.059,1.059,0,0,0,.975,1.126,1.059,1.059,0,0,0,.975-1.126,3.463,3.463,0,0,1,3.185-3.68,1.138,1.138,0,0,0,0-2.253,3.463,3.463,0,0,1-3.185-3.68,1.059,1.059,0,0,0-.975-1.126,1.059,1.059,0,0,0-.975,1.126,3.463,3.463,0,0,1-3.185,3.68,1.138,1.138,0,0,0,0,2.253A3.463,3.463,0,0,1,4.161,114.942Zm.975-6.138a5.658,5.658,0,0,0,1.153,1.332,5.661,5.661,0,0,0-1.153,1.332,5.657,5.657,0,0,0-1.153-1.332A5.657,5.657,0,0,0,5.136,108.8Z" transform="translate(0 -88.585)" fill="#ff4612"/>
          <path id="Path_2841" data-name="Path 2841" d="M209.382,8.26c2.33,0,4.226,2.19,4.226,4.881a.985.985,0,1,0,1.95,0c0-2.692,1.9-4.881,4.225-4.881a1.059,1.059,0,0,0,.975-1.126,1.059,1.059,0,0,0-.975-1.126c-2.33,0-4.225-2.19-4.225-4.881a.985.985,0,1,0-1.95,0c0,2.692-1.9,4.881-4.226,4.881a1.059,1.059,0,0,0-.975,1.126A1.059,1.059,0,0,0,209.382,8.26Zm5.2-3.29a6.8,6.8,0,0,0,1.873,2.164A6.8,6.8,0,0,0,214.583,9.3a6.8,6.8,0,0,0-1.873-2.164A6.8,6.8,0,0,0,214.583,4.97Z" transform="translate(-181.363)" fill="#ff4612"/>
        </g>
        <path id="Path_2845" data-name="Path 2845" d="M70.4,149.788H65.2a.975.975,0,0,0-.946.739l-.685,2.74-4.791-13.574a5.144,5.144,0,0,0-4.843-3.426H24.455a5.144,5.144,0,0,0-4.843,3.427l-4.791,13.574-.685-2.74a.975.975,0,0,0-.946-.739h-5.2a.975.975,0,0,0-.975.975v4.161a.975.975,0,0,0,.975.975h5.386l-3.324,4.654a5.108,5.108,0,0,0-.956,2.985v12.189a5.131,5.131,0,0,0,2.082,4.126c0,.011,0,.023,0,.034v3.12a2.018,2.018,0,0,0,2.015,2.015h6.241a2.018,2.018,0,0,0,2.015-2.015v-2.145H56.941v2.145a2.018,2.018,0,0,0,2.015,2.015H65.2a2.018,2.018,0,0,0,2.015-2.015v-3.12c0-.012,0-.023,0-.034a5.131,5.131,0,0,0,2.082-4.126V163.538a5.107,5.107,0,0,0-.957-2.985L65.012,155.9H70.4a.975.975,0,0,0,.975-.975v-4.161A.975.975,0,0,0,70.4,149.788ZM8.964,153.949v-2.21h3.464l.553,2.21Zm21.843,14.432H47.58v2.21H30.807Zm.153-1.95a3.191,3.191,0,0,1,3.032-2.21h10.4a3.19,3.19,0,0,1,3.032,2.21Zm-.153,6.111H47.58v2.21H30.807ZM67.189,176.7a3.19,3.19,0,0,1-3.032,2.21H14.23A3.19,3.19,0,0,1,11.2,176.7ZM19.5,183.008a.065.065,0,0,1-.065.065H13.19a.065.065,0,0,1-.065-.065v-2.145H19.5Zm45.766-2.145v2.145a.065.065,0,0,1-.065.065H58.956a.065.065,0,0,1-.065-.065v-2.145h6.371Zm2.08-17.324v11.213H49.53v-7.346a5.142,5.142,0,0,0-5.136-5.136h-10.4a5.142,5.142,0,0,0-5.136,5.136v7.346H11.044V163.538a3.168,3.168,0,0,1,.593-1.851l4.134-5.788h35.9a.975.975,0,1,0,0-1.95H16.648l4.8-13.607a3.191,3.191,0,0,1,3-2.125H53.932a3.191,3.191,0,0,1,3,2.125l4.8,13.607h-5.9a.975.975,0,1,0,0,1.95h6.779l4.134,5.788A3.168,3.168,0,0,1,67.342,163.538Zm2.08-9.59H65.406l.553-2.21h3.464Z" transform="translate(-6.103 -118.584)"/>
      </g>
    </g>
  </g>
</svg>
