<svg xmlns="http://www.w3.org/2000/svg" width="80" height="80" viewBox="0 0 80 80">
  <g id="icon-partnership" transform="translate(15251 -11170)">
    <rect id="Rectangle_653" data-name="Rectangle 653" width="80" height="80" transform="translate(-15251 11170)" fill="#fff"/>
    <g id="Group_7394" data-name="Group 7394" transform="translate(-19344.814 15955.803)">
      <path id="Path_7212" data-name="Path 7212" d="M65.807,114.5,54.747,100.13a1.3,1.3,0,0,0-1.722-.3l-7.14,4.541H36.572a1.283,1.283,0,0,0-.356.06L29,106.507,21.5,104.458l-7.28-4.63a1.3,1.3,0,0,0-1.7.279L.287,115.259a1.3,1.3,0,0,0,.163,1.8l6.411,5.518,5.752,7.751a4.575,4.575,0,0,0,2.878,7.685,4.609,4.609,0,0,0-.053.7,4.579,4.579,0,0,0,4.579,4.579l.049,0c0,.031,0,.062,0,.093a4.578,4.578,0,0,0,4.579,4.579,4.666,4.666,0,0,0,.715-.056,4.579,4.579,0,0,0,7.792,2.788l.7-.7.294.237a4.577,4.577,0,0,0,7.76-3.363,4.571,4.571,0,0,0,4.648-4.646,4.575,4.575,0,0,0,4.648-4.65,4.576,4.576,0,0,0,3.912-7.07l4.2-8.8,6.314-5.433a1.3,1.3,0,0,0,.181-1.773Zm-52-11.862,5.235,3.329L7.655,119.838,3.092,115.91Zm.739,29.415,1.58-1.58c.048-.048.1-.093.15-.136a1.983,1.983,0,0,1,1.079-.438h.034c.056,0,.113-.008.17-.007a1.976,1.976,0,0,1,1.418.623,2.037,2.037,0,0,1-.088,2.819l-1.532,1.532a1.988,1.988,0,1,1-2.81-2.811Zm4.065,8.064a1.987,1.987,0,0,1,0-2.811l3.064-3.064a2.008,2.008,0,0,1,2.259-.39A1.981,1.981,0,0,1,25.03,135.9a2.1,2.1,0,0,1-.592,1.2l-3.015,3.015a1.987,1.987,0,0,1-2.811,0Zm4.626,4.671a1.987,1.987,0,0,1,0-2.81l3.063-3.064a2.01,2.01,0,0,1,2.4-.315,1.978,1.978,0,0,1,.949,2.008,2.1,2.1,0,0,1-.589,1.166l-3.015,3.015a1.987,1.987,0,0,1-2.811,0Zm5.269,4.073a1.99,1.99,0,0,1,0-2.81l1.58-1.58c.048-.048.1-.093.149-.135l0,0a1.98,1.98,0,0,1,.881-.409l.023,0c.055-.01.112-.018.168-.023l.069,0c.046,0,.092-.006.139-.005a1.975,1.975,0,0,1,1.418.623,1.8,1.8,0,0,1,.128.151,2.051,2.051,0,0,1-.224,2.676l-1.524,1.524a1.99,1.99,0,0,1-2.81,0Zm24.17-14.46a1.989,1.989,0,0,1-2.811,0,1.181,1.181,0,0,0-.088-.079L41.447,125.9a1.3,1.3,0,0,0-1.842,1.823l8.421,8.509,0,0a1.988,1.988,0,1,1-2.811,2.811l-5.634-5.692a1.3,1.3,0,0,0-1.842,1.823l5.547,5.6a1.217,1.217,0,0,0,.091.1,1.988,1.988,0,1,1-2.812,2.811L37.5,140.587a1.3,1.3,0,1,0-1.842,1.822l2.989,3.02a1.147,1.147,0,0,0,.091.1,1.988,1.988,0,0,1-2.81,2.811,2.871,2.871,0,0,0-.294-.234c-.085-.065-.107-.109-.065-.212s.107-.2.15-.3.086-.237.123-.359a4.671,4.671,0,0,0,.168-1.993,4.532,4.532,0,0,0-3.863-3.9,4.621,4.621,0,0,0-1.11-4.17,4.545,4.545,0,0,0-3.264-1.432h-.137a4.534,4.534,0,0,0-4.489-4.671,4.66,4.66,0,0,0-1.106.117A4.535,4.535,0,0,0,17.6,127.3a4.59,4.59,0,0,0-3.128,1.177l-5.008-6.749,11.982-14.6,3.819,1.045-4.987,8.8A4.58,4.58,0,0,0,22,123.213q.1.057.2.108l.016.008a4.606,4.606,0,0,0,.549.23,4.579,4.579,0,0,0,5.474-2.072l3.241-5.719,5.787.41,15.41,15.409a1.991,1.991,0,0,1,0,2.811Zm.537-5.939L38.758,114a1.145,1.145,0,0,0-.086-.079,1.3,1.3,0,0,0-.739-.3l-7.085-.5a1.317,1.317,0,0,0-1.219.654l-3.644,6.431a1.988,1.988,0,1,1-3.458-1.96l4.864-8.585,1.971-.567.039-.013,7.357-2.124h8.889l11.1,14.106Zm5.227-9.426L48.179,105.981l5.237-3.331,9.589,12.455Zm0,0" transform="translate(4100.815 -4859.705)"/>
      <path id="Path_7213" data-name="Path 7213" d="M301.441,40.313a1.292,1.292,0,0,0,.916-.38l8.85-8.85a1.3,1.3,0,1,0-1.832-1.832l-8.85,8.85a1.3,1.3,0,0,0,.916,2.212Zm0,0" transform="translate(3845.126 -4798.08)" fill="#ff4612"/>
      <path id="Path_7214" data-name="Path 7214" d="M132.426,39.934a1.3,1.3,0,0,0,1.833-1.832l-8.85-8.85a1.3,1.3,0,1,0-1.832,1.832Zm0,0" transform="translate(3999.239 -4798.082)" fill="#ff4612"/>
      <path id="Path_7215" data-name="Path 7215" d="M247.256,50.615a1.3,1.3,0,0,0,1.3-1.3V41.995a1.3,1.3,0,1,0-2.591,0v7.324A1.3,1.3,0,0,0,247.256,50.615Zm0,0" transform="translate(3892.319 -4808.381)" fill="#ff4612"/>
      <path id="Path_7216" data-name="Path 7216" d="M246.082,2.288A1.295,1.295,0,1,0,248.067.764a1.295,1.295,0,0,0-1.984,1.523Zm0,0" transform="translate(3892.297 -4773.372)" fill="#ff4612"/>
    </g>
  </g>
</svg>
