<svg xmlns="http://www.w3.org/2000/svg" width="38.543" height="30" viewBox="0 0 38.543 30">
  <g id="Group_6322" data-name="Group 6322" transform="translate(-3430.999 4768.564)">
    <path id="Path_2823" data-name="Path 2823" d="M223.317,106.061a.54.54,0,0,0,.75,0l1.2-1.2,1.2,1.2a.54.54,0,0,0,.75,0,.531.531,0,0,0,0-.75l-1.2-1.2,1.2-1.2a.531.531,0,0,0-.75-.75l-1.2,1.2-1.2-1.2a.531.531,0,0,0-.75.75l1.2,1.2-1.2,1.2A.531.531,0,0,0,223.317,106.061Z" transform="translate(3224.941 -4866.498)" fill="#ff4612"/>
    <g id="Group_6321" data-name="Group 6321">
      <path id="Path_2822" data-name="Path 2822" d="M183.66,68.249a5.753,5.753,0,1,0-5.753-5.753A5.76,5.76,0,0,0,183.66,68.249Zm0-10.327a4.573,4.573,0,1,1-4.573,4.573A4.578,4.578,0,0,1,183.66,57.922Z" transform="translate(3266.484 -4825.307)" fill="#ff4612"/>
      <path id="Path_2824" data-name="Path 2824" d="M33.908,60.168a2.927,2.927,0,0,0-.653,5.781,2.645,2.645,0,0,0-.015.279,2.6,2.6,0,1,0,3.51-2.434,2.927,2.927,0,0,0-2.842-3.626Zm3.35,6.06a1.419,1.419,0,1,1-2.721-.563.591.591,0,0,0-.057-.568c-.171-.25-.413-.242-.681-.258A1.747,1.747,0,1,1,35.655,63.1a1.747,1.747,0,0,1-.216.843.59.59,0,0,0,.483.874A1.418,1.418,0,0,1,37.258,66.228Z" transform="translate(3402.348 -4828.475)"/>
      <path id="Path_2825" data-name="Path 2825" d="M15.606,234.532a1.748,1.748,0,1,0,1.748-1.748A1.75,1.75,0,0,0,15.606,234.532Zm1.748-.567a.567.567,0,1,1-.567.567A.568.568,0,0,1,17.354,233.964Z" transform="translate(3416.568 -4988.097)"/>
      <path id="Path_2826" data-name="Path 2826" d="M29.272,172.164a1.748,1.748,0,1,0-1.748-1.748A1.75,1.75,0,0,0,29.272,172.164Zm0-2.315a.567.567,0,1,1-.567.567A.568.568,0,0,1,29.272,169.849Z" transform="translate(3405.547 -4928.808)"/>
      <path id="Path_2827" data-name="Path 2827" d="M32.841,238.145a3.914,3.914,0,0,0,3.594-2.374h1.516a.59.59,0,0,0,.59-.59v-3.857a5.757,5.757,0,0,0-.082-.965l0-.02a5.686,5.686,0,0,0-1.992-3.417l-.016-.013a5.68,5.68,0,0,0-2.347-1.149l-2.345-2.241a7.817,7.817,0,0,0-5.422-2.174H21.784a16.285,16.285,0,0,0-6.743,1.453.59.59,0,0,0,.486,1.076,15.11,15.11,0,0,1,6.257-1.348h3.009l.476,3.518-14.578.566,2.715-1.592a.59.59,0,0,0-.6-1.018l-4.2,2.464L5.764,220.8a.59.59,0,0,0-1.055.53l2.718,5.415-1.314.058a5.677,5.677,0,0,0-1.884.412c-.016,0-.031.01-.047.016a5.688,5.688,0,0,0-2.821,2.534,5.291,5.291,0,0,0-.531,1.327l-.751,2.428a1.74,1.74,0,0,0,1.663,2.255H4a3.908,3.908,0,0,0,7.188,0H29.247A3.914,3.914,0,0,0,32.841,238.145Zm2.722-3.731a2.727,2.727,0,0,1-5.423.2,2.673,2.673,0,0,1-.028-.376,2.728,2.728,0,1,1,5.456,0Q35.569,234.326,35.563,234.414Zm.15-6.582.025.021q.167.14.32.3l.019.019a4.539,4.539,0,0,1,1.166,2.133,1.855,1.855,0,0,1-1.531-1.824Zm-9.38-5.307a6.641,6.641,0,0,1,4.607,1.847l1.46,1.394L26.454,226l-.469-3.472h.349ZM2.222,230.681a4.548,4.548,0,0,1,1.637-1.947v.163A1.855,1.855,0,0,1,2.2,230.74Zm8.1,3.558A2.73,2.73,0,0,1,7.6,236.965H7.6a2.728,2.728,0,1,1,2.728-2.726Zm1.164.352c.01,0,.016-.334.016-.354a3.908,3.908,0,1,0-7.817,0c0,.118.005.237.016.354H1.741a.56.56,0,0,1-.535-.726l.6-1.942q.1.007.2.007A3.036,3.036,0,0,0,5.04,228.9v-.678c0-.015,0-.03,0-.045a4.5,4.5,0,0,1,1.126-.2l2.225-.1,3.44-.133a13.323,13.323,0,0,0,.509,6.845Zm9.583,0H13.655c-1.261-2.233-.826-5.678-.618-6.892l12.363-.48c.071,1.22.074,4.232-1.415,6.008A3.841,3.841,0,0,1,21.07,234.591Zm3.217,0a5.042,5.042,0,0,0,.6-.605c1.756-2.094,1.774-5.417,1.692-6.812l7.183-.279a4.488,4.488,0,0,1,.838.262,3.038,3.038,0,0,0-.069.641v.678a3.036,3.036,0,0,0,2.829,3.025v3.09h-.628c0-.03,0-.059.006-.089s0-.051.005-.077c0-.063,0-.126,0-.188a3.908,3.908,0,1,0-7.817,0c0,.063,0,.126,0,.189,0,.025,0,.05.005.076s0,.06.006.09Z" transform="translate(3431 -4976.709)"/>
    </g>
  </g>
</svg>
