<svg xmlns="http://www.w3.org/2000/svg" width="28.376" height="28.428" viewBox="0 0 28.376 28.428">
  <g id="Group_6324" data-name="Group 6324" transform="translate(-326.226 -891.229)">
    <path id="Path_2848" data-name="Path 2848" d="M151.828,218.818H149.48v-.939a1.878,1.878,0,0,0-3.757,0v.939h-3.757v-.939a1.878,1.878,0,1,0-3.757,0v.939h-3.757v-.939a1.878,1.878,0,0,0-3.757,0v.939h-2.348A2.348,2.348,0,0,0,126,221.166V239.95a2.348,2.348,0,0,0,2.348,2.348H141.5a.47.47,0,1,0,0-.939H128.348a1.413,1.413,0,0,1-1.409-1.409V225.392h26.3v7.983a.47.47,0,1,0,.939,0v-12.21a2.348,2.348,0,0,0-2.348-2.348Zm-5.166-.939a.939.939,0,1,1,1.878,0V220.7a.939.939,0,0,1-1.878,0Zm-7.514,0a.939.939,0,1,1,1.878,0V220.7a.939.939,0,0,1-1.878,0Zm-7.514,0a.939.939,0,1,1,1.878,0V220.7a.939.939,0,0,1-1.878,0Zm21.6,6.574h-26.3v-3.287a1.413,1.413,0,0,1,1.409-1.409H130.7v.939a1.878,1.878,0,0,0,3.757,0v-.939h3.757v.939a1.878,1.878,0,1,0,3.757,0v-.939h3.757v.939a1.878,1.878,0,0,0,3.757,0v-.939h2.348a1.413,1.413,0,0,1,1.409,1.409Zm0,0" transform="translate(200.326 675.329)" stroke="#000" stroke-width="0.2"/>
    <g id="Group_6323" data-name="Group 6323">
      <path id="Path_2859" data-name="Path 2859" d="M370.73,471.3l-3.653,3.653-1.66-1.661a.47.47,0,0,0-.664.664l1.992,1.992a.469.469,0,0,0,.664,0l3.984-3.985a.47.47,0,0,0-.664-.664Zm0,0" transform="translate(-19.621 440.137)" fill="#ff4612" stroke="#ff4612" stroke-width="0.2"/>
      <path id="Path_7257" data-name="Path 7257" d="M336.1,420a6.1,6.1,0,0,0-4.317,10.422,6.47,6.47,0,0,0,2.155,1.392,5.921,5.921,0,0,0,4.5-.069A6.1,6.1,0,0,0,336.1,420Zm0,11.27a5.166,5.166,0,1,1,5.166-5.166,5.166,5.166,0,0,1-5.166,5.166Zm0,0" transform="translate(12.295 487.295)" fill="#ff4612" stroke="#ff4612" stroke-width="0.2"/>
    </g>
  </g>
</svg>
