<svg xmlns="http://www.w3.org/2000/svg" width="30" height="30" viewBox="0 0 30 30">
  <g id="Group_6341" data-name="Group 6341" transform="translate(-3428.758 4690.749)">
    <g id="Group_6340" data-name="Group 6340" transform="translate(3433.029 -4682.807)">
      <path id="Path_2842" data-name="Path 2842" d="M114.588,167.083a.6.6,0,0,0,.053-.463l-1.624-5.606a.894.894,0,0,0-.814-.7H99.583a.893.893,0,0,0-.814.7l-1.624,5.606a.508.508,0,0,0,.394.678h16.708A.4.4,0,0,0,114.588,167.083Zm-16.459-.8,1.428-4.928a.03.03,0,0,1,.026-.023H112.2a.03.03,0,0,1,.026.023l1.428,4.928Z" transform="translate(-95.233 -160.313)"/>
      <path id="Path_2843" data-name="Path 2843" d="M351.687,354.825a2.7,2.7,0,1,0,2.644-2.136A2.4,2.4,0,0,0,351.687,354.825Zm4.453,0c0,.528-.774,1.119-1.809,1.119s-1.809-.591-1.809-1.119.774-1.119,1.809-1.119S356.14,354.3,356.14,354.825Z" transform="translate(-335.654 -339.668)"/>
      <path id="Path_2844" data-name="Path 2844" d="M65.767,352.689a2.185,2.185,0,1,0,2.644,2.136A2.4,2.4,0,0,0,65.767,352.689Zm0,3.255c-1.035,0-1.809-.591-1.809-1.119s.774-1.119,1.809-1.119,1.809.591,1.809,1.119S66.8,355.944,65.767,355.944Z" transform="translate(-63.123 -339.668)"/>
      <path id="Path_2846" data-name="Path 2846" d="M79.572,329.659h2.672a.519.519,0,0,0,0-1.017H79.572a.519.519,0,0,0,0,1.017Z" transform="translate(-78.263 -317.25)"/>
      <path id="Path_2847" data-name="Path 2847" d="M367.718,329.151a.47.47,0,0,0,.418.509h2.672a.519.519,0,0,0,0-1.017h-2.672A.47.47,0,0,0,367.718,329.151Z" transform="translate(-350.796 -317.25)"/>
    </g>
    <g id="Group_6339" data-name="Group 6339" transform="translate(3428.758 -4690.749)">
      <g id="Group_6338" data-name="Group 6338">
        <path id="Path_2839" data-name="Path 2839" d="M437.043,106.374a1.564,1.564,0,0,1-1.438-1.661.445.445,0,1,0-.881,0,1.564,1.564,0,0,1-1.438,1.661.514.514,0,0,0,0,1.017,1.564,1.564,0,0,1,1.438,1.662.445.445,0,1,0,.881,0,1.564,1.564,0,0,1,1.438-1.662.514.514,0,0,0,0-1.017Zm-1.879,1.11a2.555,2.555,0,0,0-.521-.6.526.526,0,1,1,1.041,0A2.555,2.555,0,0,0,435.164,107.484Z" transform="translate(-407.483 -97.151)" fill="#ff4612"/>
        <path id="Path_2840" data-name="Path 2840" d="M1.879,109.053a.478.478,0,0,0,.44.509.478.478,0,0,0,.44-.509A1.564,1.564,0,0,1,4.2,107.391a.514.514,0,0,0,0-1.017,1.564,1.564,0,0,1-1.438-1.661.478.478,0,0,0-.44-.509.478.478,0,0,0-.44.509A1.564,1.564,0,0,1,.44,106.374a.514.514,0,0,0,0,1.017A1.564,1.564,0,0,1,1.879,109.053Zm.44-2.771a2.555,2.555,0,0,0,.521.6,2.556,2.556,0,0,0-.521.6,2.555,2.555,0,0,0-.521-.6A2.554,2.554,0,0,0,2.319,106.281Z" transform="translate(0 -97.151)" fill="#ff4612"/>
        <path id="Path_2841" data-name="Path 2841" d="M208.847,3.73a2.074,2.074,0,0,1,1.908,2.2.445.445,0,1,0,.881,0,2.074,2.074,0,0,1,1.908-2.2.478.478,0,0,0,.44-.509.478.478,0,0,0-.44-.509,2.074,2.074,0,0,1-1.908-2.2.445.445,0,1,0-.881,0,2.074,2.074,0,0,1-1.908,2.2.478.478,0,0,0-.44.509A.478.478,0,0,0,208.847,3.73ZM211.2,2.244a3.07,3.07,0,0,0,.846.977,3.07,3.07,0,0,0-.846.977,3.069,3.069,0,0,0-.846-.977A3.069,3.069,0,0,0,211.2,2.244Z" transform="translate(-196.195)" fill="#ff4612"/>
      </g>
      <path id="Path_2845" data-name="Path 2845" d="M35.634,142.372H33.286a.44.44,0,0,0-.427.333l-.309,1.237-2.163-6.129a2.323,2.323,0,0,0-2.187-1.547H14.889a2.323,2.323,0,0,0-2.187,1.547l-2.163,6.129-.309-1.237a.44.44,0,0,0-.427-.333H7.454a.44.44,0,0,0-.44.44v1.879a.44.44,0,0,0,.44.44H9.886l-1.5,2.1a2.306,2.306,0,0,0-.432,1.348v5.5a2.317,2.317,0,0,0,.94,1.863c0,.005,0,.01,0,.016v1.409a.911.911,0,0,0,.91.91h2.818a.911.911,0,0,0,.91-.91V156.4H29.558v.969a.911.911,0,0,0,.91.91h2.818a.911.911,0,0,0,.91-.91v-1.409c0-.005,0-.01,0-.016a2.317,2.317,0,0,0,.94-1.863v-5.5a2.306,2.306,0,0,0-.432-1.348l-1.5-2.1h2.432a.44.44,0,0,0,.44-.44v-1.879A.44.44,0,0,0,35.634,142.372ZM7.895,144.25v-1H9.459l.25,1Zm9.863,6.517h7.573v1H17.758Zm.069-.881a1.441,1.441,0,0,1,1.369-1h4.7a1.441,1.441,0,0,1,1.369,1Zm-.069,2.759h7.573v1H17.758Zm16.428,1.879a1.441,1.441,0,0,1-1.369,1H10.272a1.441,1.441,0,0,1-1.369-1ZM12.65,157.372a.029.029,0,0,1-.029.029H9.8a.029.029,0,0,1-.029-.029V156.4H12.65Zm20.665-.969v.969a.029.029,0,0,1-.029.029H30.468a.029.029,0,0,1-.029-.029V156.4h2.877Zm.939-7.823v5.063H26.212v-3.317a2.322,2.322,0,0,0-2.319-2.319H19.2a2.322,2.322,0,0,0-2.319,2.319v3.317H8.834V148.58a1.43,1.43,0,0,1,.268-.836l1.867-2.613H27.18a.44.44,0,1,0,0-.881H11.364l2.168-6.144a1.441,1.441,0,0,1,1.356-.96H28.2a1.441,1.441,0,0,1,1.356.96l2.168,6.144H29.059a.44.44,0,1,0,0,.881H32.12l1.867,2.613A1.43,1.43,0,0,1,34.255,148.58Zm.939-4.33H33.38l.25-1h1.564Z" transform="translate(-6.603 -128.282)"/>
    </g>
  </g>
</svg>
