<svg xmlns="http://www.w3.org/2000/svg" width="30.405" height="30" viewBox="0 0 30.405 30">
  <g id="Group_6344" data-name="Group 6344" transform="translate(-4100.813 4772.872)">
    <path id="Path_7212" data-name="Path 7212" d="M30.28,106.468l-5.089-6.611a.6.6,0,0,0-.792-.139l-3.286,2.09H16.828a.591.591,0,0,0-.164.027l-3.323.956-3.448-.943-3.35-2.13a.6.6,0,0,0-.784.128L.131,106.819a.6.6,0,0,0,.075.826l2.95,2.539L5.8,113.751a2.105,2.105,0,0,0,1.324,3.536,2.121,2.121,0,0,0-.025.322,2.107,2.107,0,0,0,2.107,2.107h.022c0,.014,0,.029,0,.043a2.107,2.107,0,0,0,2.107,2.107,2.147,2.147,0,0,0,.329-.026,2.107,2.107,0,0,0,3.586,1.283l.322-.322.135.109a2.106,2.106,0,0,0,3.571-1.547,2.1,2.1,0,0,0,2.139-2.138,2.105,2.105,0,0,0,2.139-2.14,2.106,2.106,0,0,0,1.8-3.253l1.933-4.047,2.905-2.5a.6.6,0,0,0,.084-.816ZM6.353,101.01l2.409,1.532-5.24,6.384-2.1-1.807Zm.34,13.535.727-.727c.022-.022.045-.043.069-.062a.912.912,0,0,1,.5-.2H8c.026,0,.052,0,.078,0a.909.909,0,0,1,.652.286.937.937,0,0,1-.04,1.3l-.7.7a.915.915,0,1,1-1.293-1.293Zm1.87,3.711a.914.914,0,0,1,0-1.293l1.41-1.41a.924.924,0,0,1,1.04-.18.911.911,0,0,1,.5.944.965.965,0,0,1-.272.551l-1.387,1.387a.915.915,0,0,1-1.293,0Zm2.129,2.149a.914.914,0,0,1,0-1.293L12.1,117.7a.925.925,0,0,1,1.106-.145.91.91,0,0,1,.437.924.966.966,0,0,1-.271.537l-1.387,1.387a.915.915,0,0,1-1.293,0Zm2.425,1.874a.915.915,0,0,1,0-1.293l.727-.727c.022-.022.045-.043.069-.062h0a.911.911,0,0,1,.405-.188h.01c.026,0,.051-.008.077-.011l.032,0c.021,0,.042,0,.064,0a.909.909,0,0,1,.652.286.825.825,0,0,1,.059.069.944.944,0,0,1-.1,1.231l-.7.7a.915.915,0,0,1-1.293,0Zm11.122-6.654a.915.915,0,0,1-1.293,0,.542.542,0,0,0-.041-.036l-3.834-3.874a.6.6,0,0,0-.848.839L22.1,116.47h0a.915.915,0,1,1-1.293,1.293l-2.592-2.619a.6.6,0,0,0-.847.839l2.553,2.579a.56.56,0,0,0,.042.047.915.915,0,1,1-1.294,1.293l-1.415-1.43a.6.6,0,1,0-.848.839L17.78,120.7a.526.526,0,0,0,.042.047.915.915,0,0,1-1.293,1.293,1.321,1.321,0,0,0-.135-.108c-.039-.03-.049-.05-.03-.1s.049-.091.069-.14.039-.109.057-.165a2.149,2.149,0,0,0,.077-.917,2.085,2.085,0,0,0-1.777-1.795,2.126,2.126,0,0,0-.511-1.919,2.091,2.091,0,0,0-1.5-.659h-.063a2.086,2.086,0,0,0-2.065-2.149,2.144,2.144,0,0,0-.509.054A2.087,2.087,0,0,0,8.1,112.358a2.112,2.112,0,0,0-1.439.541l-2.3-3.105,5.513-6.717,1.757.481-2.295,4.049a2.107,2.107,0,0,0,.794,2.872q.046.026.093.05l.007,0a2.119,2.119,0,0,0,.253.106,2.107,2.107,0,0,0,2.519-.953l1.491-2.632,2.663.189,7.091,7.09a.916.916,0,0,1,0,1.293Zm.247-2.733-6.652-6.652a.525.525,0,0,0-.039-.036.6.6,0,0,0-.34-.137l-3.26-.231a.606.606,0,0,0-.561.3L11.957,109.1a.915.915,0,1,1-1.591-.9l2.238-3.95.907-.261.018-.006L16.914,103H21l5.106,6.491Zm2.405-4.337-4.722-6.006,2.41-1.533,4.412,5.731Zm0,0" transform="translate(4100.814 -4866.611)"/>
    <path id="Path_7213" data-name="Path 7213" d="M300.741,34.136a.6.6,0,0,0,.422-.175l4.072-4.072a.6.6,0,0,0-.843-.843l-4.072,4.072a.6.6,0,0,0,.421,1.018Zm0,0" transform="translate(3821.125 -4800.058)" fill="#ff4612"/>
    <path id="Path_7214" data-name="Path 7214" d="M127.443,33.962a.6.6,0,1,0,.843-.843l-4.072-4.072a.6.6,0,1,0-.843.843Zm0,0" transform="translate(3987.567 -4800.059)" fill="#ff4612"/>
    <path id="Path_7215" data-name="Path 7215" d="M246.557,45.262a.6.6,0,0,0,.6-.6V41.3a.6.6,0,1,0-1.192,0v3.37A.6.6,0,0,0,246.557,45.262Zm0,0" transform="translate(3872.093 -4811.183)" fill="#ff4612"/>
    <path id="Path_7216" data-name="Path 7216" d="M246.03,1.323a.6.6,0,1,0,.913-.7.6.6,0,0,0-.913.7Zm0,0" transform="translate(3872.069 -4773.372)" fill="#ff4612"/>
  </g>
</svg>
