<svg xmlns="http://www.w3.org/2000/svg" width="80" height="80" viewBox="0 0 80 80">
  <g id="icon-brake-pads" transform="translate(15828 -10582)">
    <rect id="Rectangle_611" data-name="Rectangle 611" width="80" height="80" transform="translate(-15828 10582)" fill="#fff"/>
    <g id="replace-front-brake-pads" transform="translate(-15824 10591.823)">
      <g id="Group_4390" data-name="Group 4390" transform="translate(2 3.221)">
        <path id="Path_3051" data-name="Path 3051" d="M43.671,11.109a30.782,30.782,0,0,0-7.009.817l-.215-.778a3.593,3.593,0,0,0-1.282-1.886l.269,0h-.272a3.415,3.415,0,0,0-3.317-.54A35.572,35.572,0,0,0,8.29,39.863a3.574,3.574,0,0,0,3.559,3.812h.789A31.067,31.067,0,1,0,43.671,11.109ZM11.187,40.7a.875.875,0,0,1-.235-.658,32.894,32.894,0,0,1,21.782-28.8.839.839,0,0,1,.689.052.9.9,0,0,1,.455.565l.561,2.029v0l0,0,3.078,11.144a.923.923,0,0,1-.573,1.088A17.558,17.558,0,0,0,26.328,40.255a.875.875,0,0,1-.876.74H11.85a.9.9,0,0,1-.663-.29ZM43.67,70.883A28.5,28.5,0,0,1,15.3,43.675H25.452a3.533,3.533,0,0,0,3.523-3.1,14.876,14.876,0,0,1,9-11.965,3.622,3.622,0,0,0,2.116-4.278l-2.712-9.819a28.132,28.132,0,0,1,6.3-.72,28.547,28.547,0,0,1,0,57.094Z" transform="translate(-8.283 -8.52)"/>
        <path id="Path_3052" data-name="Path 3052" d="M45.158,30.34a13.372,13.372,0,1,0,13.3,13.372A13.352,13.352,0,0,0,45.158,30.34Zm0,24.957A11.585,11.585,0,1,1,56.683,43.712,11.568,11.568,0,0,1,45.158,55.3Z" transform="translate(-9.769 -9.896)" stroke="#000" stroke-width="0.808"/>
        <path id="Path_3053" data-name="Path 3053" d="M40.734,49.238a1.482,1.482,0,1,0,1.475,1.481A1.478,1.478,0,0,0,40.734,49.238Zm9.412,0a1.482,1.482,0,1,0,1.474,1.481,1.477,1.477,0,0,0-1.474-1.481Zm1.466-7.547a1.474,1.474,0,1,0,1.474-1.482A1.477,1.477,0,0,0,51.612,41.691ZM37.791,40.209a1.482,1.482,0,1,0,1.475,1.482,1.478,1.478,0,0,0-1.475-1.482Zm7.648-2.628A1.482,1.482,0,1,0,43.965,36.1a1.478,1.478,0,0,0,1.474,1.482Z" transform="translate(-10.051 -10.166)" fill="#ff4612"/>
        <path id="Path_3054" data-name="Path 3054" d="M50.624,44.28a4.9,4.9,0,1,0-4.9,4.926A4.919,4.919,0,0,0,50.624,44.28Zm-4.9,3.141a3.141,3.141,0,1,1,3.124-3.141A3.136,3.136,0,0,1,45.723,47.421Z" transform="translate(-10.335 -10.465)" fill="#ff4612" stroke="#ff4612" stroke-width="0.808"/>
      </g>
    </g>
  </g>
</svg>
