<svg xmlns="http://www.w3.org/2000/svg" width="80.063" height="80.403" viewBox="0 0 80.063 80.403">
  <g id="icon-timing-belt" transform="translate(15444 -10582)">
    <rect id="Rectangle_615" data-name="Rectangle 615" width="80" height="80" transform="translate(-15444 10582)" fill="#fff"/>
    <g id="Group_7368" data-name="Group 7368" transform="translate(-15444 10582.594)">
      <path id="Path_3048" data-name="Path 3048" d="M7.971,18.145a8.034,8.034,0,0,1-8-7.992,7.908,7.908,0,0,1,7.95-7.94,8.034,8.034,0,0,1,8,7.992A7.92,7.92,0,0,1,7.971,18.145ZM7.926,4.379a5.776,5.776,0,0,0-4.075,9.889,5.838,5.838,0,0,0,6.335,1.278A5.755,5.755,0,0,0,13.755,10.2,5.86,5.86,0,0,0,7.926,4.379Zm56.9,16.55a10.662,10.662,0,0,1-9.793-6.553A10.509,10.509,0,0,1,68.806.62a10.648,10.648,0,0,1,6.562,9.78A10.5,10.5,0,0,1,64.825,20.929ZM64.763,1.955a8.338,8.338,0,0,0-8.382,8.368,8.47,8.47,0,0,0,8.431,8.43,8.339,8.339,0,0,0,8.39-8.36,8.483,8.483,0,0,0-8.438-8.426V1.956Z" transform="translate(5.951 59.341) rotate(-45)"/>
      <path id="Path_3049" data-name="Path 3049" d="M60.151,6.8a3.34,3.34,0,0,1-3.328-3.323,3.289,3.289,0,0,1,3.306-3.3A3.341,3.341,0,0,1,63.456,3.5,3.3,3.3,0,0,1,60.151,6.8ZM60.136,2.34A1.143,1.143,0,0,0,59.33,4.3a1.155,1.155,0,0,0,1.253.253,1.138,1.138,0,0,0,.706-1.058A1.157,1.157,0,0,0,60.136,2.34ZM3.306,6.614A3.34,3.34,0,0,1-.01,3.284,3.288,3.288,0,0,1,3.3-.01,3.34,3.34,0,0,1,6.622,3.313,3.3,3.3,0,0,1,3.306,6.614ZM3.291,2.154A1.14,1.14,0,0,0,2.157,3.306,1.157,1.157,0,0,0,3.313,4.449,1.139,1.139,0,0,0,4.455,3.306,1.159,1.159,0,0,0,3.291,2.154Z" transform="translate(14.101 60.916) rotate(-45)" fill="#ff4612"/>
      <path id="Path_3050" data-name="Path 3050" d="M68.721,29.195l-.909,0L10.576,25.563A11.365,11.365,0,0,1-.044,14.284,11.183,11.183,0,0,1,10.5,3.074L67.715-.181A14.806,14.806,0,0,1,81.666,21.665a14.631,14.631,0,0,1-12.944,7.562v-.033Zm-.787-2.167a12.486,12.486,0,0,0,11.51-19A12.666,12.666,0,0,0,67.853,1.973L10.63,5.206a9.035,9.035,0,0,0-8.458,9.053,9.181,9.181,0,0,0,8.517,9.108l57.245,3.66Z" transform="translate(0.367 59.112) rotate(-45)"/>
    </g>
  </g>
</svg>
