<svg xmlns="http://www.w3.org/2000/svg" width="80" height="80" viewBox="0 0 80 80">
  <g id="icon-spark-plugs" transform="translate(15348 -10582)">
    <rect id="Rectangle_616" data-name="Rectangle 616" width="80" height="80" transform="translate(-15348 10582)" fill="#fff"/>
    <g id="Group_7369" data-name="Group 7369" transform="translate(-15343 10595.044)">
      <path id="Path_3065" data-name="Path 3065" d="M72.355,14.032l-5.744,5.692-.532-.528a4.526,4.526,0,0,0-6.275,0L38.743,40.069l-1.17-1.16a3.3,3.3,0,0,0-4.467,0l-3.3,3.267a3.038,3.038,0,0,0,0,4.427l1.17,1.16L19.81,58.831v.106L11.3,67.369a5.187,5.187,0,0,0,0,7.484L14.279,77.8a1.035,1.035,0,0,0,1.489,0,1.013,1.013,0,0,0,0-1.475L12.79,73.377a3.161,3.161,0,0,1,0-4.533l5.532-5.481A4.919,4.919,0,0,0,19.81,66.42l.319.317L16.938,69.9a1.013,1.013,0,0,0,0,1.476l3.724,3.689a1.035,1.035,0,0,0,1.489,0l3.19-3.162.319.317a5.428,5.428,0,0,0,7.659,0L44.487,61.151l1.169,1.158a3.1,3.1,0,0,0,4.467,0l3.3-3.267a3.037,3.037,0,0,0,0-4.427l-1.17-1.16,21.06-20.87a4.426,4.426,0,0,0,0-6.22l-.426-.42,5.637-5.587a4.426,4.426,0,0,0,0-6.22,4.3,4.3,0,0,0-6.168-.1ZM21.512,72.849l-2.234-2.213,2.447-2.424,2.234,2.214Zm10.423-2a3.358,3.358,0,0,1-4.678,0l-5.957-5.9a3.281,3.281,0,0,1,0-4.637l.426-.422,3.723,3.69a1.035,1.035,0,0,0,1.489,0,1.013,1.013,0,0,0,0-1.475l-3.723-3.69,1.7-1.687,3.723,3.69a1.035,1.035,0,0,0,1.489,0,1.013,1.013,0,0,0,0-1.476L26.4,55.246l1.7-1.687,3.723,3.689a1.035,1.035,0,0,0,1.489,0,1.013,1.013,0,0,0,0-1.475L29.6,52.084l2.766-2.74L43,59.883,31.936,70.845Zm20.1-13.071-3.3,3.267a1.035,1.035,0,0,1-1.489,0L31.3,45.233a1.013,1.013,0,0,1,0-1.475l3.3-3.269a1.035,1.035,0,0,1,1.489,0L52.039,56.3A1.012,1.012,0,0,1,52.039,57.776Zm19.89-26.562L50.869,52.084,40.233,41.544l21.06-20.871a2.466,2.466,0,0,1,3.3,0l7.34,7.273A2.218,2.218,0,0,1,71.929,31.213Zm5.212-12.437L71.5,24.363l-3.3-3.269,5.637-5.587a2.465,2.465,0,0,1,3.3,0,2.41,2.41,0,0,1,0,3.269Z" transform="translate(-9.706 -12.781)" stroke="#000" stroke-width="0.5"/>
      <path id="Path_3066" data-name="Path 3066" d="M41.348,50.015a1.01,1.01,0,0,0,0,1.475,1.035,1.035,0,0,0,1.489,0,1.01,1.01,0,0,0,0-1.475A1.031,1.031,0,0,0,41.348,50.015ZM45.6,54.336a1.013,1.013,0,0,0,0,1.475,1.035,1.035,0,0,0,1.489,0,1.013,1.013,0,0,0,0-1.475A1.031,1.031,0,0,0,45.6,54.336Z" transform="translate(-7.949 -10.712)" fill="#ff4612" stroke="#ff4612" stroke-width="1.228"/>
    </g>
  </g>
</svg>
