<svg xmlns="http://www.w3.org/2000/svg" width="80" height="80" viewBox="0 0 80 80">
  <g id="icon-alternator" transform="translate(15252 -10582)">
    <g id="Group_7414" data-name="Group 7414">
      <rect id="Rectangle_617" data-name="Rectangle 617" width="80" height="80" transform="translate(-15252 10582)" fill="#fff"/>
    </g>
    <g id="Group_7370" data-name="Group 7370" transform="translate(-15244 10595.044)">
      <path id="Path_3062" data-name="Path 3062" d="M66.856,63.2a3.626,3.626,0,1,0,3.626,3.626A3.631,3.631,0,0,0,66.856,63.2Zm0,5.63a2,2,0,1,1,2-2A2.006,2.006,0,0,1,66.856,68.835Z" transform="translate(-10.327 -10.327)" stroke="#000" stroke-width="0.5"/>
      <g id="Group_7109" data-name="Group 7109" transform="translate(0 0)">
        <path id="Path_3060" data-name="Path 3060" d="M43.007,34.621a8.271,8.271,0,1,0,8.27,8.271A8.281,8.281,0,0,0,43.007,34.621Zm0,14.918a6.647,6.647,0,1,1,6.647-6.647A6.655,6.655,0,0,1,43.007,49.539Z" transform="translate(-10.549 -10.55)" fill="#ff4612" stroke="#ff4612" stroke-width="0.758"/>
        <path id="Path_3061" data-name="Path 3061" d="M19.086,22.736A3.626,3.626,0,1,0,15.46,19.11,3.63,3.63,0,0,0,19.086,22.736Zm0-5.629a2,2,0,1,1-2,2A2.006,2.006,0,0,1,19.086,17.108Zm48.142-1.624a3.626,3.626,0,1,0,3.626,3.626,3.631,3.631,0,0,0-3.626-3.626Zm0,5.63a2,2,0,1,1,2-2,2.006,2.006,0,0,1-2,2ZM19.086,63.577A3.626,3.626,0,1,0,22.712,67.2a3.631,3.631,0,0,0-3.626-3.626Zm0,5.63a2,2,0,1,1,2-2,2.005,2.005,0,0,1-2,2Z" transform="translate(-10.699 -10.699)" stroke="#000" stroke-width="0.5"/>
        <g id="Group_7108" data-name="Group 7108">
          <path id="Path_3059" data-name="Path 3059" d="M43.144,17.177A25.966,25.966,0,1,0,69.111,43.144,26,26,0,0,0,43.144,17.177ZM64.65,54.531,60.387,52.07a19.245,19.245,0,0,0,1.747-4.846l4.851.856a24.159,24.159,0,0,1-2.333,6.452Zm-12.4,11.18-1.682-4.623a19.43,19.43,0,0,0,4.465-2.6l3.16,3.767A24.348,24.348,0,0,1,52.254,65.711ZM28.09,62.254l3.161-3.767a19.431,19.431,0,0,0,4.464,2.6l-1.683,4.623a24.348,24.348,0,0,1-5.942-3.458Zm9.149-.606a19.339,19.339,0,0,0,5.093.9v4.918a24.206,24.206,0,0,1-6.775-1.2l1.682-4.622Zm6.716.9a19.338,19.338,0,0,0,5.093-.9l1.683,4.622a24.207,24.207,0,0,1-6.776,1.2Zm-.811-1.6a17.8,17.8,0,1,1,17.8-17.8A17.822,17.822,0,0,1,43.144,60.946ZM19.3,48.079l4.85-.856A19.252,19.252,0,0,0,25.9,52.071l-4.263,2.46A24.157,24.157,0,0,1,19.3,48.079Zm-.5-4.935a24.5,24.5,0,0,1,.257-3.515l4.847.855a18.944,18.944,0,0,0-.022,5.141l-4.848.855a24.424,24.424,0,0,1-.235-3.336Zm2.91-11.529,4.263,2.46a19.282,19.282,0,0,0-1.779,4.812l-4.85-.856a24.169,24.169,0,0,1,2.365-6.418ZM34.091,20.551l1.683,4.623a19.425,19.425,0,0,0-4.429,2.553L28.185,23.96a24.341,24.341,0,0,1,5.907-3.408ZM58.1,23.959l-3.16,3.767a19.426,19.426,0,0,0-4.429-2.553L52.2,20.551A24.342,24.342,0,0,1,58.1,23.959Zm-9.115.658a19.32,19.32,0,0,0-5.034-.88V18.82A24.228,24.228,0,0,1,50.671,20Zm-6.656-.88a19.322,19.322,0,0,0-5.034.88L35.616,20a24.213,24.213,0,0,1,6.717-1.176ZM66.943,38.03l-4.85.856a19.282,19.282,0,0,0-1.779-4.812l4.263-2.461a24.168,24.168,0,0,1,2.365,6.418ZM62.4,45.623a19,19,0,0,0-.023-5.141l4.849-.855a24.045,24.045,0,0,1,.023,6.851L62.4,45.623Zm1.35-15.409-4.262,2.46a19.572,19.572,0,0,0-3.3-3.91L59.35,25a24.522,24.522,0,0,1,4.405,5.215ZM26.938,25,30.1,28.764a19.573,19.573,0,0,0-3.3,3.91l-4.263-2.46A24.522,24.522,0,0,1,26.938,25ZM22.446,55.938l4.263-2.461a19.565,19.565,0,0,0,3.3,3.963l-3.162,3.769a24.524,24.524,0,0,1-4.4-5.271ZM59.44,61.209l-3.163-3.769a19.565,19.565,0,0,0,3.3-3.963l4.262,2.461a24.525,24.525,0,0,1-4.4,5.271Z" transform="translate(-10.686 -10.686)" stroke="#000" stroke-width="0.5"/>
          <path id="Path_3063" data-name="Path 3063" d="M69.019,10.736H17.368a6.641,6.641,0,0,0-6.632,6.632V69.019a6.641,6.641,0,0,0,6.632,6.633H69.019a6.641,6.641,0,0,0,6.633-6.633V17.368A6.641,6.641,0,0,0,69.019,10.736Zm5.01,58.283a5.016,5.016,0,0,1-5.009,5.01H17.367a5.016,5.016,0,0,1-5.01-5.009V17.367a5.016,5.016,0,0,1,5.01-5.01H69.018a5.016,5.016,0,0,1,5.01,5.01V69.018Z" transform="translate(-10.736 -10.736)" stroke="#000" stroke-width="0.606"/>
        </g>
      </g>
    </g>
  </g>
</svg>
