<svg xmlns="http://www.w3.org/2000/svg" width="80" height="80" viewBox="0 0 80 80">
  <g id="icon-fuel-pump" transform="translate(15636 -10582)">
    <rect id="Rectangle_613" data-name="Rectangle 613" width="80" height="80" transform="translate(-15636 10582)" fill="#fff"/>
    <g id="Group_7366" data-name="Group 7366" transform="translate(-15612 10595.044)">
      <path id="Path_3057" data-name="Path 3057" d="M31.247,72.845H52.488c3.007,0,4.666-2.526,4.666-5.633V33.285c0-3.106-1.658-5.632-4.666-5.632h-1.8V23.746a4.7,4.7,0,0,0-3.694-4.637V11.221A3.506,3.506,0,0,0,43.5,7.708H40.228a3.506,3.506,0,0,0-3.49,3.513v7.888a4.7,4.7,0,0,0-3.694,4.637v3.907h-1.8c-3.008,0-4.667,2.526-4.667,5.632V67.212c0,3.107,1.66,5.634,4.668,5.634Zm8.982-63.51h3.277a1.9,1.9,0,0,1,1.913,1.885v7.8h-7.1v-7.8a1.9,1.9,0,0,1,1.913-1.885ZM34.621,23.746a3.055,3.055,0,0,1,3-3.1h8.492a3.054,3.054,0,0,1,3,3.1v3.907H34.622V23.746Zm-6.465,9.539c0-2.209.953-4,3.091-4H52.488c2.14,0,3.09,1.8,3.09,4V67.212c0,2.209-.952,4.005-3.09,4.005H31.247c-2.14,0-3.091-1.8-3.091-4.005Z" transform="translate(-26.578 -7.708)" stroke="#000" stroke-width="0.758"/>
      <path id="Path_3058" data-name="Path 3058" d="M42.888,15.8a.8.8,0,0,0,.788-.815V12.953a.788.788,0,1,0-1.576,0v2.035a.8.8,0,0,0,.789.814Z" transform="translate(-27.598 -7.999)" fill="#ff4612"/>
    </g>
  </g>
</svg>
