<svg xmlns="http://www.w3.org/2000/svg" width="80" height="80" viewBox="0 0 80 80">
  <g id="icon-oil-change" transform="translate(15732 -10582)">
    <rect id="Rectangle_612" data-name="Rectangle 612" width="80" height="80" transform="translate(-15732 10582)" fill="#fff"/>
    <g id="Group_7365" data-name="Group 7365" transform="translate(-15732 10601)">
      <path id="Path_3055" data-name="Path 3055" d="M79.21,24.667H69.874a5.117,5.117,0,0,0-.891.082,1.3,1.3,0,0,0-.441-.082H57.874V23.314a1.343,1.343,0,0,0-1.333-1.353h-4.1a9.314,9.314,0,0,0-18.474,0h-4.1a1.344,1.344,0,0,0-1.334,1.353v1.353H11.2a4.058,4.058,0,0,0,0,8.116h17.34v1.489A6.749,6.749,0,0,0,23.209,40.9V66.606a6.72,6.72,0,0,0,6.662,6.762H56.546a6.72,6.72,0,0,0,6.662-6.762V40.9a6.749,6.749,0,0,0-5.333-6.626V32.784h6.667V44.958a5.378,5.378,0,0,0,5.332,5.412H79.21a5.377,5.377,0,0,0,5.332-5.411V30.078a5.377,5.377,0,0,0-5.332-5.411Zm-36-8.117a6.7,6.7,0,0,1,6.533,5.411H36.676a6.7,6.7,0,0,1,6.533-5.411Zm-12,14.881V24.667h24v9.469h-24v-2.7ZM11.2,30.078a1.324,1.324,0,0,1-1.326-1.352A1.341,1.341,0,0,1,11.2,27.373h17.34v2.705H11.2ZM60.542,40.9V66.606a4.032,4.032,0,0,1-4,4.056H29.871a4.032,4.032,0,0,1-4-4.056V40.9a4.031,4.031,0,0,1,4-4.055H56.546a4.031,4.031,0,0,1,4,4.055Zm4-10.821H57.875V27.373h7.388a5.434,5.434,0,0,0-.721,2.705ZM81.875,44.959a2.69,2.69,0,0,1-2.665,2.705H69.874a2.689,2.689,0,0,1-2.665-2.706V30.078a2.689,2.689,0,0,1,2.665-2.705H79.21a2.688,2.688,0,0,1,2.665,2.705Z" transform="translate(-4.542 -13.844)"/>
      <path id="Path_3056" data-name="Path 3056" d="M12.365,36.913a1.323,1.323,0,0,0-2.194,0C9.24,38.279,4.6,45.259,4.6,48.5a6.724,6.724,0,0,0,6.667,6.765A6.724,6.724,0,0,0,17.934,48.5C17.934,45.259,13.295,38.279,12.365,36.913Zm-1.1,15.65a4.034,4.034,0,0,1-4-4.058c0-1.477,2.08-5.333,4-8.377,1.919,3.044,4,6.9,4,8.377a4.034,4.034,0,0,1-4,4.058Z" transform="translate(-4.601 -13.331)" fill="#ff4612"/>
    </g>
  </g>
</svg>
