<svg xmlns="http://www.w3.org/2000/svg" width="80" height="80" viewBox="0 0 80 80">
  <g id="icon-natural-disasters" transform="translate(15540 -10970)">
    <rect id="Rectangle_641" data-name="Rectangle 641" width="80" height="80" transform="translate(-15540 10970)" fill="#fff"/>
    <g id="Group_7385" data-name="Group 7385" transform="translate(-13205.97 12074.482)">
      <path id="Path_7325" data-name="Path 7325" d="M-2263.936-1040.4a9.28,9.28,0,0,1-15.023,0,9.233,9.233,0,0,1-7.49,3.828,9.128,9.128,0,0,1-7.528-3.823,9.164,9.164,0,0,1-7.517,3.822,9.174,9.174,0,0,1-7.491-3.827,9.185,9.185,0,0,1-7.507,3.829,9.188,9.188,0,0,1-7.521-3.819c-.128.156-.242.3-.363.442a9.2,9.2,0,0,1-7.019,3.381c-.606.014-.967-.4-.809-.9a.738.738,0,0,1,.8-.517,7.92,7.92,0,0,0,2.863-.6.6.6,0,0,0,.452-.661c-.017-3.154-.063-6.309,0-9.461a8.919,8.919,0,0,1,5.533-8.432,7.782,7.782,0,0,1,3.34-.705h.466c.147-.825.294-1.635.435-2.445.442-2.53.849-5.066,1.333-7.588a7.14,7.14,0,0,1,5.7-5.668,14.557,14.557,0,0,1,2.557-.113q15.688-.01,31.376,0a6.872,6.872,0,0,1,5.776,3.121,9.911,9.911,0,0,1,1.473,4.385c.472,2.748.961,5.493,1.447,8.266.519.041,1.04.058,1.554.126a8.98,8.98,0,0,1,7.7,7.913c.143,1.634.082,3.288.092,4.933q.018,3.009-.006,6.017c0,.289.082.44.357.488.8.14,1.594.31,2.4.411.625.078.979.527.733,1.038a.734.734,0,0,1-.754.4,9.11,9.11,0,0,1-3.193-.628A9.428,9.428,0,0,1-2263.936-1040.4Zm-62.727.72a9.317,9.317,0,0,0,1.923-2.257c.452-.753,1.012-.735,1.468.024a7.507,7.507,0,0,0,6.195,3.9,7.589,7.589,0,0,0,7.37-3.939c.423-.695,1.021-.7,1.432,0a7.843,7.843,0,0,0,3.436,3.2c.344.163.7.291,1.126.462,0-.643.031-1.207-.006-1.766a2.3,2.3,0,0,1,2.416-2.433c5.09.046,10.18.02,15.27.017a2.17,2.17,0,0,1,2.361,2.376c0,.5,0,1.009,0,1.572.195-.074.323-.113.444-.169a8.092,8.092,0,0,0,3.532-3.217c.474-.778,1.033-.773,1.49.016a7.8,7.8,0,0,0,13.544-.032c.434-.746.981-.707,1.488,0a27.131,27.131,0,0,0,1.767,2.125,4.074,4.074,0,0,0,.67.495c.016-.144.025-.185.025-.226,0-3.112.056-6.225-.015-9.336a7.488,7.488,0,0,0-3.719-6.466,7.871,7.871,0,0,0-4.606-1.095c-.6.021-.827-.188-.928-.769q-.8-4.61-1.6-9.221a7.656,7.656,0,0,0-.784-2.729,5.8,5.8,0,0,0-5.337-3.082c-10.4.04-20.8.017-31.2.017-.441,0-.883,0-1.325,0a5.575,5.575,0,0,0-5.235,4.26c-.551,2.462-.909,4.966-1.351,7.453-.2,1.128-.394,2.258-.6,3.385a.733.733,0,0,1-.824.693c-.276,0-.553,0-.83,0a7.677,7.677,0,0,0-7.6,7.671q0,4.025,0,8.05C-2326.662-1040.406-2326.663-1040.106-2326.663-1039.683Zm34.06-1.382a1.35,1.35,0,0,0,.1.187,7.579,7.579,0,0,0,7.135,2.791.421.421,0,0,0,.263-.3c.027-.565.015-1.132.012-1.7,0-.712-.261-.974-.971-.974q-3.086,0-6.174,0Zm-2.751,0h-5.976a2.194,2.194,0,0,0-.249,0,.7.7,0,0,0-.695.65c-.041.781-.012,1.565-.012,2.336C-2300.108-1037.561-2296.608-1039.062-2295.354-1041.063Z" transform="translate(-0.005)" stroke="#000" stroke-width="1"/>
      <path id="Path_7326" data-name="Path 7326" d="M-2263.922-700.109a9.336,9.336,0,0,1-15.052.005,9.165,9.165,0,0,1-7.509,3.814,9.112,9.112,0,0,1-7.5-3.832,9.172,9.172,0,0,1-7.5,3.832,9.1,9.1,0,0,1-7.5-3.813,9.321,9.321,0,0,1-15.038,0c-.234.275-.455.555-.7.815a9.231,9.231,0,0,1-6.647,3.013.759.759,0,0,1-.876-.682c-.022-.458.3-.746.884-.764a7.643,7.643,0,0,0,5.872-2.875,10.06,10.06,0,0,0,.772-1.127.754.754,0,0,1,1.4.009,7.579,7.579,0,0,0,7.313,3.967,7.549,7.549,0,0,0,6.126-3.658,2.6,2.6,0,0,0,.147-.25.812.812,0,0,1,.748-.561c.388.008.56.285.734.584a7.666,7.666,0,0,0,3.379,3.142,7.8,7.8,0,0,0,10.1-3.076c.036-.059.068-.12.1-.18a.736.736,0,0,1,1.382.02,7.584,7.584,0,0,0,5.569,3.9,7.762,7.762,0,0,0,7.906-3.649c.058-.094.109-.192.169-.285a.73.73,0,0,1,1.362.012,7.592,7.592,0,0,0,7.541,3.985,7.572,7.572,0,0,0,5.893-3.618c.046-.069.089-.14.13-.212.5-.854,1.022-.849,1.546,0a7.685,7.685,0,0,0,6.512,3.874,1.289,1.289,0,0,1,.655.192.626.626,0,0,1,.2.782.706.706,0,0,1-.8.458,15.118,15.118,0,0,1-2.008-.269A9.123,9.123,0,0,1-2263.922-700.109Z" transform="translate(0 -330.294)" fill="#ff4612" stroke="#ff4612" stroke-width="1"/>
      <path id="Path_7327" data-name="Path 7327" d="M-2157.907-1035.708q-10.249,0-20.5,0a2.466,2.466,0,0,1-.618-.041.706.706,0,0,1-.458-.866c.339-1.973.67-3.947,1.033-5.915a7.76,7.76,0,0,1,.522-1.989,4.044,4.044,0,0,1,3.873-2.483c10.774.01,21.549.029,32.323-.016a4.415,4.415,0,0,1,4.3,3.629c.406,2.2.773,4.4,1.153,6.608.132.77-.135,1.075-.929,1.075Zm20.088-1.433a1.482,1.482,0,0,0,0-.211c-.349-1.984-.657-3.976-1.062-5.949a2.76,2.76,0,0,0-2.894-2.274c-10.718,0-21.436.019-32.153-.022a3.041,3.041,0,0,0-2.982,2.465q-.428,2.426-.843,4.855c-.064.371-.12.744-.182,1.136Z" transform="translate(-135.83 -23.694)" stroke="#000" stroke-width="1"/>
      <path id="Path_7328" data-name="Path 7328" d="M-2259.943-851.927q-2.986,0-5.973,0a2.225,2.225,0,0,1-2.347-2.295q-.026-1.1,0-2.2a2.232,2.232,0,0,1,2.316-2.3q6.056-.014,12.111,0a2.245,2.245,0,0,1,2.288,2.286q.007,1.12,0,2.24a2.226,2.226,0,0,1-2.253,2.266C-2255.85-851.921-2257.9-851.927-2259.943-851.927Zm.027-1.42v0q2.986,0,5.972,0a.872.872,0,0,0,.978-.968c.008-.622,0-1.244,0-1.866,0-.828-.29-1.115-1.126-1.116h-6.1c-1.866,0-3.733,0-5.6,0-.754,0-1.05.294-1.051,1.011q0,.954,0,1.908c0,.726.3,1.027,1.032,1.028Z" transform="translate(-56.884 -191.131)" stroke="#000" stroke-width="1"/>
      <path id="Path_7329" data-name="Path 7329" d="M-1861.532-851.942q-3.007,0-6.015,0a2.262,2.262,0,0,1-2.374-2.368c-.005-.677,0-1.355,0-2.033a2.282,2.282,0,0,1,2.4-2.395q5.745-.006,11.49,0c.207,0,.415-.008.622,0a2.142,2.142,0,0,1,2.16,1.909,15.06,15.06,0,0,1-.011,3.054,2.111,2.111,0,0,1-2.174,1.831C-1857.466-851.937-1859.5-851.942-1861.532-851.942Zm-.016-1.418q2.966,0,5.932,0c.695,0,1-.322,1.005-1.021,0-.636,0-1.272,0-1.908,0-.694-.31-1.015-1.011-1.016q-5.932-.006-11.864,0a.876.876,0,0,0-1.008.982c-.01.649,0,1.3,0,1.949.008.722.317,1.018,1.051,1.018Z" transform="translate(-411.111 -191.115)" stroke="#000" stroke-width="1"/>
    </g>
  </g>
</svg>
