<svg xmlns="http://www.w3.org/2000/svg" width="80.5" height="80.075" viewBox="0 0 80.5 80.075">
  <g id="icon-accidents" transform="translate(15828 -10970)">
    <rect id="Rectangle_638" data-name="Rectangle 638" width="80" height="80" transform="translate(-15828 10970)" fill="#fff"/>
    <g id="_001-car-accident-1" data-name="001-car-accident-1" transform="translate(-15826.639 10979.23)">
      <path id="Path_7263" data-name="Path 7263" d="M84.048,365.625h-.512a1.536,1.536,0,1,0,0,3.072h.512a1.536,1.536,0,1,0,0-3.072Zm0,0" transform="translate(-69.406 -309.468)" stroke="#fff" stroke-width="2"/>
      <path id="Path_7264" data-name="Path 7264" d="M78.454,277.568l-5.836-10.8a1.536,1.536,0,0,0-1.351-.806H51.556a1.537,1.537,0,0,0-1.319.748l-6.3,10.554-4.614,3.594L34.7,277.263l-6.3-10.554a1.536,1.536,0,0,0-1.318-.748H7.372a1.536,1.536,0,0,0-1.351.806l-5.836,10.8A1.536,1.536,0,0,0,0,278.3V289.62a1.536,1.536,0,0,0,1.536,1.536h.818a5.835,5.835,0,0,0,11.26,0h10.2a5.835,5.835,0,0,0,11.26,0h2.866a2.9,2.9,0,0,0,1.385-.35,2.9,2.9,0,0,0,1.385.35H43.57a5.836,5.836,0,0,0,11.26,0H65.025a5.836,5.836,0,0,0,11.26,0H77.1a1.536,1.536,0,0,0,1.536-1.536V278.3a1.536,1.536,0,0,0-.185-.73Zm-7.8,6.216a5.845,5.845,0,0,0-5.629,4.3h-4v-8.25h14.54v6.64a5.836,5.836,0,0,0-4.912-2.69Zm3.872-7.021h-13.5v-7.729h9.323Zm-22.1-7.729h5.528v7.729H47.811ZM37.783,283.823v4.26H35.068a5.835,5.835,0,0,0-11.26,0H20.684v-8.25H33.006l4.565,3.556A.547.547,0,0,1,37.783,283.823Zm-29.8-.04a5.836,5.836,0,0,0-4.912,2.69v-6.64h14.54v8.25h-4a5.846,5.846,0,0,0-5.63-4.3Zm22.844-7.021H20.684v-7.729h5.528ZM8.288,269.033h9.323v7.729H4.111Zm-.3,23.352a2.765,2.765,0,1,1,2.765-2.765,2.768,2.768,0,0,1-2.765,2.765Zm21.455,0A2.765,2.765,0,1,1,32.2,289.62,2.768,2.768,0,0,1,29.438,292.384Zm11.417-8.561a.547.547,0,0,1,.212-.434l4.565-3.556H57.955v8.25H54.83a5.835,5.835,0,0,0-11.26,0H40.855Zm8.345,8.561a2.765,2.765,0,1,1,2.765-2.765A2.768,2.768,0,0,1,49.2,292.384Zm21.455,0a2.765,2.765,0,1,1,2.765-2.765A2.768,2.768,0,0,1,70.655,292.384Zm0,0" transform="translate(0 -225.111)" stroke="#fff" stroke-width="1"/>
      <path id="Path_7265" data-name="Path 7265" d="M408.716,365.625H408.2a1.536,1.536,0,0,0,0,3.072h.512a1.536,1.536,0,1,0,0-3.072Zm0,0" transform="translate(-344.207 -309.468)" stroke="#fff" stroke-width="2"/>
      <path id="Path_7266" data-name="Path 7266" d="M87.969,10.383a3.753,3.753,0,0,0-.188,1.174,3.8,3.8,0,0,0,1.93,3.291A6.1,6.1,0,0,0,101.7,13.812,5.184,5.184,0,0,0,99.706,3.678,5.186,5.186,0,0,0,91.872.868,5.13,5.13,0,0,0,90.52.688a5.183,5.183,0,0,0-2.551,9.7ZM90.52,3.76a2.085,2.085,0,0,1,.946.227,1.536,1.536,0,0,0,1.781-.29,2.111,2.111,0,0,1,3.611,1.488,2.121,2.121,0,0,1-.028.317,1.536,1.536,0,0,0,2.326,1.535,2.111,2.111,0,1,1,1.123,3.908h-.016l-.094-.005a1.535,1.535,0,0,0-1.577,1.821,3.066,3.066,0,0,1,.056.571,3.027,3.027,0,0,1-6.04.277,1.536,1.536,0,0,0-1.2-1.362.7.7,0,0,1-.134-1.331,1.536,1.536,0,0,0-.629-2.937h-.058l-.091,0A2.112,2.112,0,0,1,90.52,3.76Zm0,0" transform="translate(-72.229)" fill="#ff4612" stroke="#fff" stroke-width="2"/>
      <path id="Path_7267" data-name="Path 7267" d="M247.536,207.873a1.536,1.536,0,0,0,1.536-1.536v-8.3a1.536,1.536,0,1,0-3.072,0v8.3A1.536,1.536,0,0,0,247.536,207.873Zm0,0" transform="translate(-208.217 -166.319)" fill="#ff4612" stroke="#fff" stroke-width="2"/>
      <path id="Path_7268" data-name="Path 7268" d="M211.524,264.54l1.419,1.419a1.536,1.536,0,1,0,2.172-2.172l-1.419-1.419a1.536,1.536,0,0,0-2.172,2.172Zm0,0" transform="translate(-178.655 -221.689)" fill="#ff4612" stroke="#fff" stroke-width="2"/>
      <path id="Path_7269" data-name="Path 7269" d="M273.556,262.368l-1.419,1.42a1.536,1.536,0,1,0,2.172,2.172l1.419-1.42a1.536,1.536,0,0,0-2.172-2.172Zm0,0" transform="translate(-229.958 -221.69)" fill="#ff4612" stroke="#fff" stroke-width="2"/>
      <path id="Path_7270" data-name="Path 7270" d="M268.088,62.338a6.464,6.464,0,0,0,11.936,2.992,5.719,5.719,0,0,0,5.2-9.685,5.475,5.475,0,0,0-6.658-7.057,5.477,5.477,0,0,0-8.349,3.035,5.475,5.475,0,0,0-2.126,10.715Zm1.438-7.687a2.39,2.39,0,0,1,1.258.361,1.536,1.536,0,0,0,2.327-1.535,2.434,2.434,0,0,1-.032-.361,2.4,2.4,0,0,1,4.108-1.692,1.536,1.536,0,0,0,1.781.29,2.378,2.378,0,0,1,1.076-.258,2.4,2.4,0,0,1,1.979,3.766,1.535,1.535,0,0,0,.505,2.209,2.649,2.649,0,0,1-1.3,4.955,2.614,2.614,0,0,1-1.262-.319,1.536,1.536,0,0,0-2.2.881,3.389,3.389,0,0,1-6.556-1.675,1.536,1.536,0,0,0-1.509-1.823h-.067l-.1.006h-.02a2.4,2.4,0,0,1,.016-4.806Zm0,0" transform="translate(-223.495 -40.323)" fill="#ff4612" stroke="#fff" stroke-width="2"/>
      <path id="Path_7271" data-name="Path 7271" d="M247.536,154.572a1.536,1.536,0,1,0-1.086-.45A1.548,1.548,0,0,0,247.536,154.572Zm0,0" transform="translate(-208.217 -128.231)" fill="#ff4612" stroke="#fff" stroke-width="2"/>
    </g>
  </g>
</svg>
