<svg xmlns="http://www.w3.org/2000/svg" width="80" height="80" viewBox="0 0 80 80">
  <g id="icon-theft" transform="translate(15732 -10970)">
    <rect id="Rectangle_639" data-name="Rectangle 639" width="80" height="80" transform="translate(-15732 10970)" fill="#fff"/>
    <g id="Group_7383" data-name="Group 7383" transform="translate(-14614 11831.486)">
      <path id="Path_7320" data-name="Path 7320" d="M-1117-815.856c.027-.379.079-.757.076-1.135a3.5,3.5,0,0,1,2.568-3.369,5.16,5.16,0,0,1,.852-.169.364.364,0,0,0,.377-.4c.041-.671.091-1.342.17-2.009a1.375,1.375,0,0,1,1.135-1.341c.358-.074.378-.369.341-.658-.088-.679-.224-1.354-.276-2.036-.1-1.327-.16-2.658-.235-3.987-.006-.1,0-.205,0-.334-.16-.008-.288-.024-.416-.019a2.419,2.419,0,0,1-2.418-2.72,2.321,2.321,0,0,1,2.521-2.284c.731-.007.707-.014.925-.714.359-1.154.715-2.311,1.147-3.438a3.842,3.842,0,0,1,1.48-1.817,3.57,3.57,0,0,1,3.587-.162,5.859,5.859,0,0,1,.947.491.531.531,0,0,0,.7-.045,3.63,3.63,0,0,1,3.941-.485,4.494,4.494,0,0,1,2.254,2.693c.36,1.029.647,2.085.936,3.138.076.275.189.374.46.341a3.17,3.17,0,0,1,.436,0,2.237,2.237,0,0,1,2.359,1.817,2.6,2.6,0,0,1-1.045,2.811,4.1,4.1,0,0,1-1.148.367,2.968,2.968,0,0,1-.627.007c0,.725.018,1.409,0,2.091a21.053,21.053,0,0,1-.548,4.386c-.031.125.111.3.2.441.035.058.131.085.2.111a1.935,1.935,0,0,1,1.332,1.987c.012.488,0,.978.034,1.465.006.1.132.283.21.287a4.1,4.1,0,0,1,2.355.929.489.489,0,0,0,.719-.045,10.073,10.073,0,0,1,3.811-2.274c1.462-.392,2.934-.767,4.423-1.036a59.935,59.935,0,0,1,11.64-.877,49.6,49.6,0,0,1,11.808,1.4,21.389,21.389,0,0,1,12.119,8.322c.57.775,1.106,1.577,1.624,2.389a3.1,3.1,0,0,0,1.587,1.29,9.687,9.687,0,0,1,3.951,2.893,5.19,5.19,0,0,1,1.179,3.518c0,.5.051,1,.079,1.5v5.785c-.052.826-.138,1.652-.149,2.479a5.051,5.051,0,0,1-4.062,4.643c-.946.161-1.918.174-2.879.243-.567.041-1.136.042-1.7.1a.671.671,0,0,0-.475.253c-.352.671-.59,1.41-.994,2.045a8.644,8.644,0,0,1-11.879,2.892,9.141,9.141,0,0,1-3.815-4.8.439.439,0,0,0-.448-.345c-1.136-.028-2.272-.1-3.407-.1q-9.719-.027-19.438-.03c-.727,0-.727,0-.979.684a8.554,8.554,0,0,1-5.885,5.509c-.614.182-1.261.255-1.893.378h-1.032c-.22-.035-.441-.065-.66-.1a8.94,8.94,0,0,1-6.986-5.77.942.942,0,0,0-.978-.688c-.924-.024-1.848-.05-2.771-.1a4.4,4.4,0,0,1-3.456-1.647,12.039,12.039,0,0,1-.929-1.417,1.6,1.6,0,0,1-.195-.745c-.028-2.8-.056-5.6-.04-8.4a10.764,10.764,0,0,1,.258-2.39c.146-.623.011-.65-.4-.845a4.483,4.483,0,0,1-2.222-2.268,6.077,6.077,0,0,0-.352-.6Zm51.436,24.111a7.98,7.98,0,0,1,.006-1.049,8.88,8.88,0,0,1,7.876-7.5,8.541,8.541,0,0,1,8.134,3.936,9.528,9.528,0,0,1,1.414,4.15.453.453,0,0,0,.521.455c1.07-.007,2.141.013,3.21-.016a2.936,2.936,0,0,0,2.705-2.49c-.01-3.445,0-6.891.009-10.336a2.472,2.472,0,0,0-.626-1.624,7.8,7.8,0,0,0-3.8-2.391,2.534,2.534,0,0,1-1.426-1.152c-.8-1.237-1.6-2.485-2.516-3.641a18.691,18.691,0,0,0-4.981-4.6,26.282,26.282,0,0,0-10.789-3.225c-1.651-.187-3.323-.188-4.986-.269a55.5,55.5,0,0,0-14.518,1.281,9.329,9.329,0,0,0-4.472,2.136c-1.22,1.112-2.492,2.169-3.7,3.291-2.045,1.9-4.057,3.826-6.094,5.729a1.461,1.461,0,0,1-.642.335c-2,.462-4.021.851-6.008,1.368a10.838,10.838,0,0,0-4.077,1.949,3.786,3.786,0,0,0-1.667,2.927c-.036,2.824-.025,5.65-.009,8.474a2.116,2.116,0,0,0,1.6,2.068,10.727,10.727,0,0,0,3.547.162.512.512,0,0,0,.489-.532,5.88,5.88,0,0,1,.043-.71,8.7,8.7,0,0,1,10.022-7.187c3.747.64,6.054,3.009,7.145,6.589a12.711,12.711,0,0,1,.285,1.874Zm-45.44-26.73a16.873,16.873,0,0,1-1.718-.011,2.113,2.113,0,0,0-2.063.894.818.818,0,0,0-.181.448c.028,2.772.08,5.543.1,8.315a2.091,2.091,0,0,0,1.1,1.922c.2.12.426.21.628.335a.469.469,0,0,0,.625-.057,14.85,14.85,0,0,1,4.058-2.421,44.656,44.656,0,0,1,7.191-1.823,1.57,1.57,0,0,0,.713-.358c.634-.578,1.232-1.2,1.851-1.79,1.6-1.538,3.206-3.07,4.8-4.613a2.277,2.277,0,0,0,.3-.484,1.741,1.741,0,0,0-.535-.273c-.523-.059-1.052-.069-1.579-.086-.351-.011-.7,0-1.054,0a33.918,33.918,0,0,0-.111-3.826c-1.435.49-2.792.951-4.147,1.416a9.093,9.093,0,0,1-4.922.246,28.994,28.994,0,0,1-3.009-.959c-.733-.243-1.463-.5-2.226-.761C-1111.121-821.056-1111.064-819.795-1111-818.476Zm13.3,33.256a7.938,7.938,0,0,0,1.613-.119,6.444,6.444,0,0,0,4.824-6.9,6.579,6.579,0,0,0-7.644-5.719,6.568,6.568,0,0,0-5.145,7.449C-1103.619-787.957-1101.095-784.942-1097.706-785.22Zm40.8,0c3.7.25,6.648-3.313,6.506-6.538a6.53,6.53,0,0,0-6.529-6.3,6.581,6.581,0,0,0-6.428,6.509A6.4,6.4,0,0,0-1056.9-785.221Zm-55.791-48.251h17.529c.068-.663,0-.738-.637-.767-.528-.024-1.055-.058-1.583-.082a.635.635,0,0,1-.683-.547c-.384-1.462-.817-2.911-1.24-4.362a2.476,2.476,0,0,0-1.093-1.4,1.07,1.07,0,0,0-1.23-.067c-.566.378-1.094.815-1.626,1.241-.264.211-.5.453-.765.694-.174-.207-.355-.433-.547-.648a4.133,4.133,0,0,0-1.955-1.355,1.19,1.19,0,0,0-1.118.21,2.677,2.677,0,0,0-.943,1.338c-.387,1.27-.746,2.548-1.117,3.823-.1.351-.1.834-.339,1.016s-.7.073-1.072.077c-.549.007-1.1,0-1.668,0C-1112.748-833.994-1112.722-833.748-1112.693-833.473Zm3.416,8.406c.168.743.392,1.352,1.209,1.576.938.257,1.846.622,2.781.892a4.087,4.087,0,0,0,1.286.159,12.531,12.531,0,0,0,4.684-1.318c.459-.211.558-.659.658-1.2C-1102.2-825.154-1105.708-825-1109.277-825.067Zm-.756-4.656c.139,1.075.276,2.115.406,3.157.032.257.152.338.415.338,1.308,0,2.617.036,3.926.034,2.207,0,4.414-.029,6.621-.043.212,0,.394-.017.418-.3.091-1.058.191-2.114.29-3.189Zm.112-1.279a3.762,3.762,0,0,0,.548.085q4.913.035,9.827.056a9.431,9.431,0,0,0,1.186-.073c.115-.014.215-.148.322-.227-.1-.077-.2-.2-.315-.221a5.589,5.589,0,0,0-.906-.076c-1.519-.01-3.038-.021-4.557-.01-1.9.014-3.8.05-5.705.074C-1109.754-831.392-1109.96-831.379-1109.922-831Z" transform="translate(0 0)" stroke="#000" stroke-width="0.1"/>
      <path id="Path_7321" data-name="Path 7321" d="M-857.329-538.242c.286-.269.569-.54.857-.806,2.747-2.536,5.508-5.056,8.236-7.612a7.664,7.664,0,0,1,3.759-1.719,49.924,49.924,0,0,1,11.065-.966.634.634,0,0,1,.128.031v11.172h-24Zm21.988-1.907v-7.133a1.6,1.6,0,0,0-.178-.018,46.162,46.162,0,0,0-8.569.9,4.7,4.7,0,0,0-2.333.9q-2.766,2.492-5.518,5c-.089.081-.161.18-.308.347Z" transform="translate(-239.066 -270.231)" fill="#ff4612" stroke="#ff4612" stroke-width="0.1"/>
      <path id="Path_7322" data-name="Path 7322" d="M-528.053-536.35v-11.074c.409,0,.812-.007,1.215,0a26.5,26.5,0,0,1,8.205,1.342,18.216,18.216,0,0,1,7.968,5.109,14.984,14.984,0,0,1,2.579,4.623Zm2.049-2.059h14.629c-.522-1.348-3.214-3.669-5.633-4.781a24.858,24.858,0,0,0-9-2.218Z" transform="translate(-542.214 -271.997)" fill="#ff4612" stroke="#ff4612" stroke-width="0.1"/>
      <path id="Path_7323" data-name="Path 7323" d="M-1016.1-672.1a9.037,9.037,0,0,1-1.117-.19,1.542,1.542,0,0,1-1.042-1.881,1.516,1.516,0,0,1,1.457-1.2c.593-.01,1.187-.009,1.78.008a1.338,1.338,0,0,1,1.353.7,1.812,1.812,0,0,1-.108,1.84,1.3,1.3,0,0,1-.969.612C-1015.153-672.165-1015.562-672.147-1016.1-672.1Zm.213-2.217a5.115,5.115,0,0,0-.893.074.618.618,0,0,0-.371.358c-.073.227-.038.546.264.563a16.4,16.4,0,0,0,2-.017.391.391,0,0,0,.324-.505c-.042-.246-.155-.413-.435-.422S-1015.584-674.3-1015.888-674.322Z" transform="translate(-90.882 -154.194)"/>
      <path id="Path_7324" data-name="Path 7324" d="M-945.064-675.931c.573.043,1,.041,1.412.112a1.376,1.376,0,0,1,1.215,1.572,1.444,1.444,0,0,1-1.232,1.511,12.684,12.684,0,0,1-2.283.008,1.327,1.327,0,0,1-1.258-1.173,1.6,1.6,0,0,1,.82-1.841A5.392,5.392,0,0,1-945.064-675.931Zm.259,1.1c-.275.017-.592.034-.908.058-.238.018-.4.115-.408.386-.007.249-.008.541.3.557a14.462,14.462,0,0,0,1.958-.024c.131-.011.318-.305.337-.484a.4.4,0,0,0-.442-.444C-944.235-674.784-944.5-674.808-944.8-674.827Z" transform="translate(-156.29 -153.689)"/>
    </g>
  </g>
</svg>
