<svg xmlns="http://www.w3.org/2000/svg" width="80" height="80" viewBox="0 0 80 80">
  <g id="icon-third-party-losses" transform="translate(15348 -10970)">
    <rect id="Rectangle_643" data-name="Rectangle 643" width="80" height="80" transform="translate(-15348 10970)" fill="#fff"/>
    <g id="Group_7386" data-name="Group 7386" transform="translate(-16686.533 8224.104)">
      <g id="Group_6365" data-name="Group 6365" transform="translate(1340 2802.002)">
        <path id="Path_7273" data-name="Path 7273" d="M38.764,52.957H1.214A1.21,1.21,0,0,1,0,51.746V37.208A1.21,1.21,0,0,1,1.214,36h37.55a1.212,1.212,0,0,1,0,2.423H2.425V50.534H38.764a1.212,1.212,0,0,1,0,2.423Z" transform="translate(-0.002 -35.996)"/>
      </g>
      <g id="Group_6366" data-name="Group 6366" transform="translate(1367.858 2816.54)">
        <path id="Path_7274" data-name="Path 7274" d="M33.9,55.27H24.208A1.21,1.21,0,0,1,23,54.058V49.208A1.21,1.21,0,0,1,24.208,48H33.9a1.21,1.21,0,0,1,1.212,1.212v4.851A1.21,1.21,0,0,1,33.9,55.27Zm-8.481-2.423h7.269V50.419H25.419Z" transform="translate(-22.996 -47.996)"/>
      </g>
      <g id="Group_6367" data-name="Group 6367" transform="translate(1340.002 2816.54)">
        <path id="Path_7275" data-name="Path 7275" d="M9.694,55.27H1.216A1.21,1.21,0,0,1,0,54.058V49.208A1.21,1.21,0,0,1,1.216,48H9.694a1.21,1.21,0,0,1,1.212,1.212v4.851A1.21,1.21,0,0,1,9.694,55.27ZM2.427,52.847H8.482V50.419H2.427Z" transform="translate(-0.004 -47.996)"/>
      </g>
      <g id="Group_6368" data-name="Group 6368" transform="translate(1340 2797.16)">
        <path id="Path_7276" data-name="Path 7276" d="M1.214,39.264A1.212,1.212,0,0,1,.357,37.2L5.2,32.355a1.211,1.211,0,0,1,1.713,1.713L2.07,38.909a1.208,1.208,0,0,1-.857.355Z" transform="translate(-0.002 -32)"/>
      </g>
      <g id="Group_6369" data-name="Group 6369" transform="translate(1372.708 2797.159)">
        <path id="Path_7277" data-name="Path 7277" d="M33.055,39.263a1.208,1.208,0,0,1-.857-.355l-4.845-4.84a1.212,1.212,0,0,1,1.713-1.714L33.912,37.2a1.212,1.212,0,0,1-.857,2.068Z" transform="translate(-26.999 -31.999)"/>
      </g>
      <g id="Group_6370" data-name="Group 6370" transform="translate(1369.073 2787.47)">
        <path id="Path_7278" data-name="Path 7278" d="M28.845,30.06a1.211,1.211,0,0,1-1.212-1.212,2.425,2.425,0,0,0-2.423-2.423,1.212,1.212,0,1,1,0-2.423,4.851,4.851,0,0,1,4.846,4.846A1.211,1.211,0,0,1,28.845,30.06Z" transform="translate(-23.999 -24.002)"/>
      </g>
      <g id="Group_6371" data-name="Group 6371" transform="translate(1344.843 2787.468)">
        <path id="Path_7279" data-name="Path 7279" d="M5.211,30.058A1.211,1.211,0,0,1,4,28.846,4.851,4.851,0,0,1,8.845,24a1.212,1.212,0,1,1,0,2.423,2.425,2.425,0,0,0-2.423,2.423,1.211,1.211,0,0,1-1.212,1.212Z" transform="translate(-3.999 -24)"/>
      </g>
      <g id="Group_6372" data-name="Group 6372" transform="translate(1372.708 2791.105)">
        <path id="Path_7280" data-name="Path 7280" d="M28.211,35.48A1.21,1.21,0,0,1,27,34.269V28.214a1.212,1.212,0,1,1,2.423,0v6.055A1.21,1.21,0,0,1,28.211,35.48Z" transform="translate(-26.999 -27.002)"/>
      </g>
      <g id="Group_6373" data-name="Group 6373" transform="translate(1348.477 2787.47)">
        <path id="Path_7281" data-name="Path 7281" d="M28.806,26.425H8.211a1.212,1.212,0,0,1,0-2.423h20.6a1.212,1.212,0,0,1,0,2.423Z" transform="translate(-6.999 -24.002)"/>
      </g>
      <g id="Group_6374" data-name="Group 6374" transform="translate(1344.843 2791.103)">
        <path id="Path_7282" data-name="Path 7282" d="M5.211,35.481A1.21,1.21,0,0,1,4,34.269V28.212a1.212,1.212,0,1,1,2.423,0v6.058A1.21,1.21,0,0,1,5.211,35.481Z" transform="translate(-3.999 -27)"/>
      </g>
      <g id="Group_6375" data-name="Group 6375" transform="translate(1344.843 2797.16)">
        <path id="Path_7283" data-name="Path 7283" d="M33.076,34.423H5.211a1.212,1.212,0,1,1,0-2.423H33.076a1.212,1.212,0,1,1,0,2.423Z" transform="translate(-3.999 -32)"/>
      </g>
      <g id="Group_6380" data-name="Group 6380" transform="translate(1344.846 2805.638)">
        <g id="Group_6376" data-name="Group 6376">
          <path id="Path_7284" data-name="Path 7284" d="M8.848,45.056A4.851,4.851,0,0,1,4,40.21a1.212,1.212,0,0,1,2.423,0,2.425,2.425,0,0,0,2.423,2.423,1.212,1.212,0,1,1,0,2.423Z" transform="translate(-4.002 -38.998)"/>
        </g>
        <g id="Group_6377" data-name="Group 6377" transform="translate(4.24)">
          <path id="Path_7285" data-name="Path 7285" d="M8.714,45.056a1.212,1.212,0,1,1,0-2.423.606.606,0,1,0,0-1.212,1.212,1.212,0,1,1,0-2.423,3.029,3.029,0,1,1,0,6.058Z" transform="translate(-7.502 -38.998)"/>
        </g>
        <g id="Group_6378" data-name="Group 6378" transform="translate(3.635 3.635)">
          <path id="Path_7286" data-name="Path 7286" d="M8.819,44.421H8.214a1.212,1.212,0,1,1,0-2.423h.606a1.212,1.212,0,0,1,0,2.423Z" transform="translate(-7.002 -41.998)"/>
        </g>
        <g id="Group_6379" data-name="Group 6379">
          <path id="Path_7287" data-name="Path 7287" d="M9.454,41.421H5.214a1.212,1.212,0,1,1,0-2.423h4.24a1.212,1.212,0,1,1,0,2.423Z" transform="translate(-4.002 -38.998)"/>
        </g>
      </g>
      <g id="Group_6385" data-name="Group 6385" transform="translate(1366.649 2805.638)">
        <g id="Group_6381" data-name="Group 6381" transform="translate(2.421)">
          <path id="Path_7288" data-name="Path 7288" d="M25.208,45.056a1.212,1.212,0,1,1,0-2.423,2.425,2.425,0,0,0,2.423-2.423,1.212,1.212,0,0,1,2.423,0A4.851,4.851,0,0,1,25.208,45.056Z" transform="translate(-23.996 -38.998)"/>
        </g>
        <g id="Group_6382" data-name="Group 6382">
          <path id="Path_7289" data-name="Path 7289" d="M25.027,45.056a3.029,3.029,0,1,1,0-6.058,1.212,1.212,0,1,1,0,2.423.606.606,0,0,0,0,1.212,1.212,1.212,0,1,1,0,2.423Z" transform="translate(-21.998 -38.998)"/>
        </g>
        <g id="Group_6383" data-name="Group 6383" transform="translate(1.817 3.635)">
          <path id="Path_7290" data-name="Path 7290" d="M25.313,44.421h-.6a1.212,1.212,0,0,1,0-2.423h.6a1.212,1.212,0,1,1,0,2.423Z" transform="translate(-23.498 -41.998)"/>
        </g>
        <g id="Group_6384" data-name="Group 6384" transform="translate(1.817)">
          <path id="Path_7291" data-name="Path 7291" d="M28.947,41.421H24.71a1.212,1.212,0,0,1,0-2.423h4.238a1.212,1.212,0,1,1,0,2.423Z" transform="translate(-23.498 -38.998)"/>
        </g>
      </g>
      <g id="Group_6386" data-name="Group 6386" transform="translate(1377.557 2802.002)">
        <path id="Path_7292" data-name="Path 7292" d="M69.766,52.957H32.214a1.212,1.212,0,0,1,0-2.423H68.554V38.419H32.214a1.212,1.212,0,1,1,0-2.423H69.766a1.21,1.21,0,0,1,1.212,1.212V51.746A1.21,1.21,0,0,1,69.766,52.957Z" transform="translate(-31.002 -35.996)"/>
      </g>
      <g id="Group_6387" data-name="Group 6387" transform="translate(1405.418 2816.54)">
        <path id="Path_7293" data-name="Path 7293" d="M64.9,55.27H55.21A1.21,1.21,0,0,1,54,54.058V49.208A1.21,1.21,0,0,1,55.21,48H64.9a1.21,1.21,0,0,1,1.212,1.212v4.851A1.21,1.21,0,0,1,64.9,55.27Zm-8.481-2.423H63.69V50.419H56.421Z" transform="translate(-53.998 -47.996)"/>
      </g>
      <g id="Group_6388" data-name="Group 6388" transform="translate(1377.56 2816.54)">
        <path id="Path_7294" data-name="Path 7294" d="M40.7,55.27H32.216A1.21,1.21,0,0,1,31,54.058V49.208A1.21,1.21,0,0,1,32.216,48H40.7a1.21,1.21,0,0,1,1.212,1.212v4.851A1.21,1.21,0,0,1,40.7,55.27Zm-7.269-2.423h6.058V50.419H33.427Z" transform="translate(-31.004 -47.996)"/>
      </g>
      <g id="Group_6389" data-name="Group 6389" transform="translate(1377.557 2797.159)">
        <path id="Path_7295" data-name="Path 7295" d="M32.214,39.264a1.212,1.212,0,0,1-.857-2.068L36.2,32.354a1.211,1.211,0,1,1,1.713,1.713L33.07,38.908A1.2,1.2,0,0,1,32.214,39.264Z" transform="translate(-31.002 -31.999)"/>
      </g>
      <g id="Group_6390" data-name="Group 6390" transform="translate(1410.267 2797.16)">
        <path id="Path_7296" data-name="Path 7296" d="M64.055,39.263a1.208,1.208,0,0,1-.857-.355l-4.842-4.84a1.211,1.211,0,1,1,1.713-1.713L64.912,37.2a1.21,1.21,0,0,1-.857,2.067Z" transform="translate(-58.001 -32)"/>
      </g>
      <g id="Group_6391" data-name="Group 6391" transform="translate(1406.633 2787.47)">
        <path id="Path_7297" data-name="Path 7297" d="M59.847,30.06a1.211,1.211,0,0,1-1.212-1.212,2.425,2.425,0,0,0-2.423-2.423,1.212,1.212,0,1,1,0-2.423,4.851,4.851,0,0,1,4.846,4.846A1.211,1.211,0,0,1,59.847,30.06Z" transform="translate(-55.001 -24.002)"/>
      </g>
      <g id="Group_6392" data-name="Group 6392" transform="translate(1382.403 2787.468)">
        <path id="Path_7298" data-name="Path 7298" d="M36.213,30.058A1.211,1.211,0,0,1,35,28.846,4.851,4.851,0,0,1,39.847,24a1.212,1.212,0,0,1,0,2.423,2.425,2.425,0,0,0-2.423,2.423A1.211,1.211,0,0,1,36.213,30.058Z" transform="translate(-35.001 -24)"/>
      </g>
      <g id="Group_6393" data-name="Group 6393" transform="translate(1410.268 2791.105)">
        <path id="Path_7299" data-name="Path 7299" d="M59.213,35.48A1.21,1.21,0,0,1,58,34.269V28.214a1.212,1.212,0,1,1,2.423,0v6.055A1.21,1.21,0,0,1,59.213,35.48Z" transform="translate(-58.001 -27.002)"/>
      </g>
      <g id="Group_6394" data-name="Group 6394" transform="translate(1386.037 2787.47)">
        <path id="Path_7300" data-name="Path 7300" d="M59.808,26.425h-20.6a1.212,1.212,0,0,1,0-2.423h20.6a1.212,1.212,0,0,1,0,2.423Z" transform="translate(-38.001 -24.002)"/>
      </g>
      <g id="Group_6395" data-name="Group 6395" transform="translate(1382.403 2791.103)">
        <path id="Path_7301" data-name="Path 7301" d="M36.213,35.481A1.21,1.21,0,0,1,35,34.269V28.212a1.212,1.212,0,1,1,2.423,0v6.058A1.21,1.21,0,0,1,36.213,35.481Z" transform="translate(-35.001 -27)"/>
      </g>
      <g id="Group_6396" data-name="Group 6396" transform="translate(1382.403 2797.16)">
        <path id="Path_7302" data-name="Path 7302" d="M64.078,34.423H36.213a1.212,1.212,0,0,1,0-2.423H64.078a1.212,1.212,0,0,1,0,2.423Z" transform="translate(-35.001 -32)"/>
      </g>
      <g id="Group_6397" data-name="Group 6397" transform="translate(1385.432 2805.638)">
        <path id="Path_7303" data-name="Path 7303" d="M38.714,45.056a1.212,1.212,0,0,1,0-2.423.606.606,0,1,0,0-1.212,1.212,1.212,0,0,1,0-2.423,3.029,3.029,0,1,1,0,6.058Z" transform="translate(-37.502 -38.998)"/>
      </g>
      <g id="Group_6398" data-name="Group 6398" transform="translate(1383.615 2805.637)">
        <path id="Path_7304" data-name="Path 7304" d="M39.031,45.055a3.029,3.029,0,1,1,0-6.058,1.212,1.212,0,0,1,0,2.423.606.606,0,1,0,0,1.212,1.212,1.212,0,1,1,0,2.423Z" transform="translate(-36.002 -38.997)"/>
      </g>
      <g id="Group_6399" data-name="Group 6399" transform="translate(1407.262 2805.638)">
        <path id="Path_7305" data-name="Path 7305" d="M56.732,45.056a1.212,1.212,0,1,1,0-2.423.606.606,0,1,0,0-1.212,1.212,1.212,0,1,1,0-2.423,3.029,3.029,0,1,1,0,6.058Z" transform="translate(-55.52 -38.998)"/>
      </g>
      <g id="Group_6400" data-name="Group 6400" transform="translate(1405.444 2805.637)">
        <path id="Path_7306" data-name="Path 7306" d="M57.049,45.055a3.029,3.029,0,1,1,0-6.058,1.212,1.212,0,1,1,0,2.423.606.606,0,0,0,0,1.212,1.212,1.212,0,1,1,0,2.423Z" transform="translate(-54.02 -38.997)"/>
      </g>
      <g id="Group_6401" data-name="Group 6401" transform="translate(1377.555 2770.507)">
        <path id="Path_7307" data-name="Path 7307" d="M32.212,23.327A1.211,1.211,0,0,1,31,22.115v-10.9a1.212,1.212,0,0,1,2.423,0v10.9A1.211,1.211,0,0,1,32.212,23.327Z" transform="translate(-31 -10)" fill="#ff4612"/>
      </g>
      <g id="Group_6402" data-name="Group 6402" transform="translate(1382.403 2776.666)">
        <path id="Path_7308" data-name="Path 7308" d="M36.214,23.463a1.212,1.212,0,0,1-.857-2.068l5.956-5.956a1.211,1.211,0,1,1,1.713,1.713L37.07,23.108A1.208,1.208,0,0,1,36.214,23.463Z" transform="translate(-35.002 -15.084)" fill="#ff4612"/>
      </g>
      <g id="Group_6403" data-name="Group 6403" transform="translate(1366.703 2776.666)">
        <path id="Path_7309" data-name="Path 7309" d="M29.21,23.463a1.208,1.208,0,0,1-.857-.355L22.4,17.152a1.211,1.211,0,1,1,1.713-1.713l5.956,5.956a1.212,1.212,0,0,1-.857,2.068Z" transform="translate(-22.043 -15.084)" fill="#ff4612"/>
      </g>
      <g id="Group_6404" data-name="Group 6404" transform="translate(1376.381 2803.218)">
        <path id="Path_7310" data-name="Path 7310" d="M33.628,41.827a1.208,1.208,0,0,1-.86-.359l-2.385-2.4a1.211,1.211,0,1,1,1.72-1.706l2.385,2.4a1.212,1.212,0,0,1-.86,2.064Z" transform="translate(-30.031 -37)"/>
      </g>
      <g id="Group_6405" data-name="Group 6405" transform="translate(1376.343 2805.623)">
        <path id="Path_7311" data-name="Path 7311" d="M31.212,43.849a1.212,1.212,0,0,1-.86-2.064l2.423-2.442a1.211,1.211,0,0,1,1.72,1.706l-2.423,2.442a1.208,1.208,0,0,1-.86.359Z" transform="translate(-30 -38.984)"/>
      </g>
      <g id="Group_6406" data-name="Group 6406" transform="translate(1376.381 2808.062)">
        <path id="Path_7312" data-name="Path 7312" d="M33.628,45.826a1.208,1.208,0,0,1-.86-.359l-2.385-2.4a1.211,1.211,0,0,1,1.72-1.706l2.385,2.4a1.212,1.212,0,0,1-.86,2.064Z" transform="translate(-30.031 -40.998)"/>
      </g>
      <g id="Group_6407" data-name="Group 6407" transform="translate(1376.343 2810.467)">
        <path id="Path_7313" data-name="Path 7313" d="M31.212,47.848a1.212,1.212,0,0,1-.86-2.064l2.423-2.442a1.211,1.211,0,0,1,1.72,1.706L32.072,47.49a1.208,1.208,0,0,1-.86.359Z" transform="translate(-30 -42.983)"/>
      </g>
      <g id="Group_6408" data-name="Group 6408" transform="translate(1376.381 2812.906)">
        <path id="Path_7314" data-name="Path 7314" d="M33.628,49.825a1.208,1.208,0,0,1-.86-.359l-2.385-2.4a1.211,1.211,0,1,1,1.72-1.706l2.385,2.4a1.212,1.212,0,0,1-.86,2.064Z" transform="translate(-30.031 -44.997)"/>
      </g>
      <g id="Group_6409" data-name="Group 6409" transform="translate(1376.381 2802.025)">
        <path id="Path_7315" data-name="Path 7315" d="M31.243,39.631a1.212,1.212,0,0,1-.857-2.068l1.192-1.193a1.211,1.211,0,0,1,1.713,1.713L32.1,39.276A1.208,1.208,0,0,1,31.243,39.631Z" transform="translate(-30.031 -36.015)"/>
      </g>
      <g id="Group_6410" data-name="Group 6410" transform="translate(1377.542 2815.311)">
        <path id="Path_7316" data-name="Path 7316" d="M32.2,50.628a1.212,1.212,0,0,1-.857-2.068l1.224-1.222a1.211,1.211,0,0,1,1.713,1.713l-1.224,1.222a1.2,1.2,0,0,1-.857.355Z" transform="translate(-30.99 -46.982)"/>
      </g>
      <g id="Group_6411" data-name="Group 6411" transform="translate(1340.002 2821.391)">
        <path id="Path_7317" data-name="Path 7317" d="M76.323,54.423H1.216a1.212,1.212,0,1,1,0-2.423H76.323a1.212,1.212,0,0,1,0,2.423Z" transform="translate(-0.004 -52)"/>
      </g>
      <g id="Group_6412" data-name="Group 6412" transform="translate(1352.113 2812.908)">
        <path id="Path_7318" data-name="Path 7318" d="M24.538,47.422H11.212a1.212,1.212,0,0,1,0-2.423H24.538a1.212,1.212,0,0,1,0,2.423Z" transform="translate(-10 -44.999)"/>
      </g>
      <g id="Group_6413" data-name="Group 6413" transform="translate(1389.669 2812.908)">
        <path id="Path_7319" data-name="Path 7319" d="M55.537,47.422H42.211a1.212,1.212,0,0,1,0-2.423H55.537a1.212,1.212,0,1,1,0,2.423Z" transform="translate(-40.999 -44.999)"/>
      </g>
    </g>
  </g>
</svg>
