<svg xmlns="http://www.w3.org/2000/svg" width="80" height="80" viewBox="0 0 80 80">
  <g id="icon-fire" transform="translate(15636 -10970)">
    <rect id="Rectangle_640" data-name="Rectangle 640" width="80" height="80" transform="translate(-15636 10970)" fill="#fff"/>
    <g id="Group_7384" data-name="Group 7384" transform="translate(-15635.735 10985.847)">
      <path id="Path_7330" data-name="Path 7330" d="M25,18.256s-.605,6.9,4.963,11.257,1.815,2.421,1.815,2.421l-8.836,11.62L8.418,44.16S2.486,39.8,6.118,33.266s5.2-5.689,5.2-5.689-2.663,6.778,2.542,7.868,6.052-5.931,6.052-5.931-3.51-8.352,3.026-11.257,0,.605,0,.605Z" transform="translate(-2.011 -2.058)" fill="#ff4612"/>
      <path id="Path_7272" data-name="Path 7272" d="M72.2,39.528H67.711l-8.3-10.369a6.351,6.351,0,0,0-4.983-2.395h-21.9a6.36,6.36,0,0,0-3.357.952c-.162-.221-.322-.443-.5-.655-.466-.55-.965-1.062-1.436-1.532l-.453-.451a12.585,12.585,0,0,1-3-3.786,4.467,4.467,0,0,1,1.021-5.057,1.276,1.276,0,0,0-.971-2.23A9.644,9.644,0,0,0,17.2,17.723a9.41,9.41,0,0,0-1.9,6.025,18.4,18.4,0,0,0,.34,2.447c.526,2.859.563,4.111-1.21,4.988a3.458,3.458,0,0,1-4.005-.934c-.733-.879-.739-2.184-.024-4.363a1.276,1.276,0,0,0-1.972-1.419C6.912,25.588,3.27,28.63,2.244,32.661a7.329,7.329,0,0,0,.883,5.809,10.789,10.789,0,0,0,1.795,2.1A6.391,6.391,0,0,0,2,45.91V56.121A1.276,1.276,0,0,0,3.278,57.4H7.554a7.646,7.646,0,0,0,14.423,0h34.08a7.646,7.646,0,0,0,14.423,0h6.829a1.276,1.276,0,0,0,1.276-1.276V45.91A6.39,6.39,0,0,0,72.2,39.528ZM44.122,29.317H54.432a3.816,3.816,0,0,1,2.991,1.436l7.02,8.775H44.122Zm-39.4,3.964a10.868,10.868,0,0,1,2.605-4.416,4.978,4.978,0,0,0,1.139,3.019,6.032,6.032,0,0,0,7.1,1.589c3.681-1.821,3.052-5.242,2.591-7.741a16.441,16.441,0,0,1-.3-2.106,6.849,6.849,0,0,1,3.276-6.067,7.268,7.268,0,0,0,.306,4.712A14.571,14.571,0,0,0,25,26.892l.444.442c.459.459.893.906,1.288,1.371.2.245.4.5.577.766L19.257,39.528H8.281c-.979,0-2.218-1.234-3.017-2.462A4.778,4.778,0,0,1,4.719,33.281ZM14.765,59.95a5.106,5.106,0,1,1,5.106-5.106A5.106,5.106,0,0,1,14.765,59.95Zm26.8-5.106H22.424a7.658,7.658,0,1,0-15.317,0H4.554V45.91a3.86,3.86,0,0,1,3.829-3.829H41.57Zm0-15.317H22.526l7.02-8.774a3.818,3.818,0,0,1,2.991-1.437H41.57Zm21.7,20.422a5.106,5.106,0,1,1,5.106-5.106A5.106,5.106,0,0,1,63.268,59.95Zm12.764-5.106H70.926a7.658,7.658,0,1,0-15.317,0H44.122V42.081H72.2a3.829,3.829,0,0,1,3.829,3.829Z" transform="translate(0 1.047)"/>
      <circle id="Ellipse_138" data-name="Ellipse 138" cx="3" cy="3" r="3" transform="translate(11.735 52.153)"/>
      <circle id="Ellipse_139" data-name="Ellipse 139" cx="3" cy="3" r="3" transform="translate(60.735 52.153)"/>
      <rect id="Rectangle_506" data-name="Rectangle 506" width="6" height="2" transform="translate(32.736 45.153)"/>
      <rect id="Rectangle_507" data-name="Rectangle 507" width="5" height="2" transform="translate(52.735 45.153)"/>
    </g>
  </g>
</svg>
