<svg xmlns="http://www.w3.org/2000/svg" xmlns:xlink="http://www.w3.org/1999/xlink" width="32.727" height="30" viewBox="0 0 32.727 30">
  <defs>
    <clipPath id="clip-path">
      <rect id="Rectangle_11" data-name="Rectangle 11" width="32.727" height="30" fill="none"/>
    </clipPath>
  </defs>
  <g id="Group_6337" data-name="Group 6337" transform="translate(-3426.633 4862.176)">
    <g id="Group_4290" data-name="Group 4290" transform="translate(3426.633 -4862.176)">
      <g id="Group_4289" data-name="Group 4289" transform="translate(0 0)" clip-path="url(#clip-path)">
        <path id="Path_2828" data-name="Path 2828" d="M64.778,179.257,63.7,181.165c-.519,0-1.673,0-2.31,0a2.165,2.165,0,0,0-2.167,1.334A4.709,4.709,0,0,0,59,183.638a.45.45,0,0,0,.127.336.456.456,0,0,0,.334.139h0l1.6,0a3.04,3.04,0,0,0-1.146,2.443.514.514,0,0,0,0,.06l.74,5.87a1.749,1.749,0,0,0,1.438,1.677v1.88a1.118,1.118,0,0,0,1.1,1.115H65.13a1.132,1.132,0,0,0,1.118-1.115v-1.85H82.758a5.066,5.066,0,0,0,1.456,7.984.477.477,0,0,0,.456-.021.47.47,0,0,0,.226-.393v-2.4l1.57-1.05,1.612,1.131-.01,2.319a.46.46,0,0,0,.666.415A5.076,5.076,0,0,0,88.52,193V181.942a5.073,5.073,0,0,0,.212-9.173.466.466,0,0,0-.674.412v2.4l-1.57,1.05-1.612-1.13.01-2.32a.46.46,0,0,0-.665-.415,5.027,5.027,0,0,0-2.757,3.75,2.979,2.979,0,0,0-.466-.046H68.342c-1.426,0-2.691,1-3.564,2.788ZM59.992,183.2a3.81,3.81,0,0,1,.11-.409,1.292,1.292,0,0,1,1.292-.7l1.79,0L62.56,183.2Zm5.333,12.845a.21.21,0,0,1-.2.192H63.2a.2.2,0,0,1-.18-.192v-1.85h2.306Zm-2.931-2.773a.813.813,0,0,1-.811-.812.453.453,0,0,0,0-.059l-.742-5.867a1.915,1.915,0,0,1,1.681-2.022.477.477,0,0,0,.079,0h21.77v2.639a1.779,1.779,0,0,0,0,3.395V193a3.146,3.146,0,0,0-.473.268Zm15.945-9.686a2.174,2.174,0,0,1,4.283,0Zm6.029,4.589v1.339a.854.854,0,0,1,0-1.339Zm-.41-14.169,0,1.732a.461.461,0,0,0,.2.379l2.072,1.449a.46.46,0,0,0,.52.006l2.038-1.361a.454.454,0,0,0,.2-.384v-1.818a4.045,4.045,0,0,1,1.64,3.3,4.181,4.181,0,0,1-2.711,3.89.474.474,0,0,0-.313.432v11.68a.477.477,0,0,0,.316.432,4.178,4.178,0,0,1,2.707,3.89,4.123,4.123,0,0,1-1.632,3.306L89,199.209a.46.46,0,0,0-.2-.379l-2.071-1.449a.46.46,0,0,0-.519-.006l-2.038,1.362a.453.453,0,0,0-.2.384v1.818a4.046,4.046,0,0,1-1.64-3.3,4.172,4.172,0,0,1,1.917-3.5.418.418,0,0,0,.051-.034,3.939,3.939,0,0,1,.707-.356.445.445,0,0,0,.283-.432v-11.68a.446.446,0,0,0-.283-.432,4.154,4.154,0,0,1-1.049-7.2Zm-2.569,3.436a5.188,5.188,0,0,0,2.979,4.5v1.644h-.814a3.1,3.1,0,0,0-6.147,0H63.388l2.2-3.889c0-.009.009-.02.013-.029.411-.849,1.315-2.275,2.74-2.275H81a1.816,1.816,0,0,1,.391.05Zm0,0" transform="translate(-58.849 -172.378)"/>
      </g>
    </g>
    <path id="Path_2830" data-name="Path 2830" d="M196.633,384.7h12.205a.481.481,0,0,0,.437-.63l-.421-1.225a2.347,2.347,0,0,0-2.117-1.5H198.7a2.314,2.314,0,0,0-2.1,1.512l-.4,1.225a.48.48,0,0,0,.065.424.471.471,0,0,0,.373.2Zm.841-1.549a1.417,1.417,0,0,1,1.227-.889h8.036a1.446,1.446,0,0,1,1.244.89l.213.626H197.269Zm0,0" transform="translate(3239.665 -5229.413)" fill="#ff4612"/>
    <path id="Path_2831" data-name="Path 2831" d="M192.941,442.25H177.887a.461.461,0,1,0,0,.922h15.053a.461.461,0,1,0,0-.922Zm0,0" transform="translate(3257.173 -5286.3)" fill="#ff4612"/>
  </g>
</svg>
