<svg xmlns="http://www.w3.org/2000/svg" width="27.225" height="30.206" viewBox="0 0 27.225 30.206">
  <g id="Group_6327" data-name="Group 6327" transform="translate(-3427.048 4518.335)">
    <g id="Group_5194" data-name="Group 5194" transform="translate(3429.491 -4498)">
      <g id="Group_5193" data-name="Group 5193">
        <path id="Path_6529" data-name="Path 6529" d="M58.658,285.888H54.838a.71.71,0,0,0-.708.708v2.618a.71.71,0,0,0,.708.708h3.821a.71.71,0,0,0,.708-.708V286.6A.71.71,0,0,0,58.658,285.888Zm-.708,2.618H55.545v-1.2h2.406Z" transform="translate(-54.13 -285.888)" stroke="#fff" stroke-width="0.2"/>
      </g>
    </g>
    <g id="Group_5196" data-name="Group 5196" transform="translate(3443.712 -4498)">
      <g id="Group_5195" data-name="Group 5195">
        <path id="Path_6530" data-name="Path 6530" d="M259.658,285.888h-3.821a.71.71,0,0,0-.708.708v2.618a.71.71,0,0,0,.708.708h3.821a.71.71,0,0,0,.708-.708V286.6A.71.71,0,0,0,259.658,285.888Zm-.708,2.618h-2.406v-1.2h2.406Z" transform="translate(-255.13 -285.888)" stroke="#fff" stroke-width="0.2"/>
      </g>
    </g>
    <g id="Group_5198" data-name="Group 5198" transform="translate(3436.071 -4495.454)">
      <g id="Group_5197" data-name="Group 5197">
        <path id="Path_6531" data-name="Path 6531" d="M152.762,321.888h-4.925a.708.708,0,0,0,0,1.415h4.925a.708.708,0,0,0,0-1.415Z" transform="translate(-147.13 -321.888)" stroke="#fff" stroke-width="0.2"/>
      </g>
    </g>
    <g id="Group_5200" data-name="Group 5200" transform="translate(3436.071 -4497.436)">
      <g id="Group_5199" data-name="Group 5199">
        <path id="Path_6532" data-name="Path 6532" d="M152.762,293.888h-4.925a.708.708,0,1,0,0,1.415h4.925a.708.708,0,1,0,0-1.415Z" transform="translate(-147.13 -293.888)" stroke="#fff" stroke-width="0.2"/>
      </g>
    </g>
    <g id="Group_6326" data-name="Group 6326" transform="translate(3427.148 -4518.229)">
      <g id="Group_5202" data-name="Group 5202">
        <g id="Group_5201" data-name="Group 5201">
          <path id="Path_6533" data-name="Path 6533" d="M47.7,3.431,41.427.084a.689.689,0,0,0-.672.007l-6.12,3.347a.71.71,0,0,0-.375.623V8.8a9.254,9.254,0,0,0,.573,3.156H26.724a2.355,2.355,0,0,0-2.165,1.436l-1.748,4.069-.708.672a3.118,3.118,0,0,0-1.075,2.377v7.161A2.3,2.3,0,0,0,23.306,30h1.359a2.316,2.316,0,0,0,2.307-2.328v-.863H39.213v.856a2.346,2.346,0,0,0,2.342,2.328H42.9a2.339,2.339,0,0,0,2.328-2.328V20.321a3.12,3.12,0,0,0-.969-2.257l-.5-.524-.325-.715A9.409,9.409,0,0,0,48.05,8.709V4.061A.651.651,0,0,0,47.7,3.431ZM25.861,13.953a.955.955,0,0,1,.863-.587h8.76a10.386,10.386,0,0,0,.679,1.061,3.7,3.7,0,0,0-2.3,2.76H24.481Zm11.356,1.677a9.824,9.824,0,0,0,2.172,1.557H35.321A2.25,2.25,0,0,1,37.217,15.629ZM25.564,27.665a.9.9,0,0,1-.892.913H23.328a.885.885,0,0,1-.877-.913V26.653a2.19,2.19,0,0,0,.877.156h2.236Zm18.255,0a.915.915,0,0,1-.913.913H41.562a.927.927,0,0,1-.927-.913v-.856h2.271a2.363,2.363,0,0,0,.913-.156Zm0-7.352v4.2a.885.885,0,0,1-.913.877H23.328a.855.855,0,0,1-.877-.835V20.5a1.719,1.719,0,0,1,.587-1.309l.014-.014.63-.58H42.814l.432.446c.007.007.021.014.035.028A1.72,1.72,0,0,1,43.819,20.314ZM46.649,8.7a8,8,0,0,1-4.9,7.394l-.672.29-.573-.248a8.042,8.042,0,0,1-4.826-7.352V4.471l5.4-2.965,5.576,2.972Z" transform="translate(-21.028 0)" stroke="#fff" stroke-width="0.2"/>
        </g>
      </g>
      <g id="Group_5204" data-name="Group 5204" transform="translate(16.826 6.885)">
        <g id="Group_5203" data-name="Group 5203">
          <path id="Path_6534" data-name="Path 6534" d="M265.582,97.575a.708.708,0,0,0-1-.1l-3.311,2.7-1.2-1.408a.708.708,0,0,0-1.076.92l1.649,1.932.021.021c.007.007.014.021.028.028s.021.021.028.028.021.014.028.021a.157.157,0,0,0,.035.021c.007.007.021.014.028.021s.021.014.035.021a.054.054,0,0,0,.028.014.1.1,0,0,0,.042.014c.007.007.021.007.028.014s.028.007.042.014.021.007.028.007.028.007.043.007.021.007.028.007h.156c.014,0,.035-.007.05-.007a.026.026,0,0,0,.021-.007c.014,0,.028-.007.042-.007s.014-.007.021-.007.021-.007.035-.014.014-.007.028-.007.021-.007.028-.014.014-.007.028-.014.021-.007.028-.014a.037.037,0,0,1,.028-.014.053.053,0,0,1,.028-.014c.007,0,.014-.014.028-.021s.014-.007.021-.014l3.849-3.127A.708.708,0,0,0,265.582,97.575Z" transform="translate(-258.824 -97.315)" fill="#ff4612" stroke="#fff" stroke-width="0.2"/>
        </g>
      </g>
    </g>
  </g>
</svg>
