<svg xmlns="http://www.w3.org/2000/svg" width="29.635" height="30" viewBox="0 0 29.635 30">
  <g id="Group_6343" data-name="Group 6343" transform="translate(-4104.027 4597.653)">
    <path id="Path_7217" data-name="Path 7217" d="M16.988,260.6V256H16v4.723a.494.494,0,0,0,.058.231l3.894,7.341v2.882h.988v-3a.494.494,0,0,0-.058-.231Z" transform="translate(4088.027 -4838.831)"/>
    <g id="Group_6342" data-name="Group 6342" transform="translate(4104.027 -4597.653)">
      <path id="Path_7221" data-name="Path 7221" d="M210.645,53.293l.405-.9-2.964-1.334a.494.494,0,0,0-.405,0l-2.964,1.334.405.9,2.761-1.242Z" transform="translate(-193.067 -48.848)"/>
      <path id="Path_7218" data-name="Path 7218" d="M24.37,183.614l-1.707-1.537a2.469,2.469,0,0,0-2.712-.4V177.24a3.417,3.417,0,0,0-3.464-3.417.494.494,0,0,0-.487.494v3.592h.988v-3.056a2.431,2.431,0,0,1,1.976,2.387v5.43a.493.493,0,0,0,.08.272h0l1.976,2.964a.494.494,0,0,0,.822-.548L20.1,182.745a1.482,1.482,0,0,1,1.9.067l1.707,1.536a4.466,4.466,0,0,1,1.453,3.707l-.27,2.97q0,.022,0,.045v3h.988v-2.982l.268-2.947a5.458,5.458,0,0,0-1.776-4.53Z" transform="translate(-16 -164.074)"/>
      <path id="Path_7219" data-name="Path 7219" d="M341,173.823a3.417,3.417,0,0,0-3.464,3.416v4.442a2.47,2.47,0,0,0-2.712.4l-1.707,1.537a5.458,5.458,0,0,0-1.776,4.53l.268,2.947v2.982h.988v-3q0-.022,0-.045l-.27-2.97a4.465,4.465,0,0,1,1.453-3.707l1.707-1.536a1.482,1.482,0,0,1,1.9-.067l-1.745,2.617a.494.494,0,0,0,.822.548l1.976-2.964h0a.492.492,0,0,0,.08-.272v-5.43a2.431,2.431,0,0,1,1.976-2.387V183.5l-3.894,7.341a.494.494,0,0,0-.058.231v3h.988v-2.882l3.894-7.341a.494.494,0,0,0,.057-.232v-9.3A.494.494,0,0,0,341,173.823Z" transform="translate(-311.848 -164.074)"/>
      <path id="Path_7220" data-name="Path 7220" d="M115.385,27.314l-.969-.194a11.383,11.383,0,0,1-5.295,7.513l-2.217,1.33-2.217-1.33a11.383,11.383,0,0,1-5.295-7.513L98.149,20.9l8.755-3.94,8.755,3.94L114.6,26.2l.969.194,1.138-5.69a.494.494,0,0,0-.282-.547l-9.317-4.193a.494.494,0,0,0-.405,0l-9.317,4.193a.494.494,0,0,0-.282.547l1.321,6.606a12.373,12.373,0,0,0,5.755,8.167l2.471,1.482a.494.494,0,0,0,.508,0l2.471-1.482A12.373,12.373,0,0,0,115.385,27.314Z" transform="translate(-92.086 -15.925)"/>
      <path id="Path_7222" data-name="Path 7222" d="M212.321,281.049l-1.2-.72a9.38,9.38,0,0,1-1.054-.736l-.62.769a10.358,10.358,0,0,0,1.166.814l1.454.873a.494.494,0,0,0,.508,0l1.454-.873a10.356,10.356,0,0,0,1.166-.814l-.62-.769a9.377,9.377,0,0,1-1.054.736Z" transform="translate(-197.503 -263.314)"/>
      <path id="Path_7223" data-name="Path 7223" d="M163.992,129.294l1.208-1.815a.5.5,0,0,0,.043-.079,1.155,1.155,0,0,0-.909-1.575.487.487,0,0,0-.107,0l-1.784.175a1.5,1.5,0,0,0-.88.194l-1.247.721-4.258-.946a.494.494,0,0,0-.382.072l-1.434.959a.494.494,0,0,0,.024.836l2.791,1.641-1.715,1.372-1.735-.458a.494.494,0,0,0-.327.026l-.988.44a.494.494,0,0,0-.154.794l2.47,2.554a.494.494,0,0,0,.6.087l8.617-4.842A.493.493,0,0,0,163.992,129.294Zm-8.938,3.951-1.714-1.773.184-.082,1.808.477a.493.493,0,0,0,.435-.092l2.47-1.976a.494.494,0,0,0-.058-.811l-2.731-1.606.6-.4,4.239.942a.494.494,0,0,0,.354-.055l1.413-.817a.523.523,0,0,1,.327-.063.494.494,0,0,0,.107,0l1.755-.172a.177.177,0,0,1,.071.07.173.173,0,0,1,.025.1l-1.106,1.662Z" transform="translate(-143.604 -119.037)" fill="#ff4612"/>
    </g>
  </g>
</svg>
