<svg xmlns="http://www.w3.org/2000/svg" width="31.848" height="31.902" viewBox="0 0 31.848 31.902">
  <g id="Group_6332" data-name="Group 6332" transform="translate(-4104.238 4512.255)">
    <g id="Group_6331" data-name="Group 6331" transform="translate(4107.962 -4486.155)">
      <path id="Path_7209" data-name="Path 7209" d="M782.361,146.892a1.687,1.687,0,1,1-1.641-1.738A1.708,1.708,0,0,1,782.361,146.892Zm-.967-.03a.727.727,0,0,0-.713-.732.718.718,0,1,0-.027,1.436A.728.728,0,0,0,781.394,146.861Z" transform="translate(-758.385 -145.153)"/>
      <path id="Path_7210" data-name="Path 7210" d="M456.157,146.838a1.683,1.683,0,1,1-1.7-1.682A1.715,1.715,0,0,1,456.157,146.838Zm-1.7.731a.717.717,0,1,0-.71-.736A.735.735,0,0,0,454.461,147.569Z" transform="translate(-452.791 -145.156)"/>
    </g>
    <g id="Group_6330" data-name="Group 6330" transform="translate(4104.238 -4512.255)">
      <g id="Group_6333" data-name="Group 6333">
        <g id="Group_6329" data-name="Group 6329" transform="translate(0 15.782)">
          <path id="Path_7206" data-name="Path 7206" d="M403.249-5.692A4.114,4.114,0,0,1,402.5-3.8a3.854,3.854,0,0,1-4.1,1.588,3.865,3.865,0,0,1-3.108-3.116.514.514,0,0,0-.372-.457,1.609,1.609,0,0,1-1.087-1.546c0-1.295-.011-2.589,0-3.884a3.274,3.274,0,0,1,3.239-3.2.353.353,0,0,0,.388-.26,5.8,5.8,0,0,1,5.486-3.548c2.051.064,4.1.14,6.149.282a11.414,11.414,0,0,1,5.468,1.856c.863.559,1.684,1.186,2.5,1.81a1.918,1.918,0,0,0,1.227.469c.757-.007,1.514.045,2.272.07a5.432,5.432,0,0,1,3.662,1.674,5.1,5.1,0,0,1,1.39,2.877,2.864,2.864,0,0,1-.632,2.561,8.6,8.6,0,0,1-.943.723.51.51,0,0,0-.2.262,4.051,4.051,0,0,1-3.851,3.53,4.048,4.048,0,0,1-4.11-3.338c-.04-.205-.132-.241-.318-.241q-4.989.006-9.977,0Zm12.584-.978a4.038,4.038,0,0,1,1.246-2.458,3.9,3.9,0,0,1,2.556-1.088,3.948,3.948,0,0,1,2.373.616,4.025,4.025,0,0,1,1.8,2.653,1.887,1.887,0,0,0,.917-1.27c.1-.5.09-.512-.385-.621a3.933,3.933,0,0,1-2.823-3.231c-.033-.2-.037-.482-.165-.579a1.564,1.564,0,0,0-.667-.134,1.546,1.546,0,0,0-.189,0l-3.471-.1q-5.27-.147-10.54-.292c-.375-.01-.751,0-1.142,0V-6.67Zm-20.637-.1c.74-2.255,2-3.45,3.746-3.488,2.424-.052,3.772,1.271,4.338,3.523h1.006v-6.584L397.5-13.5c.266,1.9-.772,3.805-2.711,3.9,0,.764-.01,1.53.006,2.3A.576.576,0,0,0,395.2-6.766Zm20.7-7.132.025-.085c-.372-.272-.741-.549-1.116-.816a10.944,10.944,0,0,0-5.166-2.118c-1.242-.138-2.5-.158-3.747-.228-.183-.01-.367,0-.545,0v2.964Zm.865,7.674a3.073,3.073,0,0,0,3.079,3.1,3.127,3.127,0,0,0,3.1-3.135,3.1,3.1,0,0,0-3.106-3.048A3.1,3.1,0,0,0,416.758-6.224ZM399.227-9.256a3.072,3.072,0,0,0-3.083,3.088,3.076,3.076,0,0,0,3.1,3.04A3.075,3.075,0,0,0,402.313-6.2,3.084,3.084,0,0,0,399.227-9.256Zm5.089-5.026v-2.97c-2.847-.315-5.426.919-5.9,2.827Zm-9.45,3.651c1.279.183,2-1.7,1.672-2.744C395.366-13.159,394.723-12.112,394.865-10.63Zm27.6-1.608a2.854,2.854,0,0,0,2.034,2.4A4.347,4.347,0,0,0,422.465-12.239Z" transform="translate(-393.826 18.233)"/>
          <path id="Path_7208" data-name="Path 7208" d="M618.526,90.177a2,2,0,0,1-1.406-.657.475.475,0,0,1,.638-.695,1.088,1.088,0,0,0,1.605.054.6.6,0,0,1,.775.061c.149.214.051.51-.241.721A2.367,2.367,0,0,1,618.526,90.177Z" transform="translate(-602.886 -81.954)"/>
        </g>
        <g id="Group_6328" data-name="Group 6328" transform="translate(13.755)">
          <path id="Path_7207" data-name="Path 7207" d="M617.628-268.1a6.044,6.044,0,0,1,6.049,5.876,5.139,5.139,0,0,1-.585,2.334,22.589,22.589,0,0,1-3.359,4.943c-.544.642-1.119,1.258-1.688,1.877a.475.475,0,0,1-.786.024,33.258,33.258,0,0,1-4.273-5.377,8.829,8.829,0,0,1-1.289-2.927,5.347,5.347,0,0,1,.644-3.592A6.013,6.013,0,0,1,617.628-268.1Zm.015,14.05c.365-.41.707-.782,1.034-1.166a25.519,25.519,0,0,0,3.436-4.854,4.392,4.392,0,0,0,.492-3.043,5.086,5.086,0,0,0-7.738-3.2,4.768,4.768,0,0,0-1.689,6.273A32.124,32.124,0,0,0,617.643-254.051Z" transform="translate(-611.609 268.101)" fill="#ff4612"/>
          <path id="Path_7211" data-name="Path 7211" d="M661.24-214.777a3.035,3.035,0,0,1-3.091-2.967,3.046,3.046,0,0,1,2.982-3.114,3.029,3.029,0,0,1,3.1,2.988A3.023,3.023,0,0,1,661.24-214.777Zm.015-.967a2.056,2.056,0,0,0,2.063-2.068,2.063,2.063,0,0,0-2.057-2.078,2.07,2.07,0,0,0-2.1,2.072A2.063,2.063,0,0,0,661.255-215.743Z" transform="translate(-655.208 223.842)" fill="#ff4612"/>
        </g>
      </g>
    </g>
  </g>
</svg>
