<svg xmlns="http://www.w3.org/2000/svg" width="23" height="23.684" viewBox="0 0 23 23.684">
  <path id="support" d="M21.982,15.363v-2.1a5.116,5.116,0,0,0,0-.863,3.476,3.476,0,0,0-.379-1.215.951.951,0,0,0-.366-.316l-.488-.365-.464-.17H20.2V9.845a5.209,5.209,0,0,0-.1-1.215,8.1,8.1,0,0,1-.11-.851,6.962,6.962,0,0,0-.452-1.641A7.63,7.63,0,0,0,18.978,5,8.755,8.755,0,0,0,17.6,3.173a7.191,7.191,0,0,0-1.649-1.215L15.656,1.8a8.471,8.471,0,0,0-1.075-.474l-.464-.182A8.877,8.877,0,0,0,12.994.876L12.322.754,11.748.693a3.043,3.043,0,0,0-.33,0h-.953L9.977.754H9.513c-.305.061-.6.1-.9.17s-.721.194-1.087.3a9.293,9.293,0,0,0-.953.4,11.934,11.934,0,0,0-1.087.62A7.616,7.616,0,0,0,3.932,3.732,9.306,9.306,0,0,0,2.821,5.409a7.972,7.972,0,0,0-.757,2.2,6.027,6.027,0,0,1-.11.8,2.33,2.33,0,0,0,0,.51v1.313l-.256.1a1.225,1.225,0,0,0-.476.146c-.183.122-.354.255-.525.389a.669.669,0,0,0-.171.207,2.219,2.219,0,0,0-.305.668A5.131,5.131,0,0,0,0,13.03V16.25a2.183,2.183,0,0,0,.452,1.033,3.324,3.324,0,0,0,.281.3,2.726,2.726,0,0,0,1.294.741c.427.109.879.182,1.319.255a5.706,5.706,0,0,0,.9,0H5.556a1.227,1.227,0,0,1,.366,0,.342.342,0,0,0,.366-.243.3.3,0,0,0,0-.146V10.5a1.214,1.214,0,0,0-.183-.3.317.317,0,0,0-.354-.243H3.774a7.828,7.828,0,0,0-1.062.085H2.442V9.821c0-.061.061-.438.085-.668a1.728,1.728,0,0,0,0-.365V8.363A8.713,8.713,0,0,1,2.76,7.086a7.7,7.7,0,0,1,.623-1.507,8.03,8.03,0,0,1,1.5-1.811,5.7,5.7,0,0,1,.684-.644A8.652,8.652,0,0,1,6.79,2.359c.244-.109.5-.231.757-.328a7.022,7.022,0,0,1,1.087-.34L9.049,1.6a8.809,8.809,0,0,0,.965-.146,3.079,3.079,0,0,1,.672-.073,2.957,2.957,0,0,0,.464,0h.342l.647.085,1.014.182a7.453,7.453,0,0,1,1.221.328,5.767,5.767,0,0,1,.794.34,7.213,7.213,0,0,1,.989.571,6.1,6.1,0,0,1,.818.668,8.252,8.252,0,0,1,.806.924A8.5,8.5,0,0,1,19,6.625a6.586,6.586,0,0,1,.354,1.446,9.678,9.678,0,0,1,.1,1.021,1.733,1.733,0,0,0,.1.7,2.335,2.335,0,0,1,0,.292h-.073a6.981,6.981,0,0,0-1.014-.1h-.708a11.51,11.51,0,0,0-1.294,0h-.171a.342.342,0,0,0-.354.219.641.641,0,0,0,0,.146,5.939,5.939,0,0,0,0,.644v.863a1.488,1.488,0,0,1,0,.231V13.54c0,.255-.073.766-.061,1.142s0,.571,0,.851V17.9a3,3,0,0,0,0,.328.354.354,0,0,0,.427.292h.122l.647.061H18a3.9,3.9,0,0,0,.757-.073h.1v.267a3.637,3.637,0,0,1-.586,1.373,2.942,2.942,0,0,1-1.514,1.106,3.851,3.851,0,0,1-.745.146l-.9.085H13.262c-.061,0,0-.292-.073-.425a1.6,1.6,0,0,0-.33-.766,2.655,2.655,0,0,0-.256-.267.879.879,0,0,0-.269-.207l-.2-.122H10.905a4.086,4.086,0,0,0-.769,0,1.227,1.227,0,0,1-.366,0,.209.209,0,0,0-.183,0,1.624,1.624,0,0,0-.232.17,1.776,1.776,0,0,0-.415.5,2.336,2.336,0,0,0-.269,1.689,1,1,0,0,0,0,.182,1.726,1.726,0,0,0,.476.693,1.357,1.357,0,0,0,.586.34,2.76,2.76,0,0,0,.44.073,4.724,4.724,0,0,0,.586,0h.891a.515.515,0,0,0,.305,0,1.975,1.975,0,0,0,.891-.778,2.427,2.427,0,0,0,.159-.3.134.134,0,0,1,.11-.085h.721l1.331-.061A8.035,8.035,0,0,0,16.254,22a3.67,3.67,0,0,0,2.125-1.045,3.341,3.341,0,0,0,.818-1.215,2.181,2.181,0,0,0,.1-.255,2.881,2.881,0,0,0,.22-1.07c0-.146,0-.146.147-.17a2.993,2.993,0,0,0,.611-.085,3.664,3.664,0,0,0,1.062-.729,2.243,2.243,0,0,0,.647-1.531ZM3.371,10.72h2.2v2.127c0,.425.061.863.085,1.288s0,.668,0,1v1.155a.339.339,0,0,0,0,.109v1.41H3.664a5.68,5.68,0,0,1-.794-.122l-.6-.122a2.336,2.336,0,0,1-.977-.535l-.269-.292A1.3,1.3,0,0,1,.745,16V13.1a4.84,4.84,0,0,1,.073-.851,3.2,3.2,0,0,1,.171-.583.524.524,0,0,1,.232-.207,4.733,4.733,0,0,1,.379-.316,1.848,1.848,0,0,1,.611-.28,7.361,7.361,0,0,1,1.16-.146Zm9.11,11.145a2.292,2.292,0,0,1-.244.523,1.219,1.219,0,0,1-.4.352.123.123,0,0,1-.085,0,8.86,8.86,0,0,0-1.136,0h-.586l-.2-.085a.973.973,0,0,1-.427-.51,1.053,1.053,0,0,1,0-.267,1.573,1.573,0,0,1,.147-.851,2.774,2.774,0,0,1,.134-.438,1.045,1.045,0,0,0,.085-.122.2.2,0,0,1,.134-.061h1.905a.22.22,0,0,1,.22.1l.281.365a.994.994,0,0,1,.134.377,2.5,2.5,0,0,1,0,.267.907.907,0,0,1,.037.352Zm8.768-5.98a1.456,1.456,0,0,1-.488,1.057,2.443,2.443,0,0,1-.843.583,3.211,3.211,0,0,1-.488.134l-.806.146a4.736,4.736,0,0,1-1.014.061H16.3V14.573a6.006,6.006,0,0,1,.061-1.045,2.486,2.486,0,0,0,0-.681,3.557,3.557,0,0,1,.061-.778,1.318,1.318,0,0,0,0-.219V10.635h1.893a7.153,7.153,0,0,1,.891.073,5.285,5.285,0,0,1,.891.207,1.223,1.223,0,0,1,.4.207l.281.243a.935.935,0,0,1,.281.486,3.5,3.5,0,0,1,.147.948v2.467A4.089,4.089,0,0,1,21.249,15.886Z" transform="translate(0.5 -0.189)" stroke="#fff" stroke-width="1"/>
</svg>
