<svg xmlns="http://www.w3.org/2000/svg" width="24" height="24" viewBox="0 0 24 24">
  <g id="Group_6474" data-name="Group 6474" transform="translate(4987.22 -1163.78)">
    <g id="envelope" transform="translate(-4981.22 1171.78)">
      <g id="Group_6473" data-name="Group 6473" transform="translate(0 0)">
        <path id="Path_7124" data-name="Path 7124" d="M10.093,64H.918A.918.918,0,0,0,0,64.918V71.34a.918.918,0,0,0,.918.918h9.176a.918.918,0,0,0,.918-.918V64.918A.918.918,0,0,0,10.093,64Zm-9.176.459h9.176a.437.437,0,0,1,.1.019c-.794.727-3.428,3.137-4.35,3.967a.46.46,0,0,1-.666,0c-.922-.83-3.556-3.24-4.35-3.967A.438.438,0,0,1,.918,64.459ZM.459,71.34V64.918a.443.443,0,0,1,.026-.127c.608.556,2.446,2.238,3.638,3.322C2.934,69.133,1.1,70.876.483,71.46A.442.442,0,0,1,.459,71.34Zm9.634.459H.918a.439.439,0,0,1-.1-.021c.633-.6,2.483-2.357,3.65-3.355l.4.363a.916.916,0,0,0,1.28,0l.4-.363c1.167,1,3.017,2.751,3.65,3.355A.438.438,0,0,1,10.093,71.8Zm.459-.459a.443.443,0,0,1-.024.12c-.613-.585-2.451-2.327-3.639-3.348,1.192-1.084,3.029-2.765,3.638-3.322a.443.443,0,0,1,.026.127Z" transform="translate(0 -64)" fill="#fff"/>
      </g>
    </g>
    <g id="Ellipse_138" data-name="Ellipse 138" transform="translate(-4987.22 1163.78)" fill="none" stroke="#fff" stroke-width="0.5">
      <circle cx="12" cy="12" r="12" stroke="none"/>
      <circle cx="12" cy="12" r="11.75" fill="none"/>
    </g>
  </g>
</svg>
