<svg xmlns="http://www.w3.org/2000/svg" width="80" height="80" viewBox="0 0 80 80">
  <g id="icon-tire" transform="translate(15539 -11070)">
    <rect id="Rectangle_647" data-name="Rectangle 647" width="80" height="80" transform="translate(-15539 11070)" fill="#fff"/>
    <g id="Layer_2" data-name="Layer 2" transform="translate(-15531.156 11077.459)">
      <g id="Layer_6" data-name="Layer 6">
        <path id="Path_7657" data-name="Path 7657" d="M33.787,13.17H36.55l.5,3.667a19.906,19.906,0,0,0,5.788,7.753c3.929,3.025,12.415,1.729,12.415,1.729l.354,2.829a13.79,13.79,0,0,0-5.657,4.269C48.1,36.167,46.215,40.554,47,43.16s.1,4.819,2.75,8.08l-3.47,2.017a13.476,13.476,0,0,0-11.394-5.631,17.942,17.942,0,0,0-12.219,6.129l-2.75-2.514a12.808,12.808,0,0,0,2.5-12.494,15.584,15.584,0,0,0-8.5-10.084l1.166-2.279A13.659,13.659,0,0,0,27.448,24.59a16.684,16.684,0,0,0,6.339-11.354Z" transform="translate(0.381 0.149)" fill="#ff4612"/>
        <path id="Path_7658" data-name="Path 7658" d="M34.891,27.37a5.356,5.356,0,1,0,0,7.583A5.356,5.356,0,0,0,34.891,27.37Z" transform="translate(4.044 4.061)" fill="#fff"/>
        <path id="Path_7659" data-name="Path 7659" d="M28.078,34.837a4.754,4.754,0,1,1,3.372,1.4A4.767,4.767,0,0,1,28.078,34.837Zm7.976-7.962a6.548,6.548,0,1,0,0,9.167A6.548,6.548,0,0,0,36.054,26.874Z" transform="translate(3.759 3.784)"/>
        <path id="Path_7660" data-name="Path 7660" d="M32.7,28.516a2.986,2.986,0,1,0,0,4.23A2.986,2.986,0,0,0,32.7,28.516Z" transform="translate(4.62 4.631)"/>
        <path id="Path_7662" data-name="Path 7662" d="M20.353,50.319a21.163,21.163,0,1,1,29.938,0,21.163,21.163,0,0,1-29.938,0ZM51.561,19.111a22.971,22.971,0,1,0,0,32.478,22.971,22.971,0,0,0,0-32.478Z" transform="translate(-0.107 -0.095)"/>
        <path id="Path_7663" data-name="Path 7663" d="M42.333,47.041a14.235,14.235,0,0,1,5.513-20.954l.131-.616L47.48,25a15.715,15.715,0,0,0-4.413,3.012A15.453,15.453,0,0,0,41.4,47.866l.694-.288.21-.537Z" transform="translate(8.008 3.812)"/>
        <path id="Path_7664" data-name="Path 7664" d="M19.884,47.578l.694.288A15.466,15.466,0,0,0,14.528,25l-.5.55.131.616a14.235,14.235,0,0,1,5.513,20.954l.21.537Z" transform="translate(0.415 3.812)"/>
        <path id="Path_7665" data-name="Path 7665" d="M14.81,26.318v.746a15.44,15.44,0,0,0,19.369-13.62l-.668-.275-.55.327A14.209,14.209,0,0,1,15.242,25.926Z" transform="translate(0.657 0.149)"/>
        <path id="Path_7666" data-name="Path 7666" d="M49.617,25.926A14.209,14.209,0,0,1,31.9,13.5l-.537-.327-.681.275a15.44,15.44,0,0,0,19.408,13.62v-.746l-.445-.393Z" transform="translate(5.57 0.149)"/>
        <path id="Path_7667" data-name="Path 7667" d="M21.865,45.3a14.235,14.235,0,0,1,21.648,0h.629l.406-.616a15.466,15.466,0,0,0-23.717,0l.458.589.576.065Z" transform="translate(2.52 8.194)"/>
        <path id="Path_7668" data-name="Path 7668" d="M34.9,6.052a1.454,1.454,0,0,1-.131-2.894A33.33,33.33,0,0,1,38.215,3a1.441,1.441,0,1,1,.013,2.881h0a21.324,21.324,0,0,0-3.169.157Zm12.075.982a1.31,1.31,0,0,1-.38,0c-1.008-.262-2.056-.485-3.1-.668a1.447,1.447,0,1,1,.471-2.855c1.139.183,2.279.432,3.392.72a1.454,1.454,0,0,1-.38,2.855ZM26.311,8.042a1.441,1.441,0,0,1-.511-2.8,34.624,34.624,0,0,1,3.3-1.061A1.427,1.427,0,0,1,30.868,5.2a1.454,1.454,0,0,1-1.021,1.729c-1.021.275-2.043.6-3.025.969a1.4,1.4,0,0,1-.511.092Zm28.811,2.37a1.493,1.493,0,0,1-.72-.2c-.9-.524-1.86-1.008-2.829-1.454a1.454,1.454,0,0,1-.72-1.912,1.48,1.48,0,0,1,1.912-.733c1.048.485,2.082,1.021,3.078,1.585a1.455,1.455,0,0,1-.786,2.711Zm-36.59,1.755a1.441,1.441,0,0,1-.851-2.619,31.3,31.3,0,0,1,2.907-1.873A1.458,1.458,0,0,1,22.042,10.2q-1.31.812-2.619,1.729a1.414,1.414,0,0,1-.838.262Zm43.61,3.654a1.31,1.31,0,0,1-.969-.406l-.079-.079c-.746-.746-1.532-1.467-2.344-2.135a1.454,1.454,0,0,1,1.873-2.213c.877.733,1.742,1.519,2.619,2.331a1.467,1.467,0,0,1-1.008,2.528Zm-50.053,2.41a1.441,1.441,0,0,1-1.126-2.37c.733-.877,1.506-1.742,2.3-2.541a1.467,1.467,0,0,1,2.069,0,1.441,1.441,0,0,1,0,2.043h0c-.733.746-1.454,1.532-2.122,2.344a1.48,1.48,0,0,1-1.113.524ZM67.564,22.88a1.467,1.467,0,0,1-1.31-.733,25.769,25.769,0,0,0-1.716-2.619,1.454,1.454,0,0,1,2.37-1.676,32.29,32.29,0,0,1,1.873,2.907,1.454,1.454,0,0,1-.5,1.886,1.493,1.493,0,0,1-.72.2ZM7.413,25.722a1.611,1.611,0,0,1-.6-.131,1.454,1.454,0,0,1-.72-1.925,34.128,34.128,0,0,1,1.585-3.078A1.443,1.443,0,1,1,10.19,22a28.812,28.812,0,0,0-1.454,2.868,1.454,1.454,0,0,1-1.31.851ZM70.9,31.039a1.454,1.454,0,0,1-1.4-1.074,30.043,30.043,0,0,0-.956-3.025,1.454,1.454,0,1,1,2.711-1.021,32.191,32.191,0,0,1,1.048,3.3,1.427,1.427,0,0,1-1.021,1.768,1.309,1.309,0,0,1-.38,0ZM4.847,34.169H4.611a1.454,1.454,0,0,1-1.192-1.663,32.282,32.282,0,0,1,.733-3.379,1.441,1.441,0,1,1,2.776.72c-.262,1.021-.5,2.056-.668,3.1a1.454,1.454,0,0,1-1.427,1.218ZM72.03,39.748a1.414,1.414,0,0,1-1.454-1.388v-.092a30.514,30.514,0,0,0-.144-3.091,1.454,1.454,0,1,1,2.894-.275c.1,1.113.157,2.253.157,3.366a1.493,1.493,0,0,1-1.454,1.493ZM4.545,42.983A1.454,1.454,0,0,1,3.1,41.673Q3,39.97,3,38.255a1.447,1.447,0,0,1,2.894-.039h0q0,1.572.157,3.143a1.454,1.454,0,0,1-1.31,1.585Zm66.319,5.566a1.31,1.31,0,0,1-.38,0,1.454,1.454,0,0,1-1.021-1.781c.275-1.021.5-2.069.668-3.1A1.454,1.454,0,1,1,73,44.148a33.8,33.8,0,0,1-.733,3.379,1.467,1.467,0,0,1-1.4,1.074ZM6.536,51.587a1.467,1.467,0,0,1-1.31-.943c-.393-1.074-.746-2.187-1.048-3.3a1.454,1.454,0,0,1,2.75-.746c.275,1.021.6,2.043.969,3.025a1.467,1.467,0,0,1-.851,1.833,1.4,1.4,0,0,1-.511.092Zm60.936,5.107a1.454,1.454,0,0,1-1.31-2.187,30.042,30.042,0,0,0,1.454-2.816,1.454,1.454,0,1,1,2.619,1.2c-.485,1.048-1.021,2.082-1.6,3.078a1.441,1.441,0,0,1-1.31.72ZM10.687,59.313a1.467,1.467,0,0,1-1.179-.6A32.292,32.292,0,0,1,7.636,55.8,1.454,1.454,0,0,1,10.15,54.35a29.888,29.888,0,0,0,1.716,2.619,1.441,1.441,0,0,1-1.179,2.344Zm51.4,4.322A1.423,1.423,0,0,1,61.068,61.2h0c.733-.733,1.441-1.506,2.1-2.292A1.454,1.454,0,1,1,65.4,60.754c-.72.864-1.493,1.7-2.279,2.5a1.506,1.506,0,0,1-1.061.432ZM16.712,65.861a1.4,1.4,0,0,1-.917-.327c-.877-.733-1.729-1.493-2.528-2.292a1.48,1.48,0,0,1,0-2.069,1.414,1.414,0,0,1,2.03,0h0c.8.76,1.532,1.414,2.344,2.069a1.454,1.454,0,0,1,.2,2.043,1.48,1.48,0,0,1-1.126.524ZM55.07,69.083a1.454,1.454,0,0,1-.786-2.711A29.884,29.884,0,0,0,56.9,64.657a1.454,1.454,0,1,1,1.689,2.357,32.3,32.3,0,0,1-2.907,1.873,1.493,1.493,0,0,1-.72.2ZM24.2,70.5a1.388,1.388,0,0,1-.6-.131,34.126,34.126,0,0,1-3.078-1.585,1.452,1.452,0,0,1,1.454-2.514c.917.537,1.873,1.021,2.829,1.467a1.441,1.441,0,0,1-.6,2.763Zm22.7,1.912a1.451,1.451,0,0,1-.367-2.855,30.04,30.04,0,0,0,3.025-.956,1.454,1.454,0,1,1,1.021,2.711,33.758,33.758,0,0,1-3.3,1.061,1.873,1.873,0,0,1-.38,0Zm-14.249.668H32.4a33.8,33.8,0,0,1-3.379-.733,1.454,1.454,0,1,1,.76-2.8,31.137,31.137,0,0,0,3.1.668,1.454,1.454,0,0,1-.236,2.881Zm5.566.471a1.48,1.48,0,0,1-1.48-1.454,1.427,1.427,0,0,1,1.414-1.453h.065a22.577,22.577,0,0,0,3.117-.144,1.427,1.427,0,0,1,1.572,1.31,1.454,1.454,0,0,1-1.31,1.585c-1.126.1-2.266.17-3.392.17Z" transform="translate(-3 -3)"/>
        <path id="Path_7669" data-name="Path 7669" d="M60.24,14.776a32.164,32.164,0,1,0,0,45.5,32.164,32.164,0,0,0,0-45.5Z" transform="translate(-2.276 -2.269)" fill="none" stroke="#000" stroke-linecap="round" stroke-miterlimit="10" stroke-width="0.75"/>
      </g>
    </g>
  </g>
</svg>
