<svg xmlns="http://www.w3.org/2000/svg" xmlns:xlink="http://www.w3.org/1999/xlink" width="80" height="80" viewBox="0 0 80 80">
  <defs>
    <clipPath id="clip-path">
      <rect id="Rectangle_656" data-name="Rectangle 656" width="70" height="70" transform="translate(0 0.011)"/>
    </clipPath>
  </defs>
  <g id="icon-petrol" transform="translate(15634 -11070)">
    <rect id="Rectangle_646" data-name="Rectangle 646" width="80" height="80" transform="translate(-15634 11070)" fill="#fff"/>
    <g id="fuel-icon" transform="translate(-15626 11079.989)" clip-path="url(#clip-path)">
      <g id="Layer_4" data-name="Layer 4" transform="translate(4.369 2.188)">
        <path id="Path_843" data-name="Path 843" d="M986.7,421.95H965.359a1.2,1.2,0,0,1,0-2.407H986.7a1.2,1.2,0,0,1,0,2.407Zm3.827-34.472a2.407,2.407,0,0,1-2.406,2.407H963.489a2.407,2.407,0,0,1-2.406-2.407V374.371a2.407,2.407,0,0,1,2.406-2.407h24.631a2.407,2.407,0,0,1,2.407,2.407Z" transform="translate(-952.521 -365.153)" fill="#fff"/>
        <rect id="Rectangle_219" data-name="Rectangle 219" width="26.961" height="15.332" transform="translate(10.244 8.154)" fill="#ff4612"/>
        <g id="Group_1131" data-name="Group 1131">
          <path id="Path_844" data-name="Path 844" d="M1002.541,433.207H957.452a1.2,1.2,0,0,1-1.2-1.2v-8.7a1.2,1.2,0,0,1,1.2-1.2H959.4V373.5a5.791,5.791,0,0,1,5.785-5.785H994.8a5.791,5.791,0,0,1,5.785,5.785v48.612h1.949a1.2,1.2,0,0,1,1.2,1.2v8.7a1.2,1.2,0,0,1-1.195,1.2ZM958.657,430.8h42.683v-6.294h-1.947a1.2,1.2,0,0,1-1.2-1.2V373.5a3.387,3.387,0,0,0-3.383-3.382H965.19a3.387,3.387,0,0,0-3.382,3.382v49.813a1.2,1.2,0,0,1-1.2,1.2h-1.949Z" transform="translate(-956.251 -367.712)"/>
          <path id="Path_845" data-name="Path 845" d="M990.086,420.765H968.3a1.2,1.2,0,0,1,0-2.407h21.782a1.2,1.2,0,0,1,0,2.407Z" transform="translate(-955.446 -363.966)"/>
          <path id="Path_846" data-name="Path 846" d="M991.691,391.977H967.063a2.407,2.407,0,0,1-2.407-2.407V376.463a2.407,2.407,0,0,1,2.407-2.407h24.628a2.407,2.407,0,0,1,2.407,2.407V389.57a2.407,2.407,0,0,1-2.407,2.407Zm-24.628-15.51v13.107h24.631V376.467Z" transform="translate(-955.629 -367.245)"/>
          <path id="Path_847" data-name="Path 847" d="M1011.419,395.7h-2.888a2.818,2.818,0,0,1-2.814-2.814v-10.16a2.563,2.563,0,0,0-.726-1.8l-3.47-3.581a2.814,2.814,0,0,1,3.719-4.2l7.609,5.756a3.5,3.5,0,0,1,1.383,2.783v11.2A2.818,2.818,0,0,1,1011.419,395.7Zm-7.876-20.721a.414.414,0,0,0-.3.7l3.47,3.581a4.956,4.956,0,0,1,1.4,3.468v10.16a.411.411,0,0,0,.411.411h2.888a.411.411,0,0,0,.411-.411v-11.2a1.081,1.081,0,0,0-.437-.875l-7.612-5.756a.411.411,0,0,0-.241-.077Z" transform="translate(-952.961 -367.358)"/>
          <path id="Path_848" data-name="Path 848" d="M1006.307,423.127a5.192,5.192,0,0,1-5.185-5.187v-20.5a4.616,4.616,0,0,0-2.376-4.034l-2.829-1.569a1.2,1.2,0,0,1,1.166-2.1l2.827,1.569a7.018,7.018,0,0,1,3.612,6.126v20.5a2.783,2.783,0,0,0,5.566,0V393.237a1.2,1.2,0,1,1,2.406,0v24.705A5.192,5.192,0,0,1,1006.307,423.127Z" transform="translate(-953.359 -366.095)"/>
        </g>
      </g>
    </g>
  </g>
</svg>
