<svg xmlns="http://www.w3.org/2000/svg" width="73" height="68" viewBox="0 0 73 68">
  <g id="icon-replacement-battery" transform="translate(15827 -11082)">
    <rect id="Rectangle_644" data-name="Rectangle 644" width="73" height="68" transform="translate(-15827 11082)" fill="#fff"/>
    <g id="Group_7387" data-name="Group 7387" transform="translate(-15826 11093.591)">
      <path id="Path_7652" data-name="Path 7652" d="M58.607,37.284H2.041A2.037,2.037,0,0,1,0,35.267V6.961A2.042,2.042,0,0,1,2.041,4.92H58.63a2.042,2.042,0,0,1,2.041,2.041V35.243A2.078,2.078,0,0,1,58.607,37.284ZM2.109,7.054V35.267L58.6,35.2,58.536,6.961Z" transform="translate(5 16.619)"/>
      <path id="Path_7654" data-name="Path 7654" d="M58.64,13.814H2.051A2.042,2.042,0,0,1,.01,11.773V8.864A2.042,2.042,0,0,1,2.051,6.823H9.766V4.479a4.479,4.479,0,1,1,8.959,0V6.849H41.988V4.479a4.479,4.479,0,1,1,8.959,0V6.849h7.716A2.042,2.042,0,0,1,60.7,8.889V11.82a2.069,2.069,0,0,1-2.063,1.993ZM2.051,8.931l.093,2.842,56.5-.071L58.57,8.931H49.864a1.051,1.051,0,0,1-1.056-1.056v-3.4a2.369,2.369,0,0,0-4.737,0V7.9a1.051,1.051,0,0,1-1.056,1.056H17.669A1.051,1.051,0,0,1,16.614,7.9V4.479a2.377,2.377,0,0,0-2.368-2.371,2.342,2.342,0,0,0-2.34,2.371V7.9A1.051,1.051,0,0,1,10.85,8.959h-8.8ZM58.64,8.931Z" transform="translate(5.014 10)"/>
      <path id="Path_7655" data-name="Path 7655" d="M18.544,14.118a1.446,1.446,0,0,1-1.454-1.454,1.461,1.461,0,0,1,1.454-1.454H28.3a1.454,1.454,0,0,1,0,2.908Z" transform="translate(27.989 25.079)" fill="#ff4612" fill-rule="evenodd"/>
      <path id="Path_7656" data-name="Path 7656" d="M11.156,16.93v3.424a1.454,1.454,0,1,1-2.908,0V16.93H4.824a1.454,1.454,0,1,1,0-2.908H8.245V10.574a1.454,1.454,0,0,1,2.908,0V14h3.424a1.461,1.461,0,0,1,1.454,1.454,1.446,1.446,0,0,1-1.45,1.459H11.156Z" transform="translate(9.533 22.268)" fill="#ff4612" fill-rule="evenodd"/>
    </g>
  </g>
</svg>
