<svg xmlns="http://www.w3.org/2000/svg" width="80" height="80" viewBox="0 0 80 80">
  <g id="icon-size-fleet" transform="translate(15828 -10870)">
    <rect id="Rectangle_634" data-name="Rectangle 634" width="80" height="80" transform="translate(-15828 10870)" fill="#fff"/>
    <g id="Group_7379" data-name="Group 7379" transform="translate(-15821.123 10882.933)">
      <path id="Path_6561" data-name="Path 6561" d="M56.083,192.25H54.892a1.066,1.066,0,0,1-1-.7c-.132-.347-.274-.686-.427-1.022a1.068,1.068,0,0,1,.217-1.209l.849-.85a3.258,3.258,0,0,0-.005-4.592l-3.061-3.061a3.257,3.257,0,0,0-4.593,0l-.849.848a1.073,1.073,0,0,1-1.209.217c-.336-.153-.675-.295-1.023-.433a1.065,1.065,0,0,1-.7-1.005V179.25a3.25,3.25,0,0,0-3.25-3.25H35.5a3.25,3.25,0,0,0-3.25,3.25v1.192a1.066,1.066,0,0,1-.7,1c-.347.132-.686.274-1.022.427a1.071,1.071,0,0,1-1.209-.217l-.85-.849a3.258,3.258,0,0,0-4.592,0l-3.062,3.071a3.258,3.258,0,0,0,0,4.593l.848.849a1.068,1.068,0,0,1,.217,1.209c-.153.336-.295.675-.428,1.023a1.065,1.065,0,0,1-1.011.7H19.25A3.25,3.25,0,0,0,16,195.5v4.333a3.25,3.25,0,0,0,3.25,3.25h1.192a1.066,1.066,0,0,1,1,.7c.132.347.274.686.427,1.022a1.068,1.068,0,0,1-.217,1.209l-.849.85a3.258,3.258,0,0,0,0,4.592l3.062,3.062a3.258,3.258,0,0,0,4.593,0l.849-.848a1.073,1.073,0,0,1,1.209-.217c.336.153.675.295,1.023.433a1.065,1.065,0,0,1,.709,1.005v1.192a3.25,3.25,0,0,0,3.25,3.25h4.333a3.25,3.25,0,0,0,3.25-3.25v-1.192a1.066,1.066,0,0,1,.7-1c.347-.132.686-.274,1.022-.427a1.071,1.071,0,0,1,1.209.217l.85.849a3.259,3.259,0,0,0,4.592-.005l3.061-3.062a3.258,3.258,0,0,0,0-4.593l-.848-.849a1.068,1.068,0,0,1-.217-1.209c.153-.336.295-.675.433-1.023a1.065,1.065,0,0,1,1.005-.7h1.192a3.25,3.25,0,0,0,3.25-3.25V195.5A3.25,3.25,0,0,0,56.083,192.25Zm1.083,7.583a1.083,1.083,0,0,1-1.083,1.083H54.892a3.261,3.261,0,0,0-3.033,2.1q-.172.455-.373.9a3.26,3.26,0,0,0,.65,3.636l.847.848a1.083,1.083,0,0,1,0,1.532h0l-3.062,3.061a1.083,1.083,0,0,1-1.532,0l-.849-.848a3.256,3.256,0,0,0-3.636-.65c-.294.133-.593.258-.894.373a3.26,3.26,0,0,0-2.094,3.031v1.192a1.083,1.083,0,0,1-1.083,1.083H35.5a1.083,1.083,0,0,1-1.083-1.083v-1.192a3.261,3.261,0,0,0-2.1-3.033q-.455-.172-.9-.373a3.261,3.261,0,0,0-3.636.65l-.848.847a1.083,1.083,0,0,1-1.532,0h0l-3.061-3.058a1.083,1.083,0,0,1,0-1.532l.848-.849a3.26,3.26,0,0,0,.65-3.636c-.133-.294-.258-.593-.373-.894a3.26,3.26,0,0,0-3.031-2.1H19.25a1.083,1.083,0,0,1-1.083-1.083V195.5a1.083,1.083,0,0,1,1.083-1.083h1.192a3.261,3.261,0,0,0,3.033-2.1q.172-.455.373-.9a3.26,3.26,0,0,0-.65-3.636l-.852-.848a1.083,1.083,0,0,1,0-1.532h0l3.061-3.061a1.083,1.083,0,0,1,1.532,0l.849.848a3.257,3.257,0,0,0,3.636.65c.294-.133.593-.258.894-.373a3.26,3.26,0,0,0,2.1-3.031V179.25a1.083,1.083,0,0,1,1.083-1.083h4.333a1.083,1.083,0,0,1,1.083,1.083v1.192a3.261,3.261,0,0,0,2.1,3.033q.455.172.9.373a3.257,3.257,0,0,0,3.636-.65l.848-.847a1.09,1.09,0,0,1,1.533,0l3.062,3.062a1.083,1.083,0,0,1,0,1.532l-.848.849a3.26,3.26,0,0,0-.65,3.636c.133.294.258.593.373.894a3.26,3.26,0,0,0,3.031,2.094h1.192a1.083,1.083,0,0,1,1.083,1.083Z" transform="translate(-16 -154.333)"/>
      <path id="Path_6562" data-name="Path 6562" d="M123.442,273.317c-.011-.26-.029-.519-.061-.777-.035-.277-.076-.553-.133-.822-.038-.177-.088-.351-.135-.527q-.091-.335-.2-.66c-.053-.151-.108-.3-.165-.448a9.626,9.626,0,0,0-.478-1.014c-.014-.025-.023-.052-.037-.077a9.6,9.6,0,0,0-.975-1.42c-.031-.039-.067-.076-.1-.114-.149-.177-.3-.348-.465-.511-.084-.088-.173-.17-.262-.254-.108-.1-.217-.2-.325-.3q-.2-.171-.4-.332l-.178-.132A9.68,9.68,0,0,0,113.714,264c-.108,0-.217.016-.325.021-.231.006-.463.019-.7.043-.122.013-.246.027-.368.044a9.9,9.9,0,0,0-1.05.2,9.755,9.755,0,0,0,.008,18.892.24.24,0,0,1,.054.01,10.3,10.3,0,0,0,1.135.216c.252.032.5.038.758.05.169.009.325.034.5.034.309,0,.629-.021.957-.053a1.081,1.081,0,0,0,.108-.014c.263-.029.53-.068.8-.122.108-.021.209-.048.313-.072.191-.044.38-.091.575-.148.152-.046.3-.1.447-.15s.3-.108.456-.167.283-.126.422-.191c.182-.083.363-.166.542-.263h.007a12.827,12.827,0,0,0,2.777-2.005,3.417,3.417,0,0,0,.581-.711,11.565,11.565,0,0,0,1.631-4.453c.03-.209.057-.418.074-.632.015-.2.026-.391.03-.586,0-.062.009-.12.009-.182C123.464,273.6,123.449,273.464,123.442,273.317Zm-11.632-6.912a7.845,7.845,0,0,1,1.9-.238,7.521,7.521,0,0,1,.926.063c.082.01.164.025.245.037.234.037.466.083.694.142.075.019.149.037.223.057a7.645,7.645,0,0,1,1.652.7c.083.049.165.1.247.151.171.108.337.217.5.34.088.064.177.127.261.2a7.816,7.816,0,0,1,.61.542c.077.078.147.164.222.245.125.135.246.274.362.42.08.1.157.2.233.31.108.156.217.319.314.483l.164.27a7.434,7.434,0,0,1,.373.794c.043.108.08.217.119.325.07.2.131.4.184.6.027.108.057.2.08.31a7.639,7.639,0,0,1,.138.887c.007.079.007.159.012.238.015.249.019.5.01.751,0,.09-.008.18-.013.269-.02.262-.053.524-.1.788a7.6,7.6,0,0,1-3.807,5.308c-.134.07-.266.137-.4.2l-.09.043a7.827,7.827,0,0,1-1.976.6c-.048.007-.1.016-.145.023-.135.02-.269.036-.4.048-.174.015-.35.024-.529.027H113.6a7.588,7.588,0,0,1-.767-.048l-.13-.015a8,8,0,0,1-.885-.167,7.583,7.583,0,0,1-.008-14.691Z" transform="translate(-92.047 -230.417)" fill="#ff4612"/>
      <path id="Path_6563" data-name="Path 6563" d="M153.195,38.75h-3.407a1.057,1.057,0,0,1-1.01-.711,22.559,22.559,0,0,0-1.217-2.937,1.061,1.061,0,0,1,.208-1.223l2.416-2.419a3.25,3.25,0,0,0,0-4.594l-4.606-4.6a3.25,3.25,0,0,0-4.594,0l-2.415,2.414a1.061,1.061,0,0,1-1.222.209,22.507,22.507,0,0,0-2.938-1.223,1.058,1.058,0,0,1-.715-1.01V19.25a3.25,3.25,0,0,0-3.25-3.25h-6.5a3.25,3.25,0,0,0-3.25,3.25v3.407a1.057,1.057,0,0,1-.711,1.01,22.574,22.574,0,0,0-2.937,1.222,1.058,1.058,0,0,1-1.223-.208L113.4,22.265a3.257,3.257,0,0,0-4.594,0l-4.6,4.6a3.25,3.25,0,0,0,0,4.6l3.552,3.559a1.083,1.083,0,0,0,1.534-1.53l-3.554-3.558a1.083,1.083,0,0,1,0-1.532l4.6-4.6a1.083,1.083,0,0,1,1.532,0l2.42,2.416a3.221,3.221,0,0,0,3.722.611,20.493,20.493,0,0,1,2.655-1.1,3.223,3.223,0,0,0,2.189-3.066V19.25a1.083,1.083,0,0,1,1.083-1.083h6.5a1.083,1.083,0,0,1,1.083,1.083v3.407a3.222,3.222,0,0,0,2.189,3.065,20.437,20.437,0,0,1,2.656,1.105,3.228,3.228,0,0,0,3.721-.612l2.42-2.415a1.083,1.083,0,0,1,1.532,0l4.6,4.6a1.083,1.083,0,0,1,0,1.531l-2.416,2.42a3.224,3.224,0,0,0-.611,3.722,20.482,20.482,0,0,1,1.1,2.655,3.222,3.222,0,0,0,3.066,2.189h3.407A1.083,1.083,0,0,1,154.278,42v6.5a1.083,1.083,0,0,1-1.083,1.083h-3.407a3.222,3.222,0,0,0-3.065,2.189,20.43,20.43,0,0,1-1.105,2.656,3.225,3.225,0,0,0,.612,3.721l2.416,2.42a1.083,1.083,0,0,1,0,1.532l-4.6,4.6a1.083,1.083,0,0,1-1.531,0l-3.56-3.552a1.083,1.083,0,0,0-1.556,1.507l.027.027,3.559,3.552a3.25,3.25,0,0,0,4.594,0l4.6-4.6a3.25,3.25,0,0,0,0-4.6l-2.413-2.417a1.062,1.062,0,0,1-.209-1.222,22.517,22.517,0,0,0,1.223-2.938,1.058,1.058,0,0,1,1.01-.715h3.407a3.25,3.25,0,0,0,3.25-3.25V42A3.25,3.25,0,0,0,153.195,38.75Z" transform="translate(-91.445 -16)"/>
      <path id="Path_6564" data-name="Path 6564" d="M224.439,132.168a14.1,14.1,0,0,0-19.916,0,1.083,1.083,0,0,0,1.532,1.532,11.917,11.917,0,0,1,16.965,16.739l-.113.113a1.083,1.083,0,0,0,1.505,1.558l.027-.027A14.1,14.1,0,0,0,224.439,132.168Z" transform="translate(-178.731 -112.876)" fill="#ff4612"/>
    </g>
  </g>
</svg>
