<svg xmlns="http://www.w3.org/2000/svg" width="80" height="80" viewBox="0 0 80 80">
  <g id="icon-hands" transform="translate(15636 -10870)">
    <rect id="Rectangle_636" data-name="Rectangle 636" width="80" height="80" transform="translate(-15636 10870)" fill="#fff"/>
    <g id="Group_7381" data-name="Group 7381" transform="translate(-15630.123 10880.933)">
      <path id="Path_6554" data-name="Path 6554" d="M244.262,228.523a16.108,16.108,0,0,0-1.7-19.074,1,1,0,1,0-1.49,1.32,14.128,14.128,0,0,1,.99,1.259,17.341,17.341,0,0,1-4.592,2.606,19.9,19.9,0,0,0-4.192-8.362,14.088,14.088,0,0,1,4.477,1.736,1,1,0,0,0,1.025-1.706A16.188,16.188,0,0,0,228,204.188a16.332,16.332,0,0,0-12.175,9.141,15.979,15.979,0,0,0-.833,2.18A16.1,16.1,0,0,0,215.831,227a16.133,16.133,0,0,0,14.631,9.311,16.115,16.115,0,0,0,13.8-7.785Zm-6.406-11.908a19.432,19.432,0,0,0,5.236-2.867,14.141,14.141,0,0,1,0,12.814,19.427,19.427,0,0,0-5.235-2.867,23.862,23.862,0,0,0,0-7.081Zm-1.727,3.54a21.892,21.892,0,0,1-.2,2.946,22.233,22.233,0,0,0-10.935,0,21.881,21.881,0,0,1,0-5.891,22.221,22.221,0,0,0,10.935,0,21.873,21.873,0,0,1,.2,2.945Zm-5.667-13.907a17.227,17.227,0,0,1,5.107,9,20.242,20.242,0,0,1-10.214,0,17.227,17.227,0,0,1,5.107-9Zm-2.812.024a19.9,19.9,0,0,0-4.192,8.363,17.341,17.341,0,0,1-4.591-2.6,14.2,14.2,0,0,1,8.783-5.759ZM216.3,220.154a14.075,14.075,0,0,1,1.534-6.406,19.417,19.417,0,0,0,5.236,2.866,23.917,23.917,0,0,0,0,7.08,19.4,19.4,0,0,0-5.236,2.865,14.074,14.074,0,0,1-1.534-6.406Zm2.568,8.123a17.337,17.337,0,0,1,4.591-2.6,19.888,19.888,0,0,0,4.192,8.363,14.2,14.2,0,0,1-8.782-5.759Zm11.6,5.785a17.222,17.222,0,0,1-5.107-9,20.253,20.253,0,0,1,10.214,0,17.225,17.225,0,0,1-5.107,9Zm7.005-8.387a17.346,17.346,0,0,1,4.589,2.6,14.191,14.191,0,0,1-8.781,5.757,19.9,19.9,0,0,0,4.192-8.361Zm0,0" transform="translate(-196.906 -204)" fill="#ff4612"/>
      <path id="Path_6555" data-name="Path 6555" d="M141.736,323.43c1.253-3.665.237-7.427-3.109-11.5a1,1,0,0,0-1.539,1.263c2.911,3.545,3.789,6.592,2.763,9.593-1.388,4.057.121,10.134,1.186,13.842H129.351c.345-2.6,1.107-8.579,1.02-9.813a6.765,6.765,0,0,0-1.269-3.769,21.244,21.244,0,0,0-3.042-3.021c-.511-.442-.994-.86-1.459-1.3-2.862-2.728-3.271-6.321-3.7-10.123-.071-.622-2.532-16.122-2.906-19.112a2.58,2.58,0,0,1,5.157-.059c0,.03,2.394,17.311,2.41,17.363a3.8,3.8,0,0,0,.584,1.481l4.205,6.68a1,1,0,1,0,1.685-1.061l-4.213-6.69a.237.237,0,0,0-.015-.022,1.844,1.844,0,1,1,3.067-2.048c.011.017.023.033.035.05.731.959,2.065,2.7,3.322,4.332a1,1,0,1,0,1.577-1.215c-1.245-1.616-2.566-3.339-3.3-4.3a3.808,3.808,0,0,0-1.37-1.227l-.569-11.269c0-.012,0-.024,0-.037a3.5,3.5,0,0,0-5.472-2.574,4.571,4.571,0,0,0-9.094.651c0,.042,2.849,18.67,2.919,19.284.454,3.988.924,8.112,4.309,11.339.5.476,1.023.93,1.529,1.368a19.557,19.557,0,0,1,2.769,2.732,4.876,4.876,0,0,1,.859,2.693c.069.974-.673,6.978-1.158,10.534a1,1,0,0,0,.987,1.13h14.152a1,1,0,0,0,.954-1.278c-.954-3.227-2.941-9.943-1.584-13.911Zm-15.781-32.666a1.508,1.508,0,0,1,2.627.856l.541,10.706a3.819,3.819,0,0,0-1.914.638c-.057.039-.113.078-.167.119l-.7-5.035-.758-6.073a1.5,1.5,0,0,1,.368-1.21Zm0,0" transform="translate(-116 -270.645)"/>
      <path id="Path_6556" data-name="Path 6556" d="M366.386,286.131a4.571,4.571,0,0,0-7.557,2.758,3.5,3.5,0,0,0-5.472,2.574c0,.012-.572,11.3-.572,11.3A3.8,3.8,0,0,0,351.415,304c-1.638,2.151-5.643,7.354-6.119,7.934-3.345,4.073-4.362,7.834-3.109,11.5,1.357,3.967-.63,10.683-1.585,13.91a1,1,0,0,0,.955,1.278h14.152a1,1,0,0,0,.987-1.129c-.485-3.556-1.227-9.56-1.158-10.534a4.871,4.871,0,0,1,.859-2.693,19.5,19.5,0,0,1,2.769-2.732c.506-.439,1.03-.891,1.529-1.369,3.384-3.226,3.854-7.35,4.309-11.338.07-.614.142-1.249.224-1.869.361-2.733.83-5.506,1.285-8.188.5-2.973,1.023-6.048,1.4-9.1a.956.956,0,0,0,.008-.125,4.575,4.575,0,0,0-1.538-3.409Zm-11.044,5.49a1.508,1.508,0,1,1,2.993.367l-1.453,11.1c-.054-.041-.111-.08-.167-.118a3.811,3.811,0,0,0-1.914-.641Zm7.684,16.978c-.433,3.8-.843,7.394-3.7,10.122-.465.444-.948.862-1.459,1.3a21.273,21.273,0,0,0-3.042,3.021,6.768,6.768,0,0,0-1.269,3.768c-.087,1.235.675,7.209,1.02,9.813H342.886c1.065-3.708,2.574-9.784,1.186-13.842-1.026-3-.148-6.048,2.763-9.592.517-.63,4.709-6.081,6.182-8.015l.036-.05a1.844,1.844,0,1,1,3.066,2.048l-.014.023-4.213,6.69a1,1,0,0,0,1.685,1.061l4.206-6.679a7.362,7.362,0,0,0,.62-1.64s2.372-17.173,2.374-17.2a2.58,2.58,0,0,1,4.289-1.807,2.545,2.545,0,0,1,.867,1.866c-.373,2.989-2.835,18.489-2.906,19.112Zm0,0" transform="translate(-300.811 -270.645)"/>
    </g>
  </g>
</svg>
