<svg xmlns="http://www.w3.org/2000/svg" xmlns:xlink="http://www.w3.org/1999/xlink" width="80" height="80" viewBox="0 0 80 80">
  <defs>
    <clipPath id="clip-path">
      <rect id="Rectangle_252" data-name="Rectangle 252" width="53.082" height="65.821" fill="none"/>
    </clipPath>
    <clipPath id="clip-path-2">
      <rect id="Rectangle_252-2" data-name="Rectangle 252" width="40.559" height="50.293" fill="#ff4612"/>
    </clipPath>
  </defs>
  <g id="icon-guaranteed" transform="translate(15540 -10870)">
    <rect id="Rectangle_637" data-name="Rectangle 637" width="80" height="80" transform="translate(-15540 10870)" fill="#fff"/>
    <g id="Group_7382" data-name="Group 7382" transform="translate(-15527 10881.933)">
      <g id="Group_5238" data-name="Group 5238">
        <g id="Group_5237" data-name="Group 5237" clip-path="url(#clip-path)">
          <path id="Path_6552" data-name="Path 6552" d="M185.563,279.281a.922.922,0,0,1-.452-.118c-16.091-9.008-25.7-23.487-25.7-38.744V225.891a.926.926,0,0,1,.3-.679.913.913,0,0,1,.7-.243c10.738.833,18.72-2.478,24.41-10.113a.959.959,0,0,1,1.481,0c5.7,7.635,13.687,10.944,24.413,10.113a.926.926,0,0,1,1,.926v14.526A39.352,39.352,0,0,1,204.9,262.18a54.546,54.546,0,0,1-18.884,16.982.922.922,0,0,1-.451.118Zm-24.3-52.4v13.539c0,14.431,9.072,28.182,24.3,36.872a52.485,52.485,0,0,0,17.793-16.136,37.507,37.507,0,0,0,6.5-20.736V226.881c-10.461.583-18.437-2.685-24.3-9.96-5.859,7.273-13.827,10.543-24.3,9.96Zm0,0" transform="translate(-159.34 -213.311)"/>
        </g>
      </g>
      <g id="Group_6037" data-name="Group 6037" transform="translate(6.261 7.764)">
        <g id="Group_5237-2" data-name="Group 5237" clip-path="url(#clip-path-2)">
          <path id="Path_6552-2" data-name="Path 6552" d="M179.394,264a.7.7,0,0,1-.345-.09c-12.295-6.883-19.635-17.946-19.635-29.6V223.2a.707.707,0,0,1,.227-.519.7.7,0,0,1,.535-.186c8.2.637,14.3-1.893,18.651-7.727a.733.733,0,0,1,1.131,0c4.352,5.834,10.458,8.362,18.654,7.727a.707.707,0,0,1,.762.707v11.1a30.068,30.068,0,0,1-5.206,16.627,41.677,41.677,0,0,1-14.429,12.976.7.7,0,0,1-.345.09Zm-18.566-40.038v10.345c0,11.026,6.932,21.533,18.566,28.173a40.1,40.1,0,0,0,13.6-12.33,28.658,28.658,0,0,0,4.97-15.844V223.961c-7.993.445-14.088-2.051-18.566-7.611-4.477,5.558-10.565,8.056-18.566,7.611Zm0,0" transform="translate(-159.358 -213.593)" fill="#ff4612"/>
        </g>
      </g>
    </g>
  </g>
</svg>
