<svg xmlns="http://www.w3.org/2000/svg" width="80" height="80" viewBox="0 0 80 80">
  <g id="icon-location" transform="translate(15732 -10870)">
    <rect id="Rectangle_635" data-name="Rectangle 635" width="80" height="80" transform="translate(-15732 10870)" fill="#fff"/>
    <g id="Group_7380" data-name="Group 7380" transform="translate(-15721.104 10881.933)">
      <path id="Path_6557" data-name="Path 6557" d="M186.258,261.429c.128-.209.257-.414.385-.628,5.775-9.56,8.681-17.923,8.639-24.854a18.045,18.045,0,0,0-36.089-.006c-.042,6.937,2.865,15.3,8.639,24.86.128.213.256.418.385.628C156.06,262.932,148,267.276,148,272.435c0,6.477,12.84,11.55,29.237,11.55s29.237-5.073,29.237-11.55c0-5.159-8.06-9.5-20.216-11.006Zm-25.12-25.482a16.1,16.1,0,1,1,32.2.006c.084,13.817-12.834,30.858-16.1,34.945-3.265-4.086-16.183-21.128-16.1-34.951Zm16.1,46.092c-16.325,0-27.292-4.966-27.292-9.6,0-4.113,8.131-7.94,19.418-9.181a102.889,102.889,0,0,0,7.133,9.812.972.972,0,0,0,1.482,0,102.891,102.891,0,0,0,7.133-9.812c11.284,1.241,19.418,5.066,19.418,9.181,0,4.638-10.967,9.6-27.293,9.6Zm0,0" transform="translate(-148 -218)"/>
      <path id="Path_6558" data-name="Path 6558" d="M213.4,520.519c-4.316-.553-7.782-1.525-9.753-2.738a.973.973,0,1,0-1.019,1.657c2.2,1.354,5.941,2.423,10.525,3.01a1.048,1.048,0,0,0,.125.007.972.972,0,0,0,.122-1.937Zm0,0" transform="translate(-192.12 -462.113)" fill="#ff4612"/>
      <path id="Path_6559" data-name="Path 6559" d="M291.952,535.618c-1.355.031-2.768.024-4.146-.027a.973.973,0,0,0-.071,1.945c.855.031,1.723.047,2.584.047q.849,0,1.679-.019a.974.974,0,0,0,.95-1,.962.962,0,0,0-1-.951Zm0,0" transform="translate(-261.081 -476.747)" fill="#ff4612"/>
      <path id="Path_6560" data-name="Path 6560" d="M277.892,278.753a8.214,8.214,0,1,0-8.214,8.215,8.215,8.215,0,0,0,8.214-8.215Zm-14.483,0a6.269,6.269,0,1,1,6.269,6.27,6.269,6.269,0,0,1-6.269-6.27Zm0,0" transform="translate(-240.44 -260.806)" fill="#ff4612"/>
    </g>
  </g>
</svg>
