<svg xmlns="http://www.w3.org/2000/svg" width="20" height="20" viewBox="0 0 20 20">
  <path id="wrench" d="M15.554,4.2a6,6,0,0,0-7.016,8.285,1,1,0,0,1-.205,1.124L3.7,18.209A1,1,0,1,1,2.3,16.791L6.453,12.66A8,8,0,0,1,16.4,2.366a1.8,1.8,0,0,1,1.245,1.41A1.952,1.952,0,0,1,17.09,5.5l-2.8,2.8V9.707h1.414l2.8-2.8a1.952,1.952,0,0,1,1.72-.551A1.8,1.8,0,0,1,21.634,7.6,8,8,0,0,1,11.34,17.547L7.209,21.7A1,1,0,0,1,5.791,20.3l4.6-4.628a1,1,0,0,1,1.124-.205A6,6,0,0,0,19.8,8.446l-2.675,2.675a2,2,0,0,1-1.414.586H14.293a2,2,0,0,1-2-2V8.293a2,2,0,0,1,.586-1.414Z" transform="translate(-2 -2)" fill="#ff4612" fill-rule="evenodd"/>
</svg>
